<?xml version="1.0" encoding="UTF-8"?>
<svg width="114px" height="50px" viewBox="0 0 114 50" version="1.1" xmlns="http://www.w3.org/2000/svg" xmlns:xlink="http://www.w3.org/1999/xlink">
    <title>22</title>
    <g id="页面-1" stroke="none" stroke-width="1" fill="none" fill-rule="evenodd" opacity="0.539457775">
        <g id="形状描摹" transform="translate(-1063.000000, -577.000000)" stroke="#3D4242">
            <g id="22" transform="translate(1064.000000, 578.000000)">
                <path d="M88,16 C92.418278,16 96,19.581722 96,24 C96,28.418278 92.418278,32 88,32 C85.0393493,32 82.4543312,30.3917256 81.0709285,28.0011597 L62.9284929,28.0021593 C61.5449481,30.392174 58.960238,32 56,32 C53.039762,32 50.4550519,30.392174 49.0715071,28.0021593 L30.9290715,28.0011597 C29.5456688,30.3917256 26.9606507,32 24,32 C19.581722,32 16,28.418278 16,24 C16,19.581722 19.581722,16 24,16 C26.9610634,16 29.5463894,17.6087228 30.9296499,19.99984 L49.0709285,19.9988403 C50.4543312,17.6082744 53.0393493,16 56,16 C58.9606507,16 61.5456688,17.6082744 62.9290715,19.9988403 L81.0703501,19.99984 C82.4536106,17.6087228 85.0389366,16 88,16 Z" id="路径"></path>
                <rect id="矩形" x="0" y="0" width="112" height="48" rx="4"></rect>
                <circle id="椭圆形" cx="8" cy="8" r="4"></circle>
                <circle id="椭圆形" cx="8" cy="24" r="4"></circle>
                <circle id="椭圆形" cx="104" cy="24" r="4"></circle>
                <circle id="椭圆形" cx="24" cy="8" r="4"></circle>
                <circle id="椭圆形" cx="40" cy="8" r="4"></circle>
                <circle id="椭圆形" cx="72" cy="8" r="4"></circle>
                <circle id="椭圆形" cx="88" cy="8" r="4"></circle>
                <circle id="椭圆形" cx="72" cy="40" r="4"></circle>
                <circle id="椭圆形" cx="88" cy="40" r="4"></circle>
                <circle id="椭圆形" cx="104" cy="8" r="4"></circle>
                <circle id="椭圆形" cx="8" cy="40" r="4"></circle>
                <circle id="椭圆形" cx="24" cy="40" r="4"></circle>
                <circle id="椭圆形" cx="40" cy="40" r="4"></circle>
                <circle id="椭圆形" cx="104" cy="40" r="4"></circle>
            </g>
        </g>
    </g>
</svg>