<?xml version="1.0" encoding="UTF-8"?>
<svg width="83px" height="83px" viewBox="0 0 83 83" version="1.1" xmlns="http://www.w3.org/2000/svg" xmlns:xlink="http://www.w3.org/1999/xlink">
    <title>36</title>
    <g id="页面-1" stroke="none" stroke-width="1" fill="none" fill-rule="evenodd" opacity="0.539457775">
        <g id="形状描摹" transform="translate(-825.000000, -1455.000000)" stroke="#3D4242">
            <g id="36" transform="translate(825.330496, 1455.113281)">
                <path d="M41.81175,1.90225 C42.0266976,2.4059569 42.6092822,2.64004257 43.1129891,2.42509496 C43.3206831,2.3364654 43.4919063,2.1796019 43.5983428,1.98044557 L43.5984427,1.98025869 C43.8282625,1.55023677 44.3631699,1.38794087 44.7931918,1.61776065 C44.993921,1.72503784 45.145465,1.90569165 45.2161962,2.12201941 L45.2161927,2.12200869 C45.3863834,2.64252775 45.9463143,2.92652499 46.4668334,2.75633429 C46.6814916,2.6861489 46.8657601,2.54478991 46.9891572,2.355641 L46.9893804,2.35529881 C47.2558175,1.94689143 47.8028869,1.8318017 48.2112943,2.0982387 C48.4019201,2.22259926 48.537158,2.41576985 48.5887876,2.63744106 C48.7130183,3.17082443 49.2461199,3.50250821 49.7795032,3.37827751 C49.999464,3.32704629 50.1953468,3.20226442 50.3347494,3.02457289 L50.3350099,3.02424085 C50.635951,2.64064185 51.1908805,2.57363442 51.5744795,2.87457557 C51.7535277,3.01504252 51.8714148,3.21922703 51.9035404,3.44452056 C51.9808545,3.98671539 52.4830657,4.36357571 53.0252605,4.28626163 C53.2488088,4.25438484 53.4547836,4.1471682 53.6091265,3.98234022 L53.6091629,3.98230127 C53.9423807,3.62644673 54.5009841,3.60809596 54.8568387,3.94131369 C55.0229571,4.09686488 55.1225798,4.31056403 55.1349133,4.53780703 L55.1349129,4.53780127 C55.164592,5.08463585 55.6319486,5.50387325 56.1787831,5.47419423 C56.4042699,5.46195611 56.6188254,5.37311992 56.786965,5.22237804 L56.7872383,5.22213301 C57.1503405,4.89660175 57.7085881,4.92705895 58.0341194,5.29016106 C58.1860503,5.45962695 58.2666759,5.68121417 58.2591744,5.90869037 C58.2411238,6.45605322 58.6702162,6.91441137 59.217579,6.93246194 C59.4432985,6.93990556 59.6647969,6.87007709 59.8454367,6.7345267 L59.8457551,6.73428782 C60.235716,6.4416649 60.7890596,6.52057296 61.0816825,6.91053391 C61.2182715,7.09255785 61.2792885,7.32029869 61.252,7.54622922 C61.1863283,8.08994617 61.5738605,8.58395329 62.1175775,8.649625 C62.3417589,8.67670228 62.5684681,8.62645627 62.7602164,8.50719563 L62.7603876,8.50708912 C63.1744204,8.2495754 63.7188164,8.37645917 63.9763302,8.79049196 C64.0965236,8.98373995 64.1374491,9.21593755 64.0905669,9.43863309 C63.9777454,9.9745484 64.3207307,10.5004535 64.856646,10.6132751 C65.0776181,10.6597944 65.3078497,10.6295009 65.5092672,10.5274042 L65.509396,10.5273389 C65.9443236,10.306878 66.475621,10.4807377 66.6960819,10.9156653 C66.798982,11.1186678 66.8195146,11.3535653 66.7533951,11.5713419 L66.753396,11.5713389 C66.5942917,12.0953782 66.8901299,12.6491755 67.4141692,12.8082798 C67.6302629,12.8738884 67.8622783,12.8637708 68.0718407,12.7796005 L68.0720678,12.7795093 C68.5244769,12.5978 69.0385315,12.8172456 69.2202407,13.2696547 C69.3050647,13.4808445 69.3050462,13.7166346 69.220189,13.927811 C69.0159964,14.4359667 69.2624073,15.0134392 69.770563,15.2176317 C69.9801091,15.3018338 70.2121197,15.3119869 70.4282203,15.2464119 L70.4285645,15.2463074 C70.8950902,15.1047417 71.3880457,15.3681738 71.5296115,15.8346995 C71.5956979,16.0524853 71.5751157,16.2873801 71.4721611,16.490354 C71.2244327,16.978748 71.4195306,17.5754931 71.9079246,17.8232215 C72.1093335,17.9253823 72.339582,17.9557294 72.5605828,17.9092428 L72.5612924,17.9090936 C73.038435,17.8087286 73.5065974,18.1141673 73.6069623,18.59131 C73.6538071,18.8140137 73.6128427,19.0462048 73.4926169,19.2394331 C73.2032981,19.7044298 73.3457131,20.3159234 73.8107098,20.6052422 C74.0024432,20.7245378 74.2291512,20.7748194 74.453342,20.7477716 L74.4536194,20.7477381 C74.9377213,20.6893329 75.3775102,21.0344283 75.4359154,21.5185302 C75.4631752,21.744478 75.4021312,21.972225 75.2655208,22.15425 C74.9367822,22.5922739 75.0253755,23.2138577 75.4633994,23.5425963 C75.6440169,23.6781504 75.8654924,23.7479952 76.0911971,23.7405793 L76.0914208,23.740572 C76.578703,23.7245616 76.9867023,24.106603 77.0027126,24.5938852 C77.0101862,24.8213479 76.9295235,25.0429087 76.7775596,25.2123256 C76.4118829,25.6200003 76.445929,26.2469256 76.8536037,26.6126023 C77.0217122,26.7633925 77.2362551,26.8522846 77.461748,26.8645761 L77.4622077,26.8646012 C77.9490414,26.8911384 78.3221855,27.3073077 78.2956484,27.7941414 C78.2832615,28.0213834 78.1835951,28.2350629 78.0174487,28.3905871 C77.6176329,28.7648414 77.5969112,29.3923493 77.9711656,29.7921651 C78.1254875,29.9570272 78.3314583,30.0642776 78.5550138,30.0961788 L78.5553102,30.0962211 C79.0380316,30.1651051 79.3735131,30.6122697 79.3046291,31.0949911 C79.2724772,31.3203033 79.1545585,31.5244959 78.9754794,31.6649596 C78.5445684,32.0029518 78.4692428,32.626271 78.807235,33.057182 C78.9466141,33.2348783 79.1424739,33.3596749 79.3624182,33.4109296 L79.3625589,33.4109624 C79.8373806,33.5216123 80.1326001,33.9962309 80.0219501,34.4710525 C79.9702933,34.6927223 79.8350135,34.8858734 79.6443503,35.0101854 L79.6443089,35.0102124 C79.1855725,35.3093075 79.0561577,35.9236513 79.3552528,36.3823877 C79.4786117,36.571589 79.6628675,36.7130057 79.8775341,36.7832395 L79.877797,36.7833255 C80.3412607,36.9349598 80.5940485,37.4335953 80.4424142,37.897059 C80.3716304,38.1134067 80.2200253,38.2940577 80.0192413,38.4013073 C79.5361849,38.6593338 79.3537621,39.2601001 79.6117886,39.7431566 C79.7182136,39.942397 79.8894732,40.0993311 80.0972289,40.187991 L80.097673,40.1881805 C80.5460874,40.3795417 80.7544702,40.8981824 80.563109,41.3465968 C80.4737811,41.5559179 80.3070626,41.7226522 80.09775,41.812 C79.5940401,42.0270151 79.3600068,42.6096567 79.5750218,43.1133666 C79.6636786,43.3210604 79.820568,43.4922743 80.0197449,43.5986946 L80.0197413,43.5986927 C80.4497458,43.8284443 80.6120829,44.3632822 80.3823313,44.7932866 C80.2750818,44.9940156 80.094452,45.1455677 79.8781423,45.2163116 L79.8777413,45.2164427 C79.3572161,45.38668 79.0732516,45.9466536 79.2434889,46.4671788 C79.313703,46.6818686 79.4551099,46.866153 79.6443121,46.9895397 L79.6445122,46.9896702 C80.0528695,47.2559772 80.1680241,47.8029007 79.9017171,48.2112581 C79.7773893,48.4019033 79.5842285,48.5371584 79.3625589,48.5887876 C78.8291756,48.7130183 78.4974918,49.2461199 78.6217225,49.7795032 C78.6729537,49.999464 78.7977356,50.1953468 78.9754271,50.3347494 L78.9754794,50.3347904 C79.3591263,50.6357691 79.426142,51.1907677 79.1251634,51.5744145 C78.9846725,51.7534933 78.7804505,51.8713973 78.5551175,51.9035207 L78.5549036,51.9035512 C78.0127351,51.9808427 77.6358777,52.4830142 77.7131692,53.0251827 C77.7450462,53.2487873 77.8523045,53.4548092 78.0171987,53.6091629 L78.0172773,53.6092365 C78.373206,53.9424133 78.39165,54.5010437 78.0584732,54.8569724 C77.9029304,55.0231368 77.6892181,55.1228021 77.4619487,55.1351629 C76.9150876,55.164906 76.4958806,55.632336 76.5256237,56.1791971 C76.5378892,56.404714 76.6267688,56.6192879 76.7775605,56.7874253 L76.777771,56.78766 C77.1032462,57.1505749 77.0728952,57.7086254 76.7099803,58.0341005 C76.5405621,58.1860409 76.3190066,58.2666759 76.0915596,58.2591744 C75.5441979,58.2411217 75.0858389,58.6702114 75.0677862,59.2175731 C75.0603427,59.4432606 75.1301497,59.6647295 75.2656634,59.8453569 L75.2657708,59.8455 C75.5583822,60.2355241 75.4794136,60.7889096 75.0893894,61.081521 C74.9073374,61.2181036 74.6795723,61.2791042 74.4536257,61.2517929 L74.4532708,61.25175 C73.9095835,61.1860317 73.4155627,61.5735021 73.3498444,62.1171893 C73.3227384,62.341437 73.3730065,62.5682187 73.4923308,62.7600089 L73.4925333,62.7603344 C73.7500945,63.1743129 73.6232932,63.7187035 73.2093146,63.9762646 C73.0160617,64.096499 72.7838388,64.1374488 72.5611169,64.0905669 C72.0251924,63.9777574 71.4992895,64.3207598 71.38648,64.8566844 C71.3399598,65.0776879 71.3702729,65.3079505 71.4724053,65.5093846 L71.4724111,65.509396 C71.6929087,65.9442798 71.5191143,66.4755715 71.0842305,66.6960691 C70.8812286,66.7989964 70.646319,66.819547 70.4285288,66.7534317 L70.4283728,66.7533844 C69.9043292,66.5942988 69.3505437,66.8901558 69.1914582,67.4141993 C69.1258498,67.6303199 69.1359856,67.8623623 69.220189,68.071939 C69.4019525,68.5243365 69.1825603,69.0384255 68.7301629,69.220189 C68.5189596,69.3050459 68.2831423,69.3050459 68.071939,69.220189 C67.5637631,69.0160149 66.9862893,69.2624571 66.7821152,69.7706331 C66.6979118,69.9802097 66.687776,70.2122522 66.7533844,70.4283728 L66.753396,70.4284111 C66.8950197,70.8949335 66.6316372,71.3879334 66.1651147,71.5295571 C65.9473126,71.5956759 65.7123889,71.5751114 65.5093871,71.4721566 L65.509396,71.4721611 C65.0209757,71.2244529 64.4242256,71.4195886 64.1765173,71.9080089 C64.0743551,72.109448 64.0440241,72.3397284 64.0905425,72.5607507 L64.0905962,72.5610058 C64.1910124,73.0381122 63.8856446,73.5062868 63.4085382,73.606703 C63.1858045,73.6535816 62.9535714,73.6126194 62.7603169,73.4923669 C62.2953401,73.2030354 61.6838523,73.3454241 61.3945208,73.810401 C61.275194,74.0021678 61.2249095,74.2289252 61.2519863,74.4531577 L61.2520033,74.453298 C61.3104589,74.9373888 60.9654135,75.3772096 60.4813227,75.4356652 C60.2553408,75.4629533 60.0275515,75.4019079 59.8455,75.2652708 C59.4074891,74.9365254 58.7859103,75.0251027 58.457165,75.4631136 C58.3215793,75.6437641 58.25173,75.8652898 58.2591737,76.0910389 L58.2591744,76.0910596 C58.2752455,76.5784571 57.89316,76.986599 57.4057626,77.0026701 C57.1782597,77.0101717 56.9566486,76.9295256 56.7871766,76.7775616 L56.7870266,76.7774272 C56.3793005,76.411823 55.7523924,76.4459697 55.3867883,76.8536958 C55.2360098,77.0218458 55.1471513,77.2364298 55.1349129,77.4619487 C55.1084957,77.9487441 54.6924547,78.3219542 54.2056594,78.295537 C53.9783903,78.2832036 53.7646687,78.1835612 53.6091125,78.0174119 L53.6088244,78.0171042 C53.2345391,77.6173305 52.6070404,77.5966681 52.2072667,77.9709534 C52.0423817,78.1253258 51.9351416,78.331365 51.9032904,78.5549794 C51.834544,79.0376212 51.3875556,79.3731496 50.9049139,79.3044032 C50.6795676,79.2723054 50.4753309,79.1543989 50.3348475,78.9753022 L50.3347904,78.9752294 C49.9967861,78.5443211 49.3734592,78.4690076 48.9425509,78.8070119 C48.7648223,78.9464221 48.640016,79.142333 48.5887832,79.3623282 L48.5887876,79.3623089 C48.4782033,79.8371607 48.0036136,80.1324577 47.5287619,80.0218734 C47.3070651,79.9702442 47.1138794,79.8349757 46.9895372,79.6443082 L46.9895376,79.6443089 C46.6903816,79.1855805 46.0759948,79.0562216 45.6172664,79.3553777 C45.4280646,79.4787642 45.2866579,79.6630483 45.2164439,79.8777377 L45.2163801,79.8779327 C45.0648274,80.3413273 44.5663141,80.5941251 44.1029195,80.4425723 C43.8865872,80.3718211 43.705942,80.2202473 43.5986927,80.0194913 C43.3406317,79.5364364 42.7398385,79.3540428 42.2567836,79.6121039 C42.0575751,79.7185264 41.9006636,79.889763 41.8120053,80.0974876 L41.812,80.0975 C41.6205962,80.5459552 41.1018881,80.7543366 40.6534329,80.5629329 C40.4440927,80.473585 40.2773478,80.3068401 40.188,80.0975 C39.9730137,79.5937914 39.3903964,79.3597357 38.8866878,79.574722 C38.6789619,79.6633808 38.5077242,79.8202934 38.4013009,80.0195032 L38.4013073,80.0194913 C38.1715739,80.4495208 37.6367304,80.6118928 37.2067009,80.3821594 C37.0059449,80.2749102 36.8543711,80.0942649 36.7836199,79.8779327 L36.7835573,79.8777413 C36.61332,79.3572161 36.0533464,79.0732516 35.5328212,79.2434889 C35.3181314,79.313703 35.133847,79.4551099 35.0104603,79.6443121 L35.0103608,79.6444647 C34.7440031,80.0528998 34.1969754,80.1680763 33.7885402,79.9017185 C33.5978888,79.7773867 33.4626194,79.5842297 33.4109624,79.3625589 L33.4109296,79.3624182 C33.2866377,78.8290566 32.7535043,78.4974401 32.2201428,78.6217319 C32.0001985,78.6729865 31.8043386,78.7977831 31.6649596,78.9754794 C31.3640296,79.3591393 30.8090599,79.4262051 30.4254001,79.1252752 C30.2463211,78.9848116 30.1284041,78.7806178 30.0962561,78.5553052 L30.0961696,78.5546995 C30.0188166,78.0125632 29.5166213,77.6357819 28.9744849,77.7131349 C28.7509042,77.7450358 28.5449124,77.8523057 28.3905871,78.0171987 C28.0574369,78.3731619 27.4988,78.3916555 27.1428368,78.0585053 C26.9766635,77.9029818 26.8769792,77.6892867 26.8645912,77.4620255 L26.8645761,77.461748 C26.8347682,76.914912 26.367306,76.4957779 25.82047,76.5255858 C25.594977,76.5378774 25.3804341,76.6267694 25.2123256,76.7775596 C24.8493919,77.1031045 24.2912698,77.0727949 23.965725,76.7098612 C23.8137611,76.5404442 23.7330984,76.3188835 23.740572,76.0914208 L23.7405793,76.0911971 C23.7585638,75.5438301 23.3294146,75.0855222 22.7820477,75.0675377 C22.556343,75.0601219 22.3348675,75.1299667 22.15425,75.2655208 C21.7643114,75.5581712 21.2109637,75.4793035 20.9183133,75.0893648 C20.7817035,74.9073407 20.7206712,74.6795894 20.7479548,74.4536455 L20.7480137,74.4531577 C20.8136669,73.9094612 20.4261363,73.4154857 19.8824398,73.3498324 C19.6582073,73.3227556 19.4314499,73.3730401 19.2396831,73.4923669 L19.2395521,73.4924484 C18.8255691,73.750049 18.281143,73.623276 18.0235424,73.209293 C17.9032985,73.0160522 17.8623286,72.7838394 17.9091831,72.5611169 L17.9092157,72.5609616 C18.0219596,72.0250345 17.6789019,71.4991827 17.1429747,71.3864388 C16.9219913,71.3399501 16.6917591,71.3702795 16.490354,71.4724111 C16.0554924,71.6929273 15.5242036,71.519166 15.3036874,71.0843044 C15.2007598,70.8813295 15.1801915,70.6464476 15.2462746,70.4286727 L15.2464119,70.4282203 C15.4054334,69.9041697 15.1095188,69.3504303 14.5854682,69.1914088 C14.3693677,69.1258338 14.1373571,69.135987 13.927811,69.220189 C13.4754304,69.4019694 12.9613414,69.1826046 12.779561,68.730224 C12.6947038,68.5190477 12.6946853,68.2832575 12.7795093,68.0720678 L12.7796005,68.0718407 C12.9837181,67.5636405 12.7372105,66.9861929 12.2290104,66.7820753 C12.0194481,66.697905 11.7874327,66.6877874 11.5713389,66.753396 C11.1047588,66.8950551 10.6116835,66.6316545 10.4700244,66.1650744 C10.403905,65.9472981 10.4244375,65.7124009 10.5273375,65.5093988 L10.5274042,65.5092672 C10.7750154,65.0207771 10.5797445,64.4240491 10.0912544,64.1764378 C9.88983685,64.0743411 9.65960527,64.0440476 9.43863309,64.0905669 C8.96150907,64.1910117 8.49329709,63.8856528 8.39285236,63.4085288 C8.34597022,63.1858332 8.38689572,62.9536356 8.50708912,62.7603876 L8.50719563,62.7602164 C8.7964436,62.295161 8.65392353,61.6836773 8.18886815,61.3944294 C7.99711986,61.2751687 7.77041068,61.2249227 7.54622922,61.252 C7.06220451,61.3104619 6.62243222,60.9654751 6.56397031,60.4814504 C6.53668177,60.2555199 6.59769882,60.027779 6.73428782,59.8457551 L6.7345267,59.8454367 C7.06323236,59.4073905 6.9745943,58.7858153 6.53654806,58.4571096 C6.35590821,58.3215592 6.13440978,58.2517307 5.90869037,58.2591744 C5.42129381,58.2752474 5.01315105,57.8931642 4.99707801,57.4057676 C4.98957645,57.1782914 5.07020208,56.9567042 5.22213301,56.7872383 L5.22237804,56.786965 C5.58794665,56.3792047 5.55374349,55.7522977 5.14598316,55.3867291 C4.97784356,55.2359872 4.76328801,55.1471511 4.53780127,55.1349129 C4.05100477,55.1084924 3.67779627,54.6924478 3.70421678,54.2056513 C3.71655018,53.9784089 3.81617202,53.7647101 3.98228913,53.6091584 L3.98269324,53.60878 C4.38243927,53.2344586 4.40305003,52.606953 4.02872865,52.207207 C3.8743645,52.0423581 3.66835274,51.9351409 3.44477056,51.9032904 L3.4447177,51.9032829 C2.96203624,51.8345224 2.62648697,51.3874904 2.69524742,50.904809 C2.72734464,50.6794944 2.84521954,50.4752811 3.02427056,50.3347904 L3.0243597,50.3347205 C3.45522481,49.9966462 3.53044663,49.3732976 3.19237233,48.9424325 C3.05297608,48.7647764 2.85711948,48.6400177 2.63719106,48.5887876 C2.16231115,48.4781693 1.86701881,48.0035292 1.97763715,47.5286493 C2.02926681,47.3070053 2.1644913,47.1138595 2.35509489,46.9895135 L2.355641,46.9891572 C2.81430319,46.6899349 2.94355478,46.0755482 2.64433252,45.616886 C2.52093546,45.4277371 2.33666692,45.2863781 2.12200869,45.2161927 C1.65857255,45.0646661 1.40571996,44.5661402 1.55724664,44.102704 C1.62797752,43.8863775 1.77952063,43.7057246 1.98024874,43.598448 L1.98044557,43.5983428 C2.46344666,43.340209 2.64573758,42.7394005 2.38760376,42.2563994 C2.28116717,42.0572431 2.10994398,41.9003796 1.90225,41.81175 C1.45389328,41.6204221 1.24553029,41.1018552 1.43685822,40.6534985 C1.52617827,40.4441864 1.69289191,40.2774622 1.90219827,40.1881288 L1.9025,40.188 C2.4062086,39.9730137 2.64026429,39.3903964 2.42527802,38.8866878 C2.33661918,38.6789619 2.17970657,38.5077242 1.98049679,38.4013009 L1.98050869,38.4013073 C1.55038842,38.1715254 1.38798209,37.6365689 1.617764,37.2064487 C1.72501399,37.0056914 1.9056464,36.8541049 2.12196926,36.7833202 L2.12218915,36.7832482 C2.64267864,36.6129348 2.92655245,36.0529284 2.75623904,35.5324389 C2.68600593,35.3178017 2.54461066,35.1335683 2.35544106,35.0102124 C1.94704808,34.7439026 1.83186686,34.196948 2.09817662,33.788555 C2.22249191,33.5979142 2.41563196,33.4626516 2.63728521,33.4109987 L2.6375818,33.4109296 C3.17094338,33.2866377 3.50255995,32.7535043 3.37826813,32.2201428 C3.32701346,32.0001985 3.20221691,31.8043386 3.02452056,31.6649596 C2.64085163,31.3640225 2.57378421,30.8090397 2.87472128,30.4253708 C3.01518491,30.2462917 3.21937757,30.128373 3.44468979,30.0962211 L3.44498618,30.0961788 C3.98714265,30.0188135 4.36393029,29.5165918 4.28656494,28.9744353 C4.25466372,28.7508798 4.14741333,28.544909 3.98255127,28.3905871 C3.62660303,28.0573957 3.60815492,27.4987377 3.94134627,27.1427894 C4.09687043,26.976643 4.31054954,26.876976 4.53779154,26.8645876 L4.53791937,26.8645806 C5.08477879,26.8347679 5.50392791,26.3672827 5.47411514,25.8204233 C5.46182335,25.5949535 5.37295003,25.3804305 5.22219037,25.2123256 C4.89666567,24.8493487 4.9270267,24.2912079 5.29000362,23.9656832 C5.4594212,23.8137462 5.68096698,23.7331008 5.90841213,23.7405747 L5.90844037,23.7405756 C6.45583599,23.7585633 6.91416967,23.3293933 6.9321573,22.7819977 C6.9395734,22.5563127 6.86974637,22.3348546 6.73422153,22.1542397 L6.73422922,22.15425 C6.44160446,21.764267 6.52052892,21.2109041 6.91051192,20.9182793 C7.09253672,20.7816965 7.32027403,20.7206816 7.54620193,20.7479665 L7.54647922,20.748 C8.0902009,20.8136643 8.58420584,20.4261222 8.64987012,19.8824005 C8.67694794,19.6581873 8.62668127,19.4314478 8.50738428,19.239685 L8.50724217,19.2394565 C8.24968678,18.8254515 8.37651427,18.2810442 8.7905193,18.0234888 C8.98375027,17.9032785 9.2159374,17.8623284 9.43863309,17.9091831 L9.43865964,17.9091886 C9.97461166,18.0219517 10.5004991,17.6788893 10.6132622,17.1429373 C10.659753,16.9219711 10.6294413,16.6917554 10.5273389,16.490354 C10.3068594,16.0554486 10.480686,15.5241541 10.9155914,15.3036746 C11.1185669,15.2007742 11.3534367,15.1802239 11.571198,15.2463112 L11.57139,15.2463695 C12.0954632,15.4054179 12.6492427,15.1095069 12.8082911,14.5854337 C12.8738697,14.3693489 12.8637343,14.1373534 12.779561,13.927811 C12.5978226,13.4753884 12.8172556,12.9612993 13.2696782,12.779561 C13.4808552,12.6947311 13.716634,12.6947311 13.927811,12.779561 C14.436017,12.9837075 15.0134928,12.7372187 15.2176393,12.2290127 C15.3018126,12.0194702 15.311948,11.7874748 15.2463695,11.57139 L15.2463112,11.571198 C15.1047092,11.1046117 15.3681611,10.6115776 15.8347474,10.4699756 C16.0525088,10.4038882 16.2873785,10.4244385 16.490354,10.5273389 C16.9788519,10.7749876 17.5756166,10.5797408 17.8232653,10.0912429 C17.9253677,9.88984152 17.9556794,9.65962577 17.9091886,9.43865964 L17.9091671,9.43855721 C17.8087775,8.96141511 18.1141957,8.49323316 18.5913378,8.39284356 C18.8140255,8.34599058 19.0462043,8.38693457 19.2394331,8.50713309 C19.7044824,8.79641846 20.3159914,8.65393363 20.6052768,8.18888433 C20.7245428,7.99715478 20.7748065,7.77046439 20.7477577,7.54629268 L20.74775,7.54622922 C20.6893354,7.06210789 21.0344388,6.6222956 21.5185602,6.56388096 C21.7444921,6.53661976 21.9722252,6.59764643 22.1542509,6.73422991 L22.15425,6.73422922 C22.592326,7.06294068 23.21393,6.97428321 23.5426415,6.53620721 C23.6781655,6.35559346 23.7479921,6.13413678 23.7405761,5.90845318 L23.7405756,5.90844037 C23.7245607,5.42107836 24.1066631,5.01301074 24.5940251,4.99699584 C24.8214741,4.98952178 25.0430253,5.07015909 25.2124581,5.22208497 L25.2126363,5.22224474 C25.6203907,5.5878674 26.2473367,5.55371286 26.6129594,5.14595842 C26.7637145,4.97783139 26.8525718,4.76328599 26.8648371,4.53780127 L26.8648468,4.53762287 C26.8913249,4.05085032 27.3073968,3.67770796 27.7941693,3.70418609 C28.0213924,3.71654595 28.2350632,3.81618263 28.3905871,3.98230127 C28.7648893,4.38210203 29.3924237,4.40277269 29.7922245,4.02847049 C29.9570556,3.87415203 30.0642865,3.66820208 30.096188,3.44467185 L30.0962139,3.44449007 C30.1651084,2.96175447 30.6122929,2.62626992 31.0950285,2.69516437 C31.3203196,2.72731719 31.5244954,2.84521829 31.6649596,3.02427056 C32.002996,3.45517178 32.6263431,3.53045356 33.0572443,3.19241714 C33.2349093,3.05304125 33.3596855,2.85720316 33.4109402,2.63728625 L33.4109624,2.63719106 C33.5216267,2.16236687 33.9962589,1.86715695 34.471083,1.97782125 C34.6927262,2.02947823 34.8858564,2.16473788 35.0101668,2.35537117 L35.0102124,2.35544106 C35.3093472,2.81417224 35.9237191,2.9435506 36.3824502,2.64441572 C36.5716198,2.52105976 36.7130151,2.33682637 36.7832482,2.12218915 L36.7833887,2.12175969 C36.9350399,1.65830322 37.4336832,1.4055351 37.8971397,1.55718628 C38.11344,1.6279636 38.294057,1.77952841 38.4013073,1.98025869 C38.6594029,2.46331209 39.2602228,2.64567642 39.7432762,2.38758084 C39.9424528,2.28116075 40.0993418,2.10994709 40.1879984,1.90225373 L40.1880385,1.90215974 C40.3794289,1.45379484 40.898053,1.24547581 41.3464179,1.43686616 C41.5557205,1.52620966 41.7224298,1.69293751 41.81175,1.90225 Z" id="路径" transform="translate(41.000000, 41.000000) scale(-1, 1) translate(-41.000000, -41.000000) "></path>
                <path d="M54.3969088,7.76014789 C55.2092703,8.06359519 55.9009986,8.35160164 56.4720937,8.62416725 C67.0856973,13.6897045 74.8582924,23.7492279 76.7494249,35.7622606 C76.7494249,35.7622606 77.1930658,38.9768134 77.3,40.5 C77.3236966,40.8375373 77.1892748,42.0275471 77.1892748,42.0275471 C76.7878326,43.8362674 75.1742375,45.1886211 73.2447832,45.1886211 C71.0131772,45.1886211 69.2041031,43.379547 69.2041031,41.1479411 C69.2041031,39.6527815 70.0161785,38.3472924 71.2233226,37.6484804 L71.2244431,35.7627247 L59.1024029,35.7637348 L59.1025246,37.6479024 C60.3102195,38.3465723 61.1227429,39.6523692 61.1227429,41.1479411 C61.1227429,43.379547 59.3136688,45.1886211 57.0820628,45.1886211 C54.8504569,45.1886211 53.0413828,43.379547 53.0413828,41.1479411 C53.0413828,39.6527815 53.8534582,38.3472924 55.0606023,37.6484804 L55.0617228,35.7637348 L54.7659373,35.5803902 C51.7418777,33.645253 49.7279215,30.4614991 49.2825363,26.8869319 L49,24.6193553 C49,19.2329752 49,15.1931901 49,12.5 C49,12.2784585 49,12.0398795 49,11.784263 C48.8564266,9.57977327 50.5187796,7.66902771 52.7225999,7.51582386 C53.2918365,7.47625201 53.8629515,7.55892716 54.3969088,7.76014789 Z" id="路径" stroke-linejoin="round"></path>
                <path d="M10.3969088,38.7418193 C11.2092703,39.0452666 11.9009986,39.3332731 12.4720937,39.6058387 C23.0856973,44.6713759 30.8582924,54.7308993 32.7494249,66.743932 C32.7494249,66.743932 33.1930658,69.9584848 33.3,71.4816714 C33.3236966,71.8192087 33.1892748,73.0092186 33.1892748,73.0092186 C32.7878326,74.8179388 31.1742375,76.1702926 29.2447832,76.1702926 C27.0131772,76.1702926 25.2041031,74.3612185 25.2041031,72.1296125 C25.2041031,70.634453 26.0161785,69.3289638 27.2233226,68.6301519 L27.2244431,66.7443961 L15.1024029,66.7454063 L15.1025246,68.6295738 C16.3102195,69.3282438 17.1227429,70.6340406 17.1227429,72.1296125 C17.1227429,74.3612185 15.3136688,76.1702926 13.0820628,76.1702926 C10.8504569,76.1702926 9.04138277,74.3612185 9.04138277,72.1296125 C9.04138277,70.634453 9.85345821,69.3289638 11.0606023,68.6301519 L11.0617228,66.7454063 L10.7659373,66.5620616 C7.74187768,64.6269245 5.72792147,61.4431705 5.28253631,57.8686033 L5,55.6010267 C5,50.2146466 5,46.1748615 5,43.4816714 C5,43.2601299 5,43.0215509 5,42.7659344 C4.85642659,40.5614447 6.51877964,38.6506991 8.72259989,38.4974953 C9.29183648,38.4579234 9.86295155,38.5405986 10.3969088,38.7418193 Z" id="路径" stroke-linejoin="round" transform="translate(19.151401, 56.585146) scale(-1, -1) translate(-19.151401, -56.585146) "></path>
                <path d="M16.7372408,1.5052723 C17.5496024,1.80871959 18.2413307,2.09672604 18.8124257,2.36929165 C29.4260293,7.43482886 37.1986244,17.4943523 39.0897569,29.507385 C39.0897569,29.507385 39.5333978,32.7219378 39.640332,34.2451244 C39.6640286,34.5826617 39.5296069,35.7726715 39.5296069,35.7726715 C39.1281647,37.5813918 37.5145695,38.9337455 35.5851152,38.9337455 C33.3535092,38.9337455 31.5444351,37.1246714 31.5444351,34.8930655 C31.5444351,33.3979059 32.3565106,32.0924168 33.5636547,31.3936048 L33.5647752,29.5078491 L21.4427349,29.5088592 L21.4428566,31.3930268 C22.6505515,32.0916967 23.463075,33.3974936 23.463075,34.8930655 C23.463075,37.1246714 21.6540009,38.9337455 19.4223949,38.9337455 C17.1907889,38.9337455 15.3817148,37.1246714 15.3817148,34.8930655 C15.3817148,33.3979059 16.1937902,32.0924168 17.4009343,31.3936048 L17.4020548,29.5088592 L17.1062694,29.3255146 C14.0822097,27.3903774 12.0682535,24.2066235 11.6228683,20.6320563 L11.340332,18.3644797 C11.340332,12.9780996 11.340332,8.93831446 11.340332,6.2451244 C11.340332,6.0235829 11.340332,5.7850039 11.340332,5.52938741 C11.1967586,3.32489767 12.8591117,1.41415211 15.0629319,1.26094826 C15.6321685,1.22137641 16.2032836,1.30405156 16.7372408,1.5052723 Z" id="路径" stroke-linejoin="round" transform="translate(25.491733, 19.348599) rotate(-90.000000) translate(-25.491733, -19.348599) "></path>
                <path d="M47.8306543,45.3080738 C48.6430159,45.6115211 49.3347442,45.8995275 49.9058392,46.1720931 C60.5194428,51.2376304 68.2920379,61.2971538 70.1831704,73.3101865 C70.1831704,73.3101865 70.6268113,76.5247393 70.7337455,78.0479259 C70.7574421,78.3854632 70.6230204,79.575473 70.6230204,79.575473 C70.2215782,81.3841933 68.607983,82.736547 66.6785287,82.736547 C64.4469227,82.736547 62.6378486,80.9274729 62.6378486,78.6958669 C62.6378486,77.2007074 63.4499241,75.8952183 64.6570682,75.1964063 L64.6581887,73.3106506 L52.5361484,73.3116607 L52.5362701,75.1958283 C53.743965,75.8944982 54.5564885,77.2002951 54.5564885,78.6958669 C54.5564885,80.9274729 52.7474144,82.736547 50.5158084,82.736547 C48.2842024,82.736547 46.4751283,80.9274729 46.4751283,78.6958669 C46.4751283,77.2007074 47.2872037,75.8952183 48.4943478,75.1964063 L48.4954683,73.3116607 L48.1996829,73.1283161 C45.1756232,71.1931789 43.161667,68.009425 42.7162818,64.4348578 L42.4337455,62.1672812 C42.4337455,56.780901 42.4337455,52.741116 42.4337455,50.0479259 C42.4337455,49.8263844 42.4337455,49.5878054 42.4337455,49.3321889 C42.2901721,47.1276992 43.9525252,45.2169536 46.1563454,45.0637497 C46.725582,45.0241779 47.2966971,45.1068531 47.8306543,45.3080738 Z" id="路径" stroke-linejoin="round" transform="translate(56.585146, 63.151401) scale(-1, -1) rotate(-90.000000) translate(-56.585146, -63.151401) "></path>
                <circle id="椭圆形" stroke-linejoin="round" transform="translate(41.000000, 41.000000) scale(-1, 1) translate(-41.000000, -41.000000) " cx="41" cy="41" r="8"></circle>
            </g>
        </g>
    </g>
</svg>