<?xml version="1.0" encoding="UTF-8"?>
<svg width="322px" height="18px" viewBox="0 0 322 18" version="1.1" xmlns="http://www.w3.org/2000/svg" xmlns:xlink="http://www.w3.org/1999/xlink">
    <title>20</title>
    <g id="页面-1" stroke="none" stroke-width="1" fill="none" fill-rule="evenodd" opacity="0.539457775">
        <g id="形状描摹" transform="translate(-1063.000000, -432.000000)" stroke="#3D4242">
            <g id="20" transform="translate(1064.000000, 433.000000)">
                <polygon id="路径" points="176 4.686 180.687 0 187.313 0 192 4.686 196.687 0 203.313 0 208 4.686 212.687 0 219.313 0 224 4.686 228.687 0 235.313 0 240 4.686 244.687 0 251.313 0 256 4.686 260.687 0 267.313 0 272 4.686 276.687 0 283.313 0 288 4.686 292.687 0 299.313 0 304 4.686 308.687 0 315.313 0 320 4.686 320 11.314 315.314 16 308.686 16 304 11.314 299.314 16 292.686 16 288 11.314 283.314 16 276.686 16 272 11.314 267.314 16 260.686 16 256 11.314 251.314 16 244.686 16 240 11.314 235.314 16 228.686 16 224 11.314 219.314 16 212.686 16 208 11.314 203.314 16 196.686 16 192 11.314 187.314 16 180.686 16 176 11.314 171.314 16 164.686 16 160 11.314 155.314 16 148.686 16 144 11.314 139.314 16 132.686 16 128 11.314 123.314 16 116.686 16 112 11.314 107.314 16 100.686 16 96 11.314 91.314 16 84.686 16 80 11.314 75.314 16 68.686 16 64 11.314 59.314 16 52.686 16 48 11.314 43.314 16 36.686 16 32 11.314 27.314 16 20.686 16 16 11.314 11.314 16 4.686 16 0 11.313 0 4.687 4.687 0 11.313 0 16 4.686 20.687 0 27.313 0 32 4.686 36.687 0 43.313 0 48 4.686 52.687 0 59.313 0 64 4.686 68.687 0 75.313 0 80 4.686 84.687 0 91.313 0 96 4.686 100.687 0 107.313 0 112 4.686 116.687 0 123.313 0 128 4.686 132.687 0 139.313 0 144 4.686 148.687 0 155.313 0 160 4.686 164.687 0 171.313 0"></polygon>
                <circle id="椭圆形" cx="8" cy="8" r="4"></circle>
                <circle id="椭圆形" cx="24" cy="8" r="4"></circle>
                <circle id="椭圆形" cx="40" cy="8" r="4"></circle>
                <circle id="椭圆形" cx="56" cy="8" r="4"></circle>
                <circle id="椭圆形" cx="72" cy="8" r="4"></circle>
                <circle id="椭圆形" cx="88" cy="8" r="4"></circle>
                <circle id="椭圆形" cx="104" cy="8" r="4"></circle>
                <circle id="椭圆形" cx="120" cy="8" r="4"></circle>
                <circle id="椭圆形" cx="136" cy="8" r="4"></circle>
                <circle id="椭圆形" cx="152" cy="8" r="4"></circle>
                <circle id="椭圆形" cx="168" cy="8" r="4"></circle>
                <circle id="椭圆形" cx="184" cy="8" r="4"></circle>
                <circle id="椭圆形" cx="200" cy="8" r="4"></circle>
                <circle id="椭圆形" cx="216" cy="8" r="4"></circle>
                <circle id="椭圆形" cx="232" cy="8" r="4"></circle>
                <circle id="椭圆形" cx="248" cy="8" r="4"></circle>
                <circle id="椭圆形" cx="264" cy="8" r="4"></circle>
                <circle id="椭圆形" cx="280" cy="8" r="4"></circle>
                <circle id="椭圆形" cx="296" cy="8" r="4"></circle>
                <circle id="椭圆形" cx="312" cy="8" r="4"></circle>
            </g>
        </g>
    </g>
</svg>