<?xml version="1.0" encoding="UTF-8"?>
<svg width="114px" height="146px" viewBox="0 0 114 146" version="1.1" xmlns="http://www.w3.org/2000/svg" xmlns:xlink="http://www.w3.org/1999/xlink">
    <title>27</title>
    <g id="页面-1" stroke="none" stroke-width="1" fill="none" fill-rule="evenodd" opacity="0.539457775">
        <g id="形状描摹" transform="translate(-1063.000000, -1019.000000)" stroke="#3D4242">
            <g id="27" transform="translate(1064.000000, 1020.000000)">
                <rect id="矩形" x="0" y="0" width="112" height="144" rx="4"></rect>
                <circle id="椭圆形" cx="8" cy="8" r="4"></circle>
                <circle id="椭圆形" cx="8" cy="24" r="4"></circle>
                <circle id="椭圆形" cx="24" cy="8" r="4"></circle>
                <circle id="椭圆形" cx="24" cy="24" r="8"></circle>
                <circle id="椭圆形" cx="56" cy="24" r="8"></circle>
                <circle id="椭圆形" cx="88" cy="24" r="8"></circle>
                <circle id="椭圆形" cx="40" cy="8" r="4"></circle>
                <circle id="椭圆形" cx="40" cy="24" r="4"></circle>
                <circle id="椭圆形" cx="72" cy="24" r="4"></circle>
                <circle id="椭圆形" cx="104" cy="24" r="4"></circle>
                <circle id="椭圆形" cx="8" cy="56" r="4"></circle>
                <circle id="椭圆形" cx="24" cy="56" r="8"></circle>
                <circle id="椭圆形" cx="88" cy="56" r="8"></circle>
                <circle id="椭圆形" cx="40" cy="56" r="4"></circle>
                <circle id="椭圆形" cx="72" cy="56" r="4"></circle>
                <circle id="椭圆形" cx="56" cy="56" r="4"></circle>
                <circle id="椭圆形" cx="104" cy="56" r="4"></circle>
                <circle id="椭圆形" cx="8" cy="88" r="4"></circle>
                <circle id="椭圆形" cx="24" cy="88" r="8"></circle>
                <circle id="椭圆形" cx="88" cy="88" r="8"></circle>
                <circle id="椭圆形" cx="40" cy="88" r="4"></circle>
                <circle id="椭圆形" cx="72" cy="88" r="4"></circle>
                <circle id="椭圆形" cx="56" cy="88" r="4"></circle>
                <circle id="椭圆形" cx="104" cy="88" r="4"></circle>
                <circle id="椭圆形" cx="72" cy="8" r="4"></circle>
                <circle id="椭圆形" cx="88" cy="8" r="4"></circle>
                <circle id="椭圆形" cx="56" cy="8" r="4"></circle>
                <circle id="椭圆形" cx="72" cy="40" r="4"></circle>
                <circle id="椭圆形" cx="88" cy="40" r="4"></circle>
                <circle id="椭圆形" cx="104" cy="8" r="4"></circle>
                <circle id="椭圆形" cx="8" cy="40" r="4"></circle>
                <circle id="椭圆形" cx="24" cy="40" r="4"></circle>
                <circle id="椭圆形" cx="40" cy="40" r="4"></circle>
                <circle id="椭圆形" cx="56" cy="40" r="4"></circle>
                <circle id="椭圆形" cx="104" cy="40" r="4"></circle>
                <circle id="椭圆形" cx="8" cy="104" r="4"></circle>
                <circle id="椭圆形" cx="8" cy="120" r="4"></circle>
                <circle id="椭圆形" cx="24" cy="104" r="4"></circle>
                <circle id="椭圆形" cx="24" cy="120" r="8"></circle>
                <circle id="椭圆形" cx="56" cy="120" r="8"></circle>
                <circle id="椭圆形" cx="88" cy="120" r="8"></circle>
                <circle id="椭圆形" cx="40" cy="104" r="4"></circle>
                <circle id="椭圆形" cx="40" cy="120" r="4"></circle>
                <circle id="椭圆形" cx="72" cy="120" r="4"></circle>
                <circle id="椭圆形" cx="104" cy="120" r="4"></circle>
                <circle id="椭圆形" cx="72" cy="104" r="4"></circle>
                <circle id="椭圆形" cx="88" cy="104" r="4"></circle>
                <circle id="椭圆形" cx="56" cy="104" r="4"></circle>
                <circle id="椭圆形" cx="72" cy="136" r="4"></circle>
                <circle id="椭圆形" cx="88" cy="136" r="4"></circle>
                <circle id="椭圆形" cx="104" cy="104" r="4"></circle>
                <circle id="椭圆形" cx="8" cy="136" r="4"></circle>
                <circle id="椭圆形" cx="24" cy="136" r="4"></circle>
                <circle id="椭圆形" cx="40" cy="136" r="4"></circle>
                <circle id="椭圆形" cx="56" cy="136" r="4"></circle>
                <circle id="椭圆形" cx="104" cy="136" r="4"></circle>
                <circle id="椭圆形" cx="72" cy="72" r="4"></circle>
                <circle id="椭圆形" cx="88" cy="72" r="4"></circle>
                <circle id="椭圆形" cx="8" cy="72" r="4"></circle>
                <circle id="椭圆形" cx="24" cy="72" r="4"></circle>
                <circle id="椭圆形" cx="40" cy="72" r="4"></circle>
                <circle id="椭圆形" cx="56" cy="72" r="8"></circle>
                <circle id="椭圆形" cx="104" cy="72" r="4"></circle>
            </g>
        </g>
    </g>
</svg>