<?xml version="1.0" encoding="UTF-8"?>
<svg width="370px" height="50px" viewBox="0 0 370 50" version="1.1" xmlns="http://www.w3.org/2000/svg" xmlns:xlink="http://www.w3.org/1999/xlink">
    <title>25</title>
    <g id="页面-1" stroke="none" stroke-width="1" fill="none" fill-rule="evenodd" opacity="0.539457775">
        <g id="形状描摹" transform="translate(-1063.000000, -842.000000)" stroke="#3D4242">
            <g id="25" transform="translate(1064.000000, 843.000000)">
                <rect id="矩形" x="0" y="0" width="368" height="48" rx="4"></rect>
                <circle id="椭圆形" cx="8" cy="8" r="4"></circle>
                <circle id="椭圆形" cx="8" cy="24" r="4"></circle>
                <circle id="椭圆形" cx="360" cy="24" r="4"></circle>
                <circle id="椭圆形" cx="24" cy="8" r="4"></circle>
                <circle id="椭圆形" cx="40" cy="8" r="4"></circle>
                <circle id="椭圆形" cx="72" cy="8" r="4"></circle>
                <circle id="椭圆形" cx="72" cy="40" r="4"></circle>
                <circle id="椭圆形" cx="104" cy="8" r="4"></circle>
                <circle id="椭圆形" cx="136" cy="8" r="4"></circle>
                <circle id="椭圆形" cx="360" cy="8" r="4"></circle>
                <circle id="椭圆形" cx="8" cy="40" r="4"></circle>
                <circle id="椭圆形" cx="24" cy="40" r="4"></circle>
                <circle id="椭圆形" cx="40" cy="40" r="4"></circle>
                <circle id="椭圆形" cx="104" cy="40" r="4"></circle>
                <circle id="椭圆形" cx="136" cy="40" r="4"></circle>
                <circle id="椭圆形" cx="168" cy="8" r="4"></circle>
                <circle id="椭圆形" cx="168" cy="40" r="4"></circle>
                <circle id="椭圆形" cx="200" cy="8" r="4"></circle>
                <circle id="椭圆形" cx="200" cy="40" r="4"></circle>
                <circle id="椭圆形" cx="232" cy="8" r="4"></circle>
                <circle id="椭圆形" cx="232" cy="40" r="4"></circle>
                <circle id="椭圆形" cx="264" cy="8" r="4"></circle>
                <circle id="椭圆形" cx="264" cy="40" r="4"></circle>
                <circle id="椭圆形" cx="296" cy="8" r="4"></circle>
                <circle id="椭圆形" cx="296" cy="40" r="4"></circle>
                <circle id="椭圆形" cx="328" cy="8" r="4"></circle>
                <circle id="椭圆形" cx="328" cy="40" r="4"></circle>
                <circle id="椭圆形" cx="360" cy="40" r="4"></circle>
                <path d="M344,16 C348.418278,16 352,19.581722 352,24 C352,28.418278 348.418278,32 344,32 C341.039349,32 338.454331,30.3917256 337.070929,28.0011597 L318.929071,28.0011597 C317.545669,30.3917256 314.960651,32 312,32 C309.039762,32 306.455052,30.392174 305.071507,28.0021593 L286.928493,28.0021593 C285.544948,30.392174 282.960238,32 280,32 C277.039762,32 274.455052,30.392174 273.071507,28.0021593 L254.928493,28.0021593 C253.544948,30.392174 250.960238,32 248,32 C245.039762,32 242.455052,30.392174 241.071507,28.0021593 L222.928493,28.0021593 C221.544948,30.392174 218.960238,32 216,32 C213.040175,32 210.455773,30.3926222 209.072086,28.0031589 L190.927914,28.0031589 C189.544227,30.3926222 186.959825,32 184,32 C181.040175,32 178.455773,30.3926222 177.072086,28.0031589 L158.928493,28.0021593 C157.544948,30.392174 154.960238,32 152,32 C149.039762,32 146.455052,30.392174 145.071507,28.0021593 L126.927914,28.0031589 C125.544227,30.3926222 122.959825,32 120,32 C117.040175,32 114.455773,30.3926222 113.072086,28.0031589 L94.9284929,28.0021593 C93.5449481,30.392174 90.960238,32 88,32 C85.039762,32 82.4550519,30.392174 81.0715071,28.0021593 L62.9284929,28.0021593 C61.5449481,30.392174 58.960238,32 56,32 C53.039762,32 50.4550519,30.392174 49.0715071,28.0021593 L30.9290715,28.0011597 C29.5456688,30.3917256 26.9606507,32 24,32 C19.581722,32 16,28.418278 16,24 C16,19.581722 19.581722,16 24,16 C26.9610634,16 29.5463894,17.6087228 30.9296499,19.99984 L49.0709285,19.9988403 C50.4543312,17.6082744 53.0393493,16 56,16 C58.9606507,16 61.5456688,17.6082744 62.9290715,19.9988403 L81.0709285,19.9988403 C82.4543312,17.6082744 85.0393493,16 88,16 C90.9606507,16 93.5456688,17.6082744 94.9290715,19.9988403 L113.071507,19.9978407 C114.455052,17.607826 117.039762,16 120,16 C122.960238,16 125.544948,17.607826 126.928493,19.9978407 L145.070929,19.9988403 C146.454331,17.6082744 149.039349,16 152,16 C154.960651,16 157.545669,17.6082744 158.929071,19.9988403 L177.071507,19.9978407 C178.455052,17.607826 181.039762,16 184,16 C186.960238,16 189.544948,17.607826 190.928493,19.9978407 L209.071507,19.9978407 C210.455052,17.607826 213.039762,16 216,16 C218.960651,16 221.545669,17.6082744 222.929071,19.9988403 L241.070929,19.9988403 C242.454331,17.6082744 245.039349,16 248,16 C250.960651,16 253.545669,17.6082744 254.929071,19.9988403 L273.070929,19.9988403 C274.454331,17.6082744 277.039349,16 280,16 C282.960651,16 285.545669,17.6082744 286.929071,19.9988403 L305.070929,19.9988403 C306.454331,17.6082744 309.039349,16 312,16 C314.961063,16 317.546389,17.6087228 318.92965,19.99984 L337.07035,19.99984 C338.453611,17.6087228 341.038937,16 344,16 Z" id="路径"></path>
            </g>
        </g>
    </g>
</svg>