<?xml version="1.0" encoding="UTF-8"?>
<svg width="128px" height="64px" viewBox="0 0 128 64" version="1.1" xmlns="http://www.w3.org/2000/svg" xmlns:xlink="http://www.w3.org/1999/xlink">
    <title>32</title>
    <g id="页面-1" stroke="none" stroke-width="1" fill="none" fill-rule="evenodd" opacity="0.539457775">
        <g id="形状描摹" transform="translate(-1718.000000, -760.000000)" stroke="#3D4242">
            <g id="32" transform="translate(1719.000000, 761.000000)">
                <path d="M13.6028568,2.35141552 L54.4453927,43.5631251 C55.9476852,45.0789967 57.9933935,45.9317625 60.1275793,45.9317788 L118.026982,45.9322215 L118.026982,45.9322215 C122.430358,45.9322215 126,49.5291162 126,53.9661107 C126,58.3999824 122.432871,61.9943455 118.032594,61.9943455 L54.4212493,61.9996525 C51.7556152,61.9998749 49.2002151,60.9358216 47.3225085,59.0437794 L2.33524286,13.7130507 L2.33524286,13.7130507 C-0.778414288,10.5756217 -0.778414288,5.48884443 2.33524286,2.35141552 C5.44670853,-0.783805174 10.4913911,-0.783805174 13.6028568,2.35141552 Z" id="路径"></path>
                <circle id="椭圆形" cx="70" cy="54" r="4"></circle>
                <circle id="椭圆形" cx="86" cy="54" r="4"></circle>
                <circle id="椭圆形" cx="102" cy="54" r="4"></circle>
                <circle id="椭圆形" cx="118" cy="54" r="4"></circle>
                <circle id="椭圆形" transform="translate(42.204449, 42.320416) rotate(-135.000000) translate(-42.204449, -42.320416) " cx="42.2044495" cy="42.3204163" r="4"></circle>
                <circle id="椭圆形" transform="translate(30.890741, 31.006708) rotate(-135.000000) translate(-30.890741, -31.006708) " cx="30.890741" cy="31.0067078" r="4"></circle>
                <circle id="椭圆形" transform="translate(19.577032, 19.692999) rotate(-135.000000) translate(-19.577032, -19.692999) " cx="19.5770325" cy="19.6929993" r="4"></circle>
                <circle id="椭圆形" transform="translate(8.263324, 8.379291) rotate(-135.000000) translate(-8.263324, -8.379291) " cx="8.26332397" cy="8.37929077" r="4"></circle>
                <circle id="椭圆形" cx="53.6123047" cy="54" r="4"></circle>
            </g>
        </g>
    </g>
</svg>