<?xml version="1.0" encoding="UTF-8"?>
<svg width="146px" height="50px" viewBox="0 0 146 50" version="1.1" xmlns="http://www.w3.org/2000/svg" xmlns:xlink="http://www.w3.org/1999/xlink">
    <title>26</title>
    <g id="页面-1" stroke="none" stroke-width="1" fill="none" fill-rule="evenodd" opacity="0.539457775">
        <g id="形状描摹" transform="translate(-1063.000000, -931.000000)" stroke="#3D4242">
            <g id="26" transform="translate(1064.000000, 932.000000)">
                <rect id="矩形" x="0" y="0" width="144" height="48" rx="4"></rect>
                <circle id="椭圆形" cx="8" cy="8" r="4"></circle>
                <circle id="椭圆形" cx="24" cy="8" r="4"></circle>
                <circle id="椭圆形" cx="40" cy="8" r="4"></circle>
                <circle id="椭圆形" cx="72" cy="8" r="4"></circle>
                <circle id="椭圆形" cx="88" cy="8" r="4"></circle>
                <circle id="椭圆形" cx="56" cy="8" r="4"></circle>
                <circle id="椭圆形" cx="72" cy="40" r="4"></circle>
                <circle id="椭圆形" cx="88" cy="40" r="4"></circle>
                <circle id="椭圆形" cx="104" cy="8" r="4"></circle>
                <circle id="椭圆形" cx="120" cy="8" r="4"></circle>
                <circle id="椭圆形" cx="136" cy="8" r="4"></circle>
                <circle id="椭圆形" cx="8" cy="40" r="4"></circle>
                <circle id="椭圆形" cx="24" cy="40" r="4"></circle>
                <circle id="椭圆形" cx="40" cy="40" r="4"></circle>
                <circle id="椭圆形" cx="56" cy="40" r="4"></circle>
                <circle id="椭圆形" cx="104" cy="40" r="4"></circle>
                <circle id="椭圆形" cx="120" cy="40" r="4"></circle>
                <circle id="椭圆形" cx="136" cy="40" r="4"></circle>
                <rect id="形状结合" x="12" y="20" width="120" height="8" rx="4"></rect>
            </g>
        </g>
    </g>
</svg>