<?xml version="1.0" encoding="UTF-8"?>
<svg width="121px" height="121px" viewBox="0 0 121 121" version="1.1" xmlns="http://www.w3.org/2000/svg" xmlns:xlink="http://www.w3.org/1999/xlink">
    <title>39</title>
    <g id="页面-1" stroke="none" stroke-width="1" fill="none" fill-rule="evenodd" opacity="0.539457775">
        <g id="形状描摹" transform="translate(-1312.000000, -1436.000000)" stroke="#3D4242">
            <g id="39" transform="translate(1312.678248, 1436.113281)">
                <path d="M60.919615,2.15502027 L61.5572374,3.64922057 C61.7740031,4.15718814 62.3615156,4.39325384 62.8694832,4.17648808 C63.0789339,4.08710883 63.2516054,3.92891849 63.3589423,3.72807757 L64.1250252,2.29463953 C64.3853425,1.80755293 64.991233,1.62372007 65.4783196,1.88403735 C65.705686,2.00555042 65.8773401,2.21017731 65.9574575,2.45521215 L66.4624676,3.99975815 C66.634103,4.52469596 67.1987872,4.8111041 67.7237251,4.63946863 C67.9402056,4.56868742 68.1260384,4.42612842 68.250483,4.23537379 L69.1388496,2.87364293 C69.440612,2.41108709 70.0602144,2.28073826 70.5227702,2.58250066 C70.73867,2.72334948 70.8918384,2.94213148 70.9503133,3.19319284 L71.3190202,4.77623255 C71.4443,5.31412046 71.9819037,5.64860537 72.5197916,5.52332552 C72.74161,5.47166165 72.939147,5.34582597 73.0797269,5.16663379 L74.0831009,3.88766859 C74.4239934,3.453145 75.0525924,3.37724202 75.4871159,3.71813453 C75.6899337,3.87724913 75.8234708,4.1085401 75.8598613,4.36374241 L76.0892439,5.97237671 C76.1672081,6.51913079 76.6736423,6.89916008 77.2203964,6.82119589 C77.4458245,6.78905105 77.6535313,6.68093284 77.809172,6.51471883 L78.919716,5.32873112 C79.2972075,4.92559513 79.9300311,4.90480614 80.3331671,5.28229763 C80.5213572,5.45851649 80.6342166,5.70060926 80.6481887,5.95804544 L80.7362304,7.58020999 C80.7661612,8.1316831 81.2374822,8.5544767 81.7889553,8.52454593 C82.0163547,8.512204 82.2327303,8.42261425 82.4022961,8.2705937 L83.6128951,7.18525764 C84.0241143,6.81658809 84.656339,6.85108137 85.0250086,7.26230054 C85.1970729,7.45422347 85.2883827,7.70517466 85.2798871,7.96279523 L85.226311,9.5874295 C85.208108,10.1394142 85.6408236,10.6016426 86.1928083,10.6198456 C86.4204336,10.6273521 86.6438023,10.556934 86.8259675,10.420239 L88.126083,9.44464497 C88.567828,9.11316379 89.1946517,9.20255029 89.5261329,9.64429531 C89.6808599,9.85049075 89.7499796,10.108474 89.7190673,10.3644065 L89.5242367,11.9774715 C89.4580114,12.5257713 89.8488101,13.0239423 90.3971099,13.0901675 C90.6231809,13.1174731 90.8518009,13.0668035 91.0451654,12.9465377 L92.4252849,12.0881522 C92.8942601,11.7964663 93.5108979,11.9401876 93.8025838,12.4091628 C93.938727,12.6280549 93.9850833,12.8910653 93.9319799,13.1433127 L93.5972241,14.733441 C93.4834503,15.2738797 93.8293305,15.8042237 94.3697692,15.9179975 C94.5926065,15.9649095 94.8247813,15.9343603 95.0278989,15.8314018 L96.4776673,15.0965273 C96.9702805,14.8468261 97.5720452,15.0437453 97.8217464,15.5363585 C97.9382944,15.7662857 97.9615502,16.0323382 97.8866612,16.2789991 L97.414507,17.8341253 C97.2540591,18.36259 97.5523956,18.921064 98.0808603,19.0815119 C98.2987789,19.1476745 98.5327536,19.1374715 98.7440856,19.0525904 L100.252201,18.4468588 C100.764693,18.2410175 101.347017,18.4896067 101.552858,19.0020985 C101.648947,19.2413355 101.648926,19.5084399 101.552799,19.7476618 L100.946989,21.2552889 C100.741067,21.7677482 100.989564,22.3501113 101.502024,22.5560332 C101.713345,22.6409484 101.94732,22.6511876 102.165251,22.5850572 L103.720527,22.1131135 C104.249016,21.9527452 104.807445,22.2511659 104.967813,22.7796548 C105.042677,23.0263665 105.019361,23.2924596 104.902733,23.5223922 L104.167761,24.9713805 C103.917927,25.4639262 104.114683,26.0657441 104.607229,26.3155784 C104.81035,26.4186076 105.042556,26.4492126 105.265435,26.4023309 L106.856611,26.0676338 C107.397069,25.9539508 107.927355,26.2999202 108.041038,26.8403779 C108.094099,27.0926337 108.047699,27.3556357 107.911519,27.5745047 L107.053071,28.9542136 C106.761307,29.4231403 106.904925,30.0398019 107.373852,30.3315659 C107.567206,30.4518698 107.79583,30.5025763 108.021915,30.4752998 L109.635755,30.2805958 C110.184064,30.2144443 110.682182,30.6053099 110.748334,31.1536186 C110.779209,31.409534 110.710069,31.6674872 110.55534,31.8736543 L109.579805,33.1734949 C109.248291,33.6152159 109.337632,34.2420461 109.779353,34.5735593 C109.961495,34.7102575 110.18484,34.7806918 110.41245,34.7732134 L112.036772,34.719844 C112.588759,34.7017077 113.050935,35.1344791 113.069071,35.686466 C113.077537,35.9441327 112.986164,36.1951138 112.814021,36.3870271 L111.729095,37.5965575 C111.360322,38.007684 111.394656,38.6399174 111.805782,39.0086903 C111.975314,39.1607573 112.191674,39.250402 112.419076,39.2627976 L114.042192,39.3512732 C114.593658,39.3813335 115.016341,39.8527537 114.98628,40.4042198 C114.972249,40.6616306 114.859351,40.9036783 114.671147,41.0798499 L113.484926,42.1902316 C113.081726,42.5676542 113.060829,43.2004742 113.438251,43.6036747 C113.59388,43.7699324 113.801594,43.8780907 114.027042,43.910262 L115.636316,44.1399042 C116.183062,44.2179245 116.563039,44.7243977 116.485019,45.2711438 C116.448602,45.5263398 116.315044,45.7576151 116.112213,45.9167088 L114.833441,46.9197348 C114.398885,47.260586 114.322922,47.8891777 114.663773,48.3237337 C114.804332,48.5029331 115.001848,48.6287853 115.223653,48.6804735 L116.806393,49.0493072 C117.344266,49.1746503 117.678688,49.7122934 117.553345,50.2501665 C117.494829,50.5012718 117.341585,50.7200714 117.125604,50.8608907 L115.764371,51.7484112 C115.301735,52.0500494 115.171219,52.6696167 115.472858,53.1322535 C115.597265,53.3230635 115.783088,53.4656826 115.99958,53.5365135 L117.54484,54.042086 C118.069745,54.2138223 118.356045,54.7785616 118.184309,55.3034664 C118.104141,55.5484952 117.932438,55.7530949 117.705036,55.8745625 L116.271158,56.6404742 C115.784014,56.900684 115.600047,57.506534 115.860257,57.993678 C115.967583,58.1946044 116.140291,58.3528665 116.349805,58.4422766 L117.845043,59.0803706 C118.353007,59.2971446 118.589063,59.8846609 118.372289,60.392625 C118.271099,60.629744 118.08224,60.8186206 117.845131,60.9198339 L116.350677,61.5577606 C115.842734,61.7745829 115.606733,62.3621215 115.823556,62.870065 C115.912957,63.0795044 116.071165,63.2521574 116.272016,63.3594722 L117.705159,64.1252007 C118.192273,64.385466 118.376171,64.991337 118.115905,65.4784513 C117.994412,65.7058396 117.789792,65.8775197 117.544754,65.9576592 L115.999689,66.4629712 C115.474764,66.6346472 115.1884,67.1993536 115.360076,67.7242781 C115.430883,67.9407825 115.573485,68.1266244 115.764287,68.2510539 L117.125688,69.1388813 C117.588295,69.4405664 117.718747,70.0601469 117.417062,70.5227532 C117.276218,70.738725 117.057396,70.8919484 116.806279,70.9504364 L115.223767,71.3190202 C114.68588,71.4443 114.351395,71.9819037 114.476674,72.5197916 C114.528338,72.74161 114.654174,72.939147 114.833366,73.0797269 L116.112244,74.0830326 C116.546768,74.4239251 116.622671,75.052524 116.281778,75.4870476 C116.122656,75.6898746 115.891352,75.8234143 115.636137,75.8597978 L114.026698,76.0892391 C113.479941,76.1671846 113.099895,76.6736059 113.17784,77.2203626 C113.209987,77.4458595 113.318153,77.653625 113.484443,77.8092849 L114.670883,78.9198853 C115.074082,79.2973102 115.094975,79.9301304 114.71755,80.3333287 C114.54135,80.5215608 114.299256,80.6344623 114.041804,80.6484648 L112.419196,80.7367162 C111.867727,80.76671 111.444987,81.2380792 111.474981,81.7895489 C111.48735,82.0169663 111.576978,82.2333484 111.729041,82.4029028 L112.814066,83.6127402 C113.182806,84.0238964 113.148421,84.656127 112.737264,85.0248668 C112.545326,85.1970042 112.29432,85.2883578 112.036639,85.2798591 L110.413054,85.2263111 C109.861069,85.2081059 109.398839,85.6408197 109.380634,86.1928043 C109.373128,86.4203978 109.443524,86.6437372 109.580183,86.8258901 L110.555547,88.1259618 C110.886986,88.5677388 110.797539,89.1945539 110.355762,89.5259924 C110.149553,89.6806983 109.891565,89.7497932 109.635637,89.7188579 L108.02166,89.523768 C107.473366,89.4574929 106.975159,89.8482462 106.908884,90.3965399 C106.881549,90.6226876 106.932243,90.8513907 107.052578,91.0448059 L107.911367,92.425139 C108.203119,92.8940729 108.059485,93.5107309 107.590551,93.8024832 C107.371644,93.9386786 107.108594,93.9850645 106.856305,93.9319591 L105.266055,93.597219 C104.725614,93.4834586 104.195278,93.829352 104.081518,94.3697936 C104.034605,94.5926598 104.065174,94.8248632 104.168167,95.027995 L104.903141,96.4775711 C105.152895,96.9701574 104.956041,97.5719433 104.463455,97.8216976 C104.233517,97.9382818 103.967439,97.9615591 103.720751,97.8866714 L102.165361,97.4144968 C101.636891,97.2540674 101.078428,97.5524236 100.917998,98.0808939 C100.851836,98.2988401 100.862057,98.5328427 100.946972,98.7441897 L101.552816,100.252097 C101.758715,100.764566 101.510191,101.346917 100.997722,101.552816 C100.758475,101.648941 100.491345,101.648941 100.252097,101.552816 L98.7441897,100.946972 C98.2317211,100.741073 97.6493692,100.989597 97.4434704,101.502066 C97.3585557,101.713413 97.3483342,101.947415 97.4144968,102.165361 L97.8865698,103.720417 C98.0469991,104.248887 97.748643,104.80735 97.2201727,104.96778 C96.9734495,105.042678 96.7073311,105.019383 96.4773734,104.902757 L95.0280912,104.167736 C94.5355318,103.917929 93.9337247,104.114718 93.6839173,104.607278 C93.5808893,104.810424 93.5503013,105.042656 93.5972139,105.265551 L93.9319901,106.85617 C94.045737,107.396614 93.6998304,107.926941 93.1593861,108.040688 C92.9070835,108.09379 92.6440205,108.047389 92.4251107,107.911173 L91.0453397,107.052612 C90.5764244,106.760829 89.9597572,106.904424 89.667975,107.373339 C89.5476375,107.566731 89.496927,107.795409 89.5242332,108.02154 L89.7191084,109.635367 C89.7853178,110.183669 89.3945047,110.681829 88.846203,110.748038 C88.5902463,110.778946 88.3322425,110.709803 88.1260433,110.555042 L86.8260448,109.579339 C86.3843318,109.247815 85.7574995,109.337141 85.4259756,109.778854 C85.2892439,109.961032 85.2188042,110.18443 85.2263109,110.412087 L85.2798872,112.036926 C85.298088,112.58891 84.8653706,113.051137 84.3133859,113.069338 C84.0557355,113.077833 83.8047577,112.986501 83.6128281,112.814399 L82.4023631,111.728987 C81.9911771,111.36028 81.3589493,111.394717 80.9902427,111.805903 C80.8381848,111.975479 80.7485723,112.191884 80.7362301,112.419317 L80.6481881,114.041683 C80.6182609,114.593156 80.1469427,115.015953 79.5954694,114.986026 C79.3380043,114.972054 79.0958865,114.859172 78.9196624,114.670948 L77.8087451,113.484378 C77.4312846,113.081213 76.7984626,113.060375 76.3952976,113.437836 C76.2290138,113.593518 76.120864,113.801305 76.0887426,114.026816 L75.8596092,115.635473 C75.781729,116.182239 75.2753532,116.562346 74.7285872,116.484466 C74.4733011,116.448104 74.2419292,116.314532 74.082781,116.11164 L73.079773,114.832945 C72.7389129,114.398396 72.1103196,114.322446 71.6757706,114.663307 C71.4965404,114.803895 71.3706797,115.001461 71.3190139,115.223315 L70.950394,116.806177 C70.8251289,117.344069 70.2875343,117.678568 69.749643,117.553303 C69.4985145,117.49482 69.2796822,117.341594 69.1388327,117.125614 L68.2510539,115.764287 C67.9493689,115.30168 67.3297884,115.171228 66.8671821,115.472913 C66.6763808,115.597343 66.5337787,115.783184 66.4629712,115.999689 L65.9577166,117.544578 C65.7860406,118.069503 65.2213342,118.355867 64.6964097,118.184191 C64.4513527,118.104045 64.2467212,117.932346 64.1252313,117.704933 L63.359499,116.271587 C63.0992614,115.784458 62.4934009,115.600526 62.0062717,115.860764 C61.8053831,115.968084 61.647148,116.140765 61.557742,116.350241 L60.9197316,117.845087 C60.7029335,118.353041 60.115406,118.589069 59.6074523,118.372271 C59.370338,118.271069 59.1814703,118.082201 59.0802684,117.845087 L58.442258,116.350241 C58.2254599,115.842287 57.6379324,115.606259 57.1299786,115.823057 C56.920502,115.912463 56.7478212,116.070698 56.640501,116.271587 L55.8747687,117.704933 C55.6145311,118.192062 55.0086706,118.375994 54.5215414,118.115757 C54.2941289,117.994267 54.122429,117.789635 54.0422834,117.544578 L53.5370288,115.999689 C53.3653528,115.474764 52.8006464,115.1884 52.2757219,115.360076 C52.0592175,115.430883 51.8733756,115.573485 51.7489461,115.764287 L50.86091,117.126008 C50.559225,117.588615 49.9396444,117.719067 49.4770381,117.417382 C49.2611004,117.27656 49.10789,117.057784 49.0493817,116.806713 L48.6804735,115.223653 C48.5551304,114.68578 48.0174873,114.351358 47.4796141,114.476701 C47.2578094,114.528389 47.0602928,114.654242 46.9197348,114.833441 L45.916743,116.112169 C45.5758918,116.546725 44.9473001,116.622688 44.5127441,116.281837 C44.3099086,116.12274 44.1763488,115.891458 44.139936,115.636255 L43.9102644,114.026579 C43.8322535,113.479832 43.3257867,113.099846 42.7790393,113.177857 C42.5535569,113.210029 42.3458131,113.318212 42.1901752,113.484507 L41.0798918,114.670819 C40.7025025,115.074051 40.0696841,115.095 39.6664525,114.717611 C39.478213,114.541435 39.3652916,114.299363 39.3512586,114.041924 L39.2627976,112.419076 C39.2327373,111.86761 38.7613171,111.444927 38.209851,111.474987 C37.9824488,111.487383 37.7660894,111.577028 37.5965575,111.729095 L36.3870271,112.814021 C35.9759006,113.182794 35.3436672,113.14846 34.9748943,112.737333 C34.8027516,112.54542 34.711378,112.294439 34.719844,112.036772 L34.7732134,110.41245 C34.7913497,109.860463 34.3585783,109.398287 33.8065914,109.38015 C33.5789817,109.372672 33.3556369,109.443106 33.1734949,109.579805 L31.8739281,110.555134 C31.4322071,110.886647 30.8053769,110.797306 30.4738637,110.355585 C30.3191126,110.149389 30.2499755,109.891393 30.2808822,109.635445 L30.4757668,108.02154 C30.5419762,107.473239 30.1511631,106.975079 29.6028614,106.90887 C29.3767295,106.881564 29.1480514,106.932274 28.9546603,107.052612 L27.5746321,107.911333 C27.1057167,108.203115 26.4890495,108.059521 26.1972673,107.590605 C26.0610679,107.371723 26.0146616,107.108697 26.0677334,106.856421 L26.4023258,105.265939 C26.5160222,104.725484 26.1700661,104.19519 25.6296111,104.081493 C25.4067606,104.034612 25.1745833,104.065198 24.9714766,104.168192 L23.5221945,104.903116 C23.0296219,105.152897 22.4278252,104.956076 22.178044,104.463503 C22.0614568,104.233591 22.0381588,103.967538 22.1130119,103.720862 L22.5850572,102.165251 C22.7454254,101.636762 22.4470047,101.078333 21.9185159,100.917965 C21.7005851,100.851834 21.4666096,100.862073 21.2552889,100.946989 L19.7476618,101.552799 C19.2352024,101.758721 18.6528393,101.510224 18.4469174,100.997764 C18.3507907,100.758542 18.3507697,100.491438 18.4468588,100.252201 L19.0525904,98.7440856 C19.2584317,98.2315939 19.0098425,97.6492699 18.4973507,97.4434285 C18.2860187,97.3585474 18.052044,97.3483444 17.8341253,97.414507 L16.2789991,97.8866612 C15.7505344,98.0471091 15.1920604,97.7487726 15.0316125,97.2203079 C14.9567234,96.973647 14.9799793,96.7075945 15.0965273,96.4776673 L15.8314018,95.0278989 C16.081103,94.5352857 15.8841839,93.933521 15.3915707,93.6838198 C15.1884531,93.5808613 14.9562783,93.5503121 14.733441,93.5972241 L13.1433127,93.9319799 C12.602874,94.0457537 12.07253,93.6998735 11.9587562,93.1594348 C11.9056527,92.9071874 11.9520091,92.6441771 12.0881522,92.4252849 L12.9465377,91.0451654 C13.2382236,90.5761902 13.0945023,89.9595525 12.6255271,89.6678665 C12.4321626,89.5476007 12.2035426,89.4969312 11.9774715,89.5242367 L10.3644065,89.7190673 C9.81610671,89.7852926 9.31793574,89.3944939 9.2517105,88.8461941 C9.22079823,88.5902616 9.28991791,88.3322784 9.44464497,88.126083 L10.420239,86.8259675 C10.7517202,86.3842224 10.6623337,85.7573988 10.2205887,85.4259176 C10.0384236,85.2892226 9.81505485,85.2188045 9.5874295,85.226311 L7.96279523,85.2798871 C7.41081054,85.2980901 6.94858211,84.8653745 6.93037912,84.3133898 C6.92188348,84.0557693 7.01319334,83.8048181 7.18525764,83.6128951 L8.2705937,82.4022961 C8.63926325,81.991077 8.60476997,81.3588522 8.1935508,80.9901827 C8.02398495,80.8381621 7.80760942,80.7485724 7.58020999,80.7362304 L5.95802726,80.6481877 C5.40655415,80.618257 4.98376055,80.146936 5.01369132,79.5954629 C5.02766337,79.3380286 5.14052113,79.0959375 5.32870884,78.9197189 L6.51520252,77.8086886 C6.9183364,77.4311949 6.93912183,76.7983711 6.56162808,76.3952373 C6.4059557,76.2289913 6.19819799,76.1208654 5.97272095,76.088745 L4.36398711,75.8595726 C3.81722237,75.7816832 3.43712384,75.2753009 3.51501329,74.7285362 C3.55137191,74.4733076 3.68489649,74.241982 3.88771924,74.082839 L5.16621288,73.0796809 C5.60071103,72.7387559 5.67656711,72.1101513 5.33564219,71.6756532 C5.19507055,71.496499 4.9975625,71.3706884 4.77577965,71.3190264 L3.19309164,70.9503556 C2.65520716,70.825061 2.32073699,70.2874482 2.44603159,69.7495637 C2.50451121,69.4985132 2.65767656,69.2797419 2.87356843,69.1388982 L4.23537379,68.250483 C4.69792962,67.9487206 4.82827846,67.3291182 4.52651606,66.8665624 C4.40207146,66.6758078 4.21623864,66.5332488 3.99975815,66.4624676 L2.45521215,65.9574575 C1.93027434,65.785822 1.6438662,65.2211378 1.81550167,64.6962 C1.8956191,64.4511651 2.06727319,64.2465383 2.29463953,64.1250252 L3.72807757,63.3589423 C4.21516417,63.098625 4.39899703,62.4927345 4.13867975,62.0056479 C4.03134286,61.804807 3.85867136,61.6466166 3.64922057,61.5572374 L2.15516188,60.9196755 C1.64719432,60.7029097 1.41112861,60.1153973 1.62789437,59.6074297 C1.72908988,59.3702888 1.91796878,59.1813978 2.15510327,59.0801872 L3.6497588,58.442258 C4.15771255,58.2254599 4.39374082,57.6379324 4.17694268,57.1299786 C4.08753664,56.920502 3.92930161,56.7478212 3.72841293,56.640501 L2.29463072,55.8745357 C1.80750155,55.614298 1.6235696,55.0084376 1.88380721,54.5213084 C2.0052723,54.2939424 2.20984605,54.1222643 2.45484073,54.0420977 L3.99997651,53.5365018 C4.52487488,53.3647458 4.81115328,52.7999957 4.63939721,52.2750974 C4.56856918,52.058642 4.4259762,51.8728481 4.23520422,51.7484472 L2.87413238,50.8609033 C2.41151546,50.5592346 2.28104119,49.9396586 2.58270993,49.4770417 C2.72353105,49.2610888 2.94231506,49.1078669 3.19339808,49.0493558 L4.77634718,48.6804735 C5.31422034,48.5551304 5.64864198,48.0174873 5.52329881,47.4796141 C5.47161059,47.2578094 5.34575841,47.0602928 5.16655897,46.9197348 L3.88778696,45.9167088 C3.45323096,45.5758576 3.3772682,44.9472659 3.71811939,44.5127099 C3.8772131,44.3098791 4.10848838,44.1763205 4.36368439,44.1399042 L5.97295786,43.910262 C6.51970395,43.8322417 6.89968128,43.3257685 6.82166099,42.7790224 C6.78948972,42.5535744 6.68133139,42.3458599 6.5150737,42.1902316 L5.32883761,41.0798353 C4.92563713,40.7024127 4.90474003,40.0695927 5.28216263,39.6663922 C5.45833266,39.4781898 5.70037773,39.3652919 5.95778617,39.351259 L7.58045105,39.2627972 C8.13191692,39.2327333 8.55459673,38.7613103 8.52453283,38.2098444 C8.51213751,37.9824754 8.42251557,37.7661454 8.27048598,37.5966245 L7.1856356,36.3869601 C6.81689969,35.9758004 6.85129094,35.3435701 7.26245061,34.9748342 C7.45435723,34.8027287 7.70531173,34.7113781 7.96294869,34.7198441 L9.58706667,34.7732132 C10.1390535,34.7913517 10.6012314,34.3585822 10.6193699,33.8065954 C10.6268482,33.5790175 10.5564355,33.355702 10.4197739,33.1735722 L9.44452454,31.8738507 C9.11305401,31.4320977 9.20245564,30.8052762 9.64420866,30.4738057 C9.85039715,30.3190916 10.1083665,30.249977 10.3642862,30.2808839 L11.9779655,30.4757651 C12.5262663,30.5419824 13.0244316,30.1511765 13.0906489,29.6028758 C13.1179547,29.3767743 13.0672647,29.1481252 12.9469631,28.9547474 L12.0883296,27.5745449 C11.7965955,27.1055997 11.9402535,26.4889472 12.4091988,26.1972131 C12.6280723,26.0610504 12.8910717,26.014666 13.14332,26.0677385 L14.7335567,26.4023206 C15.2740089,26.5160305 15.804312,26.1700876 15.9180218,25.6296354 C15.964903,25.406814 15.9343368,25.1746652 15.8313771,24.9715728 L15.096552,23.5220983 C14.8468239,23.0294988 15.0437102,22.4277233 15.5363097,22.1779952 C15.7662117,22.0614442 16.0322391,22.0381677 16.2788884,22.1130221 L17.834236,22.585047 C18.3627192,22.7454338 18.9211587,22.4470327 19.0815455,21.9185495 C19.1476759,21.7006463 19.1374552,21.4666987 19.0525736,21.2553929 L18.4468756,19.7475577 C18.2410112,19.2350752 18.4895742,18.65274 19.0020567,18.4468756 C19.2412678,18.3507844 19.5083466,18.3507844 19.7475577,18.4468756 L21.2553929,19.0525736 C21.7678754,19.258438 22.3502106,19.009875 22.5560751,18.4973925 C22.6409567,18.2860868 22.6511773,18.0521391 22.585047,17.834236 L22.1130221,16.2788884 C21.9526353,15.7504052 22.2510364,15.1919657 22.7795196,15.0315789 C23.026169,14.9567245 23.2921963,14.980001 23.5220983,15.096552 L24.9715728,15.8313771 C25.4641723,16.0811052 26.0659478,15.884219 26.3156759,15.3916194 C26.4186356,15.1885269 26.4492018,14.9563782 26.4023206,14.7335567 L26.0677126,13.1431969 C25.9540027,12.6027448 26.2999456,12.0724417 26.8403978,11.9587318 C27.092633,11.9056621 27.3556187,11.9520388 27.5744861,12.0881859 L28.9543008,12.946504 C29.4232573,13.2382199 30.0399042,13.0945379 30.3316201,12.6255813 C30.4518882,12.4322409 30.5025742,12.2036459 30.4752981,11.9775907 L30.2805975,10.363976 C30.2144381,9.81566825 30.6052965,9.31754418 31.1536042,9.25138474 C31.409491,9.22050916 31.6674177,9.28962695 31.873577,9.44431912 L33.1735722,10.4197739 C33.6153253,10.7512445 34.2421468,10.6618428 34.5736173,10.2200898 C34.7102789,10.03796 34.7806915,9.81464456 34.7732132,9.58706667 L34.7198355,7.96268706 C34.701697,7.41070025 35.1344666,6.94852237 35.6864534,6.93038387 C35.9440625,6.92191874 36.1949917,7.01324865 36.3868914,7.1853201 L37.5971642,8.27053986 C38.0083536,8.63924259 38.6405811,8.60480032 39.0092839,8.19361089 C39.1613089,8.02406753 39.2509148,7.80771476 39.2632834,7.58033053 L39.3515346,5.95792493 C39.381532,5.40645544 39.852904,4.98371873 40.4043734,5.01371607 C40.6617967,5.02771868 40.9038665,5.14059807 41.0800611,5.32879554 L42.190288,6.51465441 C42.567744,6.91782371 43.2005657,6.93866853 43.603735,6.56121263 C43.7699549,6.40559395 43.8780893,6.19790876 43.9102596,5.97249517 L44.1399066,4.36338434 C44.2179362,3.81663959 44.7244159,3.4366709 45.2711607,3.51470053 C45.5263247,3.5511167 45.7575735,3.6846511 45.9166628,3.88744511 L46.9197808,5.16613806 C47.2606644,5.60066863 47.8892618,5.67658449 48.3237924,5.33570089 C48.5029538,5.19515108 48.6287809,4.99766351 48.6804673,4.7758943 L49.0493134,3.1932968 C49.1746713,2.65542708 49.7123235,2.3210202 50.2501933,2.44637812 C50.5012654,2.50489394 50.7200388,2.6581129 50.8608547,2.87405782 L51.7484472,4.23520422 C52.050116,4.69782114 52.6696919,4.82829541 53.1323088,4.52662667 C53.3230808,4.40222581 53.4656738,4.21643185 53.5365018,3.99997651 L54.0421552,2.45466513 C54.2139112,1.92976676 54.7786612,1.64348837 55.3035596,1.81524443 C55.5485356,1.89540492 55.7530975,2.06706316 55.8745663,2.29440489 L56.6405278,3.72798357 C56.9007932,4.21509791 57.5066641,4.39899536 57.9937785,4.13873 C58.1946295,4.03141526 58.3528375,3.85876224 58.4422394,3.64932283 L59.0801454,2.15491802 C59.2969676,1.64697455 59.8845063,1.41097416 60.3924498,1.6277964 C60.6295644,1.72901183 60.818426,1.91789442 60.919615,2.15502027 Z" id="路径"></path>
                <path d="M63.7751108,56.000163 C64.8371824,57.0029236 65.5,58.4240571 65.5,60 C65.5,61.5759429 64.8371824,62.9970764 63.7751108,63.999837 L56.2248892,63.999837 C55.1628176,62.9970764 54.5,61.5759429 54.5,60 C54.5,58.4240571 55.1628176,57.0029236 56.2248892,56.000163 L63.7751108,56.000163 Z" id="路径" stroke-linejoin="round"></path>
                <circle id="椭圆形" stroke-linejoin="round" cx="44" cy="28.5" r="4"></circle>
                <circle id="椭圆形" stroke-linejoin="round" cx="60" cy="28.5" r="4"></circle>
                <circle id="椭圆形" stroke-linejoin="round" cx="60" cy="12.5" r="4"></circle>
                <circle id="椭圆形" stroke-linejoin="round" cx="76" cy="28.5" r="4"></circle>
                <circle id="椭圆形" stroke-linejoin="round" cx="44" cy="92.5" r="4"></circle>
                <circle id="椭圆形" stroke-linejoin="round" cx="60" cy="92.5" r="4"></circle>
                <circle id="椭圆形" stroke-linejoin="round" cx="60" cy="108.5" r="4"></circle>
                <circle id="椭圆形" stroke-linejoin="round" cx="76" cy="92.5" r="4"></circle>
                <circle id="椭圆形" stroke-linejoin="round" cx="28" cy="44.5" r="4"></circle>
                <circle id="椭圆形" stroke-linejoin="round" cx="44" cy="44.5" r="4"></circle>
                <circle id="椭圆形" stroke-linejoin="round" cx="60" cy="44.5" r="4"></circle>
                <circle id="椭圆形" stroke-linejoin="round" cx="76" cy="44.5" r="4"></circle>
                <circle id="椭圆形" stroke-linejoin="round" cx="92" cy="44.5" r="4"></circle>
                <circle id="椭圆形" stroke-linejoin="round" cx="28" cy="60.5" r="4"></circle>
                <circle id="椭圆形" stroke-linejoin="round" cx="12" cy="60.5" r="4"></circle>
                <circle id="椭圆形" stroke-linejoin="round" cx="44" cy="60.5" r="4"></circle>
                <circle id="椭圆形" stroke-linejoin="round" cx="76" cy="60.5" r="4"></circle>
                <circle id="椭圆形" stroke-linejoin="round" cx="92" cy="60.5" r="4"></circle>
                <circle id="椭圆形" stroke-linejoin="round" cx="108" cy="60.5" r="4"></circle>
                <circle id="椭圆形" stroke-linejoin="round" cx="28" cy="76.5" r="4"></circle>
                <circle id="椭圆形" stroke-linejoin="round" cx="44" cy="76.5" r="4"></circle>
                <circle id="椭圆形" stroke-linejoin="round" cx="60" cy="76.5" r="4"></circle>
                <circle id="椭圆形" stroke-linejoin="round" cx="76" cy="76.5" r="4"></circle>
                <circle id="椭圆形" stroke-linejoin="round" cx="92" cy="76.5" r="4"></circle>
            </g>
        </g>
    </g>
</svg>