<?xml version="1.0" encoding="UTF-8"?>
<svg width="82px" height="82px" viewBox="0 0 82 82" version="1.1" xmlns="http://www.w3.org/2000/svg" xmlns:xlink="http://www.w3.org/1999/xlink">
    <title>42</title>
    <g id="页面-1" stroke="none" stroke-width="1" fill="none" fill-rule="evenodd" opacity="0.539457775" stroke-linejoin="round">
        <g id="形状描摹" transform="translate(-1765.000000, -1455.000000)" stroke="#3D4242">
            <g id="42" transform="translate(1766.013000, 1456.122630)">
                <circle id="椭圆形" cx="39.9935" cy="7.99065148" r="4"></circle>
                <circle id="椭圆形" cx="39.9935" cy="71.9906515" r="4"></circle>
                <circle id="椭圆形" cx="23.9935" cy="23.9906515" r="4"></circle>
                <circle id="椭圆形" cx="39.9935" cy="23.9906515" r="4"></circle>
                <circle id="椭圆形" cx="55.9935" cy="23.9906515" r="4"></circle>
                <circle id="椭圆形" cx="7.9935" cy="39.9906515" r="4"></circle>
                <circle id="椭圆形" cx="23.9935" cy="39.9906515" r="4"></circle>
                <circle id="椭圆形" cx="39.9935" cy="39.9906515" r="8"></circle>
                <circle id="椭圆形" cx="55.9935" cy="39.9906515" r="4"></circle>
                <circle id="椭圆形" cx="71.9935" cy="39.9906515" r="4"></circle>
                <circle id="椭圆形" cx="23.9935" cy="55.9906515" r="4"></circle>
                <circle id="椭圆形" cx="39.9935" cy="55.9906515" r="4"></circle>
                <circle id="椭圆形" cx="55.9935" cy="55.9906515" r="4"></circle>
                <path d="M41.4683787,0.018827449 L42.8561649,0.0931632731 C43.0666262,0.10443649 43.2474194,0.246472865 43.3081875,0.448285366 L43.7345482,1.86424073 C43.7916068,2.05373407 43.9550594,2.19174335 44.1514355,2.21623478 L45.3235208,2.36241368 C45.5205746,2.38698962 45.7134954,2.29262295 45.8150582,2.12197959 L46.568442,0.856162002 C46.6765748,0.674479758 46.8872946,0.580449019 47.0947348,0.621311234 L48.4290529,0.884149389 C48.6356466,0.924844856 48.7946051,1.09060874 48.8266092,1.29872603 L49.0516786,2.76231456 C49.0817432,2.95781934 49.2242363,3.11722217 49.4151608,3.16893126 L50.4733628,3.45552969 C50.6651238,3.50746535 50.869441,3.440943 50.993866,3.28606228 L51.9166722,2.13737944 C52.0490809,1.97256084 52.2708426,1.90883489 52.4705513,1.97821545 L53.7645355,2.42775685 C53.9633618,2.49683086 54.0976395,2.68302559 54.1004078,2.89349048 L54.1198952,4.37508834 C54.1224957,4.57280236 54.2413678,4.75041212 54.423156,4.82819791 L55.4185261,5.25410908 C55.6012288,5.33228616 55.8128855,5.29484447 55.9576811,5.15873356 L57.0310679,4.149727 C57.1851226,4.00491231 57.4136133,3.9726524 57.6017389,4.06915569 L58.8299417,4.69919004 C59.0172194,4.79525835 59.1242808,4.99832323 59.0977383,5.20712347 L58.9108645,6.67719212 C58.8859556,6.87314088 58.9787399,7.06538804 59.1476449,7.1677964 L60.1637358,7.78385997 C60.3339116,7.88703884 60.5490738,7.87947318 60.7115822,7.76459628 L61.9113488,6.91648346 C62.0843172,6.79421239 62.3155619,6.79420036 62.488543,6.91645344 L63.5973594,7.70010076 C63.7689759,7.82138938 63.8464348,8.03704536 63.7912112,8.23981001 L63.40138,9.67115334 C63.3494745,9.86173501 63.4146314,10.0650116 63.5676576,10.1899058 L64.4175758,10.8835773 C64.5717676,11.0094229 64.7859133,11.0318355 64.9628204,10.940643 L66.2698957,10.2668689 C66.4579822,10.1699137 66.6867356,10.2018569 66.8410673,10.3466277 L67.8417354,11.2853036 C67.995221,11.4292806 68.0421261,11.6539518 67.9590673,11.8473128 L67.3746432,13.2078527 C67.296553,13.3896469 67.3330081,13.6003904 67.4676281,13.7453892 L68.2039095,14.5384359 C68.3390882,14.6840365 68.5476469,14.7357882 68.7352118,14.670273 L70.1265102,14.1843014 C70.3259458,14.1146398 70.5476429,14.1778359 70.6803729,14.3421833 L71.5479816,15.4164635 C71.680438,15.5804721 71.695794,15.8099399 71.5863718,15.9901351 L70.8190474,17.2537549 C70.7163161,17.4229315 70.7230483,17.6367833 70.8362172,17.7991632 L71.5178039,18.7771347 C71.6313347,18.9400338 71.8304983,19.0203187 72.0252641,18.981697 L73.4703321,18.6951433 C73.6776609,18.6540305 73.8884453,18.7477287 73.9968369,18.9291862 L74.6889989,20.0879291 C74.7969449,20.2686407 74.7801507,20.4976056 74.646992,20.6606325 L73.7101647,21.8075946 C73.5850466,21.9607773 73.5619856,22.173317 73.6513374,22.3497702 L74.1523947,23.3392644 C74.2421778,23.5165692 74.4284459,23.6238665 74.626866,23.6125775 L76.0973108,23.5289173 C76.3084194,23.5169064 76.5042596,23.6389918 76.5864222,23.8338261 L77.1142888,25.0855691 C77.1960786,25.2795191 77.1476423,25.5039229 76.9931354,25.6468697 L75.9056269,26.6530114 C75.7604916,26.7872878 75.7081159,26.9944796 75.7720072,27.1815954 L76.1268983,28.2209522 C76.1911317,28.4090704 76.3607,28.5412709 76.5588039,28.5576787 L78.0262106,28.6792156 C78.2370217,28.6966759 78.4140349,28.8449082 78.4682432,29.0493774 L78.8189449,30.3721955 C78.8729041,30.5757251 78.7935726,30.7912485 78.6205354,30.9112235 L77.4031232,31.755314 C77.2407854,31.8678706 77.1599349,32.0654544 77.196802,32.2595249 L77.4213348,33.4414767 C77.4584775,33.6369977 77.6080384,33.7918741 77.8021436,33.8358198 L79.2347748,34.1601691 C79.4414206,34.2069539 79.5961431,34.3789034 79.620934,34.5893236 L79.7784765,35.9265089 C79.8030593,36.1351622 79.6945813,36.3369268 79.5069721,36.4314959 L78.1820322,37.0993648 C78.0056693,37.188265 77.8981634,37.3726507 77.9076733,37.5699238 L77.9610648,38.6774719 C77.9706456,38.8762146 78.0971546,39.0503618 78.283201,39.1209115 L79.6576061,39.6420923 C79.8551486,39.7170013 79.98429,39.907987 79.9802298,40.1192165 L79.9540519,41.4811087 C79.9500028,41.6917598 79.8143398,41.8772698 79.6148255,41.9449777 L78.2141087,42.4203301 C78.0266041,42.4839623 77.8943145,42.6522501 77.8767591,42.849478 L77.7795778,43.9412686 C77.761972,44.139062 77.8630831,44.3285283 78.0371976,44.4240078 L79.3300563,45.1329751 C79.5152413,45.2345253 79.6166473,45.4414813 79.5834178,45.6500519 L79.368335,47.0000573 C79.3351661,47.208248 79.1749789,47.3732672 78.9678656,47.4126069 L77.5148666,47.6885937 C77.3205362,47.7255053 77.1662345,47.8735107 77.1212634,48.0661357 L76.8466638,49.2423299 C76.8015017,49.4357732 76.8751361,49.6376043 77.0342563,49.7565189 L78.2134171,50.6377354 C78.3828896,50.7643865 78.4543047,50.9839935 78.3917429,51.186101 L77.9960791,52.4643032 C77.933895,52.6651907 77.7526597,52.805699 77.5426137,52.8158664 L76.0611893,52.8875754 C75.8639129,52.8971246 75.6907445,53.0219086 75.6192609,53.2060261 L75.2139348,54.2500075 C75.1419363,54.4354511 75.186718,54.6459344 75.3279721,54.7860071 L76.3724726,55.8217713 C76.5227678,55.9708093 76.5629359,56.1983354 76.472759,56.3898271 L75.8965543,57.6134037 C75.8069816,57.8036124 75.6079883,57.9174679 75.3986196,57.8983009 L73.9214654,57.7630718 C73.7247586,57.7450639 73.5358878,57.8445506 73.4394799,58.0169552 L72.9013893,58.9792133 C72.8042992,59.1528379 72.8193682,59.3675006 72.9397631,59.5258581 L73.8302027,60.6970692 C73.9582574,60.8655019 73.9664318,61.0963027 73.8506139,61.2733727 L73.1028777,62.4165607 C72.9876943,62.5926606 72.7745828,62.6777996 72.5697671,62.6295406 L71.1274801,62.2897068 C70.9352256,62.2444076 70.7343218,62.3165338 70.6147796,62.4737708 L69.8852623,63.4333246 C69.7648361,63.5917245 69.7497944,63.8064541 69.8469613,63.9800962 L70.5644913,65.2623589 C70.6678949,65.4471464 70.6436843,65.677032 70.5040541,65.8362242 L69.6173765,66.8471241 C69.4787886,67.0051279 69.2561853,67.059598 69.0602987,66.9834388 L67.6781591,66.4460732 C67.4940211,66.3744817 67.2849938,66.4180299 67.144765,66.5571989 L66.3559482,67.3400548 C66.2147186,67.4802171 66.1700374,67.6907793 66.2421746,67.8762179 L66.7754177,69.2469941 C66.8521124,69.4441487 66.7964324,69.6682337 66.6363779,69.8065614 L65.608301,70.6950811 C65.4491519,70.8326264 65.2209355,70.8558551 65.0373375,70.753196 L63.7441393,70.0301022 C63.5715566,69.9336024 63.3583163,69.9478717 63.2001296,70.0665055 L62.3222677,70.7248675 C62.1633621,70.8440404 62.0900664,71.0459724 62.1355331,71.2393269 L62.4729412,72.6742074 C62.5212936,72.8798339 62.4352078,73.0936627 62.2578684,73.2084274 L61.1120335,73.9499514 C60.9350757,74.0644691 60.7053066,74.0557145 60.5375759,73.9280635 L59.3606883,73.0323963 C59.2032656,72.9125902 58.990008,72.8968645 58.8167145,72.9922834 L57.7571345,73.5757101 C57.5830158,73.6715835 57.4822216,73.8614881 57.5003974,74.0594241 L57.6349211,75.5244011 C57.6542741,75.7351572 57.5388375,75.9352686 57.3467059,76.0240274 L56.1310083,76.5856416 C55.9401112,76.67383 55.7144365,76.633153 55.566344,76.4838629 L54.5218413,75.4309137 C54.3827432,75.2906907 54.1741346,75.2454923 53.989472,75.3155674 L52.9429253,75.7127073 C52.7568894,75.7833035 52.6304201,75.95749 52.6208937,76.1562422 L52.55049,77.6250948 C52.5403532,77.8365807 52.3981103,78.018754 52.1953947,78.0798722 L50.9003398,78.4703276 C50.6991055,78.5309991 50.4814112,78.4593435 50.3555562,78.2910082 L49.4668306,77.1023081 C49.3486206,76.9441983 49.1484464,76.8704443 48.9559108,76.91406 L47.8830589,77.1570965 C47.689028,77.2010509 47.5395169,77.3558545 47.5023359,77.5512964 L47.2274295,78.9963426 C47.1878739,79.2042671 47.0216864,79.3647608 46.8125098,79.3970468 L45.4610507,79.6056417 C45.2532528,79.6377148 45.0475907,79.5363603 44.9464404,79.352031 L44.2328167,78.0515726 C44.1378795,77.8785657 43.9500629,77.7775839 43.7533869,77.7938017 L42.5561985,77.8925211 C42.3576393,77.9088942 42.1877495,78.0415857 42.1237705,78.2302668 L41.6525036,79.6200847 C41.5844549,79.820768 41.3972924,79.9567604 41.1854033,79.9594804 L39.8353574,79.9768106 C39.6252297,79.9795079 39.4358401,79.8505277 39.3613794,79.6540169 L38.8360543,78.2676202 C38.7660169,78.082783 38.5936634,77.956555 38.3963081,77.9455595 L37.2913804,77.8839993 C37.0928318,77.8729373 36.9066012,77.9805841 36.8170877,78.1581545 L36.1544314,79.4726845 C36.0592576,79.6614834 35.8556178,79.7700105 35.6458252,79.7437391 L34.2939251,79.574447 C34.0849928,79.5482833 33.9148423,79.3940286 33.8683779,79.1886551 L33.5417047,77.7447548 C33.4980443,77.5517752 33.3446941,77.4026925 33.1505595,77.3644945 L32.0777789,77.1534137 C31.8828621,77.1150618 31.6837293,77.1957382 31.5704713,77.3589438 L30.7303088,78.5696229 C30.6097976,78.7432802 30.3931037,78.8223947 30.1890518,78.7672345 L28.8661991,78.4096353 C28.6628871,78.3546751 28.5158126,78.178207 28.4983914,77.9683192 L28.3758682,76.4921799 C28.3595265,76.2952988 28.2287912,76.1264995 28.042255,76.0614344 L26.906963,75.6654366 C26.7190998,75.5999087 26.5102628,75.6520002 26.3751828,75.798082 L25.3775646,76.8769528 C25.2337157,77.0325176 25.0074347,77.0805257 24.8128117,76.9967715 L23.5763072,76.4646532 C23.3833937,76.3816346 23.2629216,76.1869091 23.2747463,75.9772239 L23.3583799,74.4941607 C23.3694874,74.2971923 23.2637378,74.1121063 23.088413,74.0216568 L22.1061981,73.5149352 C21.9292216,73.4236336 21.7149387,73.4460563 21.5606966,73.5720168 L20.4225757,74.5014536 C20.25852,74.6354283 20.0278487,74.6514971 19.8468021,74.5415626 L18.679176,73.8325607 C18.4996021,73.7235204 18.407344,73.5138552 18.4482644,73.3077919 L18.7373918,71.8518281 C18.7758482,71.6581727 18.6967452,71.4600211 18.5354982,71.3460882 L17.6499691,70.7203966 C17.4874416,70.6055589 17.2722865,70.5980359 17.1021351,70.7012414 L15.8445439,71.4640341 C15.6636229,71.5737718 15.4332131,71.5577407 15.2692321,71.4240059 L14.1979427,70.5503154 C14.034954,70.4173899 13.9725732,70.1966782 14.0418678,69.9981014 L14.5303347,68.5983066 C14.5953895,68.4118795 14.5446389,68.2046272 14.4008073,68.0693509 L13.5370933,67.257012 C13.3920822,67.1206265 13.1799811,67.0832564 12.9970896,67.1618689 L11.647598,67.7419226 C11.453006,67.8255643 11.226826,67.7775231 11.0830317,67.6220073 L10.160132,66.6238767 C10.0175254,66.4696454 9.98652367,66.2427255 10.0825344,66.0558943 L10.7609035,64.7358286 C10.8511492,64.560216 10.8295991,64.3479411 10.7059022,64.1940478 L10.0215653,63.3426536 C9.89695835,63.1876281 9.69231683,63.1211998 9.50041541,63.173484 L8.08040449,63.5603713 C7.87635682,63.6159648 7.65940057,63.5371687 7.53858613,63.3635889 L6.75379211,62.236038 C6.6335505,62.0632811 6.63437492,61.8337205 6.75585427,61.6618318 L7.61060737,60.452388 C7.72477964,60.2908385 7.73297085,60.0771647 7.63150152,59.9073486 L7.07743725,58.9800826 C6.97551988,58.8095166 6.78227854,58.7154836 6.5851693,58.7405405 L5.1233315,58.9263719 C4.91366286,58.9530253 4.70988211,58.8449646 4.61431277,58.6564498 L3.98927316,57.4235309 C3.89407344,57.2357451 3.92670623,57.0084434 4.07089125,56.8550252 L5.08564053,55.7752939 C5.22091488,55.6313569 5.25877115,55.4212721 5.18224742,55.2391701 L4.72214898,54.1442832 C4.64512033,53.9609797 4.46680219,53.8407358 4.26798999,53.8380336 L2.79735033,53.8180455 C2.58563112,53.815168 2.39867995,53.6792441 2.33065295,53.4787307 L1.89514986,52.1950609 C1.82764895,51.9960981 1.89173184,51.7761605 2.05553868,51.6445936 L3.21333109,50.7146739 C3.36718023,50.5911048 3.43396266,50.3886076 3.38380677,50.1977588 L3.10579655,49.1398985 C3.05519283,48.9473456 2.89517542,48.8031629 2.69840923,48.7728245 L1.24577602,48.5488508 C1.03643355,48.5165734 0.870144495,48.3558903 0.83070969,48.1477774 L0.574637146,46.7963821 C0.53552801,46.5899878 0.629598061,46.3811571 0.810091579,46.2736852 L2.08597098,45.5139839 C2.2555656,45.4130016 2.34988066,45.2216972 2.32671005,45.0256796 L2.20075779,43.9601552 C2.17738767,43.7624498 2.03895721,43.5974462 1.84832345,43.5400674 L0.440333288,43.1162768 C0.237673804,43.0552784 0.0953706949,42.873293 0.0850381496,42.6619049 L0.0170952428,41.271897 C0.00683170934,41.0619208 0.129008985,40.8679514 0.322824027,40.78652 L1.94265785,40.105947 C1.97107562,40.0940073 1.98951954,40.0661432 1.98940808,40.0353193 L1.98924739,39.9908841 C1.98923178,39.9865689 1.98927204,39.9822536 1.98936816,39.9779394 L2.02032611,38.5883569 C2.02476076,38.3893026 1.91067278,38.2065877 1.72987571,38.1231929 L0.394371319,37.5071756 C0.202284204,37.4185731 0.086739955,37.2186776 0.105838989,37.0080046 L0.229288999,35.6462826 C0.248282921,35.4367691 0.396388559,35.2615547 0.599813998,35.2079379 L2.03273018,34.8302645 C2.2239069,34.779876 2.36743987,34.6215703 2.39891877,34.4263867 L2.57183031,33.3542564 C2.60349374,33.1579286 2.51580121,32.9615004 2.3484975,32.8539987 L1.11014323,32.0582888 C0.932161695,31.9439259 0.845418069,31.7299264 0.893537459,31.5239147 L1.20712935,30.181346 C1.25499852,29.9764056 1.42607376,29.8233794 1.63506204,29.7985616 L3.10678516,29.6237914 C3.30309509,29.6004792 3.46723796,29.4636913 3.52556513,29.2748024 L3.84230621,28.2490566 C3.90094934,28.0591446 3.84153753,27.8525316 3.69097392,27.7227773 L2.57519149,26.7612059 C2.41498134,26.6231382 2.35896913,26.3992034 2.43531074,26.2019676 L2.93654324,24.9069863 C3.01250838,24.7107232 3.20323582,24.5830364 3.41363833,24.5875842 L4.89596081,24.6196244 C5.09335434,24.623891 5.27477421,24.5115985 5.35899465,24.3330226 L5.86146915,23.2676066 C5.94634191,23.0876476 5.91643736,22.8744927 5.78532117,22.7248359 L4.81681199,21.6193736 C4.67721977,21.4600422 4.65317923,21.230038 4.75680697,21.0452847 L5.42501811,19.8539608 C5.52776015,19.6707865 5.73402167,19.5713425 5.9413219,19.6050373 L7.40722165,19.8433063 C7.60201845,19.8749688 7.79721507,19.7890865 7.90548264,19.6240821 L8.49921002,18.7192165 C8.60842997,18.5527607 8.60849033,18.33737 8.49936369,18.170853 L7.69353585,16.9412353 C7.57749887,16.7641737 7.58554424,16.5332264 7.71362132,16.3646689 L8.55112346,15.2624634 C8.67829991,15.0950912 8.89658136,15.0251366 9.09735379,15.0874081 L10.5139089,15.5267663 C10.702648,15.5853056 10.9081586,15.5271935 11.0382947,15.378486 L11.7395082,14.5772043 C11.8704667,14.4275572 11.9002972,14.2145303 11.8154805,14.0346678 L11.1874887,12.7029467 C11.097315,12.5117241 11.137158,12.2844533 11.2870018,12.1353082 L12.2767553,11.1501706 C12.4259451,11.0016766 12.6521588,10.9625219 12.842579,11.0522338 L14.1824464,11.6834802 C14.361236,11.7677126 14.5728646,11.7387256 14.7224193,11.6095197 L15.6079298,10.8444938 C15.7583527,10.7145377 15.8175044,10.5078179 15.7585938,10.3179623 L15.3225045,8.91254392 C15.2598157,8.71051206 15.3310475,8.49089139 15.5003822,8.36411399 L16.5966425,7.54336644 C16.7649751,7.41733931 16.9941716,7.41010276 17.1701192,7.52525974 L18.410634,8.33717151 C18.5759987,8.44540203 18.7895977,8.44607124 18.9556373,8.33887901 L19.8657495,7.75132681 C20.0328065,7.6434778 20.1200793,7.44688886 20.0880198,7.25064503 L19.8506432,5.79760336 C19.8165463,5.58888736 19.9174495,5.38129196 20.1026361,5.27916027 L21.3117548,4.61232306 C21.4960827,4.51066497 21.7243391,4.53534192 21.8826812,4.67404629 L22.9969799,5.65014827 C23.1457574,5.78047424 23.3573759,5.81085023 23.5368053,5.7276355 L24.5093102,5.27661296 C24.6894994,5.19304589 24.8031382,5.01074674 24.7988278,4.81216925 L24.766835,3.33828171 C24.7622488,3.12699809 24.8909948,2.93564741 25.0884379,2.86029464 L26.3833909,2.36608479 C26.5800404,2.29103488 26.8026335,2.34717573 26.940168,2.50651112 L27.9088441,3.6287343 C28.0378598,3.77820063 28.2427525,3.83774523 28.4317813,3.78070699 L29.5626427,3.43947673 C29.7529733,3.3820457 29.8911968,3.21731118 29.9146976,3.01989856 L30.0885747,1.55928546 C30.1136029,1.34904254 30.2683392,1.17735648 30.4748591,1.13068755 L31.8042209,0.830281378 C32.0091551,0.783970791 32.22118,0.870717038 32.3348834,1.04739264 L33.1383873,2.29590034 C33.2452043,2.4618757 33.4396662,2.54948015 33.634755,2.51951235 L34.7102536,2.35430381 C34.9070485,2.32407394 35.0671528,2.17996595 35.1178549,1.98742675 L35.4921656,0.565996567 C35.5460816,0.361252489 35.7231088,0.212662922 35.9340994,0.195054903 L37.3082664,0.0803751171 C37.517695,0.0628974531 37.7157001,0.178244831 37.8037968,0.369045185 L38.4255397,1.71561879 C38.5083934,1.89506382 38.6891783,2.0088605 38.8868065,2.00596739 L39.9561779,1.99031269 C40.1548534,1.98740425 40.3329533,1.86713151 40.4098733,1.68392745 L40.9806207,0.324550507 C41.0623533,0.12988391 41.2575522,0.0075346753 41.4683787,0.018827449 Z" id="路径"></path>
            </g>
        </g>
    </g>
</svg>