<?xml version="1.0" encoding="UTF-8"?>
<svg width="168px" height="169px" viewBox="0 0 168 169" version="1.1" xmlns="http://www.w3.org/2000/svg" xmlns:xlink="http://www.w3.org/1999/xlink">
    <title>33</title>
    <g id="页面-1" stroke="none" stroke-width="1" fill="none" fill-rule="evenodd" opacity="0.539457775">
        <g id="形状描摹" transform="translate(-304.000000, -1412.000000)" stroke="#3D4242">
            <g id="33" transform="translate(304.000000, 1412.113281)">
                <path d="M84.919615,2.15502027 L86.5075788,5.87624496 C86.7243446,6.38421253 87.311857,6.62027823 87.8198246,6.40351247 C88.0292754,6.31413322 88.2019469,6.15594288 88.3092838,5.95510196 L90.216763,2.38596677 C90.4770803,1.89888017 91.0829709,1.71504732 91.5700575,1.9753646 C91.7974238,2.09687766 91.9690779,2.30150456 92.0491953,2.5465394 L93.3067602,6.39273375 C93.4783957,6.91767157 94.0430799,7.20407971 94.5680177,7.03244424 C94.7844982,6.96166303 94.9703311,6.81910403 95.0947757,6.6283494 L97.3064059,3.23825686 C97.6081683,2.77570102 98.2277706,2.64535219 98.6903265,2.94711459 C98.9062263,3.08796341 99.0593946,3.30674541 99.1178695,3.55780677 L100.035898,7.4993545 C100.161178,8.03724241 100.698782,8.37172733 101.23667,8.24644747 C101.458488,8.1947836 101.656025,8.06894792 101.796605,7.88975574 L104.294758,4.70544875 C104.63565,4.27092517 105.264249,4.19502219 105.698773,4.5359147 C105.901591,4.6950293 106.035128,4.92632026 106.071518,5.18152258 L106.642707,9.18720598 C106.720672,9.73396006 107.227106,10.1139894 107.77386,10.0360252 C107.999288,10.0038803 108.206995,9.89576211 108.362635,9.7295481 L111.128199,6.77610822 C111.505691,6.37297223 112.138515,6.35218325 112.541651,6.72967473 C112.729841,6.90589359 112.8427,7.14798637 112.856672,7.40542254 L113.075938,11.4453807 C113.105869,11.9968538 113.57719,12.4196474 114.128663,12.3897167 C114.356062,12.3773747 114.572438,12.287785 114.742003,12.1357644 L117.755733,9.43387075 C118.166953,9.0652012 118.799177,9.09969448 119.167847,9.51091365 C119.339911,9.70283658 119.431221,9.95378777 119.422725,10.2114083 L119.289335,14.2563076 C119.271132,14.8082922 119.703848,15.2705207 120.255833,15.2887237 C120.483458,15.2962301 120.706827,15.225812 120.888992,15.0891171 L124.126083,12.6600353 C124.567828,12.3285541 125.194652,12.4179406 125.526133,12.8596856 C125.68086,13.0658811 125.74998,13.3238643 125.719067,13.5797968 L125.233895,17.596691 C125.16767,18.1449908 125.558469,18.6431618 126.106768,18.709387 C126.332839,18.7366926 126.561459,18.686023 126.754824,18.5657572 L130.191119,16.4285032 C130.660095,16.1368172 131.276732,16.2805385 131.568418,16.7495137 C131.704561,16.9684059 131.750918,17.2314162 131.697814,17.4836636 L130.864249,21.4431971 C130.750475,21.9836358 131.096355,22.5139798 131.636794,22.6277536 C131.859631,22.6746656 132.091806,22.6441163 132.294923,22.5411579 L135.90457,20.7114607 C136.397183,20.4617595 136.998948,20.6586786 137.248649,21.1512918 C137.365197,21.381219 137.388453,21.6472716 137.313564,21.8939325 L136.137922,25.7661253 C135.977474,26.29459 136.27581,26.853064 136.804275,27.0135119 C137.022194,27.0796745 137.256168,27.0694715 137.4675,26.9845904 L141.222764,25.4762961 C141.735255,25.2704547 142.317579,25.519044 142.523421,26.0315357 C142.61951,26.2707727 142.619489,26.5378772 142.523362,26.777099 L141.014696,30.5315816 C140.808774,31.0440409 141.057272,31.626404 141.569731,31.8323259 C141.781052,31.9172411 142.015027,31.9274802 142.232958,31.8613498 L146.105594,30.6862108 C146.634083,30.5258426 147.192512,30.8242633 147.35288,31.3527521 C147.427744,31.5994638 147.404428,31.865557 147.287799,32.0954896 L145.45742,35.7040634 C145.207585,36.1966091 145.404342,36.798427 145.896888,37.0482613 C146.100009,37.1512905 146.332214,37.1818955 146.555094,37.1350138 L150.51626,36.3017993 C151.056718,36.1881164 151.587004,36.5340857 151.700687,37.0745435 C151.753748,37.3267992 151.707348,37.5898013 151.571168,37.8086703 L149.433558,41.2442624 C149.141794,41.713189 149.285413,42.3298507 149.75434,42.6216147 C149.947694,42.7419185 150.176318,42.792625 150.402403,42.7653486 L154.420365,42.2805958 C154.968674,42.2144443 155.466792,42.6053099 155.532944,43.1536186 C155.563819,43.409534 155.494679,43.6674872 155.339949,43.8736543 L152.910926,47.1101778 C152.579413,47.5518988 152.668754,48.178729 153.110475,48.5102422 C153.292617,48.6469404 153.515962,48.7173747 153.743572,48.7098963 L157.788159,48.5770057 C158.340146,48.5588694 158.802322,48.9916408 158.820458,49.5436277 C158.828924,49.8012944 158.737551,50.0522755 158.565408,50.2441888 L155.863631,53.2562648 C155.494858,53.6673913 155.529193,54.2996247 155.940319,54.6683976 C156.109851,54.8204646 156.32621,54.9101093 156.553613,54.9225049 L160.594815,55.1427898 C161.146281,55.17285 161.568964,55.6442703 161.538903,56.1957363 C161.524872,56.4531471 161.411974,56.6951949 161.22377,56.8713665 L158.269804,59.6364755 C157.866604,60.0138981 157.845707,60.6467181 158.223129,61.0499186 C158.378758,61.2161763 158.586472,61.3243346 158.81192,61.3565059 L162.818535,61.9282471 C163.365282,62.0062674 163.745259,62.5127406 163.667239,63.0594867 C163.630822,63.3146827 163.497264,63.545958 163.294433,63.7050517 L160.110319,66.2025641 C159.675763,66.5434152 159.5998,67.172007 159.940652,67.606563 C160.08121,67.7857624 160.278726,67.9116146 160.500531,67.9633028 L164.441779,68.8817509 C164.979653,69.0070941 165.314074,69.5447371 165.188731,70.0826103 C165.130215,70.3337155 164.976971,70.5525152 164.76099,70.6933345 L161.371103,72.9035331 C160.908466,73.2051713 160.777951,73.8247387 161.079589,74.2873755 C161.203997,74.4781855 161.38982,74.6208045 161.606311,74.6916355 L165.453513,75.9503482 C165.978418,76.1220845 166.264718,76.6868238 166.092981,77.2117286 C166.012814,77.4567573 165.84111,77.6613571 165.613709,77.7828247 L162.043548,79.68984 C161.556404,79.9500499 161.372437,80.5558999 161.632647,81.0430439 C161.739973,81.2439703 161.912682,81.4022323 162.122195,81.4916425 L165.845043,83.0803706 C166.353007,83.2971446 166.589063,83.8846609 166.372289,84.392625 C166.271099,84.629744 166.08224,84.8186206 165.845131,84.9198339 L162.123653,86.5083948 C161.615709,86.725217 161.379709,87.3127557 161.596531,87.8206992 C161.685933,88.0301386 161.844141,88.2027916 162.044992,88.3101063 L165.613832,90.2169385 C166.100946,90.4772039 166.284843,91.0830748 166.024578,91.5701892 C165.903085,91.7975774 165.698465,91.9692575 165.453427,92.049397 L161.60642,93.3075565 C161.081496,93.4792326 160.795131,94.043939 160.966807,94.5688635 C161.037615,94.7853679 161.180217,94.9712098 161.371018,95.0956393 L164.761075,97.3064376 C165.223681,97.6081226 165.354133,98.2277032 165.052448,98.6903095 C164.911604,98.9062813 164.692782,99.0595046 164.441665,99.1179926 L160.500645,100.035898 C159.962758,100.161178 159.628273,100.698782 159.753553,101.23667 C159.805216,101.458488 159.931052,101.656025 160.110244,101.796605 L163.294464,104.29469 C163.728988,104.635582 163.804891,105.264181 163.463998,105.698705 C163.304876,105.901532 163.073572,106.035071 162.818357,106.071455 L158.811283,106.642703 C158.264526,106.720648 157.88448,107.227069 157.962425,107.773826 C157.994572,107.999323 158.102738,108.207088 158.269028,108.362748 L161.223506,111.128369 C161.626705,111.505794 161.647598,112.138614 161.270173,112.541812 C161.093973,112.730044 160.851879,112.842946 160.594426,112.856948 L156.553733,113.076716 C156.002263,113.10671 155.579524,113.578079 155.609517,114.129549 C155.621886,114.356966 155.711515,114.573348 155.863577,114.742903 L158.565453,117.755578 C158.934193,118.166735 158.899808,118.798965 158.488651,119.167705 C158.296713,119.339842 158.045707,119.431196 157.788026,119.422697 L153.744469,119.289336 C153.192484,119.27113 152.730254,119.703844 152.712049,120.255829 C152.704542,120.483422 152.774939,120.706762 152.911597,120.888915 L155.340157,124.125962 C155.671595,124.567739 155.582148,125.194554 155.140371,125.525992 C154.934162,125.680698 154.676175,125.749793 154.420247,125.718858 L150.401855,125.233134 C149.853561,125.166859 149.355354,125.557612 149.289079,126.105906 C149.261744,126.332053 149.312438,126.560757 149.432773,126.754172 L151.571016,130.190973 C151.862768,130.659907 151.719134,131.276565 151.2502,131.568318 C151.031293,131.704513 150.768243,131.750899 150.515954,131.697794 L146.556006,130.864243 C146.015565,130.750483 145.485229,131.096376 145.371469,131.636818 C145.324557,131.859684 145.355125,132.091888 145.458119,132.295019 L147.288207,135.904474 C147.537962,136.39706 147.341107,136.998846 146.848521,137.2486 C146.618584,137.365184 146.352506,137.388462 146.105818,137.313574 L142.233069,136.137911 C141.704598,135.977482 141.146135,136.275838 140.985706,136.804308 C140.919543,137.022255 140.929764,137.256257 141.014679,137.467604 L142.523379,141.22266 C142.729278,141.735128 142.480754,142.31748 141.968285,142.523379 C141.729037,142.619504 141.461907,142.619504 141.22266,142.523379 L137.467604,141.014679 C136.955136,140.80878 136.372784,141.057304 136.166885,141.569773 C136.08197,141.78112 136.071749,142.015123 136.137911,142.233069 L137.313472,146.105483 C137.473902,146.633954 137.175546,147.192417 136.647075,147.352846 C136.400352,147.427745 136.134234,147.40445 135.904276,147.287824 L132.295116,145.457395 C131.802556,145.207588 131.200749,145.404377 130.950942,145.896936 C130.847914,146.100082 130.817326,146.332314 130.864238,146.55521 L131.697825,150.515819 C131.811572,151.056263 131.465665,151.58659 130.925221,151.700337 C130.672918,151.753439 130.409855,151.707039 130.190945,151.570822 L126.754998,149.432807 C126.286083,149.141024 125.669416,149.284619 125.377633,149.753535 C125.257296,149.946926 125.206586,150.175604 125.233892,150.401736 L125.719108,154.419977 C125.785318,154.968279 125.394505,155.466438 124.846203,155.532648 C124.590246,155.563555 124.332242,155.494413 124.126043,155.339652 L120.889069,152.910169 C120.447356,152.578645 119.820524,152.667971 119.489,153.109684 C119.352268,153.291861 119.281829,153.515259 119.289335,153.742916 L119.422726,157.788313 C119.440926,158.340297 119.008209,158.802524 118.456224,158.820725 C118.198574,158.82922 117.947596,158.737887 117.755666,158.565786 L114.74207,155.863523 C114.330884,155.494817 113.698657,155.529253 113.32995,155.940439 C113.177892,156.110016 113.08828,156.326421 113.075937,156.553854 L112.856672,160.594306 C112.826744,161.145779 112.355426,161.568576 111.803953,161.538649 C111.546488,161.524677 111.30437,161.411795 111.128146,161.223571 L108.361916,158.268964 C107.984455,157.865798 107.351633,157.844961 106.948468,158.222421 C106.782185,158.378103 106.674035,158.58589 106.641913,158.811402 L106.071266,162.817693 C105.993386,163.364459 105.48701,163.744566 104.940244,163.666686 C104.684958,163.630324 104.453586,163.496752 104.294438,163.29386 L101.796651,160.109531 C101.455791,159.674982 100.827198,159.599032 100.392649,159.939892 C100.213418,160.08048 100.087558,160.278046 100.035892,160.4999 L99.1179502,164.441563 C98.9926851,164.979455 98.4550906,165.313954 97.9171993,165.188689 C97.6660707,165.130206 97.4472385,164.97698 97.306389,164.761 L95.0956393,161.371018 C94.7939543,160.908412 94.1743737,160.77796 93.7117674,161.079645 C93.5209662,161.204074 93.3783641,161.389916 93.3075565,161.60642 L92.0494545,165.453251 C91.8777784,165.978175 91.3130721,166.26454 90.7881475,166.092864 C90.5430905,166.012718 90.338459,165.841018 90.2169691,165.613606 L88.3101332,162.04427 C88.0498955,161.557141 87.4440351,161.373209 86.9569059,161.633446 C86.7560172,161.740767 86.5977822,161.913448 86.5083761,162.122924 L84.9197316,165.845087 C84.7029335,166.353041 84.115406,166.589069 83.6074523,166.372271 C83.370338,166.271069 83.1814703,166.082201 83.0802684,165.845087 L81.4916239,162.122924 C81.2748257,161.61497 80.6872982,161.378942 80.1793445,161.59574 C79.9698679,161.685146 79.797187,161.843381 79.6898668,162.04427 L77.7830309,165.613606 C77.5227933,166.100735 76.9169328,166.284667 76.4298036,166.024429 C76.2023911,165.902939 76.0306912,165.698308 75.9505455,165.453251 L74.6924435,161.60642 C74.5207674,161.081496 73.956061,160.795131 73.4311365,160.966807 C73.2146321,161.037615 73.0287902,161.180217 72.9043607,161.371018 L70.6933537,164.761394 C70.3916687,165.224001 69.7720882,165.354453 69.3094819,165.052768 C69.0935442,164.911946 68.9403338,164.69317 68.8818254,164.442099 L67.9633028,160.500531 C67.8379596,159.962658 67.3003166,159.628236 66.7624434,159.753579 C66.5406387,159.805267 66.3431221,159.93112 66.2025641,160.110319 L63.7050859,163.294389 C63.3642347,163.728945 62.735643,163.804908 62.301087,163.464057 C62.0982515,163.30496 61.9646917,163.073677 61.9282789,162.818475 L61.3565083,158.811165 C61.2784974,158.264417 60.7720306,157.884431 60.2252832,157.962442 C59.9998008,157.994615 59.792057,158.102797 59.6364191,158.269092 L56.8714083,161.223442 C56.494019,161.626673 55.8612007,161.647623 55.4579691,161.270234 C55.2697296,161.094058 55.1568081,160.851986 55.1427752,160.594547 L54.9225049,156.553613 C54.8924446,156.002146 54.4210244,155.579464 53.8695583,155.609524 C53.6421561,155.621919 53.4257967,155.711564 53.2562648,155.863631 L50.2441888,158.565408 C49.8330623,158.934181 49.2008289,158.899847 48.832056,158.48872 C48.6599133,158.296807 48.5685397,158.045826 48.5770057,157.788159 L48.7098963,153.743572 C48.7280326,153.191585 48.2952612,152.729409 47.7432743,152.711272 C47.5156646,152.703794 47.2923198,152.774228 47.1101778,152.910926 L43.8739281,155.339744 C43.4322071,155.671257 42.8053769,155.581916 42.4738637,155.140195 C42.3191126,154.933999 42.2499755,154.676003 42.2808822,154.420055 L42.7661083,150.401736 C42.8323176,149.853434 42.4415045,149.355274 41.8932028,149.289065 C41.667071,149.261759 41.4383929,149.312469 41.2450018,149.432807 L37.8087976,151.570982 C37.3398823,151.862764 36.7232151,151.71917 36.4314329,151.250254 C36.2952334,151.031372 36.2488272,150.768346 36.3018989,150.51607 L37.1350087,146.555891 C37.2487051,146.015436 36.902749,145.485141 36.362294,145.371445 C36.1394436,145.324563 35.9072663,145.355149 35.7041595,145.458143 L32.0952919,147.288183 C31.6027192,147.537964 31.0009225,147.341143 30.7511413,146.84857 C30.6345541,146.618658 30.6112562,146.352605 30.6861093,146.105929 L31.8613498,142.232958 C32.0217181,141.704469 31.7232974,141.14604 31.1948086,140.985672 C30.9768778,140.919542 30.7429023,140.929781 30.5315816,141.014696 L26.777099,142.523362 C26.2646396,142.729284 25.6822766,142.480786 25.4763547,141.968327 C25.380228,141.729105 25.380207,141.462001 25.4762961,141.222764 L26.9845904,137.4675 C27.1904317,136.955009 26.9418425,136.372685 26.4293507,136.166843 C26.2180187,136.081962 25.984044,136.071759 25.7661253,136.137922 L21.8939325,137.313564 C21.3654678,137.474012 20.8069938,137.175675 20.6465459,136.647211 C20.5716568,136.40055 20.5949127,136.134497 20.7114607,135.90457 L22.5411579,132.294923 C22.7908591,131.80231 22.59394,131.200545 22.1013268,130.950844 C21.8982092,130.847886 21.6660344,130.817337 21.4431971,130.864249 L17.4836636,131.697814 C16.9432249,131.811588 16.4128809,131.465708 16.2991071,130.925269 C16.2460037,130.673022 16.29236,130.410012 16.4285032,130.191119 L18.5657572,126.754824 C18.8574431,126.285849 18.7137218,125.669211 18.2447466,125.377525 C18.0513821,125.257259 17.8227621,125.20659 17.596691,125.233895 L13.5797968,125.719067 C13.031497,125.785293 12.533326,125.394494 12.4671008,124.846194 C12.4361885,124.590262 12.5053082,124.332278 12.6600353,124.126083 L15.0891171,120.888992 C15.4205983,120.447247 15.3312118,119.820423 14.8894668,119.488942 C14.7073016,119.352247 14.4839329,119.281829 14.2563076,119.289335 L10.2114083,119.422725 C9.65942365,119.440928 9.19719522,119.008213 9.17899223,118.456228 C9.17049659,118.198608 9.26180645,117.947656 9.43387075,117.755733 L12.1357644,114.742003 C12.504434,114.330784 12.4699407,113.69856 12.0587215,113.32989 C11.8891557,113.177869 11.6727802,113.08828 11.4453807,113.075938 L7.40540436,112.856671 C6.85393125,112.82674 6.43113765,112.355419 6.46106842,111.803946 C6.47504047,111.546512 6.58789823,111.304421 6.77608594,111.128202 L9.73032448,108.361859 C10.1334583,107.984366 10.1542438,107.351542 9.77675003,106.948408 C9.62107765,106.782162 9.41331994,106.674036 9.1878429,106.641916 L5.18176728,106.07123 C4.63500254,105.99334 4.25490401,105.486958 4.33279346,104.940193 C4.36915208,104.684965 4.50267666,104.453639 4.70549941,104.294496 L7.88904215,101.796559 C8.3235403,101.455634 8.39939638,100.827029 8.05847146,100.392531 C7.91789982,100.213377 7.72039176,100.087566 7.49860892,100.035904 L3.55770556,99.1179119 C3.01982109,98.9926173 2.68535092,98.4550044 2.81064552,97.91712 C2.86912513,97.6660694 3.02229049,97.4472981 3.23818236,97.3064545 L6.6283494,95.0947757 C7.09090523,94.7930133 7.22125407,94.1734109 6.91949167,93.7108551 C6.79504707,93.5201004 6.60921425,93.3775414 6.39273375,93.3067602 L2.5465394,92.0491953 C2.02160158,91.8775598 1.73519344,91.3128756 1.90682891,90.7879378 C1.98694635,90.542903 2.15860044,90.3382761 2.38596677,90.216763 L5.95510196,88.3092838 C6.44218856,88.0489665 6.62602142,87.4430759 6.36570414,86.9559893 C6.25836725,86.7551484 6.08569575,86.5969581 5.87624496,86.5075788 L2.15516188,84.9196755 C1.64719432,84.7029097 1.41112861,84.1153973 1.62789437,83.6074297 C1.72908988,83.3702888 1.91796878,83.1813978 2.15510327,83.0801872 L5.87707587,81.4916239 C6.38502962,81.2748257 6.62105789,80.6872982 6.40425976,80.1793445 C6.31485372,79.9698679 6.15661868,79.797187 5.95573001,79.6898668 L2.38595797,77.7827978 C1.89882879,77.5225602 1.71489684,76.9166997 1.97513445,76.4295706 C2.09659955,76.2022045 2.3011733,76.0305265 2.54616797,75.9503599 L6.39295212,74.6916238 C6.91785049,74.5198677 7.20412889,73.9551177 7.03237282,73.4302193 C6.96154479,73.213764 6.81895181,73.02797 6.62817983,72.9035692 L3.23874631,70.693347 C2.77612939,70.3916783 2.64565512,69.7721024 2.94732386,69.3094854 C3.08814497,69.0935326 3.30692899,68.9403106 3.55801201,68.8817995 L7.49946914,67.9633028 C8.03734229,67.8379596 8.37176393,67.3003166 8.24642076,66.7624434 C8.19473254,66.5406387 8.06888036,66.3431221 7.88968092,66.2025641 L4.70556712,63.7050517 C4.27101113,63.3642005 4.19504837,62.7356088 4.53589956,62.3010528 C4.69499327,62.098222 4.92626855,61.9646634 5.18146456,61.9282471 L9.18807981,61.3565059 C9.7348259,61.2784856 10.1148032,60.7720124 10.0367829,60.2252663 C10.0046117,59.9998183 9.89645335,59.7921038 9.73019566,59.6364755 L6.77621471,56.8713519 C6.37301423,56.4939293 6.35211713,55.8611092 6.72953973,55.4579088 C6.90570976,55.2697063 7.14775484,55.1568085 7.40516328,55.1427755 L11.4456218,54.9225046 C11.9970876,54.8924407 12.4197675,54.4210176 12.3897036,53.8695518 C12.3773082,53.6421827 12.2876863,53.4258527 12.1356567,53.2563318 L9.43424871,50.2441218 C9.0655128,49.8329621 9.09990405,49.2007318 9.51106372,48.8319959 C9.70297035,48.6598904 9.95392484,48.5685398 10.2115618,48.5770058 L14.255652,48.7098962 C14.8076388,48.7280347 15.2698167,48.2952651 15.2879552,47.7432783 C15.2954335,47.5157004 15.2250208,47.2923849 15.0883593,47.1102552 L12.6599148,43.8738507 C12.3284443,43.4320977 12.4178459,42.8052762 12.859599,42.4738057 C13.0657875,42.3190916 13.3237568,42.249977 13.5796765,42.2808839 L17.5974777,42.7661065 C18.1457785,42.8323238 18.6439438,42.441518 18.7101611,41.8932172 C18.7374669,41.6671158 18.6867769,41.4384667 18.5664753,41.2450889 L16.4286805,37.8087105 C16.1369464,37.3397652 16.2806044,36.7231127 16.7495497,36.4313787 C16.9684233,36.2952159 17.2314226,36.2488315 17.483671,36.301904 L21.4433128,37.1350036 C21.983765,37.2487135 22.5140681,36.9027705 22.6277779,36.3623184 C22.6746591,36.1394969 22.6440929,35.9073482 22.5411332,35.7042557 L20.7114854,32.0951957 C20.4617573,31.6025961 20.6586435,31.0008207 21.1512431,30.7510926 C21.3811451,30.6345415 21.6471724,30.611265 21.8938218,30.6861195 L25.766236,31.8613397 C26.2947192,32.0217265 26.8531587,31.7233254 27.0135455,31.1948421 C27.0796759,30.976939 27.0694552,30.7429914 26.9845736,30.5316856 L25.4763128,26.7769949 C25.2704484,26.2645125 25.5190115,25.6821773 26.0314939,25.4763128 C26.270705,25.3802216 26.5377839,25.3802216 26.7769949,25.4763128 L30.5316856,26.9845736 C31.0441681,27.190438 31.6265033,26.941875 31.8323677,26.4293925 C31.9172493,26.2180868 31.92747,25.9841391 31.8613397,25.766236 L30.6861195,21.8938218 C30.5257326,21.3653386 30.8241337,20.8068991 31.352617,20.6465123 C31.5992663,20.5716579 31.8652937,20.5949344 32.0951957,20.7114854 L35.7042557,22.5411332 C36.1968553,22.7908613 36.7986307,22.5939751 37.0483588,22.1013755 C37.1513185,21.898283 37.1818847,21.6661343 37.1350036,21.4433128 L36.3018781,17.4835479 C36.1881682,16.9430957 36.5341112,16.4127926 37.0745633,16.2990827 C37.3267985,16.246013 37.5897842,16.2923897 37.8086516,16.4285369 L41.2443495,18.5657235 C41.7133061,18.8574394 42.329953,18.7137574 42.6216689,18.2448008 C42.7419369,18.0514604 42.792623,17.8228654 42.7653469,17.5968102 L42.2805975,13.5793663 C42.2144381,13.0310586 42.6052965,12.5329345 43.1536042,12.4667751 C43.409491,12.4358995 43.6674177,12.5050173 43.873577,12.6597094 L47.1102552,15.0883593 C47.5520082,15.4198298 48.1788297,15.3304282 48.5103002,14.8886752 C48.6469618,14.7065454 48.7173745,14.4832299 48.7098962,14.255652 L48.5769972,10.2113002 C48.5588587,9.65931336 48.9916283,9.19713548 49.5436151,9.17899698 C49.8012242,9.17053185 50.0521534,9.26186176 50.2440531,9.43393321 L53.2571642,12.1357106 C53.6683536,12.5044133 54.3005811,12.469971 54.6692839,12.0587816 C54.8213089,11.8892383 54.9109148,11.6728855 54.9232834,11.4455013 L55.1430512,7.40530204 C55.1730485,6.85383254 55.6444205,6.43109583 56.19589,6.46109317 C56.4533133,6.47509578 56.695383,6.58797517 56.8715776,6.77617264 L59.6365319,9.72948368 C60.0139879,10.132653 60.6468096,10.1534978 61.0499789,9.7760419 C61.2161988,9.62042322 61.3243332,9.41273803 61.3565035,9.18732444 L61.9282495,5.18116451 C62.0062792,4.63441975 62.5127589,4.25445107 63.0595036,4.33248069 C63.3146676,4.36889687 63.5459164,4.50243127 63.7050057,4.70522527 L66.2026101,7.88896733 C66.5434937,8.3234979 67.1720911,8.39941376 67.6066217,8.05853016 C67.7857831,7.91798035 67.9116102,7.72049277 67.9632966,7.49872357 L68.8817571,3.55791073 C69.007115,3.02004101 69.5447673,2.68563413 70.082637,2.81099205 C70.3337092,2.86950787 70.5524825,3.02272683 70.6932984,3.23867175 L72.9035692,6.62817983 C73.2052379,7.09079675 73.8248139,7.22127102 74.2874308,6.91960228 C74.4782028,6.79520142 74.6207957,6.60940746 74.6916238,6.39295212 L75.9504173,2.54599238 C76.1221734,2.02109401 76.6869234,1.73481561 77.2118218,1.90657168 C77.4567977,1.98673216 77.6613597,2.15839041 77.7828284,2.38573214 L79.6898937,5.95500796 C79.950159,6.44212231 80.55603,6.62601975 81.0431443,6.36575439 C81.2439953,6.25843965 81.4022033,6.08578663 81.4916052,5.87634722 L83.0801454,2.15491802 C83.2969676,1.64697455 83.8845063,1.41097416 84.3924498,1.6277964 C84.6295644,1.72901183 84.818426,1.91789442 84.919615,2.15502027 Z" id="路径"></path>
                <path d="M87.1334188,69.887828 C86.4416422,71.082819 85.1492963,71.8867188 83.6691895,71.8867188 C81.4600505,71.8867188 79.6691895,70.0958577 79.6691895,67.8867188 C79.6691895,65.6775798 81.4600505,63.8867188 83.6691895,63.8867188 C85.1497044,63.8867188 86.442355,64.691062 87.133991,65.8865983 L88.9991895,65.8867188 L89.0001895,53.8867188 L87.1334188,53.887828 C86.4416422,55.082819 85.1492963,55.8867188 83.6691895,55.8867188 C81.4600505,55.8867188 79.6691895,54.0958577 79.6691895,51.8867188 C79.6691895,49.6775798 81.4600505,47.8867188 83.6691895,47.8867188 C85.1497044,47.8867188 86.442355,48.691062 87.133991,49.8865983 L89.0001895,49.8867188 L89.0001895,37.8867188 L87.1334188,37.887828 C86.4416422,39.082819 85.1492963,39.8867188 83.6691895,39.8867188 C81.4600505,39.8867188 79.6691895,38.0958577 79.6691895,35.8867188 C79.6691895,33.6775798 81.4600505,31.8867188 83.6691895,31.8867188 C85.1497044,31.8867188 86.442355,32.691062 87.133991,33.8865983 L89.0001895,33.8867188 L89.0001895,21.8867188 L87.1334188,21.887828 C86.4416422,23.082819 85.1492963,23.8867188 83.6691895,23.8867188 C81.4600505,23.8867188 79.6691895,22.0958577 79.6691895,19.8867188 C79.6691895,17.6775798 81.4600505,15.8867188 83.6691895,15.8867188 C84.6561994,15.8867188 86.4333523,15.9470774 89.0006479,16.0677948 C118.482167,18.2106505 142.749647,39.1491074 149.875349,66.9554276 C150.019456,67.5177695 150.179835,68.2222527 150.356486,69.0688771 C150.808214,71.2313381 149.421687,73.3507509 147.25929,73.8027816 C146.98984,73.8591076 146.715296,73.8874688 146.440023,73.8874143 L146,73.8874143 L146,73.8874143 L100.031372,73.8874143 L98.6574274,73.8872784 C95.0349594,73.8869201 91.5609206,72.4479309 88.9991895,69.8867188 L88.9991895,69.8867188 L88.9991895,69.8867188 L87.1334188,69.887828 Z" id="路径" stroke-linejoin="round"></path>
                <path d="M94.4823376,140.356917 C93.790561,141.551908 92.4982151,142.355808 91.0181083,142.355808 C88.8089693,142.355808 87.0181083,140.564947 87.0181083,138.355808 C87.0181083,136.146669 88.8089693,134.355808 91.0181083,134.355808 C92.4986232,134.355808 93.7912738,135.160151 94.4829098,136.355687 L96.3481083,136.355808 L96.3491083,124.355808 L94.4823376,124.356917 C93.790561,125.551908 92.4982151,126.355808 91.0181083,126.355808 C88.8089693,126.355808 87.0181083,124.564947 87.0181083,122.355808 C87.0181083,120.146669 88.8089693,118.355808 91.0181083,118.355808 C92.4986232,118.355808 93.7912738,119.160151 94.4829098,120.355687 L96.3491083,120.355808 L96.3491083,108.355808 L94.4823376,108.356917 C93.790561,109.551908 92.4982151,110.355808 91.0181083,110.355808 C88.8089693,110.355808 87.0181083,108.564947 87.0181083,106.355808 C87.0181083,104.146669 88.8089693,102.355808 91.0181083,102.355808 C92.4986232,102.355808 93.7912738,103.160151 94.4829098,104.355687 L96.3491083,104.355808 L96.3491083,92.3558078 L94.4823376,92.356917 C93.790561,93.551908 92.4982151,94.3558078 91.0181083,94.3558078 C88.8089693,94.3558078 87.0181083,92.5649468 87.0181083,90.3558078 C87.0181083,88.1466688 88.8089693,86.3558078 91.0181083,86.3558078 C92.0051183,86.3558078 93.7822711,86.4161665 96.3495667,86.5368838 C125.831086,88.6797395 150.098566,109.618196 157.224267,137.424517 C157.368374,137.986859 157.528754,138.691342 157.705405,139.537966 C158.157132,141.700427 156.770606,143.81984 154.608208,144.271871 C154.338759,144.328197 154.064215,144.356558 153.788942,144.356503 L153.348919,144.356503 L153.348919,144.356503 L107.38029,144.356503 L106.006346,144.356367 C102.383878,144.356009 98.9098394,142.91702 96.3481083,140.355808 L96.3481083,140.355808 L96.3481083,140.355808 L94.4823376,140.356917 Z" id="路径" stroke-linejoin="round" transform="translate(122.818503, 115.356156) rotate(90.000000) translate(-122.818503, -115.356156) "></path>
                <path d="M23.4642293,147.796978 C22.7724528,148.99197 21.4801068,149.795869 20,149.795869 C17.790861,149.795869 16,148.005008 16,145.795869 C16,143.58673 17.790861,141.795869 20,141.795869 C21.480515,141.795869 22.7731656,142.600213 23.4648015,143.795749 L25.33,143.795869 L25.331,131.795869 L23.4642293,131.796978 C22.7724528,132.99197 21.4801068,133.795869 20,133.795869 C17.790861,133.795869 16,132.005008 16,129.795869 C16,127.58673 17.790861,125.795869 20,125.795869 C21.480515,125.795869 22.7731656,126.600213 23.4648015,127.795749 L25.331,127.795869 L25.331,115.795869 L23.4642293,115.796978 C22.7724528,116.99197 21.4801068,117.795869 20,117.795869 C17.790861,117.795869 16,116.005008 16,113.795869 C16,111.58673 17.790861,109.795869 20,109.795869 C21.480515,109.795869 22.7731656,110.600213 23.4648015,111.795749 L25.331,111.795869 L25.331,99.7958693 L23.4642293,99.7969785 C22.7724528,100.99197 21.4801068,101.795869 20,101.795869 C17.790861,101.795869 16,100.005008 16,97.7958693 C16,95.5867303 17.790861,93.7958693 20,93.7958693 C20.98701,93.7958693 22.7641628,93.856228 25.3314585,93.9769453 C54.8129777,96.119801 79.0804573,117.058258 86.2061592,144.864578 C86.3502661,145.42692 86.5106453,146.131403 86.6872969,146.978028 C87.1390242,149.140489 85.7524978,151.259901 83.5901002,151.711932 C83.3206509,151.768258 83.0461069,151.796619 82.7708333,151.796565 L82.3308105,151.796565 L82.3308105,151.796565 L36.3621821,151.796565 L34.9882379,151.796429 C31.3657699,151.796071 27.8917312,150.357081 25.33,147.795869 L25.33,147.795869 L25.33,147.795869 L23.4642293,147.796978 Z" id="路径" stroke-linejoin="round" transform="translate(51.800395, 122.796217) rotate(180.000000) translate(-51.800395, -122.796217) "></path>
                <path d="M16.6641819,76.6878754 C15.9724054,77.8828664 14.6800594,78.6867662 13.1999526,78.6867662 C10.9908136,78.6867662 9.1999526,76.8959052 9.1999526,74.6867662 C9.1999526,72.4776272 10.9908136,70.6867662 13.1999526,70.6867662 C14.6804676,70.6867662 15.9731182,71.4911094 16.6647541,72.6866457 L18.5299526,72.6867662 L18.5309526,60.6867662 L16.6641819,60.6878754 C15.9724054,61.8828664 14.6800594,62.6867662 13.1999526,62.6867662 C10.9908136,62.6867662 9.1999526,60.8959052 9.1999526,58.6867662 C9.1999526,56.4776272 10.9908136,54.6867662 13.1999526,54.6867662 C14.6804676,54.6867662 15.9731182,55.4911094 16.6647541,56.6866457 L18.5309526,56.6867662 L18.5309526,44.6867662 L16.6641819,44.6878754 C15.9724054,45.8828664 14.6800594,46.6867662 13.1999526,46.6867662 C10.9908136,46.6867662 9.1999526,44.8959052 9.1999526,42.6867662 C9.1999526,40.4776272 10.9908136,38.6867662 13.1999526,38.6867662 C14.6804676,38.6867662 15.9731182,39.4911094 16.6647541,40.6866457 L18.5309526,40.6867662 L18.5309526,28.6867662 L16.6641819,28.6878754 C15.9724054,29.8828664 14.6800594,30.6867662 13.1999526,30.6867662 C10.9908136,30.6867662 9.1999526,28.8959052 9.1999526,26.6867662 C9.1999526,24.4776272 10.9908136,22.6867662 13.1999526,22.6867662 C14.1869626,22.6867662 15.9641154,22.7471248 18.5314111,22.8678422 C48.0129303,25.0106979 72.2804099,45.9491548 79.4061118,73.755475 C79.5502187,74.3178169 79.7105979,75.0223001 79.8872495,75.8689245 C80.3389768,78.0313855 78.9524504,80.1507983 76.7900528,80.602829 C76.5206035,80.659155 76.2460595,80.6875162 75.9707859,80.6874617 L75.5307631,80.6874617 L75.5307631,80.6874617 L29.5621347,80.6874617 L28.1881905,80.6873258 C24.5657225,80.6869675 21.0916838,79.2479783 18.5299526,76.6867662 L18.5299526,76.6867662 L18.5299526,76.6867662 L16.6641819,76.6878754 Z" id="路径" stroke-linejoin="round" transform="translate(45.000348, 51.687114) rotate(270.000000) translate(-45.000348, -51.687114) "></path>
                <circle id="椭圆形" stroke-linejoin="round" cx="83.8" cy="83.8867188" r="8"></circle>
            </g>
        </g>
    </g>
</svg>