<?xml version="1.0" encoding="UTF-8"?>
<svg width="153px" height="153px" viewBox="0 0 153 153" version="1.1" xmlns="http://www.w3.org/2000/svg" xmlns:xlink="http://www.w3.org/1999/xlink">
    <title>37</title>
    <g id="页面-1" stroke="none" stroke-width="1" fill="none" fill-rule="evenodd" opacity="0.539457775">
        <g id="形状描摹" transform="translate(-951.000000, -1420.000000)" stroke="#3D4242">
            <g id="37" transform="translate(951.779747, 1420.113281)">
                <path d="M76.919615,2.15502027 L78.1907984,5.1339035 C78.4075641,5.64187107 78.9950766,5.87793677 79.5030441,5.66117101 C79.7124949,5.57179176 79.8851664,5.41360142 79.9925033,5.2127605 L81.5195171,2.35552436 C81.7798344,1.86843776 82.3857249,1.6846049 82.8728115,1.94492218 C83.1001778,2.06643525 83.2718319,2.27106214 83.3519494,2.51609698 L84.3586627,5.59507522 C84.5302981,6.12001303 85.0949824,6.40642117 85.6199202,6.2347857 C85.8364007,6.16400449 86.0222335,6.02144549 86.1466781,5.83069086 L87.9172205,3.11671888 C88.2189829,2.65416305 88.8385852,2.52381421 89.301141,2.82557661 C89.5170408,2.96642543 89.6702092,3.18520743 89.7286841,3.43626879 L90.4636055,6.59164719 C90.5888854,7.12953509 91.1264891,7.46402001 91.664377,7.33874015 C91.8861953,7.28707628 92.0837324,7.1612406 92.2243123,6.98204843 L94.2242056,4.43285536 C94.5650981,3.99833178 95.1936971,3.9224288 95.6282207,4.26332131 C95.8310384,4.42243591 95.9645755,4.65372688 96.000966,4.90892919 L96.4582195,8.11559622 C96.5361837,8.6623503 97.0426179,9.0423796 97.589372,8.9644154 C97.8148001,8.93227056 98.0225069,8.82415235 98.1781476,8.65793834 L100.392038,6.29364918 C100.76953,5.89051319 101.402353,5.86972421 101.805489,6.24721569 C101.99368,6.42343455 102.106539,6.66552733 102.120511,6.92296351 L102.296035,10.1569905 C102.325966,10.7084636 102.797287,11.1312572 103.34876,11.1013264 C103.57616,11.0889845 103.792535,10.9993947 103.962101,10.8473742 L106.374787,8.68433304 C106.786006,8.31566349 107.418231,8.35015677 107.786901,8.76137595 C107.958965,8.95329887 108.050275,9.20425007 108.041779,9.46187064 L107.934994,12.7000149 C107.916791,13.2519996 108.349507,13.714228 108.901491,13.732431 C109.129117,13.7399375 109.352485,13.6695194 109.53465,13.5328244 L112.126083,11.5882385 C112.567828,11.2567573 113.194652,11.3461438 113.526133,11.7878888 C113.68086,11.9940843 113.74998,12.2520675 113.719067,12.508 L113.330676,15.7236179 C113.26445,16.2719177 113.655249,16.7700886 114.203549,16.8363139 C114.42962,16.8636194 114.65824,16.8129499 114.851604,16.692684 L117.602508,14.9817195 C118.071483,14.6900336 118.688121,14.8337549 118.979807,15.3027301 C119.11595,15.5216222 119.162306,15.7846326 119.109203,16.03688 L118.441907,19.2066117 C118.328133,19.7470504 118.674013,20.2773944 119.214452,20.3911682 C119.437289,20.4380802 119.669464,20.407531 119.872582,20.3045725 L122.762269,18.8398162 C123.254882,18.5901151 123.856647,18.7870342 124.106348,19.2796474 C124.222896,19.5095746 124.246152,19.7756271 124.171263,20.022288 L123.230117,23.1221253 C123.069669,23.65059 123.368005,24.209064 123.89647,24.3695119 C124.114389,24.4356745 124.348363,24.4254715 124.559695,24.3405904 L127.565909,23.1331503 C128.078401,22.927309 128.660725,23.1758982 128.866567,23.68839 C128.962656,23.927627 128.962635,24.1947314 128.866508,24.4339533 L127.658793,27.439484 C127.452872,27.9519434 127.701369,28.5343065 128.213829,28.7402284 C128.425149,28.8251435 128.659125,28.8353827 128.877056,28.7692523 L131.977238,27.8285117 C132.505727,27.6681434 133.064156,27.9665642 133.224524,28.495053 C133.299388,28.7417647 133.276073,29.0078579 133.159444,29.2377904 L131.6942,32.1265024 C131.444366,32.6190481 131.641122,33.220866 132.133668,33.4707003 C132.336789,33.5737295 132.568995,33.6043346 132.791874,33.5574528 L135.963044,32.8904108 C136.503502,32.7767278 137.033788,33.1226972 137.147471,33.663155 C137.200532,33.9154107 137.154131,34.1784128 137.017952,34.3972817 L135.306729,37.1475795 C135.014965,37.6165061 135.158584,38.2331677 135.62751,38.5249318 C135.820864,38.6452356 136.049488,38.6959421 136.275574,38.6686657 L139.492162,38.2805958 C140.04047,38.2144443 140.538589,38.6053099 140.60474,39.1536186 C140.635616,39.409534 140.566475,39.6674872 140.411746,39.8736543 L138.467219,42.4646169 C138.135706,42.9063378 138.225047,43.533168 138.666768,43.8646812 C138.84891,44.0013795 139.072255,44.0718138 139.299864,44.0643353 L142.537697,43.9579518 C143.089684,43.9398155 143.55186,44.3725869 143.569996,44.9245738 C143.578462,45.1822405 143.487088,45.4332216 143.314946,45.6251349 L141.152119,48.0363624 C140.783346,48.4474889 140.81768,49.0797223 141.228807,49.4484952 C141.398339,49.6005621 141.614698,49.6902068 141.8421,49.7026025 L145.077274,49.8789509 C145.62874,49.9090112 146.051423,50.3804314 146.021362,50.9318975 C146.007331,51.1893083 145.894433,51.431356 145.706229,51.6075276 L143.341512,53.8210609 C142.938311,54.1984835 142.917414,54.8313035 143.294837,55.234504 C143.450465,55.4007617 143.65818,55.50892 143.883628,55.5410913 L147.091129,55.9987995 C147.637875,56.0768198 148.017852,56.583293 147.939832,57.1300391 C147.903416,57.3852351 147.769857,57.6165104 147.567026,57.7756041 L145.018026,59.7749543 C144.58347,60.1158055 144.507508,60.7443972 144.848359,61.1789532 C144.988917,61.3581526 145.186433,61.4840048 145.408238,61.535693 L148.563317,62.2709363 C149.10119,62.3962795 149.435612,62.9339225 149.310269,63.4717957 C149.251753,63.7229009 149.098509,63.9417006 148.882528,64.0825199 L146.168859,65.8518258 C145.706222,66.153464 145.575707,66.7730313 145.877345,67.2356682 C146.001753,67.4264781 146.187576,67.5690972 146.404067,67.6399281 L149.483956,68.6475941 C150.00886,68.8193305 150.29516,69.3840697 150.123424,69.9089745 C150.043256,70.1540033 149.871553,70.3586031 149.644151,70.4800706 L146.786085,72.0067181 C146.298941,72.2669279 146.114974,72.8727779 146.375184,73.3599219 C146.48251,73.5608483 146.655218,73.7191104 146.864732,73.8085205 L149.845043,75.0803706 C150.353007,75.2971446 150.589063,75.8846609 150.372289,76.392625 C150.271099,76.629744 150.08224,76.8186206 149.845131,76.9198339 L146.865994,78.1915167 C146.358051,78.408339 146.12205,78.9958776 146.338873,79.5038211 C146.428275,79.7132605 146.586483,79.8859135 146.787334,79.9932283 L149.644274,81.5196926 C150.131388,81.7799579 150.315286,82.3858289 150.055021,82.8729432 C149.933527,83.1003314 149.728907,83.2720115 149.483869,83.3521511 L146.404177,84.3593614 C145.879252,84.5310375 145.592888,85.0957438 145.764564,85.6206684 C145.835371,85.8371727 145.977973,86.0230146 146.168774,86.1474442 L148.882613,87.9172522 C149.345219,88.2189372 149.475671,88.8385178 149.173986,89.3011241 C149.033142,89.5170959 148.81432,89.6703192 148.563203,89.7288072 L145.408353,90.4636055 C144.870465,90.5888854 144.53598,91.1264891 144.66126,91.664377 C144.712924,91.8861953 144.838759,92.0837324 145.017952,92.2243123 L147.567058,94.2241373 C148.001581,94.5650298 148.077484,95.1936287 147.736592,95.6281523 C147.57747,95.8309793 147.346165,95.9645191 147.09095,96.0009025 L143.883088,96.4582147 C143.336331,96.5361602 142.956285,97.0425815 143.03423,97.5893382 C143.066377,97.8148352 143.174543,98.0226006 143.340833,98.1782606 L145.705965,100.392208 C146.109164,100.769633 146.130057,101.402453 145.752632,101.805651 C145.576432,101.993883 145.334338,102.106785 145.076885,102.120787 L141.842221,102.296716 C141.290751,102.32671 140.868011,102.798079 140.898005,103.349549 C140.910374,103.576966 141.000003,103.793348 141.152065,103.962903 L143.314991,106.374632 C143.683731,106.785789 143.649345,107.418019 143.238189,107.786759 C143.046251,107.958896 142.795244,108.05025 142.537563,108.041751 L139.300664,107.934994 C138.748679,107.916789 138.286449,108.349503 138.268244,108.901487 C138.260738,109.129081 138.331134,109.35242 138.467792,109.534573 L140.411954,112.125962 C140.743392,112.567739 140.653945,113.194554 140.212168,113.525992 C140.005959,113.680698 139.747972,113.749793 139.492044,113.718858 L136.275123,113.330012 C135.726829,113.263737 135.228623,113.65449 135.162348,114.202784 C135.135012,114.428932 135.185706,114.657635 135.306041,114.85105 L137.0178,117.602362 C137.309552,118.071296 137.165918,118.687954 136.696984,118.979706 C136.478077,119.115902 136.215026,119.162288 135.962738,119.109182 L132.792689,118.441902 C132.252248,118.328142 131.721912,118.674035 131.608152,119.214476 C131.56124,119.437343 131.591808,119.669546 131.694801,119.872678 L133.159852,122.762173 C133.409606,123.254759 133.212752,123.856545 132.720166,124.106299 C132.490229,124.222884 132.22415,124.246161 131.977462,124.171273 L128.877166,123.230107 C128.348696,123.069677 127.790233,123.368033 127.629803,123.896504 C127.563641,124.11445 127.573862,124.348452 127.658777,124.559799 L128.866525,127.565805 C129.072424,128.078274 128.8239,128.660626 128.311431,128.866525 C128.072183,128.962649 127.805053,128.962649 127.565805,128.866525 L124.559799,127.658777 C124.047331,127.452878 123.464979,127.701402 123.25908,128.21387 C123.174165,128.425218 123.163944,128.65922 123.230107,128.877166 L124.171172,131.977128 C124.331601,132.505598 124.033245,133.064062 123.504774,133.224491 C123.258051,133.299389 122.991933,133.276094 122.761975,133.159468 L119.872774,131.694176 C119.380215,131.444368 118.778408,131.641158 118.5286,132.133717 C118.425572,132.336863 118.394984,132.569095 118.441897,132.79199 L119.109213,135.962602 C119.22296,136.503047 118.877053,137.033374 118.336609,137.14712 C118.084306,137.200222 117.821243,137.153822 117.602334,137.017606 L114.851779,135.306075 C114.382863,135.014293 113.766196,135.157888 113.474414,135.626803 C113.354076,135.820194 113.303366,136.048872 113.330672,136.275004 L113.719108,139.491774 C113.785318,140.040076 113.394505,140.538235 112.846203,140.604445 C112.590246,140.635352 112.332242,140.56621 112.126043,140.411449 L109.534728,138.466559 C109.093015,138.135035 108.466182,138.224361 108.134659,138.666074 C107.997927,138.848251 107.927487,139.071649 107.934994,139.299306 L108.041779,142.53785 C108.05998,143.089835 107.627263,143.552062 107.075278,143.570262 C106.817628,143.578758 106.56665,143.487425 106.37472,143.315324 L103.962168,141.152011 C103.550982,140.783305 102.918754,140.817741 102.550048,141.228927 C102.39799,141.398504 102.308377,141.614909 102.296035,141.842341 L102.12051,145.076765 C102.090583,145.628238 101.619265,146.051035 101.067792,146.021108 C100.810327,146.007136 100.568209,145.894254 100.391985,145.70603 L98.1775255,143.340768 C97.8000651,142.937603 97.1672431,142.916766 96.7640781,143.294226 C96.5977943,143.449908 96.4896444,143.657695 96.4575231,143.883207 L96.0007139,147.090286 C95.9228338,147.637052 95.416458,148.01716 94.8696919,147.939279 C94.6144058,147.902917 94.383034,147.769345 94.2238858,147.566454 L92.2243583,145.017336 C91.8834982,144.582787 91.254905,144.506837 90.8203559,144.847697 C90.6411258,144.988285 90.515265,145.185851 90.4635993,145.407705 L89.7287648,148.563101 C89.6034997,149.100993 89.0659052,149.435492 88.5280138,149.310227 C88.2768853,149.251744 88.0580531,149.098518 87.9172036,148.882538 L86.1474442,146.168774 C85.8457591,145.706168 85.2261786,145.575716 84.7635723,145.877401 C84.572771,146.00183 84.430169,146.187672 84.3593614,146.404177 L83.3522085,149.483693 C83.1805325,150.008618 82.6158261,150.294982 82.0909016,150.123306 C81.8458446,150.043161 81.6412131,149.871461 81.5197232,149.644048 L79.9932551,146.786709 C79.7330175,146.29958 79.127157,146.115648 78.6400278,146.375886 C78.4391392,146.483206 78.2809041,146.655887 78.1914981,146.865363 L76.9197316,149.845087 C76.7029335,150.353041 76.115406,150.589069 75.6074523,150.372271 C75.370338,150.271069 75.1814703,150.082201 75.0802684,149.845087 L73.8085019,146.865363 C73.5917038,146.357409 73.0041763,146.121381 72.4962225,146.338179 C72.2867459,146.427585 72.1140651,146.58582 72.0067449,146.786709 L70.4802768,149.644048 C70.2200392,150.131177 69.6141787,150.315109 69.1270496,150.054872 C68.899637,149.933382 68.7279371,149.72875 68.6477915,149.483693 L67.6406386,146.404177 C67.4689625,145.879252 66.9042562,145.592888 66.3793316,145.764564 C66.1628273,145.835371 65.9769854,145.977973 65.8525558,146.168774 L64.0825392,148.882932 C63.7808541,149.345539 63.1612736,149.475991 62.6986673,149.174306 C62.4827296,149.033484 62.3295192,148.814708 62.2710109,148.563637 L61.535693,145.408238 C61.4103499,144.870365 60.8727068,144.535943 60.3348336,144.661287 C60.1130289,144.712975 59.9155123,144.838827 59.7749543,145.018026 L57.7756383,147.566983 C57.4347871,148.001539 56.8061954,148.077501 56.3716394,147.73665 C56.1688039,147.577553 56.035244,147.346271 55.9988313,147.091068 L55.5410937,143.88297 C55.4630827,143.336222 54.956616,142.956236 54.4098686,143.034247 C54.1843862,143.06642 53.9766424,143.174602 53.8210044,143.340897 L51.6075695,145.705901 C51.2301802,146.109132 50.5973619,146.130082 50.1941302,145.752693 C50.0058907,145.576517 49.8929693,145.334445 49.8789363,145.077006 L49.7026025,141.8421 C49.6725422,141.290634 49.201122,140.867951 48.6496559,140.898012 C48.4222537,140.910407 48.2058943,141.000052 48.0363624,141.152119 L45.6251349,143.314946 C45.2140084,143.683719 44.581775,143.649384 44.2130021,143.238258 C44.0408594,143.046345 43.9494858,142.795363 43.9579518,142.537697 L44.0643353,139.299864 C44.0824716,138.747878 43.6497002,138.285701 43.0977133,138.267565 C42.8701036,138.260087 42.6467588,138.330521 42.4646169,138.467219 L39.8739281,140.411541 C39.4322071,140.743054 38.8053769,140.653713 38.4738637,140.211992 C38.3191126,140.005796 38.2499755,139.7478 38.2808822,139.491851 L38.6693278,136.275004 C38.7355371,135.726702 38.3447241,135.228543 37.7964223,135.162333 C37.5702905,135.135027 37.3416124,135.185737 37.1482213,135.306075 L34.3974091,137.017766 C33.9284938,137.309548 33.3118266,137.165953 33.0200443,136.697038 C32.8838449,136.478156 32.8374386,136.21513 32.8905104,135.962854 L33.5574477,132.792573 C33.6711441,132.252119 33.325188,131.721824 32.784733,131.608128 C32.5618826,131.561246 32.3297053,131.591832 32.1265986,131.694826 L29.2375927,133.159827 C28.7450201,133.409608 28.1432234,133.212787 27.8934422,132.720214 C27.776855,132.490302 27.7535571,132.224249 27.8284101,131.977573 L28.7692523,128.877056 C28.9296205,128.348567 28.6311998,127.790138 28.102711,127.62977 C27.8847803,127.563639 27.6508047,127.573878 27.439484,127.658793 L24.4339533,128.866508 C23.9214939,129.07243 23.3391308,128.823932 23.1332089,128.311473 C23.0370822,128.072251 23.0370612,127.805146 23.1331503,127.565909 L24.3405904,124.559695 C24.5464317,124.047204 24.2978425,123.46488 23.7853507,123.259038 C23.5740187,123.174157 23.340044,123.163954 23.1221253,123.230117 L20.022288,124.171263 C19.4938234,124.331711 18.9353493,124.033374 18.7749014,123.50491 C18.7000123,123.258249 18.7232682,122.992196 18.8398162,122.762269 L20.3045725,119.872582 C20.5542737,119.379969 20.3573546,118.778204 19.8647414,118.528503 C19.6616238,118.425544 19.429449,118.394995 19.2066117,118.441907 L16.03688,119.109203 C15.4964413,119.222977 14.9660973,118.877096 14.8523235,118.336658 C14.79922,118.08441 14.8455764,117.8214 14.9817195,117.602508 L16.692684,114.851604 C16.98437,114.382629 16.8406486,113.765992 16.3716734,113.474306 C16.178309,113.35404 15.9496889,113.30337 15.7236179,113.330676 L12.508,113.719067 C11.9597002,113.785293 11.4615293,113.394494 11.395304,112.846194 C11.3643918,112.590262 11.4335115,112.332278 11.5882385,112.126083 L13.5328244,109.53465 C13.8643056,109.092905 13.7749191,108.466082 13.3331741,108.1346 C13.1510089,107.997906 12.9276402,107.927487 12.7000149,107.934994 L9.46187064,108.041779 C8.90988595,108.059982 8.44765751,107.627267 8.42945453,107.075282 C8.42095889,106.817661 8.51226874,106.56671 8.68433304,106.374787 L10.8473742,103.962101 C11.2160437,103.550882 11.1815505,102.918657 10.7703313,102.549988 C10.6007654,102.397967 10.3843899,102.308377 10.1569905,102.296035 L6.92294533,102.12051 C6.37147221,102.090579 5.94867861,101.619258 5.97860939,101.067785 C5.99258143,100.810351 6.1054392,100.56826 6.2936269,100.392041 L8.65861716,98.1774691 C9.06175103,97.7999753 9.08253646,97.1671516 8.70504272,96.7640178 C8.54937033,96.5977718 8.34161262,96.4896459 8.11613559,96.4575255 L4.90917389,96.0006773 C4.36240915,95.9227879 3.98231062,95.4164056 4.06020007,94.8696409 C4.09655869,94.6144123 4.23008327,94.3830867 4.43290602,94.2239437 L6.98143239,92.2242662 C7.41593054,91.8833413 7.49178663,91.2547367 7.1508617,90.8202386 C7.01029007,90.6410844 6.81278201,90.5152738 6.59099916,90.4636117 L3.43616759,89.7287265 C2.89828311,89.6034319 2.56381294,89.065819 2.68910755,88.5279345 C2.74758716,88.276884 2.90075252,88.0581127 3.11664438,87.9172691 L5.83069086,86.1466781 C6.2932467,85.8449157 6.42359553,85.2253133 6.12183313,84.7627575 C5.99738853,84.5720029 5.81155572,84.4294439 5.59507522,84.3586627 L2.51609698,83.3519494 C1.99115917,83.1803139 1.70475103,82.6156297 1.8763865,82.0906919 C1.95650393,81.845657 2.12815802,81.6410301 2.35552436,81.5195171 L5.2127605,79.9925033 C5.6998471,79.732186 5.88367996,79.1262955 5.62336268,78.6392089 C5.51602578,78.4383679 5.34335428,78.2801776 5.1339035,78.1907984 L2.15516188,76.9196755 C1.64719432,76.7029097 1.41112861,76.1153973 1.62789437,75.6074297 C1.72908988,75.3702888 1.91796878,75.1813978 2.15510327,75.0801872 L5.13463685,73.8085019 C5.6425906,73.5917038 5.87861886,73.0041763 5.66182073,72.4962225 C5.57241469,72.2867459 5.41417966,72.1140651 5.21329098,72.0067449 L2.35551555,70.4800438 C1.86838638,70.2198062 1.68445443,69.6139457 1.94469204,69.1268165 C2.06615713,68.8994505 2.27073088,68.7277724 2.51572556,68.6476058 L5.59529358,67.6399165 C6.12019195,67.4681604 6.40647035,66.9034104 6.23471428,66.378512 C6.16388625,66.1620567 6.02129327,65.9762627 5.83052129,65.8518619 L3.11720833,64.0825325 C2.65459142,63.7808637 2.52411714,63.1612878 2.82578588,62.6986709 C2.966607,62.482718 3.18539102,62.329496 3.43647403,62.2709849 L6.59176182,61.535693 C7.12963498,61.4103499 7.46405661,60.8727068 7.33871344,60.3348336 C7.28702522,60.1130289 7.16117304,59.9155123 6.9819736,59.7749543 L4.43297374,57.7756041 C3.99841774,57.4347529 3.92245498,56.8061612 4.26330617,56.3716052 C4.42239988,56.1687744 4.65367516,56.0352158 4.90887117,55.9987995 L8.1163725,55.5410913 C8.66311858,55.463071 9.04309591,54.9565978 8.96507563,54.4098517 C8.93290435,54.1844037 8.82474603,53.9766892 8.65848834,53.8210609 L6.29375567,51.607513 C5.89055519,51.2300904 5.86965809,50.5972704 6.24708069,50.1940699 C6.42325073,50.0058675 6.6652958,49.8929696 6.92270424,49.8789367 L10.1572315,49.7026021 C10.7086974,49.6725382 11.1313772,49.2011152 11.1013133,48.6496493 C11.088918,48.4222803 10.9992961,48.2059503 10.8472665,48.0364294 L8.68471101,45.6250679 C8.3159751,45.2139082 8.35036635,44.5816779 8.76152602,44.212942 C8.95343264,44.0408365 9.20438714,43.9494859 9.4620241,43.9579519 L12.6994569,44.0643352 C13.2514437,44.0824737 13.7136216,43.6497041 13.7317601,43.0977173 C13.7392384,42.8701394 13.6688257,42.6468239 13.5321642,42.4646942 L11.5881181,39.8738507 C11.2566475,39.4320977 11.3460492,38.8052762 11.7878022,38.4738057 C11.9939907,38.3190916 12.25196,38.249977 12.5078797,38.2808839 L15.724307,38.669326 C16.2726077,38.7355433 16.7707731,38.3447375 16.8369903,37.7964367 C16.8642962,37.5703353 16.8136062,37.3416862 16.6933045,37.1483084 L14.9818969,34.397322 C14.6901628,33.9283767 14.8338208,33.3117242 15.3027661,33.0199901 C15.5216396,32.8838274 15.784639,32.837443 16.0368873,32.8905155 L19.2067275,33.5574426 C19.7471796,33.6711525 20.2774827,33.3252095 20.3911926,32.7847574 C20.4380737,32.5619359 20.4075075,32.3297872 20.3045478,32.1266947 L18.8398409,29.2374966 C18.5901129,28.744897 18.7869991,28.1431216 19.2795986,27.8933935 C19.5095007,27.7768424 19.775528,27.7535659 20.0221774,27.8284203 L23.122236,28.7692421 C23.6507192,28.9296289 24.2091587,28.6312278 24.3695455,28.1027446 C24.4356759,27.8848415 24.4254552,27.6508938 24.3405736,27.4395881 L23.1331671,24.4338492 C22.9273027,23.9213667 23.1758657,23.3390315 23.6883482,23.1331671 C23.9275593,23.0370759 24.1946381,23.0370759 24.4338492,23.1331671 L27.4395881,24.3405736 C27.9520705,24.546438 28.5344058,24.297875 28.7402702,23.7853925 C28.8251518,23.5740868 28.8353725,23.3401391 28.7692421,23.122236 L27.8284203,20.0221774 C27.6680335,19.4936941 27.9664346,18.9352546 28.4949178,18.7748678 C28.7415672,18.7000134 29.0075945,18.7232899 29.2374966,18.8398409 L32.1266947,20.3045478 C32.6192943,20.5542759 33.2210697,20.3573897 33.4707978,19.8647901 C33.5737575,19.6616977 33.6043237,19.4295489 33.5574426,19.2067275 L32.8904896,16.0367642 C32.7767797,15.4963121 33.1227227,14.966009 33.6631748,14.8522991 C33.91541,14.7992294 34.1783957,14.8456061 34.3972631,14.9817532 L37.1476666,16.6926503 C37.6166232,16.9843662 38.2332701,16.8406842 38.524986,16.3717276 C38.645254,16.1783872 38.69594,15.9497922 38.668664,15.723737 L38.2805975,12.5075695 C38.2144381,11.9592618 38.6052965,11.4611377 39.1536042,11.3949783 C39.409491,11.3641027 39.6674177,11.4332205 39.873577,11.5879127 L42.4646942,13.5321642 C42.9064472,13.8636347 43.5332687,13.7742331 43.8647393,13.33248 C44.0014008,13.1503503 44.0718135,12.9270348 44.0643352,12.6994569 L43.9579433,9.46176247 C43.9398048,8.90977566 44.3725744,8.44759778 44.9245612,8.42945928 C45.1821703,8.42099415 45.4330995,8.51232406 45.6249992,8.6843955 L48.0371642,10.8473203 C48.4483536,11.2160231 49.0805811,11.1815808 49.4492839,10.7703914 C49.6013089,10.600848 49.6909148,10.3844953 49.7032834,10.157111 L49.8792123,6.922843 C49.9092097,6.37137351 50.3805817,5.9486368 50.9320512,5.97863413 C51.1894744,5.99263675 51.4315442,6.10551614 51.6077388,6.29371361 L53.8211173,8.65787393 C54.1985732,9.06104322 54.831395,9.08188805 55.2345643,8.70443214 C55.4007842,8.54881347 55.5089186,8.34112827 55.5410889,8.11571468 L55.9988019,4.90857112 C56.0768315,4.36182637 56.5833112,3.98185768 57.130056,4.0598873 C57.38522,4.09630348 57.6164688,4.22983788 57.775558,4.43263189 L59.7750003,6.98135758 C60.1158839,7.41588814 60.7444813,7.49180401 61.1790119,7.1509204 C61.3581733,7.0103706 61.4840005,6.81288302 61.5356868,6.59111381 L62.2709425,3.43637275 C62.3963005,2.89850303 62.9339527,2.56409615 63.4718224,2.68945408 C63.7228946,2.74796989 63.9416679,2.90118885 64.0824838,3.11713378 L65.8518619,5.83052129 C66.1535306,6.29313821 66.7731065,6.42361249 67.2357235,6.12194374 C67.4264954,5.99754288 67.5690884,5.81174892 67.6399165,5.59529358 L68.6476633,2.51554996 C68.8194193,1.99065159 69.3841693,1.7043732 69.9090677,1.87612926 C70.1540437,1.95628975 70.3586056,2.12794799 70.4800744,2.35528972 L72.0067717,5.21266649 C72.2670371,5.69978084 72.872908,5.88367829 73.3600224,5.62341293 C73.5608734,5.51609819 73.7190814,5.34344517 73.8084833,5.13400576 L75.0801454,2.15491802 C75.2969676,1.64697455 75.8845063,1.41097416 76.3924498,1.6277964 C76.6295644,1.72901183 76.818426,1.91789442 76.919615,2.15502027 Z" id="路径"></path>
                <circle id="椭圆形" stroke-linejoin="round" cx="76" cy="75.5" r="8"></circle>
                <circle id="椭圆形" stroke-linejoin="round" cx="60" cy="43.5" r="4"></circle>
                <circle id="椭圆形" stroke-linejoin="round" cx="76" cy="43.5" r="4"></circle>
                <circle id="椭圆形" stroke-linejoin="round" cx="92" cy="43.5" r="4"></circle>
                <circle id="椭圆形" stroke-linejoin="round" cx="60" cy="107.5" r="4"></circle>
                <circle id="椭圆形" stroke-linejoin="round" cx="76" cy="107.5" r="4"></circle>
                <circle id="椭圆形" stroke-linejoin="round" cx="92" cy="107.5" r="4"></circle>
                <circle id="椭圆形" stroke-linejoin="round" cx="44" cy="59.5" r="4"></circle>
                <circle id="椭圆形" stroke-linejoin="round" cx="60" cy="59.5" r="4"></circle>
                <circle id="椭圆形" stroke-linejoin="round" cx="44" cy="75.5" r="4"></circle>
                <circle id="椭圆形" stroke-linejoin="round" cx="60" cy="75.5" r="4"></circle>
                <circle id="椭圆形" stroke-linejoin="round" cx="92" cy="75.5" r="4"></circle>
                <circle id="椭圆形" stroke-linejoin="round" cx="108" cy="75.5" r="4"></circle>
                <circle id="椭圆形" stroke-linejoin="round" cx="76" cy="59.5" r="4"></circle>
                <circle id="椭圆形" stroke-linejoin="round" cx="92" cy="59.5" r="4"></circle>
                <circle id="椭圆形" stroke-linejoin="round" cx="108" cy="59.5" r="4"></circle>
                <circle id="椭圆形" stroke-linejoin="round" cx="44" cy="91.5" r="4"></circle>
                <circle id="椭圆形" stroke-linejoin="round" cx="60" cy="91.5" r="4"></circle>
                <circle id="椭圆形" stroke-linejoin="round" cx="76" cy="91.5" r="4"></circle>
                <circle id="椭圆形" stroke-linejoin="round" cx="92" cy="91.5" r="4"></circle>
                <circle id="椭圆形" stroke-linejoin="round" cx="108" cy="91.5" r="4"></circle>
            </g>
        </g>
    </g>
</svg>