<?xml version="1.0" encoding="UTF-8"?>
<svg width="129px" height="99px" viewBox="0 0 129 99" version="1.1" xmlns="http://www.w3.org/2000/svg" xmlns:xlink="http://www.w3.org/1999/xlink">
    <title>31</title>
    <g id="页面-1" stroke="none" stroke-width="1" fill="none" fill-rule="evenodd" opacity="0.539457775">
        <g id="形状描摹" transform="translate(-1717.000000, -606.000000)" stroke="#3D4242">
            <g id="31" transform="translate(1717.963434, 606.963434)">
                <path d="M42.1057857,2.0006679 L67.2403107,45.53598 C68.4907176,47.7018 70.8015923,49.0360162 73.3024509,49.0360426 L123.036566,49.0365663 L123.036566,49.0365663 C125.245705,49.0365663 127.036566,50.8274273 127.036566,53.0365663 L127.036566,93.0365663 C127.036566,95.2457053 125.245705,97.0365663 123.036566,97.0365663 L47.498,97.0365663 L45.3894523,97.0365663 C42.7241735,97.0365663 40.2901586,95.5229964 39.1113391,93.132579 L38.036,90.952 L38.036,90.952 L0.536566286,26.0006679 C-0.568003214,24.0874974 0.0874974071,21.6411358 2.0006679,20.5365663 L36.6416841,0.536566286 C38.5548545,-0.568003214 41.0012162,0.0874974071 42.1057857,2.0006679 Z" id="路径"></path>
                <circle id="椭圆形" cx="103.036566" cy="57.0365663" r="4"></circle>
                <circle id="椭圆形" cx="119.292914" cy="57.0365663" r="4"></circle>
                <circle id="椭圆形" cx="119.292914" cy="73.0365663" r="4"></circle>
                <circle id="椭圆形" cx="119.292914" cy="89.0365663" r="4"></circle>
                <circle id="椭圆形" cx="103.256293" cy="89.0365663" r="4"></circle>
                <circle id="椭圆形" cx="87.2196718" cy="89.0365663" r="4"></circle>
                <circle id="椭圆形" cx="71.1830507" cy="89.0365663" r="4"></circle>
                <circle id="椭圆形" cx="55.3661561" cy="73.0365663" r="4"></circle>
                <circle id="椭圆形" cx="71.1830507" cy="73.0365663" r="4"></circle>
                <circle id="椭圆形" cx="87.2196718" cy="73.0365663" r="4"></circle>
                <circle id="椭圆形" cx="103.036566" cy="73.0365663" r="8"></circle>
                <circle id="椭圆形" cx="87.2196718" cy="57.0365663" r="4"></circle>
                <circle id="椭圆形" transform="translate(17.464770, 39.321176) rotate(-120.000000) translate(-17.464770, -39.321176) " cx="17.4647695" cy="39.321176" r="4"></circle>
                <circle id="椭圆形" transform="translate(9.336596, 25.242766) rotate(-120.000000) translate(-9.336596, -25.242766) " cx="9.33659569" cy="25.2427659" r="4"></circle>
                <circle id="椭圆形" transform="translate(23.193002, 17.242766) rotate(-120.000000) translate(-23.193002, -17.242766) " cx="23.1930021" cy="17.2427659" r="4"></circle>
                <circle id="椭圆形" transform="translate(37.049409, 9.242766) rotate(-120.000000) translate(-37.049409, -9.242766) " cx="37.0494086" cy="9.24276593" r="4"></circle>
                <circle id="椭圆形" transform="translate(45.067719, 23.130887) rotate(-120.000000) translate(-45.067719, -23.130887) " cx="45.0677192" cy="23.1308872" r="4"></circle>
                <circle id="椭圆形" transform="translate(53.086030, 37.019008) rotate(-120.000000) translate(-53.086030, -37.019008) " cx="53.0860297" cy="37.0190084" r="4"></circle>
                <circle id="椭圆形" transform="translate(47.247934, 58.907130) rotate(-120.000000) translate(-47.247934, -58.907130) " cx="47.2479338" cy="58.9071297" r="4"></circle>
                <circle id="椭圆形" transform="translate(33.049409, 67.140861) rotate(-120.000000) translate(-33.049409, -67.140861) " cx="33.0494086" cy="67.1408606" r="4"></circle>
                <circle id="椭圆形" transform="translate(39.229623, 45.019008) rotate(-120.000000) translate(-39.229623, -45.019008) " cx="39.2296232" cy="45.0190084" r="4"></circle>
                <circle id="椭圆形" transform="translate(31.321176, 31.321176) rotate(-120.000000) translate(-31.321176, -31.321176) " cx="31.321176" cy="31.321176" r="8"></circle>
                <circle id="椭圆形" transform="translate(25.373217, 53.019008) rotate(-120.000000) translate(-25.373217, -53.019008) " cx="25.3732168" cy="53.0190084" r="4"></circle>
                <path d="M58.7354361,47.3324501 C60.6264817,46.3352228 62.9533617,47.0042634 64.035443,48.8194755 L64.1394395,49.004798 C65.5302968,51.6422855 68.0627824,53.1038347 72.2008927,53.2739786 C74.4081667,53.3647335 76.1239444,55.2276541 76.0331895,57.4349281 C75.9424345,59.6422022 74.0806208,61.3417431 71.8722399,61.2672249 C65.0365663,61.0365663 59.8438999,58.0097163 57.0630882,52.7364534 C56.03262,50.782373 56.7813557,48.3629183 58.7354361,47.3324501 Z" id="路径"></path>
                <path d="M39.0449303,77.4457797 C40.8891474,76.2295732 43.370111,76.7386763 44.5863176,78.5828934 C47.163885,82.4914349 51.4158563,85.0085307 56.1418005,85.3181333 C58.3462142,85.4625472 60.016174,87.3666483 59.87176,89.571062 C59.7273461,91.7754756 57.8232451,93.4454354 55.6188314,93.3010215 C48.3703286,92.8261629 41.8513724,88.9670499 37.9078167,82.987167 C36.6916101,81.1429499 37.2007132,78.6619863 39.0449303,77.4457797 Z" id="路径"></path>
            </g>
        </g>
    </g>
</svg>