<?xml version="1.0" encoding="UTF-8"?>
<svg width="178px" height="50px" viewBox="0 0 178 50" version="1.1" xmlns="http://www.w3.org/2000/svg" xmlns:xlink="http://www.w3.org/1999/xlink">
    <title>24</title>
    <g id="页面-1" stroke="none" stroke-width="1" fill="none" fill-rule="evenodd" opacity="0.539457775">
        <g id="形状描摹" transform="translate(-1063.000000, -754.000000)" stroke="#3D4242">
            <g id="24" transform="translate(1064.000000, 755.000000)">
                <rect id="矩形" x="0" y="0" width="176" height="48" rx="4"></rect>
                <circle id="椭圆形" cx="8" cy="8" r="4"></circle>
                <circle id="椭圆形" cx="8" cy="24" r="4"></circle>
                <circle id="椭圆形" cx="168" cy="24" r="4"></circle>
                <circle id="椭圆形" cx="24" cy="8" r="4"></circle>
                <circle id="椭圆形" cx="40" cy="8" r="4"></circle>
                <circle id="椭圆形" cx="72" cy="8" r="4"></circle>
                <circle id="椭圆形" cx="72" cy="40" r="4"></circle>
                <circle id="椭圆形" cx="104" cy="8" r="4"></circle>
                <circle id="椭圆形" cx="136" cy="8" r="4"></circle>
                <circle id="椭圆形" cx="168" cy="8" r="4"></circle>
                <circle id="椭圆形" cx="8" cy="40" r="4"></circle>
                <circle id="椭圆形" cx="24" cy="40" r="4"></circle>
                <circle id="椭圆形" cx="40" cy="40" r="4"></circle>
                <circle id="椭圆形" cx="104" cy="40" r="4"></circle>
                <circle id="椭圆形" cx="136" cy="40" r="4"></circle>
                <circle id="椭圆形" cx="152" cy="8" r="4"></circle>
                <circle id="椭圆形" cx="152" cy="40" r="4"></circle>
                <circle id="椭圆形" cx="168" cy="40" r="4"></circle>
                <path d="M152,16 C156.418278,16 160,19.581722 160,24 C160,28.418278 156.418278,32 152,32 C149.039349,32 146.454331,30.3917256 145.070929,28.0011597 L126.928493,28.0021593 C125.544948,30.392174 122.960238,32 120,32 C117.040175,32 114.455773,30.3926222 113.072086,28.0031589 L94.9284929,28.0021593 C93.5449481,30.392174 90.960238,32 88,32 C85.039762,32 82.4550519,30.392174 81.0715071,28.0021593 L62.9284929,28.0021593 C61.5449481,30.392174 58.960238,32 56,32 C53.039762,32 50.4550519,30.392174 49.0715071,28.0021593 L30.9290715,28.0011597 C29.5456688,30.3917256 26.9606507,32 24,32 C19.581722,32 16,28.418278 16,24 C16,19.581722 19.581722,16 24,16 C26.9610634,16 29.5463894,17.6087228 30.9296499,19.99984 L49.0709285,19.9988403 C50.4543312,17.6082744 53.0393493,16 56,16 C58.9606507,16 61.5456688,17.6082744 62.9290715,19.9988403 L81.0709285,19.9988403 C82.4543312,17.6082744 85.0393493,16 88,16 C90.9606507,16 93.5456688,17.6082744 94.9290715,19.9988403 L113.071507,19.9978407 C114.455052,17.607826 117.039762,16 120,16 C122.960651,16 125.545669,17.6082744 126.929071,19.9988403 L145.07035,19.99984 C146.453611,17.6087228 149.038937,16 152,16 Z" id="路径"></path>
            </g>
        </g>
    </g>
</svg>