<?xml version="1.0" encoding="UTF-8"?>
<svg width="146px" height="146px" viewBox="0 0 146 146" version="1.1" xmlns="http://www.w3.org/2000/svg" xmlns:xlink="http://www.w3.org/1999/xlink">
    <title>43</title>
    <g id="页面-1" stroke="none" stroke-width="1" fill="none" fill-rule="evenodd" opacity="0.539457775">
        <g id="形状描摹" transform="translate(-305.000000, -1668.000000)" stroke="#3D4242">
            <g id="43" transform="translate(306.000000, 1669.000000)">
                <circle id="椭圆形" cx="72" cy="72" r="72"></circle>
                <circle id="椭圆形" cx="56" cy="12" r="4"></circle>
                <circle id="椭圆形" cx="28.2" cy="28" r="4"></circle>
                <circle id="椭圆形" cx="12.1614258" cy="56.0146484" r="4"></circle>
                <circle id="椭圆形" cx="12.1614258" cy="87.8691406" r="4"></circle>
                <circle id="椭圆形" cx="28.2" cy="115.542969" r="4"></circle>
                <circle id="椭圆形" cx="56" cy="131.70752" r="4"></circle>
                <circle id="椭圆形" cx="88" cy="131.70752" r="4"></circle>
                <circle id="椭圆形" cx="115.629883" cy="115.542969" r="4"></circle>
                <circle id="椭圆形" cx="131.660156" cy="87.8691406" r="4"></circle>
                <circle id="椭圆形" cx="131.660156" cy="56.0146484" r="4"></circle>
                <circle id="椭圆形" cx="115.629883" cy="28" r="4"></circle>
                <circle id="椭圆形" cx="72" cy="39.8" r="4"></circle>
                <circle id="椭圆形" cx="58.1" cy="47.2" r="4"></circle>
                <circle id="椭圆形" cx="85.9" cy="47.8" r="4"></circle>
                <circle id="椭圆形" cx="44.3" cy="56" r="4"></circle>
                <circle id="椭圆形" cx="44.3" cy="72" r="4"></circle>
                <circle id="椭圆形" cx="55" cy="72" r="3"></circle>
                <circle id="椭圆形" cx="89" cy="72.0146484" r="3"></circle>
                <circle id="椭圆形" cx="41" cy="41" r="3"></circle>
                <circle id="椭圆形" cx="103" cy="41" r="3"></circle>
                <circle id="椭圆形" cx="41" cy="103" r="3"></circle>
                <circle id="椭圆形" cx="103" cy="103" r="3"></circle>
                <circle id="椭圆形" cx="44.3" cy="88" r="4"></circle>
                <circle id="椭圆形" cx="99.7" cy="56.0146484" r="4"></circle>
                <circle id="椭圆形" cx="99.7" cy="72.0146484" r="4"></circle>
                <circle id="椭圆形" cx="99.7" cy="88.0146484" r="4"></circle>
                <circle id="椭圆形" cx="58" cy="95.4" r="4"></circle>
                <circle id="椭圆形" cx="85.9" cy="95.4" r="4"></circle>
                <circle id="椭圆形" cx="72" cy="56" r="4"></circle>
                <circle id="椭圆形" cx="72" cy="72" r="8"></circle>
                <circle id="椭圆形" cx="72" cy="87.9" r="4"></circle>
                <circle id="椭圆形" cx="72" cy="104" r="4"></circle>
                <circle id="椭圆形" cx="88" cy="12" r="4"></circle>
                <path d="M47.7030998,113.588932 C48.6572512,111.596474 51.0459503,110.75476 53.0384087,111.708911 C58.9102094,114.520808 65.3544138,116 72.016876,116 C78.6713516,116 85.1081234,114.524358 90.9743778,111.718944 C92.9673424,110.765851 95.3555944,111.608833 96.3086879,113.601797 C97.2617815,115.594762 96.4187995,117.983014 94.4258349,118.936107 C87.4876235,122.254162 79.8722537,124 72.016876,124 C64.1520593,124 56.5278826,122.249959 49.583121,118.924241 C47.5906626,117.97009 46.7489485,115.581391 47.7030998,113.588932 Z" id="路径"></path>
                <path d="M113.605808,47.6862239 C115.598267,46.7320725 117.986966,47.5737867 118.941117,49.566245 C122.266835,56.5110066 124.016876,64.1351833 124.016876,72 C124.016876,79.8648167 122.266835,87.4889934 118.941117,94.433755 C117.986966,96.4262133 115.598267,97.2679275 113.605808,96.3137761 C111.61335,95.3596248 110.771636,92.9709256 111.725787,90.9784673 C114.537684,85.1066665 116.016876,78.6624622 116.016876,72 C116.016876,65.3375378 114.537684,58.8933335 111.725787,53.0215327 C110.771636,51.0290744 111.61335,48.6403752 113.605808,47.6862239 Z" id="路径"></path>
                <path d="M25.0807685,49.591041 C26.033862,47.5980765 28.422114,46.7550945 30.4150786,47.708188 C32.4080432,48.6612816 33.2510252,51.0495336 32.2979316,53.0424982 C29.4925183,58.9087525 28.016876,65.3455244 28.016876,72 C28.016876,78.6544756 29.4925183,85.0912475 32.2979316,90.9575018 C33.2510252,92.9504664 32.4080432,95.3387184 30.4150786,96.291812 C28.422114,97.2449055 26.033862,96.4019235 25.0807685,94.408959 C21.7627142,87.4707475 20.016876,79.8553777 20.016876,72 C20.016876,64.1446223 21.7627142,56.5292525 25.0807685,49.591041 Z" id="路径"></path>
                <path d="M72.016876,20 C79.8722537,20 87.4876235,21.7458382 94.4258349,25.0638925 C96.4187995,26.0169861 97.2617815,28.4052381 96.3086879,30.3982026 C95.3555944,32.3911672 92.9673424,33.2341492 90.9743778,32.2810557 C85.1081234,29.4756424 78.6713516,28 72.016876,28 C65.3544138,28 58.9102094,29.4791923 53.0384087,32.2910888 C51.0459503,33.2452401 48.6572512,32.403526 47.7030998,30.4110676 C46.7489485,28.4186093 47.5906626,26.0299101 49.583121,25.0757588 C56.5278826,21.7500413 64.1520593,20 72.016876,20 Z" id="路径"></path>
            </g>
        </g>
    </g>
</svg>