<?xml version="1.0" encoding="UTF-8"?>
<svg width="102px" height="102px" viewBox="0 0 102 102" version="1.1" xmlns="http://www.w3.org/2000/svg" xmlns:xlink="http://www.w3.org/1999/xlink">
    <title>35</title>
    <g id="页面-1" stroke="none" stroke-width="1" fill="none" fill-rule="evenodd" opacity="0.539457775" stroke-linejoin="round">
        <g id="形状描摹" transform="translate(-680.000000, -1445.000000)" stroke="#3D4242">
            <g id="35" transform="translate(680.898501, 1446.122679)">
                <path d="M66.6032725,41.9909638 L64.358525,41.711272 C60.8199452,41.2703708 57.6682442,39.2766903 55.7525893,36.2830758 L55.5710904,35.9902682 L53.7053198,35.9913774 C53.0135432,37.1863684 51.7211972,37.9902682 50.2410904,37.9902682 C48.0319514,37.9902682 46.2410904,36.1994072 46.2410904,33.9902682 C46.2410904,31.7811292 48.0319514,29.9902682 50.2410904,29.9902682 C51.7216054,29.9902682 53.014256,30.7946114 53.705892,31.9901477 L55.5710904,31.9902682 L55.5720904,19.9902682 L53.7053198,19.9913774 C53.0135432,21.1863684 51.7211972,21.9902682 50.2410904,21.9902682 C48.0319514,21.9902682 46.2410904,20.1994072 46.2410904,17.9902682 C46.2410904,15.7811292 48.0319514,13.9902682 50.2410904,13.9902682 C51.7216054,13.9902682 53.014256,14.7946114 53.705892,15.9901477 L55.5720904,15.9902682 C55.5722421,14.2377793 55.5723558,12.9234126 55.5724316,12.0471682 C55.572458,11.7429643 55.5724891,11.3830591 55.5725251,10.9674525 C55.434144,9.87138124 56.1910569,8.85615991 57.2840761,8.69684015 C57.4972641,8.66576561 57.7140726,8.66934081 57.9260346,8.70790405 C59.3724489,8.96970552 60.5154461,9.21403468 61.3550262,9.44089153 C75.0442762,13.1397649 85.9625212,23.5858513 90.3214742,36.9908635 C90.5284181,37.6272745 90.7621008,38.4648295 91.0225224,39.5035285 C91.291205,40.5749217 90.6405302,41.6612981 89.5691495,41.9300307 C89.2700125,42.0050627 88.957576,42.0098991 88.646229,41.9901406 C87.7333607,41.9901747 86.9760649,41.990203 86.3743416,41.9902255 C81.9807707,41.9903895 75.3904143,41.9906356 66.6032725,41.9909638 Z" id="路径"></path>
                <path d="M22.8901203,47.8349265 L20.6453728,47.5552347 C17.106793,47.1143335 13.9550919,45.1206531 12.0394371,42.1270386 L11.8579382,41.8342309 L9.99216757,41.8353402 C9.30039099,43.0303312 8.00804504,43.8342309 6.52793823,43.8342309 C4.31879923,43.8342309 2.52793823,42.0433699 2.52793823,39.8342309 C2.52793823,37.6250919 4.31879923,35.8342309 6.52793823,35.8342309 C8.00845323,35.8342309 9.30110379,36.6385742 9.99273978,37.8341105 L11.8579382,37.8342309 L11.8589382,25.8342309 L9.99216757,25.8353402 C9.30039099,27.0303312 8.00804504,27.8342309 6.52793823,27.8342309 C4.31879923,27.8342309 2.52793823,26.0433699 2.52793823,23.8342309 C2.52793823,21.6250919 4.31879923,19.8342309 6.52793823,19.8342309 C8.00845323,19.8342309 9.30110379,20.6385742 9.99273978,21.8341105 L11.8589382,21.8342309 C11.8590899,20.081742 11.8592036,18.7673754 11.8592794,17.8911309 C11.8593057,17.5869271 11.8593369,17.2270219 11.8593728,16.8114153 C11.7209917,15.715344 12.4779047,14.7001227 13.5709239,14.5408029 C13.7841119,14.5097284 14.0009204,14.5133036 14.2128823,14.5518668 C15.6592967,14.8136683 16.8022939,15.0579974 17.6418739,15.2848543 C31.3311239,18.9837277 42.2493689,29.429814 46.608322,42.8348263 C46.8152659,43.4712373 47.0489486,44.3087922 47.3093702,45.3474912 C47.5780528,46.4188845 46.9273779,47.5052609 45.8559972,47.7739935 C45.5568603,47.8490254 45.2444238,47.8538619 44.9330768,47.8341034 C44.0202085,47.8341375 43.2629127,47.8341657 42.6611894,47.8341882 C38.2676185,47.8343523 31.6772621,47.8345984 22.8901203,47.8349265 Z" id="路径" transform="translate(25.212827, 30.994000) rotate(-90.000000) translate(-25.212827, -30.994000) "></path>
                <path d="M72.4472353,85.3439911 L70.2024878,85.0642993 C66.663908,84.6233981 63.5122069,82.6297177 61.596552,79.6361031 L61.4150532,79.3432955 L59.5492825,79.3444047 C58.857506,80.5393958 57.56516,81.3432955 56.0850532,81.3432955 C53.8759142,81.3432955 52.0850532,79.5524345 52.0850532,77.3432955 C52.0850532,75.1341565 53.8759142,73.3432955 56.0850532,73.3432955 C57.5655682,73.3432955 58.8582188,74.1476388 59.5498547,75.3431751 L61.4150532,75.3432955 L61.4160532,63.3432955 L59.5492825,63.3444047 C58.857506,64.5393958 57.56516,65.3432955 56.0850532,65.3432955 C53.8759142,65.3432955 52.0850532,63.5524345 52.0850532,61.3432955 C52.0850532,59.1341565 53.8759142,57.3432955 56.0850532,57.3432955 C57.5655682,57.3432955 58.8582188,58.1476388 59.5498547,59.3431751 L61.4160532,59.3432955 C61.4162048,57.5908066 61.4163186,56.27644 61.4163944,55.4001955 C61.4164207,55.0959917 61.4164519,54.7360865 61.4164878,54.3204798 C61.2781067,53.2244086 62.0350197,52.2091873 63.1280389,52.0498675 C63.3412269,52.018793 63.5580354,52.0223682 63.7699973,52.0609314 C65.2164117,52.3227329 66.3594089,52.567062 67.1989889,52.7939189 C80.8882389,56.4927923 91.8064839,66.9388786 96.165437,80.3438909 C96.3723809,80.9803018 96.6060636,81.8178568 96.8664852,82.8565558 C97.1351678,83.927949 96.4844929,85.0143255 95.4131122,85.283058 C95.1139753,85.35809 94.8015387,85.3629265 94.4901917,85.343168 C93.5773234,85.3432021 92.8200276,85.3432303 92.2183044,85.3432528 C87.8247334,85.3434169 81.2343771,85.343663 72.4472353,85.3439911 Z" id="路径" transform="translate(74.769942, 68.503065) rotate(90.000000) translate(-74.769942, -68.503065) "></path>
                <path d="M29.2340831,91.6721206 L26.9893356,91.3924288 C23.4507558,90.9515276 20.2990547,88.9578471 18.3833998,85.9642326 L18.201901,85.671425 L16.3361303,85.6725342 C15.6443537,86.8675252 14.3520078,87.671425 12.871901,87.671425 C10.662762,87.671425 8.87190099,85.880564 8.87190099,83.671425 C8.87190099,81.462286 10.662762,79.671425 12.871901,79.671425 C14.352416,79.671425 15.6450666,80.4757682 16.3367025,81.6713045 L18.201901,81.671425 L18.202901,69.671425 L16.3361303,69.6725342 C15.6443537,70.8675252 14.3520078,71.671425 12.871901,71.671425 C10.662762,71.671425 8.87190099,69.880564 8.87190099,67.671425 C8.87190099,65.462286 10.662762,63.671425 12.871901,63.671425 C14.352416,63.671425 15.6450666,64.4757682 16.3367025,65.6713045 L18.202901,65.671425 C18.2030526,63.9189361 18.2031664,62.6045694 18.2032422,61.728325 C18.2032685,61.4241211 18.2032996,61.0642159 18.2033356,60.6486093 C18.0649545,59.552538 18.8218675,58.5373167 19.9148867,58.377997 C20.1280747,58.3469224 20.3448832,58.3504976 20.5568451,58.3890608 C22.0032595,58.6508623 23.1462567,58.8951915 23.9858367,59.1220483 C37.6750867,62.8209217 48.5933317,73.2670081 52.9522847,86.6720203 C53.1592286,87.3084313 53.3929114,88.1459863 53.653333,89.1846853 C53.9220156,90.2560785 53.2713407,91.3424549 52.19996,91.6111875 C51.9008231,91.6862195 51.5883865,91.6910559 51.2770395,91.6712974 C50.3641712,91.6713315 49.6068754,91.6713598 49.0051521,91.6713823 C44.6115812,91.6715463 38.0212249,91.6717924 29.2340831,91.6721206 Z" id="路径" transform="translate(31.556790, 74.831194) rotate(180.000000) translate(-31.556790, -74.831194) "></path>
                <circle id="椭圆形" cx="49.9913847" cy="49.990616" r="8"></circle>
                <path d="M52.3026848,0.0188049509 L53.0782338,0.0602825466 C53.2886908,0.0715381212 53.4694926,0.21355291 53.5302816,0.415353621 L54.5789444,3.896589 C54.6360175,4.08605418 54.7994553,4.22403748 54.9958085,4.24852892 L56.4555877,4.43060949 C56.6526427,4.45518847 56.8455662,4.3608229 56.9471308,4.19017877 L58.8021389,1.07347878 C58.9102608,0.891817352 59.1209481,0.797786368 59.3283702,0.83861865 L60.0511124,0.980894754 C60.2576449,1.02155191 60.4165955,1.18720599 60.4486914,1.39524093 L61.0036724,4.99244796 C61.0338194,5.18785086 61.1762797,5.34713767 61.3671193,5.39882292 L62.6885806,5.75671529 C62.8803757,5.80865931 63.0847272,5.74210301 63.2091436,5.58717043 L65.48022,2.75905676 C65.6126099,2.59419493 65.8343893,2.53043088 66.0341242,2.59980313 L66.7429025,2.84597727 C66.9417235,2.91503212 67.0760131,3.10120069 67.0788106,3.31165383 L67.1271951,6.95161517 C67.1298229,7.14930419 67.2486909,7.32688025 67.4304568,7.40465567 L68.6741719,7.93682628 C68.85695,8.0150348 69.0686972,7.97752716 69.2134904,7.8412946 L71.8541828,5.35672957 C72.0082252,5.2117947 72.2367991,5.17946391 72.4249952,5.27599059 L73.1044771,5.62450011 C73.2917524,5.72055451 73.3988244,5.92360178 73.3723038,6.13239629 L72.9136629,9.74323778 C72.8887755,9.93917452 72.9815634,10.1314 73.1504578,10.2337975 L74.4170375,11.0017012 C74.5871631,11.1048452 74.8022513,11.0973142 74.9647462,10.9825241 L77.9221887,8.89332037 C78.0951368,8.77114588 78.3262906,8.77116168 78.499222,8.89335979 L79.1000163,9.31789741 C79.2716618,9.43918684 79.3491333,9.65487057 79.2938921,9.85765549 L78.3367726,13.3711442 C78.2848517,13.5617406 78.3500144,13.7650389 78.5030604,13.8899377 L79.56297,14.7549165 C79.7170646,14.8806711 79.9310404,14.9031353 80.107892,14.8121251 L83.3298494,13.1540612 C83.5178797,13.0572982 83.7464513,13.0892884 83.9006919,13.2339546 L84.4506938,13.7498154 C84.6041502,13.8937461 84.651089,14.1183423 84.5681198,14.311684 L83.1334713,17.6548203 C83.0554698,17.8365859 83.0919512,18.0472482 83.2265319,18.1921999 L84.1458955,19.1824106 C84.2810233,19.3279515 84.4894782,19.3797215 84.6769963,19.3143099 L88.1019344,18.1195946 C88.3013212,18.0500428 88.5229068,18.1132527 88.6555907,18.2775317 L89.1348457,18.8709082 C89.2672981,19.0349005 89.28267,19.2643483 89.1732766,19.4445432 L87.2879578,22.550075 C87.1852544,22.7192498 87.1920014,22.9330815 87.3051658,23.0954451 L88.1562012,24.3164765 C88.2697736,24.4794255 88.4690276,24.559699 88.663842,24.5209898 L92.2183366,23.8147199 C92.4257007,23.7735171 92.6365677,23.8671908 92.7450043,24.0486819 L93.1175591,24.6722301 C93.2254816,24.8528609 93.2087687,25.0817294 93.0757502,25.2447657 L90.7760453,28.0634385 C90.6510729,28.2166131 90.6280829,28.4290386 90.7173906,28.6054038 L91.3426223,29.8401146 C91.4323954,30.017399 91.6186327,30.1246937 91.8170315,30.1134305 L95.4357232,29.9079958 C95.6467977,29.896013 95.8425966,30.0180799 95.9247592,30.2128756 L96.2116556,30.8930658 C96.2934622,31.0870176 96.2450347,31.3114338 96.0905254,31.4543902 L93.4207131,33.9245765 C93.2755838,34.0588543 93.2232126,34.2660425 93.2871037,34.4531546 L93.7302687,35.751011 C93.7944851,35.9390757 93.9639793,36.0712589 94.1620224,36.0877221 L97.7736156,36.3879517 C97.9843555,36.4054704 98.1612867,36.553671 98.2154898,36.7580732 L98.4075366,37.4822901 C98.4614936,37.685764 98.38223,37.9012396 98.20928,38.0212449 L95.220869,40.094821 C95.0586244,40.207398 94.9778386,40.404922 95.0146928,40.5989289 L95.2947126,42.0730026 C95.3318421,42.2684585 95.4813171,42.423304 95.6753413,42.4673069 L99.2039615,43.2675641 C99.4105051,43.3144062 99.5651315,43.486295 99.5899341,43.6966264 L99.6743369,44.4123818 C99.698931,44.6209449 99.5905749,44.8226494 99.4030999,44.9172885 L96.1523575,46.558293 C95.9761434,46.6472475 95.8687574,46.8315489 95.8782596,47.0287138 L95.9448667,48.4107717 C95.9544438,48.609491 96.0809222,48.7836245 96.2669363,48.8541923 L99.6531815,50.1388256 C99.850805,50.2137977 99.9799371,50.4049385 99.9757318,50.6162633 L99.9609938,51.3568766 C99.9568064,51.5673 99.8212983,51.7525732 99.6220343,51.8203184 L96.1806938,52.9902949 C95.9933204,53.0539975 95.8611534,53.2222226 95.8436049,53.4193492 L95.7221957,54.7831681 C95.7045939,54.9808938 95.8056282,55.1703063 95.9796466,55.2658201 L99.1593215,57.011054 C99.344393,57.1126345 99.4457204,57.3195103 99.4125206,57.5279997 L99.2948793,58.2667689 C99.2617258,58.4749679 99.1015438,58.6400024 98.8944266,58.6793528 L95.3255181,59.3574129 C95.1312035,59.3943309 94.9769155,59.5423251 94.9319414,59.7349347 L94.5894095,61.201889 C94.5442435,61.3953205 94.617861,61.5971439 94.776962,61.7160666 L97.6785906,63.8849369 C97.8480203,64.0115799 97.9194237,64.2311389 97.8568983,64.4332167 L97.6464199,65.1134682 C97.5842545,65.3143828 97.4030085,65.4549189 97.1929424,65.4650898 L93.5577025,65.6410992 C93.3604355,65.6506504 93.1872747,65.7754254 93.1157872,65.9595315 L92.6100301,67.2620389 C92.5380213,67.4474877 92.582802,67.657982 92.7240635,67.7980596 L95.2954695,70.3479142 C95.4457498,70.496935 95.485929,70.7244303 95.3957869,70.9159134 L95.0844269,71.5773159 C94.99487,71.7675559 94.7958616,71.8814393 94.5864712,71.8622733 L90.9614658,71.530467 C90.7647673,71.5124627 90.5759047,71.6119429 90.4794954,71.7843369 L89.8078473,72.9853421 C89.7107528,73.1589612 89.7258131,73.3736213 89.8461989,73.5319823 L92.0383112,76.4155885 C92.1663392,76.5840025 92.1745209,76.8147639 92.0587416,76.9918221 L91.6498616,77.6171117 C91.5347398,77.7931644 91.3217412,77.8783378 91.1169717,77.8302026 L87.5743743,76.9974437 C87.3821984,76.9522689 87.181433,77.0243982 87.0619454,77.1815447 L86.1531469,78.3767694 C86.0326959,78.5351831 86.017655,78.7499449 86.1148495,78.9236014 L87.8824244,82.0817111 C87.9858358,82.2664753 87.9616575,82.4963433 87.8220663,82.6555476 L87.3477632,83.1964924 C87.2092076,83.3545156 86.9866232,83.4090271 86.7907267,83.3329121 L83.3972796,82.0143991 C83.2131674,81.9428629 83.0041972,81.9864191 82.8639956,82.1255529 L81.8789532,83.1030932 C81.7377536,83.2432174 81.6930505,83.4537143 81.7651155,83.6391295 L83.077602,87.0160065 C83.1542103,87.2131111 83.0985353,87.4370966 82.9385576,87.5753941 L82.3797985,88.0584302 C82.2205806,88.196071 81.9922168,88.2192725 81.8085697,88.1164664 L78.6345888,86.339664 C78.4619785,86.2430363 78.2486285,86.2572578 78.0903704,86.3759405 L76.9949426,87.1974358 C76.8360253,87.3166128 76.7627273,87.5185595 76.8082057,87.7119233 L77.6387295,91.243125 C77.6870888,91.4487378 77.6010252,91.6625597 77.4237083,91.7773376 L76.7958382,92.18376 C76.6189335,92.298271 76.3892227,92.2895741 76.2214828,92.1620148 L73.3274209,89.9611997 C73.1700168,89.8415003 72.9568542,89.8258146 72.783624,89.921184 L71.4653854,90.6469216 C71.2912865,90.7427693 71.1904816,90.9326268 71.2086093,91.1305373 L71.5391648,94.7393943 C71.558463,94.9500829 71.4430653,95.150112 71.2510139,95.2388721 L70.6052091,95.5373427 C70.4143337,95.6255592 70.1886612,95.584926 70.0405432,95.4356723 L67.4749322,92.8503889 C67.3358337,92.7102239 67.12727,92.665056 66.9426445,92.7351132 L65.6381643,93.2301057 C65.4521796,93.3006787 65.3257208,93.4747874 65.3161321,93.6734805 L65.1414498,97.2931683 C65.1312479,97.5045674 64.9890516,97.6866437 64.7864239,97.7477638 L64.0860582,97.9590202 C63.8847851,98.0197317 63.667033,97.948056 63.5411719,97.7796643 L61.3598717,94.8612647 C61.2416725,94.7031239 61.0414837,94.6293446 60.8489286,94.6729573 L59.5115761,94.9758602 C59.3174916,95.0198193 59.1679518,95.1746867 59.1308112,95.3701905 L58.4545759,98.9298108 C58.4150681,99.137775 58.2488815,99.2983242 58.0396782,99.3306342 L57.2981364,99.4451604 C57.0903248,99.4772555 56.884639,99.3759013 56.7834803,99.1915574 L55.0311272,95.9982008 C54.9361923,95.8251987 54.7483828,95.7242175 54.5517116,95.7404294 L53.0628255,95.8631603 C52.8643404,95.8795216 52.6944923,96.0121167 52.6304544,96.2006987 L51.4666038,99.6280631 C51.3985013,99.8286145 51.2114286,99.9644999 50.9996475,99.9672495 L50.2745468,99.976664 C50.0645087,99.979391 49.8751612,99.8505476 49.8006077,99.6541673 L48.5076483,96.2484021 C48.4375348,96.0637171 48.2652561,95.9376273 48.068016,95.9266376 L46.6908005,95.8499027 C46.4922581,95.8388404 46.3060318,95.9464798 46.2165145,96.1240414 L44.5842276,99.3617577 C44.4890613,99.5505243 44.2854628,99.6590427 44.0756986,99.6328044 L43.3391903,99.5406788 C43.1303043,99.5145504 42.9601581,99.3603851 42.9136198,99.1550798 L42.1091397,95.606083 C42.0654164,95.4131959 41.9121032,95.2642097 41.7180437,95.226025 L40.3790106,94.962546 C40.1840712,94.9241882 39.9849165,95.0048866 39.8716649,95.1681249 L37.8037668,98.1487454 C37.683272,98.3224239 37.4665764,98.4015632 37.2625125,98.3464166 L36.5365981,98.1502442 C36.3333215,98.0953104 36.1862466,97.9189095 36.1687658,97.7090678 L35.8666032,94.0818824 C35.850207,93.8850611 35.7194881,93.7163347 35.5330041,93.6512871 L34.1207176,93.1586664 C33.9328266,93.093128 33.7239582,93.1452448 33.5888814,93.29137 L31.1311305,95.9501497 C30.9873045,96.1057398 30.7610269,96.153783 30.566389,96.0700554 L29.9025206,95.7844783 C29.7095881,95.7014843 29.5890872,95.5067653 29.6008911,95.2970712 L29.8057756,91.6573403 C29.8168623,91.4603876 29.7111128,91.2753253 29.5358021,91.184885 L28.3102124,90.5526201 C28.1332377,90.4613213 27.9189582,90.4837438 27.7647174,90.6097014 L24.9601499,92.8999949 C24.7961069,93.0339573 24.5654582,93.050034 24.3844169,92.9401246 L23.7457798,92.5524109 C23.566179,92.4433761 23.4739038,92.2336909 23.5148325,92.0276086 L24.2245518,88.4540629 C24.2630135,88.2604024 24.1839087,88.0622435 24.0226553,87.948309 L22.9176649,87.1675719 C22.7551291,87.0527313 22.5399635,87.0452156 22.3698108,87.1484353 L19.2726107,89.0272912 C19.0917,89.1370372 18.8612948,89.1210228 18.6973062,88.9873046 L18.1036047,88.5031934 C17.9406427,88.3703124 17.8782308,88.1496731 17.9474399,87.9511182 L19.1457542,84.5132568 C19.2107241,84.3268635 19.1599528,84.1196921 19.0161622,83.9844596 L17.940361,82.9726875 C17.7953861,82.8363411 17.5833542,82.7989554 17.4004901,82.8774968 L14.0746639,84.3059617 C13.880115,84.3895217 13.6540272,84.3414816 13.5102634,84.1860355 L13.0087055,83.6437206 C12.8659919,83.48941 12.8350223,83.2623201 12.9312043,83.07543 L14.5970835,79.8384776 C14.6874859,79.6628177 14.6659818,79.4503978 14.542209,79.2964197 L13.6862229,78.2315407 C13.5616251,78.0765363 13.3570115,78.0101102 13.1651267,78.0623711 L9.66906041,79.0145437 C9.46504034,79.0701097 9.24812406,78.9913283 9.1273128,78.8177875 L8.69587684,78.1980461 C8.57567043,78.0253742 8.57641687,77.795926 8.69774419,77.6240398 L10.7958275,74.6516544 C10.909846,74.4901228 10.9179686,74.2765734 10.8165499,74.1068473 L10.1253859,72.9501709 C10.0234608,72.7795973 9.83020384,72.6855668 9.63308596,72.7106392 L6.03649313,73.1681062 C5.82682938,73.1947742 5.62304335,73.0867316 5.52745878,72.8982278 L5.18005097,72.2130998 C5.08482792,72.025309 5.1174527,71.7979871 5.26164709,71.644557 L7.75269489,68.9939568 C7.8879696,68.8500177 7.92582395,68.6399303 7.84929664,68.4578279 L7.27619754,67.0940963 C7.19915199,66.9107607 7.02078313,66.7905125 6.82193426,66.7878526 L3.20192237,66.739429 C2.99018941,66.7365967 2.80320055,66.6006966 2.73514062,66.4001805 L2.49868995,65.7035565 C2.43115225,65.504579 2.49522826,65.2846055 2.659055,65.1530221 L5.498774,62.8721975 C5.65262145,62.7486292 5.7194038,62.5461345 5.66924995,62.355287 L5.32184593,61.0333314 C5.27124021,60.8407644 5.11120549,60.696575 4.91442326,60.6662482 L1.33759719,60.1150106 C1.12826006,60.0827489 0.961963437,59.9220876 0.922506912,59.7139866 L0.781342693,58.9694604 C0.742211304,58.7630742 0.836254018,58.5542364 1.01673011,58.4467426 L4.14606872,56.5828705 C4.31562842,56.4818787 4.40991786,56.2905961 4.38675153,56.0946033 L4.22932964,54.7627762 C4.20595989,54.5650625 4.0675203,54.4000533 3.87687643,54.3426795 L0.410567648,53.2995019 C0.207912392,53.2385133 0.0656041823,53.0565428 0.0552559028,52.8451624 L0.0171289735,52.066358 C0.00684596507,51.8563108 0.12909456,51.6622798 0.323001546,51.5808818 L3.94221663,50.0616141 C3.96329937,50.052764 3.9769957,50.0321083 3.97694244,50.0092434 L3.97686852,49.9775142 C3.97685916,49.9734961 3.97689823,49.969478 3.97698574,49.9654608 L4.01416252,48.2587164 C4.01849727,48.0597131 3.9043802,47.8770937 3.72361455,47.7937579 L0.435870183,46.2780555 C0.243759056,46.1894893 0.128173691,45.9896078 0.14723822,45.7789251 L0.214761323,45.0327251 C0.233721855,44.8231916 0.381820032,44.6479432 0.585257788,44.5943069 L4.10236144,43.6670241 C4.29352041,43.6166251 4.43703594,43.4583276 4.46851356,43.2631585 L4.6844722,41.9241612 C4.7161186,41.7279457 4.62854547,41.5316172 4.46140504,41.4240714 L1.41369323,39.4630342 C1.23590133,39.3486348 1.14927714,39.1347763 1.19733781,38.9288944 L1.3705749,38.1867828 C1.41841674,37.9818383 1.58946895,37.8287905 1.79845148,37.8039431 L5.41116931,37.3744015 C5.6074445,37.3510649 5.77154987,37.2142927 5.82987366,37.025436 L6.22573023,35.7436227 C6.28438573,35.5536918 6.22496069,35.3470549 6.07436921,35.2172996 L3.32881313,32.8516252 C3.16859531,32.7135755 3.11256157,32.4896537 3.18887728,32.2924144 L3.46831393,31.5702051 C3.54425908,31.3739234 3.7349852,31.2462119 3.94539811,31.2507462 L7.58354932,31.3291466 C7.78092555,31.3334 7.96232516,31.2211157 8.04654375,31.0425585 L8.6732385,29.7138626 C8.75813736,29.533863 8.72820329,29.3206528 8.59702088,29.1709904 L6.21160334,26.4495333 C6.07196627,26.2902253 6.04787836,26.0602109 6.15148121,25.8754299 L6.51715029,25.2232403 C6.61988511,25.0400075 6.82619677,24.94053 7.03354083,24.9742518 L10.6291641,25.5590327 C10.8239653,25.5907146 11.0191766,25.5048427 11.1274568,25.3398378 L11.8697879,24.2086225 C11.9790292,24.0421532 11.9790871,23.8267342 11.8699355,23.6602061 L9.88523116,20.6322243 C9.76918642,20.4551797 9.777208,20.2242439 9.90525756,20.0556778 L10.3705595,19.4431486 C10.4977195,19.2757536 10.7160033,19.2057728 10.9167887,19.26803 L14.3941651,20.3462544 C14.5828873,20.4047712 14.7883697,20.3466625 14.9184971,20.1979779 L15.793668,19.1980006 C15.9246174,19.0483768 15.9544668,18.8353818 15.8696912,18.655526 L14.3241532,15.376587 C14.2340356,15.1853976 14.2738725,14.9581948 14.4236598,14.8090696 L14.9787311,14.256452 C15.1279453,14.1078974 15.3542348,14.0687392 15.5446909,14.1585157 L18.8345615,15.7092837 C19.0133641,15.7935671 19.2250368,15.7645984 19.3746195,15.6353735 L20.479167,14.6811519 C20.6295807,14.5512092 20.6887401,14.3445116 20.6298544,14.1546647 L19.5563235,10.6936162 C19.4936704,10.4916234 19.5648782,10.2720582 19.7341551,10.1452833 L20.3353893,9.69500671 C20.5037683,9.56890422 20.7330686,9.56168052 20.9090511,9.6769345 L23.9538879,11.6710505 C24.1192619,11.7793567 24.3329214,11.7800601 24.4990049,11.672845 L25.6343115,10.9399485 C25.8012831,10.8321601 25.8885648,10.6357161 25.8566399,10.4395564 L25.2740397,6.8598219 C25.2400895,6.65121805 25.3409673,6.44379813 25.5260228,6.34170679 L26.1950645,5.97261018 C26.3794438,5.87089191 26.6077909,5.89559473 26.7661511,6.0343909 L29.5023628,8.43256791 C29.6511393,8.56296432 29.8628088,8.59337915 30.0422813,8.51014887 L31.2576304,7.94653131 C31.4378585,7.86295062 31.551507,7.68059805 31.5471548,7.48198044 L31.467671,3.85462462 C31.4630408,3.64331991 31.5917744,3.45192747 31.7892316,3.37654992 L32.5115244,3.10082098 C32.7083018,3.02570292 32.9310528,3.08195627 33.0685698,3.24149675 L35.4446219,5.99807648 C35.5736129,6.14772557 35.7786282,6.20738633 35.9677755,6.15031749 L37.3758218,5.72548672 C37.5662319,5.66803687 37.7044871,5.50319772 37.7279137,5.3056941 L38.154616,1.70826919 C38.1795606,1.49796771 38.3342872,1.32619117 38.5408467,1.27947824 L39.2651542,1.11567789 C39.4700914,1.06933186 39.6821401,1.15605508 39.7958675,1.33272788 L41.7687545,4.39756055 C41.875579,4.56350977 42.0700255,4.65109469 42.2650964,4.62112877 L43.6060488,4.41513763 C43.8027712,4.384918 43.9628369,4.24090176 44.0135971,4.04845342 L44.9376854,0.544930443 C44.9916602,0.340294004 45.1686246,0.191803989 45.3795249,0.174184935 L46.1405466,0.110607578 C46.3500358,0.0931064061 46.548099,0.208509556 46.6361736,0.399388804 L48.1620465,3.70632839 C48.2448726,3.88583281 48.425686,3.99968183 48.6233565,3.99679193 L49.9578642,3.97728171 C50.1566173,3.97437598 50.3347729,3.85401521 50.4116481,3.6707083 L51.8148891,0.324718246 C51.8965654,0.129963311 52.0917979,0.0075263824 52.3026848,0.0188049509 Z" id="路径"></path>
            </g>
        </g>
    </g>
</svg>