<?xml version="1.0" encoding="UTF-8"?>
<svg width="82px" height="82px" viewBox="0 0 82 82" version="1.1" xmlns="http://www.w3.org/2000/svg" xmlns:xlink="http://www.w3.org/1999/xlink">
    <title>30</title>
    <g id="页面-1" stroke="none" stroke-width="1" fill="none" fill-rule="evenodd" opacity="0.539457775">
        <g id="形状描摹" transform="translate(-1717.000000, -469.000000)" stroke="#3D4242">
            <g id="30" transform="translate(1718.000000, 470.000000)">
                <path d="M8,0 C12.418278,0 16,3.581722 16,8 L16,60 C16,62.209139 17.790861,64 20,64 L72,64 L72,64 C76.418278,64 80,67.581722 80,72 C80,76.418278 76.418278,80 72,80 L8,80 C3.581722,80 0,76.418278 0,72 L0,8 C0,3.581722 3.581722,0 8,0 Z" id="路径"></path>
                <circle id="椭圆形" cx="7.975" cy="7.975" r="4.075"></circle>
                <circle id="椭圆形" cx="8" cy="24" r="4"></circle>
                <circle id="椭圆形" cx="8" cy="40" r="4"></circle>
                <circle id="椭圆形" cx="8" cy="56" r="4"></circle>
                <circle id="椭圆形" cx="8" cy="72" r="4"></circle>
                <circle id="椭圆形" cx="24" cy="72" r="4"></circle>
                <circle id="椭圆形" cx="40" cy="72" r="4"></circle>
                <circle id="椭圆形" cx="56" cy="72" r="4"></circle>
                <circle id="椭圆形" cx="72" cy="72" r="4"></circle>
            </g>
        </g>
    </g>
</svg>