<?xml version="1.0" encoding="UTF-8"?>
<svg id="_图层_2" data-name="图层 2" xmlns="http://www.w3.org/2000/svg" viewBox="0 0 144.39 138.93">
  <g id="_图层_2-2" data-name=" 图层 2">
    <g>
      <path d="M114.91,102.17c-1.23-.79-2.34-1.51-3.45-2.22-.69-.44-1.39-.85-2.05-1.32-1.39-1.01-1.46-2.04,.07-2.71,1.85-.82,3.88-1.27,5.85-1.81,.72-.2,1.5-.17,2.28-.25-.65-2.06-.58-2.41,1.45-2.84,1.51-.32,3.11-.2,4.67-.23,.46,0,.92,.14,1.11,.17,.53-.81,.91-1.93,1.34-1.95,.78-.03,1.86,.37,2.35,.97,1.78,2.17,3.38,4.5,5.03,6.77,.19,.26,.32,.56,.71,1.25,2.87-3.39,5.58-6.59,8.29-9.79l.54,.25c-.16,.56-.17,1.23-.5,1.66-2.02,2.67-4.07,5.32-6.17,7.92-1.31,1.62-1.35,1.68,.39,2.81,1.17,.76,2.37,1.45,3.53,2.23,.71,.48,1.47,.95,2.02,1.59,.53,.62,.83,1.44,1.23,2.17-.74,.32-1.47,.69-2.24,.95-.49,.16-1.03,.17-1.79,.28,.34,.66,.66,1.17,.88,1.71,.5,1.23,1.13,2.44,1.39,3.73,.32,1.59-.29,2.09-1.91,1.96-.24-.02-.47-.04-.84-.07-.32,1.31-.58,2.61-.98,3.88-.38,1.18-.82,2.36-1.41,3.45-.91,1.69-1.88,1.76-3.05,.26-1.41-1.81-2.75-3.68-4.22-5.65-1.36,.85-2.7,3.66-4.39,.17-.47,.38-.81,.68-1.18,.94-2.22,1.58-4.39,3.25-6.69,4.71-2.1,1.33-2.83,.96-3.44-1.36l-.4-.03c.04,.65,.05,1.31,.13,1.96,.09,.68,.24,1.35,.36,1.98-1.26-.37-2.32-.71-3.4-.99-.91-.24-1.56,.08-1.61,1.08-.06,1.29-.72,1.16-1.51,.7-.74-.42-1.43-.92-2.08-1.34-1.07,2.47-3.35,1.03-4.98,1.83-1.33,3.21-2.5,3.95-6.53,3.98-.25,1.69-.87,3.25-2.64,3.88-.93,.33-1.98,.28-2.95,.52-.41,.1-.97,.41-1.1,.76-.81,2.1-2.09,3.06-3.92,2.78-2.64-.4-4.03-1.82-4.08-4.18,0-.19,0-.37,0-.5-1.54-.37-3.01-.72-4.47-1.07-.6,4.12-7.17,5.58-10.21,2.03-5.36,3.65-11.17,3.53-17.08,1.77-3.7-1.1-6.73-3.14-7.14-7.34-.2-2.04,.36-4.15,.54-5.95-3.18-.58-6.61-1.2-10.04-1.83-.44,2.26-1.16,2.66-3.2,1.4-2.71-1.68-5.31-3.56-8.01-5.38q-1.87,1.51-4.44-.52c-1.18,1.61-2.33,3.23-3.54,4.81-2.05,2.68-3.05,2.57-4.31-.64-.77-1.95-1.27-4-1.89-6-2.78,0-3.33-.74-2.35-3.47,.47-1.29,1.2-2.49,1.89-3.9-.94-.16-1.82-.3-2.69-.47-1.42-.28-1.74-.96-.81-2.08,.75-.91,1.68-1.7,2.64-2.39,1.24-.9,2.59-1.64,3.87-2.48,1.43-.94,1.41-1.12,.37-2.41-2.13-2.65-4.23-5.32-6.29-8.02-.36-.47-.47-1.14-.7-1.72,.15-.1,.3-.21,.45-.31,.39,.33,.83,.62,1.16,1.01,1.79,2.13,3.56,4.28,5.3,6.44,.6,.74,1.11,1.56,1.68,2.37,1.75-2.51,3.09-4.48,4.48-6.4,.47-.66,1-1.34,1.66-1.78,.71-.47,1.61-.89,2.41-.86,.38,.01,.72,1.12,1.2,1.94,.2-.03,.65-.18,1.11-.17,1.56,.02,3.17-.11,4.68,.19,2.03,.41,2.16,.86,1.49,2.82,1.38,.18,2.77,.25,4.1,.58,1.33,.33,2.68,.77,3.89,1.41,1.66,.88,1.67,1.83,.11,2.88-1.7,1.16-3.46,2.22-5.22,3.35,.24,.87,2.13,.63,1.31,1.97-.44,.71-1.14,1.26-1.78,1.94,.16,.11,.38,.27,.61,.42,2.14,1.34,4.38,2.54,6.39,4.05,2.01,1.51,1.93,2.56,.17,4.23,1.68,2.55,3.36,5.09,5.05,7.64,1.15-2.7,1.35-5.68,1.31-8.7-.01-1.01-.06-2.01-.05-3.02,.03-3.62,1.74-6.33,4.74-8.2,.9-.56,1.02-1.02,.67-1.94-.33-.88-.61-1.87-.53-2.79,.05-.59,.78-1.12,1.21-1.68,.47,.4,1.18,.71,1.37,1.21,.43,1.15,.62,2.4,.9,3.61,.08,.04,.16,.12,.24,.12,4.07,.18,5.49,1.14,6.47,5.14,.88,3.61,2.64,6.57,5.07,9.34,1.75,1.99,3,4.42,4.48,6.67,.52-1.74,1.8-2.97,3.65-3.55,.31-3.23,3.59-5,6.59-3.59q1.61,.75,3.69,.2c-.34-.99-.61-2-1.03-2.94-.4-.91-.96-1.75-1.63-2.93,3.06,.87,4.54-.72,5.38-3.53,.5,.65,.74,.92,.93,1.21,.93,1.37,1.6,1.38,2.64,.06,.52-.66,1.1-1.29,1.65-1.93,.37,.7,.64,1.49,1.14,2.09,.77,.93,1.62,1.81,2.56,2.55,.65,.51,1.51,.74,2.37,1.15,.32-.72,.66-1.49,1.03-2.32-.47-.41-.91-.79-1.36-1.18,.07-.16,.15-.33,.22-.49,1.37,.52,2.73,1.04,4.1,1.56,0,.17,.02,.33,.02,.5-.66,.11-1.31,.22-2.09,.35-.08,.34-.19,.79-.34,1.4,2.78,.7,5.26,.36,7.72-1.39,.28,1.74-.39,3.85,2.12,4.51-.24-2,.94-3.13,2.28-4.06,1.99-1.38,4.06-2.63,6.18-3.99-.33-.29-.79-.68-1.22-1.1-1.09-1.04-1.04-1.37,.3-2.04,.16-.08,.32-.19,.68-.41Zm-55.8,33.74c-1.95-.87-3.16-1.96-3.66-3.7-.1-.35-.2-.74-.42-1.02-.6-.75-.61-1.26,.43-1.57,.24-.07,.49-.29,.62-.51,.94-1.52,2.29-2.41,4.03-2.65,.26-2.91,1.87-4.56,4.89-5.32-1.29-1.86-2.35-3.68-3.69-5.26-2.18-2.57-3.79-5.38-4.54-8.69-.23-1.02-.5-2.13-1.11-2.93-.65-.85-1.69-1.92-2.6-1.95-3.12-.11-5.96,.79-7.74,3.72-1.29,2.12-1.46,4.4-1.21,6.79,.36,3.42,.1,6.78-1.13,10.04-.42,1.12-.78,2.27-1.06,3.43-.89,3.66,.05,6.1,3.13,7.82,4.31,2.42,8.91,2.97,14.06,1.79Zm22.52-4.4l-.23-.3c.39-.49,.72-1.32,1.19-1.42,1.57-.3,1.61-1.52,1.74-2.6,.13-1.11-.76-1.58-1.9-1.54-1.3,.04-2.69,.01-3.91-.39-2.49-.81-3.79-.03-3.89,2.62-.09,2.28,.61,3.62,2.17,4.07,1.67,.49,3.3,.39,4.85-.45Zm-8.66,.68c.02-1.73,0-1.7-1.68-2.29-.76-.26-1.52-.6-2.17-1.06-1.38-.97-1.9-.97-2.76,.47-.42,.71-.66,1.59-.79,2.42-.36,2.24,.75,3.61,2.99,3.77,2.5,.18,4.73-.81,4.4-3.32Zm2.79-8.74c-.27-.68-.54-1.15-.64-1.66-.29-1.46-1.37-1.88-2.62-1.98-1.94-.16-3.2,.77-3.6,2.54-.55,2.43,.46,4.75,2.37,5.61,.95,.42,1.49,.18,1.65-.8,.29-1.71,1.02-3.07,2.84-3.72Zm5.81,.52c-.02-.23-.04-.46-.05-.69,.61-.47,1.19-1.26,1.84-1.33,1.17-.13,1.16-.8,1.13-1.57-.05-1.7-1.87-3.42-3.62-3.47-1.38-.04-3.71,1.88-3.69,3.27,.01,.77,.33,1.83,.88,2.23,1.02,.73,2.32,1.07,3.51,1.57Zm7.36,2.28c.07-.1,.15-.21,.22-.31-.66-.85-.42-1.15,.47-1.59,2.12-1.03,2.49-1.73,1.92-3.12-.67-1.64-1.97-2.69-3.64-3.17-1.24-.35-1.57,.17-1.59,1.47-.02,1.29-.16,2.67-.67,3.82-.47,1.07-.25,1.72,.57,2.13,.83,.41,1.81,.51,2.73,.75Zm-28.45,8.28c1-.69,2.08-1.29,2.95-2.11,.23-.22,.02-1.24-.3-1.64-.58-.73-1.34-1.35-2.12-1.86-.53-.35-1.28-.69-1.84-.58-1.15,.23-2.28,2.22-2.08,3.3,.21,1.17,2.03,2.66,3.39,2.9Zm28.34-1.08c2.18-.18,3.45-1.13,3.17-2.64-.15-.84-.61-1.8-1.25-2.33-.43-.37-1.4-.1-2.13-.11-.38,0-.77-.06-1.15-.02-.31,.03-.76,.08-.88,.28-.65,1.1-1.55,2.28-.87,3.59,.6,1.17,1.84,1.39,3.1,1.23Zm6.32-4.29c1.65,0,3.15-1.34,3.17-2.83,.03-1.53-1.49-2.94-3.12-2.91-1.29,.02-2.96,1.89-2.89,3.23,.07,1.36,1.37,2.5,2.84,2.5Zm-33.44-3.31c.36,.8,.6,1.7,1.11,2.39,.88,1.17,1.54,1.06,2.44-.09,.34-.44,.74-.92,1.22-1.17,1.37-.72,.41-1.79,.4-2.66,0-.43-.59-1.07-1.05-1.25-1.84-.74-3.88,.72-4.12,2.78Zm29.05-8.86c1.18,1.56,2.23,2.95,3.3,4.36,1.15-.54,2.11-2.05,1.96-3.33-.14-1.21-.87-1.99-2.03-2.33-1.47-.42-2.43,.37-3.22,1.3Zm-7.35,16.01c-.59,.23-1.19,.51-1.83,.71-1.18,.36-1.32,1.19-.62,1.95,.6,.65,1.49,1.22,2.34,1.36,.57,.1,1.38-.51,1.85-1.02,.17-.18-.28-1.03-.57-1.51-.31-.52-.76-.97-1.17-1.48Zm-6.56-16.34c-.02-.19-.03-.38-.05-.58-.98,.07-1.99,0-2.92,.25-.49,.13-.85,.8-1.21,1.27-.03,.04,.35,.59,.57,.61,.78,.07,1.64,.21,2.33-.06,.54-.21,.86-.97,1.27-1.49Zm10.93-.72c-.73-1.34-1.65-1.7-3-1.07-.36,.17-.58,.61-.86,.93,.51,.34,1.04,.99,1.53,.97,.79-.04,1.56-.53,2.34-.83Z"/>
      <path d="M62.58,9.67c-.77-2-1.59-3.9-2.22-5.86-.23-.73-.03-1.62,.04-2.42,.1-1.15,.76-1.54,1.89-1.33,2.99,.55,5.3,2.13,7.09,4.54,.34,.46,.66,.93,1.13,1.6,.69-1.49,1.29-2.86,1.94-4.2,.74-1.52,2.17-1.9,3.46-.8,.33,.28,.41,1.26,.18,1.7-1.14,2.16-2.42,4.25-3.64,6.36-.26,.44-.47,.91-.49,1.66,.66-.27,1.37-.47,1.98-.82,7.38-4.2,15.15,1.67,15.92,9.11,.68,6.53-1.42,12.04-5.85,16.49-2.55,2.56-5.89,4.46-10.03,3.28-.89-.25-2.11,.09-2.99,.52-1.71,.84-3.22,.75-4.92-.04-7.46-3.47-12-10.97-11.65-19.69,.21-5.2,3.31-8.86,8.16-10.07Zm4.96,.48c-1.86-2.77-3.63-5.42-5.4-8.07-.53,4,2.31,8.12,5.4,8.07Zm1.81,.61c.66-3.93-1.95-8.07-5.4-8.69,1.8,2.9,3.55,5.71,5.4,8.69Zm5.36-8.43c-1.24-.33-2.56,1.97-2.88,5.06,.88-1.45,1.63-2.67,2.35-3.9,.21-.36,.35-.76,.53-1.16Z"/>
      <path d="M104.09,85.68c-2.25,1.55-4.46,2.43-6.87,1.11-1.24,.88-2.42,1.76-3.64,2.59-.39,.26-.84,.47-1.3,.59-2.72,.72-3.81-.21-3.27-2.96,.3-1.53,.9-3.01,1.41-4.5,.19-.57,.48-1.11,.87-1.98-2.68,.97-4.14,2.68-5.16,4.85-.32,.69-.52,1.45-.9,2.1-.21,.36-.78,.83-1.05,.76-.41-.11-.91-.6-1.02-1.02-.2-.81-.15-1.69-.22-2.73-.94,1.04-1.79,2.02-2.67,2.96-.49,.52-.96,1.2-1.58,1.44-.87,.33-1.95,.59-2.8,.36-1.11-.3-1.24-1.48-1.1-2.53,.16-1.22,.37-2.44,.59-3.8-.92-.15-1.76-.37-2.6-.37-.35,0-.81,.4-1.03,.74-.77,1.21-1.4,2.52-2.18,3.71-.52,.79-1.15,1.54-1.87,2.16-1.2,1.04-2.48,.84-3.23-.55-.82-1.5-1.45-3.1-2.23-4.79-.86,1.28-1.72,2.56-2.6,3.82-.33,.47-.66,.96-1.07,1.34-.93,.85-2.17,1.2-3.18,.56-.72-.45-1.16-1.52-1.48-2.4-.23-.63-.04-1.4-.04-2.19-1.98,.38-3.27,1.18-3.69,3.2-.32,1.53-.88,3.04-1.53,4.47-1.81,3.99-5.21,5.57-9.36,5.7-.86,.03-2.1-.52-2.51-1.19-.35-.58-.02-1.91,.45-2.6,2.26-3.27,5.46-5.47,8.9-7.33,1.47-.8,2.42-1.83,2.21-3.35-1.5,.58-2.96,1.35-4.52,1.7-2.55,.57-4.25-.66-4.29-3.23-.06-3.94,1.2-7.47,4.29-10.11,1.28-1.1,2.85-1.59,4.57-1.15,2.48,.64,3.63,3.57,1.96,5.74-.2-.85-.36-1.5-.5-2.15-.3-1.3-1.27-1.84-2.29-1.26-2.27,1.3-4.92,7.5-3.61,10.25,.83-.55,1.74-.97,2.4-1.63,1.02-1.01,1.83-2.22,2.82-3.26,.33-.35,1.11-.76,1.37-.61,.49,.29,.99,.94,1.04,1.48,.15,1.37,.05,2.76,.05,4.32,1.43-.49,2.85-.88,3.43-2.57,.26-.77,.56-1.56,1.03-2.2,.36-.49,1.08-1.1,1.55-1.04,.92,.12,1.23,1,1.04,1.9-.36,1.73-.78,3.46-1.17,5.18-.2,.91-.4,1.82-.59,2.72,.11,.06,.23,.13,.34,.19,.33-.29,.71-.55,.99-.89,1.31-1.58,2.62-3.18,3.89-4.8,.28-.36,.42-.85,.56-1.3,.19-.59,.17-1.3,.5-1.78,.52-.78,1.26-1.41,1.91-2.11,.1,.83,.41,1.7,.27,2.49-.46,2.68-.14,5.21,1.16,7.94,.52-.65,.93-1.13,1.29-1.64,.75-1.05,1.46-2.14,2.23-3.17,.46-.61,.55-1.07,.06-1.77-1.03-1.48,0-3.88,1.76-4.35,.92-.25,1.4,.1,1.44,1.02,.02,.52-.03,1.05-.09,1.57-.07,.63-.87,1.38,.31,1.76,1.06,.34,2.1,.42,2.78-.72,.54-.9,.98-1.88,1.59-2.73,.42-.58,.94-1.33,1.88-.64,.78,.57,.83,1.17,.5,2.1-.68,1.88-1.19,3.83-1.64,5.78-.12,.51,.25,1.13,.64,1.73,1.99-2.17,4.37-3.92,4.71-7.07,.05-.44,.56-.84,.85-1.25,.49,.37,1.13,.64,1.44,1.13,.34,.53,.37,1.25,.6,2.16,.63-.56,1.04-1,1.52-1.34,.92-.67,1.83-1.39,2.84-1.89,1.47-.73,2.56,.15,3.55,1.12,.93,.91,.28,1.83-.17,2.62-.65,1.16-1.61,2.17-2.16,3.37-.44,.97-.48,2.12-.7,3.19,.89-.51,1.88-.91,2.65-1.57,1.3-1.12,2.11-2.38,2.41-4.31,.49-3.13,2.67-5.36,5.73-6.45,.71-.25,1.63-.15,2.4,.03,1.01,.24,1.42,.99,1.15,2.09-1.98-.78-3.21-.42-4.22,1.42-.55,.99-.96,2.1-1.15,3.21-.09,.52,.38,1.38,.85,1.67,.36,.22,1.3-.04,1.67-.4,1.01-1,1.82-2.2,2.78-3.25,.35-.38,.9-.58,1.36-.86,.17,.46,.47,.9,.49,1.37,.07,1.23,.02,2.47,.02,3.72,1.08-.23,2.03-.44,2.98-.64l.22,.58c-.7,.42-1.36,.96-2.11,1.24-1.32,.49-1.92,1.42-2.23,2.74-.81,3.48-2.4,6.55-5.02,9.04-1.83,1.74-4.1,2.24-6.48,2.29-1.28,.02-2.15-.83-2.34-2.12-.26-1.77,.14-3.33,1.72-4.42,2.6-1.79,5.17-3.62,7.8-5.37,1.02-.68,1.82-1.39,1.66-3.01Zm-65.93,10.49c4.12,.92,7.9-3.22,8.68-7.43-3.36,2.01-6.41,4.02-8.68,7.43Zm64.05-5.23c-.37,.2-.78,.36-1.11,.61-1.95,1.44-3.96,2.83-5.79,4.41-.46,.4-.36,1.44-.51,2.19,.66,0,1.32,0,1.98-.04,.17-.01,.36-.14,.5-.26,2.29-1.8,3.97-4.05,4.93-6.91Zm-30.6-10.1c.28-1.1,.49-1.92,.76-2.99-1.65,.97-1.84,1.62-.76,2.99Z"/>
      <path d="M58.75,57.77c1.19-.56,1.89-1.05,2.66-1.19,.78-.15,1.82-.23,2.37,.17,.48,.35,.68,1.45,.56,2.16-.36,2.27-.94,4.5-1.38,6.75-.1,.49-.01,1.01-.01,1.66,1.98-.87,2.42-1.59,2.23-3.2-.32-2.7,.66-4.91,2.65-6.66,1.84-1.62,4.22-1.03,5.63,.91,.86,1.19,.72,2.24,.63,3.48-.08,1.14,.07,2.3,.35,3.49,1.69-1.66,3.08-3.33,3.01-5.82-.03-.97-.57-2.42,1.13-2.64,1.63-.21,2.08,1.04,2.43,2.29,.07,.26,.17,.52,.25,.8,1.02-.56,1.93-1.27,2.95-1.54,.83-.22,2.09-.22,2.61,.27,.5,.47,.52,1.74,.36,2.58-.25,1.34-.81,2.61-1.07,3.99,1.64-1.65,2.98-3.37,2.98-5.89,0-5.52,.28-11.03,1.56-16.43,.38-1.61,1-3.19,1.69-4.7,.56-1.23,1.72-1.62,3.04-1.31,1.26,.29,1.7,1.35,1.61,2.42-.23,2.61-.49,5.25-1.06,7.8-.69,3.11-1.72,6.15-2.68,9.51,.64-.36,1.1-.66,1.59-.88,.56-.26,1.13-.57,1.72-.66,1.62-.25,2.35,.6,1.96,2.18-.46,1.88-1.68,3.19-3.19,4.29-.46,.34-.93,.66-1.38,.99,.06,.2,.07,.35,.14,.47,1.59,2.67,2.12,2.75,4.36,.62,.52-.5,1-1.03,1.54-1.51,1.51-1.36,2.17-2.85,1.48-4.97-.56-1.71-.32-3.53,.62-5.14,.52-.88,1.22-1.48,2.36-1.16,1.12,.31,1.59,1.13,1.42,2.18-.26,1.59-.52,3.23-1.12,4.71-.54,1.34-.49,2.47-.18,3.85,.4,1.77,.56,3.69,.34,5.49-.22,1.75-1.5,2.98-3.37,3.3-1.32,.23-2.5-.82-2.73-2.36-.18-1.23,.39-1.95,1.76-2.08v2.44c.78-.52,1.49-.76,1.85-1.26,1.12-1.59,.93-3.3,.1-5.25-1.03,1.11-1.99,2.03-2.83,3.05-2.17,2.62-3.52,3.57-7.24-.28,.07,1.02,.1,1.78,.17,2.53,.08,.88-.23,1.71-1.11,1.68-.56-.02-1.3-.68-1.58-1.25-.41-.81-.47-1.8-.76-3.03-.55,.64-.88,1.03-1.21,1.41-.28,.33-.5,.78-.86,.95-.88,.4-2.02,1.13-2.67,.84-.62-.27-1.01-1.66-1.02-2.56-.02-1.55,.33-3.1,.55-4.83-2.13,1.19-3.16,2.98-3.69,5.14-.19,.79-.31,1.62-.65,2.34-.18,.38-.86,.84-1.18,.75-.42-.11-.92-.68-1.02-1.13-.19-.85-.13-1.75-.17-2.81-.96,1.19-1.58,2.56-2.62,3.09-1.57,.81-2.23-.95-3.41-2.16-.31,.46-.55,.93-.91,1.3-.99,1.04-2.33,1.42-3.55,.84-1.08-.51-1.61-.07-2.41,.4-.86,.51-1.87,1.03-2.83,1.07-1.42,.05-1.95-.71-1.82-2.15,.08-.9,.25-1.8,.49-2.68,.32-1.15,.81-2.26,1.11-3.41,.23-.87,1.16-1.94-.12-2.6-.79-.41-2.64,1.2-2.85,2.26-.37,1.88-.66,3.78-1.17,5.62-.19,.7-.78,1.43-1.39,1.83-.77,.5-1.66,.26-1.94-.74-.28-1-.7-2.11-.5-3.06,1.31-6.28,2.77-12.52,4.2-18.78,.13-.55,.38-1.08,.61-1.61,.33-.76,.62-1.53,1.76-1.21,1.14,.32,1.37,1.07,1.18,2.09-.48,2.59-.98,5.18-1.45,7.77-.29,1.59-.55,3.18-.9,5.2Zm36.73-19.28c-1.92,1.87-4.08,13.61-3.16,16.36,.77-2.58,1.56-4.92,2.15-7.32,.56-2.31,.94-4.68,1.32-7.03,.09-.54-.17-1.14-.31-2Zm-26.62,27.6c1.89-1.75,3.12-3.46,3.44-5.74,.09-.68,.58-1.32-.49-1.74-.99-.39-1.83-.25-2.14,.69-.54,1.6-.88,3.28-1.2,4.95-.09,.48,.21,1.03,.39,1.86Zm28.02-9.04c-2.26,1.1-4.43,3.12-4.56,4.22,2.07-.24,4.29-2.23,4.56-4.22Zm7.24-4.86c-1.3,1.38-1.48,2.94-.62,4.35,.53-1.39,1.38-2.63,.62-4.35Z"/>
      <path d="M122.93,51.35c-.52-2.56-2.81-5.42-5.27-6.59-.27,1.06-.46,2.15-.84,3.16-.9,2.38-2.86,3.78-4.98,3.63-1.68-.12-3.09-.85-3.83-2.41-.77-1.62-.68-3.29,.36-4.79,1.2-1.71,2.87-2.64,4.98-2.74,.62-.03,1.23-.07,2-.11-.1-3.43-.95-6.54-2.73-9.87-.2,.79-.3,1.21-.42,1.62-.32,1.15-.51,2.36-1.02,3.42-.31,.64-1.14,1.46-1.69,1.43-.54-.03-1.28-.96-1.5-1.63-.93-2.85-1.05-5.78,.11-8.59,.56-1.36,.37-2.22-.79-3.04-1.03-.73-2.01-1.55-3.01-2.33-.11,.07-.23,.13-.34,.2,.18,.85,.47,1.69,.52,2.54,.08,1.27,.12,2.57-.07,3.82-.08,.51-.8,1.22-1.29,1.27-.49,.05-1.27-.47-1.55-.96-1.37-2.36-1.76-4.98-1.45-7.64,.17-1.5-.38-2.26-1.67-2.65-1.49-.45-3.01-.82-4.66-1.59,.63-.18,1.28-.57,1.89-.5,1.13,.12,2.27,.4,3.33,.81,.86,.34,1.38,.24,1.96-.48,1.29-1.6,2.93-2.74,4.94-3.31,.18-.05,.36-.13,.55-.17,1.58-.34,2.94,.07,3.32,.99,.4,.97-.22,2.05-1.82,2.88-1.01,.53-2.12,.87-3.19,1.3-.51,.2-1.02,.39-1.86,.71,2.27,1.67,4.24,3.16,6.27,4.57,.27,.19,.84,.09,1.23-.03,2.65-.79,5.14-.06,7.57,.86,.59,.22,1.3,1.09,1.28,1.64-.02,.53-.85,1.32-1.45,1.46-1.41,.35-2.9,.38-4.49,.55,.12,.3,.21,.65,.38,.96,1.92,3.59,3.07,7.42,3.66,11.44,.09,.6,.54,1.33,1.04,1.66,2.85,1.86,5.05,4.23,6.37,7.41,.17,.42,.75,.82,1.22,.95,2.26,.64,4.03,1.97,5.52,3.72,.15,.18,.31,.38,.4,.59,.41,1.01,1.08,2.12-.07,3-1.13,.86-2.17,.28-3.08-.56-.91-.84-1.82-1.68-2.9-2.67-.05,.51-.1,.99-.13,1.46-.06,.96-.03,1.93-.18,2.87-.28,1.77-.12,3.08,1.85,3.98,2.06,.93,3.31,2.86,4.16,4.96,.47,1.17,.99,2.51-.3,3.4-1.33,.92-2.33-.22-3.25-1.01-.56-.48-1.01-1.09-1.51-1.65-.15,.09-.29,.18-.44,.27,.87,1.55,1.68,3.14,2.64,4.63,.16,.25,1.03,.25,1.47,.1,1.77-.64,3.56-.94,5.33-.24,.67,.26,1.56,.94,1.63,1.51,.07,.54-.71,1.35-1.31,1.76-.73,.5-1.65,.72-2.49,1.05,1.35,2,6.08,2.9,7.89,1.38,.58-.49,.87-1.42,1.1-2.2,.11-.37-.25-.87-.39-1.31-.41,.15-.81,.32-1.22,.45-.42,.13-.86,.23-1.29,.35-.06-.49-.28-1.02-.16-1.46,.33-1.26,1.27-1.71,2.53-1.6,1.47,.14,2.42,1.04,2.55,2.45,.27,2.84-1.9,5.5-4.79,5.83-2.21,.26-4.29-.18-6.26-1.21-.45-.24-.91-.46-1.52-.77,.1,1.36,.28,2.49,.24,3.62-.03,1.04-.16,2.24-1.51,2.46-1.23,.2-1.96-.65-2.45-1.63-1.18-2.37-1.3-4.85-.73-7.43,.14-.63-.08-1.45-.37-2.06-1.04-2.18-2.19-4.32-3.4-6.68-.47,.7-.92,1.45-1.45,2.14-.69,.9-1.39,2.07-2.75,1.53-1.33-.53-.99-1.87-.84-2.91,.34-2.35,1.57-4.25,3.58-5.49,1.15-.71,1.52-1.61,1.53-2.82,0-1.14,0-2.27,0-3.77-.71,.75-1.17,1.39-1.78,1.84-.82,.62-1.68,1.3-2.63,1.58-1.43,.42-2.27-.34-2.12-1.82,.31-2.94,1.72-5.24,4.32-6.74,.49-.28,1-.53,1.48-.79Zm-9.32-8c-1.77-.06-3.53,1.02-4.13,2.55-.51,1.3-.15,2.51,.96,3.28,1.16,.8,2.46,.83,3.36-.25,.76-.92,1.4-2.06,1.71-3.2,.48-1.77-.06-2.3-1.91-2.37Zm9.62,9.74c-2.52,.49-4.66,3.63-4.13,5.94,2.06-.77,4.33-3.97,4.13-5.94Zm-13.47-17.29c1.6-2.88,1.58-6.75-.06-7.98-.91,2.67-1.21,5.26,.06,7.98Zm19.27,41.99c-1.04,2.19-.36,5.48,1.33,6.91,.31-2.46-.43-4.53-1.33-6.91Zm-11.47-51c-1.72-1.3-4.64-1.71-6.46-.86,2.07,1.34,4.09,1.47,6.46,.86Zm8.37,38.2c1.24,1.79,2.49,3.57,3.73,5.36,.11-.08,.23-.16,.34-.24-.18-2.27-1.77-4.54-4.08-5.12Zm-5.74,5.27c1.12-.54,2.54-3.18,2.43-4.52-1.52,.63-2.6,2.65-2.43,4.52Zm-12.18-54.28c-.08-.21-.16-.41-.25-.62-2.09-.06-3.7,1.01-5.18,2.37,.05,.12,.1,.24,.14,.35l5.28-2.1Zm-6.21,6.32c-.15,.03-.29,.05-.44,.08,.36,1.84,.72,3.69,1.09,5.53,.94-1.31,.42-4.09-.65-5.61Zm28.86,53.63c1.67,1.07,3.5,.91,4.64-.36-1.58-.53-3.04-.67-4.64,.36Zm-3.58-22.86c-.12,.12-.24,.23-.35,.35,1.18,1.22,2.37,2.45,3.55,3.67,.14-.13,.27-.27,.41-.4-.63-1.78-2.11-2.71-3.61-3.62Z"/>
      <path d="M18.55,55.01c-1.03,1.06-1.78,1.9-2.6,2.67-.48,.44-1.04,.94-1.64,1.08-.57,.13-1.43,.03-1.82-.33-.38-.35-.58-1.26-.4-1.77,1-2.86,3.26-4.42,6.02-5.27,.94-.29,1.4-.72,1.76-1.59,1.23-2.98,3.42-5.15,6.09-6.9,.43-.28,.97-.78,1.02-1.22,.52-4.44,1.9-8.59,3.98-12.52,.06-.11,.04-.27,.06-.54-1.08,0-2.11,.03-3.15-.02-.47-.02-1-.1-1.38-.35-.56-.37-1.41-.94-1.39-1.39,.02-.59,.65-1.45,1.23-1.68,2.42-.96,4.9-1.61,7.57-.95,.58,.14,1.41-.05,1.92-.39,1.82-1.22,3.55-2.57,5.58-4.07-.83-.34-1.43-.54-1.99-.81-1.37-.65-2.81-1.23-4.06-2.07-.49-.33-.88-1.41-.7-1.94,.19-.54,1.12-1.12,1.74-1.15,2.72-.11,4.91,1.16,6.65,3.13,.84,.96,1.53,1.34,2.77,.71,.83-.42,1.83-.59,2.78-.66,.65-.05,1.33,.27,2,.43-.02,.16-.04,.31-.06,.47-.29,.08-.59,.17-.88,.24-1.11,.27-2.26,.44-3.33,.82-2.12,.75-1.88,.81-2.04,3.08-.16,2.35-.7,4.7-1.29,6.99-.15,.58-1.2,1.36-1.74,1.29-.56-.08-1.36-1.04-1.41-1.67-.12-1.45,.12-2.93,.26-4.39,.05-.5,.22-.99,.34-1.49-.13-.12-.27-.23-.4-.35-1.39,1.23-2.81,2.42-4.12,3.71-.18,.17,.09,.88,.25,1.3,1.04,2.63,1.11,5.33,.53,8.06-.13,.6-.35,1.2-.63,1.75-.66,1.25-1.71,1.37-2.4,.17-.61-1.05-.94-2.27-1.33-3.44-.21-.63-.28-1.3-.58-1.97-1.79,2.89-2.58,6.03-2.72,9.51,.86,.04,1.56,.07,2.27,.12,2.4,.17,4.65,1.85,5.33,3.98,.6,1.88-.03,3.95-1.53,5.01-1.8,1.28-3.95,1.26-5.6-.06-1.37-1.1-2.13-2.56-2.42-4.28-.09-.51-.18-1.02-.31-1.75-2.59,1.76-4.49,3.78-5.43,6.72,.47,.26,.88,.49,1.29,.7,2.64,1.35,4.05,3.6,4.6,6.42,.37,1.92-.76,2.9-2.6,2.22-.81-.3-1.52-.95-2.2-1.54-.53-.46-.94-1.05-1.69-1.9,0,1.6,.09,2.81-.02,4-.15,1.53,.87,2.16,1.88,2.92,2.1,1.59,3.35,3.7,3.28,6.38-.02,.61-.44,1.59-.88,1.73-.56,.17-1.52-.15-1.98-.6-.87-.86-1.5-1.95-2.39-3.17-.23,.52-.37,.89-.53,1.23-.89,1.85-1.7,3.75-2.72,5.52-.44,.77-.65,1.38-.41,2.24,.61,2.18,.53,4.36-.31,6.49-.17,.44-.36,.89-.63,1.28-.58,.82-1.38,1.62-2.37,1.09-.62-.33-1.15-1.27-1.25-2.01-.16-1.2,.06-2.46,.13-3.95-.51,.25-.9,.44-1.29,.65-1.99,1.09-4.11,1.57-6.37,1.32-2.85-.31-5.06-2.85-4.89-5.62,.09-1.59,1.04-2.56,2.63-2.68,1.36-.1,2.29,.52,2.53,1.79,.07,.4-.16,.86-.25,1.29-.39-.11-.79-.19-1.17-.32-.42-.15-.81-.35-1.22-.53-.17,.52-.57,1.12-.44,1.55,.23,.77,.62,1.67,1.24,2.11,1.89,1.35,6.18,.47,7.76-1.46-.88-.36-1.82-.61-2.59-1.12-.57-.38-1.33-1.18-1.24-1.64,.12-.62,.9-1.31,1.55-1.58,1.76-.72,3.59-.54,5.31,.23,.92,.41,1.53,.31,1.99-.59,.72-1.38,1.44-2.76,2.17-4.14-.13-.09-.27-.18-.4-.27-.28,.31-.54,.64-.84,.92-.63,.58-1.22,1.24-1.95,1.67-1.48,.88-2.73,.13-2.68-1.58,.02-.6,.19-1.23,.43-1.8,1.03-2.48,2.7-4.42,5.15-5.56,.81-.38,1.01-.84,.95-1.65-.15-1.98-.25-3.97-.39-6.32Zm10.24-10.11c-.03,2.37,1.7,4.77,3.53,4.82,1.43,.04,2.78-1.25,2.8-2.68,.03-1.97-1.9-3.74-4.14-3.67-.94,.03-2.29-.26-2.19,1.52Zm-7.53,8.24c-.4,1.81,2.09,5.39,4.12,5.91,.4-2.44-1.79-5.58-4.12-5.91Zm13.43-25.47c-1.62,1.6-1.56,5.75,.02,8.11,1.13-2.72,.94-5.33-.02-8.11ZM13.73,84.31c.18,.04,.36,.09,.55,.13,1.53-1.27,2.14-4.77,.8-6.67-.5,2.41-.92,4.47-1.35,6.54ZM33.1,25.71c-2.04-.63-4.99-.09-6.03,1.05,2.27,.79,5.04,.33,6.03-1.05ZM14.39,70.17c1.76-1.49,3.19-3.19,3.94-5.77-2.33,1.51-3.68,3.27-3.94,5.77Zm9.36,.28c.75-1.96-.54-4.25-2.72-5.22,.99,1.9,1.85,3.56,2.72,5.22ZM36.66,15.62c1.39,1.25,3.02,1.93,4.89,2.03-1.39-1.25-2.82-2.4-4.89-2.03Zm6.4,6.79c-1.39,.94-2.08,4.06-1.13,5.5,.38-1.83,.76-3.67,1.13-5.5ZM13.64,75.96c-1.48-1.08-3.36-1.12-4.39-.08,1.43,.98,3.26,1.01,4.39,.08Zm-.21-19.55l.48,.51c1.7-.85,2.82-2.31,3.83-3.89-.1-.1-.19-.21-.29-.31-1.34,1.23-2.68,2.46-4.02,3.68Z"/>
      <path d="M45.25,42.56c1.4,.43,2.86,.75,4.2,1.33,2.23,.97,4.34,.98,6.48-.18,.31-.17,.76-.1,1.14-.13-.09,.39-.05,.98-.29,1.14-1.33,.89-2.64,2.01-4.13,2.41-1.53,.42-2.03,1.16-2.34,2.56-1.17,5.23-2.45,10.43-3.7,15.64-.17,.69-.37,1.41-.71,2.02-.54,.97-1.53,1.54-2.52,1.05-.46-.23-.79-1.39-.66-2.03,1.06-5.2,2.24-10.38,3.4-15.56,.23-1.03,.63-2.02,.78-3.05,.06-.42-.23-1.15-.56-1.31-3-1.43-4.59-1.58-6.21,1.02-.18,.29-.77,.31-1.18,.46-.07-.5-.34-1.09-.18-1.5,.86-2.07,3.73-3.65,6.48-3.87Z"/>
      <path d="M60.4,74.84c-.69,.45-1.33,1.09-2.08,1.25-.34,.07-.89-.79-1.34-1.24,.64-.53,1.22-1.21,1.95-1.51,.31-.12,.94,.56,1.43,.88,.01,.2,.03,.4,.04,.61Z"/>
      <path d="M81.04,72.56c.57,.61,1.21,1.15,1.14,1.26-.3,.51-.77,.96-1.27,1.27-.1,.06-.95-.62-.91-.87,.08-.49,.54-.92,1.04-1.67Z"/>
      <path d="M45.79,125.5c-.47,.49-.76,.79-1.05,1.09-.35-.39-.92-.75-.97-1.17-.03-.31,.62-.7,.97-1.05,.3,.33,.6,.65,1.04,1.12Z"/>
      <path d="M45.59,124.04c-.41-.55-.83-.9-.91-1.32-.04-.2,.75-.82,.85-.75,.43,.26,.78,.69,1.04,1.13,.04,.08-.51,.51-.98,.94Z"/>
      <path d="M44.39,128.82c.25,.51,.56,1,.73,1.53,.05,.16-.31,.44-.49,.66-.33-.4-.74-.77-.95-1.23-.1-.22,.17-.61,.28-.92,.14-.02,.29-.03,.43-.05Z"/>
      <path d="M49.57,127.32c-.6,.36-.97,.76-1.24,.7-.34-.08-.6-.53-.89-.82,.31-.22,.61-.61,.92-.61,.31,0,.63,.36,1.21,.73Z"/>
    </g>
  </g>
</svg>