<?xml version="1.0" encoding="UTF-8"?>
<svg id="_图层_2" data-name="图层 2" xmlns="http://www.w3.org/2000/svg" viewBox="0 0 122.15 111.74">
  <g id="_图层_2-2" data-name=" 图层 2">
    <g>
      <path d="M120.65,80.17c-6.62-3.41-13.53-6.12-20.64-8.31-2.74-.85-2.77-.98-.74-3.07,.19-.2,.39-.4,.6-.58,4.33-3.94,7.64-8.58,9.84-14.02,2.47-6.12,5.4-12.04,8.7-17.76,.42-.73,1.48-1.42,.69-2.36-.64-.76-1.58-.15-2.35,.05-7.88,1.99-15.74,4.01-23.61,6.05-2.16,.56-4.2,1.39-6.14,2.54-2.75,1.63-5.23,3.62-8.14,5.96,.21-1.44,.34-2.32,.46-3.21,.84-6.06,1.53-12.13,.52-18.25-1.16-6.99-2.73-13.9-4.18-20.83-.36-1.7-.73-3.4-1.13-5.08-.13-.53-.32-1.12-.95-1.26-.66-.15-1,.39-1.32,.83-.49,.67-.97,1.36-1.39,2.08-3.69,6.22-7.63,12.27-11.92,18.09-3.68,5-5.58,10.66-7.05,16.55-.16,.63,.14,1.59-.72,1.77-.69,.14-.92-.73-1.29-1.2-3.61-4.67-8.07-8.16-13.69-10.14-5.87-2.06-11.01-5.27-15.1-10.03-.95-1.1-1.79-2.29-2.71-3.42-.25-.31-.59-.67-1.06-.38-.32,.2-.33,.58-.28,.94,.07,.48,.15,.96,.23,1.44,1.05,6.22,2.21,12.42,2.62,18.75,.17,2.72-.33,5.4-.04,8.1,.49,4.62,2.51,8.63,4.85,12.52,1.44,2.4,1.39,2.59-1.27,2.82-6.93,.6-13.88,.32-20.83,.3-.86,0-2.03-.43-2.49,.51-.52,1.07,.61,1.77,1.23,2.41,3.19,3.31,5.73,7.15,8.6,10.71,3.75,4.67,8.22,8.4,13.65,10.94,1.22,.57,1.31,.9,.2,1.74-3.92,2.99-7.78,6.05-11.65,9.1-.53,.42-1.25,.85-1.06,1.64,.17,.71,.98,.72,1.56,.84,2.92,.6,5.84,1.29,8.79,1.71,5.66,.8,11.39,1.35,16.9-.67,6.19-2.26,12.41-4.57,17.48-9.04,.29-.25,.6-.6,1.24-.44-.2,.79-.38,1.58-.6,2.37-1.52,5.56-2.8,11.18-3.85,16.85-.23,1.23-.03,2.02,1.38,2.23,1.3,.2,1.97-.29,2.15-1.58,.27-1.93,.58-3.84,.86-5.77,.56-3.89,1.12-7.78,1.68-11.74,1.13,.33,1.28,1.17,1.63,1.79,2.51,4.56,5.63,8.63,9.92,11.63,7.77,5.43,16.94,6.16,25.93,7.42,.6,.08,1.32,.08,1.65-.6,.35-.7-.24-1.16-.59-1.65-2.6-3.69-5.31-7.31-7.41-11.32-1.44-2.74-1.21-3.12,1.76-3.52,4.58-.62,8.96-1.89,13.12-3.92,5.31-2.58,10.61-5.16,15.92-7.75,.6-.29,1.43-.43,1.5-1.27,.09-1.01-.85-1.18-1.49-1.5Zm-26.93-38.32c2.06-1.24,4.82-.68,6.56,1.33,.36,.42,.92,.9,.51,1.43-.58,.74-1.08-.05-1.58-.32-.18-.1-.33-.26-.48-.4-1.39-1.28-2.86-2.05-4.59-.59-1.49,1.26-1.73,3.48-.69,5.32,.64,1.13,1.61,1.46,2.8,1.36,1.31-.11,2.62-.39,3.93-.35,4.62,.14,7.33,4.71,5.12,8.5-.83,1.42-2.04,2.04-3.64,1.87-1.68-.18-2.64-1.4-3.57-2.62-.1-.14-.13-.43-.05-.58,.15-.29,.5-.29,.73-.14,.57,.38,1.11,.81,1.65,1.23,1.72,1.34,3.61,.64,4.06-1.5,.66-3.16-1.47-5.35-5.56-5.3-.31,.04-1,.11-1.68,.21-3.02,.46-4.52-.44-5.58-3.34-.89-2.45-.09-4.83,2.07-6.13Zm-34.14-15.86c.36-2.38,1.53-4.23,3.98-5.15,2.39-.9,4.04,.34,5.6,1.74,2.24,2.02,3.85,4.53,5.17,7.23,.53,1.09,.29,1.81-.78,2.39-2.87,1.55-5.68,3.21-8.58,4.69-1.66,.85-1.83,1.79-.86,3.28,1.35,2.07,2.85,3.95,5.25,4.85,2.43,.91,4.22,.01,5.04-2.46,.49-1.48,.58-2.98,.24-4.52-.12-.57-.29-1.41,.61-1.47,.74-.05,.7,.73,.76,1.26,.07,.69,.08,1.38,.1,1.89-.04,1.23,.02,2.28-.36,3.28-1.55,4.13-5.17,5.19-8.82,2.37-4.67-3.61-6.73-8.7-7.42-14.39-.2-1.64-.18-3.35,.07-4.98Zm7.77,54.96c.09,.41,.23,.81,.25,1.22,.04,.65,.45,1.64-.43,1.79-.86,.14-.84-.91-.98-1.55-1.82-8.12-3.62-16.24-5.41-24.36-.14-.62-.69-1.48,.11-1.89,.93-.48,1.55,.38,2.03,1.02,1.84,2.44,3.62,4.91,5.42,7.38,3.3,4.54,6.58,9.09,9.87,13.64,.2,.28,.44,.56,.55,.88,.2,.58,1.27,1.17,.42,1.73-.71,.47-1.18-.49-1.57-1.01-1.97-2.68-4.02-5.31-5.82-8.11-1.16-1.8-2.26-2.01-3.82-.68-.9,.76-2.4,1.01-2.27,2.68,.55,2.41,1.1,4.85,1.65,7.28Zm-21.97-42.66c.52-.38,.89,.15,1.2,.51,1.98,2.32,3.92,4.67,5.92,6.97,1.29,1.48,2.66,2.89,4.25,4.59,.79-3.38-.25-6.21-.36-9.08-.09-2.28-.43-4.55-.6-6.83-.04-.55-.3-1.43,.63-1.47,.68-.03,.75,.71,.79,1.27,.46,5.8,.92,11.61,1.36,17.41,.04,.59,.23,1.34-.51,1.65-.64,.26-1-.27-1.37-.69-3.59-4.14-7.18-8.28-10.77-12.42-.14-.16-.29-.3-.41-.47-.32-.46-.75-.99-.13-1.44Zm-7.83-3.78c.48,.07,.67,.46,.88,.81,4.4,7.54,9.08,14.91,13.2,22.61,.28,.52,.89,1.21,.21,1.65-.73,.48-1.07-.38-1.34-.89-3.94-7.41-8.56-14.42-12.75-21.68-.31-.54-.67-1.06-.68-1.72,0-.37,.03-.7,.48-.78Zm-14.14,3.9c-.04-.2-.09-.41-.09-.62-.02-1.94-.31-4.03,1.83-5.13,1.48-.76,4.41,.33,5.8,1.98,.26,.31,.7,.63,.42,1.07-.35,.55-.85,.28-1.27,0-.46-.31-.88-.69-1.37-.95-.96-.5-1.94-1.42-3.07-.79-1.15,.63-.85,1.93-.92,3.03,.22,3.81,1.68,7.25,3.2,10.7,2.02,4.6,4.36,9.01,7.48,12.95,.99,1.25,2.12,3.14,3.98,2.36,1.78-.75,1.41-2.84,1.24-4.47-.41-3.91-1.92-7.51-3.3-11.15-.65-1.72-1.67-1.21-2.79-.6-.45,.25-1.06,.78-1.46,.13-.39-.63,.31-.95,.75-1.27,2.72-2.01,3.66-1.77,4.86,1.34,1.38,3.56,2.78,7.12,3.32,10.94,.08,.55,.2,1.1,.18,1.65-.05,2-.28,4-2.44,4.88-2.09,.86-3.49-.55-4.62-1.95-5.72-7.14-9.83-15.09-11.72-24.1Zm23.77,51.9c-1.03,2.71-3.58,3.3-5.54,1.19-2.49-2.69-3.85-6.08-5.41-9.33-.93-1.94-1.87-3.88-2.76-5.84-.55-1.22-1.42-1.61-2.69-1.32-1.55,.35-3.18,.42-4.52,1.45-1.52,1.16-1.48,2.2,.18,3.12,.42,.23,1.04,.3,.78,.96-.27,.67-.89,.54-1.44,.4-1.97-.5-2.76-2.8-1.52-4.5,1.14-1.55,2.81-2.18,4.62-2.56q2.99-.62,1.65-3.44c-.24-.5-.48-1-.7-1.51-.22-.51-.56-1.16,.03-1.5,.69-.4,.94,.37,1.18,.82,.53,.97,1.05,1.96,1.48,2.98,.68,1.62,1.78,1.94,3.36,1.37,1.52-.54,2.93-1.27,4.29-2.11,.44-.28,1.07-.72,1.43,0,.33,.65-.38,.94-.8,1.27-1.52,1.16-3.35,1.66-5.06,2.42-.81,.36-1.28,.73-.81,1.72,2.23,4.62,4.01,9.48,7,13.71,.62,.88,1.28,2,2.66,1.49,1.3-.48,1.54-1.67,1.59-2.9,.04-1.43-.59-2.71-.9-4.05-.11-.46-.3-1.04,.37-1.2,.49-.11,.7,.37,.88,.74,1.05,2.13,1.55,4.3,.67,6.63Zm36.66,9.47c-.97,1.87-3.14,3.04-5.56,3-5.21-.08-9.36-2.91-11.25-7.79-2.28-5.89-4.54-11.79-6.74-17.72-.89-2.39-2.13-4.51-4.05-6.21-1.87-1.65-3.96-1.38-5.28,.74-1.08,1.73-1.46,3.59-.58,5.55,1.14,2.53,2.28,5.07,3.38,7.61,.29,.66,1.04,1.6,.21,2.04-.96,.51-1.16-.73-1.43-1.34-2.93-6.44-5.72-12.96-9.5-18.98-.32-.51-.99-1.33-.04-1.77,.74-.34,.98,.57,1.28,1.07,1.06,1.79,2.11,3.59,3.11,5.42,.67,1.23,1.26,1.67,2.04,.09,.4-.82,1.03-1.47,1.78-2.01,2.8-2,5.51-1.02,7.9,2.66,3.19,4.89,4.58,10.53,6.77,15.84,.95,2.31,1.72,4.7,2.71,6.99,1.8,4.17,6.03,6.65,10.55,6.33,1.33-.09,2.39-.62,3.14-1.75,2.4-3.6-.03-9.85-4.22-10.84-2.23-.53-4.05,.37-4.71,2.33-.65,1.94,.05,3.85,1.74,4.6,1.37,.6,2.58,.61,3.23-1.07,.17-.43,.33-1.08,.96-.82,.66,.27,.47,.93,.33,1.46-.56,2.11-3.45,2.88-5.56,1.49-2.26-1.49-3.02-4.31-1.82-6.8,1.16-2.41,3.79-3.45,6.54-2.57,4.64,1.49,7.34,8.08,5.08,12.43Zm10.05-17.16c-.94,.53-1.2-.77-1.6-1.42-4.16-6.83-6.78-14.46-10.97-21.28-.65-1.06-1.4-2.07-2.2-3.02-.97-1.15-2.21-1.74-3.71-1.11-1.54,.65-1.94,2.06-2.11,3.4,.04,1.18,.49,2.03,.95,2.89,4.2,7.83,8.39,15.67,12.55,23.52,.28,.53,1.17,1.27,.24,1.74-.66,.33-1.16-.62-1.47-1.2-2.27-4.14-4.5-8.3-6.73-12.46-2.69-5.02-5.37-10.04-8.05-15.07-.32-.6-.95-1.24-.5-1.9,.44-.64,.93,.06,1.42,.25,.62,.24,.78-.42,1.08-.77,2.43-2.86,5.51-2.79,7.86,.22,3.72,4.76,5.64,10.5,8.5,15.73,1.5,2.74,2.95,5.51,4.37,8.29,.35,.69,1.25,1.69,.36,2.19Zm-4.35-18.1c1.88,3.31,3.75,6.64,5.91,9.79,.38,.56,1.41,1.33,.58,1.91-.93,.65-1.37-.58-1.81-1.2-3.95-5.56-6.79-11.77-10.19-17.65-1.08-1.86-2.13-3.73-3.17-5.62-.26-.46-.68-1.06,.05-1.42,.57-.28,.87,.29,1.1,.7,1.28,2.22,2.53,4.46,3.8,6.69,.23,.41,.4,1.04,.97,.92,.54-.11,.55-.74,.6-1.22,.3-2.9,.58-5.79,.9-8.69,.08-.69-.24-1.83,.87-1.77,.9,.05,.5,1.11,.61,1.76-.36,3.08-.67,6.19-1.12,9.28-.23,1.6,.14,2.65,1.71,3.3,2.37,.98,4.68,2.09,7,3.19,.52,.25,1.39,.56,1.07,1.29-.33,.75-1.11,.26-1.64,.03-1.97-.86-3.91-1.8-5.88-2.66-.58-.26-1.26-1.01-1.84-.33-.43,.51,.18,1.15,.48,1.69Z"/>
      <path d="M63.96,35.9c2.64-1.52,5.3-3.01,7.99-4.45,1.22-.66,1.01-1.47,.48-2.41-1.34-2.39-3.12-4.42-5.24-6.13-1.69-1.36-3.06-1.24-4.64,.23-1.56,1.45-1.75,3.39-1.92,5.32,.21,2.23,.55,4.42,1.21,6.55,.37,1.2,.94,1.57,2.12,.89Z"/>
      <path d="M68.48,67.23c-1.61-2.24-3.25-4.47-4.88-6.7-.22,.07-.43,.13-.65,.2,.6,2.81,1.18,5.62,1.8,8.42,.11,.52,.21,1.3,.87,1.25,1.22-.08,2.15-.9,3.02-1.68,.54-.48,.16-1.05-.16-1.49Z"/>
    </g>
  </g>
</svg>