<?xml version="1.0" encoding="UTF-8"?>
<svg id="_图层_2" data-name="图层 2" xmlns="http://www.w3.org/2000/svg" viewBox="0 0 159.18 151.88">
  <defs>
    <style>
      .cls-1 {
        fill-rule: evenodd;
      }
    </style>
  </defs>
  <g id="_图层_2-2" data-name=" 图层 2">
    <g>
      <path class="cls-1" d="M22.18,83.02l-8.31-15.65c5.75-.48,14.75-2.78,18.33-5.3l.83-6.59c5.04,1.17,15.11,9.91,20.48,9.91,1.83,0,3.96-1.85,3.96-3.3,0-4.04-14.56-25.49-15.85-31.04,8.6,0,9.79,2.12,12.29-6.87,1.41-5.07,3.57-11.72,3.57-17.57,2.89,1.05,14.75,15.19,21.8,15.19h.66c2.45,0,4.49-4.53,6.6-5.94,0,7.55,3.8,32.14,6.6,36.33h1.98l11.66-19.57c.2,.18,4.7,3.72,4.85,3.72,7.97,0,13.96-6.17,19.15-6.6v4.62l.76,8.58h1.22s2.29-17.78,2.29-17.78c-.2-.86-1.78-1.68-2.29-2.02l-7.27,2.64c-1.54,.82-8.06,3.96-9.91,3.96h-1.98c-2.84,0-4.42-5.28-7.27-5.28s-10.32,19.2-11.23,23.12l-1.04-.03-3.58-38.28c-.53-.37-1.63-1.32-1.98-1.32-2.33,0-7.1,7.37-9.91,9.25C74.86,15.19,56.81,0,56.8,0h-1.98c-1,4.28-4.92,27.08-7.93,27.08-4.34,0-6.52-1.98-11.89-1.98-.21,.77-.66,1.8-.66,1.98,0,2.98,17.28,29.55,19.81,34.35-6.32-.14-17.24-11.89-23.12-11.89-2.55,0-2.28,4.23-2.56,6.69-.56,4.98,.23,3.24-4.61,4.64-3.21,.93-11.96,2.45-15.95,2.54-.21,.77-.66,1.8-.66,1.98,0,2.83,12.24,16.3,14.91,17.63Z"/>
      <path class="cls-1" d="M126.15,81.24c-2.59,1.37-6.6,4.09-6.6,7.93,0,1.68,10.35,10.57,11.23,13.87l-31.67-4.21-2.02,.25c-2.03,0-2.64,1.93-2.64,3.96,0,8.46,7.91,25.09,9.91,33.68l3.96,11.89,1.42,3.27c.94-.73,1.22-.09,1.22-1.95v-.66c0-14.23-11.89-32.48-11.89-45.57l34.31,3.58,1.35-.28c1.52,0,1.98-.46,1.98-1.98,0-2.18-12.55-16.43-12.55-17.17,0-2.64,1.43-4.26,1.98-6.6Z"/>
      <path class="cls-1" d="M82.56,103.7c-3.01,0-21.91,20.1-26.42,23.12l1.42-16.5c-2.22-1.13-5.11-3.18-8.03-1.33l2.5,1.55,.14,20.91c0,1.52,.46,1.98,1.98,1.98,3.25,0,24.39-24.05,29.06-24.44,1.26,5.41,7.51,22.43,12.55,23.78-1.08-4.63-3.63-11.11-5.37-15.77-1.22-3.28-3.77-13.29-7.84-13.29Z"/>
      <path class="cls-1" d="M89.83,93.79c-1.37,0,.25-1.03-3.3-1.32,.45,1.67,1.28,3.3,3.3,3.3h.66c3.66,0,4.49-2.46,5.94-4.62l.81-7.25c.26-3.31-4.59-15.55-5.43-19.17h-1.98l-1.32,3.3c-.83-.44-2.18-1.32-3.3-1.32-3.69,0-5.2,2.24-5.28,5.94,0,3.84,2.39,11.23,5.28,11.23,3.73,0,3.86-2.44,5.94-3.96,.58,2.49,1.32,4.13,1.32,7.27v3.96c0,1.55-1.1,2.64-2.64,2.64Zm-1.98-14.53c-1.83,0-3.3-4.81-3.3-7.27v-2.64h2.64c1.16,2.2,2.64,4.62,2.64,7.93,0,1.52-.46,1.98-1.98,1.98Z"/>
      <path class="cls-1" d="M158.52,56.8l-4.5-14.57-2.11,.04-.8,3.27c-2.17-.5-2.09-1.29-4.49-1.29-3.3,0-4.62,3.15-4.62,6.6v.66c0,2.73,2.97,9.91,5.94,9.91h.66c1.68,0,3.04-2.25,4.62-3.3,.69,1.3,1.32,1.95,1.32,3.96v5.94c0,1.78-.32,1.82-.66,3.3h-2.64v-1.32h-1.98l1.22,3.35,4.73-.05c2.35-3.52,3.96-3.37,3.96-9.91v-3.3c0-1.78-.32-1.82-.66-3.3Zm-8.59,0c-1.83,0-3.3-4.81-3.3-7.27v-2.64h2.64l3.58,7.8c-.97,1.15-1.16,2.1-2.92,2.1Z"/>
      <path class="cls-1" d="M17.96,101.86l-4.77-17.39-2.59,.82c-.23,.69-.69,1.72-.69,1.9,0,10.5,5.33,17.86,7.27,25.1h3.3v-13.87c3.75,4.31,.3,11.89,9.4,11.83l-6.76-19.1c-5.45,.12-4.62,4.94-5.16,10.71Z"/>
      <path class="cls-1" d="M67.37,73.97c-3.2,2.34-3.3,8.35-3.3,13.87l-.84,.19-4.72-21-3.02,2.97v5.94c2.72,4.29,1.96,20.3,9.91,20.48l.82-7.25c1.8,1.42,1.55,3.29,5.12,3.29,1.28,0,1.18-.21,1.98-.66l-6.7-9.04-1.13,.23,3.21-7.04-1.32-1.98Z"/>
      <path class="cls-1" d="M136.06,49.54c-3.23,0-3.3,7.42-3.3,11.23-2.57-3.7-1.13-7.8-6.61-7.93v2.64c0,3.59,4.4,16.51,7.27,16.51,.93,0,1.32-.9,1.32-1.98v-13.21h1.32c.34,4.03,2.78,11.89,6.6,11.89h1.98c-.28-1.19-2.75-7.25-3.75-10.12-.91-2.62-2.26-9.03-4.84-9.03Z"/>
      <path class="cls-1" d="M49.54,87.18c3.12,2.28,.99,12.37,9.25,12.55l-5.94-17.83c-.77-1.11-.09-1.32-1.98-1.32-4.39,0-3.3,8.01-3.3,12.55-1.33-1.91-2.76-9.91-5.28-9.91-1.08,0-1.98,.4-1.98,1.32,0,3.89,4.48,16.28,6.61,17.83,4.48-.37,2.64-10.6,2.64-15.19Z"/>
      <path class="cls-1" d="M36.05,84.8l-2.74,1.84-5.41,2.55-.82,5.26c-.45,2.84,2.39,12.55,5.28,12.55h.66c2.75,0,3.3-3.01,3.3-5.94,1.9,1.4,1.64,3.3,3.96,3.3,1.08,0,1.98-.4,1.98-1.32,0-.31-3.03-6.58-3.56-8.33-.96-3.15-1.68-6.49-2.66-9.91Zm-5.01,7.67v-1.32c0-1.83,.51-1.59,1.98-1.98l1.68,13.84c-1.51-.82-3.66-8.6-3.66-10.53Z"/>
      <path class="cls-1" d="M113.6,79.26c1.6-1.07,2.64-1.94,2.64-4.62v-9.91c0-4.01-.69-8.37-3.96-9.25-.65,1.3-.95,.09-.35,1.93l2.21,14.5c-3.06-2.81-6.35-12.47-9.79-12.47-1.52,0-1.98,.46-1.98,1.98,0,1.81,9.14,16.44,11.23,17.83Z"/>
      <path class="cls-1" d="M6.6,98.41c0-2.59,1.86,1.29,1.98-3.96l-3.21,1.49c-.15-2.9-.69-8.1-3.4-8.1-.93,0-1.32,.9-1.32,1.98v5.28c0,1.78,.32,1.82,.66,3.3H0v2.64H1.98c.39,4.71,3.57,14.53,8.59,14.53h1.98c2.01,0,2.24-1.15,2.64-2.64h-1.98c-3.26,0-6.6-10.72-6.6-14.53Z"/>
      <path class="cls-1" d="M77.28,95.11h1.32c2.03,0,3.96-.61,3.96-2.64v-1.32c0-6.35-8.59-9.38-8.59-15.19,0-1.89,.21-1.21,1.32-1.98l2.92,2.99,.38-2.33c-.45-1.67-1.28-3.3-3.3-3.3-3.25,0-4.6,2.07-5.28,4.62,.26,11.88,8.69,10.44,9.25,17.17l-4.44-2.87c-.14,2.59,.1,4.85,2.45,4.85Z"/>
      <path class="cls-1" d="M105.02,82.56h2.64c-.31-3.78-5.94-7.41-5.94-17.17-1.19-.8-1.16-1.32-2.64-1.32s-3.3,.86-3.3,2.64c0,2.68,5.93,15.85,9.25,15.85Z"/>
      <path class="cls-1" d="M128.13,75.3c.09,0,1.31-.65,1.32-.66-.53-1.99-3.44-4.79-4.88-8.99-.84-2.46-1.55-9.51-3.7-9.51-1.54,0-3.3,.86-3.3,2.64,0,4.64,5.25,16.51,10.57,16.51Z"/>
      <path class="cls-1" d="M99.73,60.1c0-1.12-.88-2.47-1.32-3.3h-2.64l-1.98,1.98v1.98c.69,1.03,.88,1.98,2.64,1.98,1.37,0,3.3-1.93,3.3-2.64Z"/>
      <path class="cls-1" d="M118.23,54.82c1.55,0,2.64-1.1,2.64-2.64v-.66c0-2.07-1.19-1.87-2.64-2.64-.9,.48-3.3,1.45-3.3,2.64,0,1.54,.86,3.3,2.64,3.3h.66Z"/>
    </g>
  </g>
</svg>