<?xml version="1.0" encoding="UTF-8"?>
<svg id="_图层_2" data-name="图层 2" xmlns="http://www.w3.org/2000/svg" viewBox="0 0 114.17 126.03">
  <g id="_图层_2-2" data-name=" 图层 2">
    <g>
      <path d="M114.12,56.83c-.15-2.61-.57-5.16-1.32-7.67-.42-1.39-.98-2.73-1.64-4.01-.75-1.45-1.64-2.84-2.64-4.15-.94-1.24-1.99-2.37-3.11-3.45-.33-.32-.59-.76-.95-.99-.77-.49-1.51-1.04-2.24-1.58-1.04-.77-2.23-1.21-3.42-1.6-3.16-1.03-6.33-.78-9.47,.12-.59,.17-1.12,.15-1.68-.03-1.09-.35-2.05-1-3.14-1.32-.69-.21-1.32-.54-2.09-.61-1.79-.16-3.57-.19-5.35-.03-.74,.07-1.51-.05-2.2,.17-.99,.3-2.01,.41-3.01,.62-.86,.18-1.74-.37-2.01-1.17-.32-.93-.65-1.86-.95-2.8-.42-1.31-1.1-2.54-1.28-3.92-.53-3.97-.31-8-.76-11.98-.13-1.12-.45-2.2-.53-3.32-.01-.19-.18-.36-.27-.55-.26-.51-.7-1.01-.72-1.52-.02-.67-.25-1.24-.46-1.83-.39-1.09-1.15-1.96-2.06-2.6-1-.71-2.15-1.2-3.24-1.77-.35-.18-.57-.54-.97-.64-1.24-.3-2.55-.29-3.73,0-1.91,.46-3.56,1.6-5.03,2.89-1.14,1.01-2.03,2.25-2.72,3.62-.17,.34-.38,.49-.77,.46-1.98-.14-3.79,.4-5.48,1.39-3.29,1.92-5.44,4.69-6.21,8.47-.22,1.08,.1,2.04,.73,2.9,.13,.18,.32,.45,.59,.37,.23-.07,.14-.36,.16-.55,.25-2.08,.96-3.99,2.26-5.63,1.02-1.29,2.2-2.43,3.58-3.34,.77-.51,1.62-.78,2.57-.71,1.15,.09,1.21,.17,.91,1.25-.13,.46-.24,.92-.35,1.37-.46,1.8-.48,3.57,.2,5.33,.24,.63,.46,1.32,1,1.74,1.22,.94,3.13,.71,4.06-.5,1.44-1.87,2.06-4.01,1.71-6.37-.23-1.62-.93-3.05-2.07-4.24-.2-.21-.41-.42-.21-.75,.98-1.57,2.13-3,3.93-3.65,3.22-1.15,5.23,.33,6.83,3.08,.78,1.33,.57,2.88,.17,4.33-.31,1.15-.67,2.29-1.1,3.4-.78,2.03-1.28,4.17-2.39,6.07-.19,.32-.47,.55-.62,.9-.35,.82-.73,1.64-1.19,2.41-.85,1.44-1.78,2.84-2.66,4.27-.46,.75-1.09,1.38-1.58,2.12-.91,1.38-2.63,2.08-4.2,1.54-2.56-.88-5.2-1.2-7.89-1.12-1.91,.05-3.75-.08-5.59-.76-1.79-.67-3.71-.88-5.74-.85-1.01-.04-2.12,.23-3.22,.21-2.03-.05-3.67,1.06-5.36,1.84-1.42,.66-2.77,1.62-4.02,2.65-.3,.24-.69,.4-.94,.67-.73,.81-1.59,1.48-2.33,2.27-1.09,1.16-2.16,2.3-3.03,3.64-1.42,2.19-2.69,4.45-3.74,6.85-1.42,3.27-2.59,6.6-3.44,10.06C.61,62.49,.03,67.22,0,72c-.02,3.41,.27,6.81,.71,10.2,.52,3.93,1.36,7.77,2.84,11.46,.42,1.04,1.05,2.01,1.23,3.15,.17,1.06,.74,1.97,1.29,2.81,.83,1.28,1.54,2.64,2.53,3.82,.61,.73,1.02,1.64,1.68,2.31,1.03,1.04,2.34,1.77,3.41,2.79,.29,.28,.64,.54,1.01,.67,1.65,.58,3.31,1.13,5.1,.9,.37-.05,.75-.02,1.07,.21,.8,.6,1.61,1.16,2.46,1.68,.9,.57,1.7,1.27,2.64,1.82,1.38,.8,2.84,1.41,4.22,2.19,2.19,1.24,4.61,1.7,7.13,1.6,.43-.02,.77,.12,1.13,.39,.37,.28,.65,.63,1.08,.87,.85,.47,1.68,1.04,2.37,1.72,.34,.33,.64,.69,1.07,.91,.23,.12,.52,.15,.73,.3,1.11,.77,2.41,1.16,3.63,1.67,.96,.4,1.87,1,2.95,1.14,.46,.06,.91,.25,1.35,.4,1.78,.62,3.6,.97,5.49,1,2.61,.04,5.21-.11,7.8-.44,1.87-.24,3.65-.66,5.36-1.51,1.18-.58,2.14-1.39,2.95-2.36,.55-.66,1.13-.92,1.95-.8,.3,.05,.62,.05,.92,.02,3.35-.36,6.63-.9,9.11-3.52,1.05-.37,1.55-1.43,2.52-1.99,.88-.5,1.79-1.01,2.69-1.48,1.57-.82,3.17-1.57,4.62-2.62,1.47-1.07,2.86-2.21,4.15-3.49,1.51-1.5,2.84-3.16,4-4.94,1.53-2.36,2.86-4.85,3.83-7.49,.66-1.81,1.6-3.51,2-5.42,.14-.65,.37-1.32,.54-1.98,.15-.62,.41-1.26,.29-1.93-.12-.65-.19-1.29,.25-1.88,.14-.18,.18-.47,.19-.71,.03-.89,.28-1.75,.44-2.61,.73-4,1.55-7.99,2.31-11.98,.76-3.98,1.31-7.98,1.08-12.05ZM48.64,16.18c-.12,.17-.24,.43-.52,.33-.23-.08-.23-.32-.24-.52,0-.22,0-.45,0-.68,.04-1.02,.12-2.04,.36-3.04,.03-.13,.01-.32,.21-.33,.13,0,.18,.14,.25,.24,.79,1.21,.77,2.8-.06,3.99Zm-22.64,57.4c-.35-.53-.45-1.14-.56-1.75-.34-1.8-.49-3.62-.51-5.45-.02-1.22-.38-2.39-.53-3.59-.24-1.94-.34-3.88-.45-5.83-.08-1.37-.12-2.75-.36-4.11-.21-1.17-.67-1.45-1.82-1.17-.34,.08-.66,.21-1,.31-.44,.13-.9,.19-1.32-.05-.51-.29-.75-.76-.74-1.33,.02-.57,.41-.88,.9-1.05,1.38-.47,2.81-.78,4.24-1.06,2.1-.41,4.21-.72,6.21-.95,.43,.01,.74-.04,1.03,.1,.5,.24,.82,.62,.8,1.2,0,.39-.63,1.16-1.06,1.25-.74,.15-1.5,.26-2.25,.38-.2,.03-.41,.04-.61,.1-1.61,.46-1.84,.69-1.71,2.38,.16,2.04,.46,4.08,.52,6.13,.1,3.35,.84,6.63,1.13,9.97,.08,.94,.09,1.88,.26,2.82,.13,.73,0,1.43-.65,1.94-.63,.5-1.09,.43-1.53-.24Zm10.58,26.08c-.21,1.06-.4,2.14-1.09,3.05-1.45,1.92-4.43,2.01-5.83,0-.58-.84-.95-1.77-1.28-2.72-1.47-4.19-2.21-8.51-1.95-12.95,.13-2.19,.44-4.37,1.19-6.46,.18-.5,.43-.98,.74-1.42,1.29-1.81,3.69-2.33,5.59-1.18,.71,.43,1.15,1.06,1.19,1.91,.03,.59-.25,1.03-.75,1.32-.51,.3-.9-.03-1.28-.3-.27-.18-.5-.44-.78-.6-.7-.41-1.26-.29-1.68,.39-.83,1.35-1.16,2.88-1.28,4.43-.13,1.68-.25,3.36-.14,5.05,.22,3.43,1.03,6.73,2.27,9.93,.06,.15,.14,.3,.23,.43,.24,.36,.57,.51,1,.47,.42-.04,.61-.34,.71-.68,.31-1.07,.44-2.17,.5-3.28,.04-.7,0-1.4,0-2.1,0,0-.01,0-.02,0,0-.66,0-1.32,0-1.97,0-1.18-.22-2.25-1.17-3.11-.66-.59-.68-1.08-.34-1.63,.38-.61,1.01-.84,1.77-.64,1.43,.37,2.16,1.35,2.39,2.75,.52,3.1,.62,6.21,0,9.31Zm8.87,4.17c-1.07,.78-2.3,.93-3.57,.63-.54-.13-.79-.7-.64-1.43,.16-.79,.28-1.57,.36-2.37,.21-2.02-.01-4.02-.3-6.01-.4-2.7-.65-5.42-.94-8.13-.18-1.67-.41-3.34-.63-5.01-.09-.68-.42-1.24-.93-1.69-.39-.34-.82-.71-.62-1.29,.21-.6,.69-.96,1.32-1.06,.36-.05,.74-.04,1.11-.06,.47,.01,.94,.01,1.41,.11,.32,.07,.5,.24,.52,.58,.03,.47,.02,.94-.03,1.41-.27,2.51,.29,4.94,.58,7.41,.36,2.95,.64,5.92,.96,8.88,.15,1.43,.29,2.86,.46,4.28,.08,.64,.37,1.17,.92,1.54,1.02,.69,1.06,1.47,.05,2.2Zm1.15-33.97c-.02,.73-.43,1.05-1.27,1.14-.6,.06-1.04-.24-1.23-.87-.11-.38-.17-.75-.13-1.15,.1-.93,.06-1.84-.24-2.74-.3-.87-.15-1.8-.26-2.69-.05-.41-.21-.6-.61-.6-.72,0-1.43-.06-2.15-.12-1.07-.09-1.5,.35-1.5,1.44,0,.81,.29,1.57,.42,2.36,.15,.94,.22,1.88,.19,2.82-.03,.86-.48,1.44-1.15,1.49-.7,.05-1.41-.56-1.52-1.35-.22-1.65-.38-3.3-.62-4.95-.21-1.42-.33-2.84-.55-4.26-.29-1.95-.75-3.89-.72-5.91,.02-1.25-.41-2.5-.63-3.76-.1-.59-.21-1.17-.28-1.76-.1-.78,.29-1.36,.97-1.49,.82-.16,1.46,.19,1.6,1.02,.26,1.54,.45,3.09,.75,4.61,.26,1.36,.1,2.77,.59,4.11,.25,.69,.18,1.5,.18,2.26,0,.59,.27,.82,.82,.81,1.05,0,2.1-.02,3.14,0,.38,0,.54-.13,.59-.53,.1-.82,.07-1.64,.08-2.46,.15-1.25-.15-2.44-.39-3.65-.21-1.02,0-2.05,.06-3.07,.05-.7,.53-.92,1.2-.66,.95,.37,1.33,.92,1.32,1.92,0,1.15-.1,2.29,.31,3.41,.2,.55,.07,1.18,.07,1.78,0,1.15,0,2.3,.35,3.42,.09,.29,.15,.61,.13,.91-.12,1.88,.17,3.71,.43,5.56,.13,.97,.09,1.97,.07,2.95Zm11.53,18.99c-.14,2.46-.33,4.92-.56,7.37-.21,2.27-.49,4.53-1.06,6.75-.12,.48-.37,.96-.65,1.38-.51,.75-1.75,.77-2.36,.09-.68-.76-.81-1.74-1.03-2.67-1.03-4.51-1.64-9.09-2.36-13.65-.42-2.66-.9-5.3-1.51-7.93-.05-.2-.09-.4-.13-.6-.15-.9,.12-1.43,.82-1.61,.69-.18,1.38,.16,1.64,.93,.29,.86,.5,1.74,.69,2.62,.86,4.02,1.45,8.09,2.16,12.13,.15,.88-.02,1.82,.57,2.6,.07,.1,.13,.21,.2,.31,.02,.03,.07,.03,.16,.07,.03-.1,.06-.16,.06-.21-.07-2.76,.25-5.5,.4-8.24,.16-2.95,.37-5.9,.59-8.85,.08-.99,.53-1.34,1.5-1.29,.77,.04,1.26,.57,1.23,1.47-.1,3.12-.2,6.24-.37,9.35Zm2.55-19.88c0,.61-.34,1.02-.74,1.35-.56,.47-1.41,.11-1.72-.69-.37-.97-.35-2.01-.47-3.03-.08-.71-.1-1.43-.19-2.15-.09-.73-.43-1.08-1.15-1.12-.78-.04-1.56,0-2.34,0-.38,0-.53,.2-.57,.58-.08,.96-.14,1.92-.11,3.21,.34,1.22-.43,2.62-.55,4.11-.06,.77-.53,1.03-1.34,.97-.69-.04-1.04-.4-1.14-1.14-.04-.33-.07-.67,.05-.98,.46-1.18,.43-2.41,.41-3.65,0-.64,.04-1.25,.29-1.87,.23-.6,.11-1.26,.11-1.89,0-1.19-.07-2.38,.4-3.52,.12-.31,.1-.69,.08-1.04-.14-1.8,.41-3.52,.53-5.29,.08-1.17,.55-2.27,.94-3.37,.28-.8,.83-1.3,1.71-1.39,.9-.09,1.49,.34,1.88,1.11,.83,1.66,1.34,3.43,1.69,5.25,.23,1.18,.23,2.42,.81,3.52,.17,.33,.02,.74,.08,1.1,.23,1.29,.41,2.6,.72,3.87,.48,1.99,.67,4,.63,6.04Zm8.41,36.04c-.24,.17-.5,.3-.78,.35-1.07,.19-2.14,.38-3.22,.57-.64,.11-1.07-.22-1.39-.71-.31-.46-.17-.91,.15-1.31,.45-.56,.58-1.18,.58-1.89,0-4.05-.18-8.09-.41-12.13-.15-2.62-.39-5.24-.58-7.86-.02-.33-.03-.66-.01-.99,.03-.44-.14-.75-.52-.97-.21-.12-.43-.25-.61-.41-.35-.32-.73-.65-.54-1.2,.2-.58,.54-1.02,1.23-1.02,.37,0,.74,0,1.18,0,.54-.03,1.16,0,1.76,.13,.74,.17,.92,.46,.78,1.19-.04,.2-.08,.41-.17,.59-.6,1.16-.46,2.39-.37,3.62,.11,1.39,.2,2.78,.29,4.18,.24,3.85,.49,7.7,.72,11.55,.06,.9,.09,1.8,.15,2.7,.07,.96,.16,1.39,1.25,1.45,.49,.03,.85,.33,.95,.83,.1,.51,.04,.99-.44,1.32Zm-2.22-47.42c-.16-.38-.32-.76-.49-1.13-.07-.16-.11-.43-.31-.42-.23,.02-.36,.27-.4,.49-.08,.57-.21,1.15-.15,1.71,.16,1.5,.12,2.99,.09,4.49-.05,2.28,.17,4.56,.12,6.84-.01,.52-.09,1.02-.38,1.47-.34,.53-.85,.64-1.4,.52-.53-.11-.47-.58-.54-.98-.75-4.45-.19-8.94-.37-13.41-.08-1.91-.07-3.82-.1-5.73,0-.31,0-.62,0-.92,.02-1.04,.35-1.64,.98-1.8,.86-.22,1.78,.18,2.28,.98,.37,.6,.6,1.26,.83,1.91,.58,1.65,1.3,3.24,2.2,4.75,.86,1.45,1.51,3.01,2.25,4.52,.19,.4,.34,.83,.69,1.27,.36-.91,.44-1.74,.35-2.58-.16-1.51,0-2.99,.31-4.47,.07-.32,.12-.64,.11-.98,0-1.01-.02-2.01,0-3.02,.01-.74,.31-1.15,.85-1.26,.67-.13,1.3,.16,1.6,.77,.14,.28,.24,.58,.22,.89-.12,2.95,.24,5.92-.26,8.86-.39,2.27-.16,4.55-.23,6.82-.06,1.82-.38,2.16-2.2,2.1-.69-.02-1.16-.33-1.43-.97-1.53-3.57-3.07-7.13-4.61-10.7Zm15.97,36.66c-.05,3.1-.15,6.2-.48,9.28-.1,1-.57,1.49-1.34,1.6-1.01,.15-1.61-.26-1.93-1.37-.62-2.21-1.23-4.43-1.84-6.65-.78-2.87-1.56-5.75-2.34-8.62-.05-.18-.02-.48-.27-.48-.23,0-.29,.26-.35,.45-.07,.21-.13,.44-.13,.66,.03,4.9,.06,9.81,.09,14.71,0,.18,0,.37-.04,.55-.1,.52-.35,.92-.94,.99-.67,.08-1.16-.17-1.41-.74-.11-.25-.17-.5-.18-.78-.03-1.09-.09-2.18-.11-3.26-.1-5.57-.18-11.13-.3-16.7-.03-1.15-.07-2.3-.07-3.45,0-1.06,.37-1.59,1.18-1.77,.91-.2,1.66,.14,2.09,1.02,.91,1.89,1.67,3.84,2.42,5.8,.91,2.38,1.77,4.77,2.29,7.27,.02,.08,.05,.16,.2,.17,.21-.34,.26-.74,.32-1.14,.26-1.67,.29-3.35,.17-5.04-.08-1.13-.06-2.26,.01-3.39,.05-.77-.02-1.56-.06-2.34-.04-.7,.23-1.34,.48-1.96,.15-.38,.5-.71,1.01-.67,.59,.04,1.08,.26,1.35,.81,.17,.34,.2,.71,.2,1.08,0,4.64,.04,9.29-.03,13.93Zm-.95-32.28c-.33-.46-.53-.42-.77,.1-.29,.63-.19,1.28-.17,1.94,.05,1.49,.15,2.99-.45,4.42-.29,.7-.51,.83-1.46,.76-.58-.04-.86-.41-.97-.94-.2-.9-.12-1.8,.09-2.69,.15-.64,.2-1.29,.2-1.95-.01-4.81-.01-9.62-.01-14.43,0-.35-.01-.7,.03-1.05,.1-.9,.6-1.4,1.36-1.38,.77,.02,1.24,.52,1.27,1.44,.04,1.11,0,2.22,0,3.33,0,.88,0,1.76,0,2.63,.06,.02,.12,.03,.18,.05,.63-.98,1.26-1.96,1.89-2.94,.48-.74,.95-1.49,1.45-2.22,.18-.27,.41-.52,.65-.73,.52-.44,1.11-.38,1.71,.15,.56,.5,.62,.95,.25,1.58-1.22,2.11-2.59,4.12-3.88,6.19-.14,.22-.34,.41-.47,.64-.49,.84-.4,1.65,.28,2.38,1.32,1.4,2.7,2.75,3.97,4.2,.56,.64,1.17,1.33,1.13,2.31-.02,.55-.3,.89-.76,1.1-.49,.22-1.01,.25-1.33-.24-1.16-1.77-2.95-2.96-4.19-4.66Zm13.17,36.2c-.31,1.34-.68,2.66-1.53,3.79-.89,1.18-2.5,1.51-3.84,.85-1.4-.7-2.1-1.97-2.84-3.21-1.09-1.81-1.42-3.84-1.58-5.9-.18-2.25-.33-4.5-.14-6.77,.21-2.56,.67-5.05,1.68-7.42,.66-1.56,1.74-2.71,3.54-2.88,1.36-.13,2.56,.33,3.5,1.33,.46,.49,.52,1.1,.25,1.73-.29,.67-.79,.83-1.47,.51-.16-.08-.37-.11-.5-.22-1.3-1.07-2.21-.8-2.99,1.01-.74,1.69-.98,3.53-1.16,5.34-.29,3.04-.25,6.08,.47,9.07,.4,1.65,.96,3.24,2.23,4.46,.46,.44,.54,.43,.79-.18,.82-1.96,1.17-4.02,1.3-6.12,.06-.94,.07-1.89,.09-2.83,.02-.58-.18-1.01-.74-1.29-.77-.39-1.09-1.07-.91-1.7,.2-.73,.73-1.06,1.66-1.06,.06,0,.12,0,.18,0,1.66,.02,2.68,.83,2.65,2.67,0,.66,0,1.32,0,1.97,.06,2.31-.13,4.6-.65,6.85Zm.9-46.83c-.06,.83-.99,1.34-1.71,.94-1.23-.68-1.36-.6-1.41,.8-.04,1.21,.35,2.31,.8,3.39,1.12,2.72,1.84,5.53,2.01,9.57,.08,1.18-.97,2.67-3,3.62-.85,.4-1.62,.66-2.5,.14-.41-.24-.67-.62-.88-1.01-.22-.42,.05-.75,.39-.98,.28-.19,.61-.24,.93-.32,1.81-.47,2.48-1.52,2.26-3.36-.34-2.76-1.29-5.34-2.21-7.94-.75-2.11-.9-4.22,.27-6.26,.58-1.02,1.44-1.53,2.65-1.41,1.48,.15,2.5,1.32,2.4,2.81Z"/>
      <path d="M55.76,54.22c0-.36-.21-.6-.56-.62-.36-.02-.41,.29-.44,.56-.07,.59,.01,1.23-.19,1.76-.34,.9-.31,1.81-.31,2.73,0,.53,0,1.07,0,1.6,0,.36,.16,.5,.52,.52,1.52,.1,2.13-.63,1.81-2.1-.32-1.48-.84-2.92-.83-4.46Z"/>
    </g>
  </g>
</svg>