<?xml version="1.0" encoding="UTF-8"?>
<svg id="_图层_2" data-name="图层 2" xmlns="http://www.w3.org/2000/svg" viewBox="0 0 154.53 131.31">
  <g id="_图层_2-2" data-name=" 图层 2">
    <g>
      <path d="M15.18,30.03c2.16-2.75,5.14-4.43,8.64-5.06,5.25-.95,10.01,3.91,9.01,8.96-2.69,0-5.37-.2-8,.04-4.16,.38-7.62,2.2-9.66,6-1.38,2.58-1.52,5.32,.11,7.89,1.59,2.49,4.01,3.4,6.89,3.19,4.64-.34,7.87-2.99,10.13-6.77,1.39-2.33,2.3-4.95,3.51-7.63,1.15,.48,2.36,.98,3.7,1.53-5.13,9.54-8.47,19.23-8.58,29.85,3.98,.36,4.17,.21,4.36-3.24,.43-8.03,2.98-15.48,6.17-22.77,.9-2.06,1.81-2.76,4.31-2.19,13.74,3.12,26.18-.55,30.06-17.99,.81-3.65,2-7.32,3.71-10.63,1.2-2.32,3.28-4.47,5.48-5.93,2.91-1.93,6.88-.3,8.37,2.83,1.33,2.79,.22,5.29-3.1,6.98,4.25-.08,7.11-3.59,6.25-7.66C95.52,2.68,90.9-.32,85.1,.03c-9.44,.57-18.22,8.36-20.93,18.57-.2,.76-.43,1.52-.7,2.44-4.15-1.66-8.14-1.87-11.99-.06-1.71,.8-2.8,.81-4.3-.57-2.88-2.65-6.38-3.76-9.93-3.12,2.39,1.87,5.03,3.51,7.11,5.68,1.98,2.07,2.69,2.48,4.96,.79,4.81-3.58,7.91-3.44,12.59,.28,.95,.75,2.43,1.23,3.6,1.12,.51-.05,1.07-1.85,1.25-2.91,1.12-6.41,3.38-12.23,8.22-16.79,2.17-2.04,4.73-3.28,8.11-3.65-5.84,5.13-7.6,8.37-9.27,15.9-.8,3.58-1.64,7.2-3.04,10.57-4.34,10.46-16.71,14.62-26.85,9.12,.56-.95,1.24-1.84,1.64-2.85,.28-.7,.16-1.55,.22-2.33-.92,.25-2.11,.22-2.72,.8-1.09,1.04-1.83,2.45-2.65,3.61-3.09-.59-4.89-1.49-5.38-5.11-.92-6.77-7.21-10.07-13.69-7.83-4.6,1.58-8.09,4.74-10.95,8.54C.74,45.07-1.79,59.51,1.16,75.1c.13,.71,.57,1.37,.94,2.22,2.52-2.87,2.84-4.36,2.23-7.88-2.57-14.83,1.74-27.81,10.85-39.41Zm13.75,16.05c-2.3,2.49-5.13,3.7-8.44,2.53-2.17-.77-3.19-2.68-3.29-4.99-.13-3.19,2.04-6.83,4.84-8.06,3.69-1.63,7.33-.95,11.23,.28-.51,4.06-1.75,7.45-4.34,10.25Z"/>
      <path d="M106.75,28c-3.02,.78-5.78,2.59-8.68,3.94-5.19-6.01-12.32-8.61-15.35-5.3,.68,.19,1.25,.51,1.83,.5,5.16-.1,8.51,2.57,10.54,7.03,1.04,2.28,1.93,2.09,3.58,.57,3.99-3.69,8.57-6.14,14.25-5.12,5.37,.96,8.9,4.59,11.82,8.85,4.83,7.05,7.41,14.99,8.26,23.42,.58,5.69,.47,11.43-2.21,16.74-2.34,4.65-6.69,6.62-11.59,5.11,.68-.72,1.29-1.35,1.87-2,2.99-3.43,4.23-7.38,2.84-11.77-.97-3.04-2.24-6.04-3.77-8.84-1.51-2.77-2.87-5.28-.15-8.04,.3-.3,.38-.83,.52-1.26,.88-2.87-.18-5.26-2.53-5.73-2.5-.5-4.93,1.28-5.14,4.1-.12,1.6,.04,3.38,.63,4.85,.8,2.01,.07,2.88-1.62,3.57-.92,.38-1.8,.89-2.69,1.33,.16,.39,.33,.77,.49,1.16,1.8-.67,3.6-1.34,5.36-2,7.43,10.25,8.1,17.87,1.91,23-.64-.74-1.27-1.49-1.93-2.22-2.95-3.28-6.35-5.91-10.78-6.77-3.44-.67-6.2,.85-7.42,3.84-1.06,2.59-.2,5.08,2.72,7.06,4.63,3.14,9.63,3.88,14.97,1.94,.91-.33,1.98-.69,2.88-.52,8.99,1.73,15.05-1.45,17.43-10.28,3.82-14.16,1.28-27.53-7.69-39.1-4.92-6.34-11.75-10.25-20.33-8.04Zm9.85,25.96c-.32-1.37-.83-2.73-.87-4.1-.02-.67,.83-1.36,1.29-2.05,.54,.66,1.57,1.36,1.52,1.97-.11,1.44-.74,2.84-1.16,4.26-.26-.02-.53-.05-.79-.07Zm-15.29,27.99c-.9-1.15-1.41-3.45-.85-4.65,.45-.97,2.82-1.63,4.23-1.47,4.77,.55,7.57,4.01,10.25,7.59-4.28,2.89-10.66,2.31-13.63-1.47Z"/>
      <path d="M76.16,127.53c-1.5-.83-2.6-.63-4.04,.2-4.93,2.84-10.37,2.32-14.56-1.45-1.36-1.23-2.4-1.29-4.14-.89-1.8,.41-4.16,.39-5.68-.49-2.15-1.24-3.87-3.32-5.54-5.24-2.05-2.35-3.98-4.83-5.71-7.43-.78-1.17-1.37-2.79-1.28-4.16,.32-5.07-.94-9.71-3.52-13.94-.67-1.09-2.32-1.98-3.65-2.19-1.84-.3-2.14,1.49-2.63,2.92-1.02,3.05-3.15,4.99-6.4,5.32-3.14,.32-5.52-1.17-7.16-3.77-.63-.99-1.13-2.13-1.4-3.28-2.24-9.59,.11-18.2,5.82-26,.73-.99,1.89-1.79,3.01-2.35,1.79-.9,3.9-.59,4.37,1.35,.47,1.96,.08,4.25-.44,6.27-.48,1.87-2.1,2.35-4.01,1.76-.36-.11-.89,.36-1.58,.66,.56,.47,.85,.87,1.23,1.02,2.44,.96,4.71,.74,6.59-1.23,2.03-2.12,2.47-5.93,1.08-8.51-1.4-2.61-3.73-4.03-6.36-3.16-2.29,.76-4.66,1.91-6.41,3.52-5.02,4.61-7.31,10.79-8.2,17.35-.42,3.09-.27,6.51,.62,9.49,2.3,7.76,11.46,11.03,17.78,6.57,1.51-1.06,2.6-2.72,4.03-4.26,3.18,3.62,5.66,7.42,5.01,12.27-2.95-.43-5.56-1.25-8.08-1.06-3.79,.28-6.3,4.02-5.58,7.48,.64,3.05,4.4,5.04,7.99,3.81,2.16-.74,4.06-2.21,6.18-3.42,2.24,2.7,4.51,5.72,7.07,8.47,3.47,3.71,7.65,5.6,12.91,4.3,.86-.21,2.11,.32,2.92,.89,3.77,2.64,7.94,3.6,12.32,2.5,3.15-.79,6.06-2.28,9.44-.81,.99,.43,2.41,.19,3.53-.11,1.74-.47,3.73-.78,4.85-3.5-1.39,.45-2.24,.62-2.99,.99-2.47,1.2-4.99,1.44-7.41,.11Zm-52.79-11.43c-1.6-.98-2.54-2.57-1.67-4.14,.61-1.1,2.41-2.3,3.54-2.17,2.13,.23,4.16,1.37,6.49,2.23-2.41,4.52-5.52,5.82-8.36,4.08Z"/>
      <path d="M99.66,51.55c2.48-.17,4.27-2.08,4.31-4.93,.03-2.49-1.67-4.64-4.34-5.38-4.04-1.12-7.65-.1-10.14,3.17-1.65,2.17-2.97,2.07-5.23,1.2-6.78-2.61-13.78-3.03-20.84-1.19-1.08,.28-2.58,.45-1.89,2.28,.67,1.79,1.72,.94,2.86,.48,7.5-2.98,14.73-1.45,22.13,1.26-2.99,8.43-2.38,16.71-.77,25,.56,2.86,1.46,3.17,4.02,1.61-.56-2.86-1.12-5.69-1.85-9.38,2.14,1.13,3.48,1.85,4.83,2.55,1.87,.98,3.65,2.19,5.62,2.88,2.91,1.02,5.86,.79,8.32-1.32,2.23-1.91,2.05-5.44-.3-7.58-1.75-1.59-3.06-.69-4.44,.81,.5,.41,.83,.72,1.19,.97,1.95,1.36,2.61,3.25,1.46,5.27-1.18,2.07-3.24,1.93-5.11,.97-2.41-1.23-4.7-2.67-6.97-3.98,2.08-1.51,4.17-2.59,5.61-4.25,.84-.97,1.15-3.01,.73-4.24-.27-.81-2.36-1.6-3.47-1.42-2.52,.42-4.93,1.44-7.89,2.38,.59-2.9,1.18-5.87,1.63-8.07,3.96,.37,7.28,1.09,10.55,.86Zm-1.16-8.79c2.04,.74,3.55,2.11,3.16,4.53-.37,2.32-2.22,3.32-4.23,3.07-2.37-.3-4.66-1.28-6.98-1.96,1.37-4.66,4.68-6.87,8.05-5.65Zm-6.09,14.97c.74-.41,1.84-.18,2.78-.25,0,.94,.31,2.03-.06,2.78-1.37,2.77-3.64,4.45-7.23,4.94,.43-3.5,1.79-5.97,4.51-7.48Z"/>
      <path d="M124.3,92.85c-.63,4.89-2.19,9.51-5.6,13.27-2.11,2.33-4.71,3.76-7.83,4.34,.96-4.64,1.84-8.91,2.72-13.19-2.52-.69-3.65,.06-4.63,1.92-.87,1.64-2.19,3.2-3.67,4.31-1.81,1.35-3.88,.96-5.53-.64-1.75-1.69-1.98-5.43-.53-8.03,1.05-1.89,2.57-3.48,4.84-2.72,1.14,.38,2.18,1.81,2.69,3.02,.35,.83-.28,2.08-.48,3.14,.19,.22,.37,.45,.56,.67,.73-.93,1.83-1.75,2.13-2.8,.8-2.79-1.45-5.57-4.49-5.61-3.33-.04-6.14,1.2-7.94,4.14-1.8,2.95-2.1,6.06-.47,9.19,1.06,2.04,2.89,3.46,5.13,3,2.65-.54,5.15-1.79,7.68-2.72-.28,1.22-.74,2.98-1.07,4.76-.33,1.83-1.17,2.79-3.17,3.13-2.14,.37-4.23,1.22-6.22,2.14-1.71,.79-3.24,2.06-2.53,4.3,.73,2.29,2.67,2.58,4.71,2.38,3.44-.33,5.82-2.41,7.3-5.26,1.29-2.49,3.04-3.74,5.67-4.57,8.8-2.77,14.55-13.91,15-21.15-2.52-.55-3.89,.13-4.26,2.99Zm-21.95,25.92c-1.25,1.23-2.93,1.3-3.98-.42-1.03-1.68,0-2.88,1.47-3.5,1.9-.81,3.92-1.34,5.9-1.99,.21,.28,.42,.57,.63,.85-1.32,1.7-2.49,3.56-4.01,5.06Z"/>
      <path d="M81.62,79.08c1.35-2.38,1.23-6.54-.38-8.09-.4-.38-1.44-.6-1.85-.34-.55,.35-1.02,1.2-1.07,1.86-.05,.66,.49,1.36,.71,2.06,.71,2.19,1.22,4.55-1.07,5.97-1.12,.69-3.15,.99-4.25,.43-2.35-1.19-2.28-3.75-1.54-5.87,1.7-4.84,3.67-9.59,5.6-14.34,.64-1.58,1.5-3.06,2.28-4.62-6.12-1.96-10.89,1.74-16.16,11.72,.3-2.54,.48-5.11,.95-7.62,.47-2.5,1.22-4.94,1.89-7.57-2.01-.22-3.86-.78-4.56,1.82-1.61,5.98-1.91,11.98-.33,18,.19,.71,1.04,1.24,1.59,1.86,.66-.59,1.63-1.05,1.93-1.79,1.02-2.55,1.64-5.27,2.72-7.8,1.21-2.84,2.82-5.48,6.42-7.05-.79,1.8-1.4,3.1-1.94,4.44-1.92,4.79-3.92,9.57-3.62,14.89,.18,3.19,1.9,5.4,4.43,5.95,2.88,.63,6.67-1.18,8.23-3.92Z"/>
      <path d="M92.35,108.01c-.98-.28-2.24,.4-2.8,.54,.22,2.79,.68,4.95,.47,7.05-.17,1.72-1.57,3.33-3.42,2.77-1.19-.36-2.69-1.98-2.8-3.15-.18-2,.23-4.27,1.08-6.1,2.25-4.83,5.01-9.42,7.29-14.24,.83-1.76,.87-3.89,1.28-5.85-2.07,.38-4.6,.14-6.11,1.26-3.46,2.57-6.43,5.82-9.33,8.54,.56-2.69,1.26-6.05,1.97-9.44-2.27-.69-3.5,.27-3.61,2.42-.28,5.68-.45,11.36-.55,17.05-.01,.59,.76,1.19,1.17,1.79,.39-.54,.89-1.03,1.13-1.63,.23-.58,.2-1.27,.27-1.91,.67-5.85,3.33-10.64,7.75-14.47,.75-.65,1.72-1.04,2.59-1.55l.53,.49c-.32,.9-.57,1.84-.98,2.7-1.21,2.58-2.74,5.04-3.67,7.71-1.32,3.8-2.66,7.68-3.2,11.63-.69,5.12,3.31,7.67,8.03,5.55,3.16-1.42,4.82-4.62,4.22-8.47-.15-.99-.65-2.52-1.31-2.7Z"/>
      <path d="M49.85,113.95c2.17,1.18,4.52,.04,6.18-1.78,.98-1.07,1.9-2.3,2.46-3.62,3.82-8.97,4.22-18.2,1.48-27.49-1.36-4.6-2.6-4.9-6.91-2.69,1.55,3.02,3.42,5.7,4.38,8.68,2.48,7.76,.6,15.3-2.16,22.6-.5,1.31-2.37,2.87-3.69,2.94-2.16,.12-2.62-2.16-2.44-3.91,.52-5.1,1.29-10.17,1.96-15.26,.12-.94,.22-1.88,.32-2.82-.28-.22-.56-.43-.84-.65-1.08,.83-2.81,1.47-3.12,2.53-1.62,5.52-2.28,11.23-.94,16.88,.41,1.73,1.79,3.76,3.31,4.59Z"/>
      <path d="M51.35,65.6c.64,1.92,1.18,3.75,1.9,5.51,.18,.45,.91,.82,1.44,.93,.23,.04,.89-.7,.87-1.07-.14-4.06-.38-8.12-.61-12.48-1.75-.66-2.88-.2-3.69,2.35-.71,2.26-2.25,4.4-3.86,6.19-1.42,1.57-3.48,1.08-3.93-.77-1.09-4.43-.73-8.79,1.93-12.66,.47-.68,1.79-1.32,2.48-1.13,.74,.21,1.45,1.35,1.71,2.22,.29,1,.07,2.16,.07,3.25,.27,.18,.53,.36,.8,.54,.48-.7,1.44-1.46,1.36-2.07-.23-1.64-.45-3.88-1.54-4.62-1.2-.83-3.63-.85-5.05-.2-5.13,2.33-7.24,10.59-4.22,15.36,1.63,2.57,4.38,3.23,6.9,1.55,1.2-.8,2.23-1.85,3.45-2.88Z"/>
      <path d="M42.85,84.7c-1.77-.2-2.46,.3-3.04,2.09-.1,.33-.2,.69-.31,1.11-.48,1.96-1.08,3.93-1.2,5.92-.21,3.54-.32,7.12-.02,10.64,.15,1.77,1.33,3.42,3.57,2.56-.6-1.5-.93-2.96-1.06-4.38-.58-6.19,2.52-11.8,3.77-17.63-.66-.15-1.23-.26-1.71-.31Z"/>
      <path d="M68.9,100.62c.72-2.9,1.68-5.74,2.59-8.81-4.08-.43-4.42-.2-5.17,3.1-.29,1.25-.72,2.49-.83,3.75-.33,3.82-.8,7.65-.71,11.47,.07,3.17,1.65,4.25,3.6,3.73-.32-1.96-.95-3.85-.84-5.7,.15-2.53,.74-5.06,1.36-7.54Z"/>
      <path d="M12.51,22.11c2.02-.03,3.46-1.17,3.53-3.41,.06-2.05-1.6-3.66-3.63-3.61-2.15,.06-3.7,1.63-3.53,3.69,.18,2.18,1.6,3.36,3.64,3.33Z"/>
      <path d="M116.12,122.13c-.99,.17-2.17,1.47-2.47,2.52-.18,.65,1.12,1.72,2.34,3.42,1.27-1.74,2.58-2.75,2.5-3.66-.07-.88-1.68-2.4-2.38-2.28Z"/>
      <path d="M72.77,86.44c-1.65,.26-3.01,.37-4.3,.73-.46,.13-.85,.84-1.04,1.38-.09,.24,.31,.86,.62,1.01,1.63,.77,4.23-.71,4.71-3.12Z"/>
      <path d="M45.67,79.95c-3.95-.42-4.8-.03-5.06,2.46,4.52,.36,4.87,.18,5.06-2.46Z"/>
      <path d="M152.71,76.13c-.67-.05-1.43,.95-2.75,1.94,1.32,.85,2.14,1.79,2.77,1.68,.73-.13,1.79-1.18,1.8-1.84,0-.63-1.12-1.73-1.82-1.78Z"/>
      <path d="M5.03,115.56c.61,.57,1.19,1.55,1.82,1.58,.62,.04,1.29-.9,2.33-1.71-1.03-.82-1.82-1.85-2.29-1.72-.74,.21-1.26,1.19-1.87,1.85Z"/>
      <path d="M132.68,102.1c-.43,.49-1.21,.99-1.2,1.47,.01,.61,.67,1.2,1.39,2.33,.7-1.14,1.44-1.81,1.34-2.32-.12-.58-.99-1-1.53-1.49Z"/>
    </g>
  </g>
</svg>