<?xml version="1.0" encoding="UTF-8"?>
<svg id="_图层_2" data-name="图层 2" xmlns="http://www.w3.org/2000/svg" viewBox="0 0 135.06 107.16">
  <g id="_图层_2-2" data-name=" 图层 2">
    <g>
      <path d="M67.49,31.36c2.77-1.71,5.38-3.48,8.13-4.99,4.52-2.47,9.34-4.11,14.56-4.14,9.52-.06,16.43,5.08,19.16,14.2,1.81,6.04,1.98,12.2,1.29,18.41-.9,8-3.16,15.59-7.21,22.58-2.8,4.84-6.3,9.09-11.13,12.04-5.55,3.4-11.46,4.62-17.76,2.34-1.45-.52-2.78-1.35-4.26-2.09-2.86,2.14-6.17,3.47-9.81,4.02-6.36,.96-12.06-.72-17.25-4.36-5.33-3.74-9.25-8.72-12.31-14.4-4.19-7.77-6.52-16.03-6.45-24.9,.03-3.38,.55-6.7,1.63-9.89-1.56-1.06-3.11-2.09-4.64-3.16-.43-.3-.83-.66-1.21-1.03-2.28-2.25-2.24-1.52-.58-4.32,3.49-5.91,8.9-9.22,15.5-10.54,9.6-1.92,18.48,.06,26.65,5.37,.29,.19,.57,.37,.76,.5-.91-2.46-2.04-4.91-2.7-7.48-.67-2.62-1-5.35-1.23-8.05-.2-2.37,1.15-4.07,3.43-4.74,1.91-.56,3.79-.44,5.55,.56,1.72,.99,2.12,2.48,1.17,4.2-3.55,6.43-3.62,13.08-1.29,19.86Zm8.61,21.63c-.13,.02-.25,.04-.38,.07-.52-1.29-1.04-2.59-1.58-3.88-.56-1.34-1.03-2.72-1.74-3.97-.65-1.17-1.6-1.08-2.05,.17-.47,1.29-.81,2.64-1.04,3.99-.44,2.58-.85,5.2-.1,7.78,.12,.42,.74,.7,1.13,1.04,.25-.38,.66-.75,.71-1.15,.12-1.19,.06-2.4,.14-3.6,.05-.77,.24-1.53,.37-2.29,.37,.16,.47,.3,.55,.45,.86,1.7,1.68,3.43,2.59,5.11,.43,.79,1.17,1.65,2.08,1.24,.62-.28,.91-1.29,1.33-1.98,.05-.08,.02-.21,.03-.31,.13-1.34,.29-2.67,.38-4.02,.12-1.76,.22-3.53,.24-5.3,.01-.87-.36-1.73-1.32-1.78-1-.05-1.08,.91-1.12,1.63-.08,1.48-.04,2.97-.08,4.46-.02,.79-.11,1.57-.16,2.36Zm10.26,15.88l-.52,.11c-.37-.85-.76-1.7-1.12-2.55-.69-1.66-1.3-3.36-2.07-4.99-.22-.46-.85-.96-1.33-.99-.32-.02-.72,.73-1.03,1.17-.15,.22-.22,.52-.27,.8-.36,2.02-.85,4.02-1.01,6.06-.13,1.56,.1,3.17,.31,4.73,.05,.36,.7,.63,1.08,.94,.25-.38,.66-.74,.71-1.14,.13-1.05,.06-2.12,.14-3.18,.07-.91,.23-1.82,.35-2.73,.1,0,.21,0,.31,0,.84,1.67,1.64,3.35,2.52,4.99,.31,.58,.75,1.13,1.25,1.55,.78,.65,1.52,.47,2.02-.41,.22-.39,.42-.84,.46-1.28,.27-3.1,.51-6.2,.7-9.31,.03-.5-.13-1.08-.4-1.5-.21-.32-.74-.61-1.11-.59-.28,.02-.7,.5-.78,.84-.17,.71-.21,1.47-.22,2.2-.03,1.76,0,3.52,0,5.28Zm-45-1.33c.28,1.28-.06,2.47-.91,3.48-1.32,1.57-3.46,1.3-4.31-.58-.76-1.68-.6-3.39,0-5.06,.84-2.33,3.29-4.07,5.8-2.42,.51,.33,1.18,.48,1.44-.2,.13-.33-.17-1.02-.49-1.29-2.33-2.02-5.33-1.75-7.3,.61-.41,.49-.79,1-1.11,1.55-1.83,3.02-1.35,7,1.11,9.5,1.17,1.19,2.55,1.63,4.15,1.02,2.49-.94,4.8-5.03,4.35-7.67-.21-1.22-.88-1.77-2.07-1.54-1.25,.25-2.47,.59-3.7,.93-.62,.17-1.13,.47-.93,1.27,.21,.82,.75,1.05,1.52,.89,.79-.16,1.58-.32,2.43-.49Zm57.53,0c.27,1.41-.15,2.5-.93,3.47-1.3,1.6-3.42,1.34-4.31-.52-1.02-2.14-.41-5.47,1.3-7.1,1.17-1.12,2.53-1.34,4-.66,.32,.15,.64,.4,.96,.41,.33,.01,.82-.11,.98-.35,.14-.21,.05-.75-.14-.99-1.42-1.78-4.62-2.18-6.47-.85-3.88,2.8-4.52,8.41-1.36,12,1.38,1.57,3.28,1.99,4.94,.88,2.57-1.71,3.83-4.19,3.7-7.3-.06-1.25-.85-1.83-2.1-1.57-1.18,.24-2.33,.57-3.49,.88-.71,.19-1.27,.5-1.04,1.4,.23,.86,.86,.94,1.58,.8,.78-.15,1.56-.32,2.39-.48Zm-50.89-17.33c.2-.87,.41-1.61,.52-2.37,.1-.72,.26-1.51,.07-2.18-.14-.49-.76-1.03-1.27-1.17-.74-.21-1.01,.52-1.12,1.12-.19,1-.34,2.02-.45,3.04-.24,2.18-.54,4.36-.61,6.54-.03,.88,.3,1.89,.79,2.63,.53,.8,1.4,.53,1.6-.43,.15-.75,.15-1.54,.16-2.31,.01-.65-.06-1.31-.09-1.91,.22-.08,.28-.11,.35-.12,.71-.05,1.41-.1,2.12-.14,1.45-.09,1.56,.02,1.6,1.46,.03,.88,0,1.78,.19,2.63,.08,.37,.6,.84,.98,.9,.28,.05,.83-.42,.96-.77,.25-.68,.36-1.44,.4-2.17,.12-2.08,.23-4.17,.22-6.25,0-1.08-.17-2.19-.5-3.21-.15-.47-.88-.76-1.35-1.13-.25,.49-.68,.97-.73,1.48-.11,1.16,0,2.33-.06,3.5-.02,.3-.32,.81-.53,.83-1.01,.09-2.03,.04-3.25,.04Zm18.51,6.36c-.69-3.44-1.37-6.82-2.07-10.21-.06-.3-.23-.59-.4-.86-1.16-1.8-2.87-1.84-3.74,.09-1.45,3.21-2.68,6.52-3.96,9.8-.33,.84-.12,1.69,.49,2.38,.56,.64,1.47,.54,1.55-.24,.22-1.98,1.63-2.27,3.16-2.44,2.18-.25,2.18-.24,2.62,1.94,.21,1.05,1.15,1.54,1.8,.87,.3-.31,.37-.86,.55-1.33Zm25.76-.98c-.2,1.7,.04,2.09,1.4,2.54,2.65,.87,6.33-.66,7.5-3.19,.6-1.29,.6-2.64-.25-3.84-.82-1.14-2.05-1.27-3.34-1.09-.49,.07-.98,.17-1.47,.23-1.2,.14-1.64-.46-1.19-1.59,.62-1.54,2.74-2.44,4.48-1.9,.61,.19,1.2,.43,1.82,.56,.65,.14,.85-.18,.64-.79-.38-1.09-1.2-1.73-2.25-2.08-3.56-1.19-7.46,1.95-7.3,5.86,.05,1.28,.58,2.04,1.85,2.22,1.18,.16,2.39,.06,3.59,.11,.46,.02,1.31,.09,1.32,.21,.07,.56,.07,1.26-.23,1.69-.37,.54-1.01,1.13-1.62,1.24-1.18,.22-2.43,.15-3.64,.13-.4,0-.8-.19-1.28-.32Zm-8.77-3.51c.14-.03,.27-.05,.41-.08,1.01,1.56,2.01,3.12,3.03,4.67,.25,.38,.49,.83,.85,1.05,.34,.2,.92,.28,1.25,.11,.26-.13,.48-.73,.42-1.07-.12-.64-.39-1.28-.73-1.85-.64-1.06-1.39-2.05-2.07-3.08-1.17-1.79-1.05-2.35,.69-3.53,.7-.48,1.46-.92,2-1.54,.32-.37,.49-1.16,.31-1.59-.14-.33-.93-.55-1.42-.52-.47,.03-.97,.38-1.37,.69-.89,.7-1.73,1.47-2.74,2.34,0-.77,0-1.3,0-1.82,0-.67-.1-1.45-.91-1.39-.43,.03-.83,.68-1.2,1.09-.12,.14-.13,.4-.15,.61-.26,2.6-.54,5.2-.75,7.8-.08,1.02-.09,2.06,.02,3.07,.04,.39,.49,1.02,.76,1.02,.43,0,1.04-.33,1.25-.71,.28-.49,.3-1.15,.33-1.74,.05-1.18,.01-2.36,.01-3.54Zm-22.67,17.95l-.41-.06c-.11-.57-.29-1.14-.33-1.72-.09-1.59-.11-3.18-.19-4.77-.03-.63-.08-1.27-.2-1.89-.13-.64-.47-1.14-1.26-.93-.72,.19-1.14,.54-1,1.44,.38,2.41,.67,4.82,1,7.24,.18,1.33,.33,2.66,.57,3.98,.19,1.05,.89,1.38,1.77,.81,.54-.35,1.02-.88,1.37-1.42,.45-.71,.78-1.5,1.11-2.28,1.04-2.43,2.07-4.87,3.07-7.31,.13-.31,.28-.75,.16-1.01-.28-.61-.73-1.14-1.1-1.7-.42,.37-.91,.69-1.24,1.13-.33,.44-.54,1-.72,1.53-.65,1.83-1.25,3.68-1.9,5.5-.18,.51-.47,.98-.71,1.46Zm-12.4,2.13c-.4,.03-.73,0-1.02,.1-.4,.12-.77,.33-1.15,.51,.27,.42,.48,.91,.84,1.23,.26,.23,.73,.31,1.1,.31,1.69-.02,3.39-.08,5.08-.14,.66-.02,1.1-.3,1.06-1.03-.04-.79-.58-.97-1.26-.93-.21,.01-.43,0-.63,.05-1.07,.24-1.41-.27-1.34-1.25,.16-2.19,.33-4.37,.45-6.56,.07-1.23,.15-2.34,1.84-2.32,.28,0,.71-.5,.8-.84,.06-.21-.35-.73-.64-.81-2.28-.68-4.48-.43-6.52,.82-.26,.16-.51,.69-.43,.95,.08,.26,.56,.5,.89,.55,.58,.09,1.19,.02,2.02,.02-.36,3.1-.73,6.19-1.1,9.33Zm22.91-9.43c-.04,.8-.05,1.5-.13,2.19-.23,2.04-.58,4.06-.71,6.1-.06,.98-.36,1.29-1.29,1.25-.34-.01-.7,.3-1.05,.47,.2,.39,.33,.87,.64,1.13,.29,.25,.78,.39,1.18,.39,1.76,0,3.52-.06,5.28-.11,.69-.02,1.04-.41,.97-1.1-.06-.69-.54-.85-1.12-.84-.21,0-.42,.02-.63,.04-1.4,.11-1.54,.02-1.46-1.42,.11-2.15,.33-4.3,.45-6.45,.07-1.2,.19-2.23,1.78-2.25,.32,0,.62-.57,.93-.88-.31-.3-.59-.81-.94-.85-1.14-.15-2.32-.26-3.46-.13-.92,.1-1.83,.51-2.67,.93-.31,.15-.43,.71-.63,1.08,.35,.18,.69,.47,1.06,.52,.51,.07,1.05-.03,1.8-.08Zm-31.18-15.97c.9,0,1.7,.11,2.44-.04,.46-.1,.83-.6,1.24-.92-.39-.45-.78-1.3-1.17-1.29-2.82,.05-5.63,.25-8.44,.49-.25,.02-.57,.71-.62,1.12-.06,.54,.34,.76,.91,.73,.79-.05,1.59-.01,2.47-.01,.22,2.3,.06,4.5-.4,6.69-.24,1.17-.43,2.36-.6,3.55-.1,.69,.23,1.29,.91,1.3,.45,0,1.1-.36,1.3-.75,.36-.7,.52-1.53,.65-2.33,.45-2.79,.85-5.58,1.29-8.53Zm22.5,30.21c-2.39,.07-2.45,.07-2.82,2.43-.22,1.42-.13,2.91-.45,4.3-.52,2.22,1.05,2.58,2.63,1.99,2.13-.79,3.88-3.51,3.79-5.76-.07-1.81-1.35-3.02-3.15-2.97Zm10.63,8.17c-.49-2.44-.89-4.71-1.45-6.93-.12-.49-.82-1.07-1.32-1.14-.37-.05-1.01,.59-1.23,1.06-.79,1.73-1.47,3.52-2.17,5.3-.14,.36-.37,.76-.32,1.11,.07,.44,.37,.84,.58,1.26,.24-.27,.57-.5,.71-.82,.35-.77,1.53-1.27,2.95-1.21,.99,.04,.73,.85,.98,1.37,.12,.27,.4,.47,.61,.7,.24-.24,.47-.49,.67-.69Zm.03-52.08c-.17,.06-.33,.13-.5,.19,0,.83-.01,1.67,0,2.5,.01,.62-.26,.91-.89,.88-.48-.02-.97,0-1.58,0,.13-.93,.3-1.71,.32-2.5,0-.29-.36-.59-.56-.89-.23,.25-.63,.49-.66,.76-.25,1.89-.43,3.79-.6,5.68-.03,.3,.04,.65,.19,.91,.11,.2,.42,.35,.65,.38,.1,.01,.32-.35,.35-.55,.06-.45,.08-.92,.03-1.38-.08-.71,.13-1,.9-1.05,1.68-.11,1.68-.16,1.73,1.54,0,.11-.03,.23,.01,.32,.17,.36,.36,.71,.54,1.06,.23-.31,.64-.61,.66-.94,.1-1.9,.14-3.81,.1-5.71,0-.41-.44-.81-.68-1.21Zm7.98,7.35c-.1-.65-.16-1.11-.25-1.56-.33-1.59-.62-3.19-1.05-4.76-.12-.42-.66-.96-1.05-1-.37-.04-.98,.44-1.16,.83-.82,1.84-1.52,3.72-2.25,5.6-.07,.19-.14,.46-.06,.62,.16,.32,.41,.59,.63,.88,.17-.23,.38-.44,.5-.7,.54-1.21,1.68-.99,2.65-1.12,.94-.13,.76,.69,.95,1.21,.09,.24,.37,.41,.57,.62,.2-.24,.4-.48,.52-.63Zm-5.28,41.86c-.21,.43-.46,.85-.62,1.31-.19,.53-.36,1.07-.41,1.62-.02,.24,.25,.62,.48,.71,.16,.06,.58-.21,.69-.43,1.19-2.28,2.38-4.56,3.48-6.88,.16-.35-.15-.92-.25-1.38-.36,.25-.83,.43-1.06,.76-.49,.72-.79,1.58-1.3,2.29-.49,.69-1.07,.55-1.26-.27-.13-.58-.07-1.2-.18-1.78-.06-.29-.31-.54-.47-.81-.2,.22-.5,.41-.58,.67-.49,1.54,.11,3.24,1.48,4.18Zm15.46-49.26c-.79,.05-1.84-.08-1.95,1.16-.18,2.07-.28,4.14-.36,6.22,0,.21,.33,.44,.5,.66,.22-.19,.48-.34,.64-.57,.1-.15,.09-.42,.05-.62-.18-1.14,.12-1.91,1.43-2.03,.33-.03,.65-.25,.96-.43,1.15-.67,1.6-1.76,1.24-2.96-.29-.96-1.1-1.45-2.51-1.44Zm-3.4,2.21c0-1.65-1.46-2.55-3.47-2.16-.72,.14-1.12,.53-1.14,1.28-.04,1.23-.07,2.46-.15,3.69-.05,.77-.22,1.54-.22,2.31,0,.25,.35,.49,.53,.74,.21-.23,.44-.44,.63-.68,.05-.07,.03-.21,.02-.31-.18-1.3,.2-2.05,1.65-2.33,1.37-.27,2.16-1.42,2.16-2.54Zm8.08-2.05c-1.51,1.12-1.13,3.5,.46,4.62-.28,.72-.64,1.41-.81,2.16-.08,.36,.2,.81,.32,1.22,.29-.29,.68-.53,.86-.88,.87-1.64,1.69-3.32,2.54-4.98,.16-.31,.44-.61,.47-.93,.04-.36-.15-.73-.23-1.1-.3,.16-.71,.26-.89,.51-.42,.61-.68,1.32-1.09,1.93-.19,.29-.58,.44-.89,.65-.19-.35-.46-.68-.54-1.06-.13-.63-.14-1.29-.21-2.14Z"/>
      <path d="M12.55,38.12c4.66-.14,6.52,2.09,5.26,6.6-.64,2.3-1.69,4.49-2.58,6.72-.4,1.02-.89,2-1.27,3.03-.37,.99-.05,1.56,.99,1.77,.72,.15,1.48,.12,2.21,.24,2.21,.35,3.68,1.92,3.56,4.16-.08,1.53-.51,3.06-.94,4.54-.45,1.56-1.11,3.06-1.61,4.61-.13,.39-.15,1.09,.07,1.26,.31,.24,.91,.19,1.36,.12,.52-.08,1-.34,1.51-.48,2.06-.58,3.72,.39,3.86,2.54,.1,1.59-.28,3.21-.48,4.82-.09,.66-.31,1.31-.42,1.97-.23,1.36,.27,1.78,1.6,1.36,.67-.21,1.32-.52,2-.7,1.68-.47,2.63,.23,2.62,1.98,0,1.06-.22,2.11-.23,3.17-.02,1.59,.02,3.18,.08,4.76,.05,1.4,.61,2.49,1.94,3.14,.28,.14,.41,.6,.61,.91-.39-.06-.85,0-1.15-.19-.57-.37-1.07-.49-1.77-.39-3.58,.55-7.18,.85-10.78,.28-1.03-.16-2.09-.47-3.01-.95-2.28-1.17-2.93-3.03-2.08-5.43,.58-1.64,.56-1.61-.96-2.5-1.71-1-3.42-2-5.05-3.12-1.36-.94-2.36-2.22-2.86-3.85-.45-1.47-.35-2.83,.53-4.15,1.24-1.88,.88-3.14-1.12-4.23-.59-.32-1.17-.66-1.77-.97-2.61-1.37-4.07-6.56-.87-9.02,1.67-1.28,2.06-3.07,1.87-5.12-.26-2.81-.57-5.65-.46-8.46,.18-5.01,3.06-7.84,8.05-8.31,.42-.04,.85-.06,1.27-.09Z"/>
      <path d="M104.45,91.1c.44-.36,.86-.76,1.34-1.06,.66-.41,1.06-.95,1.05-1.72-.02-2.22-.05-4.44-.1-6.65-.01-.67-.16-1.34-.14-2.01,.06-1.58,1.11-2.36,2.66-1.99,.72,.17,1.41,.47,2.12,.67,1.02,.29,1.34,.01,1.11-1.03-.34-1.52-.87-3.01-1.06-4.54-.13-1.04-.02-2.21,.33-3.2,.53-1.5,1.81-2.01,3.36-1.65,.62,.14,1.22,.38,1.84,.52,.96,.22,1.24-.05,.92-.96-.54-1.53-1.24-3.01-1.75-4.55-.43-1.3-.87-2.64-1-3.99-.27-2.66,1.35-4.47,4-4.74,2.84-.29,2.91-.44,1.69-3.06-1.06-2.27-2.17-4.53-3.1-6.86-.43-1.09-.62-2.33-.68-3.51-.1-2.08,.99-3.44,3.02-3.9,2.14-.48,4.29-.46,6.4,.2,2.7,.84,4.17,2.8,4.78,5.47,.68,2.95,.41,5.91,.08,8.87-.25,2.22,.06,4.18,1.9,5.75,2.55,2.18,2.4,6.19-.26,8.3-.74,.59-1.62,1-2.42,1.52-1.39,.89-1.63,2.05-.75,3.44,1.47,2.33,1.38,4.33-.28,6.54-1.42,1.88-3.4,3.07-5.38,4.25-.7,.41-1.67,.72-1.96,1.34-.24,.52,.32,1.42,.54,2.15,.52,1.72-.12,3.04-1.39,4.15-1.49,1.31-3.34,1.77-5.21,1.84-2.82,.11-5.65,0-8.47-.1-.87-.03-1.66-.13-2.34,.55-.15,.15-.41,.19-.62,.28-.08-.11-.16-.21-.25-.32Z"/>
      <path d="M51.68,102c-1.92,3.09-4.72,3.78-7.97,3.46-3.24-.32-6.47-.63-9.71-.86-.9-.07-1.88-.02-2.73,.26-1.29,.43-2.5,1.12-3.93,1.78-.02-.45-.26-1.19-.03-1.74,.6-1.45,1.22-2.96,2.18-4.19,2.56-3.28,5.86-5.62,9.9-6.77,5.05-1.44,9.17,.34,11.48,5.04,.59,1.2,1.26,2.15,2.51,2.66,.32,.13,.67,.33,.86,.59,.14,.2,.06,.56,.07,.85-.24,.01-.54,.12-.73,.02-.63-.31-1.22-.7-1.91-1.11Z"/>
      <path d="M10.75,19.99c-.24,.71-.43,1.38-.71,2.02-.1,.22-.42,.34-.64,.51-.16-.27-.31-.55-.46-.82-.01-.02,0-.07,.03-.1,1.03-1.85,.49-3.69,.17-5.61-.76-4.62,1.18-8.15,5.52-10.12,4.55-2.06,9.28-2.36,14.07-.9,1.46,.44,2.84,1.11,3.5,2.75-.2,.08-.36,.21-.5,.19-1.96-.34-3.62,.44-4.95,1.68-2.51,2.33-4.84,4.84-7.27,7.24-.87,.86-1.77,1.74-2.77,2.43-1.79,1.24-3.82,1.35-5.98,.73Z"/>
      <path d="M87.18,101.77c-.89,.46-1.7,.87-2.51,1.29-.09-.15-.18-.29-.27-.44,.38-.29,.71-.67,1.14-.85,1.25-.54,2.02-1.43,2.68-2.65,2.64-4.86,7.05-6.58,12.29-4.8,4.48,1.52,8.01,4.33,10.42,8.41,.57,.96,.75,2.17,.96,3.3,.06,.32-.37,.75-.58,1.12-.31-.18-.66-.31-.91-.55-1.52-1.47-3.45-1.82-5.4-1.8-3,.03-6,.3-8.99,.47-.71,.04-1.41,.13-2.11,.13-2.84,0-5.2-.92-6.7-3.64Z"/>
      <path d="M95.44,5.68c-1.1,1.18-2.17,.14-3.12,.52-.68,3.69-3.35,5.25-6.66,6.25-3.14,.95-6.26,1.97-9.32,3.15-1.78,.69-3.37,1.79-4,3.82-.21,.67-1,.72-1.27,.06-.32-.8-.64-1.72-.54-2.54,.75-6.35,3.68-11.42,9.35-14.54,3.81-2.1,7.51-1.2,10.7,1.56,1.03,.89,2.06,1.38,3.37,1.43,.4,.02,.8,.15,1.49,.29Z"/>
      <path d="M112.47,25c-.92-1.77-1.82-3.55-2.79-5.28-.14-.24-.65-.31-1.01-.38-1.77-.31-3.57-.49-5.32-.91-1.32-.31-1.86-1.04-1.57-1.75,.44-1.05,1.39-.89,2.19-.68,1.31,.35,2.58,.84,3.87,1.27,.07-.08,.14-.15,.2-.23-1.71-1.49-3.42-3-5.16-4.46-.23-.19-.66-.14-1.01-.2-1.88-.29-3.79-.47-5.64-.88-1.39-.31-1.92-1.04-1.68-1.78,.23-.71,1.12-1.01,2.42-.66,1.14,.31,2.25,.76,3.47,1.18-.61-.83-1.18-1.54-1.68-2.3-.32-.5-.65-1.05-.76-1.62-.08-.41,.04-1.11,.32-1.29,.35-.22,1.02-.18,1.45,0,.42,.17,.77,.62,1.04,1.02,.45,.67,1.03,1.37,1.17,2.12,.67,3.71,3.97,5.17,6.36,7.77-.19-.91-.36-1.55-.44-2.2-.07-.59-.18-1.23-.03-1.79,.12-.47,.58-1.16,.91-1.18,.46-.03,1.21,.4,1.37,.81,.36,.94,.47,1.98,.63,2.98,.07,.41,.07,.86,0,1.27-.36,2.15,.07,4.1,1.38,5.86,.33,.44,.49,1,.94,1.52,.04-.41,.03-.84,.12-1.24,.2-.89,.34-1.82,.74-2.62,.18-.37,.93-.69,1.36-.63,.33,.05,.82,.75,.81,1.14-.05,1.15-.07,2.41-.54,3.42-1.18,2.54-1.43,5.07-.66,7.75,.17,.6,.19,1.27,.13,1.9-.03,.32-.37,.6-.58,.91-.19-.28-.49-.53-.54-.83-.28-1.67-.52-3.35-.74-5.03-.09-.67-.46-.88-1.08-1.07-1.69-.49-3.37-1.04-5.01-1.7-.75-.3-1.62-.79-1.27-1.9,.23-.73,1.16-.94,2.34-.42,1.09,.48,2.11,1.14,3.15,1.73,.29,.17,.57,.37,.85,.55,.09-.06,.18-.13,.27-.19Z"/>
      <path d="M30.93,15.01c1.52-.59,3-1.15,4.45-1.76,.26-.11,.42-.45,.62-.68,1.23-1.41,2.38-2.9,3.71-4.2,1.01-.99,1.98-1,2.52-.35,.5,.61,.29,1.44-.7,2.4-.65,.63-1.39,1.18-2.1,1.78,2.11,0,4.19,.02,6.27-.02,.28,0,.56-.26,.85-.39,1.59-.75,3.15-1.61,4.79-2.23,1.36-.51,2.32-.14,2.59,.65,.26,.78-.27,1.39-1.71,1.91-.53,.19-1.08,.33-1.63,.47-.5,.13-1.01,.23-1.69,.38,1.29,.49,2.41,.86,3.48,1.35,1.26,.58,1.72,1.33,1.42,2.04-.31,.72-1.16,.93-2.44,.27-1.72-.89-3.33-1.98-5-2.98-.29-.18-.62-.46-.92-.45-2.12,.06-4.23,.19-6.35,.3-.12,0-.23,.12-.39,.21,.98,.32,1.9,.57,2.78,.92,.62,.24,1.29,.52,1.74,.98,.35,.35,.6,1.07,.48,1.51-.08,.29-1.02,.65-1.37,.5-1.64-.71-3.32-1.43-4.77-2.46-1.14-.81-2.07-.95-3.26-.34-1.31,.67-2.66,1.24-3.93,2.09,1.13,.17,2.27,.27,3.38,.53,.74,.17,1.5,.45,2.14,.86,.32,.21,.58,.89,.48,1.24-.1,.34-.72,.77-1.08,.74-1.04-.1-2.08-.36-3.09-.66-.74-.22-1.52-.48-2.13-.93-1.23-.89-2.17-.56-3.13,.4-.93,.92-1.89,1.81-2.87,2.67-.26,.23-.81,.49-.99,.37-.61-.41-.2-.86,.17-1.2,1.25-1.15,2.54-2.25,3.77-3.42,.33-.31,.6-.74,.79-1.16,.76-1.75,1.41-3.54,2.24-5.25,.37-.75,.96-1.61,2.08-1.15,.76,.31,.88,1.22,.29,2.44-.42,.88-.98,1.69-1.51,2.59Z"/>
      <path d="M70.24,100.62c-1.01-.63-2.05-1.21-3.02-1.91-1.13-.82-1.49-1.81-.91-2.38,.87-.85,1.7-.18,2.35,.35,1.25,1.03,2.37,2.21,3.59,3.29,.3,.27,.8,.58,1.14,.51,1.72-.36,3.41-.85,5.11-1.29,0-.11,0-.22,0-.33-.54-.17-1.1-.27-1.61-.51-1.05-.48-2.14-.94-3.07-1.6-.34-.24-.48-1.1-.33-1.55,.09-.27,1.06-.55,1.4-.38,1.62,.84,3.2,1.77,4.7,2.81,.63,.44,1.07,.52,1.67,.1,1.25-.87,2.49-1.74,3.77-2.56,.26-.17,.64-.14,.96-.21-.08,.36-.04,.89-.27,1.06-1.3,.97-2.68,1.84-3.99,2.79-.4,.29-.77,.68-1.02,1.11-.73,1.25-1.36,2.56-2.11,3.8-.34,.57-.79,1.12-1.32,1.5-.36,.26-1.15,.45-1.39,.25-.34-.28-.49-.97-.45-1.46,.05-.49,.4-.97,.7-1.4,.45-.62,.98-1.19,1.62-1.95-1.16,.28-2.14,.63-3.14,.72-1.16,.11-1.88,.75-2.63,1.53-.88,.91-1.87,1.72-2.86,2.52-.4,.32-.91,.63-1.41,.69-.45,.06-1.14-.09-1.36-.4-.22-.32-.19-1.11,.07-1.4,.59-.67,1.38-1.18,2.11-1.73,.29-.22,.63-.38,.94-.56-1.91-.36-3.76-.73-5.62-1.04-.31-.05-.68,.13-1,.23-1.34,.43-2.67,.9-4.03,1.29-.46,.13-.98,.13-1.47,.1-.72-.05-1.33-.33-1.43-1.15-.1-.81,.47-1.19,1.1-1.33,1.22-.26,2.46-.41,3.73-.61-.92-.59-1.85-1.13-2.72-1.77-1.13-.83-1.46-1.72-.98-2.38,.44-.6,1.32-.58,2.44,.36,1.35,1.13,2.56,2.43,3.84,3.64,.27,.26,.58,.6,.91,.66,1.97,.35,3.95,.63,5.93,.94,.02-.12,.04-.23,.05-.35Z"/>
      <path d="M97.2,91.86c-1.83,.28-3.66,.56-5.49,.83,1.77-.73,3.54-1.4,5.49-.83Z"/>
      <path d="M57.2,9.68c-.08-1.5,.84-2.94,2.12-3.52-.64,1.06-1.4,2.32-2.12,3.52Z"/>
      <path d="M103.89,23.88c1.51,.68,2.49,1.93,3.32,3.35-1.01-1.19-2.02-2.38-3.03-3.57-.1,.07-.19,.15-.29,.22Z"/>
      <path d="M1.11,42.69c.31-1.71,1.18-2.92,2.47-3.95-.82,1.31-1.61,2.57-2.47,3.95Z"/>
      <path d="M85.08,.29c-1.44,.09-2.88,.18-4.4,.27,1.49-.56,2.92-.79,4.4-.27Z"/>
      <path d="M29.7,107.1c.87-.97,1.6-1.13,2.5-.56-.83,.19-1.62,.36-2.5,.56Z"/>
      <path d="M19.1,19.68c-1.03,.45-2.06,.91-3.09,1.36l-.13-.29c1.02-.43,2.04-.86,3.06-1.28,.05,.07,.1,.14,.15,.22Z"/>
      <path d="M41.21,92.03c-1.14,.12-2.29,.23-3.43,.35-.01-.1-.02-.21-.03-.31,1.17-.1,2.34-.21,3.51-.31-.02,.09-.04,.18-.06,.27Z"/>
      <path d="M23.59,24.57c1-.71,2-1.42,3-2.13,.06,.08,.11,.16,.17,.24-.99,.7-1.99,1.4-2.98,2.1l-.19-.22Z"/>
      <path d="M60.08,52.56c.14-2.02,.83-3.65,2.18-5.16,.26,1.35,.59,2.69,.73,4.05,.03,.34-.49,.93-.86,1.06-.57,.18-1.24,.05-2.04,.05Z"/>
      <path d="M60.86,84.23c-.18-1.88-.11-3.66,.54-5.36,.38-.98,1.35-.65,2.04-.53,.43,.07,1.01,.6,1.11,1.02,.44,1.78-1.66,4.6-3.69,4.88Z"/>
      <path d="M70.62,78.63c.23,1.02,.46,1.78,.56,2.56,.13,1.05-.78,1.69-1.75,1.27-.15-.07-.35-.31-.34-.45,.13-1.18,.5-2.27,1.53-3.38Z"/>
      <path d="M79.04,34.68c.15,.78,.36,1.55,.42,2.34,.02,.3-.23,.78-.49,.9-.34,.15-.86,.15-1.18-.02-.18-.09-.22-.7-.12-1.01,.25-.77,.62-1.51,.94-2.26,.14,.02,.28,.04,.43,.06Z"/>
      <path d="M93.07,34.99c.02,.77-1.38,1.94-2.16,1.77-.14-.03-.31-.17-.38-.3-.49-.93,.03-2.19,1.03-2.52,.84-.28,1.49,.17,1.51,1.05Z"/>
      <path d="M84.65,36.81c-.4-.94-.51-1.84,.24-2.48,.37-.32,1.12-.4,1.61-.27,.27,.07,.61,.88,.49,1.22-.35,1.05-1.3,1.36-2.34,1.54Z"/>
    </g>
  </g>
</svg>