<?xml version="1.0" encoding="UTF-8"?>
<svg id="_图层_2" data-name="图层 2" xmlns="http://www.w3.org/2000/svg" viewBox="0 0 193.85 83.48">
  <g id="_图层_2-2" data-name=" 图层 2">
    <g>
      <path d="M154.52,49.2c.87,.12,1.44-.32,1.85-1.03,.42-.72,.66-1.51,.88-2.31,.36-1.28,.52-2.61,.94-3.87,.09-.26,.15-.68,.48-.6,.27,.07,0,.43,.03,.66,0,.03-.01,.07-.02,.11-.11,1.13-.06,2.24,.62,3.21,.59,.84,1.26,.92,2.06,.29,.82-.65,1.4-1.49,1.95-2.36,.09-.14,.11-.35,.33-.39,.1,.19,.04,.39,.03,.58-.04,1.04-.14,2.08-.13,3.12,0,.75-.27,1.29-.82,1.78-1.32,1.18-2.44,2.54-3.48,3.96-1.32,1.8-2.1,3.8-2.28,6.02-.09,1.15,.04,2.27,.72,3.25,1.15,1.66,3.33,1.74,4.58,.17,.51-.64,.85-1.37,1.13-2.13,.74-2.04,1.08-4.17,1.4-6.3,.06-.41,.06-.84,.38-1.36,.03,2.8-.02,5.42-.7,8.03,.21-.11,.26-.29,.34-.45,.49-.91,.77-1.89,.95-2.91,.49-2.86,.53-5.76,.61-8.65,.03-1.08,.29-1.96,.99-2.8,.88-1.05,1.55-2.25,2-3.55,.1-.27,.21-.57-.16-.74-.41-.18-.49,.15-.61,.41-.49,1.06-1.05,2.09-1.72,3.05-.13,.18-.23,.39-.44,.5-.11-.1-.08-.18-.08-.27,.1-1.42,.09-2.84-.04-4.25-.11-1.12-.55-1.53-1.67-1.52-.75,0-.75,0-.79,.74,0,.12-.03,.25-.07,.37-.65,1.64-1.43,3.22-2.58,4.58-.29,.34-.62,.76-1.12,.57-.5-.19-.48-.72-.48-1.17,.01-1.51,.39-2.95,.96-4.34,.19-.47,.43-.91,.82-1.25,.44-.38,.8-.27,.95,.29,.12,.42,.04,.86,.06,1.29,.01,.23,0,.52,.32,.52,.33,0,.53-.18,.55-.53,.03-.6-.03-1.19-.25-1.75-.32-.82-1.08-1.23-1.95-1.09-.94,.15-1.65,.67-2.26,1.37-.78,.9-1.16,1.97-1.37,3.12-.31,1.63-.69,3.23-1.32,4.77-.22,.53-.46,1.06-.87,1.48-.47,.48-.87,.43-1.2-.16-.3-.53-.41-1.11-.48-1.7-.36-2.98-.01-5.92,.43-8.86,.02-.11,.02-.26,.25-.26,.03,2.36-.03,4.73,.21,7.1,.16-.04,.17-.11,.18-.18,.33-3.49,.52-6.99,.73-10.49,.03-.53-.17-.98-.52-1.37-1.11-1.22-2.99-1.1-3.89,.27-1.49,2.26-2.56,4.74-3.58,7.23-.06,.15-.05,.36-.32,.46,.06-.89,.12-1.74,.18-2.59,.03-.43-.04-.83-.38-1.13-.71-.63-1.54-.83-2.46-.64-.34,.07-.45,.24-.19,.51,.27,.29,.31,.64,.28,1-.03,.41-.06,.83-.11,1.23-.18,1.41-.05,2.84-.32,4.24-.21,1.06-.49,2.11-1.1,3.02-.28,.42-.68,.71-1.23,.63-.57-.09-.87-.49-1.01-1-.13-.5-.25-1.01-.31-1.53-.09-.77-.12-1.55,.13-2.32,.2,.96,.29,1.94,.79,2.81,.05-1.42,.06-2.84,.04-4.26,0-.51-.3-.88-.76-1.09-.68-.3-1.4-.32-2.12-.29-.34,.01-.48,.25-.26,.51,.56,.66,.41,1.42,.23,2.09-.38,1.41-1.04,2.72-1.97,3.86-.25,.31-.54,.58-.93,.72-.21,.08-.46,.19-.67,.02-.22-.18-.04-.41,.01-.6,.57-2.23,.97-4.5,1.14-6.8,.1-1.34,.17-2.7-.23-4.02-.38-1.23-1.3-1.46-2.25-.59-.6,.56-.91,1.29-1.14,2.05-.57,1.93-.6,3.9-.39,5.88,.16,1.51,.46,2.99,1.33,4.28,.1,.14,.12,.29,.06,.46-.34,1.02-.68,2.05-1.25,2.97-.59,.95-1.11,1.01-1.96,.27-.79-.7-1.25-1.61-1.59-2.59-.78-2.27-1.18-4.63-1.41-7.01-.1-1.03-.16-2.06-.02-3.11,.52,2.5,.98,5.01,1.69,7.46,.04,.29,.14,.56,.31,.88-.06-.35-.11-.63-.15-.91-.39-2.19-.69-4.4-.81-6.63-.07-1.37-.25-2.77,.33-4.1,.14-.31-.12-.32-.31-.34-.75-.07-1.47,.1-2.14,.44-.47,.24-.7,.64-.75,1.17-.2,1.85-.2,3.71,.11,5.54,.26,1.55-.06,2.96-.62,4.36-.15,.37-.36,.7-.64,.99-.75,.75-1.56,.65-2.05-.3-.53-1.03-.34-2.09-.05-3.15,.23,.79,.19,1.66,.84,2.45-.17-1.36-.14-2.58-.11-3.8,0-.39,0-.79-.04-1.18-.04-.42-.24-.76-.63-.94-.71-.31-1.47-.34-2.22-.33-.27,0-.48,.22-.28,.48,.64,.8,.44,1.72,.2,2.51-.4,1.26-1.15,2.38-2,3.42-.01,.02-.06,0-.1,0,0-.34-.01-.68,0-1.02,.04-1.15,.06-2.3-.07-3.45-.14-1.23-.64-1.61-1.86-1.55-.42,.02-.78,.07-.6,.65,.04,.12-.02,.29-.07,.42-.63,1.62-1.38,3.17-2.49,4.51-.31,.37-.65,.91-1.22,.68-.55-.23-.47-.85-.45-1.34,.05-1.53,.42-2.98,1.04-4.38,.17-.38,.38-.74,.7-1.02,.48-.42,.89-.29,.99,.34,.06,.41,.04,.82,.06,1.24,.01,.24,.02,.51,.35,.5,.3,0,.49-.18,.5-.51,.02-.56,.01-1.12-.19-1.65-.37-.97-1.18-1.4-2.19-1.18-.77,.17-1.39,.59-1.89,1.17-1.5,1.74-1.88,3.78-1.53,6,.02,.15,0,.37,.23,.44,0-1.42,.19-2.79,.78-4.22,.17,.34,.08,.51,.06,.68-.11,1.24-.15,2.48,.23,3.68,.34,1.07,1.59,1.73,2.7,.71,.75-.69,1.34-1.5,1.88-2.35,.07-.1,.07-.3,.18-.28,0,1.31,0,2.59,0,3.88,0,.54-.2,.96-.59,1.33-1.04,.97-1.98,2.03-2.89,3.13-1.55,1.88-2.68,3.95-3.02,6.4-.16,1.17-.15,2.34,.36,3.44,.52,1.14,1.46,1.73,2.69,1.75,1.16,.02,2.22-.26,2.76-1.47,.18-.41,.42-.79,.6-1.21,.95-2.2,1.41-4.52,1.74-6.88,.13-.98,.23-1.96,.34-2.94,.11,2.73,.09,5.45-.29,8.15,.51-1.28,.69-2.63,.81-3.99,.23-2.47,.27-4.95,.39-7.43,.02-.47,.15-.86,.46-1.23,.49-.59,.94-1.23,1.33-1.9,.07-.11,.1-.29,.32-.26,.04,.3,.07,.6,.12,.9,.27,1.51,1.19,2.42,2.68,2.62,1.25,.17,2.14-.42,2.81-1.87,.17-.37,.32-.74,.48-1.12,.07,.05,.11,.06,.12,.09,.05,.17,.1,.35,.15,.52,.46,1.63,.97,3.24,1.94,4.65,.53,.78,1.2,1.38,2.12,1.67,.72,.22,1.35,.1,1.89-.43,.49-.48,.88-1.05,1.17-1.67,.29-.62,.54-1.25,.79-1.89,.1-.25,.2-.43,.54-.37,.81,.13,1.47-.24,2.05-.76,.55-.5,.99-1.09,1.38-1.72,.07-.11,.09-.29,.33-.27,.16,1.6,.84,2.8,2.58,3.13,1.89,.36,2.61-.94,3.25-2.34,.27,.28,.19,.69,.52,.9,0-2.4,.28-4.25,.75-4.83,.04,.72,.08,1.35,.12,1.99,.06,.88,.12,1.76,.47,2.58,.26,.59,.71,.91,1.18,.88,.15-.01,.29-.04,.33-.22,.04-.17-.02-.28-.2-.31-.28-.05-.35-.26-.42-.5-.13-.45-.12-.89,0-1.33,.23-.9,.46-1.81,.74-2.7,.92-2.89,2.25-5.6,3.81-8.19,.17-.29,.35-.7,.74-.6,.4,.11,.27,.54,.25,.85-.07,1.49-.16,2.98-.26,4.47-.17,2.53-.38,5.06-.26,7.6,.04,.81,.11,1.62,.41,2.38,.37,.91,1.14,1.24,2.04,1.37Zm7.8,9.92c-.14,.52-.34,1.02-.62,1.49-.44,.73-1.05,1.2-1.94,1.09-.89-.11-1.39-.7-1.63-1.52-.34-1.18-.16-2.34,.14-3.5,.55-2.09,1.83-3.76,3.09-5.44,.58-.77,1.19-1.52,2.05-2.24-.09,3.5-.19,6.85-1.09,10.12Zm-47.58-7.91c-.11,2.59-.3,5.17-.97,7.68-.16,.61-.37,1.2-.7,1.75-.43,.72-1.04,1.17-1.9,1.07-.86-.1-1.37-.67-1.62-1.46-.36-1.16-.19-2.31,.07-3.46,.2-.85,.54-1.63,.98-2.38,.95-1.64,2.05-3.16,3.33-4.57,.24-.26,.46-.54,.69-.81,.04,.04,.09,.08,.13,.12,0,.69,.02,1.38,0,2.07Zm19.91-10.39c-.16,1.06-.4,2.11-.61,3.17-.02,.12-.02,.25-.15,.32-.16-.09-.19-.26-.23-.41-.69-2.87-.87-5.74,.14-8.59,.14-.38,.23-.93,.71-.89,.52,.04,.47,.61,.52,.99,.21,1.82-.11,3.61-.38,5.4Z"/>
      <path d="M90.99,42.89c-.09,.26-.27,.4-.51,.4-.25,0-.27-.25-.32-.44-.06-.24-.11-.49-.13-.74-.39-3.26-.35-6.53-.23-9.8,0-.11-.03-.25,.15-.38,.19,.46,.14,.92,.21,1.37,.27,1.72,.22,3.48,.57,5.2,.02-.23,.02-.47,.02-.7,0-1.56,0-3.13,0-4.69,0-1.31,.03-2.62,.03-3.94,0-.77-.49-1.18-1.36-1.19-.9,0-1.17,.25-1.23,1.1-.18,2.87-.32,5.75-.21,8.62,.11,2.67-.35,5.22-1.25,7.71-.26,.71-.48,1.43-.86,2.09-.14,.24-.28,.59-.6,.55-.34-.04-.6-.29-.76-.62-.21-.47-.28-.96-.32-1.47-.23-3.47-.05-6.94,.22-10.4,0-.1-.03-.22,.2-.28,.19,2.09,.22,4.18,.5,6.25,.24-2.75,.49-5.5,.58-8.26,.03-.87-.39-1.47-1.12-1.88-1.23-.7-2.51-.42-3.3,.75-1.5,2.26-2.55,4.74-3.58,7.23-.06,.14-.03,.38-.33,.41,.06-.77,.1-1.52,.19-2.27,.08-.68-.07-1.27-.66-1.65-.69-.45-1.45-.61-2.26-.37-.23,.07-.34,.24-.13,.44,.34,.33,.34,.74,.31,1.16-.04,.59-.1,1.18-.14,1.77-.06,.86,.02,1.76-.2,2.57-.49,1.82-1.12,3.6-1.99,5.28-.17,.33-.33,.71-.82,.65-.46-.06-.69-.38-.81-.77-.43-1.46-.22-2.93,.05-4.39,.16,1.04,.15,2.1,.55,3.1,.19-1.94,.36-3.87,.51-5.8,.1-1.28-.56-1.88-1.83-1.68-.31,.05-.44,.15-.39,.49,.09,.54,.06,1.08-.14,1.6-.6,1.53-1.32,2.99-2.3,4.31-.22,.29-.46,.56-.77,.75-.5,.31-.91,.14-1.04-.44-.04-.16-.05-.32-.05-.48,0-1.7,.39-3.31,1.12-4.84,.15-.33,.34-.63,.62-.87,.47-.4,.82-.28,.97,.31,.1,.41,.05,.82,.07,1.23,0,.25-.03,.55,.35,.55,.31,0,.49-.2,.51-.52,.04-.52,.01-1.04-.15-1.55-.34-1.01-1.18-1.5-2.24-1.3-.64,.12-1.18,.42-1.67,.84-.9,.78-1.47,1.76-1.76,2.9-.31,1.19-.7,2.34-1.21,3.45-.22,.47-.44,.95-.77,1.36-.44,.55-.93,.56-1.39,.01-.14-.16-.26-.35-.36-.54-.76-1.55-.34-3.13-.11-4.71,.31,.84,.2,1.74,.47,2.59,.1-1.27,.3-2.53,.25-3.8-.04-.98-.79-1.9-1.7-2.16-.97-.29-1.72,.12-2.33,.84-.22,.26-.42,.54-.6,.83-.99,1.58-1.66,3.3-2.25,5.06-.05,.16-.04,.36-.23,.48-.11-.11-.07-.23-.07-.35,0-2.09-.02-4.17-.02-6.26,0-2.07,.04-4.13,.07-6.2,0-.4-.09-.79-.49-.85-.64-.1-1.3-.58-1.94-.02-.11,.1-.15,.24-.17,.39-.02,.18-.04,.36-.05,.54-.28,5.37-.31,10.74-.01,16.12,.02,.27,.01,.55,.17,.8,.02-1.8,.08-3.59,.17-5.39,.09-1.78,.17-3.57,.43-5.34,.28,.39,.26,.84,.27,1.28,.12,3.07,.22,6.14,.54,9.2,.1,.98,.19,1.97,.47,2.92,.13,.43,.27,.87,.64,1.16,.35,.28,.69,.19,.95-.13,.24-.29,.11-.53-.18-.71-.16-.1-.24-.26-.3-.44-.29-.92-.43-1.85-.26-2.82,.3-1.7,.72-3.37,1.31-5,.49-1.35,1.02-2.69,1.85-3.88,.17-.24,.31-.66,.72-.51,.39,.14,.21,.54,.18,.81-.13,1.38-.27,2.76-.2,4.14,.04,.83,.15,1.65,.52,2.41,.32,.66,.82,1.06,1.56,1.18,1.36,.22,2.34-.34,3.08-1.42,.3-.44,.55-.91,.81-1.35,.18,.03,.19,.16,.25,.25,1.04,1.76,2.6,2,4.1,.62,.63-.58,1.11-1.27,1.58-1.98,.07-.1,.08-.29,.29-.27,0,.45,0,.89,0,1.33,0,.92,.04,1.84,.45,2.69,.32,.67,.82,1.14,1.61,1.19,.79,.05,1.33-.35,1.73-.98,.36-.58,.65-1.2,.93-1.82,.17-.37,.25-.78,.53-1.14,.21,.4,.19,.85,.51,1.27-.16-1.92,.16-3.71,.39-5.5,.18,.15,.2,.33,.22,.51,.13,.8,.16,1.61,.22,2.42,.06,.82,.09,1.66,.42,2.43,.27,.63,.78,.94,1.35,.85,.15-.02,.28-.07,.32-.23,.04-.17-.03-.28-.21-.31-.29-.04-.35-.25-.41-.49-.1-.43-.12-.85-.02-1.28,.88-3.9,2.48-7.49,4.52-10.9,.12-.2,.26-.39,.43-.54,.29-.25,.51-.14,.58,.21,.05,.26,.04,.54,.02,.81-.09,1.51-.19,3.01-.27,4.52-.13,2.33-.31,4.66-.26,7,.02,.9,.06,1.8,.41,2.65,.39,.96,1.23,1.25,2.15,1.38,.8,.11,1.25-.42,1.64-1.01,.56-.85,.89-1.8,1.23-2.75,.05-.14,.02-.34,.23-.4,.19,.31,.15,.65,.17,.98,.07,.97,.05,1.94,.4,2.87,.46,1.18,1.7,1.78,2.91,1.4,.19-.06,.32-.16,.35-.36,.03-.19-.02-.35-.21-.45-.28-.15-.38-.41-.46-.7-.14-.53-.21-1.06-.16-1.6,.18-1.86,.81-3.6,1.4-5.36,.11-.33,.3-.35,.58-.2,.29,.16,.46,.41,.54,.71,.1,.38,.17,.77,.25,1.16,.17,.88,.25,1.78,.65,2.61,.14,.29,.28,.6,.63,.72-.14-1.12-.28-2.2-.44-3.42,.37,.35,.46,.68,.58,.99,.26,.67,.44,1.37,.8,2,.59,1.05,1.27,1.11,2.03,.18,.58-.7,.96-1.51,1.25-2.37,.14-.42,.28-.84,.44-1.32,.52,.73,1.01,1.37,1.59,1.93,.34,.33,.3,.57,.02,.91-.62,.77-1.21,1.56-1.7,2.43-.55,.98-1.01,1.99-1.01,3.15,0,1.19,.69,2,1.86,2.23,2.12,.41,4.46-1.13,4.95-3.29,.31-1.36,0-2.64-.57-3.87-.06-.13-.21-.24-.09-.57,1.08,1.7,1.27,3.42,.97,5.25,.08-.05,.1-.09,.12-.13,.96-2.43,.45-4.62-1.1-6.62-.33-.42-.27-.64,.07-.97,.74-.71,1.57-1.32,2.34-1.99,.63-.55,1.2-1.14,1.55-1.91,.91-2.04-.61-4.21-2.84-4.03-.19,.02-.39,.06-.57,.13-.14,.05-.21,.19-.2,.35,.02,.14,.1,.23,.24,.26,.12,.03,.25,.06,.37,.08,.77,.17,1.18,.59,1.33,1.36,.14,.75-.05,1.42-.42,2.07-.7,1.22-1.74,2.14-2.71,3.12-.17,.17-.33,.18-.51,0-1.23-1.29-2.3-2.68-2.7-4.46-.42-1.89,.23-3.16,1.97-3.97,.22-.1,.37-.23,.33-.48-.04-.28-.22-.47-.51-.47-.23,0-.46,.05-.68,.13-1.13,.38-1.94,1.14-2.5,2.17-.83,1.53-.96,3.16-.53,4.81,.22,.84,.22,1.62-.06,2.42-.16,.46-.29,.93-.46,1.38-.16,.42-.34,.83-.62,1.19-.43,.56-.84,.52-1.12-.12-.2-.46-.33-.95-.48-1.43-.35-1.13-.59-2.33-2.01-2.73,.65-.5,1.23-.92,1.71-1.46,.68-.78,1.28-1.61,1.4-2.68,.07-.62-.11-1.15-.67-1.48-.56-.34-1.13-.32-1.69,0-.4,.23-.68,.59-.95,.94-.95,1.26-1.57,2.7-2.13,4.16-.28,.72-.52,1.45-.77,2.19Zm11.36,9.01c-.64,.62-1.32,.82-1.84,.54-.54-.28-.76-1.01-.6-1.87,.11-.57,.36-1.09,.64-1.59,.56-1.01,1.19-1.96,1.92-2.86,1.5,1.74,1.44,4.28-.12,5.78Zm-7.68-14.68c.2-.28,.42-.54,.7-.74,.2-.14,.43-.21,.65-.07,.22,.14,.29,.37,.24,.61-.05,.24-.12,.49-.24,.71-.66,1.19-1.61,2.09-2.76,2.79-.07,.04-.16,.06-.36,.12,.54-1.26,1.05-2.39,1.78-3.42Z"/>
      <path d="M90.66,39.26s.13,.01,.14,0c.02-.08,.05-.17,.03-.25-.04-.17-.08-.34-.12-.52-.02,.18-.05,.35-.1,.53-.03,.08-.04,.18,.05,.24Z"/>
      <path d="M46.98,27.77c.62,.23,1.24,.47,1.87,.68,1.74,.58,3.51,1.07,5.38,1.01,2.44-.07,4.15-1.21,5.09-3.48,.46-1.11,.31-2.15-.32-3.13-.57-.89-1.91-1.36-2.91-1.04-.52,.16-.75,.49-.62,.9,.19,.57,.52,.14,.78,.1,.79-.12,1.53-.04,2.05,.63,.51,.65,.32,1.33-.03,1.97-.4,.73-1.03,1.19-1.8,1.45-1.03,.36-2.08,.36-3.14,.18-2.28-.38-4.43-1.23-6.58-2.02-.32-.12-.42-.34-.42-.66-.03-1.33-.07-2.66-.11-3.99,0-.26,0-.53-.33-.59-.79-.16-1.58-.19-2.33,.13-.54,.23-.85,.65-.89,1.25-.03,.54-.06,1.08-.08,1.62-.03,.71-.03,.71-.68,.49-3.01-1.02-6.07-1.77-9.29-1.65-2.11,.08-4.09,.57-5.75,1.97-3.75,3.18-4.19,9.55-.89,13.38-1.3-3.06-1.51-6.16-.41-9.29,.05,0,.09,0,.14,0,.01,.03,.03,.07,.03,.1-.02,.14-.04,.28-.07,.43-.62,3.51,.04,6.68,2.46,9.39,1.21,1.35,2.71,2.04,4.52,2.05,4.44,.03,7.48-3.86,6.24-7.98-.55-1.82-2.43-3.31-4.28-3.36-.58-.02-.47,.49-.57,.81-.08,.26,.03,.46,.34,.48,1.91,.11,2.77,1.4,3.18,3.02,.36,1.4,.33,2.84-.8,3.93-.93,.91-2.1,1.46-3.42,1.56-2.32,.18-3.91-1.01-5.03-2.89-1.26-2.1-1.45-4.4-1.02-6.78,.08-.44,.21-.87,.35-1.3,1.19-3.47,3.76-4.9,7.33-4.08,2.4,.55,4.6,1.63,6.8,2.7,.52,.25,.74,.59,.75,1.17,.03,2.89,.1,5.79,.15,8.68,.09,4.46,.27,8.91-.01,13.37-.09,1.36-.2,2.73-.67,4.03-.44,1.21-1.68,1.44-2.55,.48-.15-.17-.28-.37-.38-.58-.6-1.25-.65-2.52-.09-3.8,.46-1.06,1.08-1.46,2.23-1.38,.36,.02,.48-.12,.53-.44,.12-.83-.36-1.44-1.21-1.41-1.2,.05-2.13,.63-2.74,1.65-1.18,1.97-.64,5.31,1.09,6.82,1.57,1.38,3.74,.94,4.61-.95,.16-.34,.29-.7,.4-1.06,.61-2.02,.91-4.1,1.06-6.2,.25-3.53,.29-7.08,.36-10.62,0-.24-.03-.48,.2-.68,.37,5.22,.87,10.43,.25,15.71,.25-.11,.22-.32,.26-.47,.17-.86,.28-1.74,.34-2.62,.25-3.46,.21-6.93,.17-10.4-.03-2.97-.07-5.93-.11-8.9,0-.57,.02-.58,.57-.38Z"/>
      <path d="M84.1,66.7c-.07-.28-.18-.55-.28-.82-.18-.47-.35-.94-.43-1.44-.14-.83,.11-1.28,.88-1.63,.15-.07,.3-.12,.45-.18,1.43-.6,1.73-2.08,.65-3.22-.67-.7-1.53-1.07-2.43-1.34-2.31-.67-4.67-.83-7.05-.47-.47,.07-.63-.04-.68-.52-.13-1.15,0-2.26,.27-3.37,.04-.18,.2-.41-.04-.53-.25-.13-.33,.14-.43,.29-1.02,1.49-2.41,2.45-4.15,2.89-.8,.2-1.62,.33-2.43,.49-3.68,.7-7.36,1.05-11.08,.3-1.3-.26-2.65-.24-3.98-.04-2.17,.33-3.9,1.39-5.2,3.16-.16,.22-.28,.45-.64,.28-.98-.47-2.03-.44-3.07-.26-1.93,.34-3.48,1.4-4.85,2.74-.34,.33-.55,.37-.93,.04-1.21-1.04-2.61-1.74-4.23-1.6-2.85,.25-5.11,1.56-6.4,4.21-1.17,2.4-2.92,4.25-5.15,5.66q-.68,.43-1.27-.1c-1.4-1.26-2.98-2.06-4.92-1.96-.89,.04-1.43,.48-1.67,1.34-.18,.67-.14,1.35-.12,2.04,.03,.75,0,.76-.75,.86-1.13,.15-2.24,.38-3.15,1.14-.61,.51-.64,1.05-.08,1.61,.25,.25,.54,.47,.82,.7,.57,.46,.6,.6,.19,1.2-.48,.71-.98,1.42-1.26,2.25-.46,1.37,0,1.91,1.45,1.67,.87-.15,1.71-.43,2.55-.68,.75-.22,1.34-.02,1.81,.59,.26,.34,.52,.69,.81,1.01,.58,.65,1.21,.58,1.65-.18,.13-.22,.22-.45,.32-.68,.29-.7,.58-1.39,.87-2.09,.18-.44,.5-.54,.91-.33,.3,.16,.6,.33,.9,.49,.65,.34,1,.26,1.43-.35,.38-.54,.53-1.17,.62-1.82,.25-1.99-.19-3.86-1.04-5.65-.22-.46-.13-.68,.27-.94,1.53-1,2.97-2.1,3.93-3.7,.04-.06,.08-.17,.21-.09,.05,.2-.04,.38-.07,.58-.14,.76,0,1.47,.38,2.13,.16,.27,.36,.52,.69,.56,.42,.05,.46,.28,.42,.64-.19,1.55,.3,2.84,1.52,3.82,.28,.23,.31,.41,.11,.71-.63,.93-.89,1.99-.99,3.1-.02,.17-.13,.45,.17,.48,.28,.02,.18-.25,.21-.41,.13-.87,.28-1.74,.67-2.54,.39-.81,.39-.82,1.26-.57,.65,.18,1.28,.21,1.87-.16,.51-.32,.51-.84,0-1.17-.39-.25-.81-.28-1.25-.19-.41,.08-.78,.27-1.1,.54-.27,.23-.48,.22-.75,0-.95-.8-1.48-1.78-1.45-3.05,.02-.88,.02-.87,.87-1.01,.95-.15,1.83-.44,2.3-1.39,.28-.57,.15-1.25-.27-1.58-.4-.31-.94-.25-1.49,.17-.26,.2-.47,.45-.66,.71-.3,.41-.55,.85-.71,1.32-.14,.4-.34,.39-.65,.18-.46-.31-.66-.72-.67-1.27-.05-3.05,1.83-5.74,4.81-6.95,2.05-.83,3.86-.5,5.5,.95,.67,.6,.67,.6,.15,1.34-.09,.13-.19,.26-.27,.4-.86,1.42-1.35,2.93-1.22,4.61,.08,1.1,.6,1.8,1.52,2.06,1.44,.41,2.66-.54,2.79-2.16,.15-1.83-.29-3.54-1.23-5.11-.21-.36-.19-.6,.09-.9,1.04-1.13,2.24-2.03,3.65-2.62,1.09-.46,2.22-.6,3.37-.28,.76,.21,.78,.33,.59,1.08-.31,1.23-.33,2.46,.18,3.65,.31,.72,.91,1.07,1.52,.96,.58-.11,.93-.63,.96-1.45,.04-1.28-.37-2.42-1.28-3.32-.39-.39-.4-.69-.08-1.11,.83-1.08,1.88-1.87,3.11-2.44,1.79-.82,3.67-.74,5.56-.5,1.98,.26,3.95,.57,5.96,.39,.08,0,.22-.08,.27,.12-1.86,.77-3.51,1.88-4.98,3.25-1.83,1.7-3.47,3.55-4.47,5.88-.17,.39-.48,.67-.82,.91-.55,.39-1,.87-1.31,1.48,0,0,0,0,0,0,.1,1.08,.78,1.62,1.95,1.52,.62-.35,.85-.93,.97-1.58-.11-.36-.19-.73-.33-1.08-.18-.45-.16-.85,.1-1.28,.54-.91,1.1-1.82,1.74-2.66,2.04-2.67,4.45-4.89,7.6-6.19,1.61-.66,3.33-.88,5.04-1.12,1.96-.28,3.8-.83,5.17-2.38,.04-.05,.11-.06,.3-.16-.32,1.08-.15,2.05,.03,3.02,.08,.43-.23,.49-.57,.52-1.62,.11-3.21,.4-4.74,.95-1.48,.53-2.72,1.37-3.56,2.74-.86,1.41-.54,2.18,1.06,2.57,.61,.15,1.24,.23,1.81,.51,.58,.29,.7,.78,.27,1.27-.29,.34-.65,.61-.98,.92-.82,.76-1.44,1.65-1.73,2.74-.22,.83-.18,1.62,.51,2.23,.67,.59,1.43,.51,2.18,.2,.5-.2,.97-.47,1.46-.69,.54-.24,.82-.15,1.13,.35,.19,.31,.3,.65,.4,1,.28,.97,.4,1.97,.52,2.97,.1,.83,.43,1.16,1.25,1.32,1.2,.23,2.16-.16,2.91-1.1,.4-.5,.67-1.06,.9-1.65,.46-1.18,.64-2.43,.92-3.65,.14-.6,.33-1.17,.7-1.68,.32-.45,.7-.58,1.21-.32,.45,.23,.92,.41,1.42,.48,1.6,.23,2.71-.99,2.31-2.54ZM11.12,80.79s-.01-.09-.02-.13c.22-.82,.7-1.49,1.17-2.17,.65-.95,.6-1.26-.29-1.98-.15-.12-.31-.24-.47-.37-.63-.52-.61-.88,.09-1.32,.79-.5,1.67-.73,2.6-.8,1.1-.09,1.26-.26,1.22-1.37-.02-.59-.06-1.19,.06-1.77,.15-.74,.59-1.13,1.34-1.17,1.96-.1,3.54,.77,4.99,1.96,.18,.15,.14,.26-.03,.37-.11,.07-.22,.13-.33,.19-3.89,1.99-7.1,4.79-9.89,8.12-.11,.14-.24,.26-.36,.39-.03,.02-.06,.03-.09,.05Zm.11,.91c.7-.83,1.26-1.57,1.97-2.18,0,.62-.21,1.2-.5,1.73-.28,.52-.83,.39-1.48,.45Zm1.97-2.19s0,0,0,0c0,0,0,0,0,0Zm1.14,1.03c-.03,.15-.1,.32-.2,.43-.17,.2-.44,.34-.67,.24-.3-.12-.03-.38,0-.55,.16-.68,.27-1.38,.61-2,.16-.3,.33-.59,.75-.87-.17,.99-.32,1.87-.49,2.75Zm1.74-.45c-.04,.79-.1,.81-.86,.72-.22-.03-.32-.09-.28-.33,.14-.83,.24-1.66,.42-2.49,.2-.96,.78-1.67,1.61-2.18,.02-.02,.05-.04,.07-.06,0,.04,0,.08,0,.13-.72,1.31-.89,2.74-.96,4.2Zm1.65,1.26c-.02,.34-.05,.68-.24,1.02-.56-.57-1.18-1.04-.86-2.01,.15-.46,.11-1,.11-1.5,.01-1.26,.4-2.4,1.02-3.47,.33-.57,.83-.96,1.45-1.21-1.09,1.38-1.26,3-1.35,4.65-.05,.84-.08,1.68-.13,2.53Zm1.29-.09c-.16,.51-.28,1.04-.6,1.49-.06,.09-.14,.18-.26,.15-.12-.03-.11-.14-.08-.22,.49-1.74,.22-3.54,.41-5.3,.11-1.07,.44-2.05,1.07-2.93-.46,2.25,.16,4.58-.53,6.81Zm.54-6.83s0,0,0,0c0,0,.03,0,.03,0h-.02Zm1.2,2.85c-.02,.6-.15,1.17-.44,1.7-.05,.09-.12,.2-.25,.16-.11-.03-.08-.15-.08-.23-.02-1.25-.19-2.51,.03-3.76,.11-.62,.23-1.23,.73-1.68,0-.01,.02-.01,.02-.03-.01,0,0,.02,0,.03-.14,1.27,.04,2.53,0,3.8Zm1.49,1.9c-.08,.34-.18,.44-.53,.26-.81-.42-.82-.4-.59-1.24,.22-.81,.21-1.63,.11-2.46-.08-.75-.13-1.5,.05-2.25,.1-.43,.3-.8,.73-1.02-.41,1-.14,1.96,.09,2.92,.3,1.25,.42,2.51,.13,3.78Zm.68-.02c.58-2.15-.66-4.09-.82-6.3,1.07,1.02,1.78,5.16,.82,6.3Zm9.51-4.24c.39-.12,.78-.08,1.1,.23,.11,.11,.14,.26,.04,.39-.26,.36-.67,.37-1.07,.41-.39-.06-1.07-.04-1.08-.34-.02-.43,.6-.57,1.01-.69Zm-3.02-4.59c.3-.66,.65-1.28,1.21-1.75,.31-.26,.66-.47,1.07-.2,.33,.22,.42,.8,.18,1.22-.46,.82-1.27,1.05-2.12,1.16-.38,.05-.51-.05-.34-.43Zm10.64-1.79c.02,.7-.13,1.54-.74,2.23-.48,.55-.9,.51-1.27-.13-.31-.55-.37-1.16-.36-1.77,.03-1.38,.39-2.66,1.1-3.84,.08-.13,.14-.34,.32-.34,.19,0,.21,.22,.26,.36,.44,1.06,.68,2.16,.68,3.49Zm9.57-3.51c-.01,.11-.04,.21-.09,.31-.12,.26-.21,.57-.55,.6-.36,.03-.55-.25-.67-.53-.53-1.28-.48-2.57-.02-3.98,1.05,1.08,1.46,2.24,1.32,3.6Zm25.17-4.53c.02,.19-.02,.36-.21,.45-1.66,.81-2.9,2.15-4.28,3.31-.21,.18-.43,.33-.73,.23-.19-.07-.29-.16-.07-.33,1.18-.86,2.08-2.03,3.14-3.01,.45-.42,.91-.81,1.48-1.06,.5-.22,.66-.13,.67,.41Zm-8.09,2.77c-.15,.07-.32,.23-.49,.06-.17-.16-.09-.37-.02-.56,.17-.42,.41-.8,.71-1.13,1.45-1.58,3.3-2.34,5.38-2.64-1.76,.88-3.09,2.27-4.52,3.55-.32,.29-.67,.55-1.07,.72Zm.32,.56c1.5-.8,2.53-2.05,3.78-3.03,.79-.63,1.64-1.16,2.59-1.5,.15-.05,.3-.13,.46-.14,.25-.02,.62-.21,.7,.12,.07,.3-.33,.24-.53,.31-.83,.3-1.52,.8-2.14,1.41-.83,.82-1.67,1.63-2.44,2.5-.7,.79-1.48,.71-2.43,.33Zm-.13,7.42c-.33-.19-.17-.6-.06-.89,.49-1.31,1.18-2.5,2.32-3.37,.31-.24,.62-.49,.92-.75,.2-.18,.43-.41,.39-.68-.07-.49,.24-.69,.54-.95,.96-.84,1.88-1.72,2.84-2.56,.29-.25,.64-.68,.97-.53,.19,.09,.14,.72,.2,1.1,.04,.25-.11,.41-.3,.52-2.33,1.33-3.95,3.36-5.43,5.52-.52,.75-.98,1.55-1.64,2.2-.2,.2-.43,.57-.75,.39Zm1.48,.71c-.25,.16-.5,.3-.8,.12-.19-.11-.3-.22-.05-.38,1.05-.72,1.68-1.81,2.43-2.79,1.17-1.5,2.2-3.11,3.68-4.35,.29-.24,.58-.48,.88-.71,.15-.11,.28-.35,.49-.24,.21,.1,.09,.36,.1,.4,.07,.38-.01,.56-.21,.71-1.62,1.24-2.82,2.86-3.97,4.51-.72,1.03-1.47,2.05-2.56,2.74Zm2.25-.85c-.19-.02-.4,.11-.68,.19,1.78-1.88,3.06-4.05,4.83-5.83,.11-.11,.2-.32,.37-.26,.17,.06,.08,.28,.12,.43,.19,.73-.03,1.28-.59,1.81-.8,.75-1.41,1.68-2.09,2.53-.5,.63-1.02,1.22-1.95,1.13Zm2.13,1.85c-.36,.01-.27-.69-.52-1.01-.3-.39-.13-.64,.2-.92,1.01-.88,1.65-2.08,2.47-3.12,.11-.14,.16-.32,.41-.4,.12,.59,.04,1.08-.33,1.55-.68,.85-1.02,1.89-1.5,2.86-.2,.39-.32,1.03-.73,1.05Zm.36,2.29c-.26-.04-.15-.5-.22-.77-.07-.3,0-.54,.22-.78,.73-.85,1.03-1.92,1.49-2.91,.2-.43,.3-.9,.7-1.36,.08,.92-.05,1.65-.41,2.37-.45,.92-.81,1.88-1.23,2.81-.12,.27-.26,.7-.55,.65Zm.74,1.25c-.08,.16-.19,.29-.38,.16-.2-.14-.39-.38-.2-.59,.78-.81,1.15-1.84,1.59-2.84-.1,1.17-.5,2.24-1.02,3.27Zm6.54-8.22c-.87-.26-1.51,0-1.96,.79-.53,.94-.68,2-.94,3.03-.31,1.24-.59,2.49-1.38,3.54-.34,.46-.76,.82-1.28,1.05-.11,.05-.25,.12-.35,0-.08-.09,0-.2,.04-.3,1.47-3.21,1.83-6.62,1.87-9.94-.03-2.52-.25-4.86-.69-7.18-.13-.7-.13-.71,.55-.89,2.4-.62,4.77-.54,7.08,.41,.64,.26,1.22,.62,1.69,1.13,.72,.79,.61,1.6-.3,2.16-.32,.2-.67,.34-1.01,.51-.73,.38-.98,.84-.89,1.67,.07,.69,.33,1.32,.53,1.97,.21,.67,.31,1.33-.13,1.96-.43,.61-.93,.78-1.63,.52-.41-.15-.8-.32-1.21-.45Z"/>
      <path d="M129.41,24.37c.3-.78,.41-1.64,.82-2.38,.46-.83,1.07-1.54,2.07-1.74,.82-.16,1.09,.13,.9,.92-.08,.31-.15,.63-.19,.95-.09,.88-.03,1.73,.51,2.48,.3,.41,.68,.72,1.23,.59,.55-.13,.75-.57,.82-1.08,.17-1.26-.29-2.35-1.09-3.28-.37-.43-.31-.7,0-1.1,1.8-2.23,4.99-2.78,7.45-1.27,.35,.22,.45,.43,.3,.83-.47,1.3-.63,2.65-.52,4.03,.07,.93,.31,1.81,.98,2.51,.8,.83,1.77,.67,2.26-.37,.18-.38,.29-.78,.3-1.19,.05-1.94-.46-3.71-1.73-5.19-.36-.41-.39-.72-.04-1.11,.06-.07,.11-.15,.16-.22,2.51-3.26,7.58-4.12,10.43,.3,.36,.56,.69,1.14,1.03,1.71,.54,.91,1,1.87,1.65,2.72,1.27,1.66,2.74,2.18,4.74,1.64,.42-.11,.57,.02,.71,.39,.55,1.37,.97,2.78,1.27,4.23,.19,.93,.56,1.78,1.19,2.51,1.52,1.76,3.82,1.48,4.86-.59,.23-.47,.41-.96,.64-1.43,.38-.76,.82-.94,1.63-.71,.61,.17,1.14,.51,1.69,.83,.94,.54,1.9,.4,2.65-.38,.43-.45,.64-.99,.75-1.58,.2-1.07-.03-2.11-.18-3.16-.12-.85,.06-1.6,.57-2.29,.33-.43,.72-.8,1.12-1.17,.42-.39,.87-.76,1.19-1.24,.44-.67,.36-1.4-.22-1.95-.29-.28-.65-.44-1.03-.57-1.39-.47-2.81-.52-4.26-.31-1.92,.27-2.5-.19-2.8-2.1-.05-.3-.08-.61-.12-.91-.05-.34-.11-.67-.25-.99-.31-.72-.72-.99-1.5-.99-.95,0-1.63,.46-2.14,1.24-.46,.7-.67,1.51-1.07,2.23-.43,.78-1.02,.86-1.65,.24-.44-.43-.74-.97-1.11-1.45-.97-1.26-2.31-1.14-3.05,.27-.35,.68-.53,1.41-.54,2.18-.03,1.29,.35,2.48,.79,3.67,.35,.94,.7,1.89,1.06,2.83,.16,.43,.01,.65-.4,.75-.19,.04-.39,.09-.58,.11-1.71,.19-2.9-.65-3.76-2.02-.77-1.23-1.48-2.5-2.22-3.76-.67-1.14-1.57-2.05-2.73-2.7-.12-.07-.32-.1-.31-.26,.01-.19,.23-.18,.38-.23,2.11-.72,4.06-1.75,5.77-3.19,1.66-1.4,3.04-3.01,3.75-5.11,.21-.64,.21-.65,.81-.31,2.92,1.66,5.92,1.67,8.98,.47,.36-.14,.56-.12,.69,.28,.22,.67,.58,1.28,.99,1.85,1.16,1.6,2.65,2.71,4.69,2.78,2.41,.08,4.87-1.74,5.83-4.24,.09-.23,.16-.48,.22-.72,.04-.16,.04-.36-.15-.41-.25-.06-.22,.18-.26,.32-.64,2.09-2.03,3.48-4.04,4.25-1.11,.42-2.23,.35-3.3-.16-1.74-.82-2.79-2.27-3.52-3.98-.14-.32,.03-.51,.27-.67,.51-.37,1.01-.76,1.4-1.26,.79-1.01,1.13-2.13,.71-3.38-.27-.84-1.02-1.18-1.86-.9-.82,.27-1.2,.94-1.42,1.71-.3,1.02-.3,2.06-.07,3.09,.09,.42-.03,.62-.42,.77-2.74,1.06-5.43,1.06-8.1-.25-.73-.36-1.22-.79-1.2-1.71,.02-.77-.32-1.47-.93-1.99-.32-.27-.69-.4-1.09-.16-.38,.23-.49,.6-.42,1.03,.05,.35,.2,.65,.39,.93,.3,.43,.63,.84,1.03,1.17,.32,.26,.39,.56,.28,.95-.31,1.13-.83,2.14-1.53,3.07-2.11,2.8-5,4.48-8.21,5.69-.21,.08-.42,.08-.63,.02-2.95-.87-6.12,.67-7.7,3.05-.24,.37-.43,.36-.77,.15-1.35-.86-2.83-1.11-4.4-.8-.09,.02-.2,.08-.32-.06,.42-.5,.91-.98,1.14-1.6,.38-1.03,1.03-1.83,1.85-2.52,1.28,.18,2.55,.48,3.85,.22,.92-.18,1.51-.83,1.61-1.72,.12-1.01-.59-1.64-1.57-1.36-.43,.12-.83,.34-1.24,.51-.2,.08-.43,.19-.61,0-.2-.2-.1-.45,.02-.65,.27-.46,.59-.9,.87-1.36,.43-.68,.63-1.4,.45-2.21-.23-1.05-1.13-1.58-2.16-1.27-1.33,.4-2.03,1.57-1.73,2.92,.09,.4,.22,.8,.23,1.21,0,.26-.02,.51-.32,.62-.27,.1-.49-.02-.68-.21-.23-.23-.38-.52-.51-.82-.24-.54-.45-1.1-.73-1.62-.45-.83-1.41-.94-2.08-.26-.56,.57-.65,1.42-.22,2.25,.36,.71,.92,1.24,1.56,1.68,.53,.36,1.1,.68,1.65,1.02,.26,1.51-.29,2.79-1.1,4.01-.09,.13-.18,.27-.27,.4-.45,.64-1.01,1.17-1.69,1.56-.79,.45-1.49,1.01-1.99,1.78-.15,.24-.33,.33-.63,.24-.82-.23-1.56-.03-2.21,.52-.72,.62-1.16,1.4-1.41,2.31-.24,.88-.41,1.79-.87,2.6h0c.43-.2,.51-.63,.65-1.01Zm35.7,6.5c-.63-.82-.88-1.8-1.04-2.79-.22-1.41-.58-2.77-1.35-4-.06-.1-.17-.21-.07-.34,.09-.12,.23-.08,.35-.06,.48,.1,.78,.43,1.02,.82,.36,.58,.59,1.23,.78,1.88,.41,1.37,.87,2.73,1.45,4.05,.23,.51,.47,1,.99,1.48-1,.02-1.64-.38-2.14-1.03Zm3.72,.21c-.63,.85-1.21,.83-1.72-.09-.63-1.16-.93-2.45-1.35-3.68-.2-.58-.39-1.16-.62-1.72-.36-.9-.77-1.78-1.66-2.39,.96-.56,1.63-.41,2.18,.44,.59,.92,.85,1.97,1.17,3,.28,.91,.56,1.82,.99,2.67,.22,.44,.49,.84,.9,1.12,.29,.2,.31,.37,.1,.65Zm.87-1.83c-.16,.2-.22,.49-.3,.74-.14,.44-.34,.37-.59,.1-.39-.44-.62-.97-.79-1.52-.35-1.1-.65-2.2-1.01-3.29-.34-1.04-.79-2.01-1.78-2.67,.76-.52,1.37-.47,1.95,.08,.31,.3,.55,.66,.75,1.05,.38,.71,.68,1.47,.98,2.22,.2,.5,.31,1.09,.69,1.45,.66,.63,.66,1.18,.1,1.85Zm1.92-1.37c-.13,0-.25,0-.31,0-.53,.09-.82-.15-1.05-.5-.39-.57-.61-1.22-.88-1.84-.52-1.2-.99-2.43-2.06-3.29-.19-.15-.13-.25,.05-.35,.47-.27,1.01-.22,1.44,.18,.45,.41,.72,.94,.98,1.47,.66,1.33,1.22,2.71,2,3.99,.14,.23,.14,.37-.18,.35Zm2.34,.78c-.8-.23-1.4-.72-1.78-1.46-.41-.8-.79-1.61-1.18-2.42-.54-1.13-1.03-2.28-2.02-3.15,1.09-.48,1.62-.35,2.21,.55,.46,.71,.71,1.53,1.08,2.28,.26,.53,.51,1.07,.79,1.59,.67,1.19,1.06,1.56,2.3,2.16-.38,.52-.86,.6-1.41,.44Zm1.81-1.08c-.15,.12-.3,.04-.45-.01-.57-.22-1.02-.61-1.35-1.11-.26-.39-.49-.79-.69-1.21-.34-.69-.64-1.4-.98-2.1-.33-.68-.77-1.29-1.32-1.83,1.11-.38,1.59-.23,2.22,.65,.57,.81,.95,1.73,1.45,2.58,.31,.53,.65,1.03,1.16,1.4,.32,.24,.29,1.38-.02,1.63Zm.16-2.18c-.32-.05-.4-.27-.52-.44-.4-.57-.71-1.2-1.04-1.82-.36-.68-.76-1.34-1.35-1.86-.07-.06-.21-.12-.14-.25,.03-.06,.15-.08,.23-.1,.39-.07,.74-.02,1.02,.31,.56,.65,.96,1.43,1.63,1.99,.06,.05,.09,.16,.08,.24-.07,.63-.01,1.25,.08,1.92Zm.2-2.87c-.2,.18-.29-.02-.39-.11-.55-.48-.89-1.16-1.57-1.63,1.01-.46,1.11-.43,1.69,.33,.1,.13,.2,.26,.3,.37,.31,.34,.29,.74-.04,1.04Zm.72-1.2c-.13,.17-.25,.04-.35-.06-.11-.11-.24-.22-.34-.34-.15-.19-.52-.36-.4-.57,.13-.25,.51-.28,.83-.33,.4,.01,.7,.31,.81,.6,.12,.33-.37,.45-.55,.7Zm1.59-1.34c-.47,.57-.62,.55-1.31-.18,.57-.5,.9-.53,1.29-.16,.13,.13,.14,.2,.02,.35Zm.97-1.46c.08,.07,.05,.16,.03,.25-.13,.68-.5,.81-1.14,.33,.3-.19,.58-.38,.86-.56,.07-.05,.17-.09,.25-.03Zm-18.73-.74c-.07-.35-.09-.71-.13-1.07,0-.81,.18-1.58,.63-2.26,.47-.72,.95-.74,1.49-.07,.13,.17,.24,.36,.38,.52,.23,.3,.45,.61,.71,.88,1.21,1.2,2.43,.92,3.03-.67,.24-.62,.4-1.27,.71-1.86,.4-.76,.96-1.29,1.89-1.31,.73-.02,1.1,.23,1.35,.91,.14,.39,.17,.81,.22,1.22,.05,.37,.08,.75,.17,1.12,.34,1.53,.88,1.95,2.45,1.88,1.2-.05,2.4-.3,3.59,0,.61,.15,1.23,.26,1.77,.62,.35,.24,.36,.42,0,.67-1.75,1.19-3.72,1.77-5.79,2.04-2.57,.33-5.14,.63-7.63,1.38-1.02,.31-2.02,.64-2.95,1.16-.17,.09-.38,.27-.47-.12-.39-1.7-1.07-3.32-1.39-5.04ZM172.45,1.58c.3-.49,.82-.77,1.24-.67,.43,.1,.71,.56,.73,1.2,.03,1.19-.94,2.71-2.03,3.22-.26,.12-.27-.04-.3-.2-.1-.47-.17-.95-.17-1.59,.02-.59,.14-1.31,.53-1.96Zm-12.41,1.35c-.08-.18-.09-.36,.11-.47,.19-.1,.3,.05,.41,.17,.42,.45,.6,1,.65,1.74-.58-.43-.93-.89-1.16-1.44Zm-17.4,16.73c.11-.35,.24-.42,.48-.09,1.08,1.43,1.62,3.04,1.46,4.84-.05,.53-.12,1.18-.75,1.3-.64,.13-.92-.45-1.17-.93-.4-.74-.43-1.55-.43-2.36-.02-.94,.13-1.86,.41-2.76Zm-4.35-9.47s0-.01,0-.02c-.02,.02-.03,.04-.05,.06,.02-.01,.04-.02,.06-.04-.02,.01-.04,.03-.06,.04,0,0-.01,.02-.02,.02,0,0,0,0,0,0,0,0,.01,0,.02-.01,.02-.02,.03-.04,.05-.07,0,0,0,.01,0,.02Zm-.41-2.17c-.41-.34-.67-.75-1.14-1.04,.69-.08,.91,.13,1.14,1.04Zm-1.44-.44c.15-.09,.28-.03,.39,.07,.14,.13,.28,.28,.39,.44,.39,.55,.69,1.17,.97,1.78,.06,.12,.12,.25,.03,.38,0,0-.01,0-.02,.01-.39-.38-.79-.76-1.17-1.16-.31-.33-.57-.69-.69-1.13-.04-.14-.05-.29,.09-.38Zm-.45-.11c.04,1.92,1.43,2.78,2.62,3.89-1.73-.37-3.27-2.59-2.62-3.89Zm8.84,3.15c.2-.07,.43-.15,.59,.06,.18,.24,.03,.44-.12,.62-.59,.77-1.79,1.01-2.85,.55,.8-.44,1.53-.95,2.38-1.23Zm-1.35-4.39c.25,.39,.24,.85,.12,1.31-.13,.51-.43,.94-.71,1.38-.19,.28-.39,.56-.54,.86-.34,.66-.28,.88,.38,1.31-.41,.21-.77,.38-1.19,.41,.26-1.9,1.21-3.54,1.95-5.27Zm-1.64-.52c.18-.18,.4-.25,.64-.16,.26,.09,.4,.29,.42,.57,.02,.31-.06,.6-.21,.87-.37,.67-.79,1.31-1.08,2.18-.13-.88-.29-1.61-.27-2.36,.01-.43,.19-.79,.5-1.09Zm.62,6.76c.51,.14,1.01,.23,1.53,.13,.68-.13,1.19-.52,1.59-1.19-.03,.75-.35,1.16-.97,1.34-.69,.21-1.38,.12-2.07,0-.44-.08-.88-.16-1.42-.25,.52-.29,.93-.15,1.34-.03Zm-3.65-2.37c.17-.09,.28,.01,.4,.08,.34,.19,.69,.19,1.02-.03,.34-.23,.39-.59,.32-.96-.09-.46-.21-.91-.3-1.37-.14-.74,.08-1.37,.67-1.88-.46,1.39,.01,2.79-.11,4.18-.05,.58-.14,1.14-.54,1.6,.22,.31,.36,.64,.3,1,.06-.36-.09-.69-.3-1-.21-.15-.43-.29-.7-.27-.17-.5-.52-.89-.77-1.35Zm-4.87,10.88c.77,.9,1.27,1.87,1.11,3.08-.03,.25-.12,.5-.41,.57-.28,.07-.47-.11-.65-.3-.3-.32-.37-.73-.43-1.14-.12-.73,.02-1.55,.38-2.22Z"/>
      <path d="M7,25.2c.39,.23,.56,.41,.29,.92-.74,1.4-.52,3.08,.45,4.07,.74,.77,1.86,.65,2.44-.24,.22-.34,.32-.72,.33-1.12,.04-1.42-.65-2.51-1.63-3.45-.31-.3-.31-.49,.03-.77,1.13-.9,2.63-1,4.05-.21,1.63,.9,2.69,2.31,3.49,3.93,1.65,3.37,1.85,6.9,1.05,10.52-.06,.28-.19,.57-.07,.89,.25-.09,.25-.29,.29-.45,.53-2,.71-4.03,.48-6.09-.31-2.79-.59-5.57-.59-8.39,0-3.79,1.32-7.06,3.76-9.91,.54-.63,1.14-1.2,1.87-1.61,.57-.32,.67-.27,1.03,.27,.62,.94,1.15,1.97,1.96,2.77,1.62,1.6,3.52,2.33,5.8,1.69,.87-.24,1.41-.83,1.58-1.73,.08-.42,.13-.85,.19-1.28,.14-.92,.57-1.28,1.5-1.25,.22,0,.43,.03,.65,.04,1.12,.05,1.8-.51,1.95-1.63,.08-.56,.06-1.12-.1-1.66-.16-.54-.06-1.03,.22-1.5,.21-.35,.44-.7,.63-1.07,.38-.77,.11-1.34-.72-1.55-.47-.12-.96-.14-1.45-.08-.57,.07-1.14,.16-1.71,.25-.82,.12-1.09-.03-1.23-.86-.09-.51-.09-1.04-.15-1.55-.1-.82-.52-1.18-1.34-1.12-.8,.05-1.48,.41-2.06,.96-.29,.27-.55,.57-.84,.83-.65,.59-.98,.54-1.44-.22-.22-.36-.36-.74-.47-1.14-.11-.38-.19-.77-.32-1.14-.24-.68-.66-.84-1.31-.51-.48,.24-.85,.6-1.16,1.02-.91,1.23-1.29,2.63-1.42,4.13-.14,1.71,.09,3.37,.63,5,.15,.45,.17,.7-.41,.82-.6,.12-1.1,.51-1.58,.89-1.3,1.03-2.22,2.34-2.95,3.81-1.27,2.58-1.65,5.34-1.52,8.18,.02,.54-.01,1.09,.07,1.64-.33-.9-.69-1.78-1.04-2.66-.92-2.32-2-4.58-2.71-6.98-.18-.6-.45-1.23-.28-1.84,.22-.77,.27-1.55,.34-2.33,1.33,.34,2.47-.19,3.56-.85,.49-.3,.74-.81,.86-1.38,.09-.45,.01-.87-.36-1.17-.37-.3-.79-.3-1.22-.13-.49,.18-.83,.56-1.22,.87-.21,.17-.44,.35-.73,.19-.31-.17-.28-.47-.23-.76,.11-.75,.41-1.45,.65-2.16,.35-1.06,.4-2.11,.05-3.17-.34-1.03-1.38-1.34-2.25-.69-.47,.35-.72,.84-.87,1.39-.19,.72-.17,1.46-.06,2.19,.14,.92,.43,1.82,.48,2.76,0,.16,.05,.35-.12,.44-.2,.1-.33-.07-.46-.18-.39-.37-.6-.85-.79-1.33-.31-.78-.56-1.6-.93-2.35-.49-.99-1.53-1.04-2.22-.16-.2,.26-.32,.56-.35,.89-.13,1.6,.45,2.88,1.76,3.81,.74,.53,1.61,.77,2.46,1.07-.02,.48,.11,.95,.33,1.35,.65,1.16,.92,2.39,1.08,3.71,.24,1.98,1.15,3.76,2.08,5.51,.9,1.7,1.66,3.46,2.09,5.34,.03,.08,.09,.16,0,.24-.03-.06-.06-.11-.1-.17-.37-.72-.73-1.44-1.19-2.11-.79-1.14-1.7-2.15-2.99-2.73-1.53-.68-2.98-.56-4.28,.54-.26,.22-.45,.27-.75,.06-2.16-1.54-5.27-.96-7.06,.74-.38,.36-.69,.79-.78,1.33-.02,.14-.08,.32,.09,.38,.19,.07,.21-.13,.27-.25,.08-.16,.16-.32,.28-.46,1.46-1.7,4.41-2.17,6.34-1.04ZM37.94,8.2c-.61,.84-.9,1.74-.6,2.78,.09,.32,.06,.68,.03,1.02-.09,.88-.56,1.26-1.44,1.23-.36-.02-.72,0-1.07,.07-.8,.15-1.31,.64-1.47,1.44-.08,.4-.14,.81-.18,1.22-.09,.88-.61,1.34-1.43,1.53-1.02,.24-2,.11-2.96-.27-1.2-.48-2.18-1.23-2.9-2.32-.33-.51-.71-.99-1.06-1.49-.35-.5-.34-.56,.24-.8,1.18-.5,2.45-.69,3.69-.95,2.35-.49,4.62-1.19,6.74-2.33,.84-.45,1.62-1,2.32-1.65,.13-.12,.24-.26,.48-.31-.04,.36-.23,.6-.4,.83Zm-1.76-1.15c.24-.38,1.42-.45,1.74-.16,.12,.11,.11,.22,.02,.33-.1,.12-.21,.25-.33,.35-1.32,1.1-4.36,2.4-6.18,2.55,.65-.3,1.29-.6,1.94-.89,1.11-.5,2.12-1.11,2.8-2.18Zm-3.05-.1c.07-.11,.14-.29,.32-.14,.57,.46,1.18,.3,1.8,.15,.07-.02,.14,0,.34-.02-.39,.49-.79,.79-1.22,1.03-.74,.42-1.49,.79-2.23,1.19-.66,.36-1.3,.75-1.88,1.26-.47,.41-1.13,.36-1.74,.52,.01-.44,.29-.62,.53-.78,.59-.41,1.19-.8,1.8-1.18,.87-.55,1.7-1.15,2.27-2.03Zm-1.02-2.94c.06-.2,.07-.52,.41-.47,.3,.04,.4,.3,.43,.55,.04,.3,.05,.61,.07,.91,.17,.98-.39,1.64-1,2.27-.56,.59-1.25,1.02-1.92,1.47-.56,.39-1.12,.78-1.58,1.29-.11,.12-.27,.24-.29,.38-.12,.79-.75,.75-1.3,.84-.3,.05-.34-.09-.23-.34,.21-.49,.56-.87,.93-1.24,.8-.8,1.63-1.57,2.41-2.38,.92-.95,1.69-2,2.07-3.29Zm-2.49,1.02c.5-.32,.81-.91,1.37-1.2,.15-.08,.34-.25,.49-.12,.16,.14-.02,.33-.07,.49-.33,.93-.87,1.74-1.54,2.45-.75,.8-1.53,1.57-2.29,2.36-.61,.64-1.2,1.29-1.38,2.21-.06,.33-.36,.47-.65,.45-.31-.02-.21-.32-.25-.52,.06-.61,.35-1.13,.72-1.6,.53-.68,1.14-1.31,1.58-2.05,.56-.93,1.06-1.86,2.03-2.47Zm-2.48-.2c.29,.1,.49,.48,.72,.76,.13,.16,0,.31-.08,.45-.33,.58-.71,1.12-1.14,1.64-.26,.32-.53,.64-.79,.96-.76,.94-1.47,1.9-.93,3.27-.55-.24-.82-.83-.76-1.52,.05-.64,.31-1.22,.64-1.76,.47-.76,.98-1.51,1.46-2.27,.17-.27,.33-.56,.5-.83,.15-.24,.18-.76,.37-.69Zm-.66-2.09c.39,.8,.4,1.42,.12,2.08-.35,.83-.85,1.57-1.36,2.31-.39,.57-.77,1.16-1.16,1.73,.34-2.19,2.11-3.77,2.4-6.12Zm-3.02,5.61c-.07-1.78,.19-3.48,1.15-5,.24-.38,.53-.72,.91-.98,.12-.08,.25-.19,.39-.12,.16,.08,.08,.25,.08,.39-.03,.47-.18,.91-.37,1.34-.67,1.48-1.66,2.8-2.16,4.37Zm-14.49-1.59c.21-.09,.34,.16,.45,.31,.62,.89,1.07,1.86,1.41,2.88,.03,.1,.07,.2-.05,.34-.91-.81-1.66-1.71-1.91-2.95-.04-.21-.12-.48,.11-.58Zm-.56,.67c.12,.35,.2,.71,.35,1.05,.37,.85,.95,1.56,1.57,2.24,.09,.1,.31,.32,.21,.37,0,0,0,0-.04,.01-.66-.6-1.33-1.2-1.74-2.02-.26-.51-.49-1.03-.35-1.65Zm-.72,.76c0-.13-.05-.35,.12-.37,.22-.03,.14,.21,.15,.32,.22,1.52,1.03,2.65,2.32,3.46,.28,.18,.56,.36,.93,.61-1.95-.26-3.6-2.19-3.52-4.02Zm7.46,4.92s.03,0,.04-.01c0,0,0,.01,0,.01-.02,0-.03,0-.05,0Zm2.51-2.33c.14,.67-.09,1.21-.69,1.62-.54,.37-1.14,.6-1.78,.7-.04-.12,.08-.12,.14-.15,1.02-.44,1.89-1.03,2.33-2.16Zm-2.61,1.69c.7-.63,1.39-1.26,2.09-1.89,.03,.04,.07,.08,.1,.12-.44,.9-1.25,1.41-2.19,1.77Zm-.33-1.15c.38,.06,.66-.31,.94-.56,.42-.39,.86-.71,1.5-.59-1.18,.64-1.97,1.84-3.41,2.29,.1-.25,.17-.38,.2-.52,.08-.43,.2-.71,.77-.62Zm.01-5.77c.43,1.33-.14,2.5-.61,3.69-.28-1.3,.51-2.44,.61-3.69Zm-.91-1.2c.44,.04,.39,.53,.45,.87,.06,.32-.02,.65-.11,.96-.3,.95-.7,1.88-.81,2.89-.25-1.33-.51-2.65-.11-3.97,.1-.32,.19-.78,.58-.75Zm-1.24,6.03c-.13-.83-.34-1.65-.49-2.48-.15-.8-.22-1.61,.05-2.39,.18-.51,.43-.98,1.1-1.25-1.3,2.06-.6,4.14-.41,6.18,.05,.52,.1,1.04,.04,1.56-.02,.2,0,.47-.29,.51-.24,.03-.33-.16-.43-.34-.12-.22-.25-.43-.4-.69,.79-.13,.94-.3,.82-1.09Zm-4.47,15.73c.64,.67,1.19,1.39,1.39,2.32,.16,.7-.08,1.37-.54,1.55-.47,.19-1.01-.14-1.39-.84-.24-.44-.32-.91-.31-1.4-.01-.55,.13-1.06,.37-1.55,.13-.26,.27-.3,.48-.08Z"/>
      <path d="M97.5,25.69c.59,.26,1.19,.5,1.78,.76,1.03,.46,1.04,.49,.28,1.29-.25,.26-.51,.51-.76,.77-.34,.36-.74,.66-1.05,1.09,.09,.03,.13,.06,.18,.05,2.2-.23,4.32,.25,6.44,.75,1.99,.47,3.96,1.1,6.01,1.22,4.39,.26,8.67-.35,12.84-1.77,1.32-.45,2.61-.99,3.88-1.62-.13-.21-.32-.22-.49-.26-.83-.22-1.67-.43-2.5-.64-.38-.1-.42-.28-.17-.56,.39-.42,.79-.83,1.18-1.26,.29-.32,.56-.65,.92-1.05-.45,.02-.7,.15-.97,.25-5.63,2.14-11.38,2.75-17.31,1.46-3.03-.66-6.1-1.02-9.21-.77-.38,.03-.77,.04-1.16,.17,.05,.07,.06,.11,.09,.12Zm21.79,1.48c.16-.02,.32,.01,.38,.22,.07,.25,.11,.52,.33,.75,.26-.26,.32-.6,.44-.91,.08-.2,.17-.31,.39-.25,.29,.08,.1,.27,.06,.39-.28,.78-.77,1.51-.61,2.41,.03,.15-.06,.24-.23,.21-.14-.02-.33-.03-.31-.22,.09-.83-.31-1.53-.55-2.27-.04-.12-.12-.3,.12-.33Zm-3.64,.57c.02-.43,.43-.26,.66-.34,.49,0,.82,.22,.97,.67,.16,.5-.04,.92-.46,1.15-.44,.23-.75,.46-.62,1.01,.03,.14-.05,.24-.22,.23-.16-.01-.35,0-.35-.24,0-.83-.01-1.65,.03-2.48Zm-3.87,1.56s.01,0,.02,0c0-.32,.03-.65,0-.97-.04-.4,.15-.54,.51-.57,.5-.04,.89,.12,1.1,.59,.2,.46,.04,.98-.47,1.24-.43,.22-.69,.46-.58,.97,.04,.18-.06,.26-.25,.24-.17-.02-.32-.03-.32-.26,0-.41,0-.83,0-1.24Zm-4.27,.75c.17-.75,.36-1.49,.55-2.24,.05-.19,.08-.41,.39-.33,.3,0,.52,.06,.57,.44,.09,.67,.25,1.34,.37,2,.03,.14,.16,.34-.1,.39-.18,.04-.42,.05-.46-.23-.03-.25-.1-.38-.4-.37-.32,.01-.33,.23-.36,.43-.04,.24-.1,.4-.4,.35-.35-.06-.19-.29-.15-.45Zm-3.85-3.38c.19,0,.3,.08,.29,.29-.01,.18-.02,.36,0,.54,0,.18-.07,.41,.26,.42,.32,0,.39-.16,.38-.44-.01-.21,0-.43,0-.64,0-.19,.04-.31,.27-.29,.19,.02,.29,.09,.28,.3-.01,.41,0,.82,0,1.24,0,0,0,0,0,0,0,.39,0,.79,0,1.18,0,.15,0,.3-.22,.28-.17-.02-.33-.03-.33-.26,0-.2-.02-.39-.01-.59,0-.23-.09-.31-.32-.3-.23,.01-.32,.11-.3,.34,.02,.2,.02,.39,.02,.59,0,.15,0,.29-.22,.27-.17-.01-.34-.02-.34-.24,0-.81,0-1.61-.01-2.42,0-.18,.08-.25,.26-.25Z"/>
      <path d="M5.49,56.44c0,3.54,1.4,6.45,4.05,8.76,1.42,1.23,3.1,1.81,4.99,1.59,1.35-.16,2.6-.62,3.42-1.8,.27-.39,.54-.62,1.01-.7,1.28-.22,2.11-.97,2.34-2.27,.07-.4,.21-.47,.6-.43,1.7,.19,2.58-.37,3.12-1.96,.11-.32,.26-.42,.59-.38,1.27,.16,2.22-.41,2.99-1.36,1.66-2.04,2.07-4.32,1.17-6.78-1.15-3.16-3.32-5.46-6.3-7-.91-.47-1.89-.7-2.92-.61-1.87,.16-2.79,1.45-2.54,2.82,.06,.34-.06,.35-.3,.21-.55-.33-1.13-.55-1.77-.62-.61-.07-1.19,.06-1.46,.66-.23,.5-.36,.31-.6,.03-1.18-1.35-2-2.89-2.35-4.66-.04-.22-.07-.47-.35-.47-.31,0-.34,.26-.37,.5-.03,.21-.05,.43-.06,.64-.08,1.62,.29,3.14,1.12,4.54,.18,.31,.2,.44-.19,.55-.67,.19-1.15,.65-1.48,1.26-.2,.36-.35,.75-.45,1.15-.05,.2-.1,.39-.37,.38-1.25-.03-1.99,.8-2.68,1.66-1,1.25-1.18,2.74-1.18,4.28Zm12.81-10.76c.17-.72,.62-1.22,1.34-1.41,1.2-.33,2.34-.04,3.36,.58,2.88,1.75,4.88,4.2,5.8,7.48,.16,.56,.22,1.13,.22,1.7-.02,1.52-.59,2.84-1.53,4-.47,.58-1.11,.83-1.86,.8-.28-.01-.43-.12-.45-.41-.28-4.2-2.4-7.44-5.36-10.23-.29-.27-.6-.52-.9-.77-.54-.46-.78-1.03-.62-1.73Zm-3.49,1.31c.1-.53,.4-.68,.89-.6,.47,.08,.92,.25,1.28,.55,3.22,2.61,5.87,5.64,7.08,9.72,.15,.52,.21,1.06,.21,1.6,0,.49-.04,.97-.21,1.43-.4,1.08-1.3,1.54-2.41,1.23-.76-.22-1.42-.64-1.95-1.21-2.93-3.15-4.75-6.81-5-11.16-.03-.52,.02-1.04,.11-1.55Zm-3.2-1.56c.09,.03,.14,.04,.15,.06,.39,.72,.85,1.39,1.37,2.08-.31,.1-.52,.07-.66-.16-.35-.62-.65-1.26-.86-1.98Zm-.67,3.26c.62-.76,1.5-.99,2.37-.65,.59,.23,.89,.6,.99,1.26,.55,3.6,1.9,6.88,4.09,9.79,.6,.79,1.29,1.5,2.16,2.01,.35,.21,.4,.48,.3,.82-.23,.78-.77,1.24-1.55,1.42-1.25,.29-2.38-.1-3.46-.69-1.17-.64-2.11-1.55-2.9-2.62-1.84-2.52-2.63-5.39-2.88-8.11,.02-1.39,.2-2.39,.88-3.22Zm-2.6,2.62c.14-.11,.29-.21,.45-.29,.6-.31,.74-.2,.75,.46,.06,4.08,1.27,7.73,4.06,10.78,.98,1.07,2.2,1.78,3.64,2.06,.09,.02,.18,.03,.24,.17-.86,.85-1.94,1.17-3.11,1.21-2.72,.08-4.66-1.31-6.18-3.41-1.55-2.15-2.13-4.57-1.88-7.18,.15-1.53,.82-2.81,2.03-3.79Z"/>
      <path d="M174.89,49.87s0,0,0,0c0-.01,0-.01,0,0Z"/>
      <path d="M167.76,68.88c1.68-1.14,3.16-2.5,4.41-4.09,1.08-1.37,1.96-2.88,2.84-4.39,.35-.6,.36-.6,.94-.18,.77,.56,1.45,1.23,2.16,1.87,1.01,.92,2.07,1.78,3.3,2.4,.59,.3,1.2,.49,1.86,.47,1.09-.04,1.76-.81,1.64-1.89-.05-.41-.13-.82-.18-1.23-.16-1.17,.11-1.57,1.27-1.82,.76-.17,1.41-.51,1.94-1.09,.77-.84,.86-1.49,.33-2.5-.26-.5-.65-.91-.98-1.35-1.09-1.47-1.4-3.01-.42-4.67,.24-.4,.43-.83,.53-1.29,.22-.96-.11-1.83-.89-2.37-.79-.54-1.54-.34-2.25,.15-.38,.26-.74,.57-1.09,.88-.56,.49-1.19,.86-1.88,1.13-.85,.34-1.62,.23-2.3-.4-.63-.58-1.37-1-2.17-1.28-1.3-.45-2.37,.24-2.5,1.61-.04,.48-.01,.97-.02,1.45-.01,.98-.22,1.19-1.19,1.28-.73,.07-1.47,.07-2.19,.29-1.96,.6-2.45,2.45-1.05,3.95,.45,.48,.97,.85,1.53,1.18,1.14,.66,2.19,1.44,3.25,2.22,.39,.29,.44,.54,.15,.92-.28,.37-.51,.78-.74,1.19-2.01,3.56-4.88,6.22-8.43,8.2-1.92,1.07-3.82,2.16-5.58,3.48-.42,.31-.72,.34-1.19,.07-1.69-.97-3.5-1.27-5.4-.68-.48,.15-.57,.24-.74,.58,.08-.03,.15-.05,.21-.08,1.93-.69,3.75-.37,5.48,.63,.35,.2,.46,.4,.08,.72-.5,.42-.91,.92-1.28,1.45-.67,.95-1,1.98-.85,3.15,.19,1.42,1.24,2.46,2.58,2.56,1.26,.1,2.24-.7,2.65-2.14,.55-1.91,.15-3.59-1.25-5.01-.31-.31-.29-.48,.07-.74,1.44-1.02,2.98-1.89,4.44-2.86,1.21-.81,2.4-.91,3.74-.49,.51,.16,.83,.34,.95,.91,.09,.44,.2,.99,.81,1.08,.08,.72,.03,1.43-.14,2.14-.21,.93-.38,1.87-.27,2.83,.06,.55,.25,1.05,.67,1.43,.36,.32,.78,.55,1.28,.39,.51-.17,.68-.61,.76-1.09,.12-.68,.08-1.36,.09-2.04,0-.29,.02-.57,.06-.86,.01-.1,.04-.23,.17-.25,.16-.03,.22,.11,.25,.23,.08,.31,.14,.63,.2,.95,.21,1.25,1.04,2.18,2.16,2.42,1.22,.25,2.16-.57,2.05-1.8-.06-.62-.37-1.11-.79-1.56-.41-.43-.91-.75-1.37-1.13-.31-.25-.61-.5-.77-.88-.09-.21-.13-.41,.02-.61,.16-.21,.37-.18,.59-.12,.5,.13,1,.29,1.51,.38,.99,.18,1.77-.57,1.69-1.57-.09-1.02-.91-1.77-2-1.83-.83-.05-1.6,.2-2.34,.53-.79,.35-1.58,.69-2.46,.73-.22-.57-.55-.84-1.15-.7-1.15,.28-2.11-.5-3.22-.35,.06-.34,.27-.4,.43-.5Zm15.33-4.55c-.42,0-.81-.12-1.19-.3-1.27-.57-2.42-1.33-3.45-2.27-.78-.72-1.53-1.46-2.29-2.21-.3-.3-.24-.52,.18-.62,.28-.07,.53,.01,.78,.14,.47,.24,.88,.56,1.29,.88,.96,.76,1.91,1.52,3.03,2.04,.77,.36,1.56,.64,2.43,.62,.33,0,.44,.15,.46,.45,.06,.78-.42,1.27-1.24,1.26Zm1.12-2.98c-.01,.83-.01,.82-.74,.71-1.39-.2-2.58-.83-3.69-1.66-.86-.64-1.66-1.38-2.73-1.69-.28-.08-.18-.21-.05-.34,.3-.29,.65-.34,1.05-.24,.93,.24,1.76,.71,2.59,1.17,1.06,.57,2.09,1.19,3.31,1.37,.52,.07,.12,.51,.25,.68Zm1.75-1.71c-.36,.09-.73,.18-1.06,.36-.3,.17-.63,.11-.95,.04-.99-.23-1.9-.63-2.8-1.09-1.06-.53-2.11-1.08-3.39-1.15,.34-.55,.72-.91,1.36-.94,.93-.04,1.82,.15,2.69,.42,.98,.3,1.94,.66,2.94,.88,.97,.22,1.94,.33,3.03,.12-.44,.79-1.09,1.15-1.84,1.34Zm2.11-2.34c-.05,.2-.23,.2-.38,.23-1.01,.18-2,.01-2.99-.19-1.3-.26-2.56-.68-3.89-.84-.58-.07-1.14-.02-1.78,.03,.73-1.28,1.11-1.46,2.42-1.15,.73,.17,1.46,.35,2.19,.54,1.09,.28,2.18,.39,3.3,.14,.45-.1,1.24,.77,1.13,1.22Zm-1.76-2.91c.05,.09,.1,.19,.14,.29,.43,.9,.43,.91-.62,.9-1.21,0-2.38-.3-3.57-.47-.56-.08-1.12-.15-1.69-.22,.5-1.07,.99-1.33,2.05-1.17,1.02,.16,2.02,.53,3.08,.31,.26-.06,.48,.12,.61,.36Zm-2.72-2.15c.59,.07,1.18,.16,1.77,.03,.44-.1,.43,.21,.44,.47,0,.27,.2,.67-.32,.68-.34,.01-.68,0-1.02-.03-.77-.09-1.53-.23-2.36-.19,.41-.89,.66-1.05,1.5-.95Zm-.41-.43c.49-.68,.82-1.35,1.76-1.14,.28,.06,.6-.03,.9-.07,.24-.03,.33,.05,.26,.3-.11,.42-.36,.69-.78,.8-.67,.17-1.35,.11-2.15,.12Zm1.38-1.65c.43-.63,.78-1.23,1.59-1.3,.28-.02,.51-.24,.76-.38,.29,.97-.82,1.79-2.34,1.67Zm2.13-2.61c.12,.11,.13,.25,.04,.38-.19,.29-.44,.5-.86,.59,.08-.38,.31-.61,.48-.88,.08-.12,.18-.24,.34-.1Zm-11.75,10.94c-.99-.82-2.11-1.43-3.21-2.07-.53-.31-1.05-.63-1.46-1.09-1.02-1.12-.78-2.23,.61-2.82,.66-.28,1.37-.27,2.07-.33,1.59-.14,1.95-.55,1.94-2.14,0-.08,0-.15,0-.17-.03-.51-.07-.87,.01-1.22,.19-.81,.75-1.18,1.56-.98,.8,.2,1.52,.61,2.11,1.15,1.11,1.01,2.24,.85,3.44,.27,.84-.41,1.5-1.05,2.2-1.64,.36-.31,.75-.56,1.24-.59,.24-.02,.51-.02,.64,.2,.12,.2-.12,.36-.23,.5-1.44,1.72-2.89,3.44-4.35,5.15-1.55,1.8-3.07,3.62-4.71,5.34-.14,.14-.28,.28-.43,.41-.67,.62-.73,.62-1.42,.05Zm-13.88,19.35c0,.46-.12,1.07-.39,1.65-.31,.66-.79,1.12-1.56,1.16-.78,.04-1.35-.35-1.72-1.01-.56-.97-.48-1.97,0-2.94,.41-.83,1.03-1.51,1.7-2.13,.23-.21,.42-.23,.64,0,.81,.87,1.33,1.86,1.32,3.26Zm9.77,.29c-.33-.35-.49-.79-.54-1.26-.13-1.22,.19-2.39,.45-3.56,.2,.56,.22,1.12,.17,1.69-.11,1.19-.18,2.36,.63,3.4-.37,.12-.54-.08-.71-.26Zm2.99-2.76c.8,.85,1.19,2.01,2.36,2.4-1.3,.24-2.31-.79-2.36-2.4Zm2.96,2.2c-.15,.15-.31,.03-.45-.02-.58-.2-.93-.65-1.22-1.16-.56-.99-1.24-1.88-2.12-2.66,.34-.07,.49,.15,.68,.27,.92,.59,1.8,1.24,2.52,2.08,.26,.3,.49,.62,.62,1,.06,.17,.12,.35-.04,.5Zm-1.35-5.84c.78-.21,1.51,.14,2.27,.24-.82,.57-1.53,.03-2.27-.24Zm2.6-.36c-.02,.12-.12,.18-.23,.18-.16,0-.33,0-.48-.04-.7-.17-1.4-.32-2.11-.44,.6-.16,1.19-.33,1.81-.26,.32,.04,.63,.14,.9,.33,.07,.05,.14,.13,.12,.23Zm-1.66-1.77c.82-.03,1.41,.41,1.58,1.19-1.45-.78-2.93-.11-4.39-.19,.88-.53,1.78-.96,2.81-1Zm-1.86,2.14c-.45,1.11-.33,1.54,.59,2.31,.49,.41,1.05,.76,1.49,1.23,.43,.46,.69,.97,.57,1.79-.7-1.78-2.08-2.73-3.41-3.73-.65-.49-1.32-.98-1.82-1.81,.92,.26,1.73,.36,2.59,.21Zm-2.42,4.28c-.02,.61,.03,1.22,.03,1.82,0,.16-.03,.36-.22,.39-.19,.03-.26-.16-.32-.3-.22-.5-.33-1.03-.3-1.57,.05-.85,.14-1.7,.22-2.67,.42,.81,.62,1.53,.59,2.33Z"/>
      <path d="M150.19,61.72c-1.02-1.57-2.59-1.92-4.24-1.18-.57,.25-.7,.11-.93-.35-.57-1.14-1.37-1.99-2.79-1.91-.34,.02-.34-.17-.28-.41,.19-.79,.42-1.56,.7-2.32,.07-.18,.2-.36,.06-.63-.64,.99-.91,2.07-1.28,3.11-.14-.23-.04-.43,.02-.63,.28-1.03,.72-1.99,1.3-2.89,.22-.35,.11-.55-.15-.78-.29-.24-.45-.04-.63,.14-.88,.91-1.54,1.94-1.82,3.19-.03,.11,.02,.28-.14,.32-.15,.03-.2-.13-.28-.21-1.19-1.29-2.61-1.64-4.26-1.04-.34,.12-.5,.06-.69-.24-.5-.83-1.27-1.18-2.22-1.16-1.08,.02-2.03,.43-2.91,1.02-3.8,2.58-5.73,7.88-4.52,12.39,.55,2.04,2.52,3.51,4.55,2.98,.36-.09,.62,.03,.83,.34,.28,.4,.64,.73,1.02,1.03,1.18,.91,2.57,1.04,3.6,.27,.43-.32,.52-.19,.66,.23,.6,1.74,1.79,2.37,3.58,1.93,.48-.11,.93-.29,1.32-.58,.43-.32,.59-.23,.77,.27,.5,1.42,1.78,2.04,3.23,1.64,1.06-.3,2.01-.79,2.79-1.56,2.78-2.74,4.02-6.06,3.67-9.96-.1-1.07-.36-2.09-.95-3Zm-20.46,8.18c.12,.42-.08,.52-.41,.54-1.24,.08-2.14-.49-2.82-1.47-.69-.99-.73-2.16-.85-3.3-.03-.25,0-.5,0-.75,.16-3.87,1.71-6.99,5.05-9.09,.79-.49,1.65-.8,2.61-.59,.21,.05,.42,.11,.61,.2,.91,.45,.94,.8,.09,1.33-1.53,.96-2.42,2.43-3.18,3.99-1.42,2.91-2.04,5.93-1.1,9.13Zm5.69,.56c0,.23,.02,.47,.03,.7,.04,.88-.24,1.22-1.13,1.25-1.29,.05-2.22-.63-2.93-1.63-.67-.95-.9-2.06-1.01-3.2-.04-.36-.03-.72-.06-1.19,.1-2.92,1.04-5.67,2.9-8.07,.81-1.04,1.93-1.67,3.23-1.9,1.37-.24,2.47,.27,3.3,1.35,.52,.68,.45,1.13-.13,1.75-2.91,3.06-4.16,6.77-4.2,10.93Zm3.68,3.48c-1.18,.37-2.05-.02-2.55-1.15-.46-1.03-.51-2.12-.51-3.22,0-3.15,.97-6,2.71-8.61,.4-.6,.9-1.12,1.46-1.57,1.53-1.23,3.23-.85,4.1,.89,.35,.7,.53,1.45,.52,2.24-.02,3.48-.98,6.66-3.11,9.45-.69,.9-1.52,1.63-2.63,1.97Zm7.45,.29c-.68,.63-1.46,1.11-2.38,1.32-1.19,.28-2.27-.46-2.45-1.67-.04-.25,.08-.41,.23-.57,2.64-2.89,3.62-6.38,3.74-10.19,.02-.52-.04-1.04-.17-1.55-.09-.36,.02-.57,.36-.72,1.64-.72,3.15-.18,3.94,1.42,.43,.86,.63,1.87,.62,3.75-.16,2.84-1.35,5.83-3.91,8.21Z"/>
      <path d="M105.5,21.92c.66-.04,1.26-.28,1.83-.59,.41-.22,.77-.24,1.19,.05,.59,.41,1.27,.57,2,.46,.72-.1,1.37-.42,2.01-.75,.33-.17,.57-.21,.87,.05,.38,.32,.85,.44,1.35,.46,1.2,.05,2.04-.56,2.73-1.46q.4-.52,.89-.05c1.33,1.25,2.73,1.29,4.14,.12,.36-.3,.65-.66,.92-1.05,1.14-1.67,1.48-3.56,1.51-5.73-.01-1.12-.18-2.42-.62-3.67-.61-1.77-1.54-3.33-3.07-4.46-1.39-1.02-3.11-.96-4.01,.28-.16,.22-.34,.19-.56,.08-.72-.35-1.47-.45-2.25-.28-.28,.06-.37,0-.32-.28,.11-.64,.08-1.29,.06-1.94-.04-.93-.25-1.81-.67-2.65-.1-.19-.18-.38-.45-.41-.55-.06-.75,.13-.67,.7,.18,1.32,.28,2.65,.03,3.97-.03,.16,.03,.46-.31,.36-.91-.26-1.74,0-2.54,.43-.22,.12-.45,.21-.72,.08-1.39-.67-2.69-.4-3.93,.39-3.02,1.92-4.48,4.72-4.62,8.25-.09,2.26,.38,4.37,1.89,6.13,.86,1.01,1.94,1.58,3.31,1.49Zm12.04-16.28c.73-.66,1.57-.76,2.46-.42,.91,.34,1.57,1,2.13,1.76,1.44,1.95,1.99,4.19,2.08,6.55-.05,1.97-.41,3.84-1.57,5.47-.13,.19-.28,.38-.44,.54-1.56,1.56-2.57,1.07-3.87-.27-.23-.23-.13-.49-.05-.76,.92-3.13,1.09-6.28,.35-9.47-.23-.99-.56-1.93-1.17-2.76-.19-.26-.15-.45,.08-.65Zm-.51,1.17c.52,1.23,.8,2.49,.93,3.8,.08,.75,.09,1.51,.11,2.04-.06,1.87-.13,3.52-.52,5.14-.22,.92-.56,1.78-1.26,2.46-.9,.88-2.03,.88-2.91-.02-1.21-1.24-1.75-2.79-1.91-4.47-.26-2.71-.14-5.39,1.03-7.92,.2-.44,.44-.86,.71-1.27,.91-1.42,3.27-1.08,3.82,.24Zm-7.1-.96c.49-.28,1-.49,1.53-.47,.59,0,1.07,.18,1.52,.46,.22,.14,.28,.26,.11,.51-2.62,3.73-2.85,7.79-1.64,12.03,.17,.59,.48,1.12,.86,1.61,.25,.32,.17,.48-.19,.62-.47,.18-.94,.35-1.43,.47-.63,.14-1.17-.02-1.67-.39-1.25-.9-1.9-2.17-2.26-3.62-.63-2.49-.7-4.98,.15-7.43,.56-1.61,1.52-2.93,3.03-3.79Zm-8.89,8.37c.13-3.02,1.18-5.6,3.61-7.5,1.11-.87,2.36-1.37,3.82-.98,.35,.09,.41,.21,.11,.47-2.03,1.78-2.8,4.16-3.1,6.73-.22,1.85,.09,3.65,.66,5.41,.22,.67,.58,1.27,1.02,1.82,.23,.28,.19,.43-.13,.6-1.37,.72-2.89,.45-4.01-.76-1.13-1.23-1.59-2.75-1.86-4.34-.08-.48-.13-.96-.12-1.45Z"/>
      <path d="M37.37,17.17c-.17,.19-.36,.38-.45,.82,1.52-1.93,3.57-2.45,5.67-2.84,1.52-.28,3.06-.42,4.6-.56,2.97-.28,5.65-1.3,8.07-3.04,.26-.19,.5-.23,.8-.14,.86,.24,1.74,.32,2.61,.12,.43-.1,.51,.04,.53,.44,.1,1.97,.48,3.88,1.37,5.67,1.77,3.54,5.2,5.65,8.85,5.41q1.23-.08,1.73,1.06c1.02,2.32,3.13,3.37,5.6,2.79,1.48-.35,2.72-1.12,3.77-2.2,.59-.6,1.12-1.26,1.69-1.89,.72-.8,1.53-1.47,2.58-1.79,.75-.23,1.51-.37,2.26,0,.64,.32,.66,.43,.34,1.05-.34,.67-.58,1.37-.19,2.11,.19,.36,.49,.59,.91,.55,.41-.04,.63-.33,.75-.69,.22-.68,.07-1.31-.26-1.92-.34-.62-.23-.82,.48-.88,.52-.04,.94,.18,1.32,.52,.48,.42,.82,.95,1.16,1.48,.22,.35,.43,.71,.66,1.05,.19,.27,.44,.42,.91,.26-.59-.07-.83-.4-1.05-.77-.43-.74-.8-1.54-1.44-2.14-.66-.62-1.41-.94-2.31-.54-.25,.11-.45,.06-.64-.12-.52-.5-1.14-.63-1.84-.61-1.22,.04-2.28,.45-3.22,1.2-.71,.57-1.28,1.25-1.87,1.94-.89,1.06-1.93,1.93-3.21,2.49-2.72,1.19-5.19,.14-6.23-2.64-.16-.42-.1-.61,.35-.74,.99-.29,1.91-.75,2.67-1.47,1-.94,1.72-2.06,1.67-3.49-.05-1.68-1.72-2.54-3.15-1.65-.17,.1-.33,.21-.5,.32-.04,.01-.09,.02-.13,.04,.01-.04,.03-.09,.04-.13,.52-.85,1.2-1.56,2.01-2.15,1.06-.78,2.32-1.12,3.54-1.54,.13-.04,.24-.02,.35,.06,.45,.3,.9,.58,1.35,.87,.65,.66,1.16,1.41,1.65,2.19,.21,.33,.43,.67,.69,.96,.92,1.07,2.09,1.48,3.48,1.2,.92-.19,1.46-.74,1.55-1.5,.11-.92-.31-1.72-1.14-2.13-.4-.2-.84-.3-1.28-.41-.42-.1-.84-.2-1.25-.33-.24-.07-.51-.17-.54-.46-.03-.29,.22-.43,.43-.57,.4-.26,.85-.4,1.31-.46,.71-.09,1.43-.15,2.14-.22,.66-.07,1.32-.17,1.92-.48,.96-.5,1.39-1.5,1.15-2.66-.22-1.08-.94-1.72-2.05-1.81-1.01-.08-1.93,.16-2.74,.76-.48,.35-.93,.74-1.39,1.11-.24,.19-.49,.37-.78,.48-.59,.22-1-.07-1.02-.7,0-.46,.13-.89,.3-1.3,.35-.86,.74-1.72,1.09-2.58,.25-.6,.46-1.22,.4-1.88-.08-.99-.76-1.52-1.74-1.34-1.4,.26-2.09,1.21-2.41,2.52-.29,1.21-.16,2.42-.06,3.65,.08,.96,.44,1.91,.16,2.88-.52,.32-1.1,.61-1.39,1.15-.24,.45-.57,.66-1.01,.79-.8,.23-1.58,.51-2.28,.95-3,1.89-4.14,4.74-4.19,8.14-.01,.73,.02,.74-.71,.83-3.17,.38-5.75-.7-7.77-3.16-1.74-2.12-2.4-4.63-2.56-7.3-.02-.4,.2-.62,.53-.8,.77-.41,1.46-.92,2.01-1.6,.3-.37,.58-.74,.63-1.23,.05-.46-.08-.86-.49-1.12-.38-.24-.76-.15-1.11,.08-.3,.2-.57,.44-.79,.73-.49,.66-.77,1.42-.93,2.22-.09,.46-.32,.68-.78,.74-.54,.08-1.07,.1-1.61,.01-.81-.13-.8-.13-.29-.79,1.52-1.95,2.43-4.11,2.14-6.64-.14-1.26-.78-2.24-1.91-2.83-1.53-.8-3.11-.83-4.56,.14-1.51,1.01-2.07,2.55-1.89,4.32,.25,2.54,1.52,4.45,3.78,5.67,.51,.28,.52,.34,.02,.66-1.99,1.26-4.13,2.18-6.47,2.56-2.02,.32-4.07,.46-6.06,.97-1.63,.42-3.21,.95-4.39,2.26Zm50.64,4.74c.43,.58,.6,1.16,.46,1.81-.05,.21-.15,.44-.4,.45-.27,.01-.43-.19-.5-.42-.19-.67,.04-1.25,.44-1.84Zm-7.55-9.41c-.11-.12-.09-.25,.08-.27,.65-.06,1.28-.2,1.98-.39q-.62,.93-.34,1.81c-.7-.28-1.26-.65-1.72-1.16Zm1.26,2.64s-.03-.06-.05-.09h0s.08,.02,.12,.02c0,0,0,0,0,0h0c.23,.19,.48,.37,.7,.58,.76,.74,1.59,1.37,2.75,1.58-1.27,.5-2.9-.52-3.51-2.09Zm4.75,1.03c-.4-.46-.69-.88-1.13-1.13-.43-.25-.89-.46-1.33-.69,1.26-.27,2.44,.55,2.46,1.82Zm-1.55-.5c.42,.21,.82,.46,1.06,.88,.15,.26,.08,.42-.23,.41-.21,0-.43-.03-.63-.1-1.17-.4-2.07-1.19-2.84-2.13,.9,.29,1.81,.52,2.64,.94Zm4.23-5.89c-.23,.93-1.24,1.37-2.79,1.22,.57-.16,1.07-.2,1.54-.37,.48-.17,.84-.51,1.25-.86Zm-.36-1.05c.21,.46-.05,.76-.41,.99-.65,.42-1.4,.54-2.16,.59-.38,.02-.77,.11-1.23-.04,.9-.75,1.71-1.51,2.82-1.83,.39-.11,.77-.15,.97,.29Zm-5.05,.56c.5-.44,.97-.91,1.49-1.33,.71-.57,1.54-.83,2.47-.73,.27,.03,.53,.09,.83,.35-2.11,0-3.51,1.31-5.05,2.34-.9,.6-1.83,1.14-2.91,1.36-.12,.02-.26,.12-.36,.01-.14-.15,.05-.26,.11-.36,.3-.51,.47-1.08,.69-1.68,1.05,.93,1.72,.93,2.74,.04Zm-1.28-7.27c.7,.73,.3,2.46-.87,3.99,.09-1.43,1.11-2.52,.87-3.99Zm-.89,.43c.09-.13,.2-.3,.38-.24,.23,.08,.15,.31,.1,.46-.11,.38-.24,.75-.38,1.12-.28,.74-.52,1.49-.69,2.26-.24-1.27-.16-2.49,.58-3.6Zm-.77,0s-.03,.05-.05,.07h.02s-.01,0-.02,0c0,0,0,0,0,0,.02-.02,.03-.05,.05-.07,0,0-.02,0-.03,0,0,0,.02,0,.03,0Zm-.92,1.43c.11-.4,.26-.79,.52-1.11,.09-.11,.13-.34,.36-.25-1.17,1.9-.68,4.06-.87,6.11-.2-1.59-.45-3.17,0-4.75Zm-7.83,13.6c.29-.39,.63-.74,1.07-.96,.5-.26,1.03-.36,1.53-.03,.54,.35,.71,.89,.63,1.5-.13,1.01-.67,1.81-1.36,2.51-.71,.72-1.6,1.13-2.54,1.47-.26,.1-.37,.01-.39-.24-.02-.21-.04-.43-.05-.6,.1-1.32,.33-2.57,1.12-3.64Zm-10.87-9.9c.26-.18,.53-.34,.82-.09,.29,.25,.28,.58,.12,.88-.51,.96-1.37,1.51-2.39,2.05,.22-1.19,.52-2.18,1.45-2.85Zm-6.88,2.3c-2.2-1.27-3.45-3.76-3.11-6.11,.4-2.69,3.6-4,5.76-2.35,.97,.74,1.26,1.79,1.27,3.09-.09,1.82-.79,3.54-2.01,5.04-.86,1.06-.54,1.12-1.91,.33Z"/>
      <path d="M117.8,70.92c-.52-.15-1.05-.24-1.56-.41-.82-.28-.94-.77-.37-1.42,.17-.2,.39-.37,.59-.55,.37-.32,.69-.68,.92-1.11,.41-.74,.35-1.45-.15-2.12-.52-.71-1.25-1.02-2.1-1.02-2.63,0-4.88,.79-6.37,3.12-.15,.23-.27,.36-.54,.14-1.17-.97-2.42-.92-3.73-.31-1.25,.59-2.45,1.3-3.8,1.67-1.83,.5-3.59,.5-5.23-.6-.42-.28-.59-.62-.53-1.13,.53-4.82-1.91-9.04-6.35-11.01-2.31-1.03-4.74-1.34-7.3-1.27,.13,.04,.21,.07,.29,.08,.27,.03,.54,.06,.8,.07,2,.14,3.96,.46,5.81,1.29,4.09,1.84,6.58,6.1,6,10.32-.1,.76-.1,.76-.86,.66-.79-.11-1.55-.06-2.24,.37-.68,.42-.97,1.05-.9,1.83,.07,.8,.38,1.47,1.19,1.78,.76,.29,1.41,.03,1.98-.49,.6-.55,.98-1.25,1.22-2.01,.17-.53,.35-.49,.72-.21,1.1,.82,2.34,1.12,3.71,1.03,1.73-.11,3.28-.73,4.77-1.58,.84-.48,1.73-.8,2.72-.71,.53,.05,1,.23,1.43,.79-1.42-.12-2.44,.49-3.37,1.24-1.34,1.08-2.28,2.41-2.32,4.2-.04,1.88,1.47,3.04,3.29,2.58,.42-.11,.82-.27,1.22-.42,1.13-.42,1.37-.28,1.53,.89,.11,.76,.18,1.54,.57,2.23,.62,1.12,1.42,1.34,2.5,.65,.45-.29,.86-.66,1.3-.96,.57-.39,.93-.37,1.46,.07,.22,.18,.41,.4,.61,.61,.35,.36,.66,.76,1.06,1.07,.67,.5,1.33,.54,1.94,.09,.53-.39,.72-1.08,.48-1.79-.13-.39-.32-.76-.46-1.15-.47-1.33-.42-2.38,.75-3.22,.67-.48,.66-1.23,.53-1.97-.12-.69-.55-1.12-1.21-1.31Zm-23.94-2.68c-.21,.64-.47,1.24-.91,1.76-.35,.42-.75,.74-1.35,.56-.49-.15-.86-.75-.87-1.37,0-.65,.31-1.14,.92-1.38,.6-.23,1.23-.22,1.86-.15,.35,.04,.45,.26,.34,.58Zm8.96,5.11c.25-2.47,2.25-4.58,4.76-4.99-.13,.06-.22,.11-.32,.14-1.71,.44-2.6,1.62-2.98,3.27-.15,.65-.28,1.3-.44,1.94-.1,.42-.3,.8-.59,1.17-.43-.46-.49-.99-.43-1.53Zm.87,1.98c-.11-.13-.05-.23,.02-.34,.5-.77,.68-1.65,.9-2.52,.19-.77,.42-1.52,.87-2.19,.51-.75,1.18-1.28,2.09-1.49-1.16,1.01-1.5,2.38-1.77,3.79-.17,.88-.3,1.77-.68,2.6-.26,.56-1.03,.64-1.41,.16Zm1.74,.24s.02-.02,.03-.03c0,0,0,.01,0,0-.01,0-.03,.01-.04,.02Zm.04-.03c.56-1.61,.56-3.37,1.3-4.94,.26-.56,.52-1.11,1.04-1.48,.18-.13,.43-.34,.6-.06,.15,.25,.48,.54,.09,.89-.64,.58-.94,1.34-1.1,2.17-.15,.76-.39,1.49-.57,2.24-.18,.77-.64,1.1-1.36,1.18Zm1.63-.58c.39-.99,.49-1.99,.74-2.97,.13-.52,.3-1.04,.64-1.47,.23-.29,.4-.37,.61,.04,.19,.36,.24,.64,0,1.02-.46,.74-.57,1.62-.77,2.46-.2,.81-.42,.98-1.23,.92Zm1.7,2.1c-.79-2.04,.2-3.72,.64-5.58,.57,.54,.78,.95,.42,1.6-.46,.84-.5,1.82-.72,2.74-.09,.39-.21,.77-.34,1.25Zm1.33,1.1c-.03,.28-.1,.56-.16,.84-.08,.39-.27,.46-.52,.13-.5-.63-.79-1.27-.37-2.01,.45-.78,.47-1.72,.69-2.59,.15-.6,.29-1.21,.56-1.79,.76,.62,.75,.61,.46,1.45-.45,1.28-.53,2.63-.65,3.97Zm1.57-.17c-.04,.82-.38,1.33-1.03,1.54-.24,.08-.42,.07-.33-.25,.42-1.51,.42-3.09,.73-4.62,.03-.12,.04-.25,.08-.36,.07-.16,.02-.47,.3-.4,.23,.06,.45,.24,.42,.5-.31,1.22-.13,2.41-.18,3.59Zm1,.08c-.19,.16-.39,.43-.62,.34-.21-.08-.03-.38-.03-.58,0-.79,0-1.58,.02-2.36,0-.3,.06-.6,.1-.95,.53,.23,.75,.53,.66,1.05-.1,.59-.05,1.18,.04,1.77,.04,.27,.08,.54-.16,.75Zm1.71,.28c-.35-.12-.59-.38-.94-.43-.13-.02-.17-.13-.17-.24-.05-.66-.1-1.32-.13-1.98,0-.12,0-.28,.12-.32,.12-.04,.23,.08,.31,.17,.08,.09,.19,.2,.2,.31,.07,.79,.39,1.51,.63,2.26,.02,.06,0,.13-.02,.23Zm1.8,1.75c-.45-.18-.84-.43-.96-.86-.26-.94-.68-1.81-1-2.73-.03-.1-.07-.21,0-.34,.41,.3,.82,.63,.92,1.13,.16,.77,.51,1.45,.86,2.14,.09,.19,.19,.38,.17,.66Zm.87,.18c-.17,.03-.43,.11-.48-.09-.2-.83-.67-1.56-.95-2.36,.67,.63,1.05,1.46,1.53,2.21,.07,.11,.04,.21-.1,.24Zm1.13-6.25c-1.26,.92-1.2,2.1-.81,3.38,.14,.45,.32,.88,.48,1.31,.07,.19,.12,.38,.08,.58-.04,.23-.08,.52-.34,.55-.22,.03-.24-.27-.32-.44-.82-1.75-2.16-3.08-3.59-4.32-1.93-1.67-3.45-3.64-4.52-5.97-.29-.63-.22-1.08,.21-1.61,1.42-1.72,3.3-2.4,5.44-2.55,.42,0,.83,.06,1.22,.22,.97,.38,1.25,1.34,.66,2.2-.26,.37-.61,.65-.93,.97-.49,.48-1.02,1-.8,1.77,.22,.77,.94,.86,1.6,.99,.28,.06,.56,.14,.84,.18,.61,.08,1.05,.32,1.22,.96,.18,.68,.14,1.34-.44,1.77Z"/>
      <path d="M192.17,32.7c-.78-.26-1.59-.29-2.4-.15-.71,.12-1.41,.28-2.12,.41-.73,.13-1.04-.21-.87-.94,.09-.4,.33-.71,.6-1.01,.41-.46,.89-.84,1.37-1.22,.45-.36,.89-.73,1.21-1.22,.74-1.14,.35-2.26-.94-2.69-1.54-.51-2.93,.04-3.88,1.51-.62,.97-.92,2.06-1.24,3.14-.24,.81-.48,1.62-1.01,2.31-.46,.02-.8,.27-1,.64-.36,.66-.95,1.01-1.61,1.27-2.47,.96-4.95,1.42-7.5,.23-.81-.38-1.67-.55-2.57-.33-.45,.11-.58,.24-.67,.62,.74-.55,1.54-.51,2.33-.25,2.06,.68,3.47,2.04,4.25,4.06,.42,1.08,.39,1.08-.57,1.71-1.01,.67-1.86,1.48-2.12,2.74-.1,.5-.06,.99,.38,1.32,.44,.33,.93,.25,1.38,.03,.64-.3,1.09-.81,1.41-1.43,.4-.75,.52-1.56,.5-2.4,0-.29,0-.59,.34-.72,2.49-.96,4.58,.47,5.04,2.41,.1,.41,.08,.77-.27,1.08-.26,.23-.34,.55-.21,.89,.06,.16,.21,.28,.38,.23,.37-.1,.49-.43,.51-.75,.03-.52,.33-.77,.76-.94,.2-.08,.41-.17,.67-.28-.39-.23-.66-.09-.93,.04-.29,.15-.47,.1-.53-.25-.45-2.36-2.97-3.74-5.34-2.88-.4,.14-.58,.06-.69-.36-.33-1.25-1.04-2.28-1.94-3.18-.11-.11-.31-.18-.28-.44,.36,.02,.72,.04,1.08,.07,1.51,.1,3.01,.01,4.38-.65,.89-.43,1.76-.68,2.73-.46,.09,.69,0,1.36-.14,2.03-.15,.76-.28,1.52-.16,2.3,.15,.97,.73,1.63,1.6,1.81,1.76,.37,3.05-1.13,2.46-2.89-.15-.44-.38-.85-.55-1.29-.17-.4,0-.62,.42-.66,.39-.04,.75,.08,1.1,.22,.72,.28,1.43,.59,2.15,.87,1.38,.52,2.78,.14,3.63-.98,1.03-1.35,.5-3.07-1.12-3.6Zm-15.64,8.58c-.07,1-.27,1.98-1.04,2.73-.48,.47-1.08,.63-1.4,.4-.3-.22-.31-.8-.01-1.4,.43-.89,1.14-1.51,1.97-2,.13-.08,.26-.26,.42-.14,.12,.09,.05,.27,.06,.42Zm14.03-8c1.02-.09,1.73,.17,2.27,.72-1.74-.56-3.37-.08-5.01,.05-.75,.06-1.5,.14-2.22-.15,1.68-.09,3.31-.46,4.96-.62Zm-1.16-6.03c.25,.38,.07,.84-.28,1.04-1.48,.86-2.41,2.22-3.38,3.56-.25,.34-.57,.62-1.02,.72,1.01-1.24,1.46-2.79,2.34-4.09,.34-.51,.71-1,1.27-1.28,.36-.18,.79-.35,1.07,.06Zm-4.89,3.57c.25-.77,.53-1.52,.89-2.25,.26-.53,.57-1.04,1.03-1.43,.45-.37,.94-.61,1.59-.49-1.63,1.03-2.2,2.77-3.02,4.34-.34,.64-.69,1.28-1.31,1.71,.24-.64,.61-1.23,.82-1.88Zm-.83,1.89s0,0,0,0c0,0,0,.01,0,.02,0,0,0-.02,0-.02,0,0,0,0,0,0,0-.05-.04-.06-.08-.03,.04-.03,.07-.02,.08,.03Zm-.43,6.83c-.22-.52-.19-1.06-.09-1.59,.2-1.03,.47-2.05,.4-3.24,.45,.6,.48,1.19,.51,1.77,.03,.54,.02,1.08,.01,1.61-.02,.8,.08,1.57,.69,2.19-.7,.2-1.25-.08-1.53-.75Zm2.6-.03c-.06,.23-.15,.47-.43,.49-.25,.01-.36-.21-.44-.41-.32-.88-.16-1.79-.19-2.74,.77,.56,1.27,1.88,1.06,2.67Zm6.66-3.12c-.79,.59-1.66,.74-2.59,.37-.73-.29-1.44-.65-2.18-.91-.74-.26-1.51-.4-2.17,.23-.1,.1-.19,.1-.26-.01-.28-.38-.55-.77-.83-1.16,.04-.04,.08-.07,.11-.11,1.69,.79,3.41,.48,5.12,.11,.74-.16,1.47-.35,2.23-.31,.5,.02,1.11,.05,1.27,.6,.15,.51-.31,.89-.7,1.18Z"/>
      <path d="M54.1,71.01s0,0,0,0c0,0,0,0,0,0-1.16,.09-1.85-.44-1.95-1.52,0,0,0,0,0,0-1.28,.14-2.58-.03-3.85,.19-1.17,.2-2.11,.81-2.73,1.84-.33,.54-.5,1.14-.14,1.73,.36,.59,.95,.78,1.61,.8,.47,.02,.88-.16,1.24-.44,.7-.56,1.42-1.1,1.99-1.81,.38-.47,.87-.8,1.39-1.1,.1-.06,.23-.18,.34-.06,.11,.12,.06,.27-.03,.4-.21,.33-.57,.48-.88,.69-1.5,.99-2.36,2.39-2.63,4.14-.19,1.21,.32,2.22,1.24,2.63,1.43,.63,2.92,.07,3.57-1.34,.31-.66,.41-1.37,.43-2.09,.03-1.04-.14-2.08-.04-3.12,.04-.38,.13-.69,.45-.91,0,0,0,0,0,0,0,0,0,0,0,0Zm-6.86,1.89c-.07,.21-.15,.37-.41,.28-.24-.08-.36-.23-.33-.48,.03-.22,.1-.42,.25-.58,.61-.64,1.37-.99,2.27-1.05-.22,.15-.43,.3-.65,.44-.51,.35-.93,.79-1.13,1.39Zm.72,.14c.22-1.01,.91-1.68,1.95-1.93-.7,.64-1.17,1.35-1.95,1.93Zm2.3-2.69c-1.1,.17-2.2,.35-3.18,.93-.22,.13-.49,.22-.62,.47,0,0,0,0,0,0h0c-.17-.31,.09-.46,.25-.61,.72-.72,1.61-1.05,2.61-1.09,.55-.02,1.11,0,1.72,0-.22,.31-.52,.27-.78,.31Zm-.81,6.06c-.07-1.11,.35-2.07,.92-2.98,.47-.74,1.03-1.39,1.92-1.93-.93,2.04-2.5,3.69-2.35,6.05-.38-.3-.46-.72-.49-1.14Zm1.49,1.42c-.42-.12-.48-.59-.47-1,.01-.47,.13-.92,.29-1.36,.38-1.06,.88-2.06,1.61-2.96-.21,1.56-.13,3.16-.74,4.64-.12,.3-.23,.81-.68,.68Zm.67,.19c.95-1.24,.95-2.65,1.31-3.97,.15,1.86-.38,3.54-1.31,3.97Z"/>
      <polygon points="54.1 71 54.11 71 54.1 71 54.1 71 54.1 71"/>
      <path d="M54.1,71.01c.76,.03,.98,.23,1.04,.98,.04,.52-.05,1.04-.12,1.55-.1,.71-.28,1.41-.16,2.14,.15,.88,.41,1.74,1.34,2.05,.98,.33,2.03,.48,2.93-.23,1.89-1.49,1.78-4.67-.18-6.03-.76-.53-1.62-.84-2.45-1.22-.5-.23-1.04-.39-1.42-.83-.12,.66-.35,1.24-.97,1.59,0,0,0,0,0,0,0,0,0,0,0,0Zm4.15,5.53c-.13,.39-.29,.45-.59,.16-.5-.49-.71-1.11-.85-1.77-.2-.96-.1-1.97-.44-2.92,1.08,.78,1.68,1.83,1.95,3.1,.1,.49,.1,.95-.07,1.43Zm1.04-.94c-.4-1.95-1.46-3.46-3.04-4.63,2.23,.47,3.74,2.58,3.04,4.63Zm-3.48-3.34c.59,1.48,.21,3.24,1.38,4.62-.8-.14-1.35-.74-1.43-1.68-.08-.97-.02-1.95,.05-2.94Z"/>
      <path d="M54.11,71s0,0,0,0c0,0,0,0,0,0,0,0,0,0,0,0Z"/>
      <path d="M191.69,77.07c-.92-.81-1.9-1.54-3.09-1.92-.66-.21-1.32-.36-2.01-.18-.48,.13-.6,.39-.43,.85,.79,2.15,3.23,3.9,5.55,3.92,.31,.02,.69-.03,1.05-.13,.78-.2,.91-.67,.35-1.23-.46-.45-.94-.89-1.42-1.32Zm-.07,2.08c-2.05-.19-3.62-1.16-4.68-2.93-.14-.24-.37-.56-.21-.79,.18-.25,.53-.06,.8,0,.64,.14,1.22,.42,1.77,.75,1.23,.73,2.19,1.77,3.32,2.74-.36,.23-.69,.26-1.01,.23Z"/>
      <path d="M68.54,12.76c.02,.2,.03,.4,.27,.48,.21,.07,.34-.08,.47-.19,.77-.67,1.55-1.34,2.3-2.03,.79-.73,1.37-1.62,1.69-2.65,.28-.88,.3-1.77-.05-2.64-.22-.54-.61-.63-1-.21-1.03,1.1-2.06,2.2-2.88,3.48-.55,.87-.88,1.8-.9,2.84,.03,.3,.07,.61,.1,.91Zm1.07-3.21c.8-1.24,1.86-2.27,2.83-3.38,.21-.24,.27-.11,.34,.11,.15,.51,.14,1.03,.04,1.55-.11,.59-.34,1.13-.67,1.64-.85,1.32-2.15,2.18-3.35,3.32-.07-1.28,.21-2.3,.81-3.23Z"/>
      <path d="M183.04,21.98c.06,.33,.25,.44,.52,.2,.6-.53,1.29-.91,1.93-1.37,1.07-.78,1.79-1.8,2.11-3.1,.19-.78,.23-1.57-.04-2.34-.17-.47-.48-.58-.81-.23-.86,.92-1.85,1.71-2.64,2.7-.73,.91-1.15,1.94-1.18,3.12,.03,.34,.05,.68,.1,1.02Zm.3-.46c-.02-1.1,.32-2.08,1-2.95,.8-1.02,1.85-1.79,2.77-2.91,.31,2.11-.37,3.66-1.88,4.86-.51,.4-1.08,.72-1.56,1.15-.06,.06-.16,.12-.22,.11-.14-.03-.1-.17-.1-.27Z"/>
      <path d="M85.69,72.02c-.61,.5-1.22,1-1.81,1.53-.91,.82-1.75,1.71-2.21,2.88-.34,.87-.37,1.75-.06,2.63,.12,.34,.34,.5,.62,.15,.43-.54,1-.86,1.58-1.19,1.14-.64,1.87-1.6,2.27-2.82,.24-.72,.37-1.46,.4-2.33,0-.11,0-.33-.03-.54-.08-.58-.33-.68-.77-.32Zm-2.24,5.69c-.57,.35-1.08,.77-1.48,1.39-.3-.82-.24-1.56,.02-2.28,.22-.62,.58-1.15,1-1.65,.86-1.02,1.9-1.83,3.06-2.77-.08,2.28-.67,4.12-2.59,5.31Z"/>
      <path d="M190.02,69.39c.49-.56,.33-.96-.39-1.09-.88-.16-1.78-.26-2.59-.29-1.16,0-2.19,.18-3.12,.75-.28,.17-.53,.38-.64,.7-.06,.17-.07,.32,.14,.39,.92,.3,1.77,.82,2.75,.91,1.49,.14,2.83-.21,3.85-1.37Zm-6.47,.18c.13-.32,.4-.42,.66-.53,1.01-.45,2.05-.42,3.11-.28,.59,.08,1.17,.15,1.76,.24,.13,.02,.33-.01,.38,.13,.06,.19-.15,.27-.26,.36-1.08,.91-2.32,1.16-3.67,.78-.67-.19-1.31-.46-1.97-.7Z"/>
      <path d="M7.86,42.67c-.04-.27-.1-.53-.13-.8-.32-2.46-1.82-3.94-4.04-4.8-.22-.08-.45-.13-.58-.17-.55,0-.68,.17-.51,.61,.24,.64,.51,1.27,.77,1.89,.39,.93,.81,1.84,1.55,2.57,.67,.66,1.44,1.13,2.38,1.28,.51,.08,.65-.08,.57-.59Zm-.88,.2c-1-.4-1.8-1.04-2.35-1.97-.66-1.11-1.05-2.35-1.68-3.6,1.26,.28,2.22,.86,3.02,1.71,.91,.98,1.4,2.16,1.53,3.49,.05,.52-.02,.57-.52,.37Z"/>
      <path d="M123.27,35.42c0-.58-.38-1.04-.96-1.21-.59-.17-1.16,.01-1.46,.5-.38,.61-.38,1.27-.05,1.9,.31,.6,.84,.92,1.52,.95,.42,.02,.76-.06,.64-.63-.05-.25,.06-.49,.15-.73,.09-.25,.19-.5,.18-.78Z"/>
      <path d="M124.32,77.86c-.27-.31-.47-.95-.87-.82-.45,.15-.47,.81-.5,1.28-.14,2.13,.94,3.64,2.5,4.91,.29,.23,.54,.11,.7-.2,.17-.32,.13-.66,.14-1,0-.77-.19-1.49-.54-2.17-.38-.74-.89-1.39-1.43-2.01Zm1.35,4.51c-1.51-.42-2.76-3.3-2.15-5.04,1.54,1.96,2.38,3.55,2.15,5.04Z"/>
      <path d="M96.26,72.95c-.32-.19-.57-.15-.82,.09-.53,.51-.67,1.16-.68,1.95,.05,1.27,.6,2.48,1.12,3.7,.13,.3,.34,.32,.51,.02,.48-.88,.99-1.75,1.2-2.74,.31-1.41-.09-2.29-1.33-3.02Zm.46,3.76c-.16,.43-.28,.88-.6,1.28-.45-1.06-.86-2.08-.97-3.21-.04-.48,.06-.92,.26-1.35,.16-.33,.29-.34,.59-.09,1.09,.95,1.19,2.09,.71,3.37Z"/>
      <path d="M67.17,6.66c.76-1.15,1.41-2.34,1.37-4.09-.04-.54-.09-1.39-.77-2.02-.37-.34-.64-.3-.84,.13-.44,.95-.82,1.91-1.03,2.94-.21,1.03-.09,2.01,.44,2.91,.26,.45,.58,.51,.84,.13Zm-.86-2.61c.19-.99,.6-1.91,.98-2.84,.17-.4,.34-.13,.43,.03,.28,.51,.38,1.08,.4,1.66,.04,1.43-.6,2.63-1.33,3.84-.51-.87-.66-1.75-.48-2.69Z"/>
      <path d="M140.87,35.64c.2-.03,.23,.19,.29,.33,.08,.18,.16,.36,.31,.68,.12-.39,.22-.64,.28-.89,.16-.66-.17-1.27-.8-1.51-.68-.26-1.33-.03-1.65,.59-.52,.99-.05,2.25,1,2.62,.21,.07,.42,.16,.67,.04-.25-.46-.38-.92-.32-1.42,.02-.17,0-.4,.22-.44Z"/>
      <path d="M6.66,47.73c.43-.26,.45-.45,.1-.79-.45-.42-.94-.77-1.51-1.01-1.44-.61-2.84-.38-4.22,.22-.24,.1-.51,.31-.16,.54,1.13,.75,2.21,1.63,3.58,1.58,.86,.01,1.57-.16,2.21-.55Zm.04-.43c-1.22,1-3.52,.63-5.17-.86,1.67-.82,3.74-.47,5.17,.86Z"/>
      <path d="M2.87,81.32c-.27,.44-.52,.9-.77,1.36-.29,.52-.14,.78,.46,.76,1.17-.05,2.14-.53,2.91-1.42,.63-.73,1.06-1.57,1.5-2.46-1.88-.32-3.14,.23-4.1,1.77Zm1.88,.87c-.51,.42-1.1,.66-1.76,.71-.28,.02-.32-.08-.19-.3,.32-.54,.61-1.1,.97-1.61,.69-.96,1.73-1.16,2.94-1.28-.64,.93-1.15,1.82-1.95,2.47Z"/>
      <path d="M128.48,74.37c-.37-.17-.4,.15-.43,.44,.04,.21,.07,.46,.14,.71,.33,1.3,1.38,1.91,2.45,2.47,.24,.13,.54,.32,.8,.08,.26-.23,.1-.53,.02-.8-.45-1.52-1.65-2.29-2.98-2.9Zm-.06,.34c.96,.65,1.91,1.2,2.27,2.41-1.25-.26-2.19-1.24-2.27-2.41Z"/>
      <path d="M9.13,70.57c-1.33-.24-2.41,.34-3.41,1.11-.3,.23-.15,.52,.07,.74,.51,.49,1.16,.6,1.78,.64,1.08,0,1.92-.44,2.68-1.07,.28-.23,.22-.47,.05-.7-.29-.39-.69-.62-1.17-.71Zm.35,1.33c-.55,.36-1.13,.62-1.82,.62-.43,0-.87-.08-1.27-.32-.18-.11-.28-.22-.04-.39,.72-.49,1.47-.9,2.36-.96,.18-.01,.36,0,.53,.03,.34,.06,.74,.16,.8,.52,.05,.29-.35,.35-.56,.49Z"/>
      <path d="M189.25,21.9c.54-.22,1.12-.24,1.67-.41,1.19-.36,2.08-1.05,2.4-2.31,.06-.21,.11-.43-.1-.59-.19-.14-.38-.06-.56,.03-.64,.32-1.29,.64-1.91,.99-.62,.34-1.16,.78-1.55,1.39-.13,.2-.25,.4-.25,.64-.01,.21,.02,.38,.3,.26Zm3.57-2.87c.05,1.24-1.42,2.2-3.46,2.24,.94-1.16,2.25-1.6,3.46-2.24Z"/>
      <path d="M44.02,79.25c-.51,0-.86,.37-.85,.9,0,.59,.34,.99,.83,.99,.5,0,.92-.46,.9-1.01-.01-.53-.38-.89-.88-.89Z"/>
      <path d="M191.43,8.15c.53,.02,.95-.34,.98-.84,.03-.43-.28-.78-.69-.79-.47-.01-1,.51-1,1.01,0,.46,.3,.61,.7,.63Z"/>
      <path d="M9.31,18.94c0-.45-.33-.84-.73-.84-.4,0-.65,.31-.64,.88,.05,.32,.02,.77,.57,.81,.4,.03,.8-.42,.8-.85Z"/>
      <path d="M39.1,2.32c.44,0,.84-.39,.84-.82,0-.38-.33-.71-.73-.71-.38,0-.88,.5-.88,.88,0,.37,.36,.67,.78,.66Z"/>
      <path d="M129.69,3.54c.42,0,.78-.34,.78-.73,0-.37-.34-.73-.71-.74-.39-.01-.75,.34-.77,.75-.02,.41,.29,.72,.7,.72Z"/>
      <path d="M140.07,81.71c-.39,0-.65,.17-.65,.6,0,.42,.31,.85,.64,.88,.31,.02,.66-.34,.68-.7,.01-.38-.3-.77-.66-.78Z"/>
      <path d="M63.3,79.76c-.32,.03-.57,.17-.59,.58-.02,.44,.32,.92,.66,.89,.39-.03,.6-.29,.64-.66,.05-.4-.29-.79-.72-.81Z"/>
      <path d="M101.43,4.72c.37,0,.72-.37,.71-.74-.02-.39-.26-.56-.62-.6-.48,.03-.6,.34-.6,.74,0,.35,.11,.61,.51,.61Z"/>
      <path d="M154.54,66.3c-.02,.33,.06,.62,.46,.66,.36,.03,.74-.32,.76-.75,0-.33-.2-.56-.58-.59-.48-.04-.62,.27-.64,.68Z"/>
      <path d="M2.29,66.14c0-.35-.21-.57-.57-.56-.4,0-.56,.25-.59,.63,.04,.33,.19,.58,.55,.59,.42,0,.61-.28,.61-.66Z"/>
      <path d="M8.28,3.12c.34-.03,.65-.15,.63-.56-.01-.37-.24-.6-.62-.6-.36,0-.55,.24-.57,.58-.02,.37,.17,.56,.56,.58Z"/>
      <path d="M150.38,21.65c.01-.31-.18-.5-.53-.52-.35,.04-.64,.23-.65,.63-.01,.3,.2,.52,.51,.51,.39,0,.66-.22,.68-.62Z"/>
      <path d="M13.74,35.81c-.03-.28-.11-.51-.44-.5-.4,.01-.64,.22-.65,.63,0,.34,.18,.55,.53,.53,.39-.02,.52-.32,.57-.66Z"/>
      <path d="M150,7.12c.3,.02,.47-.24,.46-.54-.01-.33-.22-.5-.53-.55-.29,.01-.47,.15-.44,.43,.03,.31,.17,.63,.51,.66Z"/>
      <path d="M36.46,82.52c-.27-.01-.47,.05-.48,.34,0,.32,.12,.59,.47,.62,.29,.03,.48-.17,.5-.45,.02-.33-.22-.46-.49-.5Z"/>
      <path d="M78.35,82.43c-.28,.03-.39,.24-.38,.51,0,.31,.2,.45,.48,.46,.3,0,.46-.18,.45-.48-.01-.32-.2-.48-.55-.49Z"/>
      <path d="M121.65,71.42c-.29,.01-.35,.19-.34,.4,.01,.32,.17,.56,.5,.59,.27,.02,.47-.19,.45-.43-.02-.35-.35-.45-.61-.56Z"/>
      <path d="M171.3,60.06c-.02-.28-.19-.43-.45-.43-.27,0-.44,.15-.44,.43,0,.29,.17,.48,.47,.46,.27-.01,.41-.19,.43-.46Z"/>
      <path d="M92.41,15.59c.25-.02,.57-.04,.57-.36,0-.32-.31-.28-.52-.32-.25,0-.45,.09-.46,.35,0,.23,.17,.35,.4,.33Z"/>
      <path d="M148.91,78.85c-.28,.02-.45,.19-.49,.46-.03,.25,.17,.33,.38,.32,.25,0,.48-.1,.51-.37,.03-.24-.15-.38-.4-.41Z"/>
      <path d="M100.82,79.33c-.26-.03-.48,.04-.51,.33-.03,.25,.15,.35,.36,.39,.25,.04,.47-.01,.56-.33-.01-.23-.16-.36-.4-.39Z"/>
      <path d="M32.8,58.48c0,.23,.13,.36,.41,.36,.25-.04,.36-.23,.36-.49,0-.2-.1-.34-.34-.32-.28,.02-.43,.18-.43,.45Z"/>
      <path d="M130.12,15.29c-.01,.18,.09,.3,.3,.33,.28-.09,.42-.31,.48-.59,.04-.18-.08-.28-.25-.26-.3,.04-.5,.21-.53,.52Z"/>
      <path d="M191.77,63.87c-.02-.23-.15-.38-.37-.38-.25,0-.41,.15-.4,.41,0,.26,.18,.39,.42,.37,.23-.01,.35-.17,.35-.4Z"/>
      <path d="M161.06,67.89c-.23,.06-.39,.19-.37,.45,.02,.23,.19,.35,.41,.34,.26-.01,.39-.17,.36-.43-.02-.23-.17-.34-.4-.36Z"/>
      <path d="M185.42,79.82c-.24,0-.37,.13-.37,.36,0,.24,.14,.35,.38,.39,.2-.04,.36-.16,.36-.38,0-.22-.14-.37-.37-.37Z"/>
      <path d="M55.89,16.67c.02-.18-.07-.33-.27-.34-.26-.01-.4,.14-.43,.38-.02,.2,.11,.28,.3,.31,.23,0,.38-.13,.4-.35Z"/>
      <path d="M95.53,4.48c.18-.01,.31-.13,.31-.33,0-.21-.14-.33-.34-.33-.21,0-.4,.1-.38,.35,.02,.2,.16,.31,.4,.31Z"/>
      <path d="M193.49,3.63c.23-.01,.36-.15,.36-.38,0-.19-.11-.3-.31-.31-.21,.03-.35,.16-.38,.38-.03,.24,.12,.33,.33,.31Z"/>
      <path d="M41.04,75.81c-.18-.03-.22,.15-.22,.3,0,.23,.09,.44,.34,.48,.22,.04,.3-.15,.35-.34-.05-.25-.23-.4-.46-.44Z"/>
      <path d="M42.58,10.75c.21-.07,.4-.2,.41-.47,0-.18-.15-.24-.3-.22-.23,.03-.42,.13-.44,.39-.01,.2,.12,.29,.33,.3Z"/>
      <path d="M3,14.36c.2-.05,.32-.17,.3-.38-.02-.23-.16-.36-.39-.34-.18,.02-.28,.15-.27,.33,.02,.22,.14,.35,.36,.38Z"/>
      <path d="M164.87,78.87c-.21,0-.33,.13-.31,.35,.02,.2,.13,.33,.34,.33,.22,0,.31-.14,.32-.36-.03-.19-.14-.32-.35-.32Z"/>
      <path d="M190.47,43.71c-.02-.22-.13-.34-.34-.34-.19,0-.29,.11-.3,.3,0,.19,.1,.31,.28,.33,.2,.02,.33-.1,.36-.29Z"/>
      <path d="M45.41,4.4c.15-.02,.26-.12,.26-.29-.05-.17-.15-.29-.34-.27-.16,.02-.25,.14-.25,.3,.01,.19,.14,.29,.33,.26Z"/>
      <path d="M2.08,.61c.2-.01,.31-.15,.35-.34,.03-.14-.04-.26-.19-.27-.23-.02-.3,.17-.35,.34-.04,.14,.01,.25,.19,.27Z"/>
      <path d="M68.49,79.28c-.11,.01-.26-.01-.26,.17,0,.21,.18,.24,.34,.27,.15,.02,.24-.05,.24-.21,0-.19-.15-.21-.31-.23Z"/>
      <path d="M96.95,8.22c.17-.01,.22-.14,.26-.29-.04-.12-.11-.23-.25-.21-.16,.02-.25,.12-.24,.29,0,.15,.08,.23,.23,.22Z"/>
      <path d="M91.33,82.85c-.14,0-.25,.05-.25,.21,0,.18,.12,.24,.28,.23,.13,0,.25-.06,.26-.21,0-.18-.13-.23-.29-.23Z"/>
      <path d="M67.16,75.53c-.14,0-.25,.05-.26,.2-.01,.19,.11,.24,.27,.24,.14,0,.26-.06,.26-.2,.01-.18-.12-.24-.28-.24Z"/>
      <path d="M23.31,41.16c.15-.01,.21-.11,.22-.28-.05-.1-.13-.19-.28-.15-.13,.03-.24,.1-.22,.26,.02,.16,.14,.19,.28,.18Z"/>
      <path d="M129.43,10.5c-.02,.15,.07,.24,.22,.24,.14,0,.22-.1,.26-.24,0-.14-.08-.22-.23-.23-.14,0-.24,.08-.25,.23Z"/>
      <path d="M152.67,24.3c-.15,.02-.23,.11-.21,.25,.01,.15,.07,.29,.26,.27,.16-.02,.19-.14,.18-.28-.01-.13-.06-.24-.22-.25Z"/>
      <path d="M149.14,26.29c-.13,0-.25,.05-.27,.19-.02,.13,.07,.19,.19,.2,.14,.02,.23-.04,.27-.18,0-.12-.07-.2-.19-.21Z"/>
      <polygon points="128.75 25.39 128.76 25.37 128.75 25.37 128.75 25.39"/>
      <path d="M81.67,15.04s.03,.06,.05,.09c.02-.02,.05-.04,.07-.07-.04,0-.08-.02-.12-.02Z"/>
      <path d="M46.44,71.65s.02,.07,.03,.1c0,0,0,0,0,0,0-.03-.02-.07-.03-.1Z"/>
      <path d="M108.57,29.25c.24-.22,0-.46,0-.69,0-.02-.05-.03-.11-.08-.12,.24-.21,.47-.13,.73,.02,.08,.18,.08,.24,.03Z"/>
      <path d="M112.51,29.28c.24,0,.37-.27,.38-.52,.01-.23-.06-.48-.32-.48-.4,0-.12,.37-.24,.54,.11,.15-.15,.46,.18,.45Z"/>
      <path d="M116.34,28.92c.27,0,.39-.28,.4-.54,0-.22-.09-.48-.33-.47-.37,.02-.12,.37-.23,.54,.08,.17-.12,.47,.16,.47Z"/>
    </g>
  </g>
</svg>