<?xml version="1.0" encoding="UTF-8"?>
<svg id="_图层_2" data-name="图层 2" xmlns="http://www.w3.org/2000/svg" viewBox="0 0 134.93 123.54">
  <g id="_图层_2-2" data-name=" 图层 2">
    <g>
      <polygon points="6.66 96.41 6.66 96.41 6.66 96.41 6.66 96.41 6.66 96.4 6.66 96.41"/>
      <path d="M125.19,54.05s0,0,0-.01c0,0,0,0-.01,0,0,0,.01,.01,.02,.02Z"/>
      <path d="M101.15,108.36s0,0,0,0c0,0-.01,0-.02,0v.02Z"/>
      <path d="M129.18,71.4c.02-.15,.16-.31,.28-.42,.16-.15,.39-.22,.54-.38,.34-.37,.66-.76,.97-1.16,.37-.47,.82-.92,1.06-1.45,.34-.75,.53-1.57,.77-2.37,.09-.31,.21-.48,.58-.55,.82-.15,1.3-.74,1.55-1.51,.04-.14-.04-.4-.15-.48-.25-.17-.27-.34-.19-.61,.33-1,.3-1.93-.57-2.68-.15,.09-.31,.19-.47,.28,.2,.37-.62,1.64-1.03,1.66,0-.18-.02-.36-.03-.58-.12,.06-.17,.07-.18,.1-.28,.53-.21,1.27-.93,1.55-.06,.02-.06,.2-.08,.31-.11,.95,.17,1.58,1.1,2-.27,1.63-1.81,4.48-2.97,5.19-.27-1.07,.43-2.21-.33-3.28,.22,.12,.37,.2,.47,.25,0-.22,.03-.41,0-.59-.04-.17-.15-.33-.18-.39-.02-.31-.03-.53-.04-.75-.01-.24,0-.47-.03-.71-.05-.49,0-1.02-.19-1.45-.17-.41-.16-.69,.04-1.05,.61-1.12,1.19-2.25,1.78-3.38-.04-.03-.09-.05-.13-.08-.86,.88-1.2,2.11-1.92,3.14-.07-.33-.14-.62-.21-.91-.18-.74-.32-1.49-.56-2.2-.16-.48-.14-.98,.22-1.26-.49,.18-.79-.08-.83-.85,.26,.15,.45,.26,.64,.37-.24-.54-.55-1.03-.33-1.71,.27-.82,.38-1.69,.56-2.54l-.17-.05c-.34,1.08-.67,2.17-1.01,3.25-.05,0-.1,0-.15,0-.04-.31-.09-.62-.13-.93,.03-.13-.02-.26-.08-.39-.04-.09-.07-.2-.13-.28-.59-.83-1.21-1.65-1.78-2.5-.23-.34-.45-.56-.84-.49-.01,.23-.02,.46-.03,.71,.71,.36,1.08,.99,1.16,1.81,.44-.03,.46,.33,.42,.58-.02,.12-.39,.17-.53,.23,.23,.28,.5,.62,.78,.97,.13-.06,.27-.12,.48-.21,.49,1.5,.97,2.96,1.44,4.42-1.37-1-2.37-2.41-4.02-2.98,.1,.26,.22,.55,.42,.64,1.21,.52,1.97,1.59,2.95,2.39,.26,.21,.55,.42,.69,.7,.18,.34,.24,.75,.3,1.14,.09,.58,.35,1.15-.07,1.75-.2,.29-.04,.6,.48,.54,.08,.6,.17,1.19,.23,1.79,.09,.9,.23,1.81,.2,2.72-.04,1.27-.2,2.54-.35,3.8-.04,.3-.36,.57-.39,.87-.15,1.71-.89,3.18-1.68,4.65-.12,.23-.3,.43-.42,.65-.64,1.18-1.66,1.96-2.78,2.77,.28-1.04,.49-2,.81-2.92,.45-1.33,.32-2.66,.08-3.99-.04-.25-.3-.45-.47-.69-.08-.73-.16-1.53-.25-2.32-.04-.36-.04-.66,.45-.73,.18-.02,.37-.18,.5-.32,.91-.94,1.18-2.08,.94-3.33-.14-.73-.39-1.43-.61-2.14-.18-.57-.32-1.16-.59-1.68-.33-.64-.73-1.27-1.19-1.83-.59-.72-1.23-1.4-1.92-2.03-.43-.39-1-.62-1.48-.95-.62-.43-1.28-.71-2.05-.8-.15,.5,.18,.98-.09,1.49-.15,.3,.02,.76,.03,1.15,.02,.66,0,1.33,.04,1.99,.03,.44,.2,.87,.22,1.31,.02,.46-.38,.96,.18,1.36,.03,.02-.03,.17-.04,.26-.01,.1-.04,.22-.01,.31,.19,.58,.38,1.17,.59,1.75,.24,.68,.42,1.39,.75,2.02,.6,1.14,1.54,1.85,2.89,1.83,.71,0,.81,.07,.84,.79,.02,.5,0,1,.03,1.49,.05,.99,.23,1.99,.16,2.98-.06,.85-.34,1.7-.58,2.53-.31,1.07-.66,2.12-1,3.18-.04,.11-.11,.21-.2,.39-.05-.53-.11-.96-.13-1.39-.02-.42,0-.85,0-1.32,.59-.32,.84-.71,.71-1.2-.14-.51-.77-.94-1.39-.93-.38,0-.76,.09-.89,.52-.17,.57,.3,1.25,1.15,1.75v1.71c-.18-.16-.32-.27-.45-.39-.77-.71-1.55-1.41-2.29-2.15-.26-.25-.6-.59-.6-.9-.02-1-.98-1.73-1.89-1.33-.14,.06-.3,.18-.37,.31-.31,.63,.49,1.88,1.16,1.73,.61-.14,.98,.12,1.35,.44,.84,.74,1.67,1.49,2.47,2.28,.47,.47,.9,1.01,.54,1.71-1.17-.44-2.33-.86-3.48-1.33-.29-.12-.55-.4-.76-.66-.35-.44-.79-.71-1.33-.66-.28,.03-.61,.21-.77,.43-.24,.32,.08,1.12,.48,1.43,.47,.36,.98,.43,1.37,.06,.31-.3,.59-.29,.92-.17,.96,.36,1.93,.7,2.86,1.13,.39,.18,.98,.34,.8,1.02-.11,.43-.18,.89-.37,1.28-.95,1.91-1.88,3.83-3.24,5.51-.18,.23-.34,.49-.48,.75-.31,.59-.55,1.18-1.12,1.65-.82,.66-1.46,1.53-2.24,2.24-1.34,1.22-2.69,2.44-4.12,3.56-.95,.75-2.03,1.34-3.05,2.01-.99,.65-1.96,1.33-2.96,1.96-.62,.39-1.27,.73-1.96,1.11,.45-1.26,.87-2.44,1.29-3.61-.46-.31-.63,.09-.65,.31-.08,1.32-.95,2.33-1.38,3.51-.09,.23-.33,.48-.56,.58-1.23,.51-2.46,.99-3.71,1.44-1.41,.51-2.82,1.03-4.27,1.43-1.42,.39-2.89,.66-4.34,.92-1.21,.21-2.44,.31-3.74,.47,.07-.15,.08-.19,.1-.21,1.05-.55,2-1.23,2.77-2.14,.54-.63,1.12-1.1,2.07-1.07,.71,.02,1.39-.34,1.97-.85,.69-.6,1.42-1.17,2.45-1.12,.28,.01,.59-.15,.86-.29,.9-.49,1.26-1.35,1.5-2.3,.06-.25,.18-.51,.36-.7,.35-.38,.76-.71,1.24-1.14h-.84v-1.24c-.31,.28-.55,.5-.82,.74-.23-.28-.44-.53-.71-.86-.14,.47-.25,.87-.39,1.26-.12,.35-.26,.61-.72,.7-1.19,.25-1.97,1.07-2.42,2.16-.14,.34-.14,.85,.01,1.18,.21,.45,0,.61-.29,.79-.41,.25-.81,.52-1.25,.7-.46,.2-.96,.3-1.59,.49,.36-.59,.66-1,.86-1.45,.36-.83,.63-1.7,.97-2.53,.07-.18,.34-.44,.47-.41,.45,.08,.66-.18,.87-.46,.61-.82,.54-2.53-.26-3.49-.43-.52-.29-.91-.08-1.39,.12-.27,.18-.57,.27-.89-.4,.09-.68,.15-1.01,.23-.07-.39-.12-.72-.2-1.15-.29,.4-.51,.72-.75,1.04-.2-.15-.36-.27-.65-.49,.08,.37,.12,.58,.16,.79,.14,.61,.22,1.16-.09,1.81-.59,1.24-.55,2.46,.59,3.48,.16,.15,.25,.56,.17,.78-.41,1.02-.87,2.03-1.34,3.02-.21,.44-.48,.85-.75,1.31-.27-.26-.5-.4-.63-.61-.2-.32-.55-.68-.25-1.07,.53-.7,.59-1.48,.28-2.21-.36-.86-.79-1.65-.25-2.58,0,0-.04-.05-.06-.07-.23,.04-.45,.09-.7,.14-.07-.31-.12-.56-.2-.9-.24,.32-.41,.55-.59,.81-.15-.1-.28-.19-.47-.32,.02,.21,0,.34,.04,.45,.2,.6,.22,1.17-.1,1.76-.43,.8-.17,2.04,.49,2.66,.67,.63,1.2,1.41,1.77,2.14,.07,.09,.07,.34,0,.43-.36,.44-.7,.92-1.15,1.26-.58,.45-1.22,.82-1.88,1.15-.54,.27-1.13,.57-1.7,.59-1.16,.04-2.32-.09-3.49-.15-.51-.03-1.13-.76-1.1-1.26,.12-1.63-.33-3.16-.88-4.66-.18-.48-.41-.95-.63-1.47,.74-.04,1.36,.59,2.04,0-.59-.17-1.2-.25-1.8-.34-.16-.02-.37-.01-.46-.1-.32-.3-.6-.65-.89-.98-.28-.31-.15-.47,.19-.6,.35-.14,.67-.34,1.01-.51,.24-.12,.49-.23,.79-.38-.15,.57,.05,.7,.5,.57,.19-.05,.4-.11,.59-.08,.55,.07,.82-.12,.95-.68h-.4s-.04-.09-.06-.14c.22-.11,.54-.38,.65-.31,.36,.21,.37-.27,.61-.23,.26,.04,.52,.06,.7,.08,.15-.19,.27-.35,.4-.52-.65-.48-1.39-.3-1.99-.01-.62,.3-1.23,.15-1.83,.29-.29,.07-.78,.25-.79,.41-.04,.55-.42,.42-.7,.55,.3-1.05,.59-2.06,.88-3.07-.07-.02-.14-.04-.2-.06-.41,1.06-.84,2.11-1.23,3.17-.19,.52-.52,.74-1.01,.58-.73-.24-1.46-.51-2.26-.39-.25,.04-.5,0-.74,0-.07-.32-.12-.56-.17-.81-.06,0-.11,0-.17-.01,.34,1.2-.71,1.24-1.3,1.7-.98-1.14-2.16-1.88-3.63-2.12-.12-.02-.31-.24-.29-.32,.15-.6,.26-1.22,.53-1.76,.34-.67,.97-1.08,1.64-1.44,.25-.13,.46-.56,.45-.85,0-.23-.35-.62-.57-.65-.71-.09-1.48,.08-1.99,.54-1.38,1.24-2.44,2.71-2.68,4.62-.05,.39-.23,.47-.55,.43-1-.14-1.7-.71-2.23-1.53,.4-.2,.78-.35,1.12-.55,.51-.31,.63-.91,.36-1.53-.26-.6-.81-.86-1.51-.73-.46,.09-.78,.55-.75,1.16,.02,.43,.11,.86,.17,1.29-1.75,.41-3.24-.08-4.53-1.29,.74-1.03,.76-1.07,.61-1.53-.02,.25,.02,.54-.1,.73-.43,.7-.65,.69-1.12,.03-.11-.16-.16-.36-.24-.54,.06-.35,.11-.69,.17-1.05,.56-.21,.99-.13,1.1,.59,0,.06,.1,.11,.17,.17-.04-.24-.03-.52-.17-.7-.15-.21-.47-.46-.67-.43-.26,.05-.53,.32-.69,.57-.17,.26-.33,.61,.09,.85-.05,.1-.17,.24-.14,.3,.18,.32,.35,.66,.6,.92,1.12,1.17,2.44,1.89,4.14,1.74,.42-.03,1.02,.03,1.25,.29,.55,.64,1.08,1.25,2.06,1.51-.27,.22-.47,.38-.65,.53-.25,.21-.68,.39-.73,.64-.13,.71-.45,.51-.84,.29-2.02-1.14-4.03-1.35-6.14,.13-.06-.31-.1-.54-.16-.88-.1,.2-.18,.31-.22,.43-.12,.38-.14,.82-.34,1.15-.23,.36-.57,.71-.94,.9-.17,.09-.54-.22-.82-.34-.05-.02-.11-.03-.16-.05-.48-.15-.6-.45-.33-.94-.2,.08-.36,.21-.5,.19-.3-.04-.66-.09-.87-.28-.19-.17-.19-.53-.29-.8-.36-.92-.73-1.83-1.1-2.74-.06,.02-.12,.04-.18,.06,.29,1.03,.59,2.06,.9,3.14-.34-.1-.73-.01-.67-.55,0-.07-.11-.2-.2-.24-.23-.09-.47-.17-.72-.2-.51-.06-1.09,.03-1.53-.17-.76-.34-1.45-.44-2.19-.11l-.04,.17c.69,.21,1.38,.41,2,.6v.94c-.62-.03-1.23-.06-1.85-.09,0,.06,0,.12-.01,.18,.49,.04,.98,.11,1.47,.11,.4,0,.79-.12,1.19-.11,.42,0,.84,.1,1.26,.16,.19-.54,.27-.56,.75-.23,.18,.13,.35,.28,.53,.39,.75,.44,1.51,.87,2.26,1.31,.13,.07,.23,.2,.42,.37-1.79,.09-3.51-.17-5.11,.46v.17c1.74-.1,3.46-.19,5.34-.3-.29,.45-.28,.92-.73,.74-.15,.75-.29,1.48-.46,2.3-.2-.19-.26-.24-.37-.33-.12,.42-.28,.8-.34,1.2-.09,.6-.1,1.21-.17,1.82-.01,.12-.14,.3-.23,.31-.89,.11-1.78,.22-2.67,.25-.42,.01-.85-.15-1.28-.22-.26-.04-.53-.03-.79-.06-.78-.1-1.64-.05-2.33-.36-1.01-.45-1.54-1.51-2.21-2.35-.25-.31-.3-.66-.03-1.09,.41-.65,.16-1.56-.43-2.13-.39-.37-.83-.4-1.28-.18-.52,.24-.82,.68-.8,1.23,.02,.78,.48,1.32,1.17,1.69,.23,.12,.49,.27,.64,.47,.54,.71,1.04,1.45,1.55,2.17l-.03,.16c-.41-.1-.82-.25-1.23-.28-1.12-.06-2.07-.48-2.91-1.2-.79-.68-1.6-1.33-2.39-2.01-.22-.19-.39-.44-.61-.68,.46-.54,.62-1.19,.38-1.92-.18-.56-.66-.98-1.18-1.03-.52-.05-.97,.24-1.26,.82-.37,.74,.16,1.84,1.06,2.2,.19,.07,.4,.13,.54,.26,.82,.78,1.63,1.59,2.45,2.37,.13,.12,.32,.18,.48,.27-.06,.08-.12,.15-.18,.23-.45-.33-1.02-.25-1.52-.54-.47-.27-1.09-.29-1.59-.41,.06-.05,.2-.16,.46-.37-.33,.06-.62,.15-.63,.12-.23-.56-.5-.32-.78,0-.09-.22-.11-.48-.23-.53-.49-.2-1-.34-1.51-.5,.09-1.1-.53-1.83-1.79-2.11,0-1.22-.45-2-1.25-2.03-.29-.01-.69,.06-.86,.26-.32,.36-.51,.84-.79,1.31-.48-.23-1.12-.47-1.67-.83-1.92-1.25-4.1-2.2-5.19-4.43-.36-.73-.79-1.42-1.17-2.13-.06-.11-.08-.33-.01-.39,.09-.08,.29-.1,.41-.05,.16,.06,.31,.19,.42,.32,.62,.76,1.22,1.53,1.84,2.28,.03,.04,.17-.01,.33-.03-.64-.82-1.23-1.59-1.88-2.42,.82,.04,1.53,.07,2.24,.13,.32,.03,.63,.12,1,.19,.28-.48,.44-.53,.83-.16-.14,.13-.28,.25-.42,.38,.02,.02,.03,.05,.05,.07,.24-.12,.48-.23,.69-.34,.71,.46,1.4,.9,2.09,1.35,.03-.05,.07-.09,.1-.14-.65-.53-1.3-1.06-1.95-1.59,.26-.09,.49-.05,.72-.03,.21,.02,.49,.11,.62,.01,.63-.48,1.3-.81,2.05-1.04,.26-.08,.46-.36,.69-.55-.05-.08-.1-.15-.14-.23-.28,.12-.55,.26-.84,.35-.39,.12-.89,.37-1.18,.23-.56-.26-.95-.02-1.46,.15,.31,.45,.01,.48-.31,.49-.2,0-.41,0-.61,.02-.8,.07-1.61,.14-2.41,.22,1.02-.99,2.32-1.58,3.03-2.84-.19,.05-.34,.14-.48,.25-.94,.75-1.89,1.48-2.8,2.25-.62,.53-1.28,.1-1.91,.14-.14,0-.3-.31-.49-.52-.33,.07-.71,.15-1.06,.23-1.05-1.65-2.11-3.31-3.17-4.97-.18-.28-.47-.51-.55-.81-.44-1.56-.93-3.13-1.21-4.72-.31-1.74-.43-3.52-.58-5.29-.07-.87-.01-1.76-.01-2.64,.05-.02,.09-.05,.14-.07,.58,.7,1.18,1.38,1.74,2.1,.55,.7,1.06,1.42,1.56,2.1-.24,.32-.45,.56-.62,.82-.8,1.26-.22,2.53,.02,3.79,.16,.82,.61,1.52,1.06,2.21,.27,.42,.57,.93,1.07,.82,.31-.07,.5-.62,.77-.98,.16,.04,.44,.16,.72,.18,.11,0,.3-.18,.33-.31,.08-.31,.08-.63,.11-.95l.15-.11c.22,.33,.44,.65,.65,.95,.49-.34,.67-1.06,.53-1.42-.15-.38-.21-.79-.33-1.17-.29-.93-.51-1.9-.92-2.77-.52-1.1-1.45-1.5-2.63-1.28-.45,.08-.69-.08-.9-.43-.4-.65-.76-1.32-1.24-1.91-.5-.62-1.1-1.18-1.69-1.73-.34-.32-.59-.62-.53-1.14,.25-2.04,.47-4.09,.72-6.13,.04-.3,.13-.6,.18-.83-.81,0-1.57-.05-2.32,.01-.72,.06-1.42,.25-2.17,.38,.68,1.34,.75,2.73,.79,4.12,0,.21-.15,.47-.3,.65-.4,.47-.84,.92-1.27,1.37-.44,.46-.84,.96-1.33,1.35-.77,.62-1.56,1.24-2.42,1.71-1.09,.6-1.48,1.69-1.88,2.67-.46,1.12-.57,2.39-.81,3.6-.03,.18,.06,.38,.09,.56,.19-.04,.42-.02,.57-.12,1.19-.78,2.42-1.52,3.54-2.4,1.05-.83,1.9-1.9,2.27-3.22,.2-.73,.41-1.58,.21-2.27-.3-1.03,.43-1.94,1.08-2.5,.06-.05,.15-.06,.3-.12-.24,2.87-.38,5.67-1.07,8.43-.43,1.73-.5,3.54-.76,5.32-.13,.88,.25,1.82-.31,2.62,.13,.32,.18,.64,.23,.97,.26,1.72,.52,3.44,.8,5.16,.05,.32-.17,.21-.3,.26,.12,.55,.33,1.1,.35,1.65,.06,1.5,.82,2.68,1.73,3.77,.46,.55,1.02,.36,1.06-.36,.04-.74-.05-1.51-.22-2.23-.2-.9-.61-1.75-.8-2.65-.47-2.28-.33-4.57,.08-6.85,.02-.13,.13-.24,.21-.37,.12,.07,.19,.1,.24,.14,.08,.08,.16,.16,.22,.25,.93,1.59,1.8,3.2,2.31,4.99,.07,.23,.26,.46,.45,.62,.9,.76,2.05,1.31,1.65,2.89-.31,1.25-.38,2.55-.56,3.84-.03,.25-.04,.5-.07,.75-.04,.3,.01,.76-.15,.86-.4,.23-.1,.36,.05,.56,.27-.67,.54-1.34,.84-2.08,.16,.22,.31,.37,.41,.56,.48,.96,.97,1.91,1.42,2.88,.33,.71,.6,1.44,.92,2.19-.09,.05-.31,.19-.55,.27-1.19,.41-1.74,2.09-1.54,3.08,.03,.15,.24,.39,.36,.38,.57-.02,.64,.31,.62,.75,0,.15,.02,.3,.05,.44,.25,1.14,.76,2.08,2.05,2.4,.23-.2,.51-.44,.79-.68,0,0,0,0,0,0,.14-.18,.31-.35,.41-.55,.41-.83,.31-1.7,.1-2.56-.09-.36-.07-.64,.21-.91,.12-.11,.23-.34,.2-.48-.2-1.08-.97-2.08-1.97-2.13-.15,0-.32-.26-.43-.43-.1-.16-.1-.37-.17-.54-.13-.36-.28-.72-.41-1.07-.17-.45-.29-.93-.51-1.35-.4-.76-.87-1.47-1.29-2.22-.18-.32-.44-.67-.45-1.01,0-.74,.14-1.49,.21-2.23,.04-.43,.08-.87,.12-1.3,.05-.01,.1-.02,.15-.03,.28,.7,.9,1.19,1.04,1.99,.12,.72,.3,1.45,.58,2.12,.82,1.95,2.3,3.45,3.61,5.05,.24,.29,.41,.64,.56,.99,.22,.51,.36,1.05,.57,1.56,.21,.51,.44,1.02,.7,1.5,.25,.45,.62,.83,.82,1.3,.55,1.28,1.42,2.34,2.3,3.39,.07,.08,.16,.16,.26,.2,.18,.06,.37,.09,.56,.14,.03-.19,.12-.4,.06-.56-.29-.83-.62-1.65-.93-2.48-.46-1.24-.93-2.47-1.34-3.73-.38-1.16-.9-2.18-1.74-3.12-.94-1.05-1.58-2.37-2.35-3.57-.1-.16-.14-.35-.24-.61,1.85,.95,3.46,2.13,5.37,2.76,1.65,.55,3.2,1.41,5.01,1.3,.09,0,.19,.03,.26,.07,.7,.43,1.33,.96,2.18,1.13,.58,.12,1.13,.41,1.69,.62,.11,.04,.22,.11,.33,.16-.31,.08-.58,.04-.84,.09-.98,.19-1.96,.41-2.94,.64-.24,.06-.52,.12-.69,.28-.42,.4-.77,.82-1.48,.62-.64-.18-1.05,.06-1.39,.64-.4,.69-.17,1.48,.62,2.12,.74,.59,1.61,.34,1.77-.59,.1-.55-.04-1.14-.09-1.9,.59-.23,1.33-.55,2.1-.8,.43-.14,.91-.15,1.37-.21,.54-.06,1.08-.15,1.62-.14,.84,.01,1.69,.07,2.52,.15,.84,.08,1.7,.13,2.34,.66-.37,.4-.74,.77-1.08,1.16-.35,.4-.64,.77-1.29,.51-.45-.18-.85,.11-1.16,.47-.82,.93,.04,2.25,.97,2.57,.44,.15,.83,.09,1-.31,.19-.43,.25-.92,.32-1.39,.05-.33-.08-.79,.09-.99,.48-.53,1.05-1.01,1.65-1.41,.37-.25,.87-.44,1.31-.44,.69,0,1.38,.21,2.08,.29,.41,.05,.82,0,1.23,.03,.74,.04,1.47,.12,2.21,.14,1.04,.02,2.08,0,3.17,0,.07,.5,.14,1.01,.22,1.6-1.04-.17-1.97-.37-2.92-.3-.03,.07-.07,.14-.1,.21,.7,.63,1.39,1.27,2.14,1.94,.05-.21,.09-.36,.12-.48,1.42-.09,1.25,1.13,1.57,1.9,.09,.21-.12,.56-.16,.69-.5-.12-.84-.24-1.19-.28-.29-.04-.6,.03-.89,0-.25-.03-.5-.12-.78-.19-.15,.24-.7,.29-1.34,0,.15-.21,.25-.45,.43-.57,.07-.04,.32,.21,.5,.33,.05-.09,.14-.23,.21-.36-1.31-1.04-4.55-.25-5.68,1.35-.13,.7,.34,1.27,1.1,1.32,.61,.04,1.25-.15,1.79,.32,.03,.03,.13-.03,.19-.04,0-.99,.91-1.87,1.59-1.62-.17,.14-.36,.28-.54,.43,.02,.04,.04,.08,.07,.11,.24-.04,.49-.08,.74-.13-.05,.48-.4,.65-.84,.48-.11-.04-.28-.06-.37,0-.09,.05-.17,.22-.16,.32,.02,.27,.1,.53,.16,.82-.42-.02-.87-.18-.72,.46,.01,.06-.06,.17-.13,.23-.71,.67-1.42,1.34-2.14,2-.38,.35-.61,1.03-.4,1.48,.21,.45,.63,.6,1.11,.62,.18,0,.37,0,.55-.03,1.16-.13,1.93-.88,2.68-1.66,.06-.06,.08-.16,.15-.31-.25,.09-.42,.15-.63,.22-.05-.45-.21-.77-.75-.6,.1-.23,.19-.38,.25-.55,.13-.41,.81-.73,1.25-.57,0,0,0,0,0,0,0-.02-.01-.03-.02-.05,.01,0,.02,0,.04,0,.06-.2,.13-.41,.19-.61-.13,.06-.25,.16-.38,.16-.16,0-.31-.1-.46-.15,.12-.1,.23-.2,.35-.28,.12-.08,.29-.12,.38-.23,.43-.51,.75-1.14,1.54-1.21,.04,0,.14-.35,.08-.42-.31-.38-.1-.54,.24-.58,.37-.05,.76-.01,1.29-.01-.37,.44-.63,.76-.9,1.07,.03,.03,.06,.07,.09,.1,.55-.4,1.11-.8,1.64-1.18,.68,.74-.57,1.03-.36,1.54-.41,.35-.77,.65-1.13,.95,.02,.04,.04,.08,.06,.13,.23-.05,.6,.23,.66-.22,.09-.64,.59-.25,.86-.42,.08,.22,.16,.43,.28,.74-.64-.09-.98,0-1.1,.52-.04,.19-.21,.41-.38,.49-.27,.13-.26,.08-.22,.36,.05,.32,.04,.65,.06,.97-.05,0-.1,.01-.16,.02-.05-.11-.1-.22-.2-.44,.04,.42,.05,.74,.11,1.05,.16,.83,.6,1.04,1.36,.69,.72-.33,1.14-.95,1.5-1.59,.27-.47,.45-1,.62-1.53,.12-.41,.16-.84,.23-1.28,1.13,.64,2.14,1.25,3.38,1.37,1.41,.13,2.79,.06,4.16-.29,.61-.16,1.15-.15,1.73,.24,.59,.39,1.29,.65,1.98,.85,.48,.14,1.01,.12,1.52,.09,.28-.02,.54-.19,.81-.31,.37-.16,.78-.27,1.08-.52,.51-.42,.98-.9,1.39-1.42,.3-.38,.57-.36,.96-.19,.58,.25,1.15,.56,1.76,.68,1.31,.27,2.58,.15,3.79-.56,.81-.48,1.28-1.51,2.39-1.52-.13,.15-.24,.38-.39,.42-.84,.21-.9,.69-.73,1.32,.03,.12,.14,.24,.14,.36-.01,1.25,.65,2.16,1.47,2.99,.19,.19,.44,.35,.69,.45,.69,.29,1.13,.06,1.27-.67,.07-.34,.11-.71,.06-1.05-.05-.34-.15-.76-.38-.97-.31-.27-.63-.73-1.19-.51,0,0-.03-.06-.06-.12,.16-.06,.31-.13,.46-.19,0-.04,0-.09,0-.13-.21-.05-.42-.11-.69-.18,.02-.29,.04-.6,.07-1.02,.23,.33,.4,.56,.54,.76,.52-.4,.37-.87,.14-1.3-.17-.02-.33-.06-.41-.15-.09-.11-.2-.32-.15-.41,.06-.12,.31-.25,.4-.21,.28,.13,.52,.33,.78,.51,.19,.13,.38,.25,.56,.38,.02-.04,.05-.09,.07-.13-.26-.3-.52-.61-.81-.95,.35-.05,.6-.1,.86-.12,.48-.03,.87,.28,.65,.55-.13,0-.28-.02-.51-.03,.14,.16,.22,.25,.22,.26-.05,.28-.09,.48-.14,.69,.07,.02,.14,.04,.21,.06,.11-.18,.23-.35,.34-.53,.26,.18,.52,.34,.76,.54,.31,.26,.88,.34,.7,.87,.27,.11,.5,.2,.67,.27-.03,.39-.06,.69-.09,1.03,.88-.33,.61,.48,.79,.65-.25,.23-.46,.44-.74,.71-.01,0-.18-.05-.41-.11,.04,.13,.04,.22,.08,.26,.65,.51,1.27,1.08,1.98,1.48,.4,.23,.98,.26,1.45,.21,.9-.1,1.27-.82,.83-1.63-.22-.41-.56-.78-.9-1.11-.51-.48-1.09-.89-1.59-1.37-.25-.23-.41-.56-.68-.93,.46-.63-.59-.98-.58-1.74,.31,.24,.7,.09,.78,.54,.05,.3,.46,.51,.22,.9,.14,.08,.3,.23,.43,.21,.53-.06,1.05-.15,1.56-.29,.46-.13,1.02-.19,1.2-.74,.18-.55-.1-1.01-.52-1.31-.48-.34-1-.68-1.56-.81-.73-.16-1.51-.13-2.27-.16-.66-.02-1.32,0-1.49,.84-.5,.33-1.41,.39-1.59,.03-.26-.51-.51-.36-.81-.11-.06,.25-.13,.51-.23,.9-.43-.53-.73-.91-1.03-1.28-.05-.15-.06-.45-.16-.49-.48-.16-.21-.46-.14-.67,.03-.09,.31-.13,.48-.15,.21-.02,.43,.04,.63,0,1.09-.22,2.18-.38,3.3-.39,1.65-.01,3.3-.15,4.94-.3,.96-.08,1.8-.02,2.31,.96,.12,.23,.37,.4,.58,.58,.56,.48,.6,.79,.11,1.33-.53,.59-.59,1.29-.43,2.02,.03,.13,.21,.32,.3,.31,.45-.04,.52,.25,.61,.57,.25,.96,.84,1.56,1.81,1.7v-2.4c.79,.56,.41,1.2,.41,1.76,.3-.42,.39-.85,.3-1.35-.11-.59-.56-1.17-.12-1.8,.03-.05-.03-.18-.06-.26-.3-.64-.73-1.08-1.49-1.19-.22-.03-.42-.29-.61-.47-.11-.11-.18-.26-.27-.39-.24-.37-.49-.75-.73-1.12,.03-.04,.05-.08,.08-.12,.25,.04,.5,.09,.75,.13,0-.05,.02-.09,.03-.14-.38-.11-.77-.23-1.15-.34,.1-.17,.16-.21,.22-.22,1.37-.34,2.73-.7,4.1-1.02,.48-.11,.95-.48,1.48-.12,.04,.03,.15,0,.2-.04,.36-.21,.7-.48,1.08-.64,.85-.35,1.73-.65,2.59-.98l-.02,.02c.61-.27,1.23-.54,1.9-.84-.05,.14-.07,.21-.09,.27,.14,.07,.32,.11,.42,.22,.31,.35,.53,.83,.9,1.08,.76,.51,1.58,.95,2.42,1.33,.88,.39,1.79,.72,2.71,1,.84,.26,1.71,.49,2.58,.58,.73,.07,1-.45,.77-1.16-.21-.65-.65-1.03-1.29-1.26-1.35-.51-2.7-1.01-3.91-1.85-1.02-.72-1.41-1.64-1.23-2.82,.04-.26,.28-.57,.52-.69,.71-.36,1.44-.71,2.2-.92,.37-.1,.52-.55,1.04-.44,1.28,.26,2.59,.4,3.89,.55,.37,.04,.62,.11,.74,.49,.05,.14,.19,.27,.32,.37,.84,.68,1.75,1.16,2.88,1.01,1.12-.15,2.26-.2,3.33-.52,.92-.27,1.83-.68,2.61-1.31,.54-.43,1.15-.78,1.73-1.15,.98-.63,1.99-1.12,3.21-.93,.25,.04,.51-.03,.77-.04,.01-.06,.02-.11,.04-.17-.46-.26-.92-.52-1.39-.77-.93-.49-1.85-1-2.8-1.46-.36-.17-.85-.1-1.15-.32-.83-.6-1.85-.18-2.7-.59-.07-.03-.19-.01-.27,.01-.49,.14-.97,.3-1.46,.42-1.49,.37-2.95,.77-4.29,1.61-1.05,.66-1.92,1.28-1.5,2.83-1.21-.13-2.32-.25-3.57-.38,1.55-1.11,2.93-2.07,4.29-3.08,.58-.43,1.12-.92,1.61-1.45,1.24-1.35,2.45-2.72,3.65-4.11,.21-.25,.36-.34,.69-.25,.64,.17,1.29,.28,1.94,.39,.77,.13,1.53,.24,2.33,.2,.99-.05,1.99,.08,2.93,.12,.29,.32,.53,.75,.9,.95,.61,.35,1.21,.05,1.73-.67,.5-.69,.38-1.57,.05-1.91-.12-.12-.32-.19-.49-.22-.93-.12-1.63,.35-2.13,1.34-.76-.05-1.49-.09-2.35-.14,.56-.48,1.03-.87,1.48-1.29,.72-.66,1.41-1.35,2.14-1.99,.35-.31,.59-.86,1.18-.78,.9,.13,1.49-.14,1.92-.92,.32-.59,.17-1.64-.29-1.83-.63-.26-1.23-.05-1.74,.31-.38,.27-.77,.69-.62,1.22,.17,.62-.16,.97-.53,1.32-.48,.45-.97,.89-1.46,1.32-.8,.69-1.67,1.31-2.38,2.08-.64,.68-1.25,.37-1.98,.24,.24-.37,.45-.67,.64-.98,.35-.58,.71-1.15,1-1.75,.21-.44,.28-.94,.47-1.39,.22-.5,.49-.95,1.07-1.19,.69-.29,1.01-.92,1.02-1.65,0-.45-.09-.91-.62-1.07-.54-.17-1.57,.13-2.02,.86-.31,.5-.26,1.08,.19,1.69,.07,.1,.2,.24,.17,.32-.21,.59-.42,1.19-.68,1.76-.22,.47-.52,.91-.78,1.36-.36,.63-.7,1.27-1.08,1.89-.07,.11-.3,.18-.43,.16-.51-.08-1.02-.21-1.6-.33,.22-.34,.4-.61,.57-.9,.33-.58,.67-1.15,.94-1.75,.22-.48,.36-.99,.53-1.5,.41-1.27,.83-2.53,1.2-3.81,.34-1.18,.33-2.49,1.52-3.3,.55-.38,.96-.96,1.48-1.38,.23-.19,.59-.28,.89-.29,.38-.01,.77,.19,1.14,.14,1.26-.15,2.41-.55,3.45-1.37,1.72-1.38,2.82-3.17,3.75-5.1,.18-.37,.07-.59-.37-.52-.95,.16-1.9,.32-2.83,.53-.4,.09-.79,.28-1.17,.46-.51,.25-1,.54-1.53,.83,.12-.59,.25-1.06,.32-1.54,.14-.9,.25-1.81,.39-2.72Zm-69.86,24.35c.15-.64,.5-1.12,.91-1.12,.5,0,1.03,.58,1.03,1.12,0,.42-.86,1.22-1.29,1.04-.31-.13-.44-.67-.65-1.03Zm-49.73,4.45c.24,1.33,.08,1.77-.51,1.58,.83-.29,.28-1.03,.51-1.58Zm-.78,1.26s-.08,.05-.11,.07c-.46-.75-.91-1.51-1.37-2.26,.07-.04,.14-.08,.21-.12,.42,.77,.85,1.55,1.27,2.32Zm9.47,10.97c0-.12,.11-.23,.17-.34,.11,.09,.3,.18,.3,.26,0,.47-.05,.93-.09,1.4-.02,.24-.06,.47-.09,.71-.14-.02-.31,0-.42-.07-.11-.07-.24-.32-.2-.37,.38-.48,.3-1.04,.32-1.59Zm31.75,7.96s-.02-.09-.03-.13c.1-.13,.2-.27,.36-.48,.04,0,.2,0,.39-.02v.35c-.24,.09-.48,.18-.72,.27Zm1.02,.37c-.11-.24-.2-.44-.3-.64,.14-.13,.28-.26,.44-.4,.1,.08,.21,.16,.27,.21-.14,.29-.26,.53-.41,.84Zm34.13-1.14c.43,.35-.46,.39-.3,.8l-.14,.03c-.18-.1-.36-.2-.57-.33,.3-.38,.66-.8,1.01-.51Zm-1.72-3.46c.02,.39,.47,.84-.13,1.18,.02-.08,.07-.16,.05-.23-.06-.29,.3-.78-.38-.78-.14,0-.27-.11-.41-.17,.08-.12,.16-.23,.24-.35,.22,.12,.62,.23,.62,.36Zm-1.1-1.83c.17-.1,.34-.22,.61-.4,.03,.38,.05,.61,.07,.91-.39,0-.73,0-1.07-.01-.03,0-.06-.16-.08-.25,.16-.08,.32-.16,.48-.25Zm-3.3,4.86s.04,.06,.05,.09c-.31,.32-.61,.64-.97,1.02-.06-.44-.1-.75-.14-1.06,.04-.01,.08-.02,.12-.04,.09,.11,.17,.21,.23,.29,.24-.1,.47-.2,.71-.3Zm-.77-4.31c-.19,.45-.36,.86-.53,1.26-.34-.38-.39-.96-.1-1.52,.21,.08,.42,.17,.63,.25Zm.99-2.71c-.37,.07-.75,.19-1.12,.21-.32,.01-.37-.28-.18-.46,.18-.17,.46-.33,.7-.33,.21,0,.43,.21,.65,.33-.01,.08-.03,.16-.04,.25Zm27.94-.69c-1.43-.51-2.97-.73-4.21-1.71,1.4,.57,2.81,1.14,4.21,1.71Z"/>
      <path d="M55.45,94.03s0-.04,0-.06c0,0-.01-.01-.02-.02,0,.01,0,.02,0,.03,0,.02,0,.03,.01,.05Z"/>
      <path d="M4.5,52.77c-.15,.31-.28,.56-.45,.92,.43-.05,.78-.12,1.14-.11,.27,0,.58,.03,.78,.17,.46,.32,.83,.81,1.32,1.06,.94,.48,2.22,.58,2.75-.32,.32,.07,.63,.14,.95,.2,.71,.14,1.42,.26,2.13,.41,.21,.04,.41,.14,.61,.22-.13,.2-.23,.46-.41,.6-.47,.35-.94,.71-1.47,.93-.58,.24-1.18,.55-1.86,.09-.33-.23-.78-.33-1.19-.39-1.01-.13-1.77,.38-2.44,1.07-.18,.18-.44,.32-.69,.4-.43,.13-.89,.18-1.45,.29,.29,.17,.46,.27,.64,.39-.22,.32-.42,.62-.68,1,.42-.06,.74-.11,1.08-.16,.06,.33,.1,.59,.16,.96,.32-.27,.57-.52,.86-.71,.22-.15,.5-.3,.75-.3,.53,0,1.06,.16,1.58,.14,1.04-.03,1.86-.7,2.21-1.65,.06-.16,.24-.3,.41-.39,.28-.14,.59-.27,.89-.33,1.04-.2,1.67-.91,2.25-1.71,.07-.1,.22-.21,.33-.2,.65,.03,1.34-.02,1.74,.68,.09,.16,.25,.27,.39,.4,.83,.79,1.76,1.35,2.96,1.35,1.08,0,1.86-.53,2.64-1.23,1.21-1.1,2.06-2.4,2.73-3.95-.3,0-.54-.02-.76,0-.2,.03-.4,.18-.59,.17-.92-.05-1.73,.1-2.55,.66-1.22,.84-2.37,.55-3.25-.64-.28-.37-.51-.78-.71-1.19-.49-1.05,.16-2.55,1.24-2.96,.32-.12,.62-.33,.87-.56,1.13-1.04,1.74-2.37,2-3.86,.3-1.73,.22-3.48-.04-5.21-.03-.18-.14-.36-.22-.57-.18,.11-.29,.18-.39,.25-1.52,1.16-2.55,2.69-3.38,4.37-.07,.13-.13,.28-.15,.42-.16,1.31-.26,2.63-.06,3.95,.1,.69-.19,1.92-.52,2.29-.02-.03-.05-.06-.06-.09-.9-3.44-1.15-6.95-1.19-10.49,0-.24,.07-.55,.22-.72,.98-1.08,1.99-2.12,2.99-3.18,.68-.72,1.38-1.4,2.25-1.91,.33-.2,.59-.52,.89-.79,.06,.02,.22,.06,.38,.1,.04-.15,.08-.3,.14-.52,.32,.62,.35-.08,.57-.1,.07,.08,.15,.15,.21,.24,.77,1.19,2.25,1.39,3.46,.98,.27-.09,.49-.21,.38-.55-.13-.39,.04-.54,.41-.67,1.36-.48,2.4-1.24,2.35-2.87-.35-.23-.68-.52-1.06-.67-.95-.37-1.86-.07-2.73,.33-.4,.18-.76,.35-1.21,.08-.13-.08-.4-.04-.55,.04-1.03,.56-1.64,1.37-1.4,2.56-2.6,1.71-5.11,3.42-7.02,5.9-.02-.24,0-.43,.04-.63,.47-2.45,1.58-4.64,2.76-6.8,.67-1.22,1.4-2.37,2.63-3.22,1.08-.75,2.21-1.36,3.33-1.99,1.03-.58,2.09-1.1,3.13-1.66,.4-.22,.77-.49,1.18-.69,.35-.17,.72-.3,1.09-.38,.38-.09,.85,.01,1.15-.18,.23-.15,.89,.08,.63-.66,.07-.02,.15-.04,.22-.06,.03,.15,.05,.31,.06,.36,.43-.19,.76-.34,1.08-.49,.37,1.23,1.24,2.12,2.39,2.32,1.81,.31,3.6,.34,5.31-.46,.28-.13,.58-.27,.81-.47,.42-.36,.38-.68-.1-.97-.24-.15-.52-.24-.81-.36,.19-.16,.37-.3,.52-.46,.4-.45,.32-.74-.26-.92-.27-.09-.56-.15-.9-.24,.3-.19,.58-.33,.8-.53,.15-.14,.34-.43,.29-.55-.09-.2-.35-.44-.56-.46-.64-.07-1.29-.06-1.94-.05-.9,0-1.82-.06-2.71,.06-1.52,.21-2.6,1.07-2.76,2.48-.02,.14-.25,.32-.42,.38-.28,.08-.6,.02-.87,.11-.93,.33-1.85,.69-2.77,1.05-.38,.15-.79,.26-1.12,.47-.45,.29-.99,.29-1.41,.49-1.35,.66-2.65,1.45-3.95,2.21-.41,.24-.79,.55-1.18,.83,.43-.72,1-1.31,1.41-2,.82-1.38,1.91-2.5,3.16-3.48,.15-.11,.36-.15,.54-.22,.33-.14,.68-.26,.99-.45,.24-.15,.41-.4,.63-.58,.19-.15,.42-.23,.62-.36,1.74-1.16,3.67-1.82,5.68-2.31h0s0,0,0,0h0s-.02,.01-.02,.02c.46-.22,.91-.47,1.38-.66,.89-.36,1.78-.69,2.74-.94-.14,.11-.28,.23-.42,.34,.98-.27,1.94-.6,2.93-.79,.68-.13,1.45-.21,2.09-.03,1.02,.3,1.98,.82,2.95,1.27,.97,.45,1.93,.92,2.88,1.41,.44,.22,.84,.51,1.28,.72,.64,.31,1.05,1.07,1.96,.9-.16,.13-.27,.22-.43,.35,.31,.09,.56,.16,.83,.24-.13,.25,.15,.3,.44,.33-.46,1.73-.19,2.69,.92,3.23,.33-.42,.65-.27,1,.03,.53,.45,1.15,.7,1.85,.56,.25-.05,.63-.2,.68-.37,.14-.54,.22-1.12-.24-1.6,0,0,0,0,0,0,0,0,0,0-.01-.01,0,0,0,0,0,0,0,0,0,0,0,0-.18-.2-.34-.42-.54-.6-.4-.36-.99-.55-.97-1.25,0-.08-.18-.17-.28-.24-.67-.42-1.36-.39-1.92-.12-1.6-.72-2.86-1.76-4.26-2.6-1.38-.83-2.88-1.39-4.24-2.25,1.4,.08,2.72,.37,3.83,1.3,.29,.24,.64,.48,.99,.58,1.07,.28,2.16,.6,3.25,.72,3.03,.34,6-.08,8.91-.93,.78-.23,1.56-.25,2.34-.14,.48,.07,.93,.2,.94,.87,0,.48,.15,.97,.21,1.45,.11,1.03,.19,2.06,.28,3.09,.02,.22,0,.44,0,.69-1.64,.67-1.38,2.14-.3,2.95,.69,.51,1.4,.32,1.69-.48,.25-.69,.19-1.38-.34-1.91-.54-.55-.56-1.18-.51-1.87,.03-.43,.02-.86-.03-1.29-.12-.97-.27-1.94-.41-2.92,1.16,.09,1.95,.74,2.29,1.82,.16,.49,.37,.96,.59,1.42,.16,.33,.38,.62,.55,.94,.18,.34,.38,.67,.48,1.03,.07,.28,.35,.44,.32,.8-.01,.17,.1,.4-.04,.58-.74,.9,.02,2.08,.79,2.44,.28,.13,.74,.16,.97,0,.6-.39,.7-1.04,.55-1.72-.18-.8-.51-1.11-1.2-1.27-.22-.05-.48-.25-.58-.45-.34-.68-.64-1.36-.89-2.09-.26-.78-.82-1.46-1.23-2.19-.13-.24-.23-.49-.38-.81,.82,.26,1.51,.48,2.22,.71-.01,.68,.25,1.31,.88,1.78,.68,.51,1.33,.39,1.68-.38,.29-.63,.22-1.27-.16-1.85-.54-.81-1.41-.83-2.04-.09-.06,.07-.09,.16-.14,.25-.01-.07-.02-.14-.03-.21-1.98-.66-3.96-1.32-5.99-1.99,.33-.06,.72-.28,.99-.17,1.22,.5,2.48,.64,3.77,.56,1.03-.06,2.08-.12,3.08-.35,1.22-.28,2.19-.03,3.08,.85,.61,.6,1.32,1.09,1.96,1.65,.76,.66,1.5,1.35,2.23,2.04,.39,.38,.53,1.03,1.21,1.13-.13,.03-.27,.06-.43,.1,.13,.17,.25,.31,.36,.45-.06,0-.11,0-.17-.01-.11,.53-.32,1.06-.29,1.58,.05,.96,.52,1.75,1.29,2.36,.13,.1,.2,.34,.2,.51-.01,.48-.08,.96-.13,1.5,.36-.18,.61-.3,.91-.45,.15,.33,.28,.63,.45,1,.17-.43,.31-.76,.45-1.11,.21,.09,.4,.17,.71,.3-.14-.29-.24-.46-.31-.64-.19-.51-.59-.95-.44-1.56,.34-1.35-.11-2.4-1.25-3.16-.9-.6-1.49-1.49-2.17-2.3-.25-.3-.54-.57-.79-.88-.26-.31-.47-.68-.76-.96-.36-.34-.79-.6-1.17-.91-.21-.17-.38-.41-.61-.56-.64-.43-1.29-.82-1.94-1.23,.24-.09,.45-.07,.65-.04,.91,.13,1.83,.34,2.74,.38,1.26,.06,2.53,.02,3.79-.04,.71-.03,1.29,.12,1.78,.67,.32,.35,.73,.61,1.11,.89,.71,.51,1.43,1.01,2.14,1.52,.31,.22,.45,.46,.26,.89-.35,.82-.25,1.67,.18,2.42,.34,.61,.77,1.18,1.25,1.69,.91,.98,2.01,1.71,3.32,2.06,.23,.06,.49-.03,.74-.04-.03-.24-.01-.5-.1-.72-.12-.31-.32-.59-.52-.95,.45,.11,.81,.23,1.17,.28,.16,.02,.42-.01,.49-.12,.08-.11,.03-.36-.05-.51-.2-.36-.46-.7-.74-1.12,.43,.13,.78,.27,1.13,.32,.25,.04,.52-.05,.78-.08-.07-.24-.07-.54-.22-.71-.9-1.03-1.76-2.12-2.78-3.03-1.23-1.1-2.65-1.51-4.1-.41-1.25-1-2.47-1.97-3.69-2.94,.02-.05,.05-.09,.07-.14,4.87,.08,9.11,1.71,12.51,5.23-.02,.03-.11,.11-.09,.14,.07,.13,.15,.26,.26,.36,.55,.55,1.15,1.06,1.66,1.65,.73,.84,1.74,1.47,2.04,2.64,.05,.18,.09,.37,.2,.51,.76,.95,.79,2.18,1.26,3.24,.04,.1,.02,.29-.05,.36-.34,.33-.71,.63-1.05,.96-.35,.35-.69,.7-.99,1.09-.2,.27-.29,.62-.49,.9-.47,.65-.97,1.29-1.47,1.92-.08,.11-.25,.21-.38,.2-.77-.05-1.37,.3-1.97,.73-.71,.5-1.05,1.22-1.42,1.97-.52,1.03-.86,2.12-1.02,3.22-.16,1.07-.03,2.19,0,3.29,.04,1.29,.04,2.55-.88,3.6-.15,.18-.24,.41-.4,.68,.15-.03,.19-.03,.22-.05,.71-.41,1.38-.94,2.14-1.21,.68-.24,1.16-.71,1.74-1.05,.39-.23,.63-.71,1.03-.89,.88-.4,.95-1.49,1.76-1.9,.02-.01,.03-.07,.04-.1,.14-.5,.3-1.01,.42-1.51,.26-1.1,.57-2.19,.74-3.3,.14-.93,.22-1.91-.3-2.77-.22-.37-.33-.61-.23-1.11,.21-.99,.6-1.8,1.34-2.46,.32-.28,.85-.56,.88-.87,.04-.5,.33-.58,.66-.86,.18,.53,.35,.98,.48,1.45,.14,.51,.26,1.01,.27,1.56,0,.27,.24,.74,.45,1.1,.05,.09,.04,.23,.06,.34,.05,.2,.11,.39,.17,.59,.05-.02,.1-.03,.15-.05v-1.33c.92,.34,1.33,1.1,1.84,1.75,.05,.07,.03,.22,.02,.32-.1,.88,.25,1.56,1,1.94,.58,.3,.91,.72,1.11,1.3,.02,.06,.09,.1,.17,.2,.07-.18,.11-.31,.16-.45,.26,.07,.5,.14,.82,.22-.12-.27-.22-.47-.32-.69,.22-.12,.39-.21,.42-.23-.35-.67-.71-1.29-1.02-1.93-.38-.8-.78-1.54-1.87-1.41-.08,0-.18-.1-.26-.17-.54-.45-1.05-.96-1.64-1.35-.64-.43-1.01-.96-.98-1.73,0-.11,.03-.23,0-.33-.25-.78-.51-1.55-.77-2.32-.03-.09-.04-.19-.09-.4,.67,.23,1.23,.41,1.79,.61,.33,.12,.63,.34,.96,.4,.39,.07,.55,.29,.69,.62,.27,.66,.76,1.13,1.45,1.25,.62,.11,1.06,.4,1.41,.88,.05,.06,.14,.09,.23,.14,.03-.17,.06-.3,.09-.46h.8c-.19-.21-.34-.36-.49-.53,.15-.18,.29-.34,.45-.53-.22-.08-.39-.19-.56-.21-.45-.04-.67-.26-.81-.69-.22-.67-.72-1.14-1.37-1.36-.3-.1-.82-.11-.97,.07-.34,.4-.6,.24-.92,.1-.15-.07-.29-.17-.45-.21-.77-.2-1.56-.37-2.32-.59-.16-.05-.34-.25-.38-.42-.12-.54-.4-1-.49-1.57-.17-1.03-.6-2.08-1.13-2.99-2.21-3.74-5.44-6.32-9.43-7.99-.94-.39-1.9-.73-2.88-1.02-.51-.15-1.09-.05-1.59-.21-1.89-.62-3.83-.98-5.82-1.11-.79-.05-1.58-.11-2.39-.16,.65-.48,1.3-.91,1.88-1.41,.61-.52,1.25-.79,2.06-.68,.16,.02,.33-.02,.5-.06,.65-.13,1.3-.28,1.98-.42,.13-.44,.46-.47,.92-.53,.6-.08,1.12-1.12,1.05-1.65,.19-.27,.36-.43,.42-.62,.18-.54,.36-1.09,.46-1.66,.1-.59,.11-1.19,.13-1.79,0-.12-.11-.33-.2-.34-.5-.07-1.01-.17-1.5-.12-1.34,.13-2.55,.61-3.58,1.49-.18,.16-.37,.31-.51,.5-.89,1.23-1.57,2.55-1.71,4.09-.03,.31,0,.63,0,.94,.06,.04,.13,.08,.19,.12-.58,.36-1.14,.75-1.73,1.06-1.02,.54-2.03,1.08-3.24,1.06-1.47-.01-2.93,.04-4.4,.06-.88,.01-1.76,.03-2.64,0-.26,0-.52-.18-.87-.32,.22-.17,.31-.27,.42-.33,1.3-.65,2.59-1.3,3.9-1.92,1.44-.69,2.9-1.34,4.35-2.01,.73-.34,1.46-.69,2.23-1.05-1.32-.41-2.61-.4-3.9-.15-2.16,.42-4.38,.63-6.27,1.94-.86,.59-1.73,1.15-2.61,1.72-.17,.11-.37,.18-.61,.29,.16-.8,2.31-3.54,3.49-4.53,.28,.12,.55,.25,.83,.35,.99,.35,1.86-.03,2.77-.41,1.23-.51,2.3-1.22,3.12-2.26,.21-.26,.31-.67,.29-1,0-.13-.51-.23-.79-.32-.11-.03-.24,0-.38,0,.04-.18,.08-.32,.11-.47,.1-.59-.02-.7-.62-.64-.24,.03-.48,0-.79,0,.25-.4,.43-.7,.61-.99-.36-.3-1.1-.36-1.36-.19-.39,.25-.79,.46-1.19,.69-.78,.46-1.63,.83-2.32,1.39-1.06,.85-1.21,1.75-.76,3.04,.07,.21,.05,.54-.07,.7-.43,.56-.96,1.06-1.4,1.62-.55,.69-1.14,1.37-1.57,2.14-.5,.89-.97,1.74-1.92,2.27-.93,.52-1.77,1.22-2.66,1.83-.12,.08-.26,.18-.39,.18-1.7-.04-3.46,.15-5.1-.21-3.3-.72-6.54-1.74-9.95-2.68,.35-.31,.58-.59,.88-.77,1.07-.63,2.13-1.26,3.24-1.8,.4-.2,.93-.28,1.37-.21,1.23,.21,2.44,.65,3.68,.76,2.5,.23,4.8-.81,6.11-3.16,.29-.53,.18-.85-.4-.91-1.56-.18-3.13-.44-4.7-.43-1.81,0-3.55,.46-4.9,1.79-.3,.3-.47,.73-.73,1.15,.03,0-.11-.03-.21,.03-.92,.55-1.83,1.1-2.74,1.67-.38,.24-.76,.52-1.09,.83-.72,.66-1.41,1.28-2.49,1.4-1.4,.15-2.69,.74-3.83,1.55-.67,.47-1.33,.77-2.15,.74-1.15-.04-2.29-.05-3.41,.34-.48,.17-1.02,.21-1.54,.23-.78,.02-1.02-.34-.64-1,.35-.61,.75-1.21,1.22-1.72,.96-1.03,2.02-1.97,2.99-3,.4-.42,.82-.72,1.38-.86,.32-.08,.66-.17,.92-.35,.38-.26,.69-.2,1.08-.05,.87,.34,1.76,.63,2.64,.94,.02-.06,.05-.12,.07-.18-.45-.18-.89-.37-1.34-.55-.44-.18-.89-.36-1.45-.59,1.06-.41,1.88-1.02,2.89-1.39,.09-.53,.23-.64,.92-.6,.28,.02,.55,.05,.83,.06,.59,0,1.18,0,1.77,0,0-.04,0-.09,.01-.13l-2.47-.35s-.06-.08-.09-.12c.77-.23,1.36-.6,1.65-1.38,.25-.68,1.2-1.04,1-2.08-.58,.65-1.1,1.23-1.62,1.82-.07-.61-.16-1.2,.1-1.79-.22,.52-.67,.98-.37,1.6,.03,.06-.06,.23-.13,.27-.38,.2-.44,.31-.45,.75,0,.09-.08,.2-.16,.26-.73,.52-1.47,1.04-2.21,1.55-.11,.07-.25,.1-.48,.2,.56-1.36,1.29-2.54,1.34-4.01-.24,.18-.4,.3-.52,.39,.02,.16,.08,.33,.04,.45-.42,1.12-.84,2.24-1.29,3.35-.06,.15-.23,.3-.39,.37-.88,.4-1.77,.77-2.66,1.15-.07-.78-.32-.97-1.03-.6-.83,.44-1.63,.95-2.4,1.48-1.02,.71-2.01,1.46-2.99,2.22-.32,.24-.63,.53-.85,.86-1.39,2.11-2.73,4.27-4.48,6.09-1.5,1.55-2.99,3.09-4.26,4.85-.06,.09-.15,.16-.26,.28,.01-.27,0-.48,.04-.67,.31-1.23,.56-2.47,.48-3.75-.02-.34,.11-.61,.53-.65,.18-.01,.38-.06,.51-.16,1.09-.81,1.59-1.91,1.54-3.26-.04-1.05-.2-2.08-.4-3.13-.14-.75-.39-1.42-.69-2.09-.23-.51-.48-1.03-.78-1.51-.64-1.02-1.56-1.8-2.42-2.62-.55-.52-1.15-.96-1.91-1.15-.22,.47,.03,.99-.33,1.45-.21,.28-.14,.79-.16,1.19-.03,.47,.14,1.03-.07,1.38-.39,.65-.27,1.26-.2,1.92,0,.02-.17,.07-.16,.06-.04,.33-.12,.6-.1,.86,.04,.52,.14,1.03,.22,1.55,.17,1.09,.25,2.2,.54,3.26,.39,1.37,1.31,2.27,2.82,2.37,.29,.02,.44,.12,.42,.44-.05,.81-.06,1.62-.12,2.43-.05,.64-.13,1.28-.25,1.91-.09,.52-.15,1.09-.41,1.52-.93,1.52-1.93,2.99-2.91,4.47-.46,.7-.95,1.39-1.44,2.1-.33-.72-.29-.92,.22-1.3,.12-.09,.24-.19,.32-.31,.88-1.42,1.21-2.94,.66-4.55-.27-.78-.55-1.56-.87-2.33-.29-.69-.62-1.32-1.05-1.91-.32-.43-.68-.84-1.03-1.25-.5-.58-.99-1.16-1.5-1.74-.76-.86-1.47-1.76-1.72-2.9-.14-.61-.17-1.25-.26-1.87-.36,.54-.6,1.1-.81,1.67-.19,.51-.25,1.1-.54,1.53-.47,.67-.45,1.45-.7,2.16-.15,.44-.02,.98-.2,1.4-.27,.64-.35,1.27-.17,1.9,.2,.66-.34,1.44,.34,2.02,.04,.03-.02,.17-.01,.26,0,.12-.01,.25,.04,.35,.36,.73,.76,1.43,1.08,2.17,.61,1.44,1.46,2.71,2.55,3.82,.77,.79,1.69,1.03,2.83,.45,0,.84,.34,1.54-.05,2.3-.27,.52-.43,1.11-.63,1.66-.72,1.97-1.01,4.03-1.18,6.1-.17,2.09-.13,4.19-.18,6.28,0,.18-.02,.36-.04,.69-.58-.78-1.08-1.41-1.52-2.08-.48-.73-.95-1.47-1.34-2.25-.26-.52-.46-.61-.87-.21,.31,.52,.64,1.03,.93,1.55,.3,.53,.52,1.12,.87,1.62,.37,.53,.86,.98,1.28,1.48,.28,.34,.6,.68,.77,1.07,.62,1.43,1.16,2.89,1.78,4.31,.32,.72,.76,1.39,1.19,2.17-.33,0-.6,0-.86,0-.78,.02-1.38-.31-1.84-.94-.7-.95-1.43-1.88-2.07-2.72,.19-.46,.42-.83,.48-1.23,.22-1.31-.31-2.34-1.58-2.92-.67-.31-1.03-.79-1.3-1.41-.07-.16-.21-.29-.36-.5-.06,.29-.1,.47-.14,.68-.38-.1-.73-.19-1.16-.3,.19,.34,.48,.63,.44,.87-.04,.22-.43,.38-.72,.6,.29,.18,.61,.34,.9,.55,.24,.17,.54,.22,.55,.66,.05,1.4,.66,2.48,2.04,3.01,.1,.04,.19,.15,.26,.24,.41,.57,.79,1.16,1.23,1.71,.39,.49,.84,.93,1.37,1.52-.3-.07-.47-.09-.62-.14-.32-.11-.67-.37-.96-.32-.62,.12-.87-.17-1.1-.66-.54-1.17-1.48-1.78-2.75-1.6-.89,.13-1.67,.11-2.39-.45-.07-.05-.21-.02-.35-.03,.09,.22,.16,.4,.23,.58-.37,.15-.7,.28-1.12,.44,.39,.17,.68,.3,1.01,.45ZM26.68,29.04c.33-.18,.67-.32,.97-.46,.42,.12,.76,.21,1.08,.33,.07,.03,.12,.21,.12,.31,0,.04-.19,.13-.27,.11-.58-.17-1.15-.25-1.7,.09-.05,.03-.23-.04-.27-.1-.03-.07,0-.25,.06-.28Zm30.02-7.75c.18,.05,.34,.14,.51,.21,.03,.23,.06,.46,.08,.69,.01,.19,0,.38,0,.57-.05,0-.11,.02-.16,.02-.31-.49-.61-.98-.99-1.59,.21,.03,.39,.04,.55,.09Zm24.81-6.15s0,.04,0,.05h-2.86s0-.04,0-.05h2.86Zm-10.89,.13c.07,0,.14,.02,.21,.13h-1.53s0-.09,0-.13c.44,0,.88,0,1.32,0Zm-18.11,1.57c-1.03-.28-2.06-.54-3.08-.86-.21-.07-.37-.32-.54-.52,.28,.16,.54,.34,.84,.44,.93,.3,1.87,.55,2.78,.94Zm-8.83-2.88c1.71-.04,3.37,.18,4.85,1.12,.11,.07,.18,.19,.27,.3-1.56-1.08-3.39-1.1-5.23-1.27,.07-.1,.09-.15,.11-.15Z"/>
      <path d="M104.37,63c.53,.45,1.11,.89,1.5,1.45,.42,.61,.72,1.05,1.62,.93,1.14-.17,2.32-.08,3.49-.12,.17,0,.38-.07,.51-.17,.43-.33,.83-.68,1.23-1.04,.1-.09,.2-.24,.22-.37,.22-1.34,.35-2.68,.11-4.04-.42-2.47-1.75-3.85-4.08-4.24-1.1-.18-2.27-.16-3.37-.01-1.28,.17-2.55,.47-3.62,1.32-.66,.52-1.35,1.03-2.1,1.39-1.51,.73-2.38,2-3.12,3.4-.24,.46-.36,1.01-.46,1.53-.13,.74-.26,1.5-.27,2.25,0,.9,.06,1.81,.23,2.68,.19,.97,.43,1.96,.83,2.86,.43,.98,1.03,1.91,1.63,2.8,.54,.79,1.12,1.57,1.81,2.21,.72,.67,1.62,1.17,2.41,1.77,.33,.25,.61,.57,.88,.89,.34,.4,.68,.81,.94,1.27,.39,.7,.79,1.42,.53,2.26-.07,.05-.13,.1-.2,.15-.32-.28-.78-.5-.93-.85-.39-.89-.64-1.84-.96-2.76-.06-.17-.19-.46-.28-.46-1.16,.06-2.42-.73-3.46,.39-.06,.06-.2,.06-.3,.08-.43,.08-1.07,.76-.97,1.09,.38,1.16,.84,2.3,1.17,3.47,.2,.72,1.11,1.02,1.04,1.88,0,.03,.08,.07,.12,.11,.35,.34,.68,.69,1.04,1.02,.57,.52,1.14,1.06,1.99,1.09,.77,.03,1.53,.37,2.3-.03,.06-.03,.14,0,.3,0-.19,.12-.31,.2-.43,.27,.02,.04,.04,.08,.06,.12,.25-.08,.5-.17,.76-.25,.39-.13,.77-.27,1.16-.39,.43-.12,.87-.23,1.31-.32,.74-.15,.9-.97,1.46-1.28,.59-.33,.75-.85,.91-1.4,.09-.31,0-.7,.15-.97,.46-.87,.55-1.81,.57-2.76,.05-2.45-.55-4.72-2.42-6.41-.94-.85-2.13-1.41-3.18-2.12-.83-.56-1.71-1.07-2.42-1.75-1.63-1.56-1.57-4.8-.33-6.82,.18-.29,.43-.27,.61-.11Zm5.65-2.74c.56,0,1.02,.46,1.01,1.02,0,.51-.44,.94-.96,.96-.47,.01-1.12-.71-1.13-1.25,0-.42,.44-.72,1.07-.72Zm-2.43-3.41c.78,0,1.52,.81,1.51,1.64,0,.64-.55,1.03-1.46,1.02-.8,0-1.39-.59-1.38-1.36,0-.72,.6-1.29,1.33-1.29Zm-5.14,25.02c-.41,.01-.77-.34-.76-.78,0-.48,.3-.86,.68-.86,.41,0,.91,.44,.92,.82,0,.38-.43,.81-.84,.82Zm2.2,2.35c-.63-.03-.92-.23-.92-.67,0-.37,.21-.62,.61-.65,.38-.02,.88,.47,.77,.83-.07,.23-.36,.39-.46,.49Zm6.13-3.26c0,.51-.34,.87-.85,.89-.53,.02-1.03-.39-1.06-.85-.02-.49,.55-1.13,1.02-1.14,.44-.01,.87,.53,.88,1.1Zm-1.77-5.18c.63,.03,1.44,.8,1.42,1.36-.02,.54-.67,1.06-1.31,1.04-.63-.02-1.08-.53-1.06-1.19,.03-.75,.41-1.24,.95-1.21Zm-1.08,7.25c.46,.02,.5,.37,.5,.72,0,.42-.18,.74-.64,.75-.41,0-.65-.24-.65-.59,.01-.48,.41-.89,.78-.87Zm-1.92-10.19c.53,.01,.86,.38,.86,.95,0,.53-.27,.79-.78,.79-.58,0-1.08-.42-1.07-.91,0-.47,.47-.85,1-.84Zm-4.88-11.44c.63,0,1.38,.73,1.39,1.36,.01,.61-.64,1.15-1.39,1.15-.64,0-1.12-.48-1.12-1.13,0-.69,.56-1.38,1.12-1.38Zm-.26,6.77c-.67,0-1.15-.44-1.17-1.08-.02-.69,.57-1.44,1.14-1.44,.59,0,1.3,.79,1.31,1.45,0,.56-.59,1.06-1.28,1.06Zm3.12,3.27c0,.51-.58,1.01-1.19,1.01-.56,0-1.01-.48-1.01-1.09,0-.69,.34-1.19,.81-1.2,.6-.01,1.38,.71,1.39,1.28Zm-1.46-12.23c0-.46,.66-1.09,1.16-1.1,.48-.01,.84,.52,.84,1.24,0,.66-.4,1.06-1.07,1.07-.56,0-.93-.46-.93-1.21Z"/>
      <path d="M98.71,83.98c-.24-.21-.36-.35-.5-.44-.68-.45-1.43-.82-2.02-1.36-.83-.75-1.58-1.59-2.28-2.46-.78-.97-1.52-1.99-2.15-3.06-.7-1.19-1.32-2.44-1.88-3.71-.71-1.62-.99-3.24-.22-5,.56-1.29,1.28-2.49,2.16-3.49,1.2-1.37,2.12-2.98,3.48-4.22,.32-.29,.6-.63,.9-.96,0,0-.02-.05-.05-.06-.07-.03-.14-.05-.21-.07-.71-.19-1.31,.15-1.91,.42-.37,.16-.55,.13-.7-.29-.22-.6-.53-1.16-.84-1.82-1.75,4.36-4.81,7.57-7.93,10.79-.14-3.41,.19-6.77,.4-10.19-1.41,.34-1.62,1.73-2.4,2.4-.71-.6-1.35-1.14-2-1.69-.09,.23-.07,.38-.05,.52,.2,1.25,.46,2.5,.59,3.76,.14,1.38,.16,2.77,.22,4.16,.07,1.72,.11,3.44-.85,5,1.04,.73,1.37,1.83,1.51,2.99,.08,.69,0,1.4,.01,2.1,0,.81,.08,1.63,.01,2.43-.06,.78-.22,1.57-.41,2.33-.13,.51-.42,.98-.61,1.48-.05,.14-.02,.32-.01,.47,0,.26,.05,.53,.02,.79-.03,.24-.14,.48-.27,.86,.8-.21,1.48-.39,2.15-.56,.78-.19,1.5-.37,2.15,.43,.59,.74,1.91,.99,2.55,.74-.41-.78-.83-1.57-1.25-2.38,0,0-.08,.06-.28,.2-.08-.52-.2-.96-.2-1.39-.02-1.17,.13-2.35-.35-3.48-.22-.53-.14-1.02,.22-1.54,.3-.43,.56-.63,.93-.24,.36,.38,.78,.78,.95,1.25,.3,.81,.87,1.37,1.44,1.95,.28,.29,.62,.53,.9,.82,.32,.34,.58,.74,.92,1.05,1.81,1.65,3.91,2.8,6.23,3.56,.17,.06,.35,.07,.53,.11-.68-.89-1.31-1.73-1.95-2.56l.1-.14c.89,.41,1.8,.61,2.92,.46Z"/>
      <path d="M45.57,85.97c.82-.16,1.64-.34,2.46-.46,.39-.06,.49-.22,.48-.58-.03-.73-.04-1.47-.02-2.2,.02-.42,.18-.84,.17-1.26,0-.94-.1-1.88-.1-2.81-.02-2.5-.03-5-.02-7.5,.01-2.28,.07-4.56,.08-6.84,0-.37-.1-.73-.14-1.1-.03-.23-.04-.47-.04-.7,.02-.65,.05-1.31,.09-1.96,.03-.4-.12-.57-.54-.56-.7,.02-1.41-.01-2.12-.02-.48,0-.95,0-1.58,0,0,1.45,.04,2.83,0,4.21-.07,2.1-.21,4.2-.31,6.3-.01,.3-.13,.44-.44,.43-.59-.01-1.19,0-1.78,0-.31,0-.48-.12-.51-.45-.03-.37-.08-.73-.12-1.1-.22-1.78-.44-3.56-.65-5.35-.13-1.1-.23-2.2-.35-3.34-.54,0-.99-.03-1.43,0-.91,.07-1.07,.25-1.05,1.11,.06,3.32,.15,6.64,.19,9.95,.02,1.67-.04,3.35-.02,5.03,.01,.98,.14,1.96,.15,2.94,.01,.73-.08,1.47-.12,2.2-.02,.42-.06,.84-.03,1.25,.02,.28,.18,.54,.21,.82,.05,.46,.03,.93,.06,1.39,0,.14,.05,.35,.14,.39,.37,.15,.75,.32,1.14,.35,.85,.06,1.7,.04,2.56,.05,.21,0,.42-.04,.61-.06-.04-.66-.05-1.25-.11-1.83-.06-.59-.16-1.17-.25-1.76-.02,0-.04,0-.05,0-.02,.21-.04,.42-.06,.64-.13-.1-.16-.19-.16-.28,.03-.38,.12-.76,.11-1.14-.02-.65-.11-1.29-.18-1.93-.02-.17-.07-.34-.12-.51-.09-.32-.35-.68-.27-.94,.28-.88,.03-1.71-.06-2.56-.02-.15,.14-.44,.28-.48,.77-.23,1.57-.41,2.4-.62-.03,.22-.07,.36-.06,.5,.12,1.48,.26,2.95,.37,4.43,.08,.98,.18,1.96,.16,2.94-.02,.97,.53,1.85,.37,2.84-.08,.55,.11,.64,.66,.53Z"/>
      <path d="M62.68,49.43c.32,1.42,.81,2.8,1.26,4.19,.21,.65,.77,.97,1.41,1.15,1.35,.37,2.65,.12,3.92-.34,.66-.23,1.33-.44,1.93-.78,.31-.17,.59-.58,.68-.93,.28-1.05,.46-2.13,.67-3.2,.25-1.3,.49-2.61,.7-3.92,.15-.91,.24-1.83,.39-2.74,.39-2.35,.8-4.69,1.2-7.04,.03-.2-.05-.45,.05-.59,.44-.7,.35-1.46,.34-2.22,0-.13-.26-.38-.38-.37-1.23,.14-2.55-.02-3.5,1.05-.08,.09-.24,.1-.34,.18-.32,.26-.8,.48-.91,.82-.41,1.27-.7,2.59-1.04,3.89-.39,1.5-.78,3-1.16,4.51h-.15c-.07-.23-.15-.45-.22-.67-.99-3.09-1.98-6.18-2.97-9.28-.1-.32-.25-.45-.59-.44-.7,.03-1.41,.01-2.12,.06-.86,.05-.86,.07-1.01,.94-.33,1.86-.69,3.7-.26,5.61,.75,3.37,1.36,6.77,2.11,10.14Zm11.07-15.23c.41,0,.68,.16,.68,.47,0,.65-.35,1.05-.79,1.05-.41,0-.73-.33-.73-.74,0-.45,.35-.77,.84-.77Zm-.75,3.18c.52,.01,.89,.44,.88,1.01,0,.5-.33,.78-.88,.77-.53-.02-.93-.42-.92-.92,.01-.46,.45-.87,.92-.86Zm-.69,3.18c.6,.01,1.05,.47,1.05,1.06,0,.55-.47,1.02-1.03,1.02-.55,0-1.06-.57-1.07-1.2,0-.53,.43-.89,1.05-.88Zm-.69,3.73c.41,0,.78,.43,.8,1,0,.38-.32,.51-.7,.54-.47,.04-.84-.3-.86-.75-.01-.43,.33-.79,.76-.79Zm-.93,2.94c.44-.02,.84,.4,.85,.91,0,.51-.36,.58-.67,.61-.55,0-.89-.28-.91-.71-.01-.44,.31-.8,.73-.82Zm-1.75,2.58c.49-.01,1.1,.44,1.11,.82,0,.42-.55,1.09-.93,1.11-.48,.02-.88-.4-.89-.92-.01-.61,.26-.99,.71-1.01Zm-.75-2.06c0,.48-.31,.84-.75,.85-.42,0-.75-.33-.77-.77-.02-.51,.37-1.07,.76-1.08,.37-.01,.75,.49,.76,1Zm-1.02-3.66c-.01,.59-.46,1.02-1.08,1.03-.67,0-1-.29-1-.91,0-.68,.45-1.2,1.05-1.2,.58,0,1.04,.48,1.03,1.08Zm-1.04-3.21c-.02,.37-.48,.69-.96,.66-.49-.03-.78-.39-.75-.91,.03-.5,.33-.88,.69-.86,.43,.02,1.05,.7,1.02,1.11Zm-1.28-3.41c0,.54-.42,1.05-.87,1.05-.47,0-.9-.52-.9-1.08,0-.55,.43-1.02,.9-1.01,.47,0,.87,.49,.87,1.04Zm-1.52-3.28c.46,0,.94,.39,.95,.76,0,.38-.42,.75-.88,.74-.43,0-.77-.35-.74-.79,.03-.41,.19-.71,.67-.71Z"/>
      <path d="M56.43,81.75c.23-.97,.4-1.96,.57-2.94,.06-.34,.23-.53,.59-.52,.81,.02,1.62,.01,2.42,.08,.16,.01,.37,.29,.44,.48,.22,.67,.38,1.36,.57,2.03,.71,2.44,1.44,4.87,2.12,7.32,.15,.53,.44,.74,.95,.74,.52,0,1.04,0,1.56,0,.58,0,1.15-.01,1.73,0,.39,0,.53-.16,.52-.54-.02-.48,0-.97,0-1.45,0-1.4,0-1.42-1.37-1.55-.54-.05-.83-.25-.9-.82-.15-1.12-.33-2.23-.54-3.34-.43-2.22-.88-4.43-1.36-6.64-.35-1.58-.79-3.13-1.15-4.7-.27-1.19-.48-2.39-.74-3.58-.06-.27-.19-.52-.29-.78-.08-.21-.17-.41-.21-.63-.25-1.37-.49-2.75-.73-4.12-.04-.22-.01-.46-.1-.65-.06-.15-.24-.34-.37-.34-1.11-.05-2.21-.07-3.32-.08-.12,0-.3,.15-.34,.26-.25,.89-.49,1.78-.71,2.67-.25,1.04-.48,2.09-.71,3.13-.38,1.67-.78,3.34-1.14,5.02-.19,.9-.3,1.82-.46,2.73-.11,.62-.21,1.24-.36,1.85-.27,1.17-.59,2.32-.83,3.49-.19,.9-.29,1.83-.45,2.74-.19,1.11-.38,2.22-.6,3.33-.04,.21-.14,.5-.3,.59-.61,.33-1.25,.61-1.89,.88-.36,.15-.91,.11-1.07,.35-.19,.28-.06,.79-.06,1.19,0,1.24-.26,1.2,1.19,1.16,.59-.02,1.18-.17,1.76-.16,.97,.02,1.94,.17,2.92,.19,.9,.02,1.13-.32,1.23-1.21,.09-.78,.24-1.58,.53-2.3,.29-.72,.51-1.4,.32-2.18-.03-.14,.05-.31,.11-.46,.16-.42,.39-.83,.49-1.26Zm10.24,4.77c.33,0,.71,.38,.71,.72,0,.36-.31,.65-.75,.65-.32-.03-.61-.19-.63-.62-.02-.36,.34-.75,.67-.75Zm-16.33,1.74c-.39-.04-.65-.27-.68-.7-.03-.33,.38-.72,.71-.72,.35,0,.68,.37,.66,.75-.01,.4-.27,.67-.69,.67Zm8.57-10.54c-.56-.02-.96-.44-.93-.96,.04-.54,.5-.92,1.07-.89,.51,.03,.82,.39,.79,.93-.03,.61-.36,.94-.94,.91Zm1.78-2.54c-1.17,.02-2.34,.02-3.47,.02,.47-2.06,.92-4.03,1.37-6l.35-.04c.23,.6,.47,1.19,.7,1.79,.22,.57,.42,1.15,.62,1.73,.25,.72,.5,1.44,.71,2.17,.02,.08-.19,.34-.29,.34Zm4.59,11.75c-.01,.47-.27,.73-.72,.72-.5,0-.8-.28-.78-.73,.02-.46,.34-.79,.76-.79,.44,0,.76,.34,.75,.79Zm-.56-3.06c-.02,.51-.35,.81-.87,.78-.52-.02-.85-.32-.83-.76,.01-.5,.4-.88,.88-.88,.47,0,.84,.4,.82,.86Zm-.77-3.67c.34,.44,.26,.77-.33,1.5-.61-.05-1.23-.13-1.28-.91-.03-.4,.16-.76,.58-.91,.43-.15,.77,0,1.03,.33Zm-.6-3.1c-.03,.52-.32,.78-.83,.75-.52-.02-.86-.36-.83-.84,.03-.48,.4-.82,.88-.81,.5,.02,.81,.38,.77,.89Zm-.56-2.58c0,.48-.4,.87-.96,.86-.34-.03-.6-.22-.59-.66,.01-.55,.33-.96,.73-.96,.4,0,.81,.38,.82,.76Zm-.65-3.86c0,.51-.39,.95-.88,.96-.53,.01-1.03-.44-1.04-.94-.01-.48,.45-.93,.97-.94,.55-.02,.94,.37,.95,.93Zm-1.72-4.15c.55,0,.86,.35,.87,.94,0,.58-.32,.91-.87,.92-.65,0-.97-.26-.99-.84-.02-.6,.39-1.02,1-1.02Zm-2.11-3.79c.55,.01,1.1,.57,1.11,1.11,0,.65-.58,1.19-1.28,1.19-.64,0-.96-.3-.96-.88,0-.74,.55-1.43,1.12-1.42Zm-1.86,3.97c.66,.04,1.47,.54,1.46,.9,0,.47-.72,1.23-1.15,1.22-.56-.01-1.07-.64-1.04-1.29,.03-.58,.27-.86,.72-.83Zm-.58,3.61c.5,0,.98,.42,.99,.86,.01,.42-.6,.9-1.14,.89-.62-.01-.81-.22-.8-.9,0-.52,.38-.86,.95-.86Zm-2.54,16.92c-.43,0-.8-.36-.8-.76,0-.46,.37-.83,.8-.82,.42,.01,.72,.35,.72,.81,0,.37-.37,.76-.73,.76Zm.5-3.04c-.35,.19-1.02-.48-1.04-.92-.03-.5,.32-.87,.85-.88,.45-.01,.87,.37,.78,.86-.07,.35-.3,.79-.59,.95Zm1.02-3.5c-.44,.18-.95,.12-1.19-.29-.15-.26-.13-.71-.02-1.02,.16-.46,.63-.53,1.07-.47,.2,.03,.38,.13,.59,.2,.02,.2,.03,.38,.05,.56,.05,.45-.08,.83-.51,1Zm.19-2.59c-.44,.01-.71-.17-.72-.63-.02-.54,.33-1,.75-.99,.38,0,.76,.4,.76,.8,0,.46-.33,.81-.78,.83Zm.68-2.58c-.55,.02-.97-.37-.99-.91-.02-.59,.32-.94,.91-.95,.51,0,.92,.35,.94,.82,.02,.53-.38,1.02-.87,1.04Z"/>
      <path d="M19.35,60.16c-.14,1.01,.12,1.9,.99,2.53-1.09,1.4-1.39,2.16-1.2,3.11,.19-.07,.38-.13,.57-.19,1.19-.39,2.4-.65,3.65-.52,1,.1,1.51,.59,1.68,1.54,.2,1.17,.36,2.35,.54,3.53,.17,1.12,.41,2.23,.5,3.36,.1,1.19,.05,2.38,.07,3.58,0,.13,.03,.26,.04,.38,.05,.93,.16,1.87,.13,2.8-.03,.99-.19,1.98-.29,2.96-.13,1.28-.44,2.49-1.19,3.56,1.19,.51,2.26,.33,3.15-.57,.31-.32,.56-.41,.92-.06,.33,.32,.69,.7,1.1,.81,.49,.14,1.06,.04,1.59-.03,.04,0,0-.61,0-.94,0-.04-.01-.07-.02-.11-.31-1.71-.61-3.41-.93-5.12-.03-.18-.12-.35-.14-.53-.13-1.15-.25-2.3-.37-3.45-.07-.61-.2-1.21-.21-1.81-.01-1.1-.46-2.14-.32-3.27,.06-.45-.11-.93-.15-1.4-.08-.99-.15-1.97-.22-2.96,0-.03,.02-.07,.03-.11,.08,.03,.17,.06,.3,.11,.01-.23,.09-.45,.02-.59-.33-.61-.03-1.04,.39-1.4,.38-.32,.81-.58,1.26-.79,.17-.08,.45,.11,.68,.11,.93,.02,1.86,0,2.9,0,.31-.91-.05-1.66-1.02-2.14,1.06-1.17,1.42-1.8,1.39-2.48-5.27,.27-10.54,.91-15.84,.08Z"/>
      <path d="M96.45,11.49s0,0,0,0c0,0,.01,.01,.01,.01,0,0,0,0,0,0,.39,.58-.29,.34-.4,.47,.35,.22,.69,.43,1.03,.63,.28-.48,.44-.52,.69-.02,.34,.68,1.15,.92,1.37,1.73,.11,.42,.61,.74,.93,1.11-.87-.19-1.66-.47-2.47-.71-.78-.24-1.54-.69-2.5-.38,.29,.14,.49,.27,.71,.33,1.16,.33,2.33,.65,3.5,.97,.79,.22,1.46,.57,1.71,1.45,.07,.23,.26,.43,.36,.59-.1,.26-.3,.55-.23,.68,.11,.2,.41,.29,.69,.46,.27,.43,.54,.98,.92,1.44,.65,.77,1.47,1.42,2.05,2.24,.51,.73,1.35,1.27,1.45,2.26,.1,.98,1.26,1.15,1.52,2.09,.16,.58,.73,1.04,1.12,1.56,.48,.63,.98,1.24,1.44,1.88,.1,.14,.08,.37,.11,.55,.68,1.34,1.36,2.68,2.11,4.14-.22-.18-.32-.26-.43-.35-.04,.04-.09,.07-.13,.11,.15,.19,.32,.36,.44,.56,.14,.23,.3,.48,.35,.74,.06,.35-.02,.73,.03,1.08,.05,.43,.23,.85,.24,1.28,.01,.41-.26,.86-.15,1.23,.22,.78-.01,1.51-.09,2.25-.06,.52-.12,1.04-.25,1.54-.11,.44-.3,.86-.46,1.28-.07,.02-.14,.04-.21,.07-1.03-1.29-2.06-2.58-3.11-3.89,.18,.55,.34,1.08,.52,1.62,.58,1.69,1.18,3.36,2.17,4.87,.09,.14,.08,.42,0,.6-.45,1.1-.9,2.2-1.39,3.28-.26,.57-.42,1.01,.2,1.52,.6,.49,1.31,.76,1.96,.37,1.04-.63,1.8-1.47,2-2.73,.1-.62,.24-1.23,.37-1.85,.02-.1,.07-.22,.15-.28,.36-.31,.75-.59,1.11-.89,.89-.74,1.8-1.48,2.66-2.25,.35-.31,.65-.7,.89-1.1,.49-.81,.87-1.68,1.38-2.48,.64-1,1.34-1.97,2.04-2.93,.23-.31,.54-.56,.83-.85,.97,1.64,2.47,1.84,3.77,1.37,.15-.06,.37-.32,.34-.45-.13-.58,.17-.68,.64-.85,.95-.35,1.82-.87,2.08-1.97,.06-.25,.14-.49,.21-.7-.31-.22-.64-.47-.99-.69-.17-.1-.38-.17-.58-.18-.85-.03-1.68,.05-2.44,.46-.38,.2-.72,.35-1.13,.06-.11-.08-.34-.08-.47-.01-.68,.35-1.24,.83-1.47,1.59-.06,.21-.03,.48-.15,.64-.43,.58-.92,1.13-1.38,1.7-.18-.21-.33-.38-.49-.57,.12-.04,.23-.07,.22-.07,.28-.62-.32-1.22,.2-1.78-.07-.16-.14-.34-.22-.52-.5,4.96-2.93,8.72-6.85,11.64,0-1.29,0-2.45,0-3.62,0-.62,.04-1.25-.04-1.87-.06-.41-.03-.69,.3-.97,1.22-1.07,2.2-2.31,2.72-3.87,.11-.33,.26-.64,.37-.96,.19-.54,.42-1.08,.54-1.64,.11-.5,.12-1.03,.11-1.55-.01-.72,0-1.45-.14-2.15-.17-.92-.45-1.83-.71-2.74-.21-.73-.44-1.45-.7-2.17-.19-.54-.42-1.06-.64-1.58-.07-.16-.18-.31-.28-.46-.06-.09-.16-.16-.19-.26-.23-.73-.37-1.5-.69-2.18-.44-.94-.17-2.56,.66-3.24,.09-.07,.12-.22,.18-.33-.04-.02-.07-.04-.11-.06-.13,.09-.26,.17-.49,.32,.3-.87,.56-1.64,.83-2.41-.05-.02-.11-.04-.16-.05-.96,1.06-1.1,2.47-1.59,3.94-.2-.41-.35-.71-.51-1.04-.14,.03-.3,.07-.59,.13,.14-.25,.22-.39,.33-.58-.7-.38-.71-1.12-.82-1.82-.14,.07-.22,.12-.31,.16-.13-.17-.27-.32-.37-.49-.04-.07,.03-.19,.05-.29v.02c-.05-.24-.08-.49-.12-.76,.08-.07,.2-.18,.4-.35-.44-.09-.77-.16-1.11-.23,.08,.35,.17,.7,.25,1.05,.09,.28,.27,.56,.42,.84,.16,.28,.02,.44-.27,.43-.26,0-.51-.08-.76-.14-.82-.2-1.64-.37-2.45-.61-.5-.15-.96-.43-1.45-.63-.07-.03-.19,.05-.34,.1,.14,.15,.22,.3,.34,.35,.94,.39,1.87,.81,2.83,1.1,.66,.2,1.39,.18,2.07,.31,.19,.04,.42,.21,.52,.38,.4,.76,.77,1.53,1.12,2.32,.12,.27,.15,.58,.23,.87,.02,0,.17-.01,.2,.04,.18,.29,.36,.58,.49,.89,.44,1.08,.84,2.18,1.3,3.26,.37,.86,.69,1.71,.83,2.65,.13,.93,.65,1.8,.81,2.73,.21,1.18,.5,2.37,.3,3.59-.24,1.45-.45,2.91-1.39,4.13-.63,.83-1.25,1.67-1.88,2.51-.08-.02-.17-.04-.25-.06-.04-.57-.09-1.14-.13-1.71-.02-.22,0-.45-.06-.66-.11-.42-.3-.82-.38-1.25-.17-.94-.21-1.91-.45-2.84-.24-.92-.63-1.79-.99-2.67-.32-.8-.67-1.59-1.02-2.38-.14-.32-.29-.64-.48-.93-.55-.84-1.13-1.67-1.7-2.49-.49-.7-.96-1.42-1.5-2.09-.43-.53-.94-.98-1.42-1.47-.23-.23-.41-.52-.68-.7-.55-.38-1.13-.71-1.7-1.04-.28-.16-.6-.26-.86-.46-.28-.21-.55-.46-.74-.75-.25-.38-.44-.8-.61-1.23-.1-.24-.21-.54-.15-.77,.31-1.18,.67-2.35,1.02-3.52-.05-.02-.11-.04-.16-.06-.64,.98-.69,2.2-1.18,3.26-.63-.97-1.24-1.92-1.84-2.86-.13-.2-.24-.39-.5-.51-.18-.09-.34-.41-.35-.64-.03-.79,.02-1.58,.01-2.37,0-.33-.09-.65-.14-.98-.05,0-.11,0-.16,0-.06,1.02-.13,2.03-.2,3.24-.22-.35-.49-.58-.48-.8,0-.46-.19-.64-.59-.8-.55-.22-1.08-.44-1.57-.85-.42-.35-.95-.89-1.66-.56,.05,.21,.1,.43,.15,.6,.98,.05,1.42,.9,2.12,1.33Zm33.17,23.35c.07,.06,.15,.19,.14,.27-.01,.07-.17,.17-.24,.15-.65-.18-1.27-.16-1.88,.17-.04,.02-.11,0-.16-.03-.06-.03-.11-.09-.16-.13,.47-.64,1.74-.87,2.3-.43Z"/>
      <path d="M79.34,52.51c.01,.39,.28,.78,.3,1.17,.03,.42,.19,.62,.58,.65,1.05,.08,2.1,.16,3.15,.21,.9,.05,1.8,.06,2.7,.1,1.16,.05,2.33,.16,3.49,.17,.57,0,1.15-.18,1.73-.29-.13-1.22-1.24-1.39-1.83-1.93,.53-.44,1.06-.79,1.48-1.24,.42-.46,.28-.93-.31-1.12-.4-.13-.83-.17-1.25-.18-1.92-.06-3.84-.08-5.76-.15-.21,0-.56-.24-.58-.4-.04-.36,.1-.73,.16-1.1,.02-.16,.07-.34,.03-.49-.22-.85-.13-1.66,.1-2.5,.15-.54,.41-.73,.93-.72,.83,.02,1.66,0,2.49,0,.2-.79-.34-1.19-.86-1.65,.35-.59,.69-1.14,1.08-1.79-.23,0-.36,0-.49,0-.55,.03-1.09,.09-1.63,.07-.48-.01-.95-.16-1.42-.17-.52,0-.73-.27-.81-.72-.06-.38-.09-.78-.2-1.15-.27-.85,.2-1.91,1.18-2.04,.88-.12,1.77-.1,2.66-.14,.96-.05,1.91-.1,2.95-.15-.43-.84-1.14-1.21-1.9-1.55,.56-.48,1.44-.58,1.39-1.62-3.28,.06-6.52,.12-9.69,.17,0,.54-.02,.94,0,1.34,.07,1.11,.18,2.21,.22,3.32,.05,1.49,0,2.97-.96,4.25-.22,.3-.62,.62-.6,.91,.03,.35,.43,.67,.64,1.02,.7,1.17,1.03,2.44,1.02,3.81,0,1.31-.02,2.62,.02,3.92Z"/>
      <path d="M37.93,54.49c1.48,.59,2.92,.44,4.14-.6,.71-.6,1.34-1.34,1.81-2.14,.79-1.33,1.06-2.85,1.03-4.39-.01-.61-.29-1.28-.62-1.81-.52-.82-1.18-1.5-2.1-1.97-1.16-.59-2.36-.86-3.62-.93-.12,0-.37,.21-.38,.34-.07,1.01-.08,2.03-.13,3.04-.02,.39,.2,.54,.54,.55,.48,.02,.96,.03,1.44,.02,.39-.01,.64,.08,.51,.53-.14,.51-.27,1.03-.46,1.53-.26,.67-.76,1.07-1.51,.96-.77-.12-1.56-.43-1.82-1.16-.62-1.71-.94-3.49-.76-5.34,.18-1.84,.94-3.25,2.7-4.02,.68-.3,1.18-.07,1.32,.68,.04,.21,0,.44,0,.74,.31,0,.55,.02,.78,0,.65-.06,1.29-.14,1.94-.19,.71-.06,.86-.16,.81-.89-.07-.92-.17-1.84-.36-2.74-.52-2.37-2.37-4.16-5.12-4.13-.57,0-1.03,.21-1.4,.57-.55,.54-1.12,1.1-1.53,1.74-.69,1.11-1.24,2.28-1.41,3.62-.14,1.17-.5,2.31-.56,3.48-.1,2.06-.17,4.13,.27,6.17,.34,1.54,.73,3.01,1.71,4.33,.74,.99,1.67,1.55,2.74,1.98Zm3.02-14.59c-.07,0-.15,0-.22,0-.2-.57-.35-1.17-.61-1.71-.25-.53-.56-1.05-.93-1.5-.52-.63-1.28-.66-1.7,.01-.57,.92-1.08,1.91-1.4,2.93-.34,1.12-.44,2.32-.64,3.48,0,.02-.01,.04-.01,.05,.17,1.37-.28,2.75,.2,4.12,.21,.62,.17,1.33,.38,1.94,.6,1.72,2.28,2.32,3.74,1.33,.37-.25,.6-.71,.9-1.07,.14-.17,.35-.31,.41-.5,.24-.72,.46-1.44,.62-2.18,.04-.19-.17-.44-.27-.66,.37-.05,.63,.24,.63,.66,.02,1.39-.51,2.59-1.32,3.64-.64,.82-2.28,1.61-3.49,1.1-.77-.33-1.16-1.07-1.54-1.76-.61-1.08-.71-2.29-.77-3.5-.07-1.31-.14-2.62-.11-3.93,.02-.71,.2-1.43,.41-2.12,.3-.99,.65-1.96,1.04-2.92,.43-1.06,1.63-1.84,2.48-1.55,.5,.18,1.05,.56,1.32,1.01,.43,.72,.66,1.56,.93,2.36,.07,.22-.03,.5-.05,.75Zm-7.12,6.73c-.13-1.54-.11-3.11-.03-4.66,.05-1.01,.34-2,.5-3,.24-1.42,.7-2.75,1.34-4.03,.29-.58,1.7-1.39,2.39-1.37,1.09,.03,2.07,.46,2.69,1.28,.81,1.07,1.4,2.31,1.55,3.69,.02,.2-.1,.42-.17,.67-.47-1.14-.84-2.23-1.36-3.24-.37-.73-.95-1.33-1.76-1.63-1.5-.56-2.18-.03-2.89,1.16-.86,1.45-1.11,3.08-1.35,4.71-.26,1.78-.43,3.57-.26,5.37,.07,.79-.08,1.6,.04,2.38,.33,2.05,1.14,3.88,3.03,4.99,.48,.28,1.07,.49,1.62,.5,1.28,.02,2.17-.82,2.74-1.81,.59-1.03,.95-2.2,1.33-3.33,.33-.98-.25-1.78-.7-2.58-.07-.13-.11-.29-.15-.44,0-.01,.11-.08,.13-.07,.12,.1,.26,.19,.33,.32,.2,.36,.32,.76,.55,1.09,.41,.57,.41,1.16,.25,1.79-.36,1.45-.74,2.86-1.7,4.11-.62,.81-1.29,1.39-2.25,1.53-.52,.07-1.1-.02-1.6-.19-1.49-.52-2.45-1.67-3.25-2.97-.8-1.31-.91-2.8-1.04-4.25Z"/>
      <path d="M49.36,35.33c.85,1.87,1.15,3.88,1.61,5.85,.15,.64,.22,1.3,.25,1.96,.04,.81,0,1.63-.03,2.44-.06,1.33-.07,2.68-.23,4-.16,1.36-.47,2.71-.7,4.07-.04,.26,0,.54,0,.76,1.39,.26,2.53-.15,3.43-1.17,1.02,.91,2.02,1.66,3.44,1.61-.96-3.68-1.35-7.38-1.72-11.09,.23-.05,.25-.12,.16-.46-.19-.71-.22-1.47-.29-2.21-.02-.23,.09-.47,.11-.71,.09-1.15,.08-2.32,.29-3.45,.18-.98,.62-1.92,.97-2.96-.73,.15-1.48,.25-2.2,.46-.63,.18-1.27,.73-1.84,.66-.6-.08-1.12-.74-1.7-1.09-.72-.44-1.5-.7-2.43-.75,.32,.75,.6,1.43,.9,2.09Z"/>
      <path d="M39.91,115.74c-.72,.03-1.44,.05-2.16,.07,0-.02,0-.04,.01-.05h-3.35c.49,.08,1.02,.17,1.54,.25l.05,.15c-1.13,.73-2.27,1.47-3.41,2.21-.01,0-.07-.03-.1-.08-.73-1.14-2.23-1.06-3.13-.36-.12,.09-.26,.35-.21,.43,.26,.41,0,.6-.26,.83-.76,.67-1.31,1.42-.91,2.54,.16,.01,.32,.02,.48,.03-.02-.05-.04-.11-.06-.16,.2-.11,.39-.24,.6-.34,.28-.13,.57-.23,.85-.34,.12-.05,.24-.09,.42-.17-.08,1.05-.97,.82-1.57,1.13,.96,.17,1.56-.3,2.15-.81,.17-.15,.41-.37,.59-.34,.75,.1,.98-.42,1.18-.93,.14-.35,.13-.75,.19-1.13,.81-.49,1.66-.98,2.48-1.5,.49-.31,.93-.85,1.45-.96,.82-.16,1.7-.04,2.63-.04-.09,.41-.17,.84-.29,1.26-.26,.89-.84,1.6-1.37,2.34-.06,.08-.35,.08-.46,0-.86-.61-1.84-.58-2.66,.1-.2,.17-.34,.31-.16,.6,.06,.11,0,.4-.11,.49-.76,.69-1.27,1.45-.89,2.58,.46-.22,.94-.44,1.42-.66,.22-.1,.44-.2,.65-.3-.06,.23-.12,.45-.18,.72,.08-.02,.17-.02,.23-.07,.48-.37,.83-.97,1.58-.87,.05,0,.11-.09,.16-.14,.44-.51,.63-1.07,.47-1.75-.03-.14,.03-.35,.13-.45,.99-.99,1.77-2.08,1.79-3.56,0-.29,.13-.37,.41-.38,.49-.03,.98-.1,1.47-.15-.1-.09-.2-.23-.3-.23-.45,0-.9,.04-1.35,.06Z"/>
      <path d="M41.56,115.91s.01,.02,.02,.02c0,0,.02-.02,.02-.03h0s-.03,0-.04,0Z"/>
      <path d="M53.05,33.13c.46-.15,1.07-.29,1.63-.55,1.01-.47,1.42-1.19,1.08-2.23-.31-.94-.74-1.87-1.3-2.69-.27-.39-.93-.73-1.41-.72-.46,.01-.95,.44-1.34,.79-.75,.68-1.33,1.49-1.63,2.51-.1,.33-.22,.58-.08,.92,.54,1.27,1.61,1.73,3.04,1.96Z"/>
      <path d="M122.8,35.48c.87,0,1.64-.68,2.25-1.62,.18-.28,.2-.5-.12-.69-.3-.18-.26-.39-.13-.7,.27-.64,.51-1.31,.65-1.99,.13-.64-.19-1.28-.68-1.6-.33-.21-.96-.11-1.38,.05-.97,.37-1.4,1.27-1.82,2.14-.11,.22-.26,.56-.43,.59-.78,.11-.84,.71-.93,1.26-.25,1.51,.87,2.56,2.59,2.56Zm1.52-6.17c-.21,.16-.37,.25-.49,.37-.32,.32-.62,.65-.93,.96-.09,.1-.21,.17-.32,.26-.06-.08-.16-.16-.18-.25-.13-.71,1.07-1.64,1.91-1.34Z"/>
      <path d="M9.48,104.1c-.89,.52-.86,.59-.48,1.57-1.24,1-1.95,2.24-1.47,3.94,.15,0,.44-.07,.69,.01,.9,.28,1.62-.02,2.3-.57,.63-.51,1-1.44,2.04-1.27,.03,0,.07-.03,.1-.05,.68-.44,1.04-2,.63-2.75-.82-1.5-2.52-1.64-3.82-.88Zm.87,4.48c-.34,.53-.84,.82-1.64,.82-.06-.04-.22-.15-.38-.26,.17-.08,.33-.17,.5-.26,.38-.2,.75-.42,1.14-.61,.13-.07,.28-.1,.42-.14,0,.15,.04,.34-.04,.46Z"/>
      <path d="M104.72,36.89c-.2-.77-.87-1.18-1.49-.82-.5,.29-.99,.74-1.27,1.24-.51,.91-.29,1.86,.17,2.76,.1,.19,.15,.44,.13,.66-.04,.48-.13,.96-.21,1.56,.26-.21,.42-.34,.58-.47,.24,.32,.45,.61,.72,.99,.07-.43,.11-.75,.17-1.12,.34,.07,.62,.13,.99,.21-.14-.38-.23-.71-.38-1.01-.19-.39-.23-.7,.08-1.09,.68-.85,.76-1.87,.49-2.9Z"/>
      <path d="M98.44,114.8c.19,.35,.46,.7,.07,1.09-.34-.44-.65-.83-.98-1.25,.2-.29,.32-.3,.76,.02-.31-.25-.61-.51-.92-.76-.15-.13-.36-.22-.44-.39-.42-.8-1.66-.98-2.28-.32-1.11,1.19-.29,2.9,.93,3.23,.26-.22,.52-.44,.79-.67,.05,.88,1.11,1.11,2.53,.59-.18-.51,.25-1.21-.46-1.54Z"/>
      <path d="M31.95,116.26c.06,.03,.14,.05,.21,.05,.53,0,1.02-.15,1.28-.64,.26-.49,.2-1.07-.17-1.44-.33-.33-.84-.47-1.28-.68-.04-.02-.14,.09-.21,.13-.21,.1-.42,.28-.62,.27-.59-.02-1.07,.18-1.48,.57-.08,.07-.1,.21-.11,.33,0,.05,.13,.16,.13,.15,.45-.33,.66,.27,1.04,.27,.47,0,.41,.25,.19,.46,.36,.18,.69,.36,1.03,.53Z"/>
      <path d="M6.24,39.24c-.05,.52-.16,1.03-.22,1.55-.02,.14,.02,.31,.08,.44,.02,.04,.26,.06,.28,.02,.08-.12,.14-.28,.13-.41-.02-.35-.11-.69-.11-1.04,0-.13,.15-.3,.28-.36,.08-.04,.26,.09,.36,.18,.21,.18,.38,.4,.59,.58,.11,.1,.26,.15,.39,.22,.03-.17,.07-.33,.08-.5,.01-.26,0-.52,0-.78,.06-.02,.12-.04,.18-.07,.32,.4,.64,.8,.96,1.2,.06-.03,.12-.07,.17-.1-.19-.32-.33-.68-.57-.97-.57-.68-.87-.63-1.25,.15-.01,.03-.06,.04-.1,.07-.6-.24-1.32-.33-1.52-1.11-.16-.62-.25-1.26-.05-2.08,.47,.57,.82,1.01,1.19,1.43,.08,.09,.22,.12,.34,.18,.03-.11,.1-.23,.09-.34-.01-.4-.07-.81-.06-1.21,0-.18,.12-.36,.19-.54,.17,.08,.37,.14,.52,.26,.38,.31,.73,.65,1.06,.96-.02-.52-.66-1.27-1.26-1.45-.37-.12-.62-.01-.73,.36-.09,.27-.16,.55-.26,.88-.14-.12-.24-.2-.33-.28-.11-.1-.21-.21-.33-.3-.38-.28-.74-.15-.81,.32-.03,.21,.02,.44,.03,.66,0,.25,0,.5,0,.83-.27-.25-.46-.43-.65-.62-.06,.05-.11,.09-.17,.14,.41,.47,.82,.94,1.23,1.41,.09,.11,.26,.22,.25,.32Z"/>
      <path d="M104.69,96.7c-.05-.04-.1-.07-.15-.11-.09,.16-.17,.32-.26,.48l-.14-.1c-.13-.35-.15-.84-.4-1.04-.51-.39-.56,.37-.91,.53-.12-.21-.19-.45-.35-.57-.15-.12-.45-.22-.6-.14-.51,.26-.65,.77-.72,1.31,.31-.42,.63-.84,.94-1.25,.07,.02,.14,.05,.21,.07,.11,.5,.21,1.01,.35,1.66,.34-.54,.62-.99,.93-1.5,.57,1.32,.3,2.09-.67,2.55-.29-.14-.54-.36-.72-.32-.37,.08-.61,.75-.5,1.18,.17-.32,.34-.63,.51-.94,.05,0,.09,.02,.14,.03,.08,.32,.15,.63,.26,1.08,.26-.34,.44-.59,.63-.82,.09-.1,.2-.18,.3-.28,.1,.13,.24,.24,.28,.38,.05,.19,0,.41,.03,.61,.01,.11,.08,.23,.15,.33,.02,.02,.18,0,.19-.03,.04-.11,.07-.25,.05-.35-.08-.3-.22-.59-.28-.89-.04-.18,0-.4,.07-.57,.2-.44,.44-.85,.66-1.28Z"/>
      <path d="M112.97,15.95c.11-.09,.26-.15,.31-.27,.24-.56,.45-1.12,.66-1.69,.09-.22,.19-.44,.24-.67,.14-.75,.31-1.51,.38-2.27,.05-.53-.04-1.07-.07-1.61,0-.04-.09-.08-.19-.17-.13,.97-.21,1.86-.38,2.74-.18,.87-.44,1.72-.71,2.56-.12,.37-.33,.72-.49,1.08,0,0,.01-.02,.01-.02,.08,.1,.16,.21,.25,.32Z"/>
      <path d="M47.34,118.95c-.27,.06-.53,.12-.8,.18,0,.02-.01,.04-.02,.06,.07,.17,.17,.44,.2,.43,.45-.11,.93-.19,1.3-.44,.2-.14,.18-.59,.27-.92-.46-.39-.46,.29-.72,.38-.3,.11-.42-.87-.81-.14,.2,.09,.41,.18,.61,.27-.01,.06-.02,.12-.03,.18Z"/>
      <path d="M46.76,118.5s-.01,0-.02,0c0,.01,0,.02,0,.03,0,0,.01,0,.02-.01,0,0,0,0,0-.01Z"/>
      <path d="M82.31,118.46c-.09,.03-.22,.06-.37,.11,.04-.45-.31-.5-.44-.3-.31,.49-.62,.31-.99,.17-.1-.04-.23,.02-.35,.03l-.04,.19c.86,.07,1.73,.14,2.43,.68,.07,.05,.25-.05,.41-.08-.23-.3-.42-.53-.64-.81Z"/>
      <path d="M34.38,16.51s0,0,0,0h0c-.3,.15-.6,.29-.91,.44,.19,.08,.35,.08,.5,.02,.98-.38,1.95-.76,2.92-1.16,.26-.11,.5-.29,.75-.43-.99,.36-1.98,.71-2.97,1.06-.1,.04-.21,.05-.32,.08,0,0,0,0,0,0,0,0,0,0,0,0h.02Z"/>
      <path d="M125.18,54.04s0,0,0,0c0,0,.01,0,.02,.01,0,0,0,0,0,0h0s-.02-.02-.02-.02Z"/>
      <path d="M124.54,54.17c-.46-.15-.49-.89-1.19-.74,.35,.34,.6,.69,.94,.89,.22,.13,.56,.05,.85,.04,.02,0,.03-.21,.04-.32-.12-.1-.24-.2-.37-.3-.06,.09-.16,.26-.27,.43Z"/>
      <path d="M50.09,114.47c-.36,.19-.66,.34-.95,.49,0,.05,0,.09,0,.14h1.03c-.03-.22-.06-.44-.09-.62Z"/>
      <path d="M128.88,52.39c.11-.03,.23-.06,.34-.09-.06-.27-.12-.54-.18-.8-.14,.06-.4,.14-.39,.17,.05,.25,.15,.48,.23,.72Z"/>
      <path d="M6.66,96.39s0,0,0,.01h0s0,0,0-.01Z"/>
      <path d="M6.13,93.73c.18,.89,.35,1.78,.53,2.67-.02-.92-.13-1.82-.31-2.7l-.22,.04Z"/>
      <path d="M111.41,15.22c.27-.33,.13-.59-.1-.82-.04-.04-.27,.03-.3,.1-.19,.39,.1,.54,.4,.72Z"/>
      <path d="M79.44,114.48s0,.02,0,.04c0,0,0,0,.01,0,0-.01,0-.02,0-.04,0,0-.02,0-.02,0Z"/>
      <path d="M78.73,113.88c.17,.05,.32,.1,.47,.14,.03,.06,.06,.12,.1,.17-.16,.04-.32,.09-.48,.13,.04,.07,.08,.13,.12,.2,.17-.02,.35-.03,.52-.05-.01-.7-.14-.81-.71-.6Z"/>
      <path d="M99.09,7.87c.05,.16,.08,.27,.12,.4-.12-.03-.21-.05-.3-.07-.01,.04-.02,.08-.04,.12,.26,.1,.52,.21,.78,.31-.19-.26,.12-.83-.56-.76Z"/>
      <path d="M79,99.83h1.22c0-.05,0-.11,0-.16h-1.23c0,.05,.01,.11,.02,.16Z"/>
      <path d="M95.34,11.84c.39-.12,.75-.24,1.11-.35-.32-.09-.63-.18-.95-.27-.03,.1-.08,.33-.15,.62Z"/>
      <path d="M96.45,11.49s0,0-.01,0c0,0,.02,0,.03,0,0,0,0,0,0,0,0,0,0,0-.01,0Z"/>
      <path d="M48.21,96.24c-.15-.34-.21-.79-.69-.4,.12,.15,.24,.28,.45,.52,0,0,.13-.07,.24-.13Z"/>
      <path d="M75.93,94.67c-.05,.1,.01,.26,.03,.4,.05,.02,.1,.03,.16,.05-.03-.43,.13-.56,.53-.43-.12-.1-.24-.28-.37-.29-.11,0-.28,.15-.34,.27Z"/>
      <path d="M125.32,56.04c-.31-.12-.5-.2-.7-.28-.03,.05-.07,.09-.11,.14,.13,.15,.24,.33,.39,.43,.05,.03,.23-.16,.41-.29Z"/>
      <path d="M114.25,14.9c.06-.02,.11-.04,.17-.06-.04-.24,.3-.65-.41-.68,.09,.28,.16,.51,.24,.74Z"/>
      <path d="M77.31,100.84c.23,.03,.45,.05,.68,.08,0-.08,.02-.15,.03-.23-.2-.03-.41-.06-.62-.07-.03,0-.06,.15-.09,.22Z"/>
      <path d="M95.64,13.06c.28,.11,.49,.2,.78,.31-.17-.55-.19-.55-.78-.31Z"/>
      <path d="M77.63,85.03c.45,.03,.91,.01,1.39,.01,0-.23,0-.37,0-.52-.05-1.57-.12-3.15-.14-4.72,0-.8,.14-1.61,.11-2.41-.07-2.58-.19-5.15-.3-7.72-.05-1.13-.11-2.26-.15-3.39-.08-2.51-.14-5.01-.22-7.52,0-.03-.03-.06-.1-.19-.82,0-1.68,0-2.55,0q-.9,0-.95,.93c-.11,2.22-.22,4.43-.32,6.65-.04,.89-.06,1.78-.1,2.67-.02,.36-.09,.72-.14,1.08-.05,0-.09,0-.14,0-1.87-3.53-3.75-7.07-5.64-10.64-.62,.24-1.23,.45-1.83,.7-.83,.34-.95,.59-.83,1.48,.26,1.84,.51,3.68,.76,5.51,.29,2.07,.58,4.14,.86,6.22,.09,.62,.19,1.25,.24,1.88,.02,.27-.15,.56-.1,.82,.12,.67,.33,1.31,.44,1.98,.05,.29-.13,.61-.1,.91,.07,.68,.22,1.34,.31,2.02,.11,.84,.26,1.68,.26,2.52,0,1.11,.47,1.61,1.6,1.73,1.11,.12,2.21,.45,3.43,.72-.36-3.57-.71-7.06-1.07-10.54l.15-.03c.18,.39,.36,.79,.55,1.18,.92,1.92,1.82,3.86,2.76,5.77,.44,.91,.95,1.78,1.45,2.66,.06,.11,.22,.23,.34,.23Z"/>
    </g>
  </g>
</svg>