<?xml version="1.0" encoding="UTF-8"?>
<svg id="_图层_2" data-name="图层 2" xmlns="http://www.w3.org/2000/svg" viewBox="0 0 123.1 140.9">
  <defs>
    <style>
      .cls-1 {
        fill-rule: evenodd;
      }
    </style>
  </defs>
  <g id="_图层_2-2" data-name=" 图层 2">
    <g>
      <path class="cls-1" d="M41.53,127.55v-11.87l-2.77-23.7,.3-12.39c5.41-1.26,8.9-6.73,8.9-13.35v-3.96c0-1.93-.38-3.67-.99-4.94l1.48-.99,11.87-11.87,6.43-7.91,7.5-5.81-.58-8.03-7.41,1h-3.96s-27.65-2.37-27.65-2.37c-5.29-.06-15.74,5.47-18.68,7.93-4.86,4.06-9.53,7.43-9.53,16.18s7.91,19.08,16.81,19.28c0,8.15,3.51,15.15,11.37,15.33v3.96l-2.28,37.56,.3,6.94c0,2.23,2.04,4.94,3.95,4.94h.49c3.14,0,4.45-2.83,4.45-5.93Zm-1.48-64.76c0-1.42,3.29-2.85,4.45-3.46,0,3.53,.67,11.37-2.47,11.37h-.49c-1.14,0-1.48-.34-1.48-1.48v-6.43Zm-19.38-29.27c-5.96,4.72-4.16,6-7.32,10.97,0-9.23,10.46-17.3,19.28-17.3-1.79,1.55-8.69,3.74-11.96,6.33Zm9,36.68c0,1.14-.34,1.48-1.48,1.48-1.34,0-1.98-5.05-1.98-6.92h3.46v5.44Zm3.96,.49c-.4-1.73-.99-1.66-.99-3.46l.07-2.75,3.89-1.21v4.45c0,2.26-.64,2.91-2.96,2.97Z"/>
      <path class="cls-1" d="M85.53,28.18c3.64,.08,4.45,1.98,6.92,1.98h1.98c2.5,0,4.94-1.78,4.94-4.45v-1.98c0-2.93-5.36-6.39-9.39-4.45,.41-1.52,.96-1.98,2.97-1.98h2.97c.31-1.33,1.48-3.34,1.48-4.45,0-3.21-2.25-5.93-5.44-5.93h-1.48c-4.02,0-6.71,4.53-7.84,7.48-1.88,4.88-3.09,5.73-6.99,8.34-.32,1.33-.49,.93-.49,1.98,0,1.44,.66,2.56,.99,3.97l9.39-.51Z"/>
      <path class="cls-1" d="M52.9,97.39c0,1.14,.34,1.48,1.48,1.48,.44,0,.99-.55,.99-.99,0-3.39-.15-6.61-.53-9.85-.66-5.58-1.37-3.73,3.99-4.98,.77,3.31,2.32,11.07,5.93,11.37v-3.46c0-1.83,.25-2.4,.99-3.46,0,2.37,.22,4.94,2.47,4.94,1.52,0,2.14-1.22,2.47-2.47h1.98c1.59,0,2.34-1.38,2.47-2.97l2.45,.61,1.23-2.48c.63,.09,2.25,.83,2.25-.6,0-2.29-.81-3.28-.99-5.44,1.73,1.27,1.38,3.46,3.46,3.46,1.64,0,1.85-1.42,1.98-2.97,4.34,1.01,1.77-1.54,1.48-4.94l-.56-2.47h1.05s0,1.97,0,1.97l.51,2.47c1.39,.33,.83,.5,1.96,.5,1.55,0,2.47-2.92,2.47-4.94l-1.97-.99v3.47c-3.25-.87-.14-5.44-3.46-5.44-2.23,0-1.48,3.07-1.48,5.44-2.24-3.53-.55-7.6-5.44-10.88-.84,.56-1.98,1.08-1.98,2.47,0,5.45,6.43,10.58,6.43,12.36,0,1.49-.58,1.37-1.98,1.48-.63-2.37-1.17-4.39-3.95-4.45v3.96l-1.82-2.09c-.53,.38-1.14,.38-1.14,1.11,0,1.5,1.98,3.44,1.98,4.94,0,1.05-.18,.65-.49,1.98-1.86-.5-2.53-3.08-2.97-4.94-8.56,1.99-1.85,6.77-5.44,9.39l-.48,.12-1.57-6.04-.44-.36-1.96,3.8h-.49c0-3.31,.44-10.38-2.47-10.38-1.9,0-2.43,1.99-2.47,3.96-4.21,.98-12.36,2.16-12.36,6.92,0,.69,.67,.99,1.48,.99,2.82,0-.24-3.24,4.94-4.45v12.85Zm26.3-30.93l1.38-.21,2.62,7.6-4-7.39Zm-7.52,17.59c0-1.41,.16-.9,.99-1.48l1.23,5.39c-1.76-.36-2.22-.91-2.22-2.92v-.99Zm-9.39-.99v4.45l-1.43-3.97,.3-1.94-.47-2.48c1.29,.84,1.59,1.88,1.59,3.93Z"/>
      <path class="cls-1" d="M98.88,103.33c1.41,0,2.47-2.4,2.47-3.46,0-.68-1.03-1.18-1.48-1.48l-.6,2.6c-2.81-1.89-.46-3.67-3.85-4.57l-.62,3.94c-1.39-2.16-1.11-8.88-3.83-8.88-1.16,0-1.98,.82-1.98,1.98v.99c0,2.14,.79,1.53,.99,3.96,.56,.65,2.97,4.05,2.97,4.94v.49c0,1.51-.48,1.99-.99,2.97l-1.92-.02-.94-3.61,1.87,1.16s.49-.92,.49-.99c0-1.32-.71-1.46-1.52-2.07l-1.45,.59c-.73,.84-.99,.86-.99,2.47v1.48c0,1.11,.39,1.09,.99,1.98l-1.81,1.7-1.74-5.31c-2.32,1.54-.41,3.18-.41,6.57-1.61-.43-2.32-3.13-2.47-4.94-1.1,.29-1.48,.12-1.48,1.48,0,1.44,.66,2.56,.99,3.96l-1.38,1.59-1.77-4.99-1.3-.06-.61,2.94-1.07-1.87-.34-.41-1.86,3.04-1.82-1.53c-.24,3.5-.31,6.97,2.72,7.22l.63-4.93,.36-.02,1,4.11,1.06-.09,.57-4.99c.73,1.39,.28,3.44,2.3,3.44,1.5,0,1.68-.86,1.98-1.98l1.96,.55,1.23-2.43c1.18,.22,.62,.39,1.76,.39,.69,0,2.11-1.93,2.47-2.47h2.47l2.33-3.75,2.02,1.01-.53-6.14c1.01,1.24,1.14,3.45,3.11,3.45Zm-7.91-8.4c0-.95-.16-.88-.49-1.48,1.77,.64,2.42,3.64,2.47,5.93-.97-.71-1.98-2.8-1.98-4.45Z"/>
      <path class="cls-1" d="M72.31,98.02c2.33-2.13,4.99-4.43,7.94-5.9,4.21-2.1,5.06-1.62,8.37-4.98,2.54-2.57,3.06-5.19,5.91-7.93,2.24-2.15,6.04-2.91,8.79-4.55,3.75-2.24,5.87-12.61,12.35-14.34v-.99c-6.77,.56-9.15,10.9-13.53,14.15-3.36,2.49-5.4,1.56-8.84,5-2.57,2.57-3.3,5.32-5.51,7.84-2.29,2.63-5.85,3.1-9.05,4.8-2.86,1.51-4.82,3.92-7.43,5.92-5.01,3.84-18.48,2.95-18.93,8.27,2.99-.8,3.9-2.73,10.08-3.76,4.74-.79,6.93-.87,9.82-3.52Z"/>
      <path class="cls-1" d="M109.26,101.84c-7.27,3.57-8.83,10.77-14.81,12.38-5.44,1.46-5.68,.43-10.11,3.73-2.52,1.87-5.17,4.41-8.49,5.35-7.64,2.16-17.98-.28-19.98,7.21,2.39-.26,2.24-3.49,9.28-4.57,3.35-.51,9.34-.36,12.29-1.55,3.46-1.39,5.36-3.82,8.08-5.76,3.7-2.64,5.93-1.68,10.07-3.28,5.68-2.2,7.43-8.58,14.99-12.7,3.51-1.91,11.65-11.37,12.53-14.66-3.26,.27-7.03,10.5-13.84,13.84Z"/>
      <path class="cls-1" d="M89.48,49.44v-1.48c0-2.44-2.01-4.45-4.45-4.45h-1.98c-1.3,0-4.06,2.64-.99,3.46,.12-1.47,.36-2.47,1.98-2.47,1.81,0,3.96,1.36,3.96,2.97v2.47c0,6.09-10.7,3.79-16.03,4.73-5.02,.89-11.16,4.37-11.16,9.6v.99c0,2.44,2.01,4.45,4.45,4.45h.49c2.51,0,5.93-2.07,5.93-4.94v-1.48c0-1.37-.38-1.19-1.48-1.48,.17,2.03,.49,1.1,.49,2.97,0,1.39-2.43,3.46-4.45,3.46h-1.48c-1.15,0-2.47-1.32-2.47-2.47v-.49c0-16.02,27.19-3.38,27.19-15.82Z"/>
      <path class="cls-1" d="M103.33,44.5c0,1.09,4.21,2.19,4.94,4.94-3.13-.07-6.43-5.01-6.43-1.48,0,.67,.53,.27,.99,1.98-1.55,.36-3.96,1.72-3.96,3.46v1.48c0,2.1,1.84,3.96,3.46,3.96h1.98c1.52,0,1.98-1.45,1.98-2.97,0-2.8-2.77-3.28-4.45-4.45l2.48-.97c.99,.51,2.9,1.96,3.95,1.96,.6,0,1.48-1.02,1.48-1.98,0-1.05-.18-.65-.49-1.98,1.97-.16,2.47-.94,2.47-2.97v-.49c0-1.9-.19-2.28-1.98-2.47v3.46c-2.58-.22-6.43-5.27-6.43-1.48Zm1.48,12.36s-.92,.49-.99,.49c-1.92,0-3.2-1.89-3.46-3.96h1.48c1.69,0,2.63,2,2.97,3.46Z"/>
      <path class="cls-1" d="M99.87,67.76c1.01-4.37-2.57-16.51-6.88-16.65l2.94,7.22c-3.02,0-8.92-1.59-8.92,2.48,0,.95,1.6,1.28,2.47,1.48-.27-1.29-.54-2.47,1.48-2.47,4.45,0,7.42,.95,7.42,5.44,0,1.17-.97,2.2-1.48,2.97l2.97-.47Z"/>
      <path class="cls-1" d="M56.36,121.62c1.87,0,3.3-1.21,4.45-1.98,.78,.38,.71,.49,1.98,.49h.49c1.6,0,2.47-1.79,2.47-3.46,0-1.34-.24-1.36-.49-2.47l2.48,.97c-.45-1.66-1.37-2.45-3.47-2.45h-.49c-1.81,0-2.39,.77-3.46,1.48,0,3.19,.86,4.21-1.98,4.45-.16-1.96-.49-1.19-.49-2.47s.33-.51,.49-2.47c-2.15,.18-5.31,5.41-5.44,6.92,2.91,.24,1.03,.99,2.97,.99h.49Zm5.93-7.42c1.12,.3,1.98,.48,1.98,1.98v.99c0,1.49-.58,1.37-1.98,1.48-.26-1.11-.49-1.14-.49-2.47,0-1.05,.18-.65,.49-1.98Zm-7.55,5.86l1.25-2.33c1.31,.98,.8-.14,.86,2.4l-2.11-.07Z"/>
      <path class="cls-1" d="M9.89,27.69c-5.77,.48-9.89,9.84-9.89,16.81H1.48c0-12.26,7.57-13.67,8.4-16.81Z"/>
      <path class="cls-1" d="M62.79,47.46c-3.01,5.69-6.74,7.9-12.36,10.88,.26,.38,.27,.99,.99,.99,3.76,0,12.96-9.57,13.84-13.35l-2.47,1.48Z"/>
      <path class="cls-1" d="M98.88,33.62h-2.47v.99c1.4,.33,.85,.49,1.98,.49,5.11,0,7.91-5.11,7.91-10.38v-3.46c-3.53,.94,.08,12.36-7.42,12.36Z"/>
      <path class="cls-1" d="M47.46,127.06v-1.48c-3.64,.97,1.81,9.75-9.39,12.36v.99c6.35-.14,9.39-5.19,9.39-11.87Z"/>
      <path class="cls-1" d="M64.77,128.05v1.48h4.94c6.89,0,7.94-2.41,11.87-3.46v-.99c-3.1,.26-4.41,2.97-9.89,2.97h-6.92Z"/>
      <path class="cls-1" d="M108.77,89.98c-.15-1.81-4.3-10.38-5.44-10.38-.69,0-.99,.67-.99,1.48,0,2.11,4.91,6.94,5.44,8.9h.99Z"/>
      <path class="cls-1" d="M101.84,96.9c0-2.66-2.81-10.88-4.45-10.88-.44,0-.99,.55-.99,.99,0,1.73,4.28,9.04,5.44,9.89Z"/>
      <path class="cls-1" d="M71.19,101.35c-2.38,.64-3.14,2.24-6.91,2.48-3.14,.2-5.74-.07-7.92,.98,1.41,1.92,14.5,.5,14.83-3.46Z"/>
      <path class="cls-1" d="M114.7,82.56c-.43-1.86-5.1-9.39-6.43-9.39-.69,0-.99,.67-.99,1.48,0,.59,5.8,7.48,7.42,7.91Z"/>
      <path class="cls-1" d="M85.03,32.63l-1.48-1.48c-4.19,0-11.06,1.93-11.87,4.94,3.03-.25,5.73-3.46,11.37-3.46h1.98Z"/>
      <path class="cls-1" d="M116.18,57.84c2.36-.63,4.45-4.84,4.45-7.91v-.49c0-2.36-.54-4.43-2.47-4.94,.3,2.36,.99,1.98,.99,3.96v1.48c0,4.5-2.74,5.23-2.97,7.91Z"/>
      <path class="cls-1" d="M19.78,80.09c1.31,2.94,3.87,6.43,7.91,6.43h2.47v-1.48c-7.73,0-7.16-4.59-10.38-4.94Z"/>
      <path class="cls-1" d="M43.01,86.02c0,.88,.74,.81,1.48,.99v-1.48c0-3.59,8.5-3.09,9.39-6.43-3.23,.27-10.88,3.24-10.88,6.92Z"/>
      <path class="cls-1" d="M37.1,17.69l4.43,.6c-.51-1.92-2.5-1.98-4.94-1.98h-2.47c-2.27,0-3.48,.21-3.96,1.98,1.55-.13,1.76-.49,3.46-.49l3.48-.11Z"/>
      <path class="cls-1" d="M95.42,118.65c3.2-.07,8.72-4.89,9.39-7.42-2.31,.25-5.8,5.47-9.39,6.43v.99Z"/>
      <path class="cls-1" d="M100.86,79.6v-.99h-1.48c-3.05,0-6.17,3.31-6.43,6.43,2.77-.74,1.75-4.93,7.91-5.44Z"/>
      <path class="cls-1" d="M100.36,38.07c3.38,0,7.16-1.91,7.42-4.94-2.83,.75-2.68,3.36-7.42,3.46v1.48Z"/>
      <path class="cls-1" d="M43.51,140.9c2.37-.2,5.93-4.73,5.93-6.43,0-.07-.49-.98-.49-.99-.26,.19-5.35,7.09-5.44,7.42Z"/>
      <path class="cls-1" d="M121.62,83.06c0,1.57-1.48,2.43-1.48,2.97,0,.07,.49,.98,.49,.99,1.31-.88,2.47-1.76,2.47-3.96s-1.18-3.48-2.97-3.96c.59,1.12,1.48,2.59,1.48,3.96Z"/>
      <path class="cls-1" d="M19.19,87.97c1.84,.5,6.56,5.08,7.51,1.52-3.45-.29-4.72-1.5-6.95-2.98l-.56,1.46Z"/>
      <path class="cls-1" d="M92.95,47.96v-1.48c0-1.98-.83-3.52-2.47-3.96,.37,2.85,.99,1.16,.99,2.97v3.96c1.1-.29,1.48-.12,1.48-1.48Z"/>
      <path class="cls-1" d="M78.61,46.47c0-2.73,.28-3.86,2.47-4.45v-.99c-2.9,.24-3.96,2.29-3.96,5.44h1.48Z"/>
      <path class="cls-1" d="M75.15,63.78c0-1.52-.68-2.13-1.98-2.47,.19,1.52,.49,1.78,.49,3.46,0,1.86-.33,.93-.49,2.97,1.77-.47,1.98-1.68,1.98-3.96Z"/>
      <path class="cls-1" d="M57.84,64.27v2.97c0,1.37,.38,1.19,1.48,1.48-.05-2.28-.49-1.66-.49-3.46,0-.64,.77-2.51,.99-3.46-1.79,.2-1.98,.57-1.98,2.47Z"/>
      <path class="cls-1" d="M99.37,7.91h.99c-.05-2.2-.72-3.01-1.48-4.45h-2.47v.99l1.92,.02,1.05,3.44Z"/>
      <path class="cls-1" d="M100.07,2.27c1.71,1.34,.43,1.55,2.77,2.18-.72-2.69-2.67-3.8-5.44-4.45,.62,1.71,1.05,1,2.67,2.27Z"/>
      <path class="cls-1" d="M110.25,92.95c.69,0,.99-.67,.99-1.48,0-1.14-.34-1.48-1.48-1.48-.69,0-.99,.67-.99,1.48,0,1.14,.34,1.48,1.48,1.48Z"/>
      <path class="cls-1" d="M103.33,99.87c.69,0,.99-.67,.99-1.48,0-1.14-.34-1.48-1.48-1.48-.69,0-.99,.67-.99,1.48,0,1.14,.34,1.48,1.48,1.48Z"/>
      <path class="cls-1" d="M116.18,85.04c.95,0,.88-.16,1.48-.49l-.55-1.96c-1.52,.02-2.41-.18-2.41,1.46,0,.69,.67,.99,1.48,.99Z"/>
      <path class="cls-1" d="M93.44,42.52c.37,2.85,.99,1.16,.99,2.97v1.48c2.8-.75,.94-3.94-.99-4.45Z"/>
      <path class="cls-1" d="M54.38,63.78v.99c0,1.37,.38,1.19,1.48,1.48v-3.96c-1.62,.59-.36-.64-1.48,1.48Z"/>
      <rect x="33.12" y="12.85" width="4.94" height=".99"/>
    </g>
  </g>
</svg>