<?xml version="1.0" encoding="UTF-8"?>
<svg id="_图层_2" data-name="图层 2" xmlns="http://www.w3.org/2000/svg" viewBox="0 0 105.29 97.86">
  <g id="_图层_2-2" data-name=" 图层 2">
    <g>
      <path d="M20.98,77.09c-1.28-3.13-2.04-6.37-2.21-9.74-.02-.36-.12-.74-.03-1.07,.52-1.93-.41-3.15-1.75-4.4-2.56-2.39-4.97-4.94-7.49-7.48-1.4,1.06-2.84,1.4-4.3,.3-1.07-.8-1.42-1.94-1.08-3.2,.44-1.64,1.65-2.37,3.38-2.33,.06-1.74,.72-3.03,2.45-3.44,1.27-.3,2.4,.09,3.17,1.16,1.03,1.44,.72,2.85-.39,4.26,3.05,3.03,6.07,6.04,9.12,9.02,.22,.21,.63,.33,.95,.31,6.21-.36,11.94,.98,16.92,4.76,1.93-1.2,3.78-2.52,5.78-3.57,19.94-10.47,44.42,2.27,47.32,24.61,.43,3.3,.36,6.6-.22,9.88-.28,1.56-.44,1.69-2.03,1.69-12.92,0-25.83,0-38.75,0-13.59,0-27.19,0-40.78,0-2.27,0-2.38-.05-2.22-2.25,.57-7.96,4.4-13.9,11.27-17.91,.24-.14,.48-.27,.73-.41,.03-.02,.06-.06,.18-.19Zm-10.18,18.73c.44,.03,.75,.08,1.06,.08,13.55,0,27.11,0,40.66,.02,.69,0,1.06-.21,1.36-.85,1.47-3.13,3.36-6,5.96-8.29,1.62-1.43,3.47-2.62,5.3-3.98-.32-.88-.76-1.86-1.06-2.89-.99-3.36-2.04-6.7-2.85-10.1-.4-1.71,.61-2.55,2.3-2.01,1.34,.43,2.76,1,3.81,1.9,3.06,2.6,6.12,5.24,8.84,8.17,1.63,1.76,3.13,3.04,5.63,2.53,.08-.02,.19-.03,.23,0,.41,.34,.8,.7,1.2,1.05-.4,.3-.75,.75-1.2,.87-.57,.15-1.21,.04-1.9,.04,.37,.93,.75,1.64,.95,2.4,.86,3.24-.56,5.76-2.71,7.96-1.06,1.09-2.29,2.02-3.52,3.09h15.67c2.3-10.98-2.56-25.42-16.02-32.47-11.95-6.26-25.33-3.01-31.92,2.63,1.91,0,3.74,0,5.56,0,.72,0,1.32,.18,1.27,1.04-.04,.78-.64,.91-1.29,.91-2.1,0-4.21,0-6.37,0,.5,1.59,.96,3.05,1.44,4.58,.39,0,.79,0,1.18,0,2.15,0,4.31,0,6.46,0,.75,0,1.55,.02,1.54,1.03,0,.95-.77,.96-1.48,.94-.36-.01-.72,0-1.08,0-2.22,0-4.45,0-6.68,0-.21,1.1-.39,2.05-.61,3.16,1.27,0,2.38,0,3.48,0,.67,0,1.21,.25,1.2,1.02-.01,.78-.58,.96-1.25,.96-1.2,0-2.4-.06-3.59,.03-.48,.04-1.08,.29-1.38,.65-4.27,5.21-11.26,5.97-16.46,1.69-1.03-.85-1.86-1.93-2.88-3.02-1.24,.82-2.52,1.68-3.81,2.53,.58,.29,1.05,.17,1.43,.32,.41,.16,.73,.56,1.08,.85-.34,.36-.63,.92-1.04,1.03-.67,.18-1.42,.06-2.14,.06-1.77,0-2.54,.58-3.15,2.46,2.46,0,4.88,0,7.31,0,.72,0,1.44,.04,1.46,.98,.02,.98-.74,.98-1.44,.98-2.59,0-5.18-.02-7.77,.02-.38,0-.94,.17-1.09,.44-.42,.74-.66,1.59-1.04,2.58,.62,0,1,0,1.39,0,3.67,0,7.34,0,11,0,.77,0,1.69-.07,1.68,1-.01,1.11-.98,.94-1.72,.94-3.75,0-7.49,0-11.24,0-1.67,0-1.72,.04-1.81,1.7-.02,.27,0,.55,0,.97Zm11.94-20.25c.73,4.45,6.26,7.99,10.94,7.07,3.75-.73,6.24-2.95,7.18-6.67,.97-3.82-.53-8.04-3.73-10.13-4.35-2.84-9.23-3.78-14.37-3.36-1.56,.13-1.97,.83-1.77,2.56,.81,0,1.64,0,2.47,0,.68,0,1.22,.2,1.21,.98-.02,.77-.57,.96-1.25,.96-.86,0-1.72,0-2.6,0,0,.58,.02,.93,0,1.29-.08,1.06,.35,1.52,1.46,1.39,.75-.09,1.51,0,2.27-.02,.73,0,1.45,.1,1.42,1.03-.02,.84-.69,.95-1.38,.94-1.05-.02-2.09,0-3.17,0q.3,2.03,2.04,2.03c1.12,0,2.23,0,3.35,0,.7,0,1.35,.12,1.34,.97,0,.85-.66,.97-1.36,.97-1.35,0-2.69,0-4.06,0Zm40.47,11.31c1.22,0,2.44,0,3.66,0,.69,0,1.34,.11,1.36,.97,.01,.86-.62,1-1.32,.99-1.67,0-3.35,0-5.02,0-1.5,0-2.92,1.17-3.29,2.77,1.6,0,3.2,0,4.79,0,.69,0,1.36,.07,1.38,.93,.01,.93-.69,1.03-1.43,1.03-1.59,0-3.19,0-4.78,0-1.8,0-2.25,.39-2.62,2.28,.15,.02,.31,.06,.46,.06,4.5,0,9.01,0,13.51,0,.27,0,.58-.02,.81-.13,2.95-1.48,5.68-3.24,7.6-6.01,1.42-2.05,1.55-4.19,.06-6.23-3.58-4.88-7.73-9.21-12.73-12.67-.7-.49-1.51-.83-2.48-1.36,.06,.61,.03,.97,.13,1.29,1.17,3.64,2.35,7.27,3.59,10.89,.11,.31,.66,.61,1.04,.66,.78,.11,1.62-.08,2.37,.09,.4,.09,.69,.69,1.03,1.07-.37,.28-.72,.6-1.12,.83-.18,.1-.47,.04-.71,.01-2.5-.31-4.43,.92-6.29,2.55Z"/>
      <path d="M38.17,37.61c4.76,.03,7.5,2.39,8.05,6.48,.21,1.53,.46,3.11,.31,4.63-.27,2.95-2.48,5.25-5.52,5.85-2.42,.47-4.88,.73-7.33,1.08-.74,.11-1.08-.2-1.19-.96-.66-4.98-1.35-9.95-2.05-14.92-.09-.67,.05-1.11,.77-1.21,2.52-.35,5.05-.69,6.94-.95Zm-2.73,4.5c.42,3.03,.84,6.03,1.26,9.1,1.03-.14,1.89-.24,2.75-.39,2.04-.37,2.84-1.49,2.58-3.55-.04-.32-.1-.63-.13-.94-.54-4.6-1.35-5.2-5.91-4.38-.15,.03-.29,.09-.54,.17Z"/>
      <path d="M17.36,12.73c1.72-.55,3.34-1.07,5.09-1.63-.55-1.74-1.05-3.4-1.62-5.04-.33-.92-.11-1.39,.84-1.67,3.7-1.06,2.96-1.59,4.2,2.18,1.3,3.97,2.52,7.97,3.84,11.93,.34,1.04,.12,1.51-.93,1.82-3.69,1.11-2.86,1.28-4-2.02-.36-1.05-.69-2.11-1.09-3.35-1.69,.53-3.33,1.04-5.12,1.6,.55,1.72,1,3.36,1.59,4.95,.4,1.09,.1,1.65-1,1.89-.47,.1-.92,.26-1.37,.41q-1.6,.51-2.1-1.04c-1.44-4.51-2.86-9.03-4.34-13.53-.33-1-.2-1.52,.89-1.85,3.68-1.12,2.91-1.26,4.03,1.99,.37,1.08,.72,2.17,1.1,3.34Z"/>
      <path d="M44.41,17.77c-.25-.29-.77-.67-.96-1.18-.42-1.12-1.07-1.37-2.2-1.12-1.32,.29-2.67,.44-4.02,.56-.68,.06-.95,.34-1.08,1-.39,1.93-.42,1.92-2.31,2.16-2.59,.34-2.8,.78-2.14-2.37,.96-4.56,1.86-9.12,2.74-13.69,.21-1.09,.65-1.74,1.85-1.74,.55,0,1.1-.14,1.66-.21q2.46-.32,3.56,1.82c2.16,4.26,4.32,8.52,6.46,12.79,.62,1.23,.52,1.38-.83,1.58-.79,.12-1.57,.23-2.72,.4Zm-3.47-6.16c-.89-1.8-1.69-3.42-2.49-5.04-.08,0-.17,.01-.25,.02-.35,1.76-.7,3.53-1.09,5.5,1.35-.17,2.5-.31,3.83-.48Z"/>
      <path d="M62.82,53.89c-2.5-.02-2.13-.03-2.8-1.91-.12-.34-.61-.75-.96-.78-1.67-.11-3.35-.16-5.01-.08-.38,.02-.96,.57-1.05,.96-.31,1.37-1.09,1.85-2.41,1.62-.08-.01-.16,0-.24,0-2.89,.02-2.68,.07-1.73-2.58,1.57-4.38,3.19-8.75,4.74-13.15,.37-1.06,.94-1.59,2.09-1.48,.87,.08,1.75,.12,2.63,.06,1.09-.07,1.66,.35,2,1.41,1.55,4.81,3.17,9.6,4.76,14.4,.46,1.39,.36,1.53-1.06,1.53-.32,0-.64,0-.96,0Zm-6.01-12.01c-.08,0-.16,0-.24,0-.6,1.72-1.21,3.44-1.85,5.28h3.79c-.59-1.85-1.14-3.57-1.69-5.28Z"/>
      <path d="M71.74,12.93c-.24,1.46-.5,2.82-.68,4.19-.13,1.02-.58,1.34-1.6,1.14-3.74-.7-3.26-.09-2.71-3.57,.66-4.21,1.42-8.4,2.07-12.61,.16-1.07,.54-1.44,1.64-1.22,2.15,.42,4.32,.7,6.47,1.1,.85,.16,1.71,.41,2.5,.78,2.53,1.17,3.6,3.42,3.05,6.2-.55,2.76-2.3,4.4-5.08,4.5-1.38,.05-2.76-.21-4.15-.34-.47-.04-.93-.11-1.5-.18Zm1.25-7.7c-.21,1.35-.38,2.51-.57,3.77,1.26,.2,2.38,.46,3.51,.53,.99,.06,1.78-.4,1.99-1.48,.21-1.02-.28-1.87-1.38-2.16-1.1-.29-2.24-.42-3.56-.66Z"/>
      <path d="M54.54,11.69c0,1.44,0,2.74,0,4.04,0,1.46-.15,1.63-1.55,1.59-3.63-.12-3.08,.48-3.06-3.13,.02-4.26,.15-8.52,.18-12.78,0-1,.29-1.45,1.37-1.4,2.58,.12,5.18,.03,7.76,.25,4.07,.35,6.18,3.53,5.12,7.46-.63,2.34-2.34,3.45-4.58,3.8-1.25,.19-2.54,.13-3.81,.17-.43,.01-.85,0-1.44,0Zm.29-7.63c-.71,3.47-.38,3.88,3.01,3.7,.12,0,.24,0,.36-.02,1.01-.13,1.72-.59,1.79-1.7,.07-1.07-.48-1.82-1.64-1.94-1.13-.12-2.28-.03-3.51-.03Z"/>
      <path d="M91.59,12.44c1.49-1.43,2.84-2.65,4.09-3.97,.81-.85,1.61-1.2,2.73-.64,.64,.31,1.35,.46,2.03,.7,1.05,.36,.81,.87,.17,1.45-1.85,1.7-3.69,3.4-5.53,5.11-.03,.03-.06,.06-.09,.08-2.4,1.61-3.47,4.03-4.19,6.69-.4,1.46-.53,1.47-1.92,.99-3.39-1.18-3.12-.54-1.88-3.91,.68-1.86,.82-3.64,.39-5.58-.6-2.72-.99-5.48-1.45-8.23-.21-1.25,.06-1.51,1.24-1.09,4,1.41,3.12,.44,3.78,4.44,.2,1.24,.4,2.49,.63,3.97Z"/>
      <path d="M73.02,44.43c1.27-1.74,2.45-3.28,3.54-4.89,.58-.85,1.24-1.15,2.22-.9,.65,.16,1.34,.21,2,.33,1.26,.22,1.4,.5,.64,1.51-1.84,2.46-3.67,4.92-5.57,7.33-.86,1.09-1.54,2.2-1.55,3.64,0,.55-.17,1.1-.24,1.65-.34,2.44-.18,2.26-2.7,1.9-2.22-.32-2.31-.37-1.85-2.53,.53-2.46,.36-4.74-.68-7.07-1.04-2.32-1.78-4.78-2.64-7.18-.45-1.25-.21-1.53,1.11-1.3,4.01,.68,3.07-.12,4.4,3.69,.42,1.19,.82,2.39,1.3,3.81Z"/>
      <path d="M2.84,75.39c.09-.36,.21-.82,.33-1.28,.57-2.11,1.11-4.23,1.71-6.34,.35-1.26,1.06-1.47,1.98-.59,1.83,1.78,3.62,3.58,5.4,5.4,.84,.86,.65,1.6-.49,1.93-2.49,.7-4.99,1.36-7.49,2.01-.93,.24-1.45-.17-1.44-1.13Zm6.89-2.37c-1.17-1.17-2.19-2.19-3.31-3.31-.4,1.47-.79,2.89-1.23,4.51,1.67-.44,3.07-.81,4.54-1.2Z"/>
      <path d="M84.84,30.85c-.45,1.4-.81,2.52-1.17,3.62-2.02-.29-2.04-.31-1.52-2.03,.57-1.93,1.15-3.86,1.74-5.85,2.93,.44,1.95,3.27,3.23,4.72,.35-1.13,.7-2.25,1.04-3.33,1.99,.13,2.07,.23,1.57,1.94-.47,1.6-.92,3.21-1.44,4.8-.13,.38-.64,1-.75,.95-.53-.21-1.21-.51-1.43-.98-.52-1.14-.81-2.38-1.28-3.84Z"/>
      <path d="M38.54,28.35c.11,.9,.18,1.82,.35,2.71,.17,.86-.4,.89-.95,1-.65,.13-1.04,0-1.13-.78-.2-1.9-.51-3.78-.71-5.68-.04-.39,.2-1.14,.33-1.15,.57-.01,1.3,0,1.68,.34,.91,.81,1.66,1.81,2.71,2.67-.12-.86-.22-1.72-.36-2.58-.1-.62-.08-1.09,.74-1.17,.69-.06,1.23-.12,1.32,.83,.19,1.82,.5,3.62,.7,5.44,.05,.44-.18,.91-.28,1.36-.61-.15-1.37-.11-1.8-.48-.89-.76-1.6-1.74-2.38-2.62-.08,.03-.15,.07-.23,.1Z"/>
      <path d="M1.1,25.65c2.27,.2,4.26,.35,6.24,.57,1.19,.13,1.51,.83,.84,1.82-1.12,1.65-2.27,3.28-3.44,4.88-.71,.97-1.46,.89-1.99-.19-.87-1.79-1.7-3.6-2.5-5.42-.48-1.08-.02-1.69,.86-1.66Zm4.66,2.4c-1.18-.09-2.06-.16-3.13-.25,.48,1,.86,1.8,1.32,2.77,.62-.87,1.13-1.59,1.8-2.52Z"/>
      <path d="M90.21,55.36c.08,1.44-.47,1.84-1.79,1.27-1.75-.76-3.5-1.53-5.23-2.33-1.14-.53-1.21-1.32-.2-2.07,1.56-1.16,3.15-2.3,4.74-3.42,1.04-.72,1.71-.43,1.88,.85,.24,1.89,.4,3.79,.6,5.69Zm-2.43-4.15c-.92,.68-1.64,1.2-2.51,1.85,1,.44,1.82,.8,2.84,1.24-.12-1.13-.21-1.98-.33-3.09Z"/>
      <path d="M97.17,34.06c-.74-.66-1.38-1.13-1.9-1.72-.81-.93-1.95-.88-2.54,.22-.28,.52-.59,1.11-.59,1.67,0,.54,.22,1.24,.61,1.58,.53,.47,1.25,.46,1.79-.36-.31-.23-.61-.45-.98-.72,.2-.48,.39-.94,.63-1.52,1.03,.41,1.97,.79,2.88,1.15-.62,2.86-2.09,3.99-4.29,3.42-2.13-.54-3.21-2.25-2.66-4.19,.88-3.13,2.5-4.32,4.83-3.56,1.85,.6,2.87,2.15,2.22,4.01Z"/>
      <path d="M24.93,31.8c-.66,.2-1.15,.34-1.64,.49-.18,.06-.35,.15-.6,.27,.11,.42,.19,.8,.31,1.17q.52,1.73-1.53,2.15c-.39-1.29-.79-2.61-1.19-3.92-.2-.65-.39-1.3-.59-1.94-.49-1.65-.37-1.81,1.55-1.94,.28,.83,.57,1.68,.9,2.65,.77-.22,1.48-.42,2.27-.65-.19-.67-.31-1.26-.53-1.8-.29-.73-.21-1.18,.65-1.41,.76-.21,1.15-.09,1.37,.75,.49,1.85,1.08,3.67,1.64,5.5,.19,.6,.25,1.06-.56,1.25-.68,.16-1.24,.36-1.44-.6-.13-.62-.37-1.21-.61-1.94Z"/>
      <path d="M63.87,28.47c-.35-.26-.82-.44-.97-.76-.36-.8,.1-1.41,1-1.3,.77,.09,1.87,.15,2.18,.63,.55,.87-.23,2.8-1.12,3.42-1.3,.89-2.7,.92-4.08,.23-1.3-.64-1.74-1.78-1.65-3.18,.04-.52,.03-1.04,.1-1.55,.2-1.55,1.26-2.59,2.82-2.79,1.72-.22,3.35,.57,3.91,1.9,.09,.21,.09,.45,.15,.73-.93,.16-1.69,.2-2.46-.5-.92-.84-2.1-.4-2.35,.82-.13,.65-.25,1.39-.07,2,.13,.46,.66,.95,1.13,1.12,.62,.22,1.27,.02,1.42-.79Z"/>
      <path d="M58.08,25.48c-.96-.22-1.71-.32-2.41-.56-.74-.25-1.4-.47-2.18,.52,.86,.25,1.52,.41,2.17,.63,.64,.21,1.33,.37,1.86,.74,.95,.66,.97,2.2,.14,3.08-1.35,1.44-4.66,1.3-5.84-.27-.22-.29-.31-.68-.46-1.03,.07-.13,.13-.25,.2-.38,.75,.18,1.54,.27,2.25,.56,.82,.33,1.56,.47,2.51-.27-.5-.24-.84-.46-1.21-.58-.65-.2-1.32-.3-1.97-.49-.88-.27-1.56-.91-1.45-1.81,.09-.75,.45-1.66,1-2.11,1.79-1.43,4.75-.5,5.38,1.96Z"/>
      <path d="M48.3,26.87c.57,.63,1.1,1.22,1.62,1.81,.51,.59,1.02,1.18,1.55,1.79-2.45,1.28-3.21-.95-4.68-2.18,.04,.78,.05,1.35,.11,1.91,.09,.73-.34,.89-.93,.9-.56,.01-1.15,.12-1.19-.75-.1-2.06-.22-4.13-.34-6.19-.06-.94,.65-.81,1.21-.89,.64-.09,.84,.24,.85,.83,0,.45,.08,.91,.15,1.6,1.23-1.33,1.75-3.39,4.23-2.47-.83,1.18-1.65,2.35-2.56,3.64Z"/>
      <path d="M28.44,33.79c.34-2.65,.61-5.1,1.01-7.52,.05-.32,.7-.68,1.12-.77,.52-.1,1.41-.14,1.6,.15,1.38,2.08,2.62,4.24,3.97,6.48-1.01,.3-1.64,.74-2.59-.17-.41-.39-2.48,.07-2.78,.66-.56,1.08-1.26,.98-2.32,1.17Zm2.94-5.79c-.08,.03-.17,.05-.25,.08-.08,.7-.16,1.39-.25,2.25,.63-.14,1.1-.24,1.67-.36-.45-.76-.81-1.36-1.16-1.97Z"/>
      <path d="M71.41,24.28c1.82-.18,2-.05,2.22,1.46,.17,1.17,.31,2.35,.71,3.57,.54-1.03,1.09-2.07,1.63-3.1,.75-1.43,.93-1.49,2.61-.71-1.17,2.21-2.3,4.43-3.53,6.6-.37,.65-2.42,.31-2.55-.43-.42-2.45-.74-4.93-1.1-7.4Z"/>
      <path d="M97.87,64.69c0,.94-.52,1.42-1.38,1.13-1.43-.48-2.83-1.02-4.21-1.62-.83-.36-.94-1.11-.26-1.71,1.13-.99,2.31-1.94,3.51-2.84,.72-.54,1.38-.25,1.62,.62,.11,.42,.16,.86,.23,1.29,.17,1.06,.33,2.11,.49,3.13Z"/>
      <path d="M18.38,30.64c-.75,.36-1.34,.64-2.02,.96,.71,1.83,1.4,3.59,2.08,5.33-1.59,1.13-1.76,1.1-2.43-.55-.54-1.32-1.05-2.65-1.6-4.03-.72,.24-1.35,.46-2.09,.71-.22-.5-.41-.95-.68-1.58,2.03-.81,3.96-1.58,6.03-2.41,.24,.54,.44,.98,.7,1.56Z"/>
      <path d="M23.72,51.8c-1.54,0-2.72-1.16-2.74-2.69-.01-1.56,1.24-2.85,2.75-2.83,1.55,.02,2.78,1.3,2.75,2.84-.03,1.5-1.24,2.68-2.77,2.68Zm1.04-2.77c-.49-.34-.79-.71-1.05-.68-.27,.03-.68,.47-.67,.72,0,.25,.43,.66,.7,.68,.26,.02,.55-.37,1.02-.72Z"/>
      <path d="M102.46,23.7c-1.49-.03-2.71-1.27-2.7-2.77,0-1.55,1.27-2.78,2.83-2.75,1.53,.03,2.77,1.34,2.7,2.88-.06,1.49-1.33,2.67-2.83,2.64Zm1.11-2.74c-.44-.35-.77-.78-.98-.74-.32,.07-.57,.48-.84,.75,.26,.25,.51,.66,.79,.69,.27,.02,.57-.37,1.03-.7Z"/>
      <path d="M5.53,15.58c.02,1.55-1.24,2.81-2.79,2.8C1.26,18.38,.02,17.13,0,15.65c-.02-1.51,1.15-2.72,2.68-2.76,1.61-.04,2.83,1.12,2.85,2.7Zm-2.75,1.06c.35-.48,.75-.78,.72-1.04-.03-.28-.46-.7-.72-.7-.25,0-.68,.43-.71,.7-.03,.26,.36,.56,.71,1.04Z"/>
      <path d="M96.61,87.83c.02-1.57,1.26-2.75,2.85-2.72,1.5,.03,2.7,1.27,2.67,2.78-.03,1.55-1.33,2.8-2.86,2.74-1.51-.06-2.68-1.29-2.67-2.8Zm3.83-.04c-.51-.31-.84-.67-1.11-.63-.27,.04-.49,.48-.72,.74,.27,.23,.53,.64,.81,.65,.27,0,.56-.39,1.03-.76Z"/>
      <path d="M100.33,50.87c0,1.53-1.17,2.75-2.67,2.78-1.55,.03-2.85-1.22-2.85-2.75,0-1.53,1.29-2.81,2.82-2.79,1.5,.03,2.7,1.24,2.7,2.75Zm-2.77-1.06c-.33,.51-.71,.83-.67,1.1,.03,.28,.47,.5,.73,.75,.24-.27,.65-.52,.67-.81,.02-.27-.37-.56-.73-1.04Z"/>
      <path d="M67.14,31.27c.28-2.35,.55-4.64,.82-6.92,.1-.83,.7-.59,1.18-.55,.57,.05,.95,.21,.85,.97-.26,1.77-.41,3.56-.63,5.34-.21,1.72-.25,1.74-2.22,1.17Z"/>
      <path d="M78.19,33.39c.6-2.58,1.12-4.81,1.63-7.05,.19-.82,.79-.58,1.21-.4,.33,.14,.78,.63,.73,.88-.4,2.06-.83,4.12-1.4,6.14-.38,1.34-1.27,.17-2.17,.43Z"/>
      <path d="M32.01,93.15c-.59,0-1.22,.11-1.77-.04-.4-.11-.7-.57-1.05-.88,.32-.34,.62-.93,.96-.97,1.26-.12,2.54-.12,3.79,0,.35,.03,.65,.62,.97,.95-.34,.31-.63,.8-1.02,.9-.59,.15-1.26,.04-1.89,.04Z"/>
      <path d="M44.62,88.18c-.59,0-1.22,.11-1.77-.04-.36-.1-.91-.62-.87-.87,.06-.38,.53-.96,.87-.99,1.29-.11,2.61-.1,3.91,0,.31,.03,.81,.6,.81,.92,0,.32-.48,.84-.82,.91-.68,.14-1.41,.04-2.13,.04,0,0,0,.02,0,.03Z"/>
      <path d="M32.33,75.72c-.5-.19-1.09-.25-1.37-.58-.2-.23,0-1.19,.06-1.19,.94-.08,1.88-.07,2.82,.02,.06,0,.22,1.02,.02,1.21-.36,.32-.97,.37-1.53,.55Z"/>
    </g>
  </g>
</svg>