<?xml version="1.0" encoding="UTF-8"?>
<svg id="_图层_2" data-name="图层 2" xmlns="http://www.w3.org/2000/svg" viewBox="0 0 128.8 129.49">
  <defs>
    <style>
      .cls-1 {
        fill-rule: evenodd;
      }
    </style>
  </defs>
  <g id="_图层_2-2" data-name=" 图层 2">
    <g>
      <path class="cls-1" d="M102.15,78.29v-4.44c0-9.91-13.48-17.21-23.87-17.21h-.56c-5.53,0-10.43,.93-15.42,1.79-4.6,.79-7.94,3.21-14,3.21l-5.7,.29-4.29,5.82c3.43,2.3,6.39,3.57,9.9,6.2,3.38,2.53,5.52,5.77,8.74,7.91,6.56,4.37,11.32,11.43,21.88,11.43h6.11c5.84,0,8.99-1.06,12.09-4.01,2.1-2,5.12-7.46,5.12-10.98Zm-18.32,11.1h-2.78c-3.19,0-9.27-1.58-10.55-3.33,1.93,.45,5.93,1.67,7.77,1.67h5c5.14,0,7.01-1.89,9.99-3.89-.79,2.97-5.64,5.55-9.44,5.55Z"/>
      <path class="cls-1" d="M37.22,66.93l2.78-5.55-.59-.29c-9.45-2.2-8.95-10.55-14.43-10.55h-.56c-2.26,0-2.99,.88-3.89,2.22-1.98,4.13,.37,7.51,3.89,8.33v1.11c-2.59-.06-3.34-.17-3.97-2.43l-3.25,1.32c-1.04,1.55-2.22,1.92-2.22,4.44v1.11c0,1.98,3.22,4.44,5.55,4.44h1.67c4.24,0,5.58-4.44,14.43-4.44l.58,.29Z"/>
      <path class="cls-1" d="M54.96,42.21c-.39,4.69-5.59,2.1-6.57,6.37l8.24-2.48c-1.06,3.97-5.68,1.67-5.99,5.83l7.65-3.05c-1.2,4.48-5.67,1.59-6.11,5.55,3.65-.85,9.44-3.67,9.44-7.77,0-1.5-.27-1.53-.56-2.78,2.79-.65,9.8-3.87,13.1-5.22,2.96-1.21,11.32-3.7,11.32-7,0-.68-1.15-1.67-2.22-1.67-2.3,0-19.82,10.37-23.32,12.21-.8-.54-2.9-2.22-3.89-2.22h-1.11c-2.69,0-7.77,2.89-8.25,5.19l8.25-2.97Z"/>
      <path class="cls-1" d="M67.73,101.61c0-3.67-14.51-11.15-17.77-13.32,0-6.28-10.13-11.1-16.66-11.1,1.5,2.24,30.55,26.09,32.2,26.09,1.07,0,2.22-.99,2.22-1.67Z"/>
      <path class="cls-1" d="M124.91,73.85l-6.11-1.67h-2.78l.02,1.54,4.98,.68v2.22h-1.67c-1.91,0-2.15-.41-3.89-.56,.32,2.92,6.92,3.33,9.99,3.33,1.3,0,2.22-.92,2.22-2.22v-1.11c0-1.24-.44-1.22-1.11-2.22h-1.67Zm0,3.89h-2.22v-2.78c1.25,.1,3.89,.5,3.89,1.67,0,.78-.76,1.11-1.67,1.11Z"/>
      <path class="cls-1" d="M4.45,72.87l8.32-.68-.02-1.81-5.53,.7v-2.78h3.33c1.54,0,1.33-.43,1.65-1.82l-9.98,.75c-.95,.59-2.22,1.17-2.22,2.74,0,1.29,1.48,2.78,2.78,2.78l1.68,.13Zm-2.79-2.9c0-.78,.76-1.11,1.67-1.11h2.22v2.22H3.33c-.91,0-1.67-.33-1.67-1.11Z"/>
      <polygon class="cls-1" points="13.87 77.64 8.33 78.29 8.4 76.32 13.47 74.92 13.19 73.76 1.13 76.17 1.16 77.93 6.66 76.63 6.66 79.39 2.22 79.96 2.27 81.85 13.88 79.4 13.87 77.64"/>
      <path class="cls-1" d="M67.18,122.15h-2.22v-5h-1.67v8.33c0,1.69,.53,2.24,1.11,3.33l2.34,.68,2.1-2.34v-9.99h-1.67v5Zm0,3.89c0,.91-.33,1.67-1.11,1.67s-1.11-.76-1.11-1.67v-2.22h2.22v2.22Z"/>
      <path class="cls-1" d="M113.81,86.62h-.56c-1.5,0-2.22,1.48-2.22,2.78,0,2.69,6.22,5.55,8.88,5.55h.56c1.5,0,2.22-1.48,2.22-2.78,0-2.23-6.76-5.55-8.88-5.55Zm5.55,6.66c-2.3,0-6.46-2.55-6.66-5,2.1,.05,8.33,2.8,8.33,3.89,0,.78-.76,1.11-1.67,1.11Z"/>
      <path class="cls-1" d="M47.19,15c1.24-2.59-.57-6.26-1.67-8.33-.28-1.06-1.08-2.78-2.22-2.78-2.02,0-1.95,.66-4.28,1.25l4.36,11.68,3.81-1.83Zm-5-9.44c1.91,0,3.89,5.96,3.89,7.77,0,1.14-1.14,1.02-2.22,1.11-.19-2.34-4.08-8.88-1.67-8.88Z"/>
      <path class="cls-1" d="M93.27,20.56c2.82,0,6.66-5.58,6.66-8.33v-.56c0-1.58-1.92-2.78-3.33-2.78-.91,0-5.82,8.18-6.66,9.44,.56,.76,2.13,2.22,3.33,2.22Zm3.32-9.96l1.64,.63,.55,.16-3.91,7.47c-1.16,0-2.71,.2-2.71-1.08,0-.14,3.93-6.26,4.43-7.19Z"/>
      <path class="cls-1" d="M74.39,116.04c.29,1.25,.56,1.28,.56,2.78v2.78c-2.7-.22-2.71-2.01-2.78-5h-1.67l.56,3.89,1.11,2.22c-.38,.68-.56,.59-.56,1.67,0,2.04,.86,2.68,1.68,4l4.43-.67-1.62-11.67h-1.71Zm-1.11,8.89c0-1.69,.96-1.89,2.22-2.22l.67,3.86c-1.9-.02-2.9,.2-2.9-1.64Z"/>
      <path class="cls-1" d="M51.6,13.9l-1.08-5.56h2.78c.06,2.59,.16,4.45,2.48,4.94l-1.93-8.27v-1.67c-1.14-.77-1.44-1.67-2.78-1.67h-.56c-1.48,0-1.64,.8-2.22,1.67,0,3.39,.25,10.21,3.3,10.55Zm-2.17-10s1.01-.55,1.08-.55l1.16-.02,1.03,3.24-2.61,.64-.66-3.31Z"/>
      <path class="cls-1" d="M100.49,20c.91,0,1.67,.33,1.67,1.11,0,2.78-3.65,1.92-2.22,5,1.47-.99,7.22-6.96,7.22-8.88,0-1.15-1.62-2.78-2.22-2.78-3.25,0-7.39,6.1-8.88,8.33,3.17,1.47,2.88-2.78,4.44-2.78Zm3.89-3.89c.78,0,1.11,.76,1.11,1.67,0,.35-1.25,1.6-1.67,2.22l-2.22-1.11c.38-1.41,1.07-2.78,2.78-2.78Z"/>
      <path class="cls-1" d="M69.4,7.23h2.22v5.55l1.48-.02,1.3-12.19h-1.67V2.79c0,2.41-.36,2.72-2.78,2.78V2.23c0-1.87,1.91-1.42-1.25-2.23l-.97,12.23h1.67V7.23Z"/>
      <path class="cls-1" d="M78.28,117.71c0,1.31,1.09,2.47,1.67,3.33l1.11,5,5-.56-3.19-11.7c-2.75,.65-4.59,.74-4.59,3.93Zm1.67,0c0-1.68,.65-1.53,2.22-1.67l.64,3.31c-1.86-.02-2.86,.2-2.86-1.65Zm4.41,6.67c-1.44,.72,.48,.55-1.64,.55-.78,0-1.11-.76-1.11-1.67v-.56c0-1.68,.65-1.53,2.22-1.67l.53,3.34Z"/>
      <path class="cls-1" d="M78.92,13.99l2.14-1.76c0-5.11,3.07-5.25,.56-9.99h-2.78c-2.49,1.67-3.33,5.4-3.33,9.44,0,1.24,.44,1.22,1.11,2.22l2.31,.09Zm2.14-10.09c-.26,3.11-.57,8.05-3.89,8.33,0-3.76-.04-8.24,3.89-8.33Z"/>
      <path class="cls-1" d="M48.3,115.49c-1.41,2.11-2.78,6.03-2.78,9.44,0,.6,1.62,2.22,2.78,2.22,1.24,0,1.22-.44,2.22-1.11,.64-1.33,2.22-6.43,2.22-8.33,0-1.17-.2-.73-.56-2.22h-3.89Zm0,9.99c-2.38,0,.15-8.88,1.67-8.88,.78,0,1.11,.76,1.11,1.67,0,1.35-1.55,7.22-2.78,7.22Z"/>
      <path class="cls-1" d="M34.98,21.11c1.57,0,2.14-1.27,2.78-2.22v-1.67l-2.22-3.89-2.94,1.37c1.8,1.08,3.5,1.21,3.5,3.63,0,.49-.62,1.11-1.11,1.11-.93,0-4.44-5.73-4.44-6.66v-1.67l2.53,1.21-.27,.56,1.63-.66c-.34-1.26-.53-2.22-2.22-2.22h-1.11c-1.3,0-2.22,.92-2.22,2.22,0,1.5,.26,1.53,.56,2.78,1.32,1.52,3.55,6.11,5.55,6.11Z"/>
      <path class="cls-1" d="M108.81,92.17v1.67c1.58,.84,7.77,4.28,7.77,6.11,0,3.24-8.61-3.89-9.44-4.44l-1.11,.56c.48,1.33,7.78,6.66,9.44,6.66,1.29,0,2.78-1.48,2.78-2.78v-.56c0-1.87-7.66-6.8-9.44-7.22Z"/>
      <path class="cls-1" d="M41.08,122.71c-1.08-.09-2.22,.03-2.22-1.11,0-3.24,5.84-9.03,2.32-9.95l-4.18,9.87c.6,.84,1.41,2.86,2.42,2.86,3.55,0,6.58-7.54,6.66-11.1-1.92,.51-4.49,7.27-5,9.44Z"/>
      <path class="cls-1" d="M28.87,26.66c1.41-3.04-5.22-6.05-5.55-9.99,3.07,.07,7.14,4.85,7.77,7.22,3.59-.96-1.6-4.64-3.33-7.22-1.14-.77-1.44-1.67-2.78-1.67h-1.11c-2.38,0-2.44,2.88-1.67,4.44l6.66,7.22Z"/>
      <path class="cls-1" d="M12.77,57.2v-1.11c-1.38-.32-5-.4-5-1.67,0-.91,.33-1.67,1.11-1.51l4.99,.03,.04-.99-6.14-.3c-1.2-.81-1.85-1.67-3.89-1.67H1.67v1.11c3.56,.83,4.36-.4,4.43,3.43l-5.54-.66c.77,2.89,8.64,3.33,12.21,3.33Z"/>
      <path class="cls-1" d="M12.21,64.97v-1.67c-1.88,0-10.55-.15-10.55-1.67,0-2.92,4.69-1.11,7.77-1.11h2.78v-1.67H2.22c-1.3,0-2.22,.92-2.22,2.22v.56c0,3.33,8.61,3.33,12.21,3.33Z"/>
      <path class="cls-1" d="M20.54,32.77h1.67c6.63,0-6.15-9.65-6.66-9.99l-1.11,1.67c2.39,.64,6.63,4.15,7.22,6.66-5.17-.12-6.92-5.91-9.44-4.44,.64,1.76,5.91,6.11,8.33,6.11Z"/>
      <path class="cls-1" d="M8.33,39.99c1.42,.75,4.85,2.78,6.66,2.78h.56c1.3,0,2.22-.92,2.22-2.22,0-2.99-2.85-4.22-5.53-4.44l-.58,2.77c.65-.17,1.51-.56,1.67-.56,.91,0,2.78,.81,2.78,1.67,0,3.67-7.76-1.22-8.33-3.33,.01,0,1.04-.56,1.11-.56,1.27,0,.65,.19,2.22,.56l.43-.43-2.65-1.79c-1.26,.34-2.22,.53-2.22,2.22v1.11c0,1.48,.8,1.64,1.67,2.22Z"/>
      <path class="cls-1" d="M123.25,81.62c-2.72,0-7.39,4.59-7.77,0h1.67c1.54,0,1.34-.43,1.67-1.67h-2.78c-1.5,0-2.22,1.48-2.22,2.78,0,1.15,1.62,2.78,2.22,2.78,2.91,0,4.82-2.41,8.33-1.67-.09,1.08,.03,2.22-1.11,2.22-1.27,0-.65-.19-2.22-.56v1.67h2.78c1.38,0,2.22-1.53,2.22-2.22,0-1.54-1.55-3.33-2.78-3.33Z"/>
      <path class="cls-1" d="M126.58,58.86h-.56c-1.8,0-4.65,3.46-6.23,4.56l-1.59-1.87,2.82-1.03c-.2-.83-.12-1.67-1.11-1.67-2.32,0-3.14,1.64-3.33,3.89,.85,.98,1.51,2.22,3.33,2.22,.63,0,5.48-4.44,6.11-4.44,1.56,0,1.03,.24,1.78,1.27l-2.89,2.61h1.67c1.24,0,1.22-.44,2.22-1.11v-2.78c-.58-.86-.74-1.67-2.22-1.67Z"/>
      <path class="cls-1" d="M5.55,47.76c2.77,0,3.68-1.67,6.11-1.67h1.67c-.23,2.82-.7,2.15-2.78,1.67,.09,1.08-.03,2.22,1.11,2.22,2.44,0,2.51-.67,3.33-2.22v-2.22c-1-.67-.98-1.11-2.22-1.11-3.63,0-4.55,1.59-7.77,1.67v-2.22h2.78v-1.67h-2.22c-1.26,.34-2.22,.53-2.22,2.22v1.11c0,1.38,1.53,2.22,2.22,2.22Z"/>
      <path class="cls-1" d="M38.86,111.6c0-1.3-.92-2.22-2.22-2.22h-1.11c-.9,0-1.77,.67-2.22,1.11l.56,6.66c.18,1.53-.34,1.1-1.11,1.67-.49-.28-1.11-.36-1.11-1.11,0-1.27,.19-.65,.56-2.22-1.57,.13-2.22-.01-2.22,1.67v.56c0,1.15,1.62,2.78,2.22,2.78,1.5,0,1.53-.27,2.78-.56,.93-3.99-1.06-7.85,1.11-9.44,3.65,2.67-1.95,2.77,2.22,3.89,.29-1.25,.56-1.28,.56-2.78Z"/>
      <path class="cls-1" d="M102.71,101.61c-.14,0-2.04,.49-2.22,.56-.36,1.49-.56,1.05-.56,2.22,0,1.49,.79,2.13,1.69,2.82l1.08-.6c-.31-.45-1.11-1.37-1.11-1.67,0-.91,.33-1.67,1.11-1.67,1.44,0,5.55,5.45,5.55,5.55,0,2.12,.17,.2-.55,1.64l-3.34-.53c.42,.63,1.3,2.22,2.22,2.22,1.5,0,1.53-.27,2.78-.56,.29-1.25,.56-1.28,.56-2.78,0-1.59-5.01-7.22-7.22-7.22Z"/>
      <path class="cls-1" d="M95.49,106.61l-1.11,.56c.77,2.87,1.07,1.7,3.08,.35l1.79,3.34-1.59,1.33,.6,1.08c.45-.31,1.37-1.11,1.67-1.11,1.57,0,1.99,1.6,2.56,2.61l-1.45,2.39h1.11c.63-.42,2.22-1.3,2.22-2.22,0-2.14-5.38-6.7-6.22-9.69l-2.66,1.36Z"/>
      <path class="cls-1" d="M87.16,38.88v1.67c0,3.08,3.33,5.05,3.33,7.77,0,3.15-1.11,3.16-1.11,7.22,1.88-.5,2.78-5.11,2.78-7.22s-3.33-5.49-3.33-8.33l.28-1.94,1.39-1.94c-1.79,.15-3.33,.99-3.33,2.78Z"/>
      <path class="cls-1" d="M88.23,111.63l-3.82,1.16c.72,2.73,.47,1.27,3.31,1.03l1.23,3.28-2.31,.67c.66,2.49,.08,1.11,3.31,1.04l1.23,3.28-2.64,1.26,1.42,.46,3.12-1.26-3.68-9.29-1.15-1.64Z"/>
      <path class="cls-1" d="M59.4,12.78h1.11V7.79c0-2.04,1.67-1.29,1.67-3.33V1.68c0-1.54-.43-1.34-1.67-1.67V3.9c0,.91-.33,1.67-1.11,1.67-1.28,0-1.67-.39-1.67-1.67V.57h-1.67V5.01l2.67,2.23,.66,5.54Z"/>
      <path class="cls-1" d="M118.25,66.63c-2.01,0-1.67,1.4-1.67,3.33h1.67v-1.67h3.89l.46,3.08,1.21-2.53h3.33v2.22h1.67v-3.89l-9.43-.69-1.12,.13Z"/>
      <path class="cls-1" d="M106.49,25.43l-4.12,3.61,.63,.84,4.16-3.22c3.72,0,7.41-1.63,6.17-4.35l-4.69,3.22-.91-.92,3.54-5.01-.56-.59-4.11,3.2-.1,3.22Z"/>
      <path class="cls-1" d="M97.15,50.53c0,2.43,1.11,2.02,1.11,4.44v2.22c0,1.91-.41,2.15-.56,3.89,1.71-.46,2.22-1.08,2.22-3.33v-1.11c0-3.39-1.11-4.24-1.11-7.22,0-1.18,1.26-2.69,1.67-4.44-2.22,.59-3.33,2.88-3.33,5.55Z"/>
      <polygon class="cls-1" points="61.18 116.61 59.4 116.6 58.72 121.58 58.85 127.15 57.18 127.15 57.18 128.81 58.29 128.81 61.62 128.81 61.62 127.7 59.96 127.7 61.18 116.61"/>
      <path class="cls-1" d="M15.43,81.84l-10.45,3.61,.02-1.04-1.83,.05,1.27,4.39c2.17-.58,1.52-.3,1.11-2.22,2.92-.24,9.32-1.9,9.87-4.78Z"/>
      <path class="cls-1" d="M86.03,15.07l-2.37-.69,4.06-9.93s-1.04-.56-1.11-.56c-1.13,0-4.4,9.59-4.44,11.66,2.86,.67,3.21,1.97,3.86-.49Z"/>
      <path class="cls-1" d="M20.54,101.61c0-.84,1.09-.63,1.67-2.78-.7,.37-1.84,1.11-2.78,1.11-.71,0-1.74-1.66-2.22-2.22v3.33l-2.22,.56c1.94,2.65,2.67-.71,3.01,4.04l.87-1.82h1.67c2.12,0,.2-.17,1.67,.56-.57-2.15-1.67-1.93-1.67-2.78Z"/>
      <path class="cls-1" d="M116.61,41.66l-.38,3.02,2.02-1.89,2.78,1.09c-.51-1.91-1.11-1.47-1.11-2.22,0-.35,1.25-1.6,1.67-2.22h-2.19s-1.69-2.78-1.69-2.78c-.68,2.94-.1,3.26-3.33,3.33l2.24,1.67Z"/>
      <path class="cls-1" d="M89.38,111.6h1.11l2.03-.44,5.74,8.77,.6-1.08-5.78-9.92c-1.85,.37-3.19,.74-3.71,2.68Z"/>
      <path class="cls-1" d="M26.09,28.88c.49,0,1.11-.62,1.11-1.11,0-.18-6.45-6.07-7.22-7.22l-1.14-1.16-1.08,.6c.4,1.5,7.72,8.88,8.33,8.88Z"/>
      <path class="cls-1" d="M55.52,116.04c-.39,.78-.36,.56-.56,1.67l-1.22,7.2c-.08,1.1-.03,.94-.44,1.68v1.67h1.67c0-3.69,2.82-10.56,.56-12.21Z"/>
      <path class="cls-1" d="M93.27,6.68c-2.04,.54-5.89,8.49-6.11,11.1,2.04-.54,5.89-8.49,6.11-11.1Z"/>
      <path class="cls-1" d="M79.94,47.2c0,2.98,1.67,2.63,1.67,4.44v1.67c.83-.2,1.67-.12,1.67-1.11,0-2.67-1.67-2.88-1.67-5.55v-1.11c2.43-1.28,1.38,.43,1.67-2.22-2.16,.5-3.33,1.25-3.33,3.89Z"/>
      <path class="cls-1" d="M20.79,36.27l-10.79-6.28v1.67c2,.54,9.02,5.55,9.44,5.55,1.25,0-.26,.21,1.35-.94Z"/>
      <path class="cls-1" d="M16.66,96.06c-.51-1.91-1.11-1.47-1.11-2.22s.6-.31,1.14-2.12l-2.31,.54-1.6-1.19v2.22l-2.2,1.04,2.2,.62,.09,2.32,2.17-1.86,1.63,.66Z"/>
      <path class="cls-1" d="M121.22,48.19l-1.3-1.54v2.22l-2.82,.06,2.24,2.15-.52,1.68c.45-.31,1.37-1.11,1.67-1.11,1.27,0,.65,.19,2.32,.52l-.75-1.71,1.76-2.14-2.58-.12Z"/>
      <path class="cls-1" d="M110.48,32.21c.67,1,1.11,.98,1.11,2.22l.12,1.78,1.56-1.81,2.22,1.14-.45-2.58,1.54-1.3-2.63-.06-1.25-2.16c-.05,2.46,.18,2.58-2.22,2.78Z"/>
      <path class="cls-1" d="M28.31,106.05c-1.49,.36-1.05,.56-2.22,.56-.33,0-1.15-.77-1.67-1.11v2.22l-2.22,1.11c2.4,.2,2.17,.31,2.46,2.93l.87-1.82,2.86-.07-1.22-1.61,1.14-2.2Z"/>
      <path class="cls-1" d="M32.76,102.72c.49,0,1.11-.62,1.11-1.11,0-1.55-3.31-3.19-5-3.33,.34,1.27,2.58,4.44,3.89,4.44Z"/>
      <path class="cls-1" d="M73.84,112.71c0-1.86-2.77-.55-4.44-.55-1.54,0-1.34,.43-1.67,1.67h4.44c.91,0,1.67-.33,1.67-1.11Z"/>
      <path class="cls-1" d="M52.19,16.67c-2.09,0-1.05,.37-3.33,.56l-1.94,1.94,.33,.47,5.5-1.31c.23-.57,.83-1.67-.56-1.67Z"/>
      <path class="cls-1" d="M107.15,39.99c-.29,0-1.05,.45-1.11,.56l2.22,5c3.75-1-1.07-5.55-1.11-5.55Z"/>
      <path class="cls-1" d="M61.07,114.38l4.01-.03-.68-2.19-5,.55c.33,1.24,.13,1.67,1.67,1.67Z"/>
      <path class="cls-1" d="M34.98,82.18c-.75-2.83-3.33-2.88-3.33-5,0-1.8,.48-.42,1.11-2.78-1.46,.39-2.22,1.07-2.22,2.78,0,2.47,2.74,4.09,4.44,5Z"/>
      <path class="cls-1" d="M96.04,26.66s-.56,1.04-.56,1.11c0,1.43,2.79,3.19,4.44,3.33-.23-2.81-1.96-3.15-3.89-4.44Z"/>
      <path class="cls-1" d="M21.1,44.43v-1.67c-2.84,.76-1.39,2.21-3.33,4.44v1.11c2.96-.25,1.95-1.27,3.33-3.89Z"/>
      <path class="cls-1" d="M82.17,109.94h-2.78l-3.33,1.11c.77,2.9,5.47,.66,6.11-1.11Z"/>
      <path class="cls-1" d="M89.38,21.67c-.81,0-1.09,.77-1.11,1.67,2.86,.76,2,2.14,5.55,2.22-.38-1.44-3.97-3.89-4.44-3.89Z"/>
      <path class="cls-1" d="M25.54,36.66v-1.11c-2.31,.62-4.32,3.42-3.3,5.6l1.08-.6,2.22-3.89Z"/>
      <path class="cls-1" d="M107.15,90.51l.56-1.67s-1.04-.56-1.11-.56c-.81,0-2.38,3.14-2.78,3.89v1.11l1.05-.04,2.28-2.73Z"/>
      <path class="cls-1" d="M113.25,72.19c-2.29,.61-2.22,3.17-2.22,6.11,2.29-.61,2.22-3.17,2.22-6.11Z"/>
      <path class="cls-1" d="M16.1,56.64c1.44-.38,1.45-.04,1.59-1.68l.63-2.21v-1.67c-2.98,.33-2.22,2.25-2.22,5.55Z"/>
      <path class="cls-1" d="M42.81,109.24l4.38,1.81h1.11v-1.11c-1.85-1.28-4.8-3.36-5.49-.7Z"/>
      <path class="cls-1" d="M61.72,16.02l-.65-.46c-3.35,0-4.87-.9-5.55,1.67,3.04,0,4.8,.68,6.2-1.2Z"/>
      <path class="cls-1" d="M109.92,47.76c0,3.13-.03,5.32,2.78,5.55-.58-2.5-.5-4.94-2.78-5.55Z"/>
      <path class="cls-1" d="M95.95,100.92l-4.35,3.46,.12,1.36,2.66-1.36c.56-.48,2.22-1.52,2.22-2.22,0-1.25,.21,.26-.65-1.24Z"/>
      <path class="cls-1" d="M37.75,25v-1.11c-2.47,.21-4.73,1.47-5,3.89h1.11l3.89-2.78Z"/>
      <path class="cls-1" d="M40.53,21.67h-1.11v1.11c2.64-.06,5.28-.83,5.48-3.53l-3.81,1.31-.56,1.11Z"/>
      <path class="cls-1" d="M18.88,82.18c.9-1.87-.03-5.52-2.22-6.11,0,2.92,.54,4.88,2.22,6.11Z"/>
      <path class="cls-1" d="M111.03,80.51c-2.45,.65-2.29,2.82-3.33,5,.01,0,1.04,.56,1.11,.56,1.13,0,2.19-3.99,2.22-5.55Z"/>
      <path class="cls-1" d="M78.28,29.99c3.06-.25,2.86-1.67,5.55-1.67h.56c1.58,0,1.94,1.26,2.78,2.22-.17-2.08-1.31-3.33-3.33-3.33s-4.64,1.53-5.55,2.78Z"/>
      <path class="cls-1" d="M31.09,30.55l-.56-1.67c-1.65,1.11-3.67,2.44-3.77,5.19l2.1-1.3,2.22-2.22Z"/>
      <path class="cls-1" d="M84.39,109.38c2.85-.06,4.39-1.05,5.55-2.78l-1.12-.57-4.43,2.24v1.11Z"/>
      <path class="cls-1" d="M81.05,20c3.56,.3,4.63,3.45,5.54,.04l-5.54-1.7v1.67Z"/>
      <path class="cls-1" d="M68.29,15h-3.89v1.67h5.55c-.33-1.24-.13-1.67-1.67-1.67Z"/>
      <path class="cls-1" d="M105.48,37.77c-.17-2.08-2.06-4.51-3.89-5,.21,2.47,1.47,4.73,3.89,5Z"/>
      <path class="cls-1" d="M27.76,96.61c-.2-2.35-1.86-4.46-3.89-5,.22,2.69,1.61,4.39,3.89,5Z"/>
      <path class="cls-1" d="M51.08,111.05c.62,2.34,2.58,2.22,5.55,2.22v-1.11l-.56-.56-5-.56Z"/>
      <path class="cls-1" d="M40.53,107.72c-.21-2.49-2.54-3.68-5-3.89,.55,2.06,2.9,3.4,5,3.89Z"/>
      <path class="cls-1" d="M19.43,84.4c.21,2.53,1.12,4.41,3.33,5-.19-2.33-.96-4.74-3.33-5Z"/>
      <path class="cls-1" d="M113.81,63.86h-1.11c-.38,.68-.55,.59-.55,1.67l.02,3.96,1.65-.63v-5Z"/>
      <path class="cls-1" d="M66.62,106.05c1.97-1.04,1.6,.1,2.22-2.22-1.52,.36-2.26,1.11-3.33,1.11-1.61,0-2.03-1.17-3.89-1.67,.43,1.6,2.06,2.78,3.89,2.78h1.11Z"/>
      <path class="cls-1" d="M102.71,95.5c-2.38,.2-4.24,2.07-4.44,4.44,2.02-.54,3.9-2.43,4.44-4.44Z"/>
      <path class="cls-1" d="M113.81,57.75c-1.26-2.39,.15-1.01-1.67-1.67,0,2.29-.36,4.1,.55,5.55h1.11v-3.89Z"/>
      <path class="cls-1" d="M40.53,44.43v.56c0,1.56,.24,1.03,.84,1.61l1.38-6.05c-1.76,.64-1.32,1.07-2.22,2.78v1.11Z"/>
      <path class="cls-1" d="M74.39,17.78c2.03,0,1.32,.5,3.89,.56v-1.11l-5.55-1.11c.33,1.24,.13,1.67,1.67,1.67Z"/>
      <path class="cls-1" d="M43.86,43.87v2.22l1.21-.04-.71-1.67,2.27-3.29c-1.41,.38-2.78,1.07-2.78,2.78Z"/>
      <path class="cls-1" d="M28.31,76.63v2.22l2.78,3.33c-.33-1.24-1.87-4.89-2.78-5.55Z"/>
      <path class="cls-1" d="M81.61,25.55v.56h1.67c1.91,0,2.15,.41,3.89,.56-.65-.94-.08-1.11-1.67-1.11h-3.89Z"/>
    </g>
  </g>
</svg>