<?xml version="1.0" encoding="UTF-8"?>
<svg id="_图层_2" data-name="图层 2" xmlns="http://www.w3.org/2000/svg" viewBox="0 0 166.1 97.57">
  <defs>
    <style>
      .cls-1 {
        fill-rule: evenodd;
      }
    </style>
  </defs>
  <g id="_图层_2-2" data-name=" 图层 2">
    <g>
      <path class="cls-1" d="M102.56,21.78h-9.08c-6.27,0-19.5,3.68-24.58,5.37-3.6,1.2-6.91,3.01-10.5,4.47-6.09,2.47-6.12,1.05-13.02,1.05-2.01,0-3.18,.6-3.63,2.27l-2.72,4.54c-.73,1.09-2.27,2.11-2.27,3.63,0,1.11,7.1,3.44,8.44,4.27,2.96,1.82,5.29,3.09,8.17,4.99,5.34,3.53,8.91,7.61,14.52,11.35,10.98,7.32,18.15,15.25,36.94,15.25s32.22-8.82,32.22-28.14v-1.82c0-15.07-19.17-27.23-34.49-27.23Zm-.45,1.82c7.24,0,25.4,5.69,25.87,11.35-2.36-.05-4.29-2.61-6.65-3.79-2.41-1.2-4.59-2.06-7.02-2.96-3.01-1.12-4.32-1.42-8.01-1.98-2.54-.38-7.16-.14-7.37-2.62h3.18Zm22.24,14.07c0,.71-8.62,5.72-8.62,2.27,0-.44,6.91-3.18,7.72-3.18,.4,0,.91,.5,.91,.91Zm-9.98,7.72c0,.64-.62,.91-1.36,.91-1.05,0-1.36-.32-1.36-1.36,0-.64,.62-.91,1.36-.91,1.05,0,1.36,.32,1.36,1.36Zm-38.12-16.34h1.36c1.4,0,1.82,1.33,1.82,2.72v2.72l3-.48,1.03-6.41,.51,.08c1.74,1.28,.45,2.53,.45,5.45l2.25-.55,.02,1c-1.15,.27-2.27,.38-2.27,1.82v.45c0,1.23,.22,1.25,.45,2.27,3.72-.99,2.96-5.9,5.45-5.9h2.27v3.18c0,.88,.14,.81,.45,1.36,2.87-1.92,1.57-5.45,4.08-5.45h.45c1.06,0,1.82,.75,1.82,1.82,0,1.67-.7,2.19-1.36,3.18,5.11-.43,1.2-4.99,5.9-4.99,.55,0,1.36,.94,1.36,1.82v.91c0,1.09-.74,1.33-1.36,2.27,3.53-.29,.84-3.55,4.54-4.54l-1.1,4.94c3.45-.82,.78-3.75,4.28-4.04l-1.25,5.02,2.5-1.55c-.17,3.48-2.06,1.74-3.33,3.98-.73,1.29-1.39,3.9-3.37,3.9h-2.27v-1.36c0-2.6,3.78-2.9,4.54-4.99h-4.54s-1.81,0-1.81,0c0,2.45-.48,5.45-2.72,5.45-.64,0-.91-.62-.91-1.36v-.91c0-1.65,.54-1.59,.91-3.18h-2.72v2.27c0,2.02-1.07,2.83-2.27,3.63-.71-.47-1.36-.6-1.36-1.82v-.91c0-1.38,.44-1.83,.91-2.72l-2.29-.33c-.8,.43-.77,.79-1.79,.79s-1.17-.14-1.82-.45c-1.26,.85-1.57,1.82-3.63,1.82-.91,0-1.82-1.89-1.82-3.18v-1.36c-6.63,.55-.81,5.97-5.45,6.35v-4.54l-2.56-1.44,3.01-.33v-3.67c0-2.46-2.64-1.13-3.18,.91h-.91c.04-1.83,1.08-3.63,2.72-3.63Zm28.14,17.7c-.03,1.45,.15,2.27-1.36,2.27-1.05,0-1.36-.32-1.36-1.36,0-.64,.62-.91,1.36-.91h1.36Zm-24.98-3.1c-.28,3.58-6.9-.37-9.51-.98v-1.82l9.51,2.8Zm-14.95-12.33c2.14-.5,6.81-3.68,6.81-.91,0,.89-5.16,2.69-6.81,2.72v-1.82Zm-18.15,12.71c-.4,0-.91-.5-.91-.91s2.33-2.72,2.72-2.72,.91,.5,.91,.91c0,1.47-1.26,2.72-2.72,2.72Zm-.83-4.92c-1.3,2.02-1.11,3.49-4.16,3.56,.2-2.4,4.61-8.97,8.17-7.26-.81,3.03-2.05,.65-4.01,3.7Zm48.94,32.6h-1.36c-6.84,0-25.25-8.98-27.68-13.61,2.04,.05,10.87,5.78,14.21,7.12,1.65,.66,16,5.31,16.2,5.58-.53,.76-.07,.91-1.36,.91Zm24.96,1.82c.14,.96-1.6,3.18-2.27,3.18-1.05,0-1.36-.32-1.36-1.36v-1.36c0-2.51,.91-3.04,1.17-5.11l-.74,1.59-2.7-.56c-.21,.77-.53,1.82-1.36,1.82-1.74,0-.17,.14-1.36-.45-.7,.47-1.65,1.36-2.72,1.36-.27,0-.94-.63-1.36-.91-.52,.72-1.05,1.36-2.27,1.36s-1.1-.11-1.82-.45c-.57,.3-1.5,.91-2.27,.91-1.22,0-1.82-1.21-1.82-2.27,0-2.17,1.45-3.62,3.18-4.08v-1.36c0-1.9,1.01-5.45,2.72-5.45,1.05,0,1.36,.32,1.36,1.36v1.82c0,2.98-1.82,4.71-1.82,6.81l.09,1.51,2.64-1.51v-2.27c.64-.96,.98-2.27,2.27-2.27h.91c1.05,0,1.36,.32,1.36,1.36l.22,3,1.59-1.64c-.25-1.06-.45-1.34-.45-2.72,0-1.26,.35-1.09,1.06-1.25l1.69,4.59,.75-.18-.32-4.52v-1.36l1.16,.05,1.11,4.49,.81-.02,.56-2.25c1.69,1.24,.48,2.69-.51,4.09l.51,4.08Zm4.54-7.72h-1.36c.17-2.1,5.32-4.94,7.72-4.99-.18,2.17-5.24,4.99-6.35,4.99Zm6.81-22.69c0,2.15-.91,2.9-.91,4.08s1.36,2.51,1.36,4.54c0,1.49-1.38,3.63-2.27,3.63-1.4,0-1.82-1.33-1.82-2.72l-.1-.47,.41-5.06-.76,1.44-2,.35-3.09,2.38-.26-.51-1.45-2.68c0,1.4,.44,4.54-.91,4.54-1.04,0-.53-.15-1.82-.45-.3,1.11-1.23,2.27-2.27,2.12l-4.08,.15c-1.04,0-.53-.15-1.82-.45-.16,1.97-.25,2.56-2.18,2.69l-.54-1.33c-1.09,.73-2.11,2.27-3.63,2.27-.27,0-.94-.63-1.22-.73l-2.86,2.09c0,2.88-1.23,5.9-4.08,5.9h-1.36v-1.36c0-3.06,3.56-4.38,4.08-6.35-.37,.25-1.12,.91-1.36,.91-1.49,0-1.52-.55-1.82-1.36-1.59,.37-1.53,.91-3.18,.91h-2.27c-1.26,0-1.09-.35-1.36-1.36-1.93,.51-.79,.91-2.27,.91h-.91c-.88,0-1.82-.81-1.82-1.36,0-2.02,1.72-2.02,2.27-4.08-2.39,1.6-2.69,4.31-5.45,4.54v-.91c-1.86,.16-1.01,.45-2.72,.45-.4,0-.91-.5-.91-.91,0-1.32,.61-2.35,.91-3.63-2.57,1.72-1.2,3.1-4.54,3.18v-.91c-1.22,.29-.86,.45-1.82,.45-1.37,0-1.25-.53-1.36-1.82-1.02,.24-1.04,.45-2.27,.45-1.09,0-1.33-.74-2.27-1.36-1.67,0-3.18,.4-3.18-1.36v-.45c0-1.67,.7-2.19,1.28-3.31l-5.14,3.21-.31-.39,.53-1.21-4.53-.57c-.29-1.22-.45-.86-.45-1.82,0-2.37,1.82-4.07,1.82-5.45,0-.61-.49-.25-.85-1.94l2.21,1.03c.77-1.15,2.77-3.63,4.54-3.63,.64,0,.91,.62,.91,1.36,0,2.56-1.67,2.65-2.73,4.1l2.28,.89c.52-1.93,2.55-4.54,4.99-4.54h.45c.74,0,1.36,.27,1.36,.91,0,3.02-4.68,5.44-5.91,7.22l4.04-1.09,.29,.38-2.95,4.83h1.36c1.94,0,1.04-3.18,6.16-2.94l1.7,1.2-1.96,4.47c5.13-.43,1.37-4.2,5.55-4.52l-.56,2.7c.58-.39,1.97-1.82,2.27-1.82,.74,0,1.36,.27,1.36,.91,0,1.52-1.3,1.73-1.34,4.63l2.25-.55c.07-3.2,2.87-10.89,5.45-10.89,1.04,0,.53,.15,1.82,.45,0,4.3-2.42,4.87-3.18,7.72,.57-.3,1.5-.91,2.27-.91,.64,0,.91,.62,.91,1.36,0,2.01-3.11,2.29-2.27,4.08,2,.94,5.42-4.54,6.81-4.54l1.56,.15-1.54,2.12,.43,2.73c3.03-.71,2.42-4.99,4.99-4.99,1.71,0,.86,.3,2.84,.47l-.57,5.43c2.34-.63,2.66-3.6,2.74-6.3l1.87-.5-.63,5.88,.33,.33,2.39-2.11-.78-4.05,1.74-.5,.51,4.08v.91h.91v-.91c0-2.81-.29-4.78,2.37-4.98l-.55,4.07h1.36c3.03,0-.14-3.68,2.27-5.45l.52-.07,.7,5.53,.43,.23,1.78-2.48-.92-4.54,.57-.31,1.91,2.53c0-1.3-.35-3.63,.91-3.63,2.65,0,.5,3.7,3.55,4.51l.54-1.33c-.25-1.06-.45-1.34-.45-2.72v-1.82c0-1.72,1.75-1.94,3.2-2.28l3.16,4.55v-3.18c.68,.16,1.36,.1,1.36,.91Z"/>
      <path class="cls-1" d="M36.76,39.03l1.36-4.54-1.36-1.82c-11.7,0-14.53-14.98-22.24-14.98h-.45c-4.1,0-7.26,3.16-7.26,7.26v.45c0,5.34,3.38,9.13,8.17,9.53v.91c-1.86,.16-1.01,.45-2.72,.45-2.53,0-3.26-2.02-4.99-3.18-3.51,1.68-7.26,3.32-7.26,8.62v.91c0,3.74,4.59,7.72,8.62,7.72h1.36c9.68,0,9.95-8.62,24.16-8.52l2.62-2.83Zm-27.23,6.35h-2.27c-2.24,0-4.08-1.84-4.08-4.08v-1.82c3.82,.32,.06,4.08,4.99,4.08,5.65,0,14.18-5.9,15.88-5.9,1.3,0,.83,.14,1.36,.91-1.32,1.8-12.49,6.81-15.88,6.81Zm16.34-13.16c0-.64,.62-.91,1.36-.91,.07,0,3.27,1.82,6.35,1.82,.41,.28,1.36,.74,1.36,1.36,0,1.88-9.08,.04-9.08-2.27Z"/>
      <path class="cls-1" d="M74.17,84.61l-4.77,4.76-.8-.66,3.1-4.76s-.85-.45-.91-.45c-2.49,0-1.95,3.55-5.7,3.46l2.87-4.27-2.17-1.91c-4.19,0-4.33,2.27-5.9,2.27h-1.82c.2-2.38,4.61-4.73,6.35-5.9l2.77-4.73-.51-.27h-1.36c-3.11,0-4.76,3.17-6.81,4.54-5.33,0-4.86,1.82-6.35,1.82l-1.66-.31,4.35-4.6-1.33-.54c-1.42,.75-3.19,2.72-4.08,2.72-1.23,0-1.25-.22-2.27-.45,.6-2.25,4.17-3,6.35-4.08,.88-.44,7.87-4.99,3.18-4.99h-1.36c-3.17,0-5.7,3.55-7.72,4.08-.06-2.54-1.09-4.08-3.63-4.08h-.91c-1.48,0-1.2,1.36-3.63,1.36h-.91c-1.21,0-1.34-.66-1.98-1.62l3.37-2.05,2.9,1.3-1.11-2.18,5.55-2.81-1.44-1.22-2.74,.87c-.2,.18-3.13,1.82-3.18,1.82-1.02,0-2.46-2.19-2.72-3.18l4.54-2.72c1.28-2.28-.66-4.54-3.18-4.54h-1.36c-1.28,0-.84,.2-1.31,.73l2.67,1.08c1.01,.27,1.36,.11,1.36,1.36,0,1.04-3.52,2.72-4.54,2.72-.58,0-1.87-1.81-2.27-2.27l-.57,.96,1.03,2.21c-1.96,.46-4.48,1.13-4.54,3.63,3.21,0,4.84-1.82,6.35-1.82,.4,0,2.44,1.89,2.72,2.27-1.07,1.47-3.63,1.68-3.63,3.63v.91c0,1.96,3.1,2.57,4.99,2.72,.04,1.75,.63,3.18,2.27,3.18h1.36c1.84,0,2.82-2.24,3.53-3.15l.55,1.79c-.71,1.06-1.82,2.37-1.82,4.08,0,1.62,1.55,1.78,3.18,1.82v1.78s3.63,.94,3.63,.94c.11,1.35,.33,2.27,1.82,2.27h2.27c.06,2.7,.96,2.72,3.63,2.72,.51,2.19,1,2.27,3.47,2.37l1.06,1.72,2.1,.36,2.89,1c-1.71,1.48-6.81,2.11-6.81,4.99,0,.55,.94,1.36,1.82,1.36h.91c2.59,0,4.08-2.35,4.99-4.08,2.67-.06,4.46-.89,5.02-3.12l-3.65,1.3c1.02-1.53,3.54-4.14,2.47-6.16Zm-9.27-11.09c-.22,2.62-2.81,3.84-4.54,4.99,.55-2.06,2.75-4.05,4.54-4.99Zm-9.08-5.9c-1.11,1.66-3.67,3.11-5.9,3.63,.93-1.39,3.69-3.45,5.9-3.63Zm-13.16,3.63c-.74,0-1.36-.27-1.36-.91,0-1.28,1.89-2.72,3.18-2.72,1.02,0-.21-.17,.91,.45-.32,1.36-1.72,3.18-2.72,3.18Zm12.71,9.53c-1.74,0-.17,.14-1.36-.45,1.04-1.55,1.57-2.21,4.08-2.27-.66,.99-1.31,2.72-2.72,2.72Zm7.1,5.29c-.24-2.83,.99-3.73,3.63-3.63l-3.63,3.63Zm1.98,9.24c.48-1.78,1.8-2.3,3.63-2.72-.42,1.58-1.82,2.57-3.63,2.72Z"/>
      <path class="cls-1" d="M84.41,15.43l.91-3.63h.91v1.82c0,1.28,.2,.84,1.15,1.5l1.12-2.41c1.56,.42,1.2,.91,1.82,.91,1.23,0,1.25-.22,2.27-.45,.27,1.01,.11,1.36,1.36,1.36,1.38,0,1.83-.44,2.72-.91,.89,.47,1.34,.91,2.72,.91h.45c1.65,0,2.53-.38,3.4-.68l1.36,1.36-.07-.47,3.92-4.3c-.37,1.59-.91,1.53-.91,3.18,0,.88,.81,1.82,1.36,1.82,1.65,0,1.59-.54,3.18-.91,.31,1.15,.88,2.27,2.27,2.27h.91c1.23,0,1.25-.22,2.27-.45,.47,1.77,2.37,2.27,4.54,2.27h1.82c1.37,0,1.26-.53,1.36-1.82h-2.72c.31-.55,.45-.49,.45-1.36v-1.82c.68-.16,1.36-.1,1.36-.91,0-4.14-7.74,5.05-10.44,1.36,1.65-.14,3.63-1.1,3.63-2.72v-.45c0-1.06-.75-1.82-1.82-1.82-4.64,0-1.78,3.58-5.9,4.54,0-3.31,1.36-3.41,1.36-4.99,0-2.44-3.68,1.09-4.08,1.36,.54-2.01,4.08-5.22,4.08-8.17v-.45c0-.74-.27-1.36-.91-1.36-4.14,0-6.26,7.71-6.35,11.8l-2.17,.44-.58-2.73,1.39-2.25s-.85-.45-.91-.45c-2.2,0-3.81,5.61-7.36,5.88l.91-6.08-2.17,1.11c0,1.69-.5,4.08-1.82,4.08-2.55,0-.61-2.61-.45-4.54-3.64,.08-2.14,2.19-3.63,4.54V7.71c-3.59,.08-1.59,2.65-3.63,4.99v-4.54c-1.28,.11-1.82-.01-1.82,1.36v2.27c0,1.65,.38,2.53,.91,3.63h1.81Zm36.76-.91c-.02,1,.14,2.27-.91,2.27-1.63,0-.87-.42-1.36-1.36l2.27-.91Zm-6.75-3.61l1.76-.02c-.42,1.58-.42,1.66-2.32,1.8l.57-1.78Zm-5.05-9.09c-.05,2.38-2.03,5.49-3.18,6.81,.22-2.68,1.53-5.6,3.18-6.81Zm-9.53,9.08v2.27c-.88-.07-1.82,.02-1.82-.91,0-.83,1.04-1.15,1.82-1.36Z"/>
      <path class="cls-1" d="M120.26,93.49c-.82-1.72,.08-4.73-1.07-5.29-1.69-.82-1.96,2.52-2.56,3.48,0-2.3,.44-2.54-1.82-2.72v2.27c-1.06-.71-2.37-1.82-4.08-1.82h-.45c-1.49,0-3.18,1.7-3.18,3.63l-.02,1.76-1.8,.51c-.16-1.86-.45-1.01-.45-2.72,0-1.48,.39-.34,.91-2.27h-2.27c-.5,1.88-3.25,5.26-5.51,5.44l.52-4.98c-1.56-.42-1.2-.91-1.82-.91-3.74,0-3.28,4.99-7.26,4.99h-1.36v-.91c1.72-.14,3.63-1.27,3.63-2.72,0-1.04-.15-.53-.45-1.82-1.22-.29-.86-.45-1.82-.45-2.12,0-3.21,2.29-3.66,3.99l-1.79,.55,.37-3.38,1.27-1.88-.56-.66-6.96,4.14c.44,1.96,1.62,3.59,4.06,3.59h.91c1.56,0,1.76-.34,3.18-.45,.35,.96,1.05,1.82,2.27,1.82h.91c1.38,0,1.83-.44,2.72-.91,.34,.65,.78,1.82,1.82,1.82,.77,0,1.7-.6,2.27-.91,.82,.55,.8,.91,1.82,.91h.45c1.48,0,.34-.39,2.27-.91v.91h2.27c2,0,3.23-.67,4.54-1.36,.82,.55,.8,.91,1.82,.91h.91c1.28,0,1.75-1.04,2.36-1.82l-.54-4.08c2.59,.6,3.11,1.96,3.18,4.99,3.41-.08,1.63-2.09,2.79-4.38l1.73,4.12,.76,.03,2.88-3.5-.55-.52-2.61,1.52Zm-30.41-2.72c-.15,1.8-.05,1.63-1.82,1.82,.48-2.07,.09-1.63,1.82-1.82Zm-8.62,2.72c-1.63,0-.87-.42-1.36-1.36l2.27-.91c-.02,1,.14,2.27-.91,2.27Zm13.16,2.27c0-2.51,.26-3.55,2.27-4.08-.05,2.1-.55,3.62-2.27,4.08Zm8.17,.91c-.27,0-.94-.63-1.5-1.07l2.22-1.88,.19,1.59c0,.74-.27,1.36-.91,1.36Zm8.62-3.18c0,.58-.29,1.91-.45,2.27-1.28-.11-1.82,.01-1.82-1.36v-.91c0-1.23,.22-1.25,.45-2.27,1.28,.11,1.82-.01,1.82,1.36v.91Z"/>
      <path class="cls-1" d="M61.27,21.78h1.36c1.16,0,2.09-1.54,3.18-2.27,.55,.31,.49,.45,1.36,.45,2.42,0,4.46-2.15,5.45-3.63,.51,.34,1.53,1.36,1.82,1.36,1.72,0,3.35-2.08,4.12-3.2l-.94-1.34-2.88,3.06-.41-.3-1.35-4.09,.64-1.36,1.28-.03,1.82-.45-.02-1.46-2.25,.56V4.54c-.37-.25-1.12-.91-1.36-.91-1.78,0-2.27,2.24-2.27,4.08l-.05,2.11-2.21,1.06c1.2,.59-.37,.45,1.36,.45h1.36l.79,3.66-2.07,1.87-1.41-2.83c.71-1.53,1.01-1.65-.49-2.25-2.71,1.81-1.99,8.06-6.81,8.17,.61-.91,1.82-1.83,1.82-3.18,0-1.23-.22-1.25-.45-2.27h-1.82c-1.47,0-2.27,1.65-2.27,3.18v.45c0,1.66,1.25,3.63,2.72,3.63Zm10.89-14.98c0-1.26,.35-1.09,1.36-1.36l-.44,4.09h-.92v-2.73Zm-4.87,9.13l.79-.05c.3,1.29,.45,.78,.45,1.82,0,.64-.62,.91-1.36,.91-.06,0-.9-.45-.89-.45l1.01-2.22Zm-6.93,1.31c0-1.26,.35-1.09,1.36-1.36-.04,1.93,.05,2.21-1.36,2.72v-1.36Z"/>
      <path class="cls-1" d="M45.89,20.43l.45-3.12,1.31-.97c.78-1.17,3.09-2.72,4.99-2.72h.91c1.05,0,1.36,.32,1.36,1.36v.45c0,2.44-2.99,1.69-3.63,4.08h4.99c.24,1.02,.45,1.04,.45,2.27,0,2.15-2.31,3.13-4.54,3.18-.47-2.02-1.45-2.75-2.01-4.8-.66-2.42,.64-5.08-2.07-3.83-1.37,2.85,1.6,8.77,2.72,10.89,3.29-.27,7.72-1.94,7.72-5.45v-.45c0-1.67-.7-2.19-1.36-3.18h-2.27c.85-1.26,1.82-1.57,1.82-3.63v-.45c0-1.47-1.65-2.27-3.18-2.27h-.91c-2.9,0-8.17,3.15-8.17,6.35,0,1.23,.22,1.25,.45,2.27h.96Z"/>
      <path class="cls-1" d="M147.04,30.41c-2.56,0-6.91,2.36-5.9,4.54,1.41-.95,4.02-3.18,6.35-3.18,2.64,0,4.37,1.36,6.35,1.36,.88,0,4.75-1.94,5.74-2.43,1.69-.83,5.15-1.3,5.61-3.02-5.61,0-8.09,3.63-10.89,3.63h-.91c-2.48,0-2.51-.91-4.99-.91h-1.36Z"/>
      <path class="cls-1" d="M157.31,47.82c-2.43-1.24-4.07-2.43-7.55-2.43-2.02,0-4.12,.62-4.99,1.82,1.3,1.8,.39,0,3.18,0h1.82c4.53,0,6.79,2.72,9.53,2.72h5.45c1.28,0,.84-.2,1.36-.91-2.54-1.22-5.66,.39-8.79-1.2Z"/>
      <path class="cls-1" d="M136.94,20.31c1.35-1.09,3.61-1.21,5.49-1.77,2.07-.62,2.7-1.78,3.72-3.55,2.27-3.97,2.67-1.74,4.07-3.64-.23-.4-.3-.91-.91-.91-4.62,0-2.68,5-7.09,6.52-3.43,1.18-7.88,1.31-7.88,6.19v1.82c2.99-.8-.05-2.51,2.61-4.65Z"/>
      <path class="cls-1" d="M158.38,64.9h-1.82c-4.04,0-6.86-5.45-10.44-5.45h-1.36c-1.29,0-1.36,.53-1.36,1.82h2.27c3.79,0,6.35,5.56,11.35,5.04l5.44-.5v-1.42s-4.08,.51-4.08,.51Z"/>
      <path class="cls-1" d="M147.59,78.41c-1.37-1.34-4.31-5.8-6.45-5.8h-1.82c-.53,0-1.25,.32-1.36,.45,1.59,2.17,3.14-.8,6.36,3.63,1.31,1.81,2.84,4.54,5.9,4.54h6.35c-.89-3.35-5.47,.6-8.98-2.82Z"/>
      <path class="cls-1" d="M128.89,80.78c.26,3.17,3.14,1,3.63,7.26,.19,2.44,2.48,5.81,4.53,6.36-.23-2.78-2.46-2.72-3.22-7.68-.44-2.91-2.2-5.3-4.95-5.94Z"/>
      <path class="cls-1" d="M54.01,44.47v1.36l3.95-.07,1.39-2.93-2.62-1.54c-1.06,.56-2.72,1.65-2.72,3.18Z"/>
      <path class="cls-1" d="M96.64,4.55l-.43-1.37c-2.17,.05-2.55,.19-2.72,2.27,1.22,.29,.86,.45,1.82,.45,.62,0,1.08-.95,1.34-1.35Z"/>
      <path class="cls-1" d="M65.35,38.58c-1.97,1.04-3.92,3.14-4.54,5.45,1.68-1.12,4.02-3.2,4.54-5.45Z"/>
      <path class="cls-1" d="M95.3,56.27c2.27-.19,2.27-1.56,2.27-4.08-1.72,.46-2.22,1.98-2.27,4.08Z"/>
      <path class="cls-1" d="M124.35,42.66v1.36c0,1.86,.46,2.57,2.27,2.72-.15-1.75-.73-3.67-2.27-4.08Z"/>
      <path class="cls-1" d="M66.26,51.28c2.25-.19,2.73-1.93,3.63-3.63-1.92,.45-3.45,1.43-3.63,3.63Z"/>
      <path class="cls-1" d="M56.27,70.8c-.74,0-1.36,.27-1.36,.91,0,1.05,.32,1.36,1.36,1.36h1.36c-.03-1.45,.15-2.27-1.36-2.27Z"/>
      <path class="cls-1" d="M100.3,72.16c1-.3,1.82-.39,1.82-1.82v-1.82c-1.82,.49-1.82,1.33-1.82,3.63Z"/>
      <path class="cls-1" d="M103.47,63.08v4.54l.36-.02,1-5.88c-1.83,.66-.07-.38-1.36,1.36Z"/>
      <path class="cls-1" d="M98.03,32.68c-2.02,.22-1.82,.86-1.82,3.18,1.67-.45,1.77-1.06,1.82-3.18Z"/>
      <path class="cls-1" d="M107.93,68.93l.08,.96c0,1.74-.14,.17,.45,1.36,.76-.53,.91-.07,.91-1.36l-.19-2.85-1.25,1.89Z"/>
      <path class="cls-1" d="M90.77,33.58c-1.35,.99-1.36,1.36-1.36,3.63h1.36v-3.63Z"/>
      <path class="cls-1" d="M103.93,32.68c-1.67,.45-1.77,1.06-1.82,3.18h.91c.6-2.24,.84-.3,.91-3.18Z"/>
      <path class="cls-1" d="M81.69,50.37l3.18-5.9c-1.81,.66-2.99,3.68-3.18,5.9Z"/>
      <path class="cls-1" d="M116.63,74.88c.98-.44,1.36,.2,1.36-1.36v-1.82h-.91l-.45,3.18Z"/>
      <path class="cls-1" d="M94.4,63.54c1.58-.42,1.88-1.52,2.27-3.18-1.32,.48-2.13,1.5-2.27,3.18Z"/>
      <path class="cls-1" d="M128.43,53.55h.91v-1.82c0-1.48-.23-1.49-.91-2.27v4.08Z"/>
      <path class="cls-1" d="M95.3,38.12c-.67,.77-.91,.79-.91,2.27v1.36h.91v-3.63Z"/>
      <path class="cls-1" d="M59.45,37.21c-1.5,.4-2.32,1.22-2.72,2.72,1.46-.98,2.24-.91,2.72-2.72Z"/>
      <path class="cls-1" d="M105.29,43.11c1.73-.92,1.75-.5,2.27-2.72l-1.72,1.06-.55,1.66Z"/>
      <polygon class="cls-1" points="87.82 56.08 89.86 56.27 89.69 53.87 87.82 56.08"/>
      <path class="cls-1" d="M100.75,41.3v-3.18c-1.11,1.27-.91,.95-.91,3.18h.91Z"/>
    </g>
  </g>
</svg>