<?xml version="1.0" encoding="UTF-8"?>
<svg id="_图层_2" data-name="图层 2" xmlns="http://www.w3.org/2000/svg" viewBox="0 0 221.98 83.74">
  <g id="_图层_2-2" data-name=" 图层 2">
    <g>
      <path d="M145.73,37.01c.19-.75,.08-1.5-.12-2.22-.44-1.59-1.93-2.8-3.54-2.88-.04,.15-.09,.3-.13,.46-.27,1.05-.53,2.1-.81,3.14-.13,.49-.38,.92-.71,1.31-.75,.89-1.48,1.81-2.22,2.7-2.46,2.94-4.95,5.86-7.71,8.54-1.05,1.01-2.17,1.95-3.3,2.86-.44,.36-.99,.61-1.52,.85-.18,.08-.45-.02-.7-.04,.03-1.08,.41-1.96,.83-2.81,2.92-5.97,7.35-10.34,13.6-12.78,.27-.11,.55-.19,.81-.33,.49-.26,.7-.69,.66-1.24-.04-.62-.35-1.11-.76-1.53-.69-.71-1.55-1.12-2.53-1.24-2.63-.33-4.96,.3-6.88,2.21-.92,.92-1.72,1.92-2.43,3.01-2.15,3.3-3.71,6.89-5.07,10.57-.7,1.89-.2,3.61,1.1,5.11,.24,.28,.55,.51,.85,.73,.33,.23,.7,.26,1.06,.07,.29-.16,.58-.32,.85-.52,1.01-.74,2.02-1.47,3-2.25,2.22-1.76,4.35-3.63,6.37-5.62,.09-.09,.17-.19,.27-.26,.11-.07,.2-.3,.44-.06-.08,.21-.16,.44-.26,.65-2.75,5.48-5.85,10.76-9.5,15.7-1.49,2.01-3.09,3.93-4.84,5.72-2.18,2.24-4.72,3.96-7.58,5.2-5.1,2.22-10.45,3.06-15.99,2.72-.99-.06-1.98-.29-2.95-.51-.46-.11-.99-.24-1.19-.84,.07-.13,.13-.29,.23-.42,.21-.26,.43-.51,.67-.74,.72-.7,1.56-1.24,2.44-1.73,1.28-.71,2.62-1.27,4-1.75,3.67-1.29,7.45-2.12,11.28-2.72,2.71-.43,5.45-.73,8.17-1.09,.39-.05,.77-.14,1.41-.25-.48-.19-.7-.29-.93-.37-.24-.08-.47-.16-.71-.23-.28-.08-.56-.17-.84-.24-.24-.07-.48-.12-.73-.18-.24-.06-.49-.11-.73-.17-.24-.06-.48-.13-.73-.18-.29-.06-.57-.1-.86-.15-.25-.04-.5-.07-.74-.13-.21-.05-.5,.07-.62-.33,.23-.09,.45-.17,.68-.25,1.4-.5,2.61-1.29,3.63-2.37,.23-.24,.47-.49,.61-.78,.33-.67,.36-1.34-.27-2.01-.2,.4-.34,.73-.52,1.05-.43,.76-1.05,1.27-1.92,1.49-.62,.16-1.23,.17-1.86,.07-1.59-.26-3.02-.91-4.39-1.72-1.93-1.13-3.53-2.64-4.98-4.33-2.15-2.5-4.11-5.14-5.99-7.85-.09-.13-.15-.28-.22-.42,.09-.14,.13-.26,.22-.35,2.75-2.91,5.5-5.81,8.26-8.71,.1-.1,.25-.14,.49-.27-.12,.98-.32,1.84-.02,2.71,.31,.88,.75,1.65,1.64,2.22,.61-2.69,2.19-4.74,3.73-6.81,.8-1.07,1.65-2.1,2.48-3.14,.54-.69,1.07-1.39,1.65-2.04,.65-.73,.64-1.49,.21-2.31-.41-.79-.95-1.47-1.64-2.03-1-.8-1.32-.77-2.16,.21-1.81,2.13-3.61,4.26-5.4,6.41-3.14,3.79-6.26,7.59-9.39,11.38-.22,.26-.37,.61-.9,.77,.24-.59,.42-1.04,.61-1.49,1.98-4.5,3.97-8.99,5.94-13.5,.5-1.14,.96-2.31,1.4-3.48,.38-.99,.48-2.03,.29-3.08-.27-1.49-1.08-2.61-2.4-3.32-.35-.19-.78-.28-1.19-.33-.44-.05-.71,.27-.6,.72,.25,1,.18,1.98,.01,2.97-.26,1.53-.71,3-1.21,4.46-1.11,3.19-2.47,6.28-3.87,9.35-2.01,4.39-4.03,8.78-6.04,13.18-.2,.43-.48,.77-.83,1.08-1.37,1.22-2.72,2.46-4.11,3.66-.53,.46-1.12,.87-1.71,1.26-.22,.15-.51,.19-.8,.3-.24-.59-.08-1.07,.09-1.53,.39-1.01,.76-2.03,1.25-3,1.37-2.71,2.8-5.4,4.21-8.09,.7-1.33,1.44-2.63,2.11-3.97,.28-.55,.49-1.15,.62-1.76,.2-.92-.1-1.73-.77-2.39-.54-.54-1.18-.9-1.93-1.08-.61,.36-1.04,.88-1.46,1.39-1.18,1.46-2.38,2.91-3.49,4.41-2.59,3.52-5.14,7.08-7.71,10.63-.49,.67-.99,1.34-1.5,2-.12,.15-.27,.27-.47,.45-.15-.6,.13-1,.31-1.4,.76-1.67,1.55-3.32,2.35-4.97,1.05-2.17,2.13-4.34,3.18-6.51,.23-.49,.45-.99,.57-1.52,.43-1.9-.66-3.68-2.75-3.72-.44,.98-.86,1.97-1.33,2.94-.97,1.99-1.97,3.95-2.94,5.93-1.55,3.14-3.09,6.28-4.63,9.42-.11,.22-.2,.48-.37,.64-1.12,1.06-2.27,2.1-3.64,2.83-.17,.09-.39,.08-.55,.11-.28-.35-.21-.69-.11-1,.23-.71,.44-1.44,.76-2.11,.91-1.92,1.83-3.83,2.81-5.72,1.19-2.29,2.45-4.55,3.66-6.83,.33-.62,.67-1.25,.92-1.91,.75-2-.25-3.72-2.46-4.18-.09,.21-.18,.44-.29,.66-.6,1.28-1.2,2.57-1.81,3.84-.09,.19-.16,.48-.48,.44,0-1.36-.77-2.22-1.91-2.81-.29-.15-.61-.27-.93-.34-2.18-.48-4.23-.16-6.1,1.07-.95,.62-1.77,1.41-2.43,2.32-.81,1.11-1.6,2.24-2.3,3.42-1.61,2.74-2.83,5.66-3.95,8.63-.2,.54-.24,1.13-.36,1.7-.06,.28-.08,.61-.25,.81-.78,.98-1.64,1.89-2.71,2.57-.19,.12-.45,.13-.66,.19-.26-.48-.14-.88,0-1.27,.31-.86,.59-1.74,.97-2.57,1.15-2.5,2.34-4.98,3.52-7.46,.61-1.28,1.24-2.55,1.87-3.82,.36-.72,.38-1.46,.05-2.17-.24-.52-.52-1.05-.88-1.5-1.05-1.3-2.26-1.6-3.78-.87-.78,.37-1.51,.88-2.21,1.4-1.17,.88-2.16,1.96-3.13,3.05-.2,.23-.43,.43-.75,.73,.27-1.11,3.72-8.93,4.29-9.76,.29,0,.62,0,.95,0,3.84,.02,7.67,.02,11.5-.21,4.04-.25,8.06-.6,12.05-1.32,1.85-.33,3.68-.73,5.42-1.47,2.07-.88,3.49-2.38,4.26-4.49,.58-1.59,.78-3.23,.65-4.92-.01-.13-.12-.25-.24-.49-1.1,2.46-3.05,3.74-5.29,4.7-.42,.18-.85,.34-1.28,.5-2.48,.89-5.06,1.37-7.67,1.72-2.27,.31-4.56,.46-6.85,.59-3.58,.21-7.17,.15-10.75,.09-.27,0-.55-.1-.85-.15-.03-.43-.04-.81-.09-1.17-.21-1.53-.9-2.77-2.24-3.58-.38-.23-.83-.4-1.27-.49-.55-.12-.87,.22-.74,.8,.18,.79,.18,1.58,.08,2.36-.08,.65-.1,1.33-.49,1.92-.39,0-.76,.02-1.13,0-1.71-.11-3.41-.22-5.11-.36-2.37-.2-4.73-.43-7.1-.66-2.95-.28-5.89-.59-8.85-.6-2.05,0-4.09,.07-6.12,.29-2.61,.29-5.19,.78-7.67,1.7-1.73,.64-3.36,1.45-4.82,2.6-1.44,1.14-2.5,2.54-3.15,4.27C.29,37.27-.19,40.2,.07,43.24c.19,2.31,.81,4.51,2.02,6.51,.63,1.04,1.4,1.97,2.41,2.67,1.16,.81,2.41,1.07,3.8,.75,1.39-.32,2.7-.84,3.93-1.56,2.49-1.46,4.46-3.46,6.1-5.82,.83-1.2,.95-2.47,.58-3.81-.34-1.22-.95-2.31-1.79-3.26-.13-.15-.27-.33-.55-.2,.09,1.01-.15,1.97-.72,2.83-.3,.45-.61,.9-.97,1.3-1.73,1.91-3.79,3.38-6.11,4.48-1.27,.6-2.62,.82-4.02,.68-2.07-.21-3.4-1.75-3.32-3.82,.02-.42,.07-.83,.14-1.24,.82-4.41,3.25-7.59,7.31-9.51,1.71-.81,3.5-1.35,5.34-1.7,3-.57,6.04-.77,9.09-.7,3.75,.08,7.49,.4,11.22,.84,1.94,.23,3.89,.43,5.84,.63,1.02,.11,2.05,.21,3.16,.32-.12,.39-.19,.71-.31,1.01-.5,1.19-.98,2.39-1.52,3.56-1.96,4.28-4.02,8.52-5.89,12.83-.98,2.24-2.21,4.29-3.72,6.19-.1,.13-.2,.27-.3,.4-1.71,2.21-3.47,4.38-5.45,6.36-.5,.5-1.03,.98-1.57,1.43-.28,.24-.61,.44-.94,.61-.42,.21-.77,.06-.85-.39-.08-.4-.13-.83-.09-1.23,.05-.54,.13-1.08,.3-1.59,.46-1.38,.92-2.77,1.48-4.11,1.23-2.92,2.73-5.71,4.25-8.49,1.4-2.56,2.81-5.11,4.21-7.67,.38-.69,.72-1.41,1.06-2.12,.43-.91,.45-1.85,.15-2.8-.54-1.73-1.55-3.12-2.96-4.23-.29-.23-.63-.42-.98-.54-.75-.27-1.19,.02-1.35,.8-.2,.98-.37,1.97-.65,2.92-.35,1.16-.76,2.3-1.22,3.41-1.48,3.58-3,7.14-4.5,10.72-1.01,2.42-2,4.85-2.74,7.38-.48,1.65-.77,3.33-.66,5.06,.05,.85,.25,1.65,.69,2.38,.63,1.04,1.54,1.62,2.79,1.56,.41-.02,.83-.09,1.23-.19,.98-.25,1.84-.76,2.67-1.34,1.2-.84,2.28-1.82,3.26-2.91,.98-1.08,1.9-2.21,2.85-3.32,.15-.18,.25-.45,.61-.4,.17,.39,.31,.83,.53,1.21,.5,.87,1.48,1.27,2.34,1,.39-.12,.68-.34,.73-.76,.14-1.26,.61-2.42,1.08-3.58,1.23-3.01,2.49-6,3.77-8.99,.21-.48,.55-.93,.91-1.33,2.06-2.3,4.31-4.41,6.7-6.38,.39-.32,.79-.61,1.21-.88,.16-.1,.37-.13,.66-.22-.04,.38-.01,.67-.1,.93-.22,.67-.46,1.34-.75,1.99-.66,1.44-1.34,2.87-2.04,4.29-1.03,2.1-2.09,4.17-3.1,6.28-.34,.71-.62,1.46-.79,2.23-.47,2.05,.32,3.57,2.19,4.53,.75,.38,1.44,.38,2.13-.06,.42-.27,.83-.56,1.19-.9,.48-.46,.91-.97,1.37-1.46,.16-.17,.34-.32,.55-.52,.23,.39,.4,.72,.6,1.04,.35,.58,.79,1.07,1.34,1.47,.41,.29,.83,.38,1.27,.06,.2-.14,.43-.26,.62-.42,.88-.7,1.77-1.4,2.62-2.13,1.9-1.63,3.69-3.38,5.41-5.2,.2-.22,.35-.56,.73-.53-.05,.23-.09,.47-.17,.68-.26,.66-.54,1.31-.83,1.96-.32,.72-.35,1.47-.16,2.21,.15,.6,.34,1.21,.61,1.76,.88,1.78,2.05,2.14,3.77,1.11,.85-.51,1.61-1.18,2.42-1.77,.22-.16,.46-.31,.7-.48,.23,.34,.4,.62,.61,.88,.53,.67,1.17,1.18,1.98,1.47,.49,.17,.69,.12,.99-.24,.08-.1,.14-.2,.22-.31,3.61-4.91,7.66-9.46,11.62-14.07,.11-.12,.2-.35,.51-.2-.22,.43-.42,.83-.63,1.23-1.06,2.08-2.13,4.15-3.17,6.24-.3,.59-.53,1.23-.73,1.86-.11,.35-.17,.74-.14,1.1,.1,.92,.34,1.8,.8,2.61,.14,.25,.31,.5,.5,.72,.68,.78,1.41,.96,2.35,.55,.38-.17,.75-.37,1.09-.61,.65-.46,1.29-.93,1.89-1.44,.86-.73,1.67-1.5,2.52-2.25,.13-.11,.32-.15,.57-.26,0,.53-.01,.95,0,1.36,.02,.68,.17,1.33,.56,1.89,.51,.76,1.24,1.1,2.16,.94,.45-.07,.77-.33,.85-.8,.27-1.75,1.01-3.34,1.63-4.98,.1-.26,.24-.51,.41-.86,.27,.32,.5,.55,.69,.81,1.51,2,3.05,3.97,4.79,5.77,1.16,1.2,2.37,2.34,3.63,3.44,1.23,1.07,2.6,1.95,4.17,2.47,.08,.03,.13,.17,.25,.33-.38,.03-.66,.06-.94,.07-3.19,.13-6.28,.78-9.29,1.82-2.57,.89-5.01,2.04-7.26,3.59-1.26,.86-1.85,2.04-1.3,3.95,.28,.98,.84,1.81,1.52,2.56,.46,.5,1,.9,1.67,1.04,1.02,.22,2.03,.48,3.06,.57,3.23,.28,6.4-.13,9.54-.89,5.14-1.25,9.93-3.34,14.54-5.91,4.05-2.26,7.55-5.19,10.53-8.73,5.12-6.09,8.97-12.92,11.71-20.38,.4-1.09,.63-2.24,.91-3.37Zm-86.23,15.33c-1.01,.99-2.08,1.91-3.18,2.81-.51,.41-1.13,.7-1.71,1.01-.17,.09-.39,.08-.67,.14-.03-.3-.12-.55-.06-.76,.23-.75,.45-1.52,.8-2.23,2.95-5.99,7.39-10.4,13.7-12.79,.4-.15,.75-.49,1.23-.42-.23,.8-.64,1.52-1.16,2.16-2.84,3.48-5.74,6.92-8.95,10.08Z"/>
      <path d="M221.55,29.42c-.91-1.07-2.08-1.48-3.46-1.32-.38,.04-.6,.3-.62,.67-.02,.37-.03,.75,0,1.12,.04,.57-.14,1.04-.51,1.48-.62,.73-1.2,1.5-1.81,2.24-2.91,3.55-5.85,7.07-9.12,10.29-.98,.96-2.02,1.87-3.07,2.75-.51,.42-1.1,.75-1.69,1.06-.23,.12-.53,.1-.83,.15-.19-.64,.01-1.14,.19-1.65,.65-1.82,1.6-3.48,2.72-5.05,2.95-4.14,6.72-7.26,11.53-9.04,.2-.07,.4-.13,.58-.22,.55-.27,.79-.71,.74-1.32-.04-.62-.35-1.11-.76-1.53-.73-.75-1.64-1.15-2.66-1.26-2.63-.28-4.96,.39-6.83,2.35-.4,.42-.83,.83-1.16,1.3-.81,1.16-1.63,2.32-2.34,3.54-1.54,2.68-2.73,5.52-3.83,8.41-.07,.19-.17,.39-.18,.59-.05,.95-.55,1.62-1.26,2.19-.32,.26-.6,.58-.91,.86-.72,.64-1.43,1.28-2.16,1.89-.31,.26-.61,.58-1.09,.52-.23-.42-.11-.82,.03-1.21,.32-.86,.6-1.74,1-2.56,1.04-2.13,2.12-4.25,3.22-6.36,1.06-2.03,2.17-4.04,3.25-6.06,.25-.48,.49-.97,.66-1.48,.48-1.44,.06-2.63-1.19-3.48-1.16-.79-1.47-.79-2.41,.31-1.16,1.36-2.31,2.74-3.38,4.18-2.48,3.35-4.91,6.74-7.36,10.11-.76,1.04-1.53,2.08-2.31,3.12-.13,.18-.33,.3-.68,.61,.09-.43,.11-.63,.18-.81,.32-.77,.64-1.54,1-2.29,1.35-2.77,2.72-5.53,4.07-8.31,.37-.75,.71-1.51,1.05-2.27,.3-.66,.36-1.37,.28-2.08-.09-.84-.5-1.49-1.2-1.95-.45-.3-.95-.5-1.55-.51-.08,.14-.17,.27-.24,.42-.35,.8-.66,1.62-1.05,2.41-1.53,3.1-3.09,6.19-4.65,9.27-.19,.37-.42,.72-.71,1.02-2.22,2.37-4.5,4.7-6.93,6.87-.53,.47-1.09,.9-1.66,1.32-.15,.11-.36,.14-.63,.24-.03-.3-.09-.51-.05-.69,.14-.61,.27-1.23,.5-1.8,.55-1.35,1.11-2.7,1.75-4.01,1.21-2.47,2.48-4.91,3.71-7.37,.3-.6,.62-1.19,.85-1.81,.64-1.67,.13-3.04-1.43-3.92-.31-.17-.62-.46-1.07-.23-.96,2.64-2.31,5.13-3.57,7.67-1,2.01-2,4.03-2.97,6.06-.37,.79-.69,1.61-.95,2.44-.13,.42-.17,.91-.12,1.35,.08,.79,.3,1.56,.69,2.26,.18,.33,.38,.65,.62,.93,.68,.79,1.42,.93,2.35,.45,.37-.19,.73-.42,1.05-.67,.62-.49,1.25-.97,1.82-1.52,1.33-1.27,2.62-2.57,3.93-3.85,.12-.12,.21-.39,.52-.18-.32,.76-.64,1.52-.97,2.28-.41,.94-.21,1.79,.39,2.57,.5,.64,1.1,1.14,1.86,1.43,.26,.1,.55,.1,.85,.15,.81-1.07,1.58-2.1,2.38-3.12,.8-1.02,1.62-2.02,2.44-3.01,.85-1.03,1.71-2.05,2.57-3.07,.83-.99,1.66-1.98,2.52-2.95,.84-.93,1.55-1.98,2.59-2.74-.04,.3-.14,.56-.27,.81-.7,1.33-1.42,2.64-2.09,3.98-.62,1.23-1.2,2.47-1.76,3.73-.84,1.9-.25,3.6,.89,5.15,.63,.86,1.49,1.03,2.44,.55,.52-.26,1.02-.58,1.46-.96,1.03-.9,2.02-1.86,3.03-2.8,.17-.16,.36-.29,.59-.47,.67,1.31,1.26,2.57,2.72,3.07,.19-.08,.39-.14,.57-.24,.43-.26,.85-.52,1.26-.82,3.82-2.78,7.37-5.86,10.6-9.32,1.14-1.22,2.18-2.52,3.06-3.95,.12-.2,.28-.38,.49-.67,.04,.26,.09,.38,.08,.49-.34,2.53-.85,5.01-1.72,7.41-.87,2.41-2.03,4.66-3.68,6.63-2.12,2.53-4.73,4.29-7.97,5.09-1.79,.44-3.59,.77-5.42,.92-2.78,.23-5.57,.43-8.36,.47-4.04,.07-8.09,.05-12.13-.04-6.8-.15-13.59-.24-20.39-.11-3.88,.07-7.75,.34-11.58,1-1.85,.32-3.67,.76-5.41,1.48-1.01,.42-1.96,.93-2.78,1.65-.57,.5-1.06,1.06-1.36,1.77-.63,1.5,.01,3.13,1.5,3.74,.37,.16,.77,.34,1.29,.19,1.35-2.07,3.5-3.01,5.81-3.71,.2-.06,.4-.12,.6-.17,2.52-.65,5.08-.98,7.67-.98,5.21,0,10.42,.04,15.64,.11,8.3,.11,16.59,.05,24.86-.86,3.28-.36,6.52-.89,9.7-1.79,7.86-2.23,13.32-7.17,16.42-14.7,1.13-2.76,1.78-5.64,2.04-8.6,.11-1.28,.07-2.58,.09-3.87,0-.51-.09-1.01-.42-1.41Z"/>
      <path d="M144.16,47.22c-.64,1.88,.02,3.52,1.19,4.98,.57,.71,1.38,.76,2.17,.48,.54-.19,1.07-.48,1.53-.82,.93-.7,1.8-1.47,2.7-2.23,.31-.26,.61-.55,1.02-.92,.97,1.49,2.2,2.46,3.63,3.2,1.27,.66,2.47,.6,3.67-.15,.89-.56,1.66-1.26,2.36-2.03,1.1-1.2,2.04-2.53,2.91-3.91,1.8-2.87,3.3-5.89,4.55-9.03,2-5,5.1-9.24,8.86-13.04,.16-.16,.36-.29,.6-.48,.09,.5-.19,.79-.33,1.12-.57,1.34-.77,2.72-.57,4.16,.07,.53,.16,1.06,.65,1.55,.3-1.05,1.06-1.64,1.82-2.22,.6-.45,1.23-.87,1.81-1.34,.51-.42,1.01-.87,1.44-1.38,.73-.85,.75-1.82,.25-2.8-.11-.22-.24-.44-.39-.64-.8-1.05-1.81-1.83-3-2.39-.58-.28-1.19-.33-1.83-.22-1.04,.18-2.01,.54-2.92,1.07-1.01,.59-1.92,1.32-2.77,2.13-1.57,1.51-2.88,3.23-4.06,5.06-1.72,2.67-3.11,5.51-4.26,8.47-1.13,2.87-2.34,5.7-3.75,8.45-.86,1.67-1.79,3.29-2.73,4.91-.31,.54-.73,1.01-1.12,1.5-.12,.16-.3,.3-.62,.15-.24-.64-.15-1.34,.04-2.01,.38-1.32,.76-2.64,1.27-3.92,1.04-2.63,2.18-5.23,3.25-7.85,.58-1.43,1.11-2.87,1.66-4.31,.31-.8,.32-1.63,.17-2.46-.67-3.57-2.65-6.14-5.92-7.71-.1-.05-.24-.02-.4-.03-.16,.24-.31,.47-.43,.65,0,.13,0,.18,.02,.21,.08,.19,.16,.38,.25,.57,.91,1.87,1.33,3.85,1.31,5.92-.01,1.55-.26,3.07-.64,4.57-.62,2.48-1.62,4.81-2.73,7.1-.58,1.2-1.19,2.39-1.77,3.59-.31,.64-.62,1.28-.62,2.01,0,.38-.23,.61-.49,.83-.98,.84-1.96,1.68-2.97,2.49-.35,.28-.77,.49-1.18,.7-.31,.16-.64-.05-.59-.38,.08-.53,.15-1.08,.34-1.58,.62-1.55,1.23-3.1,1.95-4.6,1.21-2.51,2.51-4.98,3.77-7.48,.32-.63,.61-1.28,.87-1.93,.77-1.92-.84-3.81-2.47-3.93-.06,.05-.15,.1-.17,.17-.77,2.21-1.87,4.27-2.91,6.36-1.02,2.05-2.07,4.09-3.07,6.15-.51,1.05-.98,2.12-1.36,3.22Z"/>
      <path d="M100.01,61.44c.22-.12,.39-.32,.75-.61-.59,.11-.95,.18-1.32,.25-2.67,.47-5.38,.61-8.09,.7-8.25,.29-16.5,.29-24.75,.15-5.5-.09-11-.09-16.5-.14-1.72-.01-3.41,.18-5.08,.55-1.64,.36-3.21,.9-4.61,1.85-1.02,.69-1.85,1.54-2.39,2.66-.43,.89-.57,1.83-.43,2.8,.08,.54,.23,1.07,.82,1.27,.1-.03,.2-.04,.26-.09,1.25-1.11,2.78-1.65,4.35-2.09,2.41-.69,4.87-1.12,7.35-1.44,2.44-.32,4.88-.59,7.32-.83,2.7-.26,5.4-.47,8.1-.66,1.99-.14,3.99-.23,5.99-.34,4.24-.23,8.49-.45,12.73-.68,3.29-.18,6.56-.49,9.78-1.25,1.99-.47,3.93-1.08,5.73-2.1Z"/>
      <path d="M126.29,35.96c.23-.1,.45-.21,.77-.36-.11-1.06-.46-1.95-1.1-2.69-.94-1.09-2.13-1.58-3.58-1.2-2.13,.56-3.43,1.95-3.99,4.06-.22,.85-.27,1.73-.18,2.61,.16,1.5,.04,3-.11,4.49-.17,1.62-.53,3.2-1.19,4.71-.46,1.04-1.05,1.99-1.88,2.78-1.33,1.25-2.93,1.71-4.72,1.55-.71-.06-.95-.3-1.02-1.02-.04-.45-.03-.92,.05-1.37,.37-2.17,1.73-3.47,3.89-3.76,.1-.01,.19-.1,.29-.16-.43-.68-.55-.78-1.07-1.01-1.4-.62-3.87-.26-4.88,1.65-.4,.75-.64,1.53-.68,2.38-.08,1.85,.58,3.43,1.75,4.81,1.24,1.46,2.83,2.44,4.59,3.15,.61,.25,1.22,.24,1.84,.08,.99-.25,1.84-.77,2.62-1.41,1.41-1.15,2.49-2.57,3.33-4.17,.87-1.67,1.3-3.42,1-5.31-.03-.21-.05-.41-.07-.62-.11-1.72,.04-3.41,.6-5.06,.65-1.91,1.87-3.32,3.74-4.14Z"/>
      <path d="M101.76,13.86c.47-.26,.87-.64,1.29-.98,.25-.2,.48-.43,.76-.68,.27,.29,.5,.53,.73,.77,.67,.72,1.47,.93,2.39,.56,.53-.22,1.04-.49,1.7-.8-.24,1.86-.73,3.61-.89,5.51,1.02-.14,1.91-.4,2.79-.72,.46-1.45,.55-2.97,1.08-4.38,.49,.14,.91,.33,1.34,.37,1.8,.19,3.29-.42,4.38-1.87,1.19-1.6,1.69-3.43,1.61-5.41-.06-1.52-.95-2.33-2.47-2.44-.81-.06-1.57,.14-2.31,.42-.06,.02-.14-.04-.22-.06-.22-.33,.24-.72-.11-1.07h-2.97c-.09,.25-.17,.44-.22,.64-.17,.69-.34,1.38-.49,2.07-.27,1.22-.53,2.44-.8,3.66-.15,.65-.33,1.29-.76,1.83-.31,.38-.68,.6-1.19,.58-.42-.02-.73-.27-.75-.68-.02-.33,.02-.67,.08-.99,.33-1.76,.69-3.52,1.02-5.28,.06-.31,.07-.63,.11-1.04-1.05-.06-1.99,.05-2.93,.19-.16,.02-.29,.25-.47,.42-1.07-.68-2.21-.48-3.33-.04-.96,.38-1.7,1.04-2.26,1.9-.89,1.37-1.27,2.89-1.2,4.52,.02,.49,.12,1,.27,1.47,.61,1.88,2.54,2.27,3.84,1.54Zm10.31-3.02c.38-1.44,.72-2.9,1.08-4.35,.18-.72,.65-1.14,1.34-1.34,.68-.2,1.26,.15,1.39,.85,.05,.24,.04,.49,.05,.62-.03,1.3-.3,2.43-.84,3.47-.23,.43-.55,.83-.88,1.19-.31,.35-.75,.52-1.22,.55-.97,.06-1.08-.36-.91-1.01Zm-10.49-4.11c.21-.4,.5-.76,.81-1.09,.29-.31,.69-.44,1.13-.43,.53,.01,.89,.35,.81,.87-.23,1.52-.46,3.03-.75,4.54-.14,.72-.59,1.27-1.35,1.5-.55,.16-1.03-.02-1.2-.57-.16-.5-.2-1.05-.29-1.57,.09-1.15,.32-2.24,.85-3.25Z"/>
      <path d="M83.53,9.4c.47,.18,.96,.26,1.48,.07-.19-.56-.44-1.09-.53-1.65-.09-.52-.06-1.08,0-1.6,.07-.59,.34-1.12,.71-1.58,.35-.44,.7-.91,1.39-1.13,.13,.96,.06,1.83,.07,2.69,.02,.88,.01,1.75,.03,2.63,.02,.88,.06,1.75,.08,2.62,.03,.88,.04,1.75,.07,2.63,.03,.87,.06,1.74,.09,2.67,1.04-.11,1.93-.37,2.88-.75,0-.43,0-.84,0-1.25,0-1.75,0-3.5,0-5.25,0-.28,.06-.57,.1-.87,1.03-.23,1.99-.62,3.1-.53,.1,.86-.07,1.64-.08,2.42-.01,.79-.06,1.58-.06,2.38,0,.78-.14,1.57,.09,2.39,.94-.06,1.82-.22,2.74-.55,.04-.29,.06-.45,.08-.62,.26-3.45,.51-6.9,.78-10.35,.08-1,.21-1.99,.29-2.99,.02-.23-.05-.47-.08-.78-1.08,.2-2.12,.23-3.15,.58-.4,1.95-.22,3.93-.61,5.86-1.05,.23-2.03,.54-3.11,.57-.16-.96-.02-1.87-.03-2.78-.01-.95,.2-1.89,.12-2.8-.17-.07-.24-.13-.31-.13-.21,0-.42,.02-.62,.07-2.03,.51-3.8,1.49-5.22,3.04-.47,.52-.87,1.12-1.2,1.74-.22,.43-.32,.95-.35,1.44-.06,.93,.35,1.5,1.22,1.82Z"/>
      <path d="M128.85,13.56c-.02,.93,.46,1.61,1.34,1.89,.63,.21,1.28,.37,1.96,.13,.26-.09,.54-.13,.82-.19,.04,.07,.08,.13,.11,.2-.13,.09-.24,.22-.38,.25-.45,.08-.91,.09-1.36,.18-.45,.09-.91,.17-1.31,.37-1.46,.72-1.61,2.65-.3,3.6,.3,.22,.65,.39,1.01,.47,1.31,.28,2.5,.03,3.41-1.02,.35-.4,.66-.86,.92-1.33,1.76-3.07,3.5-6.16,5.24-9.24,.12-.21,.21-.44,.33-.7-1.03-.42-2.01-.69-3.07-.89-.21,.33-.42,.64-.6,.96-.74,1.35-1.45,2.72-2.21,4.06-.26,.47-.58,.91-.94,1.31-.31,.35-.75,.51-1.24,.46-.42-.04-.72-.36-.63-.76,.08-.36,.21-.72,.38-1.05,.74-1.49,1.5-2.97,2.25-4.46,.18-.37,.35-.74,.55-1.16-1.06-.35-2.04-.62-3.04-.66-.11,.1-.2,.15-.23,.22-.92,1.96-1.86,3.91-2.74,5.89-.2,.44-.26,.97-.28,1.46Zm2.96,4.45c-.18,.26-.47,.46-.75,.62-.28,.16-.67,.05-.9-.22-.21-.24-.27-.53-.09-.8,.16-.24,.33-.49,.56-.64,.52-.34,1.1-.56,1.94-.38-.29,.56-.49,1.02-.77,1.41Z"/>
      <path d="M116.95,18.28c1.01,.08,1.88-.23,2.83-.32,.49-1.43,.97-2.84,1.5-4.38,.73,.43,1.32,.68,2.01,.73,1.72,.11,3.1-.5,4.18-1.81,1.06-1.29,1.63-2.79,1.89-4.43,.05-.29,.04-.58,.02-.87-.06-1.07-.62-1.81-1.63-2.13-.72-.23-1.46-.34-2.22-.15-.27,.07-.55,.1-.92,.16,.04-.41,.07-.71,.11-1.09-1.03-.27-2.04-.34-3.14-.39-.44,1.25-.87,2.47-1.29,3.68-.4,1.18-.8,2.37-1.18,3.55-.4,1.23-.81,2.45-1.16,3.69-.34,1.22-.82,2.41-1.01,3.75Zm5.03-6.66c.53-1.45,1.08-2.88,1.59-4.33,.23-.66,.69-1.03,1.32-1.21,.79-.22,1.42,.24,1.49,1.05,.02,.21,.02,.42-.02,.62-.22,1.24-.61,2.42-1.34,3.46-.36,.52-.79,.99-1.41,1.19-.34,.11-.73,.14-1.1,.1-.21-.02-.41-.23-.63-.36,.04-.21,.04-.38,.1-.53Z"/>
      <path d="M155.37,30.82c.49-1.02,.85-2.09,.98-3.21,.09-.74,.1-1.5-.01-2.24-.15-1.02-.72-1.41-1.75-1.36-.28,.01-.57,.1-.88,.15-.55,1.94-1.09,3.85-1.65,5.85,.6,.58,1.18,.97,1.82,1.28,.81,.4,1.1,.31,1.49-.48Z"/>
      <path d="M143.24,76.33c-.39-.17-.65-.36-.92-.37-.83-.03-1.68-.13-2.48,.04-1.9,.41-3.57,1.32-4.95,2.71-.19,.19-.35,.42-.54,.64,.45,.52,.99,.35,1.46,.35,1.77-.01,3.47-.38,5.02-1.26,.88-.5,1.8-1.03,2.41-2.12Z"/>
      <path d="M137.5,71.71c-.01,.17-.03,.22-.01,.25,.06,.1,.12,.22,.2,.3,1.55,1.54,3.43,2.47,5.55,2.9,.83,.17,1.73,.2,2.52-.41-.34-.91-1.04-1.42-1.81-1.83-2-1.05-4.14-1.44-6.44-1.21Z"/>
      <path d="M149.2,75.03c-.74,.49-1.16,1.24-1.49,2.05-.54,1.33-.71,2.73-.68,4.15,.02,.76,.09,1.56,.53,2.43,.23-.26,.35-.37,.44-.5,.9-1.18,1.37-2.56,1.71-3.97,.25-1.04,.33-2.13,.08-3.21-.08-.35-.12-.75-.59-.95Z"/>
      <path d="M152.6,73.71c-.66,.52-.96,1.21-1.2,1.91-.44,1.28-.51,2.61-.32,3.94,.13,.88,.21,1.8,.78,2.55,.14-.05,.25-.06,.29-.11,1.23-1.98,1.63-4.16,1.38-6.45-.07-.67-.25-1.38-.92-1.84Z"/>
      <path d="M156.45,72.54c-.08-.13-.24-.21-.39-.33-.77,.77-1.13,1.67-1.32,2.67-.23,1.25-.1,2.49,.06,3.73,.1,.76,.28,1.55,.84,2.25,.17-.16,.25-.21,.28-.27,1.04-1.98,1.35-4.09,1.15-6.29-.06-.63-.28-1.21-.62-1.75Z"/>
      <path d="M142.68,67.87c-.31,.6,.02,.9,.19,1.19,.73,1.23,1.72,2.24,2.86,3.09,.57,.42,1.17,.8,1.87,.96,.46,.11,.94,.3,1.42,.08-.07-.9-.3-1.42-.93-2.15-1.09-1.25-2.48-2.07-3.99-2.7-.45-.19-.93-.31-1.43-.47Z"/>
      <path d="M146.13,76.29c-.82,.27-1.42,.88-1.95,1.58-1.07,1.42-1.6,3.07-1.91,4.8-.06,.34-.14,.73,.08,1.04,.08,.01,.13,.04,.16,.02,.11-.05,.23-.1,.32-.17,1.14-.87,1.97-2.01,2.7-3.21,.56-.92,.94-1.94,1.01-3.04,.02-.36,.09-.76-.4-1.02Z"/>
      <path d="M146.29,66.32c.69,1.99,1.9,3.61,3.58,4.84,.52,.38,1.19,.57,1.82,.78,.39,.13,.7-.19,.56-.55-.22-.58-.41-1.2-.77-1.69-1.28-1.76-2.96-3.01-5.1-3.75-.05,.22-.11,.31-.09,.37Z"/>
      <path d="M155.05,70.6c.59,.2,.92-.07,.75-.68-.15-.55-.38-1.1-.69-1.58-.91-1.43-2.23-2.44-3.68-3.28-.31-.18-.67-.26-1-.38-.33,.44-.14,.78,.01,1.11,.61,1.33,1.43,2.52,2.49,3.54,.61,.58,1.32,1,2.12,1.27Z"/>
      <path d="M159.68,71.18c-.6,.69-.89,1.41-.93,2.2-.04,.87-.05,1.74,0,2.61,.05,.78,.24,1.54,.71,2.45,.18-.26,.29-.38,.35-.52,.53-1.28,.73-2.62,.75-4,.01-.8-.11-1.57-.48-2.28-.08-.16-.25-.28-.41-.47Z"/>
      <path d="M76.9,15.11c1.02,.05,1.87-.72,1.89-1.71,.02-.97-.83-1.84-1.8-1.83-.94,0-1.73,.79-1.75,1.74-.03,.97,.69,1.75,1.66,1.8Z"/>
      <path d="M144.67,15.11c.98-.01,1.72-.74,1.74-1.72,.02-1-.8-1.84-1.78-1.83-.94,.01-1.72,.8-1.74,1.74-.02,1.03,.75,1.81,1.78,1.8Z"/>
      <path d="M159.29,69.48c-.23-1.83-2.13-3.7-4.31-4.2,.5,1.58,1.34,2.72,2.54,3.6,.36,.26,.79,.43,1.21,.6,.16,.06,.37,0,.56,0Z"/>
      <path d="M161.83,71.94c-.25,.92-.56,1.87-.15,2.88,1.23-1.21,1.61-2.5,1.27-4.35-.77,.29-.97,.91-1.12,1.47Z"/>
      <path d="M162.16,68.43c.19,.04,.44-.17,.4-.36-.04-.2-.09-.4-.2-.57-.65-1.11-1.64-1.81-2.97-2.36,.39,1.5,1.4,2.74,2.54,3.23,.07,.03,.16,.05,.24,.06Z"/>
      <path d="M165.81,68.82c-.68,.19-1.35,.38-2.03,.58,.74,.02,1.44-.13,2.03-.58Z"/>
    </g>
  </g>
</svg>