<?xml version="1.0" encoding="UTF-8"?>
<svg id="_图层_2" data-name="图层 2" xmlns="http://www.w3.org/2000/svg" viewBox="0 0 172.12 116.06">
  <g id="_图层_2-2" data-name=" 图层 2">
    <g>
      <path d="M169.3,36.81c-.42-.36-.93-.63-1.42-.89-.16-.09-.38-.04-.69-.07,.07,.36,.11,.61,.17,.84,.7,2.5,.36,4.89-.76,7.18-.97,1.98-2.38,3.61-4.13,4.93-3.72,2.82-7.92,3.94-12.55,3.54-.05,0-.1-.11-.16-.2,.28-.36,.73-.42,1.11-.59,2.73-1.22,5.37-2.6,7.77-4.41,1.32-.99,2.53-2.1,3.54-3.41,.59-.75,1.1-1.55,1.44-2.45,.26-.69,.45-1.4,.38-2.15-.05-.55-.11-1.1-.68-1.53-.09,.21-.18,.35-.22,.5-.61,2.37-1.89,4.34-3.61,6.05-1.49,1.48-3.2,2.63-5.04,3.62-2.76,1.48-5.69,2.49-8.7,3.34-.58,.16-1.09,.09-1.63-.13-2.14-.86-4.15-1.94-6.01-3.31-4.47-3.28-7.67-7.57-9.89-12.61-.8-1.81-.83-1.34,.34-2.85,4.2-5.42,8.97-10.3,14.11-14.83,2.6-2.29,5.28-4.47,8.09-6.5,.3-.22,.55-.55,.99-.5,.28,.59,.51,1.21,.84,1.75,.69,1.14,1.75,1.68,3.08,1.49,1.58-.22,2.98-.91,4.1-2.06,1.71-1.76,2-4.56,.7-6.59-1.02-1.6-2.64-2.12-4.38-1.4-.32,.13-.63,.29-.94,.44-5.62,2.77-10.73,6.31-15.35,10.53-3.36,3.07-6.4,6.44-9.16,10.06-.27,.36-.5,.77-1.13,1.22,.33-.68,.52-1.1,.73-1.51,2.86-5.55,6.23-10.78,10-15.75,.39-.52,.78-1.04,1.17-1.55,.47-.62,.62-1.32,.47-2.08-.32-1.61-1.05-3.01-2.19-4.2-.18-.19-.39-.34-.6-.49-.59-.4-.99-.31-1.37,.14-1.04,1.21-2.15,2.38-3.13,3.63-2.4,3.08-4.35,6.45-6.1,9.93-2.28,4.52-4.15,9.22-5.87,13.98-.23,.65-.52,1.29-.88,1.87-1.54,2.5-3.06,5.02-4.69,7.47-1.34,2.01-2.78,3.96-4.24,5.89-.65,.86-1.43,1.62-2.17,2.4-.16,.17-.39,.28-.68,.49,0-.53,.16-.88,.3-1.23,2.1-5.4,4.24-10.78,6.94-15.92,.43-.82,.42-1.57-.07-2.32-.26-.39-.54-.79-.89-1.1-.65-.57-1.34-1.09-2.03-1.61-.19-.14-.43-.21-.72-.35-.31,.51-.58,.95-.85,1.38-3.1,5.05-6.21,10.09-9.56,14.98-.9,1.32-1.87,2.59-2.82,3.88-.14,.2-.32,.37-.67,.77,.09-.68,.31-.99,.47-1.33,1.3-2.78,2.61-5.55,3.89-8.34,.34-.74,.58-1.53,.85-2.31,.15-.42,.16-.85-.14-1.23-.96-1.26-2.1-2.3-3.59-2.89-.68-.27-.96-.14-1.23,.5-.12,.28-.21,.57-.31,.85-1.74,5.11-3.48,10.22-5.21,15.34-.53,1.57-1.24,3.04-2.3,4.33-1.02,1.23-2.26,2.14-3.84,2.51-.19,.04-.4,0-.62,0-.27-.71-.14-1.35,.03-1.97,.31-1.12,.63-2.25,1.04-3.34,1.56-4.18,3.32-8.26,5.56-12.12,.33-.56,.34-1.03,.02-1.57-.66-1.13-1.45-2.15-2.43-3.02-.28-.25-.58-.54-1.15-.35-.23,.45-.51,.98-.76,1.53-2.11,4.55-4.22,9.1-6.72,13.45-1.03,1.8-2.14,3.55-3.31,5.27-.65,.96-1.46,1.82-2.24,2.68-.31,.35-.71,.63-1.11,.89-.38,.26-.77,.1-.92-.35-.21-.67-.24-1.35-.17-2.05,.28-2.73,1.31-5.18,2.84-7.44,1.96-2.9,4.56-5.06,7.68-6.62,.42-.21,.83-.43,1.26-.66-.15-1.23-.44-2.35-1.06-3.36-.63-1.05-1.33-1.32-2.53-1.02-.21,.05-.41,.14-.61,.2-1.2,.41-2.3,1-3.34,1.7-2.52,1.7-4.45,3.95-5.93,6.59-1.41,2.51-2.28,5.22-2.85,8.03-.36,1.76-.52,3.5-.06,5.26,.08,.31,.05,.59-.15,.86-.83,1.12-1.72,2.18-2.86,2.98-.38,.27-.83,.46-1.27,.63-.43,.16-.8-.08-.82-.55-.02-.56-.04-1.14,.09-1.67,.31-1.35,.64-2.69,1.07-4.01,1.6-4.98,3.62-9.81,5.7-14.61,.14-.32,.26-.64,.41-.95,.22-.46,.08-.85-.25-1.17-.21-.21-.46-.4-.71-.56-1.48-.88-3.1-1.31-4.8-1.44-.75-.06-1.32,.21-1.76,.85-1.47,2.14-3.01,4.23-4.45,6.39-1.61,2.41-3.05,4.93-4.17,7.61-.09,.21-.23,.41-.42,.75,.12-2.32,3.43-15.69,4.35-17.68,1.83-.27,3.71-.55,5.58-.84,3.2-.49,6.4-1.03,9.54-1.84,1.8-.46,3.57-1.02,5.25-1.84,1.47-.72,2.63-1.78,3.51-3.17,2.23-3.52,1.66-8.45-.84-11.42-.3-.36-.66-.7-1.03-.98-1.87-1.41-4.14-.99-5.35,1.02-.99,1.65-.99,3.37-.13,5.08,1.06,2.12,4.1,2.83,5.58,1.17,.09-.1,.23-.29,.42-.05-.25,.83-.7,1.58-1.36,2.15-.68,.59-1.41,1.14-2.18,1.62-1.29,.8-2.72,1.32-4.16,1.79-4.13,1.33-8.4,1.99-12.69,2.55-.19,.02-.39-.04-.65-.07,.09-.29,.13-.5,.21-.7,.5-1.19,.95-2.42,1.54-3.57,.47-.91,.34-1.67-.24-2.41-.94-1.21-2.18-1.96-3.7-2.19-1.02-.16-1.65,.25-1.99,1.22-.09,.24-.15,.5-.22,.75-.59,2.12-1.17,4.25-1.76,6.37-.11,.41-.24,.82-.36,1.23-.22,.05-.38,.12-.55,.13-1.25,.1-2.5,.19-3.75,.28-2.16,.16-4.31,.29-6.47,.49-4.54,.41-8.97,1.35-13.32,2.69-3.56,1.1-7,2.51-10.2,4.44-1.97,1.19-3.8,2.56-5.39,4.24-2.06,2.19-3.54,4.71-4,7.71-.34,2.24-.32,4.49,.22,6.7,.33,1.35,.87,2.63,1.69,3.77,1.32,1.83,3.06,3.02,5.28,3.49,1.97,.42,3.87,.2,5.74-.49,2.96-1.09,5.35-2.97,7.29-5.44,.56-.72,1.04-1.5,1.28-2.39,.17-.62,.31-1.28,.27-1.9-.07-1.27-.98-1.91-2.24-1.7-.17,.03-.33,.09-.5,.13-2.24,.65-2.95,2.18-1.96,4.28,.2,.43,.44,.83,.67,1.26-.54,.96-1.42,1.43-2.36,1.74-2.48,.83-4.94,.7-7.33-.39-.54-.25-1.06-.59-1.52-.97-1.11-.93-1.71-2.15-1.77-3.61-.04-1.1,.13-2.15,.52-3.18,1.21-3.09,3.03-5.71,5.78-7.64,1.46-1.02,3.02-1.86,4.64-2.57,2.82-1.24,5.75-2.12,8.73-2.87,3.82-.96,7.69-1.66,11.57-2.3,1.66-.28,3.33-.52,5-.75,.41-.06,.84-.23,1.27,.06-.06,.31-.09,.61-.17,.9-.44,1.76-.96,3.5-1.33,5.28-.47,2.27-1.35,4.34-2.45,6.38-3.15,5.81-6.22,11.67-9.33,17.51-.19,.36-.33,.77-.75,1.13-.2-.62-.09-1.12-.01-1.61,.18-1.11,.37-2.22,.6-3.32,1.02-4.69,2.07-9.37,3.11-14.05,.28-1.27,.56-2.53,.81-3.8,.22-1.14,.11-2.24-.62-3.21-.91-1.22-2.86-2.14-4.57-2.12-.02,.16-.07,.32-.06,.49,0,1.56-.21,3.11-.51,4.63-.76,3.77-1.53,7.54-2.31,11.3-.86,4.15-1.73,8.29-2.58,12.44-.22,1.06-.28,2.14-.16,3.23,.17,1.47,.76,2.74,1.84,3.76,.54,.52,1.18,.88,1.91,1.05,.96,.23,1.65-.14,1.89-1.07,.48-1.94,1.28-3.76,2.08-5.58,2.48-5.62,5.26-11.09,8.07-16.55,.11-.22,.25-.42,.51-.86,0,.51,.04,.75,0,.97-.36,1.82-.76,3.64-1.1,5.46-.34,1.83-.67,3.66-.73,5.52-.13,3.86,3,5.44,5.65,5.31,.12,0,.23-.1,.35-.16,.02-.13,.07-.26,.06-.38-.22-3.21,.45-6.28,1.48-9.29,1.8-5.24,4.55-9.97,7.74-14.47,.06-.08,.17-.12,.42-.27-.19,.56-.33,.96-.47,1.36-.94,2.83-1.91,5.65-2.8,8.5-.64,2.06-1.1,4.18-1.33,6.34-.11,1.05-.03,2.08,.36,3.06,.59,1.48,1.71,2.23,3.27,2.35,.98,.07,1.88-.23,2.74-.65,1.02-.5,1.93-1.16,2.72-1.97,.87-.9,1.67-1.87,2.5-2.81,.16-.18,.35-.34,.56-.55,.34,.5,.61,.93,.92,1.35,.47,.63,1,1.19,1.72,1.54,.76,.38,1.51,.38,2.22-.08,.43-.28,.86-.6,1.2-.98,.66-.74,1.32-1.5,1.87-2.32,.75-1.11,1.4-2.28,2.1-3.43,.1-.16,.25-.3,.43-.51,.19,2.06,.62,2.96,1.89,4.09,.86,.77,1.58,.87,2.61,.36,.82-.41,1.57-.91,2.2-1.58,.97-1.04,1.92-2.11,2.88-3.16,.23-.25,.47-.49,.85-.88-.06,.38-.08,.54-.11,.7-.17,.76-.34,1.52-.51,2.28-.25,1.09,.14,1.95,.96,2.65,.5,.43,1.08,.7,1.72,.87,1.46,.37,2.26-.08,2.8-1.49,.8-2.1,1.58-4.21,2.46-6.27,1.4-3.26,3.04-6.4,5.07-9.33,.94-1.35,1.95-2.65,3.13-3.8,.13-.12,.24-.37,.55-.19-.19,.44-.37,.87-.56,1.3-1.17,2.6-2.3,5.23-3.1,7.97-.28,.95-.49,1.93-.66,2.9-.24,1.42,.33,2.53,1.45,3.4,.66,.51,1.39,.85,2.22,1.02,1.02,.21,1.87,.01,2.52-.87,.69-.94,1.46-1.82,2.12-2.79,1.75-2.57,3.46-5.18,5.19-7.77,.17-.26,.38-.49,.62-.79,.04,.15,.07,.2,.06,.23-.8,2.92-1.57,5.84-2.42,8.74-.2,.68-.12,1.18,.38,1.62,.26,.23,.52,.47,.81,.64,1.06,.58,2.14,1.13,3.21,1.68,.13,.06,.31,0,.48,0,.05-.24,.1-.4,.13-.57,.28-1.84,.51-3.68,.84-5.51,.55-3.07,1.35-6.07,2.31-9.04,.07-.22,.08-.53,.45-.51,.53,1.18,1.01,2.39,1.61,3.53,.6,1.15,1.26,2.27,2,3.33,.71,1.03,1.51,2,2.37,2.92,.88,.95,1.84,1.83,2.83,2.67,.98,.83,2.04,1.55,3.19,2.41-.54,.11-.91,.22-1.29,.27-3.86,.51-7.74,.85-11.63,1.03-3.33,.15-6.66,.21-9.99,.3-.43,.01-.87,0-1.3,.03-1.53,.11-2.99,.45-4.29,1.3-.96,.63-1.71,1.46-2.13,2.55-.89,2.32,.28,4.43,2.72,4.88,.3,.05,.6,.06,.9,.07,1.76,.07,2.97-.75,3.69-2.33,.14-.31,.27-.63,.4-.94,.15-.05,.27-.1,.4-.12,3.17-.43,6.34-.83,9.51-1.29,5.26-.77,10.48-1.8,15.61-3.19,1.15-.31,2.11-.25,3.22,.19,3.89,1.57,7.94,2.38,12.17,1.99,5.8-.54,10.57-3.05,14.29-7.52,1.17-1.41,2.1-2.96,2.68-4.71,1.01-3.06,.05-6.51-2.41-8.59Z"/>
      <path d="M157.21,63.05c-.7-1.71-2.72-2.42-4.49-1.84-2.05,.67-2.77,2.69-2.57,4.04,.29,1.94,1.81,3.27,3.74,3.29,.95,0,1.77-.3,2.5-.91,.18-.15,.32-.44,.72-.25,.13,1.78,.03,3.59-.37,5.36-1.04,4.54-3.73,7.63-8.17,9.09-1.23,.4-2.51,.64-3.77,.91-.92,.2-1.85,.34-2.91,.54,.11-.33,.15-.53,.25-.7,2.23-4.19,3.69-8.66,4.65-13.29,.51-2.46,.82-4.94,1.14-7.43,.12-.93-.19-1.6-.92-2.12-.99-.72-2.06-1.28-3.28-1.46-.28-.04-.58,.04-.94,.07-.08,.75-.14,1.43-.24,2.11-.31,2.14-.63,4.27-.94,6.41-.1,.7-.37,1.31-.81,1.87-1.24,1.55-2.41,3.16-3.7,4.68-1.2,1.42-2.48,2.77-3.77,4.11-.96,1-2.03,1.88-3.22,2.61-.62,.38-1.25,.78-2,.81-.34-.25-.38-.6-.37-.94,.04-.86,.04-1.73,.19-2.58,1.19-6.82,4.85-11.71,11.34-14.36,.28-.11,.57-.21,.83-.36,.49-.29,.65-.79,.47-1.35-.17-.51-.47-.92-.87-1.27-.84-.73-1.83-1.13-2.94-1.2-1.54-.1-2.89,.41-4.12,1.28-1.52,1.08-2.87,2.37-4.03,3.83-2.58,3.25-3.98,6.95-4.25,11.08-.03,.43,0,.86-.25,1.25-1.11,1.76-2.25,3.49-3.74,4.96-.24,.23-.52,.42-.94,.74,.05-.47,.03-.76,.11-1.02,.39-1.33,.76-2.66,1.21-3.97,1.27-3.68,2.43-7.4,4.4-10.78,.04-.07,.09-.15,.12-.23,.34-.81,.21-1.53-.43-2.13-.28-.26-.61-.49-.95-.67-1.06-.58-2.2-.96-3.32-1.35-.43,.36-.6,.82-.83,1.22-2.19,3.73-4.41,7.44-6.83,11.02-.8,1.18-1.67,2.31-2.53,3.45-.14,.19-.25,.46-.58,.42-.11-.32,.07-.58,.16-.85,.78-2.34,1.57-4.67,2.34-7.01,.24-.74,.43-1.49,.63-2.25,.12-.44,.05-.85-.23-1.23-.7-.95-1.54-1.75-2.57-2.34-.34-.19-.7-.35-1.2-.12-.11,.29-.27,.64-.38,1-1.64,5.24-3.32,10.46-4.87,15.73-.46,1.56-1.16,2.86-2.32,3.95-.28,.27-.55,.56-.84,.81-.26,.22-.53,.45-.84,.6-.2,.09-.46,.04-.79,.06-.02-.56-.09-1.03-.04-1.49,.13-1.25,.25-2.5,.49-3.72,.74-3.73,1.54-7.45,2.31-11.17,.18-.89,.39-1.78,.5-2.67,.14-1.22-.41-2.01-1.61-2.29-1.33-.31-2.64-.17-3.87,.3-.07,1.16-.1,2.23-.22,3.3-.24,2.06-.73,4.08-1.29,6.08-.91,3.29-1.86,6.57-2.79,9.85-.23,.83-.42,1.68-.62,2.52-.24,.96,.02,1.79,.65,2.53,.63,.74,1.37,1.32,2.25,1.71,1.07,.48,2.07,.5,2.97-.41,1.12-1.14,2.28-2.24,3.42-3.36,.27-.26,.54-.53,.96-.96-.05,.46-.05,.7-.1,.93-.24,1.01,.18,1.77,.91,2.4,.5,.43,1.1,.68,1.75,.79,.95,.16,1.56-.18,1.95-1.08,.09-.2,.16-.4,.24-.6,1.68-4.04,3.61-7.95,6.11-11.56,1.06-1.53,2.23-2.98,3.58-4.26,.17-.16,.37-.28,.56-.41,.02,.37-.09,.64-.21,.9-.79,1.68-1.63,3.34-2.36,5.05-.52,1.23-.94,2.51-1.32,3.79-.17,.57-.21,1.2-.17,1.79,.12,1.62,1.16,2.7,2.76,2.98,1.01,.18,1.98-.04,2.94-.29,.31-.08,.61-.34,.83-.59,.45-.52,.88-1.07,1.26-1.65,1.04-1.59,2.06-3.2,3.09-4.8,.13-.2,.3-.36,.55-.65,.1,.39,.18,.63,.23,.88,.08,.42,.13,.86,.23,1.27,.36,1.53,1.3,2.62,2.65,3.36,.91,.5,1.82,.5,2.65-.22,.59-.51,1.2-1,1.75-1.55,2.11-2.11,4.19-4.25,6.29-6.37,.29-.29,.48-.7,.95-.83-.21,1.68-2.18,6.01-3.94,8.68-.42,.1-.79,.2-1.17,.28-3.59,.79-7.19,1.52-10.76,2.38-4.12,.99-8.17,2.21-12.09,3.86-2.12,.89-4.17,1.91-6.05,3.23-1.28,.9-2.46,1.91-3.4,3.17-.79,1.06-1.31,2.22-1.57,3.52-.15,.76,.06,1.36,.55,1.9,.56,.62,1.26,1.05,2.03,1.37,1.21,.5,2.47,.76,3.78,.83,2.85,.15,5.59-.37,8.3-1.2,3.95-1.22,7.63-3.03,11.19-5.08,3.89-2.23,7.45-4.89,10.47-8.21,.53-.58,1.11-.9,1.86-1.05,2.25-.45,4.45-1.08,6.61-1.85,2.99-1.06,5.84-2.39,8.39-4.3,1.5-1.12,2.84-2.41,3.9-3.95,1.84-2.67,2.57-5.61,2.3-8.84-.23-2.68-1.26-5.11-2.25-7.54Zm-28.12,28.75c-2.65,2.74-5.49,5.26-8.72,7.32-2.46,1.56-5.07,2.78-7.91,3.48-3.04,.74-6.07,.76-9.12,.1-.21-.05-.41-.13-.62-.17-.91-.19-.84-.87-.4-1.33,.48-.5,.97-1,1.55-1.36,1.17-.73,2.37-1.43,3.6-2.04,3.35-1.64,6.87-2.81,10.44-3.86,3.44-1.01,6.93-1.82,10.44-2.54,.29-.06,.59-.07,1.08-.12-.2,.32-.25,.44-.33,.53Z"/>
      <path d="M65.67,74.11c-.32-1.28-.9-2.43-1.83-3.38-.24-.24-.54-.45-.84-.59-.65-.29-1.22-.03-1.45,.64-.13,.37-.22,.75-.27,1.13-.19,1.33-.35,2.66-.53,3.98-.28,2.19-.55,4.37-.85,6.56-.06,.46-.19,.95-.42,1.35-1.98,3.41-4.15,6.7-6.88,9.56-.86,.9-1.82,1.73-2.81,2.49-.64,.49-1.41,.82-2.14,1.2-.62,.33-1.27,.07-1.5-.72-.09-.33-.19-.67-.19-1.01,0-.69,0-1.39,.1-2.07,.59-3.78,2.02-7.23,4.16-10.39,.9-1.33,1.95-2.53,3.21-3.55,1.58-1.28,3.35-2.12,5.41-2.27,.17-.01,.35-.02,.51-.06,.46-.12,.72-.55,.56-1-.1-.28-.24-.56-.42-.8-1.6-2.06-5.37-3.51-8.2-1.17-.4,.33-.8,.66-1.17,1.03-3.59,3.57-6.2,7.75-7.7,12.6-.83,2.67-1.15,5.41-.62,8.2,.37,1.94,1.08,3.74,2.23,5.34,1.01,1.4,2.27,1.77,3.86,1.07,.67-.29,1.33-.66,1.88-1.13,.98-.84,1.92-1.74,2.79-2.71,1.79-2,3.28-4.24,4.69-6.52,.22-.36,.46-.7,.74-1.13,.04,.2,.09,.29,.07,.37-1.01,3.64-2.34,7.15-4.36,10.36-2.2,3.49-4.98,6.41-8.5,8.6-2.16,1.34-4.5,2.2-7.06,2.39-2.58,.19-4.98-.35-7.2-1.7-1.93-1.17-2.98-2.83-2.92-5.13,.02-.91,0-1.82,.1-2.72,.21-2.02,.64-4.01,1.21-5.96,1.03-3.5,2.44-6.83,4.44-9.91,.28-.42,.51-.89,1.02-1.27,.33,.41,.55,.74,.82,1.01,1.06,1.1,2.36,1.42,3.8,1.02,2.07-.58,3.2-2.83,2.49-4.85-.72-2.04-2.94-3.06-4.95-2.27-.8,.32-1.6,.65-2.4,.97-1.76,.7-3.24,1.8-4.48,3.23-1.09,1.26-1.9,2.68-2.54,4.2-.65,1.56-1.07,3.19-1.42,4.85-.55,2.68-.8,5.39-.64,8.12,.12,2.08,.52,4.12,1.33,6.05,1.6,3.8,4.39,6.25,8.37,7.31,3.33,.88,6.69,.73,10.03,.1,2.72-.51,4.98-1.92,6.96-3.8,2-1.89,3.56-4.12,4.91-6.5,1.58-2.79,2.82-5.74,3.88-8.76,1.77-5.07,3.01-10.28,3.92-15.57,.32-1.87,.56-3.76,.82-5.64,.05-.38,.07-.79-.02-1.16Z"/>
      <path d="M98.3,59.73c.35,.21,.63,.41,.93,.55,1.58,.75,3.42-.29,3.55-2.01,.09-1.13-.57-2.14-1.64-2.53-1.07-.39-2.2-.02-2.86,.92-.57,.81-1.14,1.62-1.69,2.44-.46,.68-.93,1.36-1.33,2.07-.97,1.74-1.94,3.47-2.82,5.25-2.49,5.04-4.57,10.26-6.54,15.52-.17,.44-.34,.89-.54,1.32-.03,.07-.17,.09-.28,.13,.56-2.61,1.15-5.21,1.49-7.85,.26-2.02,.54-4.03,.42-6.07-.2-3.59-2.15-6.2-5.53-7.41-.37-.13-.74-.24-1.12-.33-.8-.19-1.6-.36-2.4-.55-.64-.15-1.28-.15-1.93-.02-2.51,.53-4.08,3.05-3.42,5.51,.69,2.56,3.31,3.98,5.79,3.13,1.26-.43,2.13-1.27,2.69-2.47,.13-.29,.1-.69,.53-.89,.38,.62,.53,1.29,.67,1.95,.47,2.18,.43,4.38,.15,6.58-.44,3.49-1.45,6.84-2.68,10.13-.13,.36-.3,.72-.51,1.04-1.22,1.84-2.53,3.61-4.04,5.23-.44,.47-.93,.91-1.41,1.34-.19,.17-.43,.29-.66,.4-.32,.14-.65-.03-.67-.38-.03-.6-.05-1.21,.02-1.81,.15-1.24,.33-2.49,.58-3.71,.76-3.72,1.57-7.44,2.35-11.16,.14-.68,.3-1.35,.36-2.04,.1-1.24-.43-1.99-1.64-2.27-1.33-.32-2.64-.15-3.95,.34,0,.74,.03,1.42,0,2.11-.09,1.91-.5,3.77-.99,5.61-1,3.71-2.07,7.4-3.1,11.11-.29,1.04-.49,2.1-.75,3.15-.18,.73,.03,1.37,.44,1.96,.6,.87,1.41,1.51,2.36,1.98,1.16,.56,2.25,.59,3.19-.45,.14-.16,.32-.29,.49-.43,1.75-1.56,3.31-3.29,4.77-5.12,.2-.25,.44-.47,.76-.81,.05,.41,.07,.67,.12,.92,.14,.75,.51,1.38,1.12,1.84,.41,.31,.86,.59,1.32,.81,1.44,.66,2.97,.93,4.54,.91,.47,0,.95-.1,1.4-.22,.54-.13,.71-.34,.72-.92,.03-1.57,.38-3.09,.79-4.59,.4-1.46,.81-2.92,1.27-4.36,2.74-8.52,6-16.85,9.3-25.16,.09-.23,.23-.44,.37-.71Z"/>
      <path d="M147.8,22.08c-1.14,1.49-1.22,3.09-.46,4.76,.51,1.14,1.4,1.71,2.67,1.69,1.13-.01,2.11-.43,3-1.08,3-2.18,2.9-5.83-.22-7.84-.89-.57-1.86-.9-2.9-1.07-3.28-.55-6.29,1.24-7.32,4.4-.69,2.09-.68,4.17,.21,6.21,.42,.95,.94,1.85,1.39,2.78,.34,.7,.69,1.39,.97,2.12,.34,.88,.32,1.77,0,2.67-.37,1.07-.88,2.07-1.59,2.96-.57,.72-1.26,1.31-2.08,1.72-.92,.46-1.89,.62-2.9,.38-1.13-.27-1.9-.94-2.29-2.27,.67,0,1.19,.03,1.7,0,1.73-.14,2.89-1.06,3.47-2.68,.2-.56,.32-1.17,.39-1.77,.25-2.16-1.04-3.95-3.17-4.37-.77-.15-1.55-.14-2.31,.08-2.03,.6-3.23,2-3.63,4.01-.64,3.22,.16,6.1,2.41,8.51,1.47,1.57,3.32,2.34,5.48,2.16,2.99-.24,5.45-1.58,7.39-3.84,.69-.8,1.07-1.76,1.3-2.79,.37-1.67,.06-3.27-.43-4.85-.44-1.41-1.11-2.72-1.8-4.01-.41-.76-.79-1.54-1.11-2.34-.37-.93-.51-1.92-.42-2.93,.13-1.45,.82-2.53,2.13-3.17,.17-.08,.36-.28,.58-.05-.07,.11-.13,.22-.21,.32-.08,.1-.17,.19-.25,.3Z"/>
      <path d="M86.81,101.31c-.22,1.24-.19,2.44-.27,3.64-.03,.39-.02,.78-.07,1.16-.05,.39-.22,.74-.55,.99-.3,.22-.77,.1-.84-.26-.07-.38-.1-.77-.1-1.15,.02-.99,.07-1.98,.09-2.98,0-.29-.04-.59-.07-.9-.61-.14-1.14-.13-1.64,.27-.03,.35-.08,.69-.09,1.04-.05,1.03-.09,2.07-.13,3.1-.02,.48-.09,.95-.4,1.34-.19,.25-.44,.41-.78,.35-.27-.05-.47-.3-.5-.67-.02-.3-.02-.6-.01-.91,.02-.99,.05-1.99,.06-2.98,0-.34-.03-.68-.06-1.12-.45,.09-.83,.13-1.19,.23-.52,.16-1.02,.3-1.59,.26-.79-.06-1.42,.35-1.88,.97-1.12,1.5-1.27,3.19-.78,4.93,.35,1.26,1.73,1.7,2.91,.74,.13-.11,.23-.25,.36-.37,.17-.17,.35-.34,.53-.5,1.21,1.12,1.84,1.01,3.39-.53,.08,.03,.17,.04,.23,.09,1.04,.76,1.38,.78,2.42,.11,.16-.1,.28-.34,.62-.15-.15,.2-.28,.38-.42,.56-.56,.14-1,.48-1.33,.94-.33,.45-.38,.96-.14,1.47,.24,.52,.65,.78,1.22,.81,.98,.06,1.79-.4,2.17-1.31,.15-.35,.24-.75,.26-1.12,.1-2.5,.18-5,.25-7.51,0-.25-.05-.5-.08-.85-.55,.1-1.05,.19-1.58,.29Zm-7.1,4.18c-.04,.53-.08,1.13-.14,1.73-.04,.39-.18,.75-.49,1.03-.45,.4-1.03,.29-1.26-.27-.08-.2-.16-.41-.18-.62-.13-1.05-.04-2.08,.39-3.04,.13-.3,.37-.59,.63-.79,.44-.34,.99-.08,1.05,.46,.01,.09,.01,.17,.01,.26,0,.39,0,.78,0,1.24Zm6.71,4.09c-.05,.42-.13,.84-.51,1.11-.27,.19-.74,.02-.83-.3-.09-.35-.02-.67,.21-.95,.23-.28,.48-.55,.73-.83,.43,.2,.44,.58,.4,.97Z"/>
      <path d="M98.98,17.18c.45,.84,1.33,1.17,2.2,.77,.34-.16,.63-.45,.92-.69,.19-.16,.34-.36,.59-.62,.11,.17,.17,.29,.26,.39,.51,.59,1.12,.57,1.76,.28,.2-.09,.37-.23,.56-.33,.17-.09,.36-.16,.57-.25,.27,1.26-.19,2.48,.18,3.73,.31-.11,.56-.17,.79-.27,.27-.12,.52-.28,.76-.41,.24-1.06-.05-2.12,.3-3.16,.28,0,.54,0,.79,0,1.28,0,2.13-.66,2.58-1.81,.54-1.38,.5-2.79,.08-4.2-.04-.12-.09-.24-.16-.35-.38-.68-1-.96-1.75-.73-.37,.11-.71,.31-1.07,.46-.07,.03-.16,.02-.25,.02-.09-.18-.19-.37-.29-.56-.55-.13-1.03,.05-1.57,.29-.03,.36-.07,.74-.09,1.12-.06,1.21-.11,2.42-.17,3.63-.02,.53-.11,1.03-.5,1.43-.2,.2-.45,.27-.71,.21-.29-.07-.43-.29-.45-.56-.03-.3-.03-.6-.02-.91,.02-1.12,.05-2.25,.06-3.37,0-.23-.08-.47-.13-.74-.43,.05-.77,.07-1.11,.15-.32,.07-.61,.26-.93,.31-.33,.05-.7-.08-1.02-.02-.76,.15-1.34,.59-1.75,1.24-.89,1.4-.96,2.93-.65,4.5,.03,.17,.12,.32,.2,.48Zm8.81-3.82s.08,0,.12,0c0-.56,0-1.12,0-1.68,0-.42,.18-.75,.51-1,.37-.29,.9-.19,1.12,.21,.06,.11,.12,.23,.15,.36,.26,1.11,.29,2.22-.11,3.31-.17,.46-.45,.83-.94,1-.44,.15-.81-.05-.83-.52-.03-.56,0-1.12,0-1.68Zm-7.34,1.05c.08-.64,.24-1.27,.43-1.88,.08-.27,.3-.54,.53-.71,.18-.14,.48-.19,.71-.16,.28,.03,.41,.3,.42,.58,.01,.47,0,.95,0,1.66-.03,.36-.06,.97-.13,1.57-.04,.39-.19,.75-.5,1.02-.45,.39-1.03,.25-1.27-.3-.25-.57-.28-1.19-.2-1.78Z"/>
      <path d="M90.34,14.14c-.03-.47-.08-.94-.1-1.4-.03-.86,.25-1.61,.86-2.23,.15-.15,.29-.33,.61-.17,.01,.22,.05,.47,.04,.72-.08,2.51-.17,5.01-.24,7.52,0,.33-.14,.69,.22,1.03,.45-.09,.95-.18,1.52-.29,.04-.42,.09-.8,.11-1.18,.04-1.08,.04-2.16,.09-3.24,.01-.29,.1-.57,.16-.87,.65-.12,1.2-.41,1.94-.23,.18,1.63-.14,3.31,.07,5.03,.61,.09,1.11-.11,1.57-.29,.05-.17,.09-.25,.09-.33,.1-3.07,.21-6.13,.3-9.2,0-.24-.07-.48-.13-.8-.56,.16-1.1,0-1.58,.42-.08,1.3-.15,2.63-.23,3.97-.69,.22-1.28,.48-2.02,.32-.28-1.31,.22-2.64-.1-4.03-.37,.08-.71,.12-1.02,.22-1.27,.43-2.29,1.2-3,2.35-.38,.61-.53,1.28-.36,1.99,.14,.55,.43,.72,1.2,.71Z"/>
      <path d="M70.23,100.73c-1.39,.29-2.57,.99-3.43,2.16-.48,.65-.7,1.38-.58,2.19,.09,.65,.3,.82,1.29,.97-.05-.32-.07-.53-.1-.74-.32-2.13,.84-3.76,2.93-4.13,1.07-.19,1.87,.23,2.32,1.21,.11,.23,.2,.48,.25,.73,.19,1.06,.39,2.13,.26,3.21-.09,.77-.26,1.53-.45,2.28-.13,.51-.43,.94-.9,1.23-.35,.22-.73,.31-1.1,.09-.31-.18-.23-.53-.23-.82,0-.09,0-.17,0-.26,.05-1.86,.1-3.71,.14-5.57,0-.37,.13-.77-.17-1.15-.54,.08-1.08,.16-1.57,.59-.09,2.73-.19,5.48-.27,8.24,0,.11,.09,.22,.14,.32q1.18-.03,1.98-.54c.13,.04,.3,.07,.46,.13,1,.35,1.79,0,2.41-.77,.29-.36,.55-.78,.72-1.22,.68-1.68,.84-3.42,.46-5.2-.52-2.41-2.02-3.49-4.56-2.95Z"/>
      <path d="M120.31,14.54c.29,0,.58-.02,.87-.04-.06,.47-.57,.58-.78,.93-.31,.51-.36,1.25-.02,1.72,.36,.49,.87,.73,1.47,.63,.97-.17,1.68-.69,1.92-1.69,.13-.54,.19-1.11,.2-1.67,.07-2.16,.12-4.32,.16-6.48,0-.29-.08-.57-.12-.84-.61-.13-1.1-.02-1.62,.31-.02,.34-.06,.73-.07,1.11-.03,.86-.02,1.73-.07,2.59-.02,.43-.09,.86-.21,1.27-.07,.23-.25,.45-.43,.62-.32,.3-.82,.13-.89-.31-.06-.34-.06-.69-.06-1.03,.02-1.12,.05-2.25,.06-3.37,0-.23-.09-.47-.15-.77-.58,.15-1.06,.27-1.61,.4-.03,1.7-.06,3.34-.08,4.98,0,.17,.03,.35,.06,.51,.18,.76,.6,1.1,1.37,1.11Zm1.6,.2c.26,.53,.19,.95,.08,1.36-.04,.16-.14,.31-.26,.43-.2,.19-.44,.23-.7,.11-.27-.12-.37-.36-.32-.63,.12-.64,.53-1.01,1.2-1.27Z"/>
      <path d="M113.13,19.08c.27-.12,.53-.27,.77-.4,.38-1.07,.04-2.19,.38-3.23,.22,.02,.39,.04,.56,.04,1.3,.02,2.25-.55,2.76-1.75,.61-1.41,.58-2.87,.11-4.31-.33-1.01-1.17-1.36-2.18-.99-.32,.12-.61,.29-.96,.47-.1-.21-.19-.39-.34-.7-.52,.08-.98,.15-1.44,.22-.38,.74-.25,1.49-.29,2.21-.04,.73-.04,1.47-.05,2.2-.02,.69-.02,1.38-.05,2.07-.03,.73-.09,1.47-.11,2.2-.02,.71-.15,1.44,.05,2.24,.33-.11,.57-.18,.8-.28Zm1.07-6.6c.05-.79,.08-1.39,.12-1.99,.03-.4,.2-.74,.54-.98,.39-.29,.9-.22,1.08,.24,.18,.47,.29,.98,.35,1.49,.09,.69-.03,1.37-.24,2.03-.15,.46-.39,.85-.84,1.09-.52,.27-.95,.06-1-.52,0-.09,0-.17,0-.26,0-.43,0-.86,0-1.1Z"/>
      <path d="M8.1,70.18c.51,.07,.72-.27,.51-.73-.48-1.05-1.27-1.83-2.21-2.45-1.2-.79-2.51-1.32-3.93-1.54-.75-.12-1.5-.42-2.46-.11,1.52,2.18,3.39,3.67,5.83,4.38,.74,.21,1.5,.34,2.27,.44Z"/>
      <path d="M14,73.65c-.82-.36-1.62-.06-2.37,.17-1.6,.5-2.9,1.51-4.07,2.68-.53,.53-1.12,1.06-1.28,1.85,.09,.06,.13,.11,.16,.11,.34-.04,.67-.09,1.01-.14,1.97-.3,3.68-1.18,5.22-2.41,.84-.67,1.19-1.31,1.34-2.26Z"/>
      <path d="M11.05,70.56c.2,.13,.44,.2,.66,.3,.36-.62,.4-1.21,.31-1.82-.38-2.52-1.56-4.61-3.42-6.33-.08-.08-.22-.08-.41-.15-.05,.19-.1,.34-.12,.5-.12,1.49,.17,2.92,.7,4.28,.48,1.24,1.11,2.43,2.27,3.21Z"/>
      <path d="M20.09,79.11c.35-.42,.57-.95,.79-1.47,.08-.19-.04-.46-.07-.7-.99-.15-1.79,.18-2.52,.62-1.97,1.18-3.41,2.84-4.38,5.05,.21,.05,.3,.09,.38,.08,2.34-.53,4.27-1.74,5.81-3.57Z"/>
      <path d="M17.17,76.36c.14-.32,.25-.65-.07-.98-.88-.22-1.67,.12-2.43,.52-1.43,.76-2.56,1.87-3.52,3.16-.35,.48-.67,.99-.81,1.55,.06,.07,.09,.13,.11,.13,.16,.01,.34,.05,.49,.02,1.46-.3,2.75-.98,3.95-1.82,.95-.67,1.8-1.47,2.28-2.58Z"/>
      <path d="M10.51,73.03c.21-.21,.45-.41,.34-.83-.7-.37-1.48-.57-2.3-.47-2,.23-3.83,.92-5.47,2.08-.24,.17-.44,.39-.89,.8,.79,.12,1.29,.22,1.8,.27,1.17,.12,2.32-.1,3.45-.32,1.15-.22,2.21-.69,3.08-1.52Z"/>
      <path d="M15.4,72.25c.56-.66,.78-1.5,.84-2.35,.15-2.15-.3-4.19-1.34-6.09-.05-.09-.19-.14-.31-.23-.09,.13-.17,.22-.22,.33-.63,1.32-.7,2.76-.7,4.16,0,1.37,.27,2.75,1.18,3.89,.13,.16,.23,.38,.56,.29Z"/>
      <path d="M19,73.25c.7-1.09,.88-2.34,.85-3.58-.03-1.45-.22-2.91-.82-4.27-.04-.1-.18-.15-.25-.22-.07,.03-.13,.04-.15,.07-1.05,1.71-1.28,3.61-1.28,5.56,0,.34,.05,.69,.13,1.02,.17,.7,.34,1.4,.97,1.98,.21-.22,.41-.37,.54-.57Z"/>
      <path d="M23.23,73.5c.42-1.98,.28-3.93-.35-5.84-.06-.19-.09-.43-.38-.44-.36,.27-.51,.67-.68,1.07-.57,1.37-.83,2.82-.87,4.28-.03,1.06,.16,2.14,.98,3.07,.79-.7,1.11-1.21,1.31-2.13Z"/>
      <path d="M23.64,78.99c-.45,.13-.92,.26-1.31,.5-1.53,.94-2.72,2.23-3.56,3.82-.09,.17-.24,.38,.09,.63,2.32-.91,4.4-2.15,5.56-4.83-.39-.07-.61-.17-.78-.12Z"/>
      <path d="M26.1,75.98c.18-1.16,.16-2.33-.07-3.48-.08-.39-.13-.85-.53-1.12-1.22,1.62-1.38,4.43-.3,6.05,.57-.53,.81-.88,.9-1.44Z"/>
      <path d="M27.09,80.86c-1.08-.24-1.87,.18-2.63,.64-1.02,.62-1.22,.85-1.48,1.59,1.74,.06,3.3-.75,4.12-2.23Z"/>
      <path d="M27.84,76.89c-.02,.81-.11,1.64,.56,2.48,.71-.78,.69-1.65,.69-2.5,0-1.3-.08-1.52-.6-2.17-.45,.68-.63,1.42-.65,2.19Z"/>
      <path d="M30.56,82.15c-.64-.56-1.43-.69-1.82-1.33h0c.46,.82,.82,1.1,1.81,1.33Z"/>
      <path d="M28.54,80.87c.07-.01,.14-.02,.21-.04,0,0,0-.01,0-.01-.07,.02-.13,.03-.2,.05Z"/>
    </g>
  </g>
</svg>