<?xml version="1.0" encoding="UTF-8"?>
<svg id="_图层_2" data-name="图层 2" xmlns="http://www.w3.org/2000/svg" viewBox="0 0 182.37 74.82">
  <g id="_图层_2-2" data-name=" 图层 2">
    <g>
      <path d="M78.09,14.97h3.05l.69,4.47h3.07L81.65,.02h-4.03l-3.31,19.41h3.06l.72-4.47Zm1.52-10.49l1.09,7.64h-2.17l1.09-7.64Z"/>
      <polygon points="65.4 11.21 68.94 11.21 68.94 19.44 71.86 19.44 71.86 .02 68.94 .02 68.94 8.27 65.4 8.27 65.4 .02 62.48 .02 62.48 19.44 65.4 19.44 65.4 11.21"/>
      <polygon points="113.03 19.44 115.96 19.44 115.96 11.3 119.89 0 116.66 0 114.5 6.98 112.33 0 109.11 0 113.03 11.3 113.03 19.44"/>
      <path d="M90.28,12.13h1.69c1.27,0,2.36-.46,3.25-1.36,.9-.91,1.34-2.01,1.34-3.29v-2.82c0-1.33-.39-2.43-1.18-3.29-.84-.9-1.98-1.35-3.41-1.35h-4.62V19.44h2.92v-7.31Zm0-9.12h1.77c.51,0,.92,.16,1.22,.46,.3,.31,.46,.72,.46,1.23v2.83c0,.47-.17,.87-.49,1.2-.33,.33-.73,.49-1.19,.49h-1.77V3.01Z"/>
      <path d="M101.82,12.13h1.69c1.27,0,2.35-.46,3.25-1.36,.89-.91,1.34-2.01,1.34-3.29v-2.82c0-1.33-.39-2.43-1.18-3.29-.84-.9-1.98-1.35-3.41-1.35h-4.62V19.44h2.92v-7.31Zm0-9.12h1.77c.51,0,.91,.16,1.22,.46,.3,.31,.46,.72,.46,1.23v2.83c0,.47-.17,.87-.49,1.2-.32,.33-.73,.49-1.19,.49h-1.77V3.01Z"/>
      <polygon points="10.99 48.89 0 61.76 21.98 61.76 21.98 36 0 36 10.99 48.89"/>
      <polygon points="182.37 36 160.4 36 160.4 61.76 182.37 61.76 171.39 48.89 182.37 36"/>
      <polygon points="59.47 33.11 58.53 39.73 60.41 39.73 59.47 33.11"/>
      <path d="M24.06,50.37H158.32V23.76H24.06v26.61Zm115.63-17.28c0-1.12,.39-2.07,1.18-2.85,.78-.78,1.73-1.18,2.84-1.18s2.07,.4,2.84,1.18c.78,.79,1.17,1.74,1.17,2.85v1.92h-2.63v-1.97c0-.4-.14-.75-.43-1.04-.29-.29-.63-.43-1.04-.43s-.74,.14-1.03,.43c-.28,.29-.42,.63-.42,1.04v9.2c0,.4,.14,.75,.42,1.03,.29,.28,.62,.42,1.03,.42s.75-.14,1.04-.42c.29-.28,.43-.62,.43-1.02v-3.3h-1.42v-2.56h4.05v5.88c0,1.12-.39,2.06-1.18,2.84-.78,.78-1.73,1.17-2.83,1.17s-2.07-.4-2.85-1.18c-.78-.79-1.17-1.73-1.17-2.83v-9.18Zm-10.98-3.86h2.85l3.37,11.31v-11.31h2.53v16.85h-2.73l-3.49-10.78v10.78h-2.54V29.23Zm-4.81,.02h2.54v16.83h-2.54V29.25Zm-9.03,0l2.13,13.2,2.13-13.2h2.65l-3.07,16.83h-3.49l-3.01-16.83h2.65Zm-7.31,0h2.54v16.83h-2.54V29.25Zm-10.24,3.84c0-1.12,.39-2.07,1.18-2.85,.78-.78,1.73-1.18,2.84-1.18s2.07,.4,2.85,1.18c.78,.79,1.17,1.74,1.17,2.85v1.92h-2.63v-1.97c0-.4-.14-.75-.43-1.04-.29-.29-.63-.43-1.03-.43s-.75,.14-1.03,.43c-.28,.29-.42,.63-.42,1.04v9.2c0,.4,.14,.75,.42,1.03,.29,.28,.62,.42,1.03,.42s.74-.14,1.03-.42c.29-.28,.43-.62,.43-1.02v-3.3h-1.42v-2.56h4.05v5.88c0,1.12-.39,2.06-1.18,2.84-.79,.78-1.73,1.17-2.83,1.17s-2.07-.4-2.85-1.18c-.79-.79-1.17-1.73-1.17-2.83v-9.18Zm-5.59,6.84c-.5-.48-1.25-1.18-2.26-2.13-.84-.82-1.43-1.55-1.78-2.19-.38-.73-.56-1.51-.56-2.36,0-1.53,.51-2.7,1.54-3.48,.64-.47,1.43-.71,2.37-.71s1.68,.2,2.32,.61c.5,.31,.91,.75,1.21,1.31,.31,.56,.5,1.21,.56,1.95l-2.44,.44c-.07-.68-.27-1.22-.59-1.6-.24-.28-.57-.41-1.02-.41s-.82,.2-1.06,.61c-.2,.33-.3,.74-.3,1.24,0,.77,.33,1.55,1,2.34,.25,.31,.63,.66,1.13,1.07,.59,.5,.99,.84,1.18,1.03,.63,.63,1.11,1.25,1.45,1.85,.16,.29,.29,.55,.39,.79,.24,.6,.37,1.13,.38,1.61,.02,1.17-.29,2.17-.91,3-.41,.56-.99,.96-1.74,1.19-.4,.13-.87,.19-1.41,.19-.99,0-1.82-.24-2.47-.74-.54-.4-.98-.95-1.29-1.65-.32-.69-.51-1.49-.56-2.39l2.42-.17c.11,.98,.37,1.69,.78,2.13,.3,.34,.65,.49,1.05,.47,.56-.02,1-.29,1.32-.81,.17-.26,.26-.63,.26-1.12,0-.7-.32-1.39-.96-2.08Zm-14.52-10.69h2.53v6.01l3.11-6.01h2.72l-3.49,6.87,4.07,9.97h-2.98l-2.67-6.84-.76,1.52v5.32h-2.53V29.23Zm-11.02,0h2.85l3.37,11.31v-11.31h2.53v16.85h-2.73l-3.49-10.78v10.78h-2.53V29.23Zm-8.44,.02h3.49l2.82,16.83h-2.67l-.59-3.88h-2.65l-.62,3.88h-2.65l2.86-16.83Zm-13.12,0h2.53v7.15h3.06v-7.15h2.53v16.83h-2.53v-7.12h-3.06v7.12h-2.53V29.25Zm-9.96,0h7.92v2.56h-2.68v14.27h-2.53v-14.27h-2.7v-2.56Z"/>
      <path d="M89.76,55.4l-3.3,19.42h3.05l.71-4.48h3.06l.68,4.48h3.08l-3.26-19.42h-4.03Zm.91,12.08l1.08-7.63,1.09,7.63h-2.17Z"/>
      <polygon points="101.73 62.36 99.56 55.38 96.35 55.38 100.27 66.68 100.27 74.82 103.19 74.82 103.19 66.68 107.13 55.38 103.89 55.38 101.73 62.36"/>
      <path d="M79.85,55.38h-4.6v19.44h4.6c1.27,0,2.35-.46,3.25-1.36,.9-.91,1.35-2.01,1.35-3.29v-10.15c0-1.27-.45-2.36-1.35-3.27-.89-.91-1.98-1.36-3.26-1.36Zm1.74,14.84c0,.46-.16,.85-.48,1.19-.32,.34-.71,.51-1.18,.51h-1.77v-13.55h1.77c.46,0,.84,.17,1.17,.5,.33,.33,.49,.73,.49,1.19v10.16Z"/>
    </g>
  </g>
</svg>