<?xml version="1.0" encoding="UTF-8"?>
<svg id="_图层_2" data-name="图层 2" xmlns="http://www.w3.org/2000/svg" viewBox="0 0 152.72 80.21">
  <g id="_图层_2-2" data-name=" 图层 2">
    <g>
      <path d="M66.19,11.62h2.37l.53,3.47h2.39L68.96,.02h-3.13l-2.56,15.07h2.37l.56-3.47Zm1.18-8.15l.85,5.93h-1.69l.84-5.93Z"/>
      <path d="M84.62,9.42h1.31c.99,0,1.83-.35,2.52-1.06,.69-.7,1.04-1.56,1.04-2.55V3.62c0-1.04-.31-1.89-.92-2.55-.66-.7-1.54-1.05-2.64-1.05h-3.59V15.09h2.27v-5.68Zm0-7.07h1.38c.4,0,.71,.12,.94,.36,.24,.24,.36,.55,.36,.95v2.2c0,.36-.13,.67-.38,.93-.25,.26-.56,.39-.92,.39h-1.38V2.34Z"/>
      <polygon points="56.35 8.71 59.09 8.71 59.09 15.09 61.35 15.09 61.35 .02 59.09 .02 59.09 6.42 56.35 6.42 56.35 .02 54.07 .02 54.07 15.09 56.35 15.09 56.35 8.71"/>
      <path d="M75.66,9.42h1.31c.99,0,1.83-.35,2.53-1.06,.69-.7,1.04-1.56,1.04-2.55V3.62c0-1.04-.31-1.89-.91-2.55-.66-.7-1.54-1.05-2.65-1.05h-3.59V15.09h2.27v-5.68Zm0-7.07h1.38c.39,0,.71,.12,.94,.36,.24,.24,.36,.55,.36,.95v2.2c0,.36-.13,.67-.38,.93-.25,.26-.56,.39-.92,.39h-1.38V2.34Z"/>
      <polygon points="96.13 0 94.46 5.42 92.78 0 90.27 0 93.32 8.77 93.32 15.09 95.59 15.09 95.59 8.77 98.65 0 96.13 0"/>
      <path d="M0,33.4c1.21-.03,2.43-.08,3.65-.12v28.82c1.13-.23,2.27-.45,3.42-.69v-28.24c1.2-.04,2.41-.08,3.61-.11v-4.95c-3.57,.01-7.13,.02-10.68,.03v5.26Z"/>
      <path d="M46,47.23v-9.03c.78,2.99,1.57,5.97,2.35,8.93,.78,2.95,1.57,5.9,2.37,8.84,1.22-.08,2.44-.16,3.68-.23V28.02h-3.42v18.75c-.76-3.1-1.54-6.21-2.29-9.32-.75-3.13-1.51-6.27-2.26-9.42h-3.85v28.53c1.13-.1,2.27-.2,3.42-.3v-9.03Z"/>
      <path d="M108.81,56.67c1.57,.13,3.15,.25,4.72,.39,.68-4.77,1.38-9.56,2.06-14.39,.68-4.84,1.37-9.71,2.07-14.6h-3.57c-.49,3.79-.97,7.57-1.45,11.33-.47,3.75-.96,7.5-1.44,11.24-.49-3.79-.98-7.57-1.45-11.33-.47-3.75-.95-7.51-1.42-11.25-1.19,0-2.38,0-3.57,0,.67,4.73,1.35,9.47,2.02,14.23,.67,4.77,1.34,9.57,2.03,14.38Z"/>
      <path d="M123.96,43.12v-15.03c-1.15,0-2.29,0-3.43,0v29.7c1.13,.11,2.28,.23,3.43,.37v-15.03Z"/>
      <path d="M16.88,52.99v-6.69c1.37-.13,2.74-.24,4.13-.36v13.11c1.13-.16,2.27-.33,3.42-.49V28.09c-1.15,0-2.29,0-3.42,0v13.15c-1.39,.09-2.76,.17-4.13,.27v-13.41c-1.15,0-2.29,0-3.42,0V60.26c1.13-.19,2.27-.38,3.42-.58v-6.69Z"/>
      <path d="M98.47,42.01v13.94c1.14,.06,2.27,.13,3.42,.19V28.06h-3.42v13.95Z"/>
      <path d="M31.72,50.84c1.19-.1,2.39-.21,3.57-.31,.26,2.21,.52,4.42,.79,6.62,1.19-.12,2.4-.22,3.6-.33-.64-4.74-1.29-9.51-1.91-14.29-.63-4.8-1.27-9.62-1.9-14.46-1.57,0-3.14,0-4.71,0-.66,4.96-1.3,9.94-1.94,14.93-.64,5.03-1.28,10.08-1.92,15.15,1.19-.13,2.38-.27,3.57-.41,.27-2.31,.55-4.6,.84-6.91Zm1.14-10.22c.2-1.94,.43-3.88,.64-5.81,.2,1.92,.43,3.84,.63,5.75,.2,1.91,.43,3.82,.64,5.71-.85,.06-1.69,.12-2.53,.18,.2-1.95,.43-3.9,.62-5.83Z"/>
      <path d="M135.43,38.65v10.59c-.76-3.59-1.54-7.17-2.3-10.71-.74-3.51-1.51-7.01-2.26-10.48-1.28,0-2.56,0-3.84,0v30.47c1.13,.14,2.27,.28,3.42,.43v-19.78c.78,3.35,1.57,6.7,2.35,10.09,.78,3.41,1.57,6.86,2.37,10.32,1.22,.17,2.44,.35,3.68,.52V28.07c-1.14,0-2.29,0-3.42-.01v10.6Z"/>
      <path d="M152.72,39.84v-3.9c0-2.27-.54-4.2-1.6-5.81-1.04-1.59-2.31-2.39-3.83-2.39s-2.78,.76-3.85,2.28c-1.05,1.5-1.59,3.32-1.59,5.48v17.7c0,2.12,.53,4,1.59,5.69,1.06,1.7,2.34,2.68,3.85,2.92,1.48,.24,2.77-.31,3.82-1.71,1.06-1.41,1.6-3.26,1.6-5.53v-11.94c-1.84-.13-3.65-.26-5.47-.39v5.05c.63,.05,1.27,.12,1.91,.18v6.59c0,.8-.19,1.45-.58,1.96-.39,.5-.86,.73-1.39,.65-.55-.08-1.01-.42-1.39-1.02-.38-.61-.56-1.3-.56-2.09v-18.04c0-.79,.19-1.46,.56-2,.38-.55,.84-.82,1.39-.81,.53,.01,1,.31,1.39,.88,.39,.59,.58,1.28,.58,2.08v3.95c1.17,.07,2.36,.14,3.56,.21Z"/>
      <path d="M69.55,55.26c-.91-2.68-1.83-5.35-2.75-8.03-.91-2.69-1.83-5.38-2.75-8.06,.78-1.87,1.56-3.73,2.34-5.59,.78-1.85,1.57-3.71,2.36-5.57h-3.66c-.71,1.62-1.42,3.26-2.11,4.88-.69,1.63-1.41,3.27-2.09,4.91v-9.79c-1.15,0-2.29,0-3.42,0v27.58c1.13-.04,2.27-.09,3.42-.13v-8.67c.34-.83,.67-1.66,1.02-2.49,.6,1.84,1.2,3.67,1.79,5.5,.59,1.83,1.21,3.67,1.82,5.51,1.34-.02,2.69-.04,4.03-.06Z"/>
      <path d="M90.06,27.74c-1.5,0-2.77,.65-3.83,1.91-1.06,1.27-1.59,2.81-1.59,4.63v14.9c0,1.78,.52,3.33,1.59,4.65,1.06,1.31,2.34,1.99,3.83,2.05,1.5,.05,2.77-.53,3.84-1.76,1.05-1.22,1.59-2.77,1.59-4.6v-9.68c-1.83-.05-3.65-.07-5.47-.1v4.17c.65,.01,1.28,.03,1.93,.04v5.41c0,.66-.2,1.21-.58,1.65-.4,.45-.86,.66-1.39,.65-.55-.01-1.01-.27-1.39-.73-.38-.47-.58-1.04-.58-1.69v-15c0-.66,.2-1.22,.58-1.68,.38-.47,.84-.69,1.39-.69s.99,.23,1.39,.71c.38,.47,.58,1.04,.58,1.69v3.24c1.17,.02,2.35,.04,3.54,.06v-3.16c0-1.83-.52-3.4-1.58-4.7-1.05-1.3-2.34-1.95-3.85-1.95Z"/>
      <path d="M76.34,55.57c.73,0,1.37-.09,1.91-.28,1.01-.37,1.79-1.01,2.35-1.91,.84-1.34,1.26-2.96,1.23-4.86,0-.77-.19-1.64-.52-2.61-.13-.39-.3-.83-.52-1.29-.47-.98-1.13-1.99-1.97-3.01-.25-.31-.78-.88-1.57-1.68-.66-.67-1.18-1.26-1.52-1.74-.9-1.29-1.35-2.56-1.35-3.79,0-.79,.13-1.46,.4-1.99,.33-.66,.8-1,1.44-1,.59,0,1.05,.24,1.36,.67,.43,.63,.7,1.49,.81,2.6,1.09-.24,2.18-.47,3.28-.7-.08-1.19-.33-2.25-.74-3.15-.42-.91-.98-1.63-1.65-2.12-.87-.65-1.91-.98-3.13-.98-1.29,0-2.35,.38-3.21,1.15-1.4,1.27-2.08,3.16-2.08,5.63,0,1.38,.25,2.65,.76,3.82,.47,1.04,1.27,2.21,2.42,3.52,1.35,1.53,2.4,2.67,3.04,3.47,.88,1.09,1.3,2.24,1.3,3.37,0,.78-.13,1.38-.35,1.8-.44,.85-1.04,1.28-1.78,1.3-.54,.02-1.01-.24-1.42-.78-.55-.71-.9-1.86-1.05-3.44-1.09,.11-2.17,.21-3.25,.31,.07,1.45,.32,2.74,.75,3.85,.42,1.12,1.01,2,1.74,2.64,.89,.78,2,1.18,3.34,1.2Z"/>
      <rect x="87.72" y="22.12" width="1.01" height="1.02"/>
      <rect x="95.63" y="22.12" width="1.01" height="1.02"/>
      <rect x="75.85" y="22.12" width="1.01" height="1.02"/>
      <rect x="147.06" y="22.12" width="1.01" height="1.02"/>
      <rect x="99.59" y="22.12" width="1.01" height="1.02"/>
      <rect x="91.68" y="22.12" width="1.01" height="1.02"/>
      <rect x="151.02" y="22.12" width="1.01" height="1.02"/>
      <rect x="79.81" y="22.12" width="1.01" height="1.02"/>
      <rect x="103.54" y="22.12" width="1.01" height="1.02"/>
      <rect x="83.76" y="22.12" width="1.01" height="1.02"/>
      <rect x="127.28" y="22.12" width="1.02" height="1.02"/>
      <rect x="139.15" y="22.12" width="1.02" height="1.02"/>
      <rect x="143.11" y="22.12" width="1.01" height="1.02"/>
      <rect x="135.19" y="22.12" width="1.02" height="1.02"/>
      <rect x="131.23" y="22.12" width="1.02" height="1.02"/>
      <rect x="123.32" y="22.12" width="1.01" height="1.02"/>
      <rect x="111.46" y="22.12" width="1.01" height="1.02"/>
      <rect x="119.37" y="22.12" width="1.01" height="1.02"/>
      <rect x="107.5" y="22.12" width="1.01" height="1.02"/>
      <rect x="115.41" y="22.12" width="1.01" height="1.02"/>
      <rect x="36.3" y="22.12" width="1.01" height="1.02"/>
      <rect x="56.07" y="22.12" width="1.01" height="1.02"/>
      <rect x="28.38" y="22.12" width="1.02" height="1.02"/>
      <rect x="40.25" y="22.12" width="1.01" height="1.02"/>
      <rect x="24.42" y="22.12" width="1.01" height="1.02"/>
      <rect x="12.55" y="22.12" width="1.02" height="1.02"/>
      <rect x="32.34" y="22.12" width="1.01" height="1.02"/>
      <rect x="4.64" y="22.12" width="1.01" height="1.02"/>
      <rect x=".69" y="22.12" width="1.02" height="1.02"/>
      <rect x="16.51" y="22.12" width="1.01" height="1.02"/>
      <rect x="20.47" y="22.12" width="1.01" height="1.02"/>
      <rect x="8.6" y="22.12" width="1.02" height="1.02"/>
      <rect x="44.2" y="22.12" width="1.01" height="1.02"/>
      <rect x="63.99" y="22.12" width="1.01" height="1.02"/>
      <rect x="60.03" y="22.12" width="1.02" height="1.02"/>
      <rect x="67.94" y="22.12" width="1.01" height="1.02"/>
      <rect x="71.9" y="22.12" width="1.01" height="1.02"/>
      <rect x="52.11" y="22.12" width="1.02" height="1.02"/>
      <rect x="48.16" y="22.12" width="1.01" height="1.02"/>
      <path d="M75.25,65.14l-2.57,15.07h2.37l.56-3.47h2.37l.53,3.47h2.39l-2.53-15.07h-3.12Zm.71,9.38l.84-5.93,.85,5.93h-1.69Z"/>
      <polygon points="84.55 70.55 82.86 65.13 80.36 65.13 83.41 73.9 83.41 80.21 85.68 80.21 85.68 73.9 88.74 65.13 86.22 65.13 84.55 70.55"/>
      <path d="M67.56,65.13h-3.57v15.09h3.57c.99,0,1.83-.35,2.53-1.05,.7-.71,1.05-1.56,1.05-2.56v-7.88c0-.99-.35-1.83-1.05-2.54-.69-.7-1.54-1.06-2.53-1.06Zm1.36,11.53c0,.35-.13,.66-.38,.92-.25,.26-.55,.39-.91,.39h-1.38v-10.52h1.38c.35,0,.65,.12,.91,.38,.25,.26,.38,.57,.38,.93v7.9Z"/>
      <polygon points="55.7 77.21 55.7 70.74 15.28 73.98 55.7 77.21"/>
      <polygon points="97.02 77.21 137.44 73.98 97.02 70.74 97.02 77.21"/>
    </g>
  </g>
</svg>