<?xml version="1.0" encoding="UTF-8"?>
<svg id="_图层_2" data-name="图层 2" xmlns="http://www.w3.org/2000/svg" viewBox="0 0 158.42 91.19">
  <g id="_图层_2-2" data-name=" 图层 2">
    <g>
      <path d="M4.75,42.55c1.58,1.6,3.19,3.19,4.78,4.77-1.6,2.12-3.2,4.23-4.78,6.35-1.58,2.13-3.17,4.27-4.75,6.41,6.35-1.13,12.73-2.2,19.09-3.17v-21.89c-6.36,.82-12.73,1.72-19.09,2.69,1.58,1.62,3.17,3.24,4.75,4.84Z"/>
      <path d="M148.87,47.47c1.59-1.61,3.19-3.22,4.77-4.85,1.59-1.62,3.18-3.26,4.78-4.91-6.37-.86-12.74-1.68-19.09-2.44v21.84c6.35,.92,12.72,1.91,19.09,2.96-1.6-2.12-3.2-4.24-4.78-6.34-1.58-2.09-3.18-4.19-4.77-6.27Z"/>
      <path d="M20.89,27.08v23.11c19.43-2.82,38.87-5.01,58.31-4.93,19.44,.08,38.88,2.31,58.33,4.93V27.08c-19.45-3.41-38.89-6.25-58.33-6.31-19.45-.06-38.88,2.75-58.31,6.31Zm16.08,4.12c-.78,.11-1.56,.22-2.33,.35v12.69c-.74,.11-1.47,.22-2.19,.32v-12.65c-.79,.13-1.57,.26-2.35,.4v-2.25c2.28-.4,4.58-.79,6.88-1.14v2.28Zm8.84,4.13v7.58c-.74,.08-1.47,.15-2.21,.22v-6.42c-.88,.09-1.77,.22-2.65,.33v6.39c-.73,.09-1.47,.18-2.21,.27v-15.05c.74-.1,1.47-.21,2.21-.31v6.41c.88-.12,1.77-.24,2.65-.34v-6.43c.73-.08,1.47-.17,2.21-.25v7.59Zm7.5,6.92c-.18-1.16-.35-2.32-.52-3.48-.77,.06-1.54,.12-2.3,.18-.19,1.19-.38,2.37-.55,3.56-.77,.08-1.54,.16-2.3,.23,.4-2.57,.83-5.16,1.23-7.73,.41-2.58,.83-5.17,1.25-7.76,1-.09,2.02-.19,3.04-.28,.41,2.52,.82,5.04,1.22,7.55,.41,2.53,.82,5.04,1.23,7.56-.77,.06-1.54,.12-2.31,.17Zm11.77-8.42v7.72c-.79,.03-1.59,.08-2.37,.12-.52-1.62-1.03-3.24-1.53-4.85-.5-1.61-1-3.22-1.5-4.84v9.85c-.74,.04-1.47,.08-2.2,.12v-15.37c.82-.05,1.64-.11,2.47-.16,.48,1.69,.98,3.38,1.46,5.08,.47,1.69,.98,3.39,1.47,5.08v-10.35c.74-.05,1.47-.09,2.21-.12v7.72Zm7.15,7.52c-.4-1.05-.78-2.08-1.17-3.12-.39-1.04-.77-2.07-1.16-3.1-.22,.47-.44,.95-.65,1.42v4.88c-.74,.02-1.47,.04-2.21,.07v-15.45c.73-.03,1.47-.05,2.21-.08v5.52c.9-1.87,1.8-3.74,2.69-5.62,.78,0,1.57,0,2.37-.02-.51,1.06-1.03,2.12-1.53,3.18-.5,1.05-1,2.11-1.51,3.18,.59,1.51,1.18,3.03,1.76,4.55,.59,1.52,1.18,3.05,1.78,4.58-.87,0-1.73,0-2.59,.01Zm49.09-4.76v-4.1c0-1.01,.35-1.81,1.03-2.41,.69-.61,1.51-.81,2.48-.65,.97,.16,1.79,.65,2.47,1.45,.68,.81,1.02,1.7,1.02,2.68v1.7c-.77-.12-1.53-.24-2.29-.35v-1.76c0-.35-.13-.68-.38-.97-.24-.29-.55-.47-.9-.52-.35-.06-.65,.01-.9,.23-.24,.22-.36,.51-.36,.86v8.2c0,.36,.13,.69,.36,.97,.25,.29,.55,.45,.9,.5,.35,.05,.65-.04,.9-.25,.25-.21,.38-.5,.38-.85v-2.93c-.42-.06-.83-.12-1.24-.18v-2.27c1.17,.18,2.34,.36,3.52,.54v5.2c0,.99-.35,1.78-1.03,2.38-.68,.59-1.5,.82-2.46,.68-.97-.13-1.79-.6-2.48-1.38-.68-.79-1.03-1.67-1.03-2.66v-4.11Zm-9.54-1.17v-7.62c.83,.09,1.66,.19,2.48,.29,.48,1.75,.98,3.51,1.46,5.26,.48,1.76,.98,3.52,1.47,5.28v-10.16c.72,.09,1.46,.2,2.19,.3v15.1c-.79-.09-1.58-.19-2.36-.28-.52-1.68-1.03-3.36-1.53-5.04-.5-1.67-1-3.34-1.5-5.02v9.73c-.73-.07-1.47-.15-2.2-.22v-7.61Zm-4.16-.43v-7.64c.72,.07,1.46,.15,2.19,.24v15.25c-.74-.07-1.47-.15-2.19-.21v-7.64Zm-7.85-8.34c.3,2.04,.6,4.06,.91,6.09,.3,2.03,.62,4.06,.93,6.09,.3-1.98,.62-3.96,.92-5.94,.3-1.98,.62-3.95,.94-5.93,.77,.07,1.54,.14,2.31,.21-.44,2.51-.89,5.03-1.33,7.55-.44,2.52-.88,5.04-1.33,7.56-1.01-.08-2.03-.16-3.04-.22-.44-2.59-.89-5.18-1.32-7.77-.43-2.59-.86-5.19-1.3-7.79,.76,.05,1.53,.11,2.3,.16Zm-6.34,7.3v-7.72c.72,.04,1.46,.09,2.19,.14v15.42c-.74-.05-1.47-.09-2.19-.13v-7.71Zm-8.9-.3v-4.22c0-1.03,.35-1.89,1.03-2.6,.68-.71,1.5-1.04,2.46-1.01,.98,.04,1.79,.44,2.47,1.19,.68,.75,1.01,1.63,1.01,2.66v1.77c-.77-.04-1.53-.07-2.29-.1v-1.81c0-.37-.13-.69-.38-.96-.25-.27-.53-.42-.88-.43-.36-.02-.65,.1-.9,.35-.24,.25-.36,.57-.36,.93v8.47c0,.37,.12,.69,.36,.96,.24,.26,.54,.41,.9,.42,.35,.01,.64-.11,.88-.35,.26-.26,.38-.56,.38-.93v-3.03c-.41-.01-.82-.04-1.22-.05v-2.34c1.17,.04,2.33,.09,3.51,.14v5.4c0,1.03-.34,1.88-1.03,2.57-.68,.69-1.51,1.01-2.46,.98-.97-.03-1.8-.42-2.48-1.15-.68-.74-1.01-1.62-1.01-2.63v-4.23Zm-2.39-6.22c.27,.53,.43,1.12,.49,1.8-.71,.12-1.41,.24-2.11,.36-.07-.63-.25-1.12-.53-1.48-.2-.26-.49-.39-.87-.39-.41,0-.71,.19-.92,.57-.17,.31-.26,.69-.26,1.14,0,.71,.29,1.43,.86,2.15,.22,.28,.55,.61,.98,1,.51,.46,.86,.79,1.02,.97,.54,.58,.96,1.16,1.26,1.72,.14,.27,.25,.52,.34,.74,.21,.55,.32,1.05,.32,1.49,.02,1.08-.25,2-.79,2.75-.37,.51-.87,.87-1.52,1.07-.35,.11-.76,.16-1.22,.16-.87,0-1.58-.22-2.15-.67-.48-.37-.85-.87-1.12-1.51-.28-.64-.44-1.37-.49-2.2,.7-.05,1.4-.11,2.1-.17,.09,.91,.32,1.55,.67,1.96,.26,.3,.56,.44,.91,.43,.48-.02,.87-.26,1.16-.74,.14-.24,.22-.58,.22-1.02,0-.65-.26-1.31-.83-1.93-.42-.46-1.1-1.09-1.96-1.96-.73-.75-1.26-1.41-1.55-2-.33-.66-.49-1.39-.49-2.17,0-1.41,.44-2.48,1.34-3.22,.55-.45,1.24-.68,2.05-.68,.78,0,1.46,.21,2.02,.59,.43,.29,.78,.7,1.04,1.22Z"/>
      <path d="M50.84,36.67c.53-.04,1.09-.09,1.63-.13-.28-1.98-.55-3.96-.82-5.94-.28,2.03-.55,4.05-.81,6.07Z"/>
      <path d="M90.63,14.11c.29,.17,.85,.27,1.68,.35,.83,.07,1.66,0,2.49-.26,.83-.25,1.55-.65,2.16-1.19,.6-.54,1.09-1.23,1.42-2.09,.33-.86,.5-1.91,.5-3.17s-.33-2.34-1-3.24c-.75-1-1.84-1.57-3.26-1.71-1.26-.12-2.19,.31-2.8,1.28,.1-.48,.19-.98,.28-1.47-1.18,.04-2.36,.08-3.55,.12-.5,2.53-1,5.06-1.5,7.59-.5,2.53-1,5.06-1.5,7.6,1.47-.08,2.94-.13,4.42-.17,.22-1.21,.44-2.42,.67-3.63Zm.83-4.54c.18-1.04,.39-2.08,.57-3.12,.3-1.69,.88-2.5,1.76-2.42,.29,.02,.52,.15,.67,.39,.16,.23,.23,.69,.23,1.36s-.05,1.36-.15,2.04c-.34,2.34-.75,3.87-1.18,4.61-.16,.27-.35,.47-.57,.59-.21,.13-.51,.17-.89,.13-.37-.03-.72-.18-1.02-.47,.19-1.03,.39-2.08,.57-3.12Z"/>
      <path d="M76.6,17.32c.22-1.22,.44-2.45,.67-3.67,.29,.14,.85,.2,1.68,.2s1.66-.15,2.49-.46c.83-.31,1.56-.78,2.16-1.37,.6-.59,1.09-1.32,1.42-2.2,.33-.87,.5-1.94,.5-3.19s-.32-2.31-1-3.15c-.75-.94-1.85-1.41-3.27-1.43-1.26-.02-2.19,.49-2.81,1.51,.1-.5,.19-.99,.29-1.49-1.18,.13-2.37,.26-3.55,.41-.51,2.56-1.01,5.13-1.51,7.69-.49,2.57-1,5.13-1.49,7.7,1.47-.2,2.94-.39,4.42-.55Zm1.5-8.25c.19-1.05,.4-2.11,.58-3.16,.3-1.71,.88-2.57,1.76-2.57,.3,0,.52,.12,.67,.34,.15,.22,.23,.67,.23,1.34s-.05,1.36-.15,2.05c-.34,2.35-.75,3.91-1.18,4.68-.16,.28-.35,.49-.57,.64-.21,.13-.52,.22-.9,.22-.37,0-.71-.12-1.02-.38,.19-1.05,.39-2.1,.57-3.16Z"/>
      <path d="M100.7,18.59c.87,.6,2.07,1.01,3.59,1.24,.94,.14,1.78,.19,2.51,.09,.74-.1,1.38-.39,1.95-.85,.54-.44,1.03-1.11,1.43-2,.4-.9,.76-2.01,1.02-3.35,.28-1.37,.55-2.74,.82-4.12,.27-1.37,.55-2.74,.82-4.12-1.44-.13-2.87-.26-4.29-.38-.2,.97-.4,1.94-.6,2.91-.2,.97-.39,1.94-.59,2.91-.13,.63-.33,1.12-.6,1.45-.27,.33-.57,.46-.88,.41-.31-.05-.56-.14-.73-.3-.11-.09-.19-.22-.26-.37-.07-.15-.1-.34-.1-.54s.01-.42,.05-.61c.05-.19,.09-.39,.12-.57,.19-1.02,.4-2.04,.59-3.05,.2-1.02,.4-2.04,.61-3.06-1.48-.1-2.95-.17-4.42-.24-.18,.88-.35,1.76-.52,2.64-.17,.88-.33,1.77-.5,2.64-.09,.42-.13,.84-.13,1.26s.06,.82,.17,1.22c.36,1.3,1.41,2.09,3.13,2.35,1.38,.21,2.45,0,3.2-.65-.15,.67-.3,1.32-.46,1.95-.55,2.11-1.3,3.07-2.27,2.92-.57-.09-.87-.45-.87-1.09,0-.48,.17-.84,.51-1.08-.14-.22-.33-.44-.61-.64-.46-.32-1.01-.54-1.62-.62-.69-.1-1.26-.01-1.71,.26-.45,.28-.67,.72-.67,1.32,0,.79,.44,1.48,1.31,2.08Z"/>
      <path d="M60.75,13.82c.34,.34,.79,.55,1.32,.66,.53,.11,1.13,.14,1.79,.08,.65-.06,1.23-.23,1.73-.5,.49-.27,.85-.6,1.08-.98,.13,.37,.39,.65,.78,.84,.39,.2,.9,.28,1.49,.24,.59-.04,1.15-.22,1.68-.54,.53-.32,.87-.71,1.02-1.21-.29-.02-.53-.12-.74-.31-.19-.19-.29-.44-.29-.76s.04-.56,.07-.74c.27-1.41,.54-2.82,.8-4.23,.26-1.41,.54-2.82,.81-4.24-1.25,.18-2.48,.38-3.72,.57-.54-.21-1.18-.29-1.92-.23-2.05,.17-3.7,.99-4.95,2.45-.61,.7-1.08,1.51-1.41,2.42-.33,.91-.51,1.85-.51,2.82s.08,1.73,.23,2.3c.15,.56,.4,1.03,.74,1.35Zm3.55-5.66c.24-1.19,.43-2.01,.58-2.46,.14-.45,.31-.82,.47-1.08,.16-.28,.35-.48,.56-.61,.22-.13,.5-.22,.86-.25,.35-.03,.69,.07,.99,.31-.2,1.07-.4,2.13-.59,3.2-.19,1.06-.39,2.13-.57,3.19-.13,.78-.36,1.42-.7,1.88-.34,.47-.74,.73-1.21,.77-.23,.02-.42-.09-.54-.32-.13-.23-.2-.77-.2-1.6s.12-1.84,.36-3.04Z"/>
      <path d="M50.68,12.29c.24-1.27,.48-2.55,.73-3.82,.1-.49,.24-.91,.38-1.25,.36-.88,.82-1.38,1.39-1.47,.44-.08,.68,.29,.68,1.1,0,.46-.13,1.34-.37,2.63-.11,.56-.2,1.13-.31,1.69-.22,1.2-.35,2.01-.35,2.42,0,.7,.13,1.22,.39,1.55,.16,.22,.4,.37,.69,.47,.3,.1,.73,.11,1.3,.03,.57-.08,1.12-.29,1.64-.6,.62-.39,1.02-.86,1.18-1.4-.65-.1-.98-.46-.98-1.09,0-.25,.04-.54,.11-.88,.17-.83,.34-1.67,.5-2.51,.09-.53,.19-1.06,.29-1.6,.07-.4,.12-.73,.14-.96,.02-.22,.04-.49,.04-.78s-.07-.58-.16-.9c-.29-1-1.23-1.39-2.8-1.16-1.5,.22-2.65,.83-3.46,1.78,.34-.82,.73-2.36,1.13-4.65,.05-.3,.11-.59,.17-.89-1.46,.39-2.91,.78-4.36,1.2-.51,2.7-1.02,5.41-1.53,8.11-.51,2.71-1.02,5.43-1.53,8.14,1.45-.44,2.91-.89,4.37-1.33,.24-1.28,.49-2.56,.74-3.83Z"/>
      <path d="M103.81,64.56c-.36,2.02-.73,4.05-1.09,6.08-.23,1.32-.61,2.42-1.09,3.27-.49,.86-1.01,1.38-1.58,1.53-.56,.15-1.02,.17-1.32,0-.19-.11-.34-.32-.47-.57-.13-.24-.2-.57-.2-.99s.04-.83,.13-1.25c.08-.42,.13-.82,.19-1.2,.35-2.15,.73-4.3,1.09-6.46,.36-2.14,.73-4.29,1.09-6.43-2.67,.76-5.35,1.47-8.02,2.1-.31,1.87-.62,3.74-.93,5.6-.31,1.87-.61,3.74-.92,5.62-.15,.9-.24,1.78-.24,2.63s.12,1.64,.31,2.36c.66,2.43,2.57,3.42,5.69,2.74,2.5-.54,4.44-1.87,5.8-3.78-.27,1.43-.54,2.82-.83,4.17-.99,4.6-2.37,7.2-4.1,7.64-1.04,.26-1.58-.23-1.58-1.51,0-.95,.3-1.79,.91-2.51-.24-.35-.6-.63-1.1-.83-.84-.33-1.82-.4-2.93-.21-1.26,.22-2.3,.76-3.12,1.57-.81,.79-1.22,1.79-1.22,3,0,1.61,.78,2.83,2.37,3.52,1.57,.68,3.76,.7,6.52-.02,1.71-.46,3.23-1.18,4.56-2.06,1.33-.88,2.51-2.07,3.54-3.55,.99-1.42,1.88-3.2,2.61-5.3,.74-2.11,1.36-4.57,1.85-7.34,.49-2.82,.99-5.63,1.48-8.4,.49-2.75,.99-5.5,1.49-8.23-2.6,.94-5.19,1.86-7.78,2.73-.36,2.01-.73,4.03-1.09,6.06Z"/>
      <path d="M55.9,55.3c-.17,.9-.31,1.65-.4,2.19-.07,.42-.13,.86-.19,1.28-.05,.31-.1,.51-.12,.62-.74-.34-1.58-.59-2.52-.77-3.68-.71-6.67-.11-9,1.76-1.14,.91-2.04,2.05-2.61,3.47-.57,1.41-.86,3.09-.86,5.08,0,3.05,.56,5.46,1.73,7.23,.61,.93,1.44,1.75,2.47,2.43,1,.69,2.13,1.22,3.36,1.62,1.21,.4,2.26,.5,3.09,.31,.84-.19,1.47-.59,1.89-1.2,.22,.78,.68,1.5,1.38,2.11,.71,.61,1.46,1.01,2.24,1.19,.77,.18,1.44,.29,2,.22,1.6-.23,2.67-1.03,3.2-2.28-.47-.09-.85-.39-1.14-.92-.29-.52-.44-1.1-.44-1.73v-.69c0-.29,.02-.52,.04-.68,.72-4.04,1.46-8.11,2.18-12.19,.73-4.1,1.47-8.24,2.2-12.41-2.62,.09-5.24,.13-7.86,.09-.21,1.1-.43,2.19-.63,3.27Zm-2.3,12.96c-.35,1.97-.72,3.93-1.07,5.89-.25,1.41-.65,2.5-1.24,3.23-.59,.73-1.32,.98-2.15,.73-.95-.28-1.42-1.29-1.42-2.96,0-2.43,.27-4.94,.81-7.5,.53-2.57,1.08-4.37,1.6-5.36,.53-1,1.27-1.4,2.25-1.21,.97,.19,1.74,.59,2.29,1.19-.36,2-.71,4.01-1.07,5.99Z"/>
      <path d="M86.1,69.06c.48-2.92,.97-5.86,1.46-8.77-2.26,.44-4.5,.82-6.75,1.18-.98-.49-2.13-.7-3.47-.7-3.74,0-6.73,1.25-9,3.8-1.09,1.23-1.96,2.67-2.56,4.39-.61,1.71-.91,3.54-.91,5.48s.13,3.54,.41,4.77c.28,1.22,.73,2.26,1.34,3.11,.61,.84,1.41,1.48,2.39,1.92,.98,.44,2.07,.74,3.26,.81,1.19,.07,2.25-.15,3.14-.59,.89-.43,1.55-1.04,1.97-1.78,.22,.77,.68,1.37,1.4,1.83,.72,.44,1.63,.68,2.71,.62,1.07-.06,2.1-.44,3.06-1.09,.96-.65,1.57-1.52,1.83-2.57-.52,0-.97-.18-1.33-.57-.36-.39-.53-.91-.53-1.57s.06-1.16,.12-1.52c.5-2.9,.97-5.83,1.46-8.75Zm-7.84,1.67c-.34,2.17-.71,4.35-1.04,6.52-.25,1.6-.67,2.87-1.29,3.74-.61,.88-1.35,1.3-2.19,1.28-.43-.02-.75-.29-.99-.8-.23-.5-.35-1.61-.35-3.33s.22-3.76,.65-6.15c.43-2.39,.79-4.04,1.04-4.94,.26-.89,.55-1.61,.85-2.13,.3-.53,.65-.91,1.03-1.14,.38-.22,.9-.36,1.53-.37,.65-.01,1.25,.25,1.8,.77-.35,2.18-.7,4.35-1.04,6.52Z"/>
    </g>
  </g>
</svg>