<?xml version="1.0" encoding="UTF-8"?>
<svg id="_图层_2" data-name="图层 2" xmlns="http://www.w3.org/2000/svg" viewBox="0 0 123.78 111.76">
  <g id="_图层_2-2" data-name=" 图层 2">
    <g>
      <path d="M64.27,24.17c.21-.17,.31-.42,.32-.75,0-.34-.08-.59-.27-.76-.19-.17-.49-.25-.9-.26l-.75-.02-.05,2.01,.75,.02c.4,.01,.7-.06,.9-.23Z"/>
      <path d="M75.02,24.5l-.71-.24-.64,1.9,.71,.24c.38,.13,.69,.14,.93,.04,.24-.1,.41-.3,.52-.62,.11-.32,.1-.59-.03-.81-.14-.22-.39-.39-.78-.52Z"/>
      <path d="M85.05,66.52c4.25,1.57,7.45,1.91,8.19,.62,.76-1.31-1.22-3.99-4.82-6.96l.32-.63c7.22,1.23,12.73,.83,13.28-1.21,.51-1.89-3.33-4.67-9.31-7.09,7.67-.73,13.15-2.63,13.15-4.87,0-1.8-3.58-3.4-8.99-4.33,6.35-2.64,10.37-5.62,9.82-7.67-.52-1.95-5.04-2.56-11.34-1.85,4.95-3.96,7.72-7.59,6.71-9.33-1.01-1.75-5.53-1.17-11.43,1.14,3.76-5.1,5.49-9.32,4.06-10.75-1.43-1.43-5.65,.3-10.75,4.07,2.31-5.9,2.9-10.43,1.15-11.44-1.74-1.01-5.38,1.76-9.33,6.71,.7-6.29,.09-10.81-1.86-11.34-1.95-.52-4.74,3.09-7.28,8.9-.95-6.27-2.71-10.48-4.73-10.48s-3.77,4.21-4.72,10.48c-2.54-5.81-5.34-9.42-7.28-8.9-1.95,.52-2.56,5.04-1.85,11.34-3.95-4.95-7.59-7.72-9.34-6.71-1.74,1.01-1.16,5.54,1.15,11.44-5.11-3.76-9.33-5.5-10.75-4.07-1.43,1.43,.31,5.64,4.07,10.75-5.91-2.31-10.42-2.89-11.44-1.14-1.01,1.74,1.76,5.37,6.71,9.33-6.3-.71-10.82-.1-11.34,1.85-.04,.12-.05,.25-.06,.38v.03c.04,2.02,3.94,4.8,9.88,7.26-5.42,.93-8.99,2.52-8.99,4.33,0,2.24,5.48,4.15,13.15,4.87-5.98,2.42-9.82,5.2-9.31,7.09,.55,2.05,6.06,2.44,13.28,1.21l.32,.63c-3.61,2.96-5.59,5.64-4.83,6.96,.74,1.29,3.95,.95,8.2-.62l4.56,3.34c-.02-.09-.04-.18-.05-.27,1.09,6.07,6.47,10.99,13.53,12.63v7.22l-2.77,2.37c-.36,.31-.34,.77,.04,1.01,.38,.25,.97,.21,1.33-.1l1.4-1.2v2.02c0,.5,.42,.92,.92,.92s.92-.42,.92-.92v-2.14l1.55,1.32c.36,.31,.96,.35,1.34,.1,.38-.25,.39-.7,.04-1.01l-2.82-2.42s-.06-.04-.1-.07v-6.77c1.07,.15,2.17,.24,3.29,.24,1.48,0,2.91-.14,4.29-.41v7.05l-2.76,2.37c-.36,.31-.34,.77,.03,1.01,.38,.25,.98,.21,1.34-.1l1.39-1.2v2.02c0,.5,.42,.92,.92,.92s.92-.42,.92-.92v-2.14l1.54,1.32c.36,.31,.96,.35,1.34,.1,.38-.25,.4-.7,.04-1.01l-2.82-2.42s-.06-.04-.09-.07v-7.37c6.93-1.96,12.04-7.15,12.65-13.38l-.02,.21,4.39-2.26ZM45.57,32.6c-.25,.16-.49,.19-.72,.1-.23-.09-.46-.32-.69-.67l-1.05-1.64-2.7,1.73,1.05,1.64c.23,.35,.33,.65,.32,.9,0,.25-.14,.45-.39,.61-.25,.16-.49,.19-.72,.1-.23-.09-.46-.32-.68-.67l-2.9-4.52c-.22-.35-.33-.65-.32-.9,0-.25,.14-.45,.39-.61,.24-.16,.48-.19,.72-.09,.23,.09,.46,.32,.68,.67l.98,1.52,2.7-1.73-.98-1.52c-.22-.35-.33-.65-.32-.9,0-.25,.14-.46,.39-.61,.25-.16,.49-.19,.72-.09,.23,.09,.46,.32,.69,.67l2.9,4.52c.22,.35,.33,.65,.32,.91-.01,.25-.14,.45-.38,.6Zm15.37-10.66c.01-.46,.11-.78,.29-.95,.18-.17,.5-.25,.94-.24l1.57,.04c.86,.02,1.54,.27,2.03,.75,.49,.48,.73,1.12,.71,1.91-.02,.82-.27,1.44-.75,1.89-.48,.44-1.14,.66-1.97,.64l-1.17-.03-.03,1.31c-.01,.42-.09,.73-.24,.93-.15,.2-.37,.3-.66,.29-.29,0-.51-.11-.65-.32-.14-.2-.21-.52-.19-.93l.13-5.29Zm-5.73,6.94c-.18-.09-.35-.27-.52-.52l-.4-.62-2.72,.77-.04,.82c0,.27-.06,.48-.17,.65-.1,.17-.24,.28-.43,.34-.23,.06-.44,.04-.64-.07-.19-.11-.32-.28-.39-.52-.03-.09-.04-.18-.05-.27,0-.08-.01-.16,0-.24l.44-5.73c.03-.42,.13-.74,.29-.97,.16-.23,.39-.39,.69-.48,.29-.08,.56-.07,.82,.04,.25,.1,.49,.3,.69,.58l3.37,4.75c.07,.1,.12,.19,.17,.27,.04,.09,.08,.16,.09,.22,.06,.24,.04,.45-.07,.64-.11,.19-.29,.32-.53,.39-.22,.06-.41,.04-.6-.05Zm.44,14c0-1.12,.91-2.02,2.02-2.02s2.03,.91,2.03,2.02-.92,2.02-2.03,2.02-2.02-.91-2.02-2.02Zm11.36,7.11l-3.84,7.23c-.25,.48-.74,.77-1.28,.77s-1.03-.3-1.28-.77l-3.84-7.23c-.3-.56-.19-1.25,.26-1.7,2.69-2.69,7.03-2.69,9.72,0,.46,.45,.56,1.14,.26,1.7Zm-.89-5.09c-1.12,0-2.02-.91-2.02-2.02s.91-2.02,2.02-2.02,2.02,.91,2.02,2.02-.9,2.02-2.02,2.02Zm11.5-18.46c-.26,.77-.69,1.3-1.28,1.58-.59,.28-1.28,.3-2.07,.03l-1.11-.38-.42,1.25c-.13,.39-.3,.66-.5,.81-.2,.14-.44,.17-.72,.08-.28-.09-.46-.26-.52-.5-.07-.24-.04-.56,.09-.95l1.7-5c.15-.44,.34-.72,.56-.83,.22-.11,.55-.09,.97,.05l1.49,.51c.82,.28,1.39,.72,1.71,1.32,.32,.6,.36,1.29,.1,2.04Zm4,6.71l1.43-2.01v-3.05s.01,0,.01-.02c0-.44,.06-.74,.19-.93,.12-.17,.29-.27,.51-.3,.22-.03,.42,.03,.61,.17,.12,.08,.2,.21,.25,.38,.06,.17,.09,.4,.09,.68l-.02,2.28,2.17-.77c.24-.09,.46-.13,.66-.13s.36,.04,.48,.13c.16,.11,.25,.28,.29,.5,.04,.22,0,.4-.11,.56-.13,.17-.39,.33-.78,.47l-.05,.02-2.9,1.03-1.43,2c-.25,.34-.48,.56-.72,.64-.24,.08-.47,.04-.71-.13-.24-.17-.36-.38-.36-.63s.12-.54,.36-.88Z"/>
      <polygon points="51.61 26.83 53.37 26.33 51.75 23.84 51.61 26.83"/>
      <path d="M58.34,105.23c-.12-.05-.28-.11-.49-.18-.9-.34-1.33-.73-1.31-1.15,.01-.26,.13-.47,.34-.62,.22-.15,.5-.22,.85-.19,.21,0,.52,.09,.93,.23,.41,.14,.7,.22,.89,.24,.33,.02,.59-.06,.79-.22,.2-.17,.31-.4,.32-.72,.03-.43-.22-.81-.73-1.13-.51-.32-1.17-.51-1.99-.56-1.11-.06-2.03,.18-2.75,.75-.73,.57-1.12,1.33-1.18,2.29-.04,.75,.14,1.35,.54,1.82,.4,.46,1.13,.89,2.2,1.28,.73,.26,1.2,.51,1.42,.72,.22,.21,.31,.48,.3,.81-.02,.3-.14,.55-.38,.73-.23,.19-.52,.27-.85,.26-.38-.02-.85-.14-1.39-.34-.55-.21-.91-.31-1.09-.32-.35-.02-.64,.06-.87,.24-.22,.18-.34,.43-.36,.74-.03,.44,.28,.85,.91,1.22,.63,.37,1.4,.58,2.33,.63,1.2,.08,2.18-.19,2.95-.78,.78-.59,1.19-1.41,1.26-2.44,.04-.75-.14-1.39-.57-1.92-.43-.52-1.12-.98-2.08-1.37Z"/>
      <path d="M76.86,104.07c-.29-.2-.73-.25-1.3-.15l-1.7,.29c-.56,.09-.96,.25-1.19,.47-.23,.22-.32,.52-.26,.89,.06,.37,.23,.62,.53,.74,.29,.13,.71,.15,1.27,.05l.82-.13c.09,.63-.02,1.15-.33,1.59-.31,.43-.77,.7-1.39,.81-.78,.13-1.44-.06-2-.56-.56-.51-.92-1.25-1.09-2.23-.17-.96-.06-1.77,.3-2.4,.37-.63,.94-1.02,1.73-1.15,.53-.09,1.11-.02,1.77,.21,.65,.23,1.07,.33,1.24,.3,.26-.05,.48-.19,.64-.45,.16-.25,.21-.52,.16-.81-.09-.55-.54-.98-1.34-1.29-.8-.31-1.72-.37-2.76-.19-1.57,.26-2.73,.96-3.5,2.09-.77,1.13-1.01,2.51-.73,4.16,.27,1.59,.94,2.82,2.02,3.66,1.08,.85,2.33,1.15,3.76,.91,1.42-.24,2.49-.88,3.21-1.93,.73-1.04,.96-2.29,.72-3.74-.09-.55-.29-.92-.57-1.13Z"/>
      <path d="M48.15,99.54c-.17-.06-.36-.06-.57-.01-.21,.05-.49,.18-.85,.39l-3.91,2.24,.82-2.42c.18-.53,.23-.96,.13-1.29-.09-.32-.33-.55-.7-.68-.37-.13-.7-.09-.97,.11-.27,.2-.5,.57-.68,1.1l-2.33,6.86c-.18,.53-.22,.96-.12,1.28,.09,.32,.33,.54,.7,.67,.38,.13,.7,.09,.97-.1,.27-.2,.49-.56,.68-1.1l.98-2.88,2.08,4.81c.2,.44,.36,.74,.48,.87,.13,.15,.27,.25,.46,.31,.26,.09,.53,.06,.82-.07,.28-.14,.47-.34,.56-.61,.05-.15,.06-.34,.03-.56-.04-.22-.11-.47-.22-.73l-1.88-4.25,3.26-1.69c.26-.13,.47-.27,.62-.42,.15-.15,.26-.31,.32-.49,.09-.27,.07-.54-.06-.81-.13-.27-.33-.45-.6-.54Z"/>
      <path d="M15.83,75.16c.17-.29,.18-.61,.02-.98-.16-.36-.41-.58-.74-.64-.33-.07-.75,.02-1.27,.24l-2.23,.98-1.74-3.96,2.23-.98c.52-.23,.86-.48,1.04-.78,.17-.29,.18-.61,.02-.97-.16-.36-.41-.58-.74-.65-.33-.06-.76,.02-1.27,.24l-6.63,2.92c-.52,.23-.86,.48-1.04,.77-.17,.29-.17,.61-.02,.97,.16,.37,.4,.58,.73,.65,.33,.06,.75-.02,1.26-.25l2.41-1.06,1.74,3.96-2.41,1.06c-.52,.23-.86,.48-1.03,.78-.17,.29-.18,.61-.02,.97,.16,.36,.4,.58,.73,.65,.33,.07,.75-.01,1.27-.24l6.63-2.92c.51-.23,.86-.49,1.03-.78Z"/>
      <path d="M8.51,60.92c.09,.55,.25,.95,.47,1.19,.23,.24,.52,.34,.88,.27,.37-.06,.62-.25,.75-.55,.13-.31,.16-.73,.06-1.28l-.68-4.03c-.09-.56-.25-.96-.48-1.2-.22-.24-.52-.33-.89-.27-.36,.06-.6,.24-.74,.54-.13,.31-.15,.74-.05,1.29l.14,.86-6.5,1.09c-.56,.09-.95,.26-1.19,.49-.24,.24-.32,.56-.26,.95,.06,.39,.25,.66,.55,.8,.3,.15,.73,.17,1.29,.08l6.5-1.09,.15,.86Z"/>
      <path d="M35.48,94.24c-.33-.22-.65-.27-.96-.15-.31,.12-.63,.41-.95,.87l-2.72,3.99-.36-7.18c-.02-.34-.08-.62-.17-.82-.09-.2-.24-.37-.43-.5-.3-.21-.6-.26-.9-.14-.3,.11-.59,.39-.89,.83l-4.12,6.06c-.32,.47-.48,.87-.47,1.2,0,.34,.17,.61,.5,.84,.32,.22,.65,.27,.96,.16,.31-.12,.63-.41,.95-.88l2.68-3.92,.35,7.04c.02,.37,.09,.68,.18,.91,.1,.23,.25,.41,.45,.55,.31,.21,.6,.26,.87,.17,.28-.1,.56-.35,.84-.77l4.22-6.2c.32-.46,.47-.87,.47-1.2,0-.34-.17-.62-.5-.84Z"/>
      <path d="M20.99,82.17c-.38-.05-.82,.02-1.35,.22l-7.24,2.81c-.09,.03-.19,.08-.29,.14-.1,.06-.2,.14-.3,.22-.25,.21-.38,.47-.4,.77-.02,.3,.08,.57,.29,.82,.17,.19,.39,.3,.65,.32,.26,.02,.56-.04,.9-.18l1.01-.43,2.52,2.86-.52,.85c-.21,.34-.33,.65-.34,.93,0,.28,.09,.53,.29,.76,.23,.25,.49,.39,.78,.42,.3,.03,.57-.07,.82-.28,.07-.06,.14-.14,.22-.25,.07-.1,.15-.22,.24-.36l3.82-6.86c.23-.41,.33-.81,.31-1.18-.02-.38-.16-.71-.43-1.02-.28-.32-.61-.51-.99-.56Zm-3.04,5.62l-1.63-1.85,3.71-1.58-2.08,3.43Z"/>
      <path d="M84.52,97.84c-.23-.51-.49-.86-.78-1.03-.3-.17-.61-.18-.98-.02-.36,.16-.57,.41-.64,.74-.06,.33,.02,.75,.26,1.26l2.97,6.6c.23,.51,.49,.86,.78,1.03,.29,.17,.62,.17,.98,.01,.36-.17,.57-.41,.64-.74,.06-.33-.02-.75-.25-1.27l-2.97-6.6Z"/>
      <path d="M97.28,90.31c-.03-.13-.08-.27-.14-.4-.06-.13-.13-.25-.2-.35-.2-.27-.43-.43-.71-.47-.28-.04-.56,.04-.85,.24-.23,.17-.38,.37-.43,.6-.05,.23-.01,.56,.11,.97l1.7,5.88-5.17-3.52c-.32-.22-.6-.35-.82-.38-.22-.04-.44,.02-.65,.17-.29,.2-.46,.46-.52,.78-.06,.32,0,.61,.2,.88,.07,.1,.15,.19,.23,.27,.09,.08,.18,.14,.27,.21l7.13,4.62c.29,.18,.55,.28,.76,.29,.22,.02,.44-.06,.66-.22,.23-.17,.39-.36,.44-.59,.07-.23,.05-.53-.04-.89l-1.99-8.08Z"/>
      <path d="M118.34,74.44l-6.49-3.77c-.48-.28-.89-.41-1.23-.38-.34,.03-.6,.22-.81,.56-.2,.35-.23,.67-.09,.98,.14,.3,.45,.6,.94,.88l4.18,2.43-7.13,.87c-.34,.05-.62,.13-.81,.23-.2,.11-.36,.26-.47,.47-.19,.32-.21,.62-.08,.91,.13,.29,.43,.56,.89,.83l6.34,3.68c.48,.28,.9,.41,1.23,.38,.33-.03,.6-.22,.8-.56,.2-.35,.23-.67,.09-.97-.13-.31-.45-.6-.94-.88l-4.1-2.39,6.99-.86c.37-.04,.66-.13,.89-.24,.22-.11,.4-.28,.52-.49,.18-.32,.22-.61,.1-.89-.12-.26-.39-.53-.83-.78Z"/>
      <path d="M108.32,89.02l-5.3-4.93c-.41-.39-.78-.6-1.12-.65-.33-.05-.64,.08-.91,.37-.27,.29-.37,.6-.3,.93,.07,.33,.31,.69,.72,1.07l5.3,4.93c.41,.39,.78,.6,1.12,.65s.64-.08,.91-.37c.27-.29,.37-.6,.3-.92-.07-.33-.31-.69-.72-1.07Z"/>
      <path d="M123.05,58.71c-.7-1.06-1.77-1.75-3.21-2.06-.54-.12-.96-.08-1.26,.12-.3,.2-.5,.58-.63,1.15l-.37,1.69c-.12,.55-.12,.98,0,1.28,.12,.3,.36,.49,.73,.57,.37,.08,.66,0,.89-.22,.23-.22,.41-.61,.52-1.16l.18-.81c.61,.15,1.07,.45,1.35,.9,.29,.45,.37,.98,.23,1.59-.17,.77-.59,1.32-1.26,1.65-.68,.33-1.5,.39-2.47,.18-.96-.21-1.66-.6-2.12-1.18-.45-.57-.59-1.25-.42-2.03,.11-.52,.4-1.04,.85-1.56,.45-.52,.7-.87,.74-1.04,.05-.26,0-.51-.18-.75-.17-.24-.4-.39-.69-.46-.55-.12-1.11,.14-1.69,.77-.58,.63-.98,1.46-1.21,2.49-.34,1.56-.12,2.9,.64,4.03,.76,1.13,1.95,1.87,3.59,2.23,1.58,.35,2.96,.18,4.15-.51,1.19-.68,1.94-1.73,2.25-3.15,.3-1.41,.11-2.64-.6-3.7Z"/>
    </g>
  </g>
</svg>