<?xml version="1.0" encoding="UTF-8"?>
<svg id="_图层_2" data-name="图层 2" xmlns="http://www.w3.org/2000/svg" viewBox="0 0 158.64 107.86">
  <g id="_图层_2-2" data-name=" 图层 2">
    <g>
      <path d="M157.24,44.68c-.76-.46-1.9-.69-3.43-.69-.39,0-.98,.03-1.77,.07-.79,.04-1.36,.07-1.72,.07-1.04,0-1.85-.16-2.43-.47-.72-.38-1.25-1.05-1.58-2.01-.14-.42-.22-.82-.22-1.19,0-1.59,1.34-2.39,4.04-2.39,1.42,0,2.13,.15,2.13,.46,0,.08-.09,.14-.25,.18-1.37,.33-2.12,.52-2.25,.58-1.01,.43-1.51,1.08-1.51,1.95,0,.99,1.44,1.49,4.31,1.49,.48,0,.92,0,1.33-.03,2.17-.14,3.26-.72,3.26-1.75,0-.31-.11-.74-.34-1.3-.35-.88-1.07-1.52-2.13-1.91-1.21-.46-3.1-.69-5.65-.69s-4.72,.49-6.26,1.47c-1.35,.86-2.17,2.01-2.47,3.45-.08,.35-.13,.75-.13,1.2,0,1.87,1.37,2.81,4.12,2.81,.33,0,.9-.04,1.7-.1,.8-.06,1.34-.09,1.6-.09,2.61,0,3.98,1.38,4.09,4.15,.04,.85-.39,1.49-1.3,1.92-.6,.29-1.53,.51-2.81,.66-.44,.06-.95,.08-1.52,.08-1.47,0-2.2-.12-2.2-.37,0-.23,.41-.4,1.25-.52,1.39-.2,2.43-.59,3.12-1.17,.55-.46,.83-.99,.83-1.59s-.38-1.02-1.14-1.34c-.76-.33-1.79-.49-3.1-.49-.71,0-1.49,.05-2.34,.16-1.26,.17-2.19,.46-2.82,.87-.09-.32-.2-.63-.32-.93-.75-1.84-2.22-3.11-4.06-3.8-2.05-.78-4.66-.91-6.83-.91-2.8,0-5.69,.48-8.07,2.01-.28,.18-.55,.37-.8,.56-.42-.55-.91-1.05-1.45-1.48,2.19-1.61,3.31-3.14,2.98-4.38-.55-2.07-5.09-2.82-11.53-2.26l.62-1.57c4.35-3.83,6.63-7.21,5.62-8.95-1.15-1.99-6.32-1.33-13.06,1.31,4.29-5.82,6.27-10.65,4.64-12.28-1.63-1.63-6.45,.35-12.27,4.64,2.64-6.74,3.3-11.91,1.3-13.06-1.99-1.15-6.14,2.01-10.65,7.66,.81-7.19,.11-12.35-2.12-12.95-2.22-.6-5.41,3.53-8.31,10.16-1.09-7.15-3.09-11.96-5.39-11.96s-4.31,4.81-5.4,11.96c-2.9-6.63-6.08-10.75-8.31-10.16-2.22,.6-2.91,5.77-2.11,12.95-4.52-5.65-8.66-8.82-10.66-7.66-1.99,1.15-1.33,6.32,1.31,13.06-5.82-4.29-10.64-6.27-12.28-4.64-1.63,1.63,.35,6.45,4.65,12.28-6.73-2.64-11.91-3.3-13.06-1.31-1.01,1.76,1.34,5.21,5.8,9.1-.47-.04-.93-.1-1.36-.18l-2.43-.41-.95,1.85c-1.93,.08-3.51,.34-4.61,.8-5.58-.11-11.16-.38-16.72-.86l-.75-.06-.71,.27c-1.2,.44-2.08,1.45-2.3,2.73l-.08,.47,.05,.47c.23,2.02,.46,4.07,.78,6.08l.03,.17,.05,.17c.5,1.86,2.24,2.8,3.89,2.54-.36,1.46-.56,2.95-.56,4.47,0,3.25,.89,6.34,3.18,8.72,2.58,2.69,6.12,3.62,9.75,3.62,2.58,0,5.09-.48,7.42-1.56-.42,.63-.57,1.21-.43,1.74,.23,.89,1.3,1.51,2.99,1.85-.47,1.31-.7,2.81-.7,4.39,0,3.92,1.95,7.13,6.19,7.13,2.16,0,4.37-.19,6.52-.58,.98-.17,2.14-.38,3.13-.38,.68,0,1.36,.05,2.04,.17l3.58,.65v-.27s.56,0,.56,0l.27,.2-.04-.2c1.29,6.88,7.41,12.45,15.42,14.31v8.25l-3.16,2.71c-.41,.35-.4,.87,.04,1.16,.43,.28,1.12,.23,1.53-.12l1.59-1.36v2.3c0,.58,.48,1.05,1.05,1.05s1.06-.47,1.06-1.05v-2.45l1.76,1.51c.41,.35,1.09,.4,1.53,.12,.43-.29,.45-.81,.04-1.16l-3.22-2.76s-.07-.06-.11-.08v-7.73c1.22,.18,2.47,.27,3.75,.27,1.68,0,3.33-.16,4.9-.47v8.06l-3.16,2.71c-.41,.35-.4,.87,.04,1.16,.43,.28,1.12,.23,1.52-.12l1.59-1.36v2.3c0,.58,.48,1.05,1.05,1.05s1.06-.47,1.06-1.05v-2.45l1.76,1.51c.41,.35,1.09,.4,1.52,.12,.43-.29,.45-.81,.04-1.16l-3.22-2.76s-.08-.06-.11-.08v-8.42c7.64-2.16,13.33-7.75,14.35-14.54,.52-.1,1.01-.24,1.47-.43,.91,.59,2,.83,3.1,.86l5.16-.14c.17-.1,.5-.19,.68-.24,.09-.02,.18-.04,.27-.06,.3,.4,.67,.75,1.1,1.05,.68,.46,1.44,.76,2.25,.97l1.77,.3c.55,.05,1.1,.07,1.63,.07,1.57,0,3.2-.29,4.47-1.27,1.06-.81,1.69-1.98,2.07-3.23,.19-.63,.3-1.36,.37-2.06l1.25,.41,.59-6.34-1.69-.95c-.25-.14-.5-.27-.76-.4,.36-.27,.6-.59,.7-.96,.15-.57-.04-1.2-.52-1.87l3.51,.02c.17,.09,.34,.17,.52,.24,2.11,.92,4.5,1.2,6.78,1.2,3.14,0,6.44-.38,9.35-1.61,2.95-1.23,5.38-3.34,5.87-6.63,.08-.52,.12-1.06,.12-1.6,0-1.33-.31-2.59-.94-3.66,.23,.13,.47,.26,.75,.38,1.4,.61,3.22,.92,5.43,.92,3.24,0,5.93-.45,8.06-1.35,2.3-.96,3.58-2.3,3.84-4.03,.05-.36,.09-.73,.09-1.1,0-1.35-.47-2.3-1.4-2.85Zm-64.79,2.5c.43,1.16,.64,2.66,.64,4.5,0,.71-.04,1.41-.1,2.12-.26,2.49-.39,4.39-.39,5.73,0,1.26,.12,2.13,.36,2.61,.51,.2,1.2,.43,2.09,.7-.14,.35-.3,.79-.5,1.34l-8.35-1.56c.93-1.48,1.39-3.79,1.39-6.93v-1.25c-.06-1.48-.45-2.23-1.17-2.23-.23,0-.52,.1-.9,.29-1.52,.76-2.59,2.41-3.22,4.96,.02,.87,.43,2.52,1.25,4.93-2.06-.91-4.13-1.36-6.2-1.36-1.38,0-2.34,.23-2.87,.69l.03-3.17c.29-.13,.65-.19,1.08-.19,.64,0,1.32,.17,2.03,.5-.51-.71-.96-2.49-1.36-5.32-.25-1.75-.41-3.3-.5-4.65-.04-.72-.48-1.15-1.3-1.29-.28-.03-.67-.09-1.2-.19-.24-.07-.36-.47-.36-1.2,0-.23,.02-.41,.05-.55,.18,.09,3.74,.37,10.71,.83-1.15,1.84-1.73,4.27-1.73,7.28,1.1-3.41,3.12-6.06,6.03-7.95,.81-.52,1.51-.78,2.12-.78,1.06,0,1.85,.72,2.36,2.15Zm-11.29-17.61c0-.21,0-.35,0-.42v-.27c1.56-.26,2.76-.6,3.59-1.04,.08,.14,.2,.36,.37,.64-.16,.04-.42,.09-.8,.14,0,.34,.31,.8,.92,1.4,.52,.5,.96,.84,1.33,1.03,.17-.26,.4-.69,.67-1.29,.27-.59,.4-.93,.4-1.04-.65,0-1.13,0-1.43-.02,.05-.2,.13-.52,.26-.96,.92,.03,1.94,.37,3.09,1.01l-.05,.55c-.42-.14-.67-.21-.74-.21-.12,0-.21,.21-.28,.59-.05,.29-.12,.84-.19,1.65-.08,.86-.17,1.44-.26,1.76-.2,.65-.48,1.12-.82,1.39-.46,.35-1.16,.52-2.12,.52-1.48,0-2.53-.22-3.18-.66-.21-.14-.38-.35-.52-.65-.14-.28-.21-.54-.21-.78,0-.33,.17-.57,.49-.74,.31-.16,.75-.24,1.29-.24s1.03,.1,1.41,.31c.34,.19,.52,.4,.52,.64,0,.48-.34,.81-1,1.01-.06,.01-.3,.06-.72,.14-.23,.05-.34,.1-.34,.17,0,.13,.35,.21,1.05,.21,.52,0,.89-.06,1.11-.17,.37-.2,.66-.51,.86-.94,.14-.3,.22-.56,.22-.78-.01-.08-.55-.53-1.61-1.34-1.09-.84-1.81-1.35-2.16-1.54-.12,0-.48,.16-1.07,.48-.04,.03-.07,.01-.07-.04v-.52Zm-6.76,4.44c-.02-.27-.03-.6-.03-.99,0-1.5,.13-2.7,.39-3.6-.26,.16-.52,.24-.78,.24-.1,0-.18-.01-.25-.04l-.11-1.16c.18,.06,.42,.09,.69,.09,.77,0,1.51-.19,2.23-.58-.13,.47-.19,.77-.19,.92,.54-.37,1.13-.59,1.76-.67,.31-.04,.61-.06,.88-.06,.68,0,1.16,.13,1.46,.41,.26,.25,.39,.63,.39,1.16,0,.26-.03,.57-.09,.91-.1,.64-.35,1.15-.74,1.56-.46,.48-1.05,.71-1.78,.71-.83,0-1.53-.3-2.1-.87,.16,.73,.26,1.19,.31,1.36,.15,.54,.36,1.11,.63,1.72-1.77,.24-2.91,.42-3.45,.54-.04-.16-.06-.29-.06-.4,0-.14,.02-.21,.07-.23,.53-.18,.8-.39,.8-.61,0,.02,0-.11-.03-.38Zm-7.53-5.48c.76,0,1.51-.19,2.23-.58-.12,.47-.19,.77-.19,.92,.53-.37,1.13-.59,1.76-.67,.31-.04,.61-.06,.88-.06,.67,0,1.16,.13,1.45,.41,.26,.25,.4,.63,.4,1.16,0,.26-.04,.57-.09,.91-.1,.64-.35,1.15-.74,1.56-.46,.48-1.05,.71-1.79,.71-.83,0-1.52-.3-2.09-.87,.16,.73,.26,1.19,.31,1.36,.15,.54,.37,1.11,.64,1.72-1.77,.24-2.92,.42-3.45,.54-.04-.16-.05-.29-.05-.4,0-.14,.02-.21,.06-.23,.54-.18,.8-.39,.8-.61,0,.02,0-.11-.02-.38-.02-.27-.03-.6-.03-.99,0-1.5,.13-2.7,.39-3.6-.27,.16-.52,.24-.77,.24-.1,0-.19-.01-.26-.04l-.11-1.16c.19,.06,.42,.09,.69,.09Zm-8.61,2.25c.12-.71,.37-1.29,.76-1.75,.47-.54,1.06-.82,1.79-.82,.79,0,1.55,.36,2.3,1.08,0-.16-.04-.38-.13-.66-.1-.31-.22-.56-.33-.75,1.55-.24,2.62-.46,3.21-.68,.05,.2,.09,.4,.09,.6,0,.17-.02,.26-.06,.3-.46,.16-.7,.3-.7,.43h0c0,.12,0,.28,.02,.5,0,.22,.01,.39,.01,.52,0,1.01-.13,1.84-.39,2.5,.21-.13,.45-.19,.74-.19,.15,0,.29,.02,.42,.05l.14,1.3c-.15-.1-.39-.16-.73-.16-.4,0-.85,.07-1.36,.2-.5,.14-.9,.29-1.19,.46,.11-.52,.16-.88,.16-1.05,0-.05,0-.08-.03-.08-.01,0-.03,.01-.06,.04-.53,.43-1.16,.69-1.89,.79-.35,.04-.65,.07-.89,.07-.72,0-1.23-.15-1.54-.46-.28-.27-.42-.7-.42-1.26,0-.3,.03-.62,.09-.98Zm6.38,19.35c0-.46-.13-1.09-.38-1.92-.28-.88-.6-1.6-.95-2.15,4.45-.68,7.54-1.33,9.24-1.94,.17,.57,.25,1.14,.25,1.72,0,.47-.05,.76-.16,.87-1.34,.46-2.01,.86-2.01,1.23v.02c0,.3,.01,.77,.04,1.42,.03,.64,.04,1.13,.04,1.48,0,2.91-.37,5.31-1.11,7.21,.6-.37,1.3-.56,2.13-.56,.44,0,.84,.05,1.21,.14l.38,3.73c-.42-.31-1.12-.45-2.08-.45-1.16,0-2.47,.19-3.92,.56-1.46,.38-2.6,.82-3.42,1.32,.32-1.52,.47-2.52,.47-3.03,0-.15-.03-.22-.08-.22-.03,0-.09,.05-.18,.11-1.52,1.25-3.33,2.01-5.44,2.28-1.01,.12-1.86,.19-2.56,.19-2.07,0-3.55-.44-4.44-1.31-.8-.79-1.21-2-1.21-3.63,0-.85,.09-1.78,.25-2.81,.33-2.03,1.06-3.7,2.17-5.03,1.34-1.57,3.06-2.35,5.15-2.35,2.26,0,4.47,1.04,6.62,3.12Zm-4.7,17.73c0,.26-.3,.49-.91,.68-.54,.17-1.11,.25-1.71,.25-.56,0-1.02-.1-1.38-.31-.41-.24-.62-.6-.62-1.05,0-.59,.68-.89,2.05-.89,.76,0,1.39,.14,1.88,.42,.46,.26,.69,.56,.69,.91Zm-9.58-42.52c.22,.03,.87,.09,1.95,.16l2.04,.13c-.57,1.46-.87,2.97-.87,4.53,0,.21,0,.41,.02,.62,.22-.76,.57-1.45,1.03-2.07,.36-.48,.73-.84,1.11-1.08,.25-.16,.47-.24,.68-.24,.35,0,.62,.26,.8,.77,.15,.41,.22,.94,.22,1.58,0,.3,0,.55-.03,.73-.11,.97-.16,1.64-.16,1.99,0,.44,.05,.75,.13,.93,.23,.09,.48,.17,.72,.21-.04,.11-.09,.26-.16,.48-.59-.14-1.52-.35-2.77-.63,.29-.57,.44-1.29,.44-2.17,0-.55-.03-.91-.1-1.11-.06-.18-.17-.27-.34-.27-.28,0-.56,.18-.83,.53-.29,.36-.48,.8-.59,1.31,0,.3,.15,.88,.44,1.73-.68-.3-1.36-.45-2.02-.45-.45,0-.81,.08-1.06,.25v-1.12c.11-.04,.24-.07,.39-.07,.22,0,.46,.05,.71,.17-.22-.73-.41-1.73-.56-3-.13-1.09-.2-2.02-.2-2.76,0-.17-.05-.29-.16-.35-.07-.05-.2-.09-.39-.12-.09-.02-.21-.04-.33-.06-.08-.02-.12-.15-.12-.41,0-.1,0-.17,.02-.19Zm-22.33,31.5c-.77,2.06-2.25,3.65-4.43,4.76-1.91,.98-4.06,1.46-6.45,1.46-3.24,0-5.68-.86-7.32-2.58-1.49-1.56-2.24-3.69-2.24-6.39,0-2.16,.51-4.44,1.53-6.83,.72-1.65,1.45-2.95,2.19-3.89-2.59,.29-4.91,1.24-6.95,2.86-.12,.12-.18,.11-.22-.03-.19-1.21-.44-3.19-.75-5.93,0-.05,.07-.09,.17-.14,7.17,.61,14.64,.92,22.4,.92,.16,0,.21,.09,.16,.28-.95,3.74-1.53,6.73-1.75,8.98-.65-.1-1.49-.27-2.52-.5-.49-.17-.73-.41-.73-.75,0-.18,.07-.58,.21-1.21,.14-.63,.21-1.1,.21-1.41,0-.45-.14-.76-.42-.94-1.62-1.07-2.91-1.68-3.86-1.81-1.63,3.09-2.45,6.51-2.45,10.26,0,2.09,.31,3.8,.94,5.14,.67,1.46,1.59,2.19,2.77,2.19,.88,0,1.84-.34,2.89-1.03,.98-.66,1.47-1.19,1.47-1.59,0-.16-.06-.24-.17-.24-1.36-.21-2.54-.66-3.52-1.35-1.16-.8-1.74-1.78-1.74-2.93,0-.61,.41-1.12,1.23-1.52,.82-.4,1.93-.6,3.34-.6,.62,0,1.36,.05,2.2,.16,2.85,.38,4.28,1.3,4.28,2.77,0,.48-.15,1.1-.45,1.88Zm.23-16.37c-.23-.05-.34-.44-.34-1.2,0-.3,.02-.48,.05-.56,.64,.1,2.5,.26,5.58,.48l5.88,.39c-1.65,4.2-2.47,8.54-2.47,13.02,0,.6,.02,1.2,.05,1.78,.65-2.19,1.64-4.18,2.96-5.95,1.05-1.39,2.11-2.43,3.18-3.13,.72-.46,1.38-.69,1.96-.69,1.02,0,1.79,.74,2.3,2.2,.43,1.19,.65,2.71,.65,4.56,0,.88-.03,1.58-.09,2.12-.3,2.8-.44,4.7-.44,5.72,0,1.26,.13,2.16,.38,2.68,.67,.27,1.36,.47,2.07,.61-.11,.3-.27,.75-.47,1.36-1.71-.4-4.36-1-7.95-1.81,.83-1.62,1.25-3.71,1.25-6.25,0-1.57-.09-2.63-.28-3.19-.17-.52-.5-.79-.98-.79-.81,0-1.61,.5-2.41,1.51-.83,1.04-1.39,2.3-1.7,3.78,.02,.87,.44,2.53,1.26,4.97-1.95-.87-3.9-1.31-5.82-1.31-1.3,0-2.31,.24-3.05,.72l.03-3.22c.29-.13,.67-.2,1.11-.2,.64,0,1.32,.17,2.03,.5-.65-2.1-1.19-4.98-1.61-8.63-.37-3.15-.56-5.8-.56-7.96,0-.48-.16-.82-.48-1.02-.19-.13-.56-.24-1.11-.33-.28-.05-.6-.1-.96-.16Zm16.53,27.39c0,.26-.3,.49-.91,.68-.54,.17-1.11,.25-1.71,.25-.56,0-1.02-.1-1.38-.31-.42-.24-.62-.6-.62-1.05,0-.59,.68-.89,2.05-.89,.76,0,1.39,.14,1.88,.42,.47,.26,.7,.56,.7,.91Zm-6.42,2.65c-.29,.19-.75,.28-1.4,.28-.78,0-1.43-.14-1.96-.42-.49-.26-.75-.57-.75-.91s.16-.65,.48-.92c.34-.3,.75-.44,1.23-.44,.07,0,.17,0,.31,0,.13,0,.21,0,.24,0h.09c.08-.03,.12-.06,.12-.12,0-.14-.15-.28-.45-.42-.36-.17-.8-.26-1.35-.26-.77,0-1.41,.25-1.93,.75-.61,.58-.91,1.42-.91,2.52,0,.31,.03,.65,.08,1.02,.25,1.65,.48,2.76,.68,3.32,.25,.69,.59,1.03,1.04,1.03,.68,0,1.02-.36,1.02-1.09,0-.32-.08-.83-.24-1.52-.07-.28-.21-.45-.43-.52-.23-.04-.47-.08-.69-.12-.09-.02-.14-.13-.17-.35-.02-.18-.01-.32,0-.45,.07,.04,1.7,.09,4.88,.14-.53,.85-.8,1.85-.8,2.99,0,.21,.01,.36,.04,.46-.13,.15-.44,.34-.93,.57-.72,.34-1.6,.61-2.64,.82-.48,.1-.92,.15-1.31,.15-2.14,0-3.21-1.38-3.21-4.15,0-4.16,1.59-6.25,4.76-6.25,2.7,0,4.21,.79,4.55,2.37,.04,.23,.07,.44,.07,.63,0,.41-.14,.72-.43,.91Zm3.91,5.53c-.87,0-2.09,.14-3.66,.43,.06-.29,.13-.63,.21-1.02,.63-.08,1.04-.23,1.23-.45,.2-.23,.36-.65,.48-1.26,.13-.58,.19-1.15,.19-1.71,0-.59-.25-.89-.75-.89-.16,0-.31,.02-.45,.05-.21-.48-.32-.82-.32-1.02,1.62-.01,3.13-.28,4.54-.8,.02,.01,.02,.05,.02,.1,0,.09-.02,.25-.06,.47-.25,1.4-.38,2.56-.38,3.49,0,.65,.08,1.07,.23,1.26,.09,.13,.23,.19,.4,.19,.2,0,.42-.05,.67-.16,.08-.03,.12,0,.13,.1,.05,.34,.07,.82,.09,1.44-.8-.14-1.66-.22-2.56-.22Zm10.35-3.64c-.32,1.15-.56,2.51-.7,4.11l-.02,.21c0,.1-.05,.15-.13,.14-.92-.18-1.84-.27-2.74-.27h-.34c-1.24-2-2.08-3.71-2.52-5.14-.08,.07-.28,.14-.58,.22-.3,.08-.54,.12-.72,.12-.05,0-.08-.03-.07-.09,.04-.25,.08-.63,.13-1.12,0-.04,.02-.07,.07-.07,0,0,.08,0,.19,0,.12,0,.2,0,.27,0,.88,0,2.19-.22,3.93-.68,0,.12-.01,.3-.01,.52,0,1.94,.49,3.4,1.46,4.39,.83-2.87,1.25-4.68,1.25-5.43,0-.13-.08-.23-.24-.29-.2-.07-.58-.11-1.14-.11,.05-.17,.11-.42,.18-.72,0-.04,.04-.07,.07-.07,1.43,.29,2.82,.55,4.18,.76,.11,.02,.16,.07,.15,.15-.04,.34-.09,.69-.16,1.04-.11-.08-.42-.25-.93-.51-.64,.43-1.16,1.37-1.57,2.81Zm4.8,3.64c-.87,0-2.09,.14-3.66,.43,.06-.29,.13-.63,.2-1.02,.63-.08,1.05-.23,1.24-.45,.19-.23,.35-.65,.48-1.26,.13-.58,.19-1.15,.19-1.71,0-.59-.25-.89-.75-.89-.16,0-.31,.02-.45,.05-.22-.48-.33-.82-.33-1.02,1.62-.01,3.13-.28,4.54-.8,.01,.01,.02,.05,.02,.1,0,.09-.02,.25-.06,.47-.25,1.4-.37,2.56-.37,3.49,0,.65,.08,1.07,.23,1.26,.09,.13,.23,.19,.4,.19,.2,0,.42-.05,.67-.16,.08-.03,.12,0,.13,.1,.05,.34,.07,.82,.08,1.44-.8-.14-1.65-.22-2.56-.22Zm20.81-4.72c-.12,.04-.23,.06-.33,.06-.24,0-.52-.08-.82-.26,.66,1.16,.98,2.42,.98,3.78,0,.33-.03,.65-.07,.97-.18,1.18-.56,2-1.14,2.47-.67,.54-1.82,.81-3.43,.81-1.39,0-2.46-.24-3.19-.73-.44-.3-.71-.65-.85-1.05-.03-.1-.05-.18-.07-.27-.03,.09-.07,.18-.1,.28l-3.64-.68c.4-.65,.6-1.65,.6-3.02v-.54c-.03-.65-.2-.97-.51-.97-.1,0-.23,.04-.39,.13-.66,.33-1.13,1.05-1.4,2.17,0,.38,.19,1.1,.55,2.15-.9-.4-1.8-.6-2.71-.6-.6,0-1.02,.1-1.25,.31l.02-1.39c.12-.05,.28-.09,.47-.09,.28,0,.57,.07,.88,.22-.22-.31-.42-1.08-.59-2.32-.11-.77-.18-1.44-.22-2.04-.02-.31-.21-.5-.57-.56-.12,0-.29-.04-.52-.08-.11-.03-.16-.21-.16-.52,0-.1,0-.18,.03-.24,.07,.04,1.63,.16,4.67,.36-.5,.81-.75,1.87-.75,3.17,.48-1.48,1.35-2.64,2.63-3.47,.35-.22,.66-.34,.92-.34,.47,0,.81,.31,1.03,.94,.19,.51,.28,1.16,.28,1.96,0,.31-.01,.62-.04,.93-.12,1.08-.17,1.91-.17,2.5,0,.55,.05,.93,.16,1.14,.18,.07,.44,.16,.73,.25,0-.04-.01-.09-.01-.12,0-.6,.5-1,1.49-1.2,.42-.08,.83-.12,1.23-.12,.57,0,1.03,.08,1.38,.24,.34,.16,.51,.37,.51,.63,0,.58-.39,1.01-1.17,1.27-.52,.18-.83,.29-.93,.33-.18,.09-.28,.18-.28,.28,0,.15,.31,.22,.94,.22,.78,0,1.44-.14,2-.41,.46-.23,.8-.79,1-1.68,.14-.59,.21-1.23,.21-1.92,0-.16-.01-.29-.03-.37-.13,.31-.45,.55-.96,.73-.46,.16-.96,.25-1.51,.25-.83,0-1.49-.3-1.97-.88-.35-.44-.58-.97-.69-1.62-.09-.56-.13-.96-.13-1.23,0-.52,.13-.89,.38-1.13,.29-.28,.78-.42,1.47-.42,.32,0,.73,.04,1.22,.11,.84,.12,1.48,.36,1.89,.73,.04,.03,.06,.02,.06-.03,0-.12-.08-.47-.23-1.05,.88,.54,1.72,.8,2.52,.8,.32,0,.56-.06,.72-.17l-.13,1.34Zm11.19,4.91c-.41,0-.99-.02-1.73-.08-.75-.05-1.28-.08-1.6-.08-.89,0-1.54,.16-1.96,.46l-.13-1.52c.3-.19,.6-.29,.91-.29,.21,0,.42,.05,.61,.16-.67-1.76-1.01-3.81-1.01-6.13,0-.3-.11-.5-.33-.6-.02-.01-.26-.08-.71-.2-.08-.03-.12-.27-.12-.72s.01-.7,.05-.76c.88,.76,2.17,1.14,3.87,1.14,.18,0,.44,0,.77-.03,.33-.02,.58-.03,.73-.03,1.39,0,2.45,.44,3.18,1.31,.55,.65,.95,1.61,1.22,2.9,.1,.5,.16,.94,.16,1.33,0,2.1-1.31,3.15-3.93,3.15Zm13.24-.28c-.51,0-1.08,.09-1.71,.25-.64,.17-1.13,.36-1.49,.58,.13-.66,.21-1.1,.21-1.32,0-.06-.01-.1-.04-.09-.01,0-.04,.02-.07,.05-.67,.54-1.46,.87-2.38,1-.44,.05-.81,.08-1.11,.08-.91,0-1.55-.19-1.94-.57-.35-.35-.53-.87-.53-1.58,0-.37,.04-.78,.11-1.22,.14-.89,.46-1.61,.95-2.19,.58-.68,1.33-1.02,2.24-1.02,.99,0,1.95,.45,2.89,1.36,0-.19-.05-.48-.17-.83-.12-.39-.27-.7-.42-.94,1.94-.29,3.29-.57,4.03-.85,.08,.25,.11,.5,.11,.75,0,.2-.02,.33-.07,.38-.58,.2-.87,.38-.87,.53h0c0,.14,0,.34,.02,.63,0,.28,.02,.5,.02,.65,0,1.27-.16,2.31-.49,3.14,.26-.16,.57-.25,.93-.25,.19,0,.36,.02,.53,.07l.17,1.62c-.19-.13-.49-.2-.91-.2Zm11.6-4.69c-.53-.17-.84-.26-.93-.25-.15,0-.26,.25-.36,.74-.07,.36-.15,1.05-.24,2.07-.1,1.08-.21,1.82-.33,2.21-.25,.82-.59,1.39-1.03,1.74-.57,.44-1.46,.65-2.66,.65-1.84,0-3.17-.28-3.99-.82-.26-.17-.47-.45-.65-.81-.18-.35-.27-.68-.27-.99,0-.41,.21-.71,.62-.93,.39-.2,.93-.3,1.61-.3s1.3,.13,1.78,.39c.43,.23,.65,.5,.65,.8,0,.6-.42,1.02-1.26,1.26-.07,.02-.37,.08-.91,.18-.29,.06-.43,.13-.43,.21,0,.17,.44,.25,1.31,.25,.66,0,1.12-.07,1.4-.22,.46-.25,.82-.64,1.08-1.17,.19-.38,.28-.71,.28-.97,0-.09-.68-.66-2.02-1.69-1.36-1.06-2.26-1.7-2.7-1.93-.15,0-.6,.2-1.35,.59-.06,.04-.09,.02-.09-.04,0-.17,0-.38,0-.65,0-.26,0-.44,0-.52v-.34c1.96-.32,3.47-.76,4.51-1.31,.09,.17,.26,.44,.46,.81-.2,.05-.53,.11-.99,.17,0,.43,.39,1.01,1.16,1.76,.65,.63,1.21,1.05,1.66,1.28,.22-.32,.5-.86,.84-1.61,.33-.74,.5-1.17,.5-1.31-.83,0-1.43,0-1.79-.02,.05-.25,.16-.65,.32-1.2,1.15,.04,2.44,.47,3.87,1.27l-.06,.69Zm-2.07-24.23c-.35,0-.75,.05-1.19,.15-1.6,.34-3.04,1.34-4.35,3.01-.87,1.13-1.47,2.2-1.81,3.24,.4-.04,.72-.06,.93-.06,2.73,0,5.32,.71,7.78,2.12,2.79,1.58,4.25,3.55,4.37,5.89l-9.85-.05c-.07-.18-.11-.43-.11-.73,0-.39,.1-.61,.29-.67,.78-.22,1.23-.37,1.35-.44,.48-.21,.73-.47,.73-.78,0-.09-.03-.21-.09-.34-.42-1.02-1.31-1.79-2.7-2.31-1.07-.41-2.24-.61-3.51-.61h-.49c0,.46,.33,1.62,.99,3.49,.58,1.66,1.04,2.83,1.38,3.52-1.16-.56-2.53-1.03-4.12-1.43-1.64-.4-3.04-.6-4.21-.6-1.01,0-1.7,.16-2.05,.49l.08-3.19c.29-.11,.64-.16,1.03-.16,.68,0,1.39,.17,2.11,.53-.63-1.76-1.16-4.13-1.58-7.13-.4-2.74-.58-5.17-.58-7.28,0-.05,0-.17,0-.36,0-.19,.01-.34,.01-.48,0-.4-.25-.73-.74-.99-.49-.26-1.08-.41-1.77-.45-.14-.01-.22-.49-.22-1.45,3.74-.19,7.48-.51,11.24-.95-1.56,3.95-2.34,7.81-2.34,11.58,0,.94,.04,1.75,.13,2.42,.45-1.36,1-2.55,1.66-3.56,1.58-2.44,3.57-3.83,5.98-4.19,.64-.09,1.21-.14,1.69-.14,1.53,0,2.77,.36,3.71,1.09,.6,.45,1.14,1.14,1.63,2.06,.27,.53,.41,1.03,.41,1.5,0,1.48-1.13,2.48-3.41,3-.99,.23-1.9,.34-2.73,.34-2.21,0-3.32-.6-3.32-1.81,0-.92,.49-1.73,1.48-2.42,.33-.24,.78-.47,1.33-.69,.75-.29,1.21-.48,1.36-.56,.21-.1,.31-.21,.31-.33,0-.19-.28-.29-.84-.29Z"/>
      <path d="M90.96,70.46c-.39-.25-.99-.48-1.83-.68-.57-.14-1.19-.21-1.85-.21-.11,0-.18,0-.21,0-.09,.39-.14,.83-.14,1.32,0,.99,.13,1.87,.39,2.63,.34,.19,.91,.28,1.72,.28,.86,0,1.52-.15,2.01-.44,.52-.3,.79-.76,.79-1.35,0-.67-.29-1.2-.87-1.57Z"/>
      <path d="M75.07,71.93c-.5-.23-1.01-.35-1.53-.35s-.92,.04-1.26,.14c-.38,.1-.56,.26-.56,.45,0,.23,.28,.46,.83,.69,.55,.22,1.14,.34,1.75,.34,.48,0,.87-.05,1.16-.14,.3-.09,.44-.21,.44-.35,0-.25-.28-.51-.83-.78Z"/>
      <path d="M55.58,56.48c.96,.27,2.11,.41,3.44,.41,1.52,0,2.97-.36,4.39-1.09,1.34-.7,2-1.37,2-2.03,0-.38-.38-.7-1.14-.95-.81-.27-1.86-.41-3.15-.41-1.7,0-3.32,.31-4.89,.95-1.52,.63-2.28,1.26-2.28,1.9,0,.5,.54,.91,1.62,1.22Z"/>
      <path d="M59.96,31.51c.34,.1,.74,.14,1.2,.14,.52,0,1.03-.12,1.52-.38,.47-.24,.7-.47,.7-.7,0-.13-.13-.24-.4-.33-.28-.1-.65-.14-1.09-.14-.59,0-1.16,.11-1.7,.33-.53,.22-.79,.44-.79,.66,0,.18,.18,.32,.56,.43Z"/>
      <path d="M76.07,31.13c.26,.09,.62,.14,1.08,.14,.56,0,1.09-.1,1.61-.31,.52-.21,.77-.42,.77-.63,0-.16-.15-.28-.46-.37-.32-.1-.75-.15-1.29-.15-.44,0-.9,.12-1.35,.35-.46,.24-.69,.46-.69,.66,0,.12,.11,.22,.33,.3Z"/>
      <path d="M68.64,31.13c.26,.09,.61,.14,1.08,.14,.56,0,1.09-.1,1.61-.31,.51-.21,.77-.42,.77-.63,0-.16-.15-.28-.46-.37-.32-.1-.75-.15-1.29-.15-.45,0-.9,.12-1.35,.35-.46,.24-.69,.46-.69,.66,0,.12,.11,.22,.33,.3Z"/>
      <path d="M99.63,72.43c-.35-.12-.81-.18-1.37-.18-.74,0-1.45,.13-2.14,.41-.66,.27-.99,.55-.99,.83,0,.22,.24,.4,.7,.53,.42,.12,.92,.18,1.5,.18,.66,0,1.3-.16,1.91-.47,.58-.31,.87-.6,.87-.88,0-.17-.17-.31-.5-.42Z"/>
      <path d="M69.25,76.74c0,.11,.03,.23,.06,.36,.04-.11,.08-.22,.12-.3-.07-.02-.12-.04-.18-.06Z"/>
    </g>
  </g>
</svg>