<?xml version="1.0" encoding="UTF-8"?>
<svg id="_图层_2" data-name="图层 2" xmlns="http://www.w3.org/2000/svg" viewBox="0 0 109.32 106.49">
  <g id="_图层_2-2" data-name=" 图层 2">
    <path d="M108.59,66.03c-1.74-1.93-3.83-3.31-6.14-4.73-.47-.62-1.34-.97-1.97-1.36-.63-.39-1.3-.61-1.8-1.06-.58-.64,.33-1.08,.76-1.43,1.03-1.02,1.94-2.07,3.3-2.95,.07-.07,.11-.14,.16-.22,.07-.04,.15-.11,.2-.24-.09,.02-.15,.05-.21,.07-1.02,.32-2.21,.27-3.35,.45-.24,.04-.5,.16-.86,.18-1.06-.03-2.01,.04-3.05-.08-.68-.13-1.33,.17-2-.05-.44-.17-.24-.57,.04-.78,.55-.42,1.08-.66,1.52-1.1,.26-.12,.52-.25,.67-.39,1-.86,1.75-1.67,2.63-2.55,.2-.24,.26-.54,.31-.82,.04,.12,.11,.08,.07-.47-.99,.2-2.09-.19-3.05-.12-1.32,.09-2.5,.12-3.82,.21-.37,.1-.75,.2-1.22,.2-.36,.02-.7-.05-.94-.01-.99,.24-1.95,.31-2.94,.56-2.59,.54-5.18,.55-7.79,1.18-.24,.04-.41,.27-.52,.25-1.64-.06-2.99,.2-4.37,.63-.13,.06-.34-.07-.47,0-.26,.12-.6,.06-.84,.1-.76,.29-1.51,.49-2.34,.5-.24,.04-.39,.19-.63,.23-.84,.18-1.73,.01-2.57,.17,.33-.15,.66-.32,1.04-.57,.96-.63,1.62-1.64,2.58-2.27,.26-.19,.53-.19,.79-.38,.77-.76,1.64-1.26,2.61-1.71,.26-.19,.51-.57,.86-.69,.18-.06,.25-.38,.43-.44,1.66-.89,3.13-1.9,4.58-3.47,.08-.12,.45-.07,.71-.25,2.96-1.83,5.35-4.22,8.21-6.12,1.13-.7,2.08-1.51,3.21-2.21,.26-.19,.51-.57,.85-.88,.43-.44,.86-.69,1.3-.95,1.29-1.13,2.4-2.2,3.69-3.34,.94-.82,1.59-2.2,2.68-2.92-.47-.54-.56-.51-.5-.36-.3-.22-.64-.43-1.04-.47-1.62,.01-3.06-.04-4.76,.1-.27,0-.62,.13-.98,.26-.81,0-1.52,.26-2.41,.39-.45,.07-1-.12-.76-.68,.4-.82,1.29-1.13,1.78-1.89,.84-1.07,1.79-1.89,2.72-2.89,.34-.31,.7-.44,.95-.63,1.21-.89,2.26-2.04,3.49-2.69,.07-.03,.16-.07,.26-.13-.17-.07-.31-.06-.41-.03-.11-.02-.22-.05-.34-.05-2.05,.45-3.85,.34-5.74,.35-.72,.07-1.95,.51-2.01-.61,.04-.87,.45-1.69,.66-2.63,.22-.94,.7-2.07,.55-3.06,.8-3.44,1.43-6.63,1.24-10-.02-.34,.16-.68,.16-1.04,0-.04,.02-.08,.02-.12-.4,.11-.65,.49-1,.62-3.18,1.15-5.87,2.98-8.72,5.06-.98,.26-1.83,1.14-2.61,1.7-.78,.57-1.37,1.26-2.16,1.64-1.06,.38-1.13-.93-1.35-1.61-.73-1.74-1.54-3.36-1.92-5.42-.05-.12-.11-.21-.18-.3,0-.11-.06-.24-.19-.36-.01,.11-.02,.21-.02,.29-.11,1.39-.77,2.8-1.11,4.26-.07,.31-.05,.69-.21,1.13-.56,1.25-.94,2.44-1.6,3.63-.5,.75-.45,1.69-1.04,2.38-.43,.44-.81,0-.92-.43-.23-.87-.27-1.62-.58-2.37-.02-.37-.04-.75-.14-1-.54-1.62-1.15-2.93-1.78-4.42-.19-.35-.52-.58-.84-.78,.16,0,.15-.09-.53-.31-.24,1.29-1.26,2.42-1.64,3.61-.54,1.63-1.09,3.07-1.63,4.7-.06,.5-.12,1-.36,1.56-.16,.44-.4,.81-.48,1.13-.2,1.31-.58,2.5-.78,3.82-.62,3.38-1.89,6.51-2.42,9.95-.07,.31,.12,.62,.04,.75-.88,1.94-1.24,3.69-1.4,5.57,.01,.19-.25,.38-.24,.56,.02,.37-.23,.75-.3,1.06-.03,1.06-.16,2.06-.55,3.06-.07,.31,.03,.56-.04,.87,0,.03-.01,.06-.02,.09-.54-.93-.81-1.89-1-2.93-.12-.3-.42-.63-.46-1.01-.02-.19-.3-.34-.32-.52-.45-1.83-1.06-3.51-2.22-5.3-.1-.11,.05-.45-.07-.75-1.04-3.32-2.76-6.23-3.88-9.47-.39-1.27-.95-2.39-1.34-3.66-.12-.3-.42-.63-.64-1.04-.32-.52-.46-1.01-.59-1.49-.78-1.53-1.54-2.87-2.31-4.4-.56-1.12-1.73-2.08-2.16-3.32-.64,.33-.64,.42-.47,.39-.29,.24-.58,.51-.72,.89-.39,1.57-.8,2.96-1.09,4.64-.07,.26-.03,.64,0,1.01-.2,.79-.13,1.53-.22,2.43-.05,.45-.36,.94-.85,.56-.69-.59-.78-1.53-1.38-2.2-.82-1.08-1.38-2.2-2.12-3.35-.22-.41-.26-.78-.37-1.08-.55-1.4-1.42-2.69-1.74-4.05,0-.08-.03-.17-.06-.28-.11,.14-.14,.28-.13,.39-.05,.1-.1,.2-.13,.32-.07,2.09-.63,3.81-1.09,5.65-.11,.71,.01,2.02-1.09,1.8-.84-.26-1.53-.85-2.38-1.3-.86-.44-1.83-1.19-2.83-1.3-2.81-1.46-5.47-2.71-8.37-3.43,.36,2.97,1.28,5.76,2.38,8.73-.02,1.01,.6,2.07,.94,2.97,.34,.9,.84,1.66,1,2.52,.08,1.12-1.2,.84-1.92,.86-1.88,.23-3.65,.57-5.74,.39-.12,.01-.23,.06-.33,.09-.1-.02-.24,0-.4,.08,.11,.04,.2,.07,.27,.09,1.3,.48,2.48,1.5,3.8,2.22,.28,.15,.65,.24,1.03,.5,1.06,.88,2.1,1.57,3.07,2.52,.59,.68,1.51,.89,2.01,1.64,.31,.53-.21,.78-.66,.77-.9-.02-1.64-.18-2.44-.08-.37-.08-.73-.16-1-.13-1.71,.08-3.13,.32-4.74,.51-.39,.09-.7,.34-.97,.6,.05-.16-.04-.17-.45,.42,1.18,.58,1.99,1.86,3.03,2.56,1.42,.96,2.66,1.88,4.08,2.84,.46,.19,.93,.39,1.41,.77,.38,.27,.68,.61,.96,.76,1.21,.54,2.25,1.24,3.46,1.78,3.08,1.51,5.76,3.58,8.93,5.02,.28,.15,.63,.05,.73,.16,1.63,1.37,3.22,2.19,4.98,2.85,.18,.04,.3,.34,.48,.38,.37,.08,.66,.42,.94,.58,1.01,.32,1.93,.7,2.79,1.35-.03,0-.06,0-.09,0-.32,.03-.55-.1-.87-.07-1.04,.27-2.05,.27-3.11,.17-.32,.03-.72,.23-1.09,.17-.18-.03-.4,.2-.59,.17-1.88-.07-3.66,.07-5.7,.71-.13,.07-.42-.17-.74-.13-3.48,.1-6.74,.98-10.17,1.18-1.33,.03-2.56,.27-3.88,.3-.32,.03-.72,.23-1.18,.34-.59,.17-1.09,.17-1.6,.17-1.68,.34-3.18,.71-4.86,1.04-1.23,.23-2.48,1.11-3.78,1.19,.14,.7,.23,.73,.25,.56,.15,.34,.34,.7,.67,.93,1.41,.8,2.63,1.57,4.17,2.3,.23,.13,.6,.2,.97,.27,.7,.4,1.44,.53,2.28,.87,.42,.17,.8,.6,.31,.97-.76,.5-1.68,.34-2.49,.74-1.26,.5-2.49,.74-3.8,1.14-.45,.1-.82,.03-1.14,.07-1.49,.16-2.98,.64-4.36,.58-.08-.01-.17-.02-.29-.02,.11,.14,.23,.21,.34,.23,.08,.08,.16,.15,.27,.22,2,.63,3.5,1.64,5.14,2.57,.65,.3,1.95,.53,1.44,1.54-.47,.74-1.23,1.24-1.89,1.94-.66,.7-1.64,1.44-2.01,2.38-2.42,2.58-4.56,5.02-6.09,8.03-.17,.33-.57,.54-.74,.92,.04,0,.08,0,.12,0,.36,.04,.72-.09,1.06-.03,3.32,.6,6.57,.36,10.08,0,.97,.27,2.15-.07,3.11-.17,.96-.1,1.82-.4,2.69-.34,1.11,.2,.51,1.37,.36,2.07-.24,1.87-.36,3.68-1.05,5.65-.02,.13,0,.24,0,.35-.05,.1-.07,.23-.02,.41,.07-.09,.12-.17,.16-.24,.79-1.14,2.07-2.03,3.1-3.13,.22-.23,.39-.57,.74-.87,1.11-.8,2.04-1.64,3.2-2.34,.81-.4,1.23-1.24,2.09-1.54,.59-.17,.7,.4,.58,.84-.24,.87-.58,1.54-.68,2.34-.17,.33-.34,.67-.37,.94-.35,1.67-.47,3.11-.68,4.72-.01,.4,.16,.76,.34,1.09-.14-.09-.18,0,.3,.54,.85-.99,2.3-1.46,3.23-2.3,1.28-1.14,2.48-2.11,3.76-3.25,.3-.4,.61-.8,1.1-1.17,.35-.3,.76-.5,.98-.74,.83-1.04,1.76-1.88,2.59-2.91,2.23-2.61,4.9-4.69,7.08-7.4,.22-.23,.2-.6,.34-.67,1.74-1.24,2.92-2.58,4-4.12,.08-.17,.4-.2,.49-.37,.17-.33,.57-.54,.79-.77,.56-.9,1.17-1.71,2.01-2.38,.22-.23,.25-.5,.47-.74,.74-.87,1.82-1.41,2.57-2.28,.29-.35,.5-.66,.69-.96-.26,.82-.21,1.71-.48,2.53-.07,.24-.23,.37-.3,.6-.11,.82-.41,1.54-.78,2.26-.07,.24-.04,.58-.2,.83-.08,.12,.03,.35-.05,.47-.59,1.32-1.02,2.63-1.16,4.26,0,.12-.24,.25-.31,.49-.94,2.51-1.27,5.08-2.12,7.58-.36,.95-.55,1.9-.92,2.85-.07,.24-.04,.58-.1,.94-.05,.47-.2,.83-.35,1.19-.25,1.29-.42,2.47-.68,3.76-.19,.94,.07,2.08-.26,3.04,.54,.1,.58,.05,.47-.01,.29,0,.59-.04,.86-.2,.98-.77,1.88-1.41,2.86-2.3,.16-.13,.32-.37,.47-.61,.49-.38,.8-.87,1.28-1.37,.24-.25,.66-.4,.78,.06,.14,.69-.25,1.29-.2,1.99-.01,1.04-.2,1.99-.3,3.04-.06,.35-.22,.6-.29,.83-.32,1.11-.41,2.3-.86,3.27-.03,.05-.06,.12-.1,.2,.13-.04,.22-.11,.26-.17,.08-.04,.16-.07,.23-.13,1.03-1.24,2.18-2.02,3.33-2.91,.4-.38,.95-1.23,1.51-.57,.39,.55,.52,1.24,.83,1.91,.31,.67,.55,1.58,1.11,2.12,1.13,2.47,2.24,4.71,3.94,6.68,.19,.22,.21,.56,.44,.79,.19-.26,.16-.6,.32-.85,.19-.3,.35-.62,.52-.93,1.06-1.93,1.76-4,2.41-6.24,.47-.61,.58-1.55,.79-2.26,.21-.71,.24-1.41,.54-2.01,.46-.73,1.12,.03,1.58,.35,1.26,.72,2.51,1.33,3.72,2.4,.08,.05,.17,.07,.25,.1,.05,.06,.15,.12,.28,.13-.05-.08-.09-.13-.12-.18-.58-.9-.84-2.06-1.33-3.12-.1-.22-.29-.44-.4-.78-.25-1.03-.57-1.93-.73-2.96-.05-.69-.52-1.24-.49-1.94,.05-.47,.49-.38,.77-.17,.55,.42,.93,.86,1.47,1.17,.19,.22,.38,.44,.56,.54,1.09,.73,2.08,1.24,3.16,1.86,.28,.13,.59,.11,.88,.08-.1,.07-.05,.13,.47-.06-.46-.9-.37-2.06-.7-2.97-.44-1.24-.78-2.38-1.21-3.63-.2-.33-.39-.67-.51-1.12-.11-.34-.14-.69-.24-.91-.5-.89-.82-1.8-1.32-2.69-1.21-2.35-1.91-4.85-3.2-7.19-.1-.22-.37-.32-.38-.44-.07-.28-.14-.54-.22-.8l15.21,18.35,4.24-3.75-16.34-17.35c.24,.11,.5,.21,.76,.31,.11,.02,.18,.3,.39,.43,2.17,1.57,4.56,2.57,6.75,4.06,.82,.6,1.68,1.04,2.51,1.64,.21,.13,.55,.2,.87,.35,.44,.17,.74,.41,1.05,.65,1.18,.59,2.27,1.06,3.45,1.65,.86,.43,2.03,.49,2.86,1.06,.24-.49,.2-.55,.11-.46,.07-.28,.12-.58,.03-.88-.48-1.15-.86-2.19-1.46-3.36-.08-.19-.27-.41-.47-.62-.24-.57-.63-1-.98-1.6-.18-.3-.21-.74,.26-.74,.7,.05,1.18,.59,1.86,.72,1.01,.29,1.86,.72,2.85,1.09,.32,.15,.52,.37,.73,.5,.98,.61,2.11,1.01,2.93,1.7,.04,.04,.09,.09,.16,.15,0-.14-.04-.24-.1-.3-.01-.08-.03-.17-.06-.26-.92-1.32-1.36-2.64-1.92-3.98-.26-.49-.93-1.24-.15-1.61,.63-.23,1.33-.18,2.06-.29,.73-.12,1.67-.11,2.34-.5,2.31-.37,4.44-.81,6.49-1.63,.33-.13,.66-.25,.99-.4,.26-.12,.6-.06,.88-.21-.2-.25-.54-.32-.73-.53Z"/>
  </g>
</svg>