<?xml version="1.0" encoding="UTF-8"?>
<svg id="_图层_2" data-name="图层 2" xmlns="http://www.w3.org/2000/svg" viewBox="0 0 70.33 105.43">
  <g id="_图层_2-2" data-name=" 图层 2">
    <path d="M41.83,93.47c2.76,4.43,5.87,8.47,9.74,11.62,.24,.19,.52,.3,.8,.34,.51,.06,1.03-.14,1.38-.56,.54-.66,.44-1.64-.22-2.18-3.57-2.9-6.45-6.29-8.82-9.96,6.26-3.83,28.16-18.09,25.38-28.57-3.23-12.21-13.99-3.66-13.99-3.66C56.1,60.49,73.07-.09,42.44,0,11.81,.09,21.05,56.47,21.05,56.47c0,0-12.61-17.91-19.94-5.63-7.17,12.03,22.14,39.03,40.72,42.63Z"/>
  </g>
</svg>