<?xml version="1.0" encoding="UTF-8"?>
<svg id="_图层_2" data-name="图层 2" xmlns="http://www.w3.org/2000/svg" viewBox="0 0 75.74 112.66">
  <g id="_图层_2-2" data-name=" 图层 2">
    <path d="M62.57,65.44c-3.34,7.13-6.58,18.94-7.32,21.71-1.29,.98-2.66,1.85-4.15,2.58-3.32-6.54-6.8-14.28-9.85-23,3.05-1.82,5.62-4.19,7.8-6.8,4.13-2.81,13.36-10.05,16.18-20.48,3.68-13.57-7.35-20.29-13.19-6.97-4.66,10.63-5.1,22.5-5.1,26.91-1.83,2.09-3.9,3.98-6.31,5.47-2.71-8.04-4.98-16.81-6.4-26.09,2.53-4.08,10.1-17.76,5.62-29.59-5.33-14.06-18.67-11.39-16.97,4.12,1.38,12.6,7.08,22.13,9.45,25.44,1.13,7.47,2.76,14.66,4.78,21.38-1.65-1.03-4.49-2.92-8.03-5.7-1.19-3.85-5.53-16.31-13.95-23.34-10.02-8.37-21.43-3.93-11.03,10.52,8.18,11.38,19.08,13.54,23.4,13.95,5.79,4.58,10.16,7.11,10.24,7.15,.07,.04,.15,.04,.23,.06,2.46,7.73,5.3,14.83,8.18,21.09-2.44-.16-4.87-.63-7.25-1.23-2.76-2.87-8.97-8.82-17.05-13.38-11.03-6.21-18,7.99-3.04,13.82,12.07,4.71,18.7,2.66,20.84,1.69,2.22,.5,4.47,.9,6.75,1.03,.02,0,.04,0,.05,0,.23,0,.26-.27,.42-.4,7.71,16.35,15.32,26.69,15.49,26.9,.19,.25,.47,.37,.75,.37,.2,0,.4-.06,.57-.19,.42-.31,.5-.9,.19-1.32-.14-.18-5.61-7.62-11.92-19.75,2.68-1.33,5.05-3.04,7.1-4.95,5.24-2.39,14.04-7.96,16.19-15.94,3.04-11.28-8.88-13.19-12.68-5.07Z"/>
  </g>
</svg>