<?xml version="1.0" encoding="UTF-8"?>
<svg id="_图层_2" data-name="图层 2" xmlns="http://www.w3.org/2000/svg" viewBox="0 0 86.25 91.55">
  <g id="_图层_2-2" data-name=" 图层 2">
    <path d="M39.2,16.86c.74-2.49,1.31-3.8,1.49-5.17,.19-1.44-.02-2.93,0-4.4,.1-6.92,4.23-9.18,10.19-5.64,8.01,4.75,13.12,16.79,8.56,27.38-.48,1.11-.74,2.32-1.11,3.48,.32,.17,.63,.35,.95,.52,.94-1.15,2.19-2.17,2.77-3.48,1.86-4.14,5-5.93,9.37-5.49,4.65,.47,8.37,2.71,9.4,7.43,.79,3.63,1.34,7.66,.57,11.2-1.07,4.93-3.5,9.56-5.31,14.33-.4,1.06-.66,2.17-1.11,3.68,1.27-.07,1.98,0,2.64-.15,6.81-1.47,9.94,1.37,8.11,7.97-.88,3.17-2.72,6.21-4.68,8.9-1.89,2.6-3.17,5.07-2.91,8.39,.13,1.7-.53,3.45-.92,5.73-1.14-.89-1.63-1.08-1.66-1.32-.55-5.95-4.43-7.63-9.67-7.69-2.45-.02-4.95,.13-7.32-.34-1.88-.38-3.59-1.59-5.38-2.44,.86-1.73,1.65-3.5,2.61-5.17,.34-.6,1.05-.98,1.69-1.54-1.55-2.66-3.96-3.29-6.6-3.13-3.29,.2-6.59,.99-9.86,.87-3.45-.13-7-.62-10.27-1.69-3.04-1-4.86-3.94-4.03-7.02,.66-2.44,2.53-4.81,4.47-6.55,1.62-1.46,4.1-1.95,6.21-2.87,0-.33-.02-.67-.03-1-3.01-.24-6.01-.54-9.03-.69-4.39-.22-8.8-.09-13.16-.57-2.94-.33-5.48-1.71-6.92-4.76-3.27-6.96-.26-12.39,7.43-12.77,3.06-.15,6.14,.23,9.21,.37,.12-.32,.24-.63,.35-.95-.87-.64-1.66-1.41-2.61-1.91-4.43-2.33-9.27-4.07-13.23-7.01-3.3-2.44-6.25-5.9-8.18-9.54C-2.16,7.4,1.72,1.08,9.03,.4c8.42-.79,15.14,3.09,21.23,8.34,2.75,2.37,5.38,4.89,8.93,8.13Zm36.55,60.48c.4,.1,.79,.2,1.19,.29,1.6-2.55,3.46-4.98,4.69-7.69,.73-1.6,1.02-3.89,.4-5.41-.3-.74-3.19-.74-4.84-.56-3.89,.45-5.68-1.1-4.98-4.96,.3-1.64,1.27-3.15,1.79-4.77,1.83-5.67,4.09-11.25,5.23-17.06,.92-4.68-2.11-7.84-7.3-9.53-4.33-1.41-5.86,1.65-7.6,4.55-.69,1.14-1.44,2.52-2.52,3.07-1.48,.74-4.05,1.61-4.82,.92-1.16-1.03-1.27-3.34-1.59-5.15-.11-.61,.54-1.33,.79-2.02,2.54-6.88,.36-18.22-4.7-22.56-1.62-1.39-4.01-1.89-6.04-2.79-.4,1.92-.82,3.84-1.2,5.77-.07,.35,.02,.73,.02,1.1,0,3.41-.35,6.94-3.74,8.57-3.49,1.68-5.51-1.61-7.88-3.35-4.32-3.19-8.28-7.08-13.01-9.44-3.36-1.68-7.74-1.83-11.65-1.74-2.81,.07-4.48,2.64-3.93,5.58,.34,1.83,1.3,3.7,2.44,5.21,4.14,5.51,10.47,7.85,16.32,10.89,1.8,.93,3.82,1.99,4.92,3.56,.87,1.24,1.03,3.55,.5,5.01-.36,1-2.45,1.84-3.8,1.9-2.66,.13-5.36-.62-8.02-.47-2.47,.14-5.39,.31-5.75,3.85-.3,2.9,1.98,5.95,5.26,6.44,3.37,.5,6.82,.4,10.22,.73,4.34,.43,8.7,.82,12.97,1.68,1.16,.23,2.88,2.22,2.75,3.18-.2,1.39-1.65,2.87-2.94,3.76-1.24,.86-3.03,.89-4.47,1.53-2.37,1.05-5.44,2.45-4.39,5.35,.68,1.88,3.64,2.99,5.68,4.28,.52,.33,1.45,.11,2.17,.02,2.67-.33,5.33-.78,8.01-1.05,4.16-.42,8.31-.83,11.99,1.96,4.92,3.73,4.56,6.68,.33,9.07-.44,.25-.68,.83-1.54,1.9h15.17c.06-.23,.13-.45,.19-.68-2.23-.9-4.46-1.8-6.69-2.7,0-.33-.01-.66-.02-.99,1.37-.66,2.74-1.33,4.68-2.27-2.75-3.54-4.89-7.66-8.23-10.21-3.33-2.54-7.86-3.49-12.97-5.59,1.88-.78,3.09-1.6,4.36-1.71,1.43-.13,2.92,.39,4.99,.72-3.98-6.29-7.46-11.81-15.13-12.47-3.26-.28-6.48-1.22-9.68-2.02-.81-.2-1.47-1.01-2.21-1.54,.69-.74,1.27-1.85,2.11-2.12,1.09-.35,2.42-.14,3.61,.04,2.26,.35,4.5,.86,6.75,1.3l.68-.97c-7.96-6.83-15.92-13.67-23.88-20.5,.17-.44,.35-.87,.52-1.31,1.74,.58,3.81,.74,5.16,1.81,5.92,4.72,11.64,9.7,17.42,14.6,.95,.81,1.83,1.7,3.11,2.9,.49-5.07,.91-9.41,1.33-13.75,.56-.07,1.13-.13,1.69-.2,.46,1.18,1.3,2.35,1.31,3.53,.04,4.03-.21,8.07-.34,12.1-.03,.84-.41,1.96-.01,2.47,3.61,4.62,7.37,9.12,11.47,14.14,1.52-8.29,2.46-10,6.46-10.71-3.83,10.38-3.58,19.93,4.94,27.48,.89-.33,2.04-.75,3.18-1.17-.14,1.43-.27,2.85-.43,4.28-.15,1.3-.33,2.59-.49,3.88Z"/>
  </g>
</svg>