<?xml version="1.0" encoding="UTF-8"?>
<svg id="_图层_2" data-name="图层 2" xmlns="http://www.w3.org/2000/svg" viewBox="0 0 65.25 97.82">
  <g id="_图层_2-2" data-name=" 图层 2">
    <path d="M52.05,56.12S67.8-.09,39.38,0C10.96,.09,19.53,52.4,19.53,52.4c0,0-11.7-16.62-18.5-5.22-6.66,11.16,20.54,36.21,37.78,39.55,2.56,4.11,5.45,7.86,9.03,10.78,.22,.18,.48,.28,.74,.31,.47,.05,.96-.13,1.28-.52,.5-.62,.41-1.52-.21-2.02-3.31-2.69-5.98-5.84-8.18-9.24,5.81-3.55,26.12-16.78,23.55-26.51-3-11.33-12.98-3.4-12.98-3.4Zm-12.56,26.46c-11.65-22.13-5.1-52.72-5.02-53.1,.17-.78-.31-1.55-1.09-1.72-.77-.19-1.55,.31-1.72,1.09-.11,.48-2.61,11.87-1.93,26.07,.5,10.41,2.76,19.39,6.38,26.98-11.69-5.38-27.72-19.17-24.1-25.05,3.89-6.31,13.93,8.93,13.93,8.93,0,0-7.55-48.3,9.73-49.77,17.27-1.47,3.92,51.05,3.92,51.05,0,0,9.86-7.06,15.52-1.24,4.98,5.13-11.6,14.58-15.62,16.76Z"/>
  </g>
</svg>