<?xml version="1.0" encoding="UTF-8"?>
<svg id="_图层_2" data-name="图层 2" xmlns="http://www.w3.org/2000/svg" viewBox="0 0 120.9 118.6">
  <g id="_图层_2-2" data-name=" 图层 2">
    <path d="M40.86,105.44c.55,0,3.31-1.93,6.07,1.38-1.38,3.31-2.21,5.52,1.93,.28,1.66-2.21,3.59-3.59,5.8-4.69,.55-.28,.55-.83,.55-1.38s.28-1.38,.55-1.93c.83-2.21,2.21-2.48,3.31-.55,1.66,2.76,5.52,4.14,5.8,7.73,.28,1.1,.28,5.8,1.66,.28,.55-2.48,1.38-5.24,1.93-7.73,.55-3.04,.55-6.35,0-9.38-.28-1.1-.28-2.21,.28-3.04,3.86,7.73,8.28,14.9,12.42,24.29,1.93,4.14,6.62,11.32,5.52,6.07-1.1-4.97-4.42-10.76-7.45-15.46-3.04-6.35-6.07-10.76-8.83-15.46,.83,0,1.93,.28,2.76,.83,.83,.83,1.66,1.1,2.48,1.1,2.48,.55,4.14,0,6.62,1.1,2.76,1.1,6.62,1.66,9.38,1.1,4.14-.55,3.04-1.1,.55-1.93-1.66-1.93-3.86-3.59-5.52-5.8-1.1-1.66-1.1-3.04-.83-4.69,.28-1.66,1.66-1.38,2.76-1.66,1.66-.28,3.59-.28,5.52,0,4.42,.55,5.8,.55,2.48-1.93,0-1.1,1.1-1.1,1.66-1.1,1.38-.28,2.76-.83,4.14-1.38,4.14-1.1,3.59-1.38,.83-1.93-1.38-.28-.55-2.48,1.1-3.31,3.31-1.38,5.52-4.14,9.38-4.69,.83-.28,7.18-2.21,7.18-3.59,0-.83-5.52,1.1-6.9,1.1h-.83c-2.76,0-7.45,.55-10.21,.83-3.31,.55-4.69,.28-8,1.1-.28-.55-4.14-.55-3.04-1.66,5.24-3.86,.83-2.21-5.24-.28-.55,.28-1.1,.83-1.66,1.1-1.1,.55-2.21,.28-3.04-.55-.83-.83-1.1-2.21-.28-3.04,.83-1.38,1.1-2.76,1.38-4.42,0-.83-.83-1.1-.28-1.66,1.66-1.66,2.21-2.48,3.31-2.76,1.38-.28,1.38-1.1,2.48-2.21,.55-.55,4.69-1.38,4.42-2.48-.28-1.1-3.04,.28-3.59,0h-1.93c-.83-.28-1.1-.55-1.38-1.38,0-1.93,.28-3.59,1.1-5.52,3.04-6.9,3.86-9.11-.28-5.24-.55,.55-1.38-.28-1.38-.83-1.38-3.04-1.93-7.73-.55-11.32,0-1.93,1.1-3.86,1.1-5.52,0-1.1,3.04-13.25,1.38-13.25-1.1,0-2.48,8.28-4.69,12.97-.28,.55-.55,.83-.55,1.38-1.1,3.86-2.76,5.52-3.59,8.83-.28,.55-1.93,1.1-2.48,1.38-3.86-3.04-3.04-2.76-2.48,1.93,.28,1.93-2.21,4.69-3.59,4.14-1.93-.83-6.07-6.35-2.76,1.93,2.21,6.35,0,6.35-1.1,4.97-1.66-1.66,1.38,8.28,.55,10.21-.55,1.1-.55,2.48-2.21,2.48-1.93,0-3.86,0-4.69-2.21-.83-2.48-1.38-4.42-2.21-7.45-.55-1.38,1.38-6.35,.28-6.9-1.1-.55-2.21,3.59-3.04,4.42-.83,.83-1.93,1.93-3.04,1.1s-2.48-1.66-2.21-3.59c-2.48-2.76,1.1-7.73,0-9.94-.55-.83-2.21,1.1-3.04,1.38-.83,.55-1.93,0-2.76,.28-1.66,.55-3.31,.55-4.69-.55-2.21-1.93-4.97-3.31-7.18-6.35-.28-.55-.83-.83-1.38-1.38-2.76-1.93-5.52-4.42-8.28-6.62-.55-.28-8.28-8-8.56-7.45-.55,.55,6.62,8.83,6.9,9.38,.83,.83,1.1,1.93,1.66,3.04,2.21,3.31,3.04,7.45,5.8,10.49,.83,1.1,1.1,3.04,1.1,4.69-.28,1.38-1.66,1.38-2.76,1.38-5.52-.28-5.52,.83-.83,2.21,2.48,.83,3.31,4.14,5.8,5.52,1.1,.83,1.1,1.93,1.1,3.31s-1.1,1.1-1.93,1.38c-.55,0-4.42,0-4.42,.83-.28,.83,3.31,1.38,3.86,1.93,.55,.55,1.1,.83,1.93,1.38,2.76,1.93,4.42,5.24,8.28,6.07,1.93,.55,2.76,3.86,2.21,6.35-.55,1.93-2.21,1.38-3.31,1.1-1.66-.55-3.31-.83-4.69-2.48-3.04-3.31-4.42-5.52-4.14-1.66,.28,1.93-2.76,1.1-4.14,0-6.35-3.31-6.35-2.76-3.04,1.1,.55,.55-.28,1.66-.83,1.66-1.66,0-3.31,1.1-4.97,1.38-3.59,.83-7.45,.28-11.04,.55-.55,0-6.07-1.1-6.35-.28-.28,.55,4.69,2.21,5.52,2.76,2.21,1.66,4.14,3.04,6.9,4.14,1.93,.83,7.45,3.31,5.24,4.14-5.24,2.21-1.38,2.48,4.42,3.31,1.1,.28,2.21,0,3.59,.28,1.38,.28,2.21,.55,1.1,2.21-.83,1.1-5.52,1.93-4.14,3.04,.83,.83,6.62,1.1,7.45,.55,1.1-.55,2.21-.83,3.59-1.1,2.48-.28,4.97-1.1,7.45-2.48,1.66-.83,3.31-1.38,5.52-1.1,1.93,.28,3.31,1.38,3.59,3.31,.28,1.66-.83,2.76-2.21,3.86-3.59,2.48-7.73,2.76-11.59,4.14-.83,.28-3.31,0-3.31,1.1s2.48,.83,3.04,1.1c2.48,1.1,4.14,4.42,1.1,7.45-2.76,2.21-5.52,4.69-8.28,7.45-.55,.28-4.69,3.04-4.42,3.59,.28,.55,4.69-1.66,5.52-1.93,3.59-1.1,7.45-2.76,10.76-4.69Z"/>
  </g>
</svg>