<?xml version="1.0" encoding="UTF-8"?>
<svg id="_图层_2" data-name="图层 2" xmlns="http://www.w3.org/2000/svg" viewBox="0 0 117.44 136.26">
  <defs>
    <style>
      .cls-1 {
        fill-rule: evenodd;
      }
    </style>
  </defs>
  <g id="_图层_2-2" data-name=" 图层 2">
    <g>
      <path class="cls-1" d="M117.44,81.74l-.05-1.06-21.52-7.33c2.2-3.28,5.31-6.47,8.03-10.55,2.69-4.03,4.96-7.76,7.55-11.62l-7.1-.07-1.16-1.67,7.07-18.03c-4.43,.1-10.4,4.19-13.78,4.19-3.05,0-1.66-4.13-4.19-5.99-.86,3.21-10.3,10.78-14.38,10.78h-.6c-1.38,0-1.8-.42-1.8-1.8l-.24-8.42,1.44-11.35c-1.93,.45-5.79,2.4-6.59,2.4-1.38,0-1.8-.42-1.8-1.8l-.02-7.28-3.33,.58L59.29,0h-1.14l-5.44,12.93-3.57-.69v7.19c0,.98-.36,1.8-1.2,1.8-1.98,0-4.6-1.79-7.19-2.4l1.2,11.38v10.19h-2.4c-4.08,0-13.52-7.57-14.38-10.78-2.11,1.55-1.78,5.99-3.59,5.99-4.34,0-9.55-3.79-14.82-4.01l7.68,18.9-8.57,.78,15.03,21.91,.54-.19-.24,.62-.29-.43L0,80.54l.18,.94,14.8,11.04v4.19c2.04,1.08,4.04,1.8,7.19,1.8h13.18v3c0,2.8-1.8,3.42-1.8,5.39,0,.98,.36,1.8,1.2,1.8,8.4,0,16.17-9.57,21.57-13.18l1.8-2.4-.33-3.99-19.72,16.36-.57-.68,17.62-15.29c-6.26,0-13.29-.98-19.15-1.22-9.83-.4-9,4.22-16.2,4.82l.23-.72,8.72-4.45-13.15-2.02v-1.09s10.29,1,10.29,1l-5.5-7.1c6.13,2.22,1.83,8.47,14.99,8.38,7.01-.05,13.76,1.2,22.11,1.25l-12.38-14.03,.45-.4c-4.64,0-19.28-.69-20.94-3.18l16.15,1.98,3.27-.19-6.87-10.6c-5.65-.13-23.11-5.32-25.26-8.09l23.46,6.89c-.76-2.86-8.05-11.35-10.33-13.63-2.26-2.25-12.7-10.44-13.03-10.93,7.39,1.72,12.32,10.2,17.32,13.07l-2.94-12.47c3.52,1.28,3.6,9.51,3.69,14.31l9.37,12.74,.63-.18-2.3-13.1c1.93,1.41,3.03,7.28,3.01,10.77-.04,6.83,1.34,6.2,4.06,10.32,2.43,3.66,10.09,13.31,13.3,15.46v-16.78c-2.89-4.32-5.5-6.38-7.71-12.06-1.57-4.04-4.14-10.04-6.07-13.7,3.34,.89,8.94,20.42,13.78,23.97l-.12-20.3-13.06-22.24c3.9,1.04,9.38,16.99,13.18,19.77l-.41-17.8-5.57-13.1,.59-.25,.67,.21,4.72,10.58V13.43h1.2l.5,12.17,3.7-10.98h1.2l.59,.25-5.98,12.93v17.97c3.8-2.79,9.28-18.73,13.27-19.72l-13.27,22.12v20.37c5.09-3.41,10.4-23.06,13.78-23.97-2.25,4.25-3.96,9.29-5.99,13.78-2.52,5.6-4.88,7.62-7.79,11.98v16.78c3.21-2.15,10.87-11.8,13.3-15.46,2.73-4.11,4.11-3.49,4.06-10.32-.02-3.65,.72-10,3.21-10.85l-2.52,13.16,.68,.21,9.43-12.69c0-4.9,.09-13.11,3.22-14.46l-2.02,12.66c4.42-2.96,9.6-11.51,16.78-13.18-.33,.49-10.78,8.68-13.03,10.93-2.28,2.28-9.57,10.78-10.22,13.99l23.26-7.54c-2.38,3.56-12.94,5.38-18.2,6.97-4.68,1.41-5.89,.34-8.42,4.17-1.36,2.05-4.65,6.18-5.1,8.4l19.12-2.23,.12,.87-18.09,2.2h-3l.45,.4-12.43,13.98c8.23,0,15.05-1.25,22.16-1.2,13.15,.09,8.86-6.16,15.27-8.15l-5.64,7.17,10.16-1.41-.02,1.06-13.38,2.42,9.54,4.3,.27-.6v1.2c-5.65-.13-8.71-4.36-12-4.78-4.07-.52-11.04,.59-16.16,.59l-8.58,.23,18.92,15.76-.6,.73-20.24-16.48-.74,.5,2.24,5.85c5.16,3.45,13.55,13.18,21.57,13.18,.53,0,1.2-.67,1.2-1.2,0-2.88-1.8-3.11-1.8-5.99v-3h13.18c3.15,0,5.15-.72,7.19-1.8l-.34-4.68,15.32-10.3Z"/>
      <path class="cls-1" d="M60.64,118.16c-.79-5.04-.13-16.88-.13-22.64l-1.73-1.29-1.87,1.88c0,7.29-.48,40.14,4.19,40.14h.6c2.87,0,.81-4.84,.25-8.04-.59-3.38-.85-7.07-1.32-10.07Z"/>
    </g>
  </g>
</svg>