<?xml version="1.0" encoding="UTF-8"?>
<svg id="_图层_2" data-name="图层 2" xmlns="http://www.w3.org/2000/svg" viewBox="0 0 93.42 100.41">
  <defs>
    <style>
      .cls-1 {
        fill-rule: evenodd;
      }
    </style>
  </defs>
  <g id="_图层_2-2" data-name=" 图层 2">
    <path class="cls-1" d="M90.1,17.09c0-7.56-3.05-6.37-7.24-8.42-2.56-1.26-3.45-7.24-8.42-7.24h-1.9c-1.98,0-3.66,3.32-5.22,3.32-3.97,0-4.1-4.75-8.07-4.75h-1.42c-6.57,0-1.73,13.29-9.49,13.29h-.95c-2.24,0-8.37-7.59-15.66-7.59h-.47c-3.33,0-5.7,2.12-5.7,5.22v5.7c0,5.86,2.37,8.89,2.37,13.76v3.32c0,1.73-1.31,3.8-2.85,3.8-3.04,0-7.59-3.8-11.39-3.8h-.95c-1.95,0-2.85,2.61-2.85,4.75v2.85c0,7.04,9.49,16.19,9.49,19.93,0,1.09-.33,1.42-1.42,1.42-2.54,0-3.27-.95-6.17-.95h-1.9c-.35,1.51-1.63,3.04-1.42,4.27l1.01,7.11c-1.85,2.68-6.23,4.77-6.23,9.03v2.37c0,2.09,1.22,3.59,2.62,4.65-2.86,3.64-5.86,7.84-5.86,8.64,0,1.23,2.76,2.72,3.9,2.64l4.89-8.76c1.6,1.7,4.19,3.28,6.79,3.28h1.9c2.4,0,4.75-1.71,4.75-4.27,0-2.38-.95-3.32-.95-5.7,0-.42,.53-.95,.95-.95,4.21,0,7.97,4.27,12.34,4.27,2.02,0,4.27-2.59,4.27-4.75v-1.42c0-3.81-4.75-5.44-4.75-10.44,0-.67,.65-.95,1.42-.95h.95c3.87,0,13.38,6.64,19.93,6.64h.95c1.63,0,4.27-1.23,4.27-2.85,0-6.72-3.8-9.6-3.8-15.19,6.29,.14,11.49,3.8,19.93,3.8h2.85c2.63,0,4.75-2.74,4.75-5.22v-1.42c0-5.5-5.22-12.27-5.22-15.66,0-4.43,13.29-6.1,13.29-15.19v-3.32c0-1.32-2.68-4.26-3.32-5.22ZM6.57,78.78c2.13,.77,1.93,4.02,2.79,6.16-.18,.2-.37,.41-.57,.64l-2.21-6.8ZM89.15,28h-5.22c-3.43,0-10-2.56-12.34-3.79l-21.83,19.46c8.75,0,12.18,1.15,18.57,3.26,3.46,1.14,13.38,5.16,14.18,8.13-8.87-4.69-18.26-10.92-31.8-10.92-2.43,0-13.32,10.74-14.71,12.81,8.09,0,20.32,9.05,21.83,14.71-2.17-.79-10.8-13.76-19.46-13.76-5.12,0-7.74,4.06-10.06,7.03-2.51,3.21-5.82,6.35-7.98,9.58,6.27,0,14.55,4.74,15.66,9.49-3.48-2.33-7.3-8.54-13.76-8.54h-1.9c-1.15,0-4.87,4.87-7.91,8.96-.13-.28-.29-.53-.59-.7,4.43-6.46,17.04-20.08,17.04-21.08v-.47c0-7.52-15.25-21.82-16.14-25.15,3.16,.84,16.71,20.11,17.2,24.8l11.65-11.99,.57-7.59c.47-5.31-1.98-13.74-3.38-17.5-1.15-3.11-7.44-12.11-7.54-13.34,5.37,3.59,11.87,19.76,11.87,29.43l.11,3.81-.53,4.31,15.22-13.36-.56-4.73c-.68-4.92,1.9-17.08,1.9-24.2v-1.9h.95l.08,5.7-1.98,18.97v3.32c0,1.81-.15,.17,.55,1.51l16.4-14.81,.61-12.33,1.12,.02-1.11,12.34,7.68-6.62,.54,.63-11.56,10.24c2.78,1.33,7.87,3.32,11.86,3.32h4.75v.95Z"/>
  </g>
</svg>