<?xml version="1.0" encoding="UTF-8"?>
<svg id="_图层_2" data-name="图层 2" xmlns="http://www.w3.org/2000/svg" viewBox="0 0 150.46 133.02">
  <defs>
    <style>
      .cls-1 {
        fill-rule: evenodd;
      }
    </style>
  </defs>
  <g id="_图层_2-2" data-name=" 图层 2">
    <path class="cls-1" d="M148.95,34.59l-7.1,1.03-.53-2-3.91,.57c-.63,.1-1.33-.03-2.11-.09l.55-4.34c-1.84,.06-6.06,4.28-7.55,5.89l-3.26,.16c-1.27,1.3-3.01,3.14-4.96,2.55l-.38-3.39,4.69-4.76-2.58,.6-1.29-1.57,.34-2.51-1.42-.1-.02-2.43-.12-1.52,.28-3.68-4.88,5.18-2.4-2.08-4.36,7.19-4.33-3.58-.18,7.48v.5s-.03,2.01-.03,2.01l-1.47,3.08c-1.78-1.42-2.38-2.78-2.58-5.13l-1.88,.45-.85-1.67-3.11-.67c-.16,2.84-.37,5.14-2.2,7.4l1.08,6.09-1.86,.5c.48,2.74,1.93,2.58,3.18,5.3l7.66,3.48c-2.1,2.04-9.8,4.66-12.92,4.66h-1l-.95-.12-17.99-7.24c4.16-.56,19.3-5.56,19.36-10.59l-1.91-.03-2.51,.07-2.28-.38-.21-1.69v-1c.61-2.22,2.95-4.36,2.93-7.03l-2.1-.8c-.63-1.28-1.33-4.35-1.33-5.67,0-3.02,2.89-4.97,2.91-7.91-2.69,.51-10.4,8.5-13.91,10.91l-1.55,.05c-3.76-2.31-1.98-2.23-3.97-5.5l.03-2.05v-4.5s-.05-2.05-.05-2.05c1.28-2.08,3.08-4.39,2.99-6.88-4.37-.16-3.84,5.2-7.38,7.96l-1.11,.03c-2.67-2.1-1.87-4.55-3.71-7.21l-3.78,1.7c-1.79-2.34-1.27-5.02-4.42-6.09l-.13-1.85-1.54-1.3-1.4,2.15,.08,2.1-1.08,1.9-.02,1.56,.44,4.37-1,1.08-3.91,.17,6.07,8.81-.16,2.44-1,1.07-1.88,.03-1.55,.07c-2.77-1.7-4.28-2.64-6.57-4.93-3.96-3.96-2.36-4.08-4.67-7.13l-1.24,1.96,.08,3.1-1.17,1.89h-1.89s-3.02-.96-3.02-.96l-4.02,2.85-4.4-1.88-1.94,.16-1.23,1.34-1.88,.04c-3.11,.1-4.75-1.84-7.5-2.5,.1,4.93,5.19,5.88,8.18,9.49l-1.22,2.58c2.47,3.08,5.08,2.09,5.62,6.52l-4.75,3.49,1.62,.82,6.04,.59,1.52-.14,4.44,.68c1.1,3.45,6.22,3.74,9.43,4.06l1.22,1.39c-1.8,2.75-3.95,4.47-7.63,4.12l-5.04-.44,3.03,2.44-.04,2.36-3.92,2.24,1.57,1.76-1.39,2.25-6.68,4.43,3.49,.33,3.5-.06,3.36,.44v3.75c2.96,1.15,8.07-3.02,11.47-1.79l.15,3.15-.13,1.52,.8,3.43c2.49-1.91,1.2-2.81,4.83-4.94,.39-.23,4.99-4.3,5.6-4.96l2.19-.36,2.17-.64,.04,2.98-2.5,4.86,1.52,1.07c-.1,3.2-.26,4.93,1.37,6.97l7.03-4.97,2.63,.11,1.42-1.08,3.62-5.44,1.94-.13,1.27,1,1.11-1.05,.05-1.87v-.5c0-2.56,1-2.94,1-5.5s-2.31-7.93-3.5-10.49c6.74-.01,14.93,6.13,19.36,10.62l1.23,6.85-.1,3.02v1l-.84,2.16c-4.11-3.12-6.83-7.39-12.56-7.07l-.15,1.79-6.12,1.87c-1.27,2.67-3.76,3.46-6.3,4.75-.19,1.94,2.63,2.65,3.97,3.05l.09,1.44,4.01-.09,2.2,1.89-9.24,5.08-3.05,.96,5.07,3.09c-.83,2.84-4.49,3.74-4.47,7.06l2.56,1.24-2.48,4.38-.65,2.24c2.03-.27,4.25-2.91,6.95-3.28l1.12,1.62,3.33-1.89,1.21,3.65c1.81-3.2,.8-3.58,4.01-6.95l2.85,.04,.07,2.48-1.09,1.9c.12,2.89,.92,4.25,0,6.99-.74,2.2-1.96,4.14-1.67,6.82l2.67-1.82,1.5,.13,1.09,1.87-.05,2.09,.56,1.44,2.33,.15c1.21,1.7,1.16,3.21,.96,5.51l2.83,2.76,.99-6.74,2.29-1.24,.08-3.93,3.37-2.06,.42-3.41,5.56,.38c-1.42-2.35-1.83-1.61-3.21-5.06-.94-2.35-1.1-5.59-.37-8,5.52-1.66,4.46,4.93,7.07,6.55l2.11-2.4,1.06-.06,2.42,2.12c2.56-.03,3.8,.97,5.5-.23l-1.41-1.39-.13-1.84-2.34-2.13-.19-1.53,2.23-1.46-3.73-3.95,.41-1.67c2.66-.81,7.39,.9,7.41-2.81l-4.22,.6c-3.7-1.3-9.38-3.48-8.87-7.97,2.93-2.97,11.25-3.74,11.79-6.57l-2.38-.18-.02-3.88-.02-1.5,.13-3.88,1.52-1.49c6.58-.8,9.4,8.38,10.86,9.34,2.92-1.94-1.64-4.49-.67-7.69,2.95-.82,3.5,.65,6.08,1.16l.29-2.65,4.28,1.34,1.93-.57,1.96,.32c.03-2.61-3.26-5.06-5.63-6.62l1.63-3.13c-3.02-.35-6.5,.11-8.7-2.86l2.37-2.74,5.44-.52,3.51-.02,1.87,.9c.05-2.2-1.26-1.91-2.52-4.65l2.96-1.92c.88-4.9,.65-3.54,4.62-5.48l.09-2.85,5.02-3.15-1.5-.92Zm-83.99,19.58l-2.78,6.69,2.88,4.08-.4,.38-2.7-2.25c-4.53,3.47-5.08,12.43-9.37,15.53-.16-5.82,10.24-18.94,10.28-23.36-3.06-.17-9.14,2.56-12.82,3.49-6.06,1.55-4.46,4.99-8.64,7.79l1.97-5.33-1.42-.04c-4.1-.16-16.82,6.22-19.36,4.37,3.52-3,21.24-5.32,24.23-7.5-.35-2.19-2.83-3.1-4.45-4.37,2.2-1.26,4.07,1.25,5.71,2.95l1.87,.05h.5c3.23,0,7.32-2.12,10.97-2.56l1.06-1.98c-2.78-2.16-26.52-13.95-29.52-13.95h-1.5c-1.88,.45-4.68,2.07-6.5,2.02l-2.07-.48,6.98-2.87c-3.08-2.47-15.31-4.98-15.82-8.08,2.4-.14,20.38,7.71,23.36,9.46l2-.18c-1.05-2.18-3.89-7.06-3.83-9.32,4.45,3.19,3.24,9.96,10.86,13.46,2.97,1.37,14.95,7.81,17,7.99-.77-3.23-2.89-7.81-4.5-10.99-.88-1.76-1.33-3.46-2.48-5.01-1.53-2.06-3.53-1.47-3.9-3.91l2.3,.84c.23-4.05-7.3-14.22-7.32-18.82,3.34,.67,8.54,20.79,12.41,23.98,1.23-1.02,1.5-2.94,1.5-4.58l-.09-5.01,.33-2.11h.51s.75,5.62,.75,5.62v1c0,2.68-1.5,5.56-1.5,7.5,0,2.43,2.13,7.99,3.67,9.91,1.22-.94,3.33-6.84,3.33-8.41,0-2.07-.56-1.9-.52-3.5l.24-1.62,2.05,1.35,3.22-6.23,2.7-4.06c.27,4.07-6.07,11.95-6.12,16.47,2.31,.13,1.73-.56,3.91-.41l1.46,.07c-1.16,1.53-4.55,2.19-6.37,2.52-.88,2.4-2.86,8.23-4.08,9.41Zm22.99,19.99l.59-3.98-.09-6.01,.15-1.83,13.22-6.22c-2.71,4.04-3.82,7.69-4.5,12.42l-9.29,8.02-.1-1.9,.02-.5Zm16.45-1.13l-1.96,.15-.5-.02-2.19-.19-.3-1.82,1.92-3.11c1.92,1.47,1.98,3.03,3.02,5Zm1.04,7.62h-4.5s-1.95,.08-1.95,.08l-.17,2.37c-2.91-1.53-3.57-2.96-7.37-2.96h-.5s-1.91,.09-1.91,.09c.4,2.01,3.74,4.96,5.9,5.93,2.68,1.19,6.41,.98,8.47,3.85-2.95-.35-4.05-2.58-8.15-2.05l12.65,15.54c-3.01-.4-7.17-8.32-10.09-10.51l-1.12,1.77-.24-2.12c-.64-2.65-6.95-10.88-9.46-10.91l-.04,1.42c-.08,2.05,.5,1.85,.5,4l-.02,9.49,.31,1.76,5.38,7.98-.44,.32-5.09-5.48-.64,4.9,.09,7.51-.59,3.98v.5c0,1.85,.43,1.43-.94,2.46l-.06-1.96,.02-9-.15-1.96c-1.73,1.25-2.45,3.06-4.33,3.33,2.3-3.18,5.45-4.91,5.45-8.87l.02-15.49-.61-5.41c-2.29,.03-5.98,4.93-7.45,6.87,.22,1.78,.54,1.62,.54,3.54l.09,.51-.33,2.11h-.55s-.06-2.69-.06-2.69l-1.15-2.01c-3.62,2.79-9.05,12.51-12.99,13.58,1.85-3.68,9.38-9.17,9.41-12.46l-3.43-.29,2.03-.63,3.93-.66,7.95-9.41-1.91-.03-4.51-.09-3.98,.59-3,.02-5.45-.65c1.03-1.3,.6-.87,2.46-.87l8.5,.07,2.27-.41,.02-2.72,1.29,2.46,1.91,.6h6c2.07,0,1.9,.56,3.5,.52l1.87-.15,3.72-3.22-1.82,3.74,10.22,.11c1.85,0,1.43-.43,2.46,.94l-1.96,.06Zm1.09-6.91c2.41,.4,4.41,1.84,4.83,4.33-2.48,.15-4.97-1.59-4.83-4.33Zm15.99-26.24l6.9,2.43-1.99,.26c-1.62,.04-4.95-1.52-7.5-1.52-1.42,0-14.52,5.35-14.99,6l10.99,3.92,1.54,.1c1.76-1.01,1.58-1.34,3.04-.52l-1.73,.86c2.59,2.14,11.66,3.13,13.63,5.53l-18.41-5.46c.12,3,2.15,3.81,3.94,5.93l-3.15-1.74c-2.48-4.32-5.26-6.28-9.84-7.04l2.23,5.6,3.47,2.09-1.65,.83,2.54,7.82-.54,.22-5.03-11.18-2.71,3.21-.49-.31,2.12-4.3-5.31-11.56-3.27-.17v-.61s2.55-.29,2.55-.29c-.17-4.18-4.7-9.8-3.45-11.98l6.72,16.28,.65,.04,4.64-10.21v-2.59s-1.21-3.35-1.21-3.35l2.37,2.85c3.46-2.64,4.28-9.42,6.86-12.48,1.48,2.76-6.42,12.26-6.45,15.95l1.91,.1c1.41,.02,.79,.07,1.87-.47-.28,1.94-2.86,1.86-4.74,2.08-1.59,2.03-4.07,6.67-4.13,9.37,4.72-1.12,10.2-3.75,14.93-5.56,11.25-4.29,6.04-6.25,10.42-9.39l-1.84,4.82c3.98,.12,8.04-4.59,11.92-4.24-1.67,2.11-13.77,6.44-16.86,8.69Z"/>
  </g>
</svg>