<?xml version="1.0" encoding="UTF-8"?>
<svg id="_图层_2" data-name="图层 2" xmlns="http://www.w3.org/2000/svg" viewBox="0 0 163.76 164.47">
  <defs>
    <style>
      .cls-1 {
        fill-rule: evenodd;
      }
    </style>
  </defs>
  <g id="_图层_2-2" data-name=" 图层 2">
    <g>
      <path class="cls-1" d="M155.93,37.02c3.12-.73,5.7-1.8,5.7-5.7v-.71c0-7.36-15.68-6.1-18.51-9.97,1.34-2.01,4.27-5.53,4.27-8.54v-3.56h-2.85c-6.4,0-12.38,3.56-18.65,3.54l.85-8.53c.11-.91-.36-1.35-.71-2.85-1.91-.46-1.34-.71-2.85-.71-4.11,0-9.22,4.48-11.92,6.38l-.89-4.95h-3.56c-1.06,0-3.14,1.54-4.27,2.14-1.47-.98-1.85-2.14-3.56-2.14l-1.47,.49-12.06-1.2c-2.58,5.38,2.84,2.22,6.38,5.01,2.22,1.76,3.45,6.38,5.73,6.38h2.14l.71,3.56c.83,1.57,.62,2.85,2.85,2.85h.71c1.92,0,1.96-.34,3.56-.71v5.7c0,3.66,.81,8.54,4.27,8.54,1.06,0,3.14-1.54,4.62-2.09l-1.77,13.48c-.33,2.45,2.58,7.12,4.27,7.12,2.69,0,4.75-1.74,6.41-2.85,0,5.11,2.07,13.53,6.41,13.53h.71c2.51,0,3.84-3.62,5.7-4.98,.6,2.23,3.9,7.12,6.41,7.12h1.42c1.71,0,2.09-1.15,3.56-2.14,.94,1.77,1.6,3.56,4.27,3.56,3.8,0,7.12-6.58,7.12-7.12,0-3.45-1.81-3.19-2.14-7.12,2.55-.06,4.98-.31,4.98-2.85v-1.42c0-3.42-6.79-5.34-7.83-9.26Zm-11.97,5.17l-.37,.7,8.56,11.57-.81,.61-7.79-9.86-.44,3.2c0,5,1.8,6.67,2.14,10.68-3.69-2.7-2.85-8.68-2.85-14.95l-3.28-4.49-.28,7.34-.93,.07-.71-9.31-3.04-3.22-2.01,23.12-.43,.02,.78-24.24,.8-.13-2.85-2.85-2.58,10.06-1.14,.06,2.62-11.45-4.39-4.61-4.05,22.45-1.3,.02,4.5-22.74-3.62-3.77-1.07,9.4-.52,.02v-9.97l-4.68-3.98-.31,9.68h-1.42v-7.12c0-1.92,.34-1.96,.71-3.56l-7.62-4.61-.21,3.19c0,1.97-.55,1.71-2.14,2.14,.74-1.4,1.42-2.1,1.42-4.27,0-3.58-9.46-4.49-11.39-7.12,4.55,.1,6.48,2.85,9.97,2.85,2.74,0,2.82-2.08,5.7-2.85l-3.93,3.94c.36,.58,3.94,3.18,5.36,3.18,3.53,0,9.74-6.3,12.82-7.12l.45,.65-11.41,7.81-.62-.36,5.85,4.05,12.07-2.57,.07,1.81-10.72,1.13c.85,1.51,1.59,3.15,3.6,3.15,7.99,0,15.38-5.73,21.36-7.12-2.56,3.82-14.36,7.25-19.94,8.54,.52,.77,2.57,3.56,3.56,3.56,4.7,0,8.42-2.54,12.1-2.85-1.59,2.17-4.85,3.56-8.54,3.56h-2.14l2.59,3.78,10.21,.68,14.97-.18v1.42h-11.39l-12.09-.84c.94,1.55,4.46,6.54,6.4,6.54h1.42l7.82-.81v1.53s-6.37,.87-6.37,.87l-2.16-.16,1.43,2.84c5.58,0,13.35,1.12,15.66,4.28l-13.4-3.37Z"/>
      <path class="cls-1" d="M158.78,113.21c.52-2.24,2.14-4.18,2.14-5.7,0-.77-3.45-7.83-5.7-7.83h-2.14c-2.18,0-3.08,1.76-3.56,3.56-1.47-.98-1.85-2.14-3.56-2.14h-.71c-4.25,0-5.61,3.55-7.12,6.41-2.52-1.69-2.45-4.27-4.98-4.27h-.71c-5.63,0-7.12,7.51-7.12,13.53-1.43-.96-2.87-2.85-4.98-2.85-3.32,0-4.98,1.66-4.98,4.98l-.17,2.15,.88,13.52c-1.1-.74-2.59-2.14-4.27-2.14-3.38,0-4.27,3.74-4.27,7.12v7.12c-3.02-.81-1.25-1.42-3.56-1.42-1.71,0-2.09,1.15-3.38,2.17l-.86,4.83-2.75-.49-5.83,7.73c-2.15,0-6.41,.38-6.41,2.14,0,1.17,.43,2.14,1.42,2.14,2.89,0,5.48-1.55,6.43-1.56l7.21,.96,2.74-2.26c1.58,.83,3.47,2.14,5.7,2.14,2.8,0,2.85-2.11,2.85-4.98,3.08,1.63,8.18,6.41,12.1,6.41,1.66,0,3.56-1.9,3.56-3.56v-3.56c0-2.45-.53-2.76-.71-4.98,6.62,0,11.89,3.56,18.51,3.56h.71c1.64,0,2.14-.5,2.14-2.14v-.71c0-6.47-3.91-6.31-4.27-10.68,6.62-1.54,18.51-2.38,18.51-9.97v-.71c0-3.07-4.01-3.4-5.7-5.7,1.62-2.22,7.83-4.77,7.83-7.83v-1.42c0-3.15-2.84-2.53-4.98-3.56Zm-17.08,9.97l-1.43,2.84h8.54v1.42l-2.16,.18-7.39-1.15-6.13,7.16,19.95-1.2h1.42c1.97,0,1.71,.55,2.14,2.14-7.33-1.71-24.42-1.44-27.77,3.56,4.44,.37,8.71,1.33,10.68,4.27-4.03-.94-5.32-2.85-11.39-2.85-1.97,0-3.44,2.32-4.27,3.56,4.89,.41,18.67,5.04,19.94,8.54-4.7-1.26-13.28-7.12-19.94-7.12h-1.42c-2.31,0-.54,.62-3.56,1.42v1.42c3.9,.09,5.02,1.42,9.26,1.42h2.14l-.06,1.79-13.58-2.63-4.54,3.96,.76-.09,10.84,7.61-.59,.85-12.71-7.83-5.75,2.76,.41,.94,3.86,4.04c-2.68-.72-4.02-3.56-5.7-3.56-2.08,0-5.62,3.2-10.2,3.08l11.97-5.31-1.71-6.33,.64-.34,2.3,5.61,6.97-3.83c-.19-2.23-.71-2.53-.71-4.98v-6.41h1.42l.19,10.25,4.8-3.13v-11.39l.51,.02,1.22,9.59,3.56-3.26-4.57-22.72,1.2,.05,4.66,21.48,3.79-4.35-2.53-10.77,1.16,.06,2.55,10.06,2.85-2.85-.75-.13-.83-24.24,.45,.02,2.1,23.14,3.86-3.94c-1.13-2.36-1.52-6.91,.71-8.54l.2,7.28,2.98-4.46,1.81-14.92h1.41s-2.56,12.73-2.56,12.73l8.68-8.71,.73,.58-8.84,12.29,14.11-4.07c-.87,3.26-11.29,4.98-15.66,4.99Z"/>
      <path class="cls-1" d="M66.93,151.66c-1.63,0-.83,.24-2.85,.71v-2.14c0-2.17-.68-2.87-1.42-4.27-8.88,0-6.41,1.4-6.41-10.68-.81-1.21-1.55-2.85-3.56-2.85h-.71c-1.77,0-2.68,1.78-4.39,2.83l1.54-12.8v-2.85c0-2.6-1.97-5.7-4.27-5.7-3.57,0-4.13,2.04-6.41,3.56,0-5.74-.71-14.24-5.7-14.24h-1.42c-3.3,0-2.21,3.34-5.7,4.27-.54-2.32-3.16-6.41-5.7-6.41h-.71c-2.74,0-2.93,.39-3.56,2.14-2.05-1.5-1.76-3.56-4.27-3.56h-2.14c-2.4,0-5.7,6.85-5.7,7.12,0,2.31,1.32,4.86,2.14,6.41-2.04,.48-5.7,1.22-5.7,3.56,0,3.82,6.58,7.03,8.54,9.97-1.9,1-5.7,2.27-5.7,4.98v1.42c0,6.17,12.88,8.79,18.51,9.26-.95,3.57-4.27,4.89-4.27,9.26l.14,4.9,20.51-4.19c0,4.95-2.56,12.1,3.56,12.1,4.61,0,8.53-5.45,12.1-6.41v2.14c0,1.67,1.18,2.85,2.85,2.85,3.47,0,4.06-2.14,4.98-2.14,1.71,0,2.09,1.15,3.58,2.27l7.1-.84c1.62-.22,1.99,1.42,4.98,1.42,2.37,0,2.09-1.28,2.14-3.56-10.65,0-9.02-8.54-12.1-8.54Zm3.56,8.54c-1.97-.46-8.5-3.56-8.54-3.56-3.17,0-3.17,2.7-6.83,3.14l3.98-3.14-.12-1.21-5.05-3.36-13.2,8.35-.55-.81,11.8-7.24v-1.42c-3.79-1.01-2.89-3.61-7.97-2.31-3.39,.87-5.8,1.6-9.83,1.6v-1.42h2.14c4.24,0,5.36-1.34,9.26-1.42-.81-1.21-1.55-2.85-3.56-2.85-6.79,0-16.72,4.66-21.36,7.12,1.15-4.32,14.79-7.35,19.94-8.54-.83-1.24-2.3-3.56-4.27-3.56h-1.42c-4.3,0-6.47,2.03-9.97,2.85,1.09-3,6.63-4.27,10.84-4.43l-3.01-2.69-21.36-1.42c-2.23-.17-1.54,.48-4.27,.71v-1.42l17.82-.16,6.46,.81-6.47-6.97-9.98,.63c.83-1.2,.1-1.42,2.14-1.42l7.37-.15-1.67-2.69c-5.16,0-15.01-1.21-16.43-4.76l14.19,3.77,.38-.63-8.71-11.43,.85-.66,7.31,8.97,.7-.3-1.71-12.78c2.28,1.77,2.73,6.63,2.73,10.7v.71c0,1.83-.17,1.72-.8,2.92l4.54,4.9-.89-7.1c3.07,1.11,2.66,5.97,1.46,8.51l3.88,3.63,1.06-14.27v-8.54h1.42v6.41c0,6.96-3.35,19.37,1.42,20.65l2.42-10.07,.83,.19-2.7,11.47,4.16,4.05,4.55-22.01h1.42c-1.27,5.47-4.27,16.56-4.27,22.78,0,1.46,2.2,2.48,3.56,2.85v-9.26h1.42v5.7c0,2.17-.32,2.6-1,4.64l5.98,3.9v-9.97h1.42v7.83c0,1.92-.34,1.96-.71,3.56l6.81,3.44,2.45-4.87c-.19,2.23-.71,2.53-.71,4.98s8.34,5.5,10.68,5.7v1.42Z"/>
      <path class="cls-1" d="M5.7,51.26c-.83,1.58-2.14,3.47-2.14,5.7,0,.77,3.45,7.83,5.7,7.83h1.42c1.97,0,3.44-2.32,4.27-3.56,1.47,.98,1.85,2.14,3.56,2.14h1.42c3,0,4.84-5.45,7.12-7.12,.59,2.53,2.02,4.98,4.98,4.98,5.63,0,6.41-8.08,6.41-14.24,2.28,1.52,2.83,3.56,6.41,3.56,2.31,0,4.27-3.09,4.27-5.7v-4.98c0-4.68-1.42-5.53-1.42-10.68,1.43,.96,2.87,2.85,4.98,2.85,3.44,0,3.62-4.18,3.56-7.83-.12-8.31-.63-5.7,4.27-5.7l2.04-.04,1.52-4.23v-2.14h4.27c2.3-9.87,9.57-5.8,10.68-9.97-1.12-2.77-3.25-1.36-5.61-.59-2.87,.92-3.59-.12-7.2-.12h-1.42c-1.97,0-1.71,.55-2.14,2.14-2.87-.67-3.56-2.14-6.41-2.14h-.71c-1.64,0-2.14,.5-2.14,2.14v2.14c-4.11-.34-6.96-5.7-12.1-5.7h-.71c-1.9,0-3.65,2.76-3.7,3.58l.85,8.53c-6.63-.55-13.35-4.27-19.22-4.27-1,0-1.42,.97-1.42,2.14v2.85c0,2.84,2.98,6.11,4.27,8.54-5.54,2.93-18.51,1.88-18.51,9.97v1.42c0,2.29,3.38,4.08,5.7,4.27-1.04,3.91-8.54,5.55-8.54,9.97,0,2.95,3.6,3.27,5.7,4.27Zm14.95-9.97l1.89-.15,1.65-2.56-8.53-.85v-1.51s6.41,.8,6.41,.8l3.87-.37,5.38-6.15-9.24,.82H7.12v-1.42l10.69,.18,14.35-.76,3.44-3.69c-4.55,0-9.72-.66-10.68-4.27,2.29,1.21,7.33,3.56,10.68,3.56,2.36,0,4.01-2.11,4.98-3.56-4.9-1.14-18.54-4.7-19.94-8.54,5.49,1.28,13.28,7.12,20.65,7.12,2.2,0,3.39-1.53,4.3-3.05l-11.42-1.22,.07-1.84,12.82,2.63,4.58-3.87-11.36-7.88c4.38-.1,8.8,6.68,13.12,6.68,1.52,0,3.45-1.61,6.02-2.46l-3.89-4.66c2.87,.77,2.96,2.85,5.7,2.85,3.24,0,4.82-2.48,9.26-2.85-2.22,3.03-10.68,3.69-10.68,7.12v.71c0,1.92,.34,1.96,.71,3.56h-1.36s-.87-5.14-.87-5.14l-7.02,4.43c.37,1.6,.71,1.64,.71,3.56v7.12h-1.42l-.27-9.69-5.53,3.29,.81,7.82v2.85h-1.42v-9.28s-4.13,2.27-4.13,2.27l4.84,24.1h-1.41s-4.45-22.24-4.45-22.24l-3.89,4.39,2.43,11.33-.85,.2-2.82-10.41-2.83,3.14,1.71,14.3v9.97h-1.42l.17-7.84-1.22-15.32-3.93,3.94c.5,1.01,.71,1.18,.71,2.85v.71c0,2.45-.53,2.76-.71,4.98l-1.22,.02,.34-7.3-4.11,4.44c.5,1.01,.71,1.18,.71,2.85v1.42c0,4.6-.7,8.21-2.74,10.69l1.17-13.66-7.83,9.82-.9-.71,8.77-12.31-14.13,3.31c1.7-2.32,10.07-4.27,14.24-4.27Z"/>
      <path class="cls-1" d="M68.35,21.36c-1.64,0-2.14,.5-2.14,2.14v4.98c0,3.76,2.64,4.39,3.56,7.83,4.1-.96,11.39-4.66,11.39-9.26,0-2.37-9.54-5.7-12.82-5.7Z"/>
      <path class="cls-1" d="M94.7,20.65c-4.25,0-8.29,2.48-9.97,4.98,2.95,5.57,3.94,4.57,9.26,7.12,1.16-2.19,3.56-4.97,3.56-7.83v-2.14c0-1.64-.5-2.14-2.14-2.14h-.71Z"/>
      <path class="cls-1" d="M75.5,15.49c-.8-1.73-3.05-1.96-5.72-1.96-1.21,0-2.66,.95-3.56,1.42l-.89,4.12,.4,.13,14.73,5.01c-.37-1.6-.71-1.64-.71-3.56,0-1.38,.97-2.32,1.42-4.27l-5.67-.89Z"/>
      <path class="cls-1" d="M97.55,19.94v-3.56c-.81-1.21-1.55-2.85-3.56-2.85h-.71c-1.9,0-12.1,3.29-12.1,7.83,0,1.51,.25,.94,.71,2.85h2.14c2.4-2.09,4.79-4.27,9.26-4.27h4.27Z"/>
      <path class="cls-1" d="M74.05,12.1l.04,1.26,5.65,1.59c-.46-1.91-.71-1.34-.71-2.85,0-1.08,1.4-.8,2.46-3.93l4.75,3.96-.84,2.7,4.83-1.11-7.02-6.63,.66-2.68-1.28-1.57h-.71c-1.53,3.18-3.67,8.91-7.83,9.26Z"/>
    </g>
  </g>
</svg>