<?xml version="1.0" encoding="UTF-8"?>
<svg id="_图层_2" data-name="图层 2" xmlns="http://www.w3.org/2000/svg" viewBox="0 0 120.94 131.7">
  <defs>
    <style>
      .cls-1 {
        fill-rule: evenodd;
      }
    </style>
  </defs>
  <g id="_图层_2-2" data-name=" 图层 2">
    <path class="cls-1" d="M84.66,26.08c-8.36,0-15.71,3.47-19.86,4.53,5.75-10.16,15.47-26.57,9.2-26.57h-.81c-4.85,0-10.33,7.62-13.48,14.97-2.09-6.06-5.97-12.1-10.55-15C41.09-1.13,33.66,.07,26.71,.24c.15,6.57,0,20.06,7.24,24.67l1.87,1.19C15.66,26.39,0,45.6,0,66.39v8.06c0,16.31,8.43,33.87,16.73,42.13,9.69,9.64,24.06,15.12,42.93,15.12h5.64c32.96,0,55.63-28.1,55.63-61.28v-.81c0-21.15-15.5-43.54-36.28-43.54Z"/>
  </g>
</svg>