<?xml version="1.0" encoding="UTF-8"?>
<svg id="_图层_2" data-name="图层 2" xmlns="http://www.w3.org/2000/svg" viewBox="0 0 136.43 135.94">
  <defs>
    <style>
      .cls-1 {
        fill-rule: evenodd;
      }
    </style>
  </defs>
  <g id="_图层_2-2" data-name=" 图层 2">
    <g>
      <path class="cls-1" d="M136.43,66.92l-.43-3.99-1.93-3.07c-4.09-2.33-5.63-4.02-10.63-4.48,1.48-1.87,2.26-1.49,2.61-4.03l-1.34-.78-2.26,3.5c-3.85-4.92-7.91-10.81-15.5-10.13l-6.94,.5c-.52-11.43-3.44-38.4-16.04-41.42l-.51,.3c5.55,2.23,8.73,7.59,10.81,12.88,1.47,3.73,4.18,14.74,4.18,18.8v2h-.5c0-9.51-7.34-30.9-17.99-33.48h-4.5c-7.62,1.85-16.81,13.26-20.8,19.67-4.39,7.05-9.18,23.41-9.18,31.3v3l-.59,3.98,.09,33.99c0,1.83-.49,3.93-1.63,5.37l-1.87,.15-1.5-.02-1.87-.05c-1.59-2.09-3.12-10.79-3.12-13.44v-1l-.59-3.98,.09-4.01-.59-3.98,.09-9.01,.59-3.98-.09-3.01,1.05-7.99-.05-.51c0-8.22,5.67-23.18,9.82-30.65,3.7-6.64,14.48-17.82,22.66-17.82h2.5c1.93,0,2.05,.44,4.04,.54l.46-.54-4.94-1.53-2.06,.03c-8.16,.16-12.84,5.53-18.11,10.87-2.43,2.47-4.37,5.42-6.05,8.44-1.45,2.6-3.67,7.88-4.95,9.61l-4.38-.45h-2.5c-7.82,0-15.59,7.44-16.53,14.91-2.74-.47-2.51-1.37-6.46-1.41l-2.55-.05-4.05,2.56c2.27,2.79,8.71,5.84,12.02,6.01-.56,2.8-5.42,5.21-5.42,12.46l-.2,1.53,1.33,5.98-1.77,2.43,.63,6.55-.14,7.01,1.55,13.39-.91,.58-.87,.46c-.56-4.17-2.12-9.33-5.71-12.09l-2.94,4.58,.03,2.06c.08,4.34,1.98,6.69,4.5,9.97l-3.04,.02-1.48,.54,.15,2.5,1.3-1.07,2.58,.1-.52,4.93v1c0,8.47,9.43,16.97,17.5,16.1l5.54-.55c3.6-2.26,4.31-1.77,8.43-5.17,2.79,1.7,16.64,5.76,20.92,7.19,6,2,16.39,4.92,23.06,4.92h1c6.4,0,13.5-4.75,18.99-7.49,3.38-1.69,16.65-6.04,17.99-8.5l-1.54,.03-2.33-1.19-.31-1.29-1.38,1.85-1.93,.11c-1.74,.05-2.13-.42-3.91-.61l.36-1.95-2.24-2.01c.07,1.37,.3,1.43,.3,3.05v1.5c-.76,3.12-2.57,4.25-4.95,6.04h-1.09s-3.89-2.85-3.89-2.85l2.43-2.19c3.57-4,4.97-12.41,7.45-16.53,3.18,.85,3.6,1.33,5.96,3.66l.31,1.91,1.22-1.58c2.01,.61,3.03,1.44,3.52,3.54l.36,2.05,1.84-3.39,3.31,2.78-3.49,7.05c2.92-.69,5.07-1.39,7.38-3.61,.35-3.51-1.88-6.47-1.88-10.88l-.1-9.51,.6-5.98v-12.99s-.09-2.92-.09-2.92l-3.01-2.1c2.45-3.02,3.51-5.9,3.63-9.9,3.92,.79,6.11,5.2,12.94,4.86Zm-12.48-10.44c3.12-.06,8.14,2.94,8,6.51l-.04,1.42c-3.32-.55-10.29-3.12-10.83-6.87l2.37,.78-1.61-1.53,2.11-.31Zm-27.98-17.47v6c0,2.36-1.46,5.97-3.33,7.41l-1.23-1.83-1.89,.54c1.13,1.58,2.06,2.05,.83,3.74-1.22-.15-1.24-.37-2.87-.37h-2.5c-3.47,0-5.46,1.7-8.54,2.54-.77-.99-1.96-3.62-1.96-5.04,0-1.84,.63-1.71,.91-3.41l-1.91-.1h-.5s-1,.01-1,.01l-7.29-4.28-.22-1.71v-1c.01-7.34,4.75-11.68,10.84-14.41l2.05,3.56,.86-1.35,3.77-2.76c6.38,.27,12.49,6.33,13.98,12.46Zm-19.86,27.35l-.15-1.37c-.07-1.5,.52-1.47,.52-3.5v-2.5c2.01-1.79,5.28-3.5,8.49-3.5h3.5l2.19,.19-.19,4.81,.92-.05,.65-1.42c1.23,.56,.45,.47,1.93,.47,1.01,0,1.62-.29,2.54-.54,2.72,2.05,5.45,7.07,5.45,10.54v4c0,5.25-2.35,7.7-6.81,9.18-3.14,1.04-9.31,2.98-12.59,2.73,.15-.92,.41-1.77,.41-2.91v-2.5c0-5.28-3.39-10.09-6.87-13.62Zm19.36-7.87h-1l-1.96-.06,4.99-2.11-.18-.49-4.76,1.58c.59-3,5.14-4.91,7.91-4.91h1.5l3.01,1.51c-1.78,2.55-6.61,4.49-9.51,4.49Zm-34.11,4.67l-.41-2.21c2.08-3.55,2.96-6.88,7.04-7.95h1.5l1.96,.06c-1.84,3.95-4.49,10.23-9.41,10.81l2.59-3.64-3.26,2.94Zm12.4-9.51c.8,1.15,1.22,2.55,1.22,4.34v4.5c0,2.06,.35,1.04-.67,2.41l-6.83-3.35,6.27-7.9Zm12.72-29.14l-.03,1.91-3.62-.69,2.91-3.69c1.03,1.36,.78,.44,.74,2.46Zm-2-7l1.42,.04c-.04,3.28-4.29,9.77-7.33,10.37l2.02-3.72-2.97,3.27-.14-1.96c-.13-3.28,3.11-7.1,6-8h1Zm-9.54-13.03c3.37,.9,8.53,6.05,8.41,9.91-3.55,2.78-6.37,6.4-7,11.08l-3.21-3.21-1.6,1.4,3.46,2.37-6.3,3.71c-4.78-3.21-6.34-4.34-12.63-4.81,1.36-8.1,13.26-15.68,18.86-20.44Zm-20.03,21.55l2.09-.03h1.5c2.89,.01,7.7,2.24,9.58,4.51-2.37,3.07-4.16,6.2-5.08,9.99v1.5l-.03,1.91c-1.79-.02-1.49-.42-3.47-.42h-3c-1.94,0-3.68,.56-5.37,1.46l-1.23-5.52,5.01-13.4Zm-7.91,33.46l1.05-7.99-.05-1.51,.13-1.87c2.37-1.86,6.04-3.63,8.87-3.63h3.5c3.12,0,7.63,1.85,9.45,4.37-4.37,.94-8.98,7.61-9.58,12.08l-3.13-3.67-2.4,1.06,3.9,2.94c-2.14,1.45-4.77,2.02-6.86,3.59-1.65,1.25-3.6,4.21-4.88,5.12v-10.49Zm0,14.49c1.79-7.38,6.63-8.7,11.82-11.41,1.52,1.89,1.08,3.48,3.13,3.78l-.51-1.23,4.58-2.56c7.11,.75,14.96,8.44,14.96,15.91v2.5l-2.41,4.99-2.09,.03-4.5-.02-7.99-1.05-.51,.05-16.48-2.58v-7.41s-.01-1-.01-1Zm-13.49-44.97h1c1.86,0,2.08,.4,3.91,.59,.13,2.27-3.62,13.47-4,18.32-2.09-.34-4-1.41-6.41-1.41h-4c-1.73,0-.99-.2-2.37,.46-.28-3.1,.84-2.13,1.29-4.37l-1.96-.13-1.1,1.97,.09,2.52-1.84-1.56-.11-1.89c-.3-7.71,8.63-14.49,15.49-14.49ZM7.44,46c4.12-3.27,11.18-1.23,11.99,2.91l-7.29-2.49-.19,.48,8.08,3.34-2.01,.28c-3.11,.1-8.59-1.92-10.58-4.52Zm3.08,19.99v-4.5c0-4.02,2.42-7.7,5.13-10.37l1.87-.15,1.5,.02h1l1.79,1.08-.2-4.49c1.92-.2,2.08-.59,3.91-.59h1.5c1.73,0,5.38,1.17,7.04,2.46-.11,1.99-.54,2.11-.54,4.04v1l-.59,3.98,.09,4.01-.59,3.98,.09,9.01-.05,1.87c-3.49,2.49-6.4-.11-9.74-1.08-3.24-.94-6.33-1.61-9.37-3.12l-3.02-6.07,.2-1.1Zm-.64,7.51l22.55,7.47,.58,6.01v1.5c-4.77-1.15-18.59-5.37-22.41-8.12l-.72-6.86Zm-7.85,24.47c0-2.07,1.35-3.07,2.33-4.41,2.28,2.25,3.67,5.69,3.67,8.91v1.5l-.06,1.96-2.12-5.48,.81,4.88c-2.66-.42-4.64-4.88-4.64-7.35Zm30.86,24.37c-2.28,2.35-6.49,4.62-9.38,4.62h-7c-6.97-1.69-12.49-7.57-12.49-14.99,0-1.14,.67-3.28,1.09-4.41l1.91-.1c1.69-.02,1.05-.16,2.37,.47l-.69-1.68,.42-3.26,.9-2.01c2.3-1.5,5.21-3,7.99-3h5.5c7.45,0,9.99,6.17,12.99,10.49l.52,3.99c.4,2.54-2.25,7.94-4.13,9.88Zm25.3,5.37l-2.08-.32-3.54-3.77c3.45-2.75,4.59-3.19,7.41-6.75,1.94,2.47,1.53,3.81,4.41,5.91l-6.21,4.93Zm27.78-.26h-1c-1.58,0-4.16-1.66-5.41-2.67,.34-.68,6.72-6.78,8.41-8.91l5.76,3.73c-.59,3.46-4.87,7.06-7.75,7.85Zm9.99-7.5l-.82,.44c-3.11-3.11-2.39-4.57-7.59-5.52l.42-1.83-2.42,2.01-2-.61,2.49,1.91c-.93,3-2.75,3.93-5.04,5.65l-2.54-.54,.95,1.3c-1.96,1.96-3.57,4.41-6.44,5.2h-1l-1.87-.05-4.15-4.01,8.49-5.12c1.48,1.37,1.68,2.11,4.03,2.68-1.55-2.17-3.04-1.38-4.04-5.04l1.04-1.46-3.45,1.71-3.55-2.71c.25,2.07,2.64,2.87,4.04,3.95-.59,1.98-3.86,4.04-6.04,4.04-3,0-5.33-4.44-6.04-7.04l1.54-1.46-2.7,1.24-1.76,.33,1.17,1.85-5.04,4.83c-3.36-2.1-5.34-4.5-7.21-7.72l.1-1.92,4.89-3.28,1.75,2.71-.6-2.39,4.46-2.85c-1.92,.03-1.66,.69-3.57,.69-1.56,0-1.25-.15-2.37-.96l.36,1.79-6.45,4.48c-.48-2.55-2.96-4.67-4.62-6.82l2.64-1.71-4.55,1.71-.88-.08c-5.51-7.08-5.04-5.09-12.03-8.74l6.01-2.71-7.05,1.86c-1.78-2.46-3.49-5.98-3.55-8.81,.89,.08,11.05,3.28,12.16,3.83l.99,3.63c.6,3.19,1.21,7.16,4.83,8.03h3l4.06-1.97,2.62,3.55-1.73-4.04c.68-2.49,2.7-3.83,4.91-5l2.25,4.06,.45-.27-2.03-3.65c1.19-.87,.11-.69,1.95-.69,2.08,0,4.29,1.5,7,1.5h.5l1.96,.06c-.89,1.3-3.3,3.39-4.91,5.48l-3.39-1.61,3.6,3.9,.61-.31c.51,1.19,2.79,4.08,4.14,3.98l-4.14-4.87,.11-1.17c1.76-2.36,2.47-3.65,5.57-4.5,1.78,1.35,3.34,4.11,5.41,4.41l-4.48-4.67,2.02-.22,.5,.02c2.27,0,4.22,1,6.5,1h2.5c2.2,0,5.93-1.08,7.99-1l1.42,.04,.27,1.41c1.59-1.85,.72-1.81,3.31-2.44,3.05,.74,4.49,2.15,6,4.5v1c-.64,2.62-1.94,3.99-4,5.58-2.96-2.27-2.21-4.21-6.91-5l-.59,2.91,1.5-2.08c2.5,1.51,3.05,1.47,4.52,4.04v1.58s-1.25,3.02-1.25,3.02l1.86-2.43c3.79-.11,5.21,2.5,7.03,5.41l-3.16,5.96Zm24.36-26.85l.15,1.37c.08,1.65-1.26,3.63-1.65,5.37l-1.32,.9,1.54,1.12-1.86,7.48c-1.95,.17-10.66-4.95-12.63-6.54,2.19-3.16,2.6-4.6,2-8.24l3.62,1.16,1.55,3.66,1.66-1.24c-1.57-1.59-3.8-4.33-6.41-4.16l-1.46,.07c.66,1.44,.46,.71,.46,2.43v.5c0,1.9-.5,3-1.33,4.67l-1.58,.43c-.27,3.46-1.29,6.84-3.76,9.31l-5.15-4.19c1.5-3.09,4.22-4.14,3.7-8.58l-4.78-3.3c1.49-1.92,23.04-10.51,25.9-11.32h2l-1.62,6.95-1.28-.49,2.27,2.66Zm.52-17.99l.73,2.85-.12,1.02-.04,2.38c-3.3,3.14-26.68,10.14-32.39,13.66l-6.55,.47-13-.02c-3.8,0-21.61-2.87-23.48-4.5v-7l24.45,3.75,10.03-.25c5.85,0,15.9-3.15,20.98-5.51,4.16-1.93,15.58-6.25,19.39-6.86Zm-12.38,1.87h-3.5l-1.91-.03c.02-1.79,.42-1.49,.42-3.47v-4c-1.08-4.45-5.17-9.67-5.41-10.91,3.51-.36,9.76-2.99,11.82-5.91l-4.78-2.91-1.13,.24h-1c-2.57,0-4.6,1.25-6.87,2.46,.56-4.79,6.73-6.95,10.86-6.95h2c4.86,0,11.73,4.45,12.36,9.37-1.93,1.52-2.76,1.03-2.74,3.08l1.23-.51,2.97,3.71c.89,7.28-7.71,15.83-14.33,15.83Z"/>
      <path class="cls-1" d="M64.99,110.46l.92-.47,1.58,2.47,.05-1.87c4.22-3.25,3.72-2.6,6.94-6.71l1.83,1.59c-.21-1.81-2.8-3.15-4.28-3.37l1.58,1.83c-1.38,2.25-2.54,3.91-5.12,4.53h-1c-1.73,0-1.82-.59-3.5-1l1.61,1.47-.61,1.53Z"/>
      <path class="cls-1" d="M60.49,68.99c2.04,.13,5.11-1.69,5.37-3.45-1.23,1.02-3.08,1.96-4.87,1.96s-1.71-.63-3.65-.72l1.78,2.16,1.37,.06Z"/>
      <path class="cls-1" d="M92.47,62.49c1.64,0,1.06,.27,1.96-.94l-2.03,.09-1.93-1.15-2.33-1.91c-1.74,2.37,2.42,3.91,4.33,3.91Z"/>
      <path class="cls-1" d="M11.15,104.01c-.6,5.76-1.19,3.29-3.58,6.32h2.33c1.16-1.15,2.13-2.65,2.13-4.37s.27-1.06-.87-1.96Z"/>
      <path class="cls-1" d="M39.59,94.38c-.9,.69-1.08,.13-1.08,1.59l-.03,.5,.12,1.33,1.62,1.27c.86-1.19,.89-.42,.79-2.1l-.06-1.37-1.35-1.21Z"/>
      <path class="cls-1" d="M20.52,53.99h1c1.95-.47,4.48-1.68,2.83-3.91-2.81,3.86-2.95,2.13-6.28,3.78l1.96,.15,.5-.02Z"/>
      <path class="cls-1" d="M117.87,54.08c-1.77,.42-1.41,.35-1.41,2.41v1c.46,1.88,1.11,3.1,2.96,3.37-.97-1.35-1.96-2.58-1.96-4.37,0-1.44,.21-1.18,.41-2.41Z"/>
      <polygon class="cls-1" points="74.48 30.57 74.79 32.32 76.98 32.51 78.2 32.81 81.42 30.11 76.54 31.83 74.48 30.57"/>
    </g>
  </g>
</svg>