<?xml version="1.0" encoding="UTF-8"?>
<svg id="_图层_2" data-name="图层 2" xmlns="http://www.w3.org/2000/svg" viewBox="0 0 104.27 96.39">
  <defs>
    <style>
      .cls-1 {
        fill-rule: evenodd;
      }
    </style>
  </defs>
  <g id="_图层_2-2" data-name=" 图层 2">
    <g>
      <path class="cls-1" d="M95.46,44.95h-1.85c-7.36,0-40.78,16.05-40.78,21.32,0,5.74,10.7,17.88,14.75,20.93,3.54,2.67,7.26,4.71,12.12,5.95,2.32,.59,4.57,1.41,7.41,1.39,5.34-.04,3.97,1.85,6.96,1.85,1.33,0,1.39-2.62,1.39-4.17,4.35-6.49,8.8-11.69,8.8-22.71v-5.56c0-5.33-4.09-19-8.8-19Z"/>
      <path class="cls-1" d="M54.4,61.35c1.84-1.36,2.86-2.29,4.82-3.52,3.52-2.23,7.05-3.84,10.91-5.77,4.73-2.37,18.4-8.96,24.4-8.96,1.99,0,2.51,.54,4.17,.93,.81-1.22,2.32-2.82,2.32-4.63v-1.85c0-3.92-4.72-9.28-7.71-10.36-4.15-1.49-11.92-.3-17.31-.3-1.75,0-.88-.3-2.78-.46l.85,1.52-7.8,2.19c0,6.23-1.2,5.33-6.02,2.78-2.07,1.39-3.51,4.39-6.42,4.61l-.15-.56-5.48,6.61c2.22,.59,5.56,4.62,5.56,7.41v4.17c0,5.36-4.95,9.93-8.8,8.34l-2.32-3.24c-4.25-1.13-8.29-3.3-14.08-4.46-4.73-.95-10.87-2.03-16.04-2.03h-4.17c-5.86,0-5.56,5.25-5.56,11.12v5.56c0,4.58,3.59,11.92,5.68,14.71,.81,1.09,9.3,10.31,9.61,10.31,.23,0,2.11-2.15,4.54-2.88,1.16-.35,4.19-1.43,5.29-2.12,3.64-2.26,5.15-3.28,8.13-6.24,3.63-3.6,8.92-12.84,8.92-19.82,2.28,.19,1.7,.93,3.71,.93h1.85c1.5,0,2.14-2.7,3.89-3.99Z"/>
      <path class="cls-1" d="M8.8,51.9c9.6,0,28.97,3.39,34.29,6.95l2.78,3.24c4.09-.34,6.49-3.43,6.49-7.88,0-4.95-2.16-8.01-5.4-9.89-4.32-2.51-5.52-3.81-9.02-6.31l.38,2.2-6.33-2.65-4.19,2.29c-.86-1.63-.65-3.71-2.32-3.71l-3.24,.04-2.86-.11,1.47-1.78c-2.32,.54-2.97,1.43-6.29,2.06-2.79,.53-4.99,.5-7.46,1.35-3.69,1.27-7.11,5.56-7.11,10.04v.93c0,2.29,1.86,3.71,3.24,4.63,1.53-.36,3.95-1.39,5.56-1.39Z"/>
      <path class="cls-1" d="M28.27,38.93c.85-.57,3.06-2.32,4.17-2.32,.12,0,2.88,2.13,5.1,2.32-.63-1.19-3.71-5.93-3.71-6.49,0-4.78,9.25-13.62,10.2-17.15,2.07,.55,12.51,10.35,12.51,13.44v.46c0,2.03-1.79,4.28-1.58,7.27l4.24-3.62-.26-.72,6.4,1.71v-2.78c0-2.65,4.44-3.24,7.45-3.27l-.5-.9c-2.72-.63-1.69-1.42-5.56-1.39-3.75,.03-3.09-.14-4.76-2.19-2.95-3.6-3.04-4.44-7.01-7.35-2.01-1.47-5.64-4.89-6.96-6.94-1.5-2.33-2.63-9.01-5.36-9.01-3.01,0-4.63,2.98-4.63,6.02v.46c0,1.51,1.69,4.37,2.32,5.56-3.07,4.59-5.24,7.49-8.53,11.86-2.53,3.36-1.79,3.8-3.51,6.68-1.22,2.04-4.18,2.61-6.5,4.16l5.19,.43,1.29,3.74Z"/>
    </g>
  </g>
</svg>