<?xml version="1.0" encoding="UTF-8"?>
<svg id="_图层_2" data-name="图层 2" xmlns="http://www.w3.org/2000/svg" viewBox="0 0 169.78 101.39">
  <defs>
    <style>
      .cls-1 {
        fill-rule: evenodd;
      }
    </style>
  </defs>
  <g id="_图层_2-2" data-name=" 图层 2">
    <path class="cls-1" d="M157.79,32.87h-2.31c-2.87,0-7.65,1.55-9.76,3.2l.53,1.77-2.35-.35,.95-7.91-.82-1.28c-1.9,2.49-6.28,6.13-8.78,8.22-4.43-6.15-4.28-11.67-12.66-17.54-6.57-4.61-12.76-8.8-21.3-8.8h-.46c-2.59,0-4.16,.47-6.3,1.11-2.47,.75-3.22-.65-6.2-.65-1.76,0-1.69-.45-2.78,.78l4.56,.64c-.23,1.12-2.24,2.43-3.34,4.43-1.13,2.06-.61,4.5-2.11,5.71l.42-4.16v-2.78c0-2.19,.08-2.56-.9-4.15l-.03,2.77v1.39c0,2.35-.12,3.52-1.42,5.06l.96-7.37v-.93s.05-2.37,.05-2.37c-1.99-3.16-4.1-7.59-8.81-7.27l.77,1.79c-2.98-2.52-4.95-4.19-9.14-4.19h-.93c-4.66,1.13-8.8,6.41-8.65,11.09l1.32-1.24-1.94,4.49v.93l.02,3.24-.14,1.73c-1.83,1.34-6.32,2.56-9.04,4.38-3.48,2.32-4.86,3.05-7.85,6.04-4.81,4.81-8.21,10.76-9.82,17.48l-.62,5.15-2.64-.99h-1.85c-2.56,0-3.56-1.39-5.48-1.77-.12,2.18,.5,3.12,1.77,4.55l2.17,4.06-1.91,1.64-.29-2.38-1.82-.09c-7.62-.16-18.83,7.45-18.9,15.21l2.12,.13,3.89,3.58c1.31,.13,2.05,.53,3.17,.53,3.41,0,6.15-2.74,9.14-3.12,.65,.9,.68,.17,.58,1.73l-.06,1.27c-2.41,2.37-4.18,1.18-5.5,6.6l-.81,5.13,1.67,1.03,.99-.14h3.7c6.76,0,7.44-5.33,10.15-8.84,1.72,.52,1.71,1.02,1.93,2.86l-2.49,3.08,.18,1.89c.89-.14,1.69-.39,2.74-.39h5.56c2.87-.69,4.31-2.25,6.02-4.17l.54,.46c-3.35,4.33-7.95,3.64-7.95,8.8,0,3.53,1.54,6.55,5.09,7.41h2.78c2.01-.55,3.2-1.61,3.7-3.7v-.93l.15-1-1.19-2.19-1.28-.08-1.36,.16,2.23,1.37,.08,1.28-.08,1.36-2.22,1.43-1.53,.1-2.63-2.09-.05-1.74v-.46c0-3.06,1.62-5.75,4.63-6.48h3.24c1.9,.52,5.58,3.2,8.28,4.22,2.94,1.11,7.07,2.72,10.24,2.72h5.56c2.53,0,4.24,1.39,6.94,1.39h6.48c1.32,0,1.63-.19,2.78-.46,3.81-.08,7.37-2.78,10.65-2.78h1.39l3.69,.55,4.18-.08,5.59-.79,2.28,1.72c1.53,1.34,3.66,1.85,6.02,1.85h.46s1.88-.02,1.88-.02l1.8,.87,.13-2.34-1.94-2.33,.03-2.19,1.85-.98c3.42,5.74,3.89,10.78,13.38,10.69l2.3-.07,.02-1.79c.05-3.48-1.08-6.44-2.66-9.36l-2.91-1.87,.34-2.34c1.33-.46,7.41,2.98,8.89,3.86l2.49,.15,5.59-3.91,1.18,.5,.11-1.89c-2.69-4.36-2.93-6.28-6.88-10.25-1.37-1.37-2.98-2.61-4.64-3.69-2.96-1.92-5.08-1.3-6.69-2.49l2.42-.18,1.91-.07,4.11,2.54,5.58-2.89c-.8-2.81-2.06-1.85-4.17-3.4l.03-2.18,1.8-.95c1.46,2.21,3.93,3.55,6.48,4.17h.93c3.35,0,7.76-1.97,9.8-4.63-2.08-2.72-3.45-6.54-7.02-7.41h-1.39l-1.74-.05-1.22-2.24,1.19-1.32,1.76-.11,3.24,.02h.93c5.56-1.35,5.58-4.21,7.71-8.49l1.51-.43c-2.69-3.76-7.1-6.82-12-6.82ZM97.14,11.57h5.56c15.21,0,32.87,19.69,32.87,34.72v10.18c0,4.4-2.62,15.33-5.14,18.45l.51-3.64-.08-.94,1.01-6.47v-7.41c0-7.04-4.84-18.34-9.09-24.25-4.62-6.42-12.11-11.79-20.08-13.72h-.93l-.48,.08-3.69-.55h-3.7c-1.92,0-1.76,.52-3.24,.48l-1.73-.14c-2.69-4.08,5.2-6.83,8.21-6.83ZM63.34,6.02h3.7c4.45,1.08,7.87,5.21,7.87,9.72,0,2.37-.89,4.2-2.74,5.58h-1.01c-3.59-2.71-2.86-1.97-7.33-2.46,2.48-3.42,6.07-4.79,10.07-4.13-.32-1.63-.33-1.31-2.24-1.31-3.06,0-5.84,1.97-8.28,3.67l-.05-1.81v-.93c0-1.74-.22-.93,.58-2.31l-.57-1.38,3.23-1.41h2.31c1.51,0,1.56,.21,2.74,.34-1.39-1.76-4.11-3.12-6.44-3.12-2.47,0-3.09,1.04-5.05,1.27l3.2-1.73Zm-3.7,14.35h6.48l1.07-.24,3.58,2.52,.08,1.07-1.92,1.79c-2.94-.35-5.62-2.35-9.76-2.35l-2.32-.02-4.56,.57,7.34-3.33ZM13.35,67.13c-2.89,0-5.24,1.89-7.83,2.2,1.85-2.35,10.32-4.51,12.92-4.51h8.8c1.72,0,1.93,.37,3.62,.54l1.49,4.93-7.87-2.75-4.65-.44-6.49,.04Zm20.37,8.82l-.93-.02c-6.6,0-8.99,3.78-13.31,6.9,.66-4.62,11.18-7.91,14.23-9.76l1.78,2.76-1.78,.12Zm15.95,11.23l-6.23-3.38c-1.33-2.01-4.74-4.58-6.94-7.87-1.76-2.63-3.92-7.25-4.63-10.18l-.93-3.7c0-10.6-.16-17.36,5.73-26.21,4.14-6.21,12.34-11.75,20.19-11.75h3.7c2.85,0,4.44,1.63,6.89,1.89l1.05,1.35c-.71,.56-7.06,2.8-9.18,3.86-3.39,1.68-4.9,2.98-7.45,5.52-3.87,3.86-7.99,12.55-7.99,17.94v9.26c0,2.77,1.71,9.52,2.6,12.21,.73,2.19,4.55,9.1,3.16,11.08Zm19.24,5.88h-2.78c-12.04,0-21.3-19.16-21.3-29.17v-8.33c0-5.66,4.38-14.34,8.45-18.4,3.54-3.53,12.29-10.28,17.64-8.61,.42,1.33-4.13,8.96-5.1,10.96-1.26,2.58-3.39,10.43-3.39,13.27l.08,.94-.55,3.69-.08,3.26,.55,3.69v.46c0,6.58,4.4,18.96,7.89,24.96l.07,1.5-1.48,1.78Zm24.89-6.59c-3.27,3.86-6.3,3.68-9.15,5.66-6.93,0-12-3.57-14.97-9.57-2.5-5.06-5.4-14.11-5.4-19.6v-8.8c0-7.99,4.44-24.67,13.43-26.85h1.85c4.05,1.11,11.08,12.01,13.6,16.03,2.87,4.58,6.77,18,6.77,23.32v5.09c0,1.5-.58,3.66-.93,5.09-.77,3.18-3.08,7.12-5.2,9.61Zm12.61,2.42h-2.31c-2.24-.54-4.02-1.95-4.63-4.17v-2.31c0-1.65,.56-3.09,.93-4.63,.37-1.54,.93-2.98,.93-4.63l.1-8.35-1.49-9.24c-1.16-4.79-3.79-11.76-6.64-16.04-1.95-2.93-10.19-10.55-10.05-13.13l.14-1.27c1.17-1,1.42-1.04,3.12-1.04h.46c6.82,0,16.95,7.63,21.19,12.61,5.17,6.07,9.37,17.02,9.37,24.89l.08,5.11-.55,3.69v.93c0,1.92-1.42,7.03-2.31,8.8-.84,3.47-4.86,7.95-8.33,8.8Zm11.63-2.29l-2.37-.02-.5-.89,1.28-4.69,.14-.9c1.44-2.07,2.78-9.32,2.78-12.5v-4.63c0-9.07-3.39-18.69-8.5-25.76-2.14-2.96-5.7-6.41-8.73-8.4-3.75-2.48-9.11-4.18-11.46-5.76l.04-2.65,2.66-1.44,2.37,.02h1.85c19.17,0,32.41,22.04,32.41,39.81v4.63c0,3.3-1.7,12.1-2.96,14.63-2.22,4.45-5.31,6.23-9.02,8.54Zm17.88,7.81c-1.06-.83-2.82-4.01-3.95-5.15-1.19-1.19-4.33-2.87-5.19-4.07,2.95-1.31,8.82,6.49,9.14,9.22Zm.58-19.87c3.76,.91,11.05,3.6,13.39,6.83-2.88-.42-6.88-4.51-14.31-4.51h-.93s-1.93-.15-1.93-.15l.99-2.11,1.86-.06h.93Zm22.64-15.86c-2.48-.29-5.48-3.12-9.68-3.12h-1.39c-1.9,0-2.47,.52-4.17,.93l-6.43,3.2-.05-1.81-.09-.96,.56-1.35c2.15-.05,3.93-.93,6.02-.93h4.63c2.99,0,8.9,1.65,10.61,4.05Zm4.21-19.77l-1.85-.02c-8.05,0-20.13,9.27-23.61,16.2l-.46-.93v-6.48c0-1.79-.4-1.9-.5-3.74,1.9-3.24,1.19-7.69,4.73-10.01l-.99,2.18c-.79,1.13-1.39,2.94-1.39,4.63v2.78c0,1.47-.29,2.34-.89,3.58,2.81-.4,12.75-9.14,21.26-9.14h2.31c1.56,0,2.06,.18,3.2,.81l-1.81,.14Z"/>
  </g>
</svg>