<?xml version="1.0" encoding="UTF-8"?>
<svg id="_图层_2" data-name="图层 2" xmlns="http://www.w3.org/2000/svg" viewBox="0 0 100.52 82.45">
  <g id="_图层_2-2" data-name=" 图层 2">
    <path d="M89.47,19.9c-5.54-4.42-11.6-3.84-16.65,.78-1.75,1.59-2.38,1.23-3.77-.16-3.39-3.42-7.3-5.54-12.3-3.57-1.21,.47-1.42-.19-1.5-1.12-.26-3.05-.35-6.11-.22-9.18,.03-.71,.31-1.54-.54-2.34-1.12,4.33-.82,8.53-.93,12.71-.76-.68-.65-1.52-.7-2.3-.22-4.04,.24-8.03,1.24-11.93,.39-1.51-.26-2.12-1.48-2.62-1.32-.54-1.67,.39-2.1,1.26-2.09,4.31-3.24,8.8-2.79,13.63,.04,.43,.4,1-.13,1.31-.49,.29-.88-.21-1.27-.43-5.81-3.25-11.35-2.82-16.55,1.3-1.07,.85-1.74,.82-2.75-.05-2.78-2.39-5.97-2.74-9.38-1.55-3.87,1.35-6.79,3.95-9.24,7.13-10.64,13.78-11.26,35.15-1.58,49.95,4.39,6.71,13.24,9.65,19.91,5.34,1.18-.77,2.27-.61,3.39,.22,1.48,1.1,3.16,1.87,4.9,2.48,5.32,1.87,10.49,.68,13.26-3.3,1.16-1.66,1.63-1.31,2.66,.04,4.2,5.54,9.25,6.39,15.18,2.71,1.58-.98,3.01-2.16,4.07-3.67,1.16-1.65,1.87-1.52,3.08,.06,3.47,4.53,8.82,5.25,13.57,2.07,3.46-2.32,6.3-5.23,8.19-8.94,6.74-13.16,7.26-26.57,1.39-40.18-1.61-3.74-3.75-7.08-6.98-9.66ZM25.54,73.6c.93,1.35,.32,1.97-.83,2.44-4.35,1.77-8.28,.77-11.88-1.94-3.65-2.75-5.19-6.89-6.96-10.86-.39-.87-.61-1.8-.91-2.71C.95,46.41,2.83,33.36,12.36,21.84c2.24-2.71,5-4.84,8.71-5.21,.8-.08,1.64-.1,2.43,.02,3.8,.55,4.32,1.76,1.9,4.67-4.37,5.27-5.84,11.6-6.73,18.12-1.66,12.16-.29,23.76,6.86,34.17Zm21.13-4.71c.27,.84,.62,1.66,.93,2.49,1.18,3.12,.59,4.68-2.58,5.85-4.59,1.7-8.74,.35-12.46-2.39-3.55-2.62-5.67-6.37-7.43-10.32-.55-1.24-.98-2.54-1.61-4.22-3.1-10.64-2.99-21.65,.88-32.49,1.67-4.68,4.95-8.29,9.38-10.66,4.64-2.48,9.21-1.98,13.47,.96,2.68,1.85,2.96,3.54,1.59,6.45-6.83,14.47-6.96,29.28-2.16,44.33Zm17.36,8.14c-3.82,2.73-7.39,2.35-10.53-1.1-2.88-3.15-4.34-7.03-5.64-10.99-3.7-11.34-3.64-22.75-.47-34.18,.73-2.64,1.91-5.1,3.4-7.4,4.04-6.23,10.61-6.9,15.83-1.66,2.1,2.12,3.62,4.61,4.53,7.43,4.04,12.55,4.36,25.13,.02,37.68-1.4,4.05-3.55,7.65-7.13,10.21Zm27.14-7.77c-1.69,3.07-3.93,5.72-6.99,7.57-3.97,2.41-8.72,1.03-10.78-3.1-.42-.84-.19-1.57,.16-2.34,6.07-13.51,5.45-27.25,1.38-41.1-.56-1.9-1.39-3.7-2.45-5.37-.76-1.2-.6-2.08,.45-3.02,5.04-4.52,11.11-4.37,15.87,.42,2.55,2.58,4.47,5.97,6.69,12.75,2.78,10.4,2.06,22.59-4.33,34.18Z"/>
  </g>
</svg>