<?xml version="1.0" encoding="UTF-8"?>
<svg id="_图层_2" data-name="图层 2" xmlns="http://www.w3.org/2000/svg" viewBox="0 0 127.4 100.22">
  <defs>
    <style>
      .cls-1 {
        fill-rule: evenodd;
      }
    </style>
  </defs>
  <g id="_图层_2-2" data-name=" 图层 2">
    <g>
      <path class="cls-1" d="M127.39,13.52v-1.06s-5.07,.69-5.07,.69l-.41-.43,5-6.42-10.32,1.96,4.14-3.57c-.65-.12-9.91,5.4-10.9,6.06l1.84-3.89-.56-.39-3.76,5.1-.32-.57-6.8-.53-.02,1.4h2.26c-.43,1.61-2.45,3.4-3.96,3.4h-1.7v-2.83l1.71-.54c-.93-1.4-1.67-2.3-3.98-2.3h-.57c-2.3,0-3.05,.89-3.96,2.26,.35,.48,2.28,2.27,2.83,2.27,2.13,0,1.07-.37,3.4-.57l-1.99,2.05,1.56,1.16-5.58,2.88-.73-.77,2.87-4.1c-2.37-.68-1.96-1.77-4.64-1.77h-.57c-2.59,0-3.34,.74-3.4,3.4l5.02,1.41c-.18,2.03-2.41,5.12-5.59,5.38,.09-4.01,1.2-1.25,3.4-4.53-1.34-.71-3.86-2.26-5.66-2.26-2.23,0-3.51,1.44-3.96,3.4l5.54,2.03c-.04,1.61-4.4,6.52-6.1,4.2l4.69-3.12c-2.23-.83-3.3-2.54-4.69-2.54h-2.26c-1.82,0-3.01,1.72-3.4,3.4l5.48,2.79-.38,.61c-2.47-.66-3.07-2.83-6.23-2.83h-.57c-1.91,0-3.96,1-3.96,2.83,0,1.65,2.89,.43,3.96,3.4-2.27-.61-1.85-1.7-4.53-1.7h-1.7c-2.55,0-3.76,.99-3.96,3.4l3.72,1.68-.32,.58c-1.37-.66-2.48-1.13-4.53-1.13h-1.7c-1.95,0-3.23,2.01-3.4,3.96l3.1,1.17-.26,.53c-1.55-.36-2.3-1.13-3.4-1.13-3.06,0-5.42,1.63-5.66,4.53l2.31,.22-4.01,.34-3.98,2.81,.65,2.27-.41-.52-6.43,3.99-.03-4.58c0-2.71-1.66-3.39-2.26-5.66l-2.83,2.26-1.88,4.45c1.95,3.42,1.88,6.91,4.71,6.31l-2.56,3.08-.27-2.51c0-3.32-2.7-5.33-3.4-7.93h-1.13c-.67,2.53-2.83,3.7-2.83,6.79,0,2.19,2.26,2.92,2.26,7.36-1.86-2.68-2.16-6.99-5.66-7.93l-2.86,6.22,4.4,8.3,1.77-1.59-3.29,5.37,.55,.39h3.4c1.84,0,.43,.49,2.83,1.13-2.92,4.35-17.36,12.92-20.32,17.14-3.06,4.36,2.59,.86,3.77-.28,1.98-1.91,2.53-2.55,4.76-4.3,3.56-2.78,6.04-5.89,10.09-8.6l-4,4.49,5.2-2.07c1.44,2.11,4.2,3.24,7.85,3.24,1.97,0,4.53-.74,6.23-1.13v-1.7l1.71-.54,3.93,.68,.16-.59-2.9-.91,3.32-1.47-1.21-1.63c1.12-.31,1.79-.73,2.35-.63l4.51,.66,.02-1.23-1.76-.26,1.77-.85-1.81-2.21,8.01-1.3-3.5-3.77c2.52,.53,1.11,1.02,2.95,1.02,2.69,0,4.09-.63,6.23-1.13l-4.59-4.45c3.32,.19,2.44,2.19,5.16,2.19,1.42,0,3.72-.81,5.1-1.13l-1.73-2.81c1.3,.27,1.34,.54,2.86,.54,2.86,0,3.01-.91,5.66-1.13v-1.13l-4.88-3.15c1.77-2.44,1.92,2.01,6.01,2.01,2.44,0,3.07-.66,5.1-1.13-1.16-1.73-3.39-3.96-6.23-3.96h-1.13c-1.84,0-.43,.49-2.83,1.13l-.23-.72,7.49-2.44-.57,1.98c2.71,.74,1.54,1.74,3.5,1.74h2.83c1.73,0,2.28-.54,3.4-1.13-.93-1.4-3.36-3.4-5.66-3.4h-.57c-1.53,0-1.56,.27-2.83,.57l2.02-3.56c.59,1.43,.38,1.86,1.95,1.86,3.55,0,4.08-4.98,5.66-6.79,0,1.54-.37,3.96,1.13,3.96,3.14,0,5.02-3.98,5.1-7.36l-5.59,1.9c.56-.75,4.79-3.03,5.59-3.03h2.26l-2.04,5.54c4.91,.12,6.8-2.59,7.14-6.67l-3.42,1.08-1.64-.62,2.39-3.16,3.26,.24,.26,1.32,3.81-3.27c-3.47,.15-1.31,1-3.53,1-1.2,0-.75-.2-2.26-.57,.59-.8,5-3.4,6.23-3.4,1.47,0,.58,.38,2.83,.57v-1.13h-2.83l3.4-2.26c1.02-.68,1-1.13,2.26-1.13h5.1v-1.13h-4.53l4.55-3.37,6.22-.51v-1.21s-5.09,.71-5.09,.71l3.62-3.86,4.85-.88Zm-17.54-.5c0-2.43,3.85-3.09,5.66-3.96,0,3.2-.48,6.79-3.4,6.79h-2.26v-2.83Zm-6.23,2.83c0-2.22,3.43-3.78,5.66-3.96,0,4.62-1.13,7.83-5.66,7.93v-3.96Zm-6.23,3.96c0-2.83,2.9-4.51,5.1-5.1v4.53c0,1.16-1.83,3.96-3.4,3.96h-1.7v-3.4Zm-6.23,2.26c0-1.97,3.11-3.8,5.1-3.96v3.96c0,3.04-2,5.03-5.1,5.1v-5.1Zm-1.84-1.3c.44,1.44,.71,1.47,.71,3v2.26c0,3.06-2.21,4.86-5.1,5.1v-2.26c0-1.72-.26-2.07-.77-3.63l5.15-4.46Zm-11.18,8.66c0-2.07,2.99-4.35,5.1-4.53,.15,1.77,.57,2.01,.57,3.96v.57c0,2.52-2.05,5.66-4.53,5.66-.79,0-1.13-.77-1.13-1.7v-3.96Zm-2.02-1.47c.62,1.61,.89,1.64,.89,3.17v3.4c0,3.17-1.92,4.46-5.1,4.53l-.73-6.41,4.94-4.69Zm-6.82,3.94c.82,2.39,1.48,3.03,1.48,5.46v.57c0,3.34-2.11,5.58-5.66,5.66v-2.26l-.77-4.75,4.95-4.68Zm-6.45,3.76c.57,2.44,1.7,3.1,1.7,6.23v1.13c0,1.94-2.77,5.03-5.66,5.1v-3.4c0-2.45-1.13-2.28-1.13-3.96,0-.83,4.28-4.55,5.1-5.1Zm-6.23,3.96c.24,2.83,1.7,4.88,1.7,6.79v1.13c0,1.27-2.35,4.53-3.96,4.53h-2.26c0-5.95-1.11-10.95,4.53-12.46Zm-8.15,4.35c2.26,1.67,3.06,5.17,3.06,8.67,0,.93-2.22,4.53-3.96,4.53h-1.7l-1.87-7.49,4.48-5.7Zm-6.4,3.86c1.08,3.23,2.66,5.02,2.66,8.21v1.7c0,2.52-2.87,4.3-5.66,4.53v-2.83c0-1.77-1.04-3.28-1.95-4.71l4.95-6.9Zm-6.4,5.38c.58,2.5,2.26,3.84,2.26,6.23v2.83c0,3.61-2.77,4.43-5.1,5.66,0-5.65-1.7-7.19-1.7-9.63,0-1.69,2.76-4.62,4.53-5.1Zm-12.46,14.72v-.57c0-3.75,2.92-8.17,5.1-9.63,1.95,1.31,3.4,4.13,3.4,7.36v1.7c0,2.86-2.04,5.66-5.1,5.66-1.83,0-3.4-2.46-3.4-4.53Zm9.63,13.02h-2.83c-3.62,0-4.01-2.26-5.1-4.53,1-1.89,2.15-3.4,5.1-3.4h1.13c4.18,0,7.38,3.15,9.06,5.66-2.85,.66-3.72,2.26-7.36,2.26Zm6.81-5.05l-8.51-4.01c.54-2.32,2.33-3.96,5.1-3.96h1.13c3.61,0,7.19,3.2,8.49,5.66l-6.21,2.31Zm12.44-7.41c-2.99,.25-3.26,1.7-6.79,1.7-.77,0-4.49-2.73-7.36-3.4,.57-2.46,2.19-3.96,5.1-3.96h1.13c4,0,4.8,3.7,7.93,4.53v1.13Zm-.57-2.85l-7.36-3.95c.55-2.05,1.98-3.4,4.53-3.4h2.26c2.7,0,6.21,2.92,6.79,5.1l-6.23,2.25Zm6.23-5.65c-1.57,0-3.63-2.23-6.23-2.83,.06-2.83,1.1-3.96,3.96-3.96h2.26c1.52,0,5.73,3.21,6.23,5.1-2.44,.57-3.1,1.7-6.23,1.7Zm6.23-4.53c-1.4,0-3.36-2.73-6.23-3.4,.22-2.61,2.49-3.4,5.1-3.4s6.2,2.87,6.79,5.1c-2.01,.47-3.96,1.7-5.66,1.7Zm5.66-4.53c-.64,0-2.6-2.58-5.66-2.83,.15-1.82,1.01-3.4,2.83-3.4h2.83c2.53,0,5.19,2.41,6.23,3.96-1.46,.77-4.13,2.26-6.23,2.26Zm6.25-4.48c-1.34-.75-5.11-2.39-5.11-4.01,0-.61,1.66-2.26,2.83-2.26h2.26c2.53,0,5.19,2.41,6.23,3.96l-6.21,2.31Zm6.21-4.58c-2.11,0-1.22-1.94-5.1-2.26,.06-2.66,.81-3.4,3.4-3.4h1.7c2.63,0,4.59,1.8,5.66,3.4-1.35,.71-3.86,2.26-5.66,2.26Zm5.66-4.53c-.87,0-4.53-1.89-4.53-3.4,0-1.02,3.11-2.26,4.53-2.26,1.83,0,4.83,2.26,5.66,3.4-1.12,1.53-3.04,2.26-5.66,2.26Zm6.23-3.96c-.87,0-4.53-1.89-4.53-3.4,0-1.07,2.09-1.7,3.4-1.7h1.13c2.48,0,4.55,1.36,5.1,3.4-2.28,.53-2.83,1.7-5.1,1.7Zm5.66-3.96c-1.32,0-1.68-1.17-3.96-1.7,.2-2.41,1.42-3.4,3.96-3.4s4.55,1.36,5.1,3.4c-2.28,.53-2.83,1.7-5.1,1.7Zm6.23-3.96c-1.22,0-3.96-1.21-3.96-2.83,0-1.13,2.35-2.26,3.96-2.26s3.27,1.78,5.1,2.26c-.95,1.43-2.76,2.83-5.1,2.83Zm5.66-3.96c-1.1,0-1.84-.77-3.4-1.13,.15-1.82,1.01-3.4,2.83-3.4h1.7c2.06,0,1.99,.67,3.96,1.13-.48,1.81-2.83,3.4-5.1,3.4Zm5.1-4.53c-1.2,0-.75-.2-2.23-.54l1.89-3.29,3.17-.13c.93,0,1.7,.34,1.7,1.13,0,1.11-2.67,2.83-4.53,2.83Zm0-5.1c.2-2.41,1.42-3.4,3.96-3.4h2.26l-1.21,3.36-5.02,.03Z"/>
      <path class="cls-1" d="M13.59,74.17h1.13c2.86,0,3.96-4.19,3.96-7.36,0-2.37-3.37-6.75-5.66-7.36-.75,3.2-2.83,4.49-2.83,8.49v1.13c0,1.94,1.47,5.1,3.4,5.1Z"/>
      <path class="cls-1" d="M37.37,48.13c1.56,0,3.4-2.81,3.4-3.96v-1.7c0-2.05-.48-3.16-1.13-4.53l-1.16-2.25-2.23,2.25c-.36,.53-2.26,3.41-2.26,3.96,0,1.48,1.63,2.96,1.7,6.23h1.7Z"/>
      <path class="cls-1" d="M52.66,32.27v-1.13c0-2.44-.66-3.07-1.13-5.1-1.66,.44-5.1,4.39-5.1,5.1,0,2.43,1.13,2.91,1.13,6.79,3-.7,5.1-2.08,5.1-5.66Z"/>
      <path class="cls-1" d="M44.16,42.46c1.06-1.58,2.26-1.96,2.26-4.53v-1.7c0-2.5-.84-4.03-1.7-5.66l-4.53,6.79,1.73,5.79,2.23-.69Z"/>
      <path class="cls-1" d="M55.49,32.27c1.93,0,3.4-3.15,3.4-5.1l.13-.59-1.11-5.48-5.54,5.78,1.43,5.38h1.7Z"/>
      <path class="cls-1" d="M60.02,27.74c2.79-.06,5.1-1.66,5.1-3.96v-6.23l-.47-.5-5.55,5.22c.75,1.18,.92,1.32,.92,2.64v2.83Z"/>
      <path class="cls-1" d="M3.88,97.28l19.96-15.67c-5.22,.36-18.67,11.27-19.96,15.67Z"/>
      <path class="cls-1" d="M72,18.1l-.66-4.51c-1.36,.91-5.1,3.12-5.1,5.1v3.4c0,4.75,6.04-1.7,5.76-3.98Z"/>
      <path class="cls-1" d="M78.14,13.02v-2.26c-2.26,.19-5.66,2.41-5.66,4.53v3.96h1.7c2.41,0,3.96-3.5,3.96-6.23Z"/>
      <path class="cls-1" d="M84.93,9.06v-1.7c-1.98,.46-5.66,2.34-5.66,4.53v3.96c3.77-.08,5.66-2.97,5.66-6.79Z"/>
      <path class="cls-1" d="M14.16,78.14c0,.07,1.01,2.03,1.15,2.29l8.65-7.17c-4.81-.21-9.8,.65-9.8,4.89Z"/>
      <path class="cls-1" d="M91.72,4.53c-2.21,.18-6.23,2.49-6.23,4.53v2.83c4.69,0,6.13-2.92,6.23-7.36Z"/>
      <path class="cls-1" d="M88.33,45.86h-.57c-1.74,0-2.45,1.4-2.83,2.83,2.6,.69,1.43,1.7,3.4,1.7h.57c1.95,0,2.19-.42,3.96-.57l1.66-.67-1.66-1.59c-1.25-.66-2.76-1.7-4.53-1.7Z"/>
      <path class="cls-1" d="M91.72,45.3c0,.71,1.05,1.13,1.7,1.7,2.93,1.41,5.54,.45,7.36-1.13-1.8-1.2-3.15-2.83-6.23-2.83-.09,0-2.83,1.63-2.83,2.26Z"/>
      <path class="cls-1" d="M92.29,6.23v2.26h1.7c3.48,0,4.53-2.71,4.53-6.23-2.3,.19-6.23,1.78-6.23,3.96Z"/>
      <path class="cls-1" d="M104.18,39.63c2.23,0,4.61-4.15,5.1-6.23-6.42,.53-9.37,6.23-5.66,6.23h.57Z"/>
      <path class="cls-1" d="M102.48,40.77h-1.13c-1.6,0-2.18,1.3-2.94,2.62l5.77,1.34,3.42-1.08-1.15-1.19c-1.23-.82-1.88-1.7-3.96-1.7Z"/>
      <path class="cls-1" d="M116.07,33.41c-.95-2.35-2.68-.77-5.1-.57-.44,.66-3.01,4.53-.57,4.53,3.01,0,4.23-2.31,5.66-3.96Z"/>
      <polygon class="cls-1" points="118.34 36.8 115.49 36.22 112.51 38.13 114.94 40.2 121.17 39.07 121.1 38.09 118.34 36.8"/>
      <path class="cls-1" d="M109.28,38.5h-.57c-1.84,0-.43,.49-2.83,1.13l.03,1.61,1.1,.65,6.79-.57c-.5-1.88-2.26-2.83-4.53-2.83Z"/>
      <path class="cls-1" d="M99.09,10.19c1.66,0,4.34-2.27,5.1-3.4-1.98-.46-1.91-1.13-3.96-1.13-1.37,0-2.74,2.42-3.4,3.4,.23,.12,2.2,1.13,2.26,1.13Z"/>
      <path class="cls-1" d="M3.42,91.7c-.82,3-3.33,4.49-3.42,8.52,2.93-.78,3.81-4.94,5.1-7.36l-1.68-1.16Z"/>
      <path class="cls-1" d="M116.64,33.97l-.54,1.05,2.8,1.22,4.53-3.4c-1.52-.36-1.07-.57-2.26-.57-2.35,0-3.54,.35-4.53,1.7Z"/>
      <path class="cls-1" d="M106.45,2.26h-4.53c-1.67,0-1.95,.96-2.26,2.26l4.39,1.03,2.4-3.3Z"/>
      <path class="cls-1" d="M13.02,77.57l-6.79,10.19c2.62-1.75,6.7-6.06,6.79-10.19Z"/>
      <path class="cls-1" d="M94.56,0c-2.12,.57-2.32,1.21-2.83,3.4,1.53-.55,2.39-1.76,2.83-3.4Z"/>
    </g>
  </g>
</svg>