<?xml version="1.0" encoding="UTF-8"?>
<svg id="_图层_2" data-name="图层 2" xmlns="http://www.w3.org/2000/svg" viewBox="0 0 140.34 135.08">
  <defs>
    <style>
      .cls-1 {
        fill-rule: evenodd;
      }
    </style>
  </defs>
  <g id="_图层_2-2" data-name=" 图层 2">
    <g>
      <path class="cls-1" d="M140.28,80.23l.07-2.05c-3.83-6.19-5.86-10.44-14.54-10.44l-5,.02-2.38-.13-1.08-1-.04-2.38v-2c5.5-.49,10.49-4.07,10.49-9.99,.95-2.49,4.44-3.62,5.5-8v-4c-2.05-7.85-7.59-7.51-12.96-10.52l-2.54-.06-5.87,.53,2.95-4.4-.44-3.99c-.48,4.2-2.54,7.86-6.56,9.52-4.85,2.01-6.44,3.16-10.51,5.31,.78-3.7,1.95-4.32,1.95-8.87,0-10.67-7.38-18.15-17.51-11.49l-1.32-.41c-1.23,1.59-.59,1.76-2.65,2.49-1.99-3.16,.18-4.97-2.14-6.7l-1.99,3.24-.91-1.58c.07-2.44-.05-3.74-2.16-5.16l-1.9,3.82-1.44-2.66c.06-2.21,.56-1.92-1.17-3.17l-1.52,2.9-1.31-1.72,.14-2.14-1.62-1.43-2.51,1.65c-1.31-1.8-2.83-6.15-6.02-5.27l.38,8.23-2.67-.99c-1.43,2,.48,3.47,.19,7.07l-3.3-1.1-.05,1.95c1.04,1.58,1.43,1.43,1.36,3.59l-3.27-.5c.03,2.72,2.32,3.13,2.87,5.37l-2.87,.13c-.25,3.24,1.82,6.5,3.44,9.38l.07,1.61-1.58,1.4c-3.3-1.92-1.63-7.34-4.66-9.61l-2.15,2.55c-.51-2.63,.55-6.61-1.09-8.3-1.07,1.46-1.44,3.02-2.96,3.25-.45-2.94,.46-3.95-1.37-6.89l-2.77,3.01c-2.19-2.24,.33-4.06-2.93-5.89l-2.28,3.66-4.51-3.69-.42,4.8c-2.63-.39-1.14-3.35-4.3-3.25l-.16,3.72c-2.97-.9-2.56-3.39-5.47-3.1l.98,3.59c-3-.16-3.86-3.14-7.43-2.58l1.92,4.6c-3.01,.16-3.13-1.79-7.81-1.24l-.16,2.02,4,5.31-4.28,.21c.45,3.73,4.69,2.72,4.78,5.79l-3.77,.2c.39,2.55,3.78,1.58,5.33,3.87l-3.93,2.14,5.51,1.98-4.05,2.38c1.48,2.03,3.23,1.45,5.11,2.8l-2.56,3.51c2.95,2.06,3.27-.66,6.6-.03l-1.57,4.01c3.58,.65,3.73-1.77,6.72-1.72,.23,2.68-1.26,1.22-1.73,4.21,4.32,.78,4.08-2.73,7.93-2.06l-1.4,3.09c3.72,.58,6.64-1.54,10.06-.54,.47,1.74,.41,1.69-1.2,2.7h-3.99s-.5-.01-.5-.01c-2.51,0-3.84-.39-6.07,.98l1.43,3.06-5.64-1.24-.41,.53,1.6,3.12-5.31,.22c.06,2.27,.55,.61,1.9,2.84-2.29,3.09-3.98,.04-6.52,2.5l1.61,2.48c-2.52,1.37-5.83,.89-7.57,4.25l7.84,2.29-.78,2.76c3.2,.58,3.84-1.06,5.83,.34-1.63,4.17-10.39,6.13-12.92,16.84l-1.92,3.95,1.89,.13,.03,1.91c.07,3.05-1.65,6.85-1.42,9.96l2.48,.16-.48,2.33,1.94,.15-.94,5.84,1.88,.13,.12,2.38,1.91,.03h1.5l1.18-.19,1.27,1.22,1.54-.03,.45,.47-.38,2.01,2.43,.02,1.52,.14,6.93-1.08,.13,1.82,2-.29-.58,2.29c2.53,.2,9.72-2.91,12.43-3.93,3.74-1.41,7.13-4.75,7.65-8.84l4.86-4.21,.04-2.38c.06-2.47-.58-4.07-2.04-5.94l.33-2.64,2.59,4.07c.05-2.75-2-8.04-4.39-9.93l.9,3.44c-1.99-1.66-1.85-2.79-5.36-5.38,6.79-.62,8.29,2.7,11.42,6.87l.11-2.03c-1.82-2.94-2.35-4.78-5.36-6.98l2.68-7.91,2.82,3.4,1.24-1.41,.06,1.96v30.98c0,6.22,4.16,9.49,10.24,9.49h42.22c3.49,0,3.88-.88,6.66-2.34l2.37-4.1-.06-2.59,.87-1.62,1.6-.89c4.71,.2,8.69-.48,12.37-3.13,4.4-3.17,4.33-5.37,6.54-9.28l.64-7.03-.1-1.01,.59-4.98-.1-4.51,.59-4.98v-7Zm-27.98-48.47h2c3.83,0,5.69,2.02,8.37,3.95-.26-1.83-2.54-3.27-3.87-4.45,6.1-.01,13.49,4.31,13.49,10.99v2c-.62,2.25-2.76,5.36-5.04,6.04-2.83-3.63-4.66-5.72-9.87-6.12,.03-2.27,1.04-1.95,2.37-3.78-2.45,.35-2.43,2.59-4.47,3.27l-4.02,.64c-4.51-5.78-5.42-3.43-9.91-5.97l2.47-.32-2.01-.72-2.46-.15c1.99-2.77,9.68-5.37,12.95-5.37Zm-30.4-14.41c2.45-.99,4.33-2.58,6.91-2.58,5.78,0,9.49,6.35,9.49,11.49v4l-.74,2.01-2.31-5.61-.5,.22,1.16,2.84-.11,1.04v3.5c0,1.86-.49,3.84-1.96,5.04l-4.92-3.75,1.39-2.12-2.01-.19c-1.91-.05-1.02,.57-3.41,.44,.39-2.34,2.68-3.92,4.33-5.58l.09-2.73c-2.66,.02-2.58,1.2-4.83,2.32-1.21-1.63,.38-4.17,1.37-5.87l-.08-1.96c-3.18,.62-.86,2.78-4.37,2.83l-.1-1.91c-.01-1.22,.45-1.92,.6-3.41Zm-18.14,14.84l-2.01-10.36-3.3-.71-3.22-2.6c2.09,.14,3.21,2.08,6.34,2.06L54.89,3.8c2.94,2.39,6.44,14.78,7.93,16.06l2.94-6.56c.29,3.59-.88,5.24-2.97,7.89l2.29,10.44c4.54-.79,6.61-6.27,9.13-8.37,.06,3.34-5.5,9.04-8.81,9.55l-.08,3.86c-2.17-.43-1.42-.96-1.55-3.36l-3.49-.05c-2.15-1.29-5.96-2.38-6.31-5.01,3.12,1.87,6,4.07,9.8,3.93ZM21.36,52.26l-3.42-.17c2.78-1.35,11.77-.77,14.86-5.78l-8.95-6.6c-3.39,1.06-8.64,6-13.41,3.69,4.68-.65,8.34-1.23,11.81-4.81l-9.94-8.02,.32-.42,10.39,7.49c1.72-2.16,1.34-3.2,1.34-5.89v-1.5c0-3.08-.55-6.19-1.88-8.8,1.96,1.01,2.61,5.44,3.07,7.61,.93,4.36-.03,5.35-1.34,9.26l9.59,6.31c1.53-2.32,1.55-4.63,1.55-7.38v-2c0-3.76-1.43-7.21-1.37-9.4,1.98,2.32,2.87,8.24,2.87,11.4v1c0,3.6-.04,4.31-1.57,7.67l11.51,7.21c3.24-4.92,.76-9.78-.4-14.7,4.11,1.95,5.47,22.87-8.49,20.63,2.44-1.15,5.66-1.14,7.59-3.99l-10.64-7.36c-5.19,1.63-5.05,4.71-13.49,4.56Zm-1.54,31.44h1.58s3.84,2.15,3.84,2.15c.07,2.37-1.88,3.62-1.87,7.87l-.05,1.87-2.37,1.28-1.08-.16h-1.5l-4.5,.5-1.53-.12,.44-1.83-1.83-.13c.78-4.67,4.8-9.07,8.87-11.43Zm6.1,37.91l-.14-1.37-1.96-.15,.86-5.23,2.73-.06,.96-.6,1.06,.14,5.6-2.5,1.75,.45-2.03,7.78c-2.23,1.76-5.01,1.63-7.87,1.63l-.94-.08Zm-1.56-7.91l-1.91-.03-.13-1.88-1.55-.35c.9-3.35,1.81-8.19,4.22-10.6l4.36,.43,2.01-.06h1l1-.5,.91,.09c-.26,1.54-.91,3.73-.91,5.41v1.5s.09,1.91,.09,1.91l1.33,.42c-2.02,2.03-7.62,3.42-10.41,3.67Zm-11.91-7.54c-.22-2.95,1.03-5.19,2-7.86l6.91-.59c.67-.07,.9-.05,.96-.03-.03-.04,0-.17,.54-.56l1.58,1.59c-2.08,2.72-3.57,6.15-4.16,9.4l-1.91,.1h-2.5s-1.91-.04-1.91-.04l.44-1.85-1.94-.17Zm20.9-6.45h-7.41s-.13-1.92-.13-1.92l-1.45-.08c0-4.19,.06-8.44,3.5-11.08,4.39,2.64,6.37,5.61,9.24,10.29l-3.74,2.79ZM1.96,105.16l.92-2.95,.43-.46,.16,1.9,1.26,.17,.78,1.83,1.37,.06c1.53,.1,2.41-.29,3.46-.96l-3.91-.13-.13-1.87-1.97-.16,.44-2.29-.97-.09c1.53-2.53,4.31-8.38,7.13-8.86l-1.51,4.3,2.49,.19-.63,2.05,1.59,.82-1.76,6.33c-1.18,1.07-4.64,1.76-6.23,1.66l-1.46-.07,.52-1.29-1.97-.18Zm1.95,12.98l.51-1.3-1.97-.18,1.5-8.36c1.96-.36,4.58-1.09,6.41-1.09h.5l1.91,.03,.1,1.97c0,.67-2.25,7.83-2.64,8.37-1.54,.18-2.98,.68-4.37,.63l-1.96-.06Zm7.86,8.96l-1.9,.09h-1s-1.95-.08-1.95-.08l-.14-1.8-1.43-.57,1.12-4.89,3.01-.74,.85,1.03,2.02-.36-.07,2.02,1.08,.86-1.59,4.44Zm1.07-6.03l.44-1.82-1.84-.17,1.92-6.87,1.12-2.45,1.87-.05,1.5-.02,1.79,.13-.21,2.85,1.98,.17-.48,2.33,2.2,.15-.6,4.13-1.19,.26c-.11,.55-5.7,1.52-6.5,1.51l-2.03-.14Zm7.52,9.62h-3.5s-1.96-.08-1.96-.08l-.04-1.42-1.41-.59c-.25-3.28,1-3.55,1.53-6.19l7.34-1.63,2.5,.5,.04,1.42,1.99,.61-2.32,6.55c-1.31,.44-2.74,.83-4.17,.83Zm7.08,2.91l-.17-1.86-1.33-.14c-.19-2.44,1.14-5.87,2.21-8.27l5.9-1.28,.39,1.6,1.87,.13,.24,2.18,7.22-2.17c-.05,5.48-12.03,9.11-16.32,9.82Zm20.38-22.89l1.52,3.49v1l.02,.5-.15,1.87c-4.06,4.67-5.08,3.89-9.82,6.67l-1.98-.13-.14-1.37-2.16-.22,2.87-9.77,1.87-.05h1.5c2.36,0,4.25-.87,6.47-1.99Zm-.93-3.55l-.18,1.91c-1.47,1.47-3.25,2.13-5.37,2.13h-3s-1.95-.08-1.95-.08l-.13-1.86-1.33-.14c-.3-4.17,.04-8.39,3.41-10.99,4.65,3.55,5.11,4.47,8.54,9.04Zm-2.05-8.95h-2.5c-2.72-.66-4.79-2.86-5.5-5.5-1.12-4.21-2.51-3.91-4.45-6.37,1.8-.05,2.32,.75,3.83,1.83,.36-3.98-2.83-4.79-4.37-6.95,7.11,1.69,5.76,5.37,8.37,7.45,.25-2.73-.45-2.43-1.83-4.33,3.08,.36,4.04,2.35,5.48,4.83l.18,1.71-3.66,4.78,2.07-.15,5.35,3.08c-1.27-.15-1.33-.37-2.96-.37Zm.09-2.63c.02-1.82,.18-1.58,1.28-2.24l.54,2.36-1.83-.12Zm3.02-22.75c-.35,4.53,1.01,9.81-3.48,13.9,.32-3.08,2.37-4.1,2.37-8.52l.12-1.01-.71-3.35c-.82,.1-8.27,2.99-10.6,3.67-3.76,1.09-7.92,2.2-12.26,2.2l-8.54,.11-6.47-1.08,3.11-.03h8.37s3.09-.11,3.09-.11l-.94-2.05-3.63-2.25c2.68,.01,4.08,1.79,5.59,3.8,3.04,.3,8.47-.31,10.48-1.91-4.86-6-4.59-4.21-10.08-7.38,5.16-.3,8.79,3.98,11.49,7.6l10.08-4.22c-5.24-8.13-6.42-5.53-12.09-9.47,6.91,.14,9.91,4.53,13.48,9.04l6.46-3.99c-.54,2.41-3.88,3.59-5.83,5.05Zm63.22,58.22c-1.46,.21-2.32,.63-3.87,.63h-40.97c-2.52,0-4.62-.94-6-3l1.63,.87c1.46,.21,2.32,.63,3.87,.63h42.47c2.64,0,3.25-.95,5.63-1.33l-2.76,2.2Zm-39.87-9.98l-2.97,.62c-2.56-.62-5-2.52-5-5.5v-45.47h3v44.97c.85,3.5,2.7,3.52,4.97,5.38Zm32.66-.11l-3.65,.73c-2.63-.72-5-3.06-5-6l.12-45.53,2.85,.64,.03,1.91v42.47c1.15,4.76,2.69,3.83,5.65,5.76Zm8.67-59.41c-1.81,5.49-5.36,7.67-11.32,7.67-7.95,0-6.9-2.13-11.99-5.51h-3s-1,.01-1,.01c-2.45,0-4.43-.91-5.97,.31l2.94,.78,.03,1.91v49.47c1.18,4.86,4.1,2.88,5,5h-1.5s-3.03,.04-3.03,.04c-3.72-2.09-3.96-3.92-3.96-8.03l.02-44.97-.09-3.35-6.88,3.39c-4.59-.13-5.85,.95-10.95-.11-3.64-.76-5.6-3.12-8.3-4.19-.36-.9-2.18-4.08-2.78-5.19l-.1-3.12,2.94-4.88-1.68-4.96c3.1-5.07,5.13-7.07,11.35-7.07h2s3.03,.04,3.03,.04c3.79-2.13,5.82-3.03,10.46-3.03h1.5c7.69,0,8.4,1.85,13.96,5.46l5.02-.46h1.5s3.15-.21,3.15-.21l6.84,4.71c6.89-.02,11.47,.14,15.01,6.46l.02,3.07c-4.32,7.66-6.05,4.78-12.2,6.78Zm18.66,25.16c0,1.91-.36,1.81-.5,3.5l-.5,7v4c0,4.69-3.22,10.49-7.99,10.49h-2c-2.26-.55-2.45-.74-3-3v-28.48l-.1-1.04,.69-1.87,1.91-.6h4.5c4.64,1.12,7,4.87,7,9.49v.5Z"/>
      <path class="cls-1" d="M26.29,109.33l-2.26-1.38-.22-3.2-1.02,1.96,.24,2.68,1.73,.42,1.04,2.36,2.05,.06c1.42,.03,1.5-.18,2.46-.89l-3.87-.16-.15-1.84Z"/>
      <path class="cls-1" d="M28.27,95.8l-2.1-.29-.41-3.26-1.07,3.21,2.43,1.56,.43,1.87,2.29,.38c1.71,.13,1.63,.12,2.46-.94l-3.64-.28-.41-2.26Z"/>
      <polygon class="cls-1" points="39.15 107.02 36.92 106.24 36.8 102.75 35.79 104.72 36.03 107.39 37.76 107.81 38.05 109.9 40.34 110.27 42.31 110.15 39.42 109.17 39.15 107.02"/>
      <path class="cls-1" d="M39.31,119.78l-1.37-.14-.48-2.95-.75,4.37,1.57,.18c.34,1.68-.47,1.44,1.58,1.44,1.44,0,2.09-.27,2.96-1.37l-3.34,.46-.16-2.01Z"/>
      <polygon class="cls-1" points="109.78 47.8 109.14 49.75 111.41 51.35 112.93 49.76 112.22 47.76 109.78 47.8"/>
      <polygon class="cls-1" points="84.37 42.31 84.65 44.64 87.6 44.44 87.97 42.57 85.77 41.18 84.37 42.31"/>
      <path class="cls-1" d="M15.57,119.39c1.2,.34,.91,.4,2.3,.31l1.46-.07-1.96-.93-.91-.58-.14-1.84-1.95-.58-.73-1.99-.29,1.49,.09,1.38,1.83,.78,.31,2.03Z"/>
      <polygon class="cls-1" points="30.16 129.01 28.45 128.59 27.96 125.69 27.2 130.07 28.78 130.25 29.31 132.12 32.92 131.11 30.48 131.25 30.16 129.01"/>
      <path class="cls-1" d="M72.83,52.24l.32,2.34,2.65,.07,.04-1.42c.06-1.59,.03-.63-.33-1.67-2.23-.69-.92-.44-2.67,.67Z"/>
      <polygon class="cls-1" points="63.49 47.56 61.23 46.14 59.72 47.63 61.31 49.85 63.12 49.44 63.49 47.56"/>
      <polygon class="cls-1" points="14.82 96.15 18.87 95.58 15.45 95.18 15.32 93.3 13.75 92.74 14.35 90.29 12.22 93.44 14.26 94.38 14.82 96.15"/>
      <polygon class="cls-1" points="15.82 107.64 18.32 107.68 16.68 106.94 16.1 105.02 14.45 104.17 14.31 101.25 13.3 103.22 13.57 105.4 15.28 105.81 15.82 107.64"/>
      <polygon class="cls-1" points="9.33 116.13 7.18 115.46 6.61 113.52 4.69 112.94 3.9 110.75 3.91 113.58 5.25 114.36 5.82 116.13 7.87 116.22 9.33 116.13"/>
      <path class="cls-1" d="M17.78,126.8l-1.67-.41-.67-2.15-.09,2.46c.58,1.39-.82,.61,1.36,1.11l.78,1.83,1.38,.09,1.98-.33-2.78-.51-.29-2.09Z"/>
      <polygon class="cls-1" points="30.82 121.13 27.93 120.16 27.81 118.28 26.17 117.97 25.38 115.75 25.4 118.57 26.74 119.36 27.31 121.13 29.36 121.22 30.82 121.13"/>
      <path class="cls-1" d="M89.65,48.92h2.03l-.19-1.84c-1.71-.54-2.44,.09-1.84,1.84Z"/>
      <path class="cls-1" d="M66.33,41.16c-1.37,1.28-1.78,1.2,0,2.67,1.54-1.28,1.54-1.39,0-2.67Z"/>
      <path class="cls-1" d="M74.83,38.67c-1.37,1.28-1.78,1.2,0,2.67,1.54-1.28,1.54-1.39,0-2.67Z"/>
      <polygon class="cls-1" points="95.35 42.83 95.33 44.66 97.3 44.66 97.23 42.77 95.35 42.83"/>
      <polygon class="cls-1" points="70.06 41.6 69.18 43.55 72.03 43.1 72.02 42.59 70.06 41.6"/>
      <polygon class="cls-1" points="81.24 37.27 79.87 37.34 79.85 38.66 81.3 38.67 81.24 37.27"/>
      <polygon class="cls-1" points="113.35 54.83 113.33 56.15 114.78 56.15 114.72 54.76 113.35 54.83"/>
      <polygon class="cls-1" points="117.84 54.33 117.83 55.65 119.28 55.65 119.22 54.26 117.84 54.33"/>
      <polygon class="cls-1" points="70.75 38.77 69.37 38.84 69.36 40.16 70.81 40.16 70.75 38.77"/>
      <polygon class="cls-1" points="66.71 51.52 68.96 51.52 67.67 50.07 66.71 51.52"/>
      <polygon class="cls-1" points="63.68 55.92 64.75 54.26 62.73 54.45 63.68 55.92"/>
      <polygon class="cls-1" points="92.67 44.93 93.73 43.27 91.71 43.46 92.67 44.93"/>
      <polygon class="cls-1" points="114.14 51.62 115.79 52.66 115.58 50.63 114.14 51.62"/>
      <polygon class="cls-1" points="56.17 50.12 57.82 51.16 57.62 49.13 56.17 50.12"/>
      <polygon class="cls-1" points="103.64 49.62 105.29 50.66 105.09 48.63 103.64 49.62"/>
      <polygon class="cls-1" points="117.82 49.66 119.48 48.6 117.84 47.83 117.82 49.66"/>
      <polygon class="cls-1" points="101.33 49.66 102.99 48.6 101.35 47.83 101.33 49.66"/>
      <polygon class="cls-1" points="82.93 45.75 83.74 43.77 82.19 43.92 82.93 45.75"/>
      <polygon class="cls-1" points="104.15 47.41 105.79 47.66 105.47 46.08 104.15 47.41"/>
      <polygon class="cls-1" points="78.98 47.91 79.24 46.27 77.68 46.56 78.98 47.91"/>
      <polygon class="cls-1" points="82.74 41.27 81.18 41.56 82.48 42.91 82.74 41.27"/>
    </g>
  </g>
</svg>