<?xml version="1.0" encoding="UTF-8"?>
<svg id="_图层_2" data-name="图层 2" xmlns="http://www.w3.org/2000/svg" viewBox="0 0 111.81 121.51">
  <defs>
    <style>
      .cls-1 {
        fill-rule: evenodd;
      }
    </style>
  </defs>
  <g id="_图层_2-2" data-name=" 图层 2">
    <g>
      <path class="cls-1" d="M111.53,64.06c.88-5.16-.37-10.54-3.29-14.91-6.66-9.97-14.19-11.04-24.61-13.36-1.49-6.95,.48-7.49-3.25-15.74-2.01-4.43-5.06-6.99-8.31-10.17C65.16,3.13,53.85,0,44.47,0h-3.5C21.33,0,0,13.58,0,34.99c0,4.81,.21,6.99,2.98,11,2.39,3.45,6.13,3.12,8.85,4.68,.06,.44-2.34,13.13-2.34,16.79,0,6.95,1.12,13.66,3.99,20,.77,1.69,3.92,6.78,4.04,8.01,.24,2.64-.69,6.45-.18,10.74-4.31-1.85-4.27-16.32-11.11-17.13,.34,2.48,1.83,5.65,2.26,8.86,.4,3.01,1.09,6.33,1.68,9.31,.97,4.9,3.27,11.83,8.81,13.18,2.96-.71,7.4-2,10.49-2h16.49l3.98,.59,1.02-.09,3.98,.59,5.01-.09,3.98,.59,1.02-.09,3.98,.59,2.01-.09,3.98,.59,1.02-.09,3.98,.59,10.51-.09c8.33,0,17.14-2.68,15.33-13.27-1.65,.63-3.37,5.12-6.68,5.06-.16-2.63,2.89-7.88,4.53-10.09,3.06-4.13,5.33-4.6,7.59-7.03-6.48-1.05-7.06,1.26-11.04,1.7-.1-5.58,5.6-8.05,9.59-9.63-2.31-1.43-4.47-.34-7.13-.9-.56-2.62,.16-5.53-.28-8.21-.25-1.54-1.21-5.18-1.2-6.4,6.23-1.32,9.08-.84,10.39-8.58ZM5,42.97v-1c1.58-5.82,25.51-9.99,30.98-9.99l2.01,.09,3.98-.59,2.01,.09,3.98-.59,11-.05,7.99,1.05h1c2.87,0,9.57,1.47,10.49,4h-1.5c-1.9,0-7.71,1.58-9.49,2.58-1.88-1.44-5.08-2.08-7.5-2.08l-12.01-.09-3.98,.59h-4c-3.55,0-11.6,1.45-14.93,2.56-6.02,2.01-6.79,1.88-10.68,6.81-3.6,.42-6.53-1.49-9.37-3.37Zm47.69,56.92l-.5-1.35-2.64,3.76c-.33-3.65,3.4-8.77,1.23-11.81-1.24,2.6-1.44,4.1-4.08,5.84l-1.2-2.26v1.88s-4.1,6.43-4.1,6.43l.49-7.29c-3.08,1.54-3.63,6.24-5.27,8.26-.58-4.42,.19-8.28-1.32-12.72-.78-2.28-2.5-9.03-4.32-10.03l1.01,10.85c.4,3.68-1.18,8.34-3.51,11.04-1.43-1.68-2.35-3.82-2.82-6.1l-1,1.97c-5.76-7.22-10.38-8.92-11.55-18.83l1.28,.34,.47-1.37c.96,2.49,.92,4.92,3.27,6.33l-1.03-2.5-2.16-10.49-1.37,1.59-1.58-2.97v-1l-.02-1.5,.25-2,1.96,2.87-1.18-3.86v-5.5c0-2.52,2.98-10.58,4.37-12.45,.22,2.4-.87,3.48-.87,5.95l-.02,1.5,.28,2.01,.61-2.03,.63-4.98-.02-2,.12-1.9,1.9-1.6c2.77-2.55,14.98-4.32,18.77-3.89l.08,2.42,5.64-.57c3.36,2.32,1.8,7.01,3.97,8.41l-.85-7.24,2.86-.59,1.99,.57v2.4s1.47,1.88,1.47,1.88l.43-4.47,2.91,4.37-.56,.02-3.08,8.08c-.26-2-.52-6.18-2.58-6.8l1.44,10.39v1s.38,4.01,.38,4.01l1.26-2.9c3.71,4.53,1.87,2.86,7.2,5.56-2.26,3.94-4.47,7.05-5.37,11.8-.58,3.08-1.91,12.63-1.78,15.48l1.15-.87,.77,2.48-3.39,4.37Zm39.62-9.5c-1.35-.54,.41-3.7-.01-6.86-2,4.04-.68,6.51-4.97,9.8-3.49,2.68-4.45,5.88-6.74,9.03l.35-5.42v-1.5c0-2.57-.26-6.94-1.86-8.91-.57,4.36-.09,7.67-2.81,11.73-1.61,2.41-5.82,5.57-8.51,5.58l.32-6.27,2.27-2.49c-5.78-.71-6.94,3.74-10.28,5.76-1-1.44-.84-1.03,.12-2.81l1.21,.81,.18-4.26c.8-.82,4.6-4.3,4.65-4.86l-6.68,1.33c-.36,1.7-.82,2.48-2.47,2.8-.22-1.66-.89-4.02-.04-5.27,1.48,.88,.78,1.29,1.27,3.3l.44-7.43-1.79,.43,.17-4.38,1.18,1.86c.25-2.37-.68-1.89-.33-3.83,.25-1.39,.81-1.15,1.09-3.46l.86-1.1-.5-1.42c.85-1.87,2.04-5.21,4.14-5.32l-2.05,3.75,.34,1.97,.84-2.31,1.7-3.09,13.39,1.56c1.9,1.85,1.94,1.9,4.65,1.85,2,2.31,.27,2.76,1.43,4.94l.18-3.95,3.06,.34,1.27,3.07,.21-3.42,1.17,.26,2.12-.62,.13,2.08-1.61,.76,.03,3.56,.12,.51-.45,6.43c.83-1.7,2.64-7.71,3.16-8.04l.17,4.09,.25,1.04-1.38,8.4Z"/>
      <path class="cls-1" d="M18.66,52.97l1.28-1.13,.04-2.37c1.01-4.15,3.27-2.85,5.46-5.94l-1.96-.06c-1.88-.08-1.71,.34-3.5,.5l-.12,1.97-1.2,7.03Z"/>
      <path class="cls-1" d="M19.12,82.99c.29,2.17,1.37,2.76,1.37,5.45v1.5c.49,2.01,1.41,4.02,3.65,4.31l-1.02-1.94c-.25-1.74-2.69-8.38-4-9.32Z"/>
      <path class="cls-1" d="M63.59,73.41l2.53-3.24,2.8-1.09-3-.67c-1.04,1.35-2.38,3.19-2.33,5Z"/>
    </g>
  </g>
</svg>