<?xml version="1.0" encoding="UTF-8"?>
<svg id="_图层_2" data-name="图层 2" xmlns="http://www.w3.org/2000/svg" viewBox="0 0 126.04 106.16">
  <defs>
    <style>
      .cls-1 {
        fill-rule: evenodd;
      }
    </style>
  </defs>
  <g id="_图层_2-2" data-name=" 图层 2">
    <g>
      <path class="cls-1" d="M49.42,72.18c3.23,2.16,6.9,4.44,12.22,4.44h2.78c4.3,0,8.52-2.16,11.1-3.89l4.44-4.44c1.88-2.8,3.33-6.44,3.33-11.1,0-6.67-5.51-16.19-11.1-16.66l-1.12,2.22c.81,1.21,1.67,1.85,1.67,3.89v1.67c0,1.12-3.15,3.89-4.27,6.28-1.27,2.73-1.36,5.38-5.17,5.38h-.56c-4.41,0-4.29-3.05-5.72-5.94-1.44-2.93-4.28-3.4-4.28-6.83,0-1.73,1.02-3.21,1.67-4.44l-1.14-2.2c-5.23,1.21-10.52,8.79-10.52,15.53v3.89c0,3.81,2,6.38,3.33,8.88l3.33,3.33Z"/>
      <path class="cls-1" d="M20.54,73.85v-2.22c0-3.99,3.05-4.76,4.44-6.66H12.77c-2.45,1.64-4.44,5.39-4.44,9.44,0,5.04,2.84,8.19,5.55,10.55,1.09,.58,1.64,1.11,3.33,1.11,2.89,0,8.36-4.26,11.1-5-2.54-1.61-7.77-2.37-7.77-7.22Z"/>
      <path class="cls-1" d="M101.05,64.41h12.22c1.95-1.31,4.44-5.17,4.44-8.33,0-5.79-3.74-12.77-8.88-12.77-1.08,0-10.81,4.81-11.66,5.55,4.51,0,8.33,2.69,8.33,6.66v2.22c0,3.63-3.09,4.65-4.44,6.66Z"/>
      <path class="cls-1" d="M28.32,48.31c-1.78-.94-10.26-5-12.22-5-2.97,0-7.77,6.2-7.77,9.44v4.44c0,2.88,2.63,6,4.44,7.22h12.22c-.94-2.34-5-2.26-5-7.77,0-7.05,5.59-6.59,8.33-8.33Z"/>
      <path class="cls-1" d="M97.17,47.2l11.6-5.13c.2-1.61,.61-1.84,.61-3.76v-1.67c0-5.22-5.67-11.66-10.55-11.66h-2.78c-1.44,0-7.89,8.51-8.88,9.99,.67-.26,1.9-.56,2.78-.56h2.22c3.87,0,6.66,3.77,6.66,7.77v.56c0,1.73-1.02,3.21-1.67,4.44Z"/>
      <path class="cls-1" d="M38.31,34.98l-7.46-9.8-3.09-.19c-6.7,0-11.66,6.48-11.66,13.33,0,4.98,11.38,8.72,12.22,8.33-.58-1.09-1.11-1.64-1.11-3.33v-2.78c0-4.49,6.16-7.93,11.1-5.55Z"/>
      <path class="cls-1" d="M117.16,75.51v-2.22c0-3.63-1.86-5.57-3.33-7.77h-12.22c1.32,1.97,3.89,3.4,3.89,6.66,0,7.6-4.94,6.73-8.33,8.88l11.08,5.46,2.25-.46c2.25-3.07,6.66-4,6.66-10.55Z"/>
      <path class="cls-1" d="M43.86,12.77c-5.93,0-12.22,4.8-12.22,9.99v1.11c0,1.08,7.08,9.75,7.77,9.44,0-4.88,3.12-10.13,7.23-9.53l4.43,.65,1.54-1.31-1.58-8.68c-2.21-.53-2.74-1.67-4.96-1.67h-2.22Z"/>
      <path class="cls-1" d="M81.62,12.77h-.56c-2.77,0-4.81,1.24-6.66,2.22,0,4.05-1.11,4.07-1.11,7.22,0,1.33,.9,1.63,1.67,2.78,1.09-.58,1.64-1.11,3.33-1.11h.56c4.64,0,7.77,4.47,7.77,9.44,1.34-.9,7.77-8.37,7.77-9.99,0-5.38-6.76-10.55-12.77-10.55Z"/>
      <path class="cls-1" d="M45.53,69.41l-2.86-4.39-9.36-.05h-5c-1.18,1.77-2.22,3.1-2.22,6.11,0,3.29,1.47,4.71,2.78,6.66,1.91,.51,1.47,1.11,2.22,1.11,3.05,0,12.13-6.29,16.2-7.3l-1.76-2.14Z"/>
      <path class="cls-1" d="M99.39,73.29v-3.33c0-1.91-1.44-5-3.33-5h-13.33l-2.22,3.89-1.66,2.77,14.43,7.22c2.74-.23,6.11-3.44,6.11-5.55Z"/>
      <path class="cls-1" d="M74.4,94.39l-1.76-2.14,.09-8.41c1.96,.91,2.78-.27,2.78-2.78,0-.94-.74-2.08-1.11-2.78l2.32-2.68-.66-2.32-11.5,4.89,2.16,2.23c-.52,.98-.66,.89-.66,2.32v.56c0,1.68,.65,1.54,2.22,1.67v5.55c-2.65,.22-3.27,.46-3.33,3.33l1.82,.87-3.59,4.59,.67,5.64,1,1.22c.18-3.18,2.22-3.54,4.55-5.11l.61-3.45c.5,3.8,.8,6.15,4.39,6.23l.66,1.63,1.01,.04,.71-5.53c.55,.35,1.68,1.09,2.62,1.09,1.17,0,.73-.2,2.22-.56l1.38,1.91,.29-3.02c0-3.14-5.14-5-8.88-5Zm5.42,5.53l-.33,.61-6.24-4.97,1.85,4.32-1.82,.6v2.25s-.6,.17-.6,.17l-1.74-6.24c-2.9,.22-2.54,2.13-3.2,4.96l-2.9-2.75-.43,.53c1.43-2.13,5-4.48,5-7.77l.12-5.92,2.1-1.31c0,11.1-.21,10.1,8.89,12.22l-.69,3.3Z"/>
      <path class="cls-1" d="M55.52,29.98l-2.53-1.21,3.02,.8-1.48-1.95,.41-1.54-2.83,1.56c.21-1.36,.63-2.91,2.31-2.66l4.99,.62c-1.1,2.03-3.88,4.94-3.88,7.71v1.67c0,1.85,1,1.63,2.78,1.67-1.42,1.94-3.89,1.55-3.89,3.89,0,.55,2.13,2.78,3.33,2.78h.56c2.18,0,3.7-3.36,3.89-5.55v-3.33h1.11c0,3.58,1,8.88,4.44,8.88,1.57,0,3.89-1.76,3.89-3.33,0-1.86-9-3.73-5-6.66l1.92,3.54,.95-4.64-2.27,.41c2.45-1,7.17-2.04,7.17-4.87v-.56c0-1.7-.51-3.33-2.22-3.33h-2.22v-3.33c0-1.5-.27-1.53-.56-2.78-1.25-.29-1.28-.56-2.78-.56-2.13,0-2.88,4.71-3.33,6.66l8.26,1.61c1.73-.27,1.59-.02,1.74,1.72l-2.1-1.3c.54,3.3-.28,1.94-3.64,3.34-2.19,.91-3.5,2.96-4.81,2.96-.75,0-.31-.6-2.22-1.11l.65,1.96-.65,.26v1.67l-1.29,.52,2.89-12.26-1.63,1.2-.73-5.73,2.01,3.48-.1-3.96,.52,4.54c2-2.3,.41-6.11,5-6.11h.56c1.56,0,1.03,.24,1.67,1.11l1.6,1.19,.07,3.81h.56c0-6.96-1.89-9.44-8.88-9.44h-1.11c-3.96,0-7.13,2.07-7.22,6.11,.84-.96,1.75-2.78,3.33-2.78h1.11c1.59,0,1.02,.17,1.67,1.11-1.25-.29-1.28-.56-2.78-.56-1.11,0-2.22,2.31-2.22,3.89v2.78h-1.67c-1.24,0-1.22,.44-2.22,1.11-.36,1.49-.56,1.05-.56,2.22,0,.94,.74,2.08,1.11,2.78l3.28,1.23,.05-1.23Z"/>
      <path class="cls-1" d="M61.05,93.77l.53-.48-3.44-3.21-.4,.42,.19-5.3,2.08-1.92-.72-3.86,.52,.24,1.27-2.48h-2.22c-4.52,0-6.82-3.04-9.99-3.89v1.11l2.19,3.91c-.27,1.28-.52,1.62-.52,3.31,0,1.5,.26,1.53,.56,2.78l2.2-.62,.02,5.07c0,4.34-1.37,5.52-5.05,6.06-2.95,.43-6.05,2.73-6.05,5.05v.56c0,1.07,.17,.99,.56,1.67l1.78-1.55,4.33,.1v1.44c0,1.69,.53,2.24,1.1,3.33l1.3-1.54c2.58-.18,3.69-1.2,3.69-4.01v-1.67h1.11c1.68,7.19,3.2,3.03,4.44,6.11l1.04,1.1,.62-4.99c.44-2.91-2.62-3.43-3.31-6.04l2.18-.69Zm.18,5.48l-.59-.29-2.22,2.22v.64s-2.56-5.36-2.56-5.36h-.95s-2.24,6.27-2.24,6.27l.07-1.66-2.41-1.23,2.32-4.43-6.1,5.12-1.58-3.9c2.88-.67,8.88-1.16,8.88-4.44v-7.74s2.78,.52,2.78,.52l-.04,8.91,4.64,5.38Z"/>
      <path class="cls-1" d="M42.2,63.85c-.14-1.74-.56-1.97-.56-3.89v-5.55l-3.33-1.67c-1.17-.27-6.58-2.78-6.66-2.78-2.5,0-5.55,3.92-5.55,6.66v2.78c0,2.52,1.19,2.9,2.22,4.44h13.88Z"/>
      <path class="cls-1" d="M99.94,58.3c0-4.45-2.61-6.77-5.55-8.33l-10.45,4.66-.1,6.44c0,1.5-.27,1.53-.56,2.78h13.33c2.09,0,3.33-3.5,3.33-5.55Z"/>
      <path class="cls-1" d="M84.4,53.3c1.28,0,9.99-4.13,9.99-6.11v-1.67c0-3.46-3.72-7.77-7.22-7.77h-2.78l-5,6.66c1.11,1.65,1.93,2.2,2.86,4.36,.42,.97,1.15,4.53,2.14,4.53Z"/>
      <path class="cls-1" d="M41.09,37.76c-5.79,0-9.44,2.23-9.44,7.77v2.22c0,2.06,5.75,3.24,7.77,5l2.75,.67-.57-.4,4.2-8.73-4.71-6.52Z"/>
      <path class="cls-1" d="M83.84,36.09c0-3.14-4.09-6.66-7.22-6.66h-1.11c-2.1,0-5.55,3.08-5.55,6.66,0,1.72,8.13,6.87,9.44,7.22,.62-2.33,4.44-4.64,4.44-6.66v-.56Z"/>
      <path class="cls-1" d="M41.64,37.2l5.1,6.02,8.63-5.69c-.3-1.72-.96-1.65-.96-3.66,0-1.17,.2-.73,.56-2.22l-2.78-1.67c-1.49-.36-1.05-.56-2.22-.56-4.79,0-7.95,3.25-8.33,7.77Z"/>
      <path class="cls-1" d="M13.88,40.53c1.63-3.46-1.78-8.36,2.9-13.2,6.66-6.9,8.6-2.91,12.09-5.12-1.85-.98-3.89-2.22-6.66-2.22h-.56c-5.79,0-11.66,4.41-11.66,9.44v3.33c0,3.06,2.21,6.55,3.89,7.77Z"/>
      <path class="cls-1" d="M84.4,9.99c4,0,6.09,1.92,8.2,4.02,3.47,3.46,1.98,4.98,4.02,8.2,.31-1.35,1.11-3.61,1.11-5,0-6.09-4.99-12.22-10.55-12.22h-.56c-5.89,0-9.06,2.81-11.1,6.66,2.24-.52,2.77-1.67,5-1.67h3.89Z"/>
      <path class="cls-1" d="M5.55,76.62v-3.33c0-4.32,3.29-6.61,2.78-7.77-3.69,.86-8.33,5.89-8.33,9.99v1.11c0,5.81,5.22,11.66,11.1,11.66h3.33v-1.11h-1.11c-3.73-1.97-7.77-4.96-7.77-10.55Z"/>
      <path class="cls-1" d="M107.83,25.98c2.3,2.02,4.32,5.85,4.32,10.11v1.11c0,2.02-.66,1.95-1.11,3.89l1.11-.56c1.66-2.48,3.89-3.86,3.89-8.33v-1.11c0-5.75-5.36-11.1-11.1-11.1-3.56,0-5.47,1-7.77,2.22,2.23,1.42,5.98-.34,10.67,3.77Z"/>
      <path class="cls-1" d="M9.44,64.41c-1.81-2.7-4.44-3.93-4.44-8.88v-2.22c0-5.07,4.45-10.99,9.44-11.1l-.56-1.11c-7.17,0-13.88,3.82-13.88,9.99v3.89c0,4.3,5.2,9.09,9.44,9.44Z"/>
      <path class="cls-1" d="M111.6,41.64c3.32,2.31,8.88,4.47,8.88,10.55v5c0,3.18-2.58,5.27-3.89,7.22,4.88-.41,9.44-5.91,9.44-11.1,0-6.85-4.3-10.33-9.99-11.66h-4.44Z"/>
      <path class="cls-1" d="M61.63,5c9.01,0,8.47,2.96,12.77,6.11v-1.67c-.35-4.24-5.14-9.44-9.44-9.44h-3.33c-5.87,0-10.42,5.79-10.55,11.66,2.5-1.83,4.94-6.66,10.55-6.66Z"/>
      <path class="cls-1" d="M29.95,22.26c.03-7.75,5.88-12.82,13.35-12.82,2.82,0,6.28,2.64,7.22,2.22-2.47-3.69-4.93-6.66-11.1-6.66-5.17,0-11.1,5.35-11.1,9.99v2.78c0,1.91,.41,2.15,.56,3.89l1.08,.6Z"/>
      <path class="cls-1" d="M116.6,65.52c1.49,2.22,3.89,4.65,3.89,8.33,0,6.2-3.35,12.17-8.33,13.33l-1.77,.93c9.48,.18,15.09-2.87,15.09-12.04,0-4.96-4.5-10.18-8.88-10.55Z"/>
      <path class="cls-1" d="M62.74,8.33h-.56c-2.62,0-6.14,1.66-7.64,2.9-3.48,2.87-1.79,3.22-1.79,7.64,2.61-3.76,3.02-6.66,9.99-6.66,4.72,0,9.08,1.74,9.44,6.11,.87-.64,1.11-.1,1.11-1.67v-2.22c0-3.09-6.34-6.11-10.55-6.11Z"/>
      <path class="cls-1" d="M62.19,44.42c.78,0,1.11-.76,1.11-1.67l-.33-2.95-2.11,3.94c1.59,.89,.08,.67,1.33,.67Z"/>
    </g>
  </g>
</svg>