<?xml version="1.0" encoding="UTF-8"?>
<svg id="_图层_2" data-name="图层 2" xmlns="http://www.w3.org/2000/svg" viewBox="0 0 107.34 94.33">
  <g id="_图层_2-2" data-name=" 图层 2">
    <g>
      <path d="M106.19,18.59c-1.56-1.72-4.22-2.16-6.08-.76-1.1,.84-1.8,.5-2.58-.27-.85-.84-1.71-1.67-2.73-2.3-1.34-.82-2.76-1.23-4.26-.41-1.58,.86-2.22,2.28-2.25,4.02-.02,1.58,.5,3.02,1.07,4.46,.26,.67,.73,1.27,.78,2.03,.37,5.22-1.13,9.79-4.65,13.69-.75,.83-1.33,.96-2.31,.25-4.59-3.33-9.66-5.7-15.1-7.29-3.97-1.16-8.03-1.77-12.15-2.01-.37-.02-1.14,.21-.69-.67,1.55-3.07,2.12-6.41,2.75-9.73,.36-1.93,.68-3.89,1.62-5.64,1.01-1.86,2.43-3.09,4.76-2.97,2.06,.1,4.03-.55,5.95-1.24,.72-.26,1.1-.81,1.2-1.56,.31-2.15-.85-4.32-2.86-5.19-1.36-.6-2.83-.85-4.29-.59-1.62,.29-2.85,.08-4.22-1.09-3.19-2.72-7.33-1.05-8.13,3.07-.26,1.32-.17,2.61,.29,3.86,.71,1.93,.25,3.53-1.24,4.91-.83,.77-1.72,1.43-2.72,1.94-1.64,.85-3.32,1.62-4.97,2.45-2.24,1.13-4.75,1.61-6.91,2.89-4.97,2.95-7.1,7.5-7.1,13.14,0,1.16-.33,1.78-1.41,2.29-4.52,2.12-8.64,4.88-12.31,8.28-.72,.67-1.09,.52-1.63-.16-1.2-1.49-1.32-1.5-2.86-.3-2.65,2.06-4.67,4.68-6.43,7.5C1.98,55.64,.08,60.37,0,65.7c-.06,3.22,.81,6.16,2.58,8.84,.25,.38,.47,.88,1.01,.85,.94-.04,1.11,.59,1.31,1.29,.57,2.06,1.5,3.95,2.78,5.67,3.16,4.22,7.6,6.27,12.57,7.34,3.86,.83,7.78,.99,11.71,.54,.85-.1,1.45,.03,1.51,1.03,.03,.58,.46,.84,.92,1.09,4.7,2.6,9.5,2.49,14.35,.53,3.88-1.56,7.14-4.03,10.09-6.97,1.99-1.98,4.33-3.36,7.19-3.55,1.65-.11,3.3-.22,4.93-.49,5.72-.94,11.17-2.6,15.95-6.01,3.91-2.79,6.72-6.46,6.85-11.34,.07-2.63,.92-4.96,1.34-7.44,0-.04,.01-.08,.02-.11,1.12-5.74,1.32-11.55,1.03-17.35-.13-2.69,.48-5.12,1.54-7.48,1.05-2.33,2.58-4.24,5.14-5.17,1.35-.49,2.42-1.5,3.31-2.63,1.58-1.99,1.58-4.05,.04-5.75Zm-52.79-5.09c1.36-1.87,1.51-3.87,.72-6.01-.5-1.36-.42-2.71,.3-4,.82-1.46,2.2-1.92,3.72-1.22,.94,.43,1.67,1.11,2.28,1.91,.47,.61,.97,.7,1.69,.54,1.65-.37,3.31-.69,5.01-.21,.64,.18,1.24,.4,1.7,.91,1.27,1.38,.96,2.59-.81,3.07-.7,.19-1.42,.35-2.14,.46-.64,.1-1.3,.13-2.01,.19-.68,0-1.4-.34-2.16,.17-1.81,1.21-3.58,2.41-4.24,4.65-.05,.18-.11,.37-.21,.54-.34,.57-.09,1.64-1.15,1.61-1.17-.03-2.14-.55-2.82-1.55-.26-.39-.14-.72,.11-1.06Zm-22.06,19.07c.18-5.46,3.34-9.67,8.56-11.54,3.95-1.42,7.79-3.08,11.29-5.44,.33-.23,.64-.48,.96,0,.84,1.23,2.09,1.78,3.49,2.02,.55,.1,.69,.3,.59,.85-.68,3.83-1.38,7.64-3.25,11.12-.23,.44-.49,.4-.81,.41-6.84,.12-13.43,1.48-19.8,3.94-1.09,.42-1.1,.41-1.04-1.36ZM4.12,73.36c-1.3-2.03-1.94-4.01-2.11-6.14-.35-4.27,.78-8.24,2.69-11.99,1.81-3.55,4-6.83,7.04-9.48,.69-.6,1.36-.38,1.5,.44,.08,.47-.31,.67-.55,.94-3.32,3.81-5.99,7.99-7.46,12.87-1.29,4.28-1.49,8.66-1.11,13.36Zm88.03-12.83c-.58,1.77-1.39,3.43-2.45,4.95-2.34,3.35-5.57,5.22-9.63,5.68-.59,.07-1.39-.09-1.33,.99,.05,.76,.25,1.09,1.1,1,3.86-.39,7.2-1.85,9.89-4.69,.55-.58,1.06-1.2,1.76-2.01-.73,2.79-2.19,4.82-4.11,6.53-3.69,3.3-8.16,5.02-12.87,6.21-2.8,.71-5.65,1.05-8.55,1.23-3.4,.21-6.21,1.83-8.62,4.22-3.46,3.45-7.36,6.19-12.2,7.35-3.06,.74-6.03,.44-8.91-.83-.69-.3-.98-.7-.99-1.48-.06-3.94,1.43-7.3,3.94-10.22,4.08-4.74,9.22-7.85,15.19-9.62,1.58-.47,1.76-.29,1.79,1.3,.06,3.25-1.74,5.48-4.09,7.38-2.12,1.71-4.56,2.86-7.13,3.72-.78,.26-1.07,.62-.79,1.42,.19,.53,.46,.76,1.03,.56,4.42-1.56,8.53-3.59,11.29-7.6,1.68-2.43,1.98-5.09,1.32-7.94-.25-1.08-.81-1.35-1.82-1.19-2.03,.33-3.97,.95-5.83,1.78-5.75,2.58-10.82,6.02-14.27,11.47-1.23,1.94-2.05,4.04-2.37,6.33-.08,.55-.14,1.07-.87,1.14-5.94,.61-11.79,.38-17.3-2.19-6.13-2.85-8.97-7.93-9.42-14.49-.82-12.17,4.72-21.26,13.99-28.44,7.75-6,16.6-9.44,26.3-10.71,9.72-1.27,19.11-.08,28.07,3.98,2.64,1.19,5.12,2.66,7.51,4.28,.83,.56,.74,.78-.05,1.28-4.68,3-8.58,6.75-10.99,11.86-.79,1.68-1.35,3.44-1.62,5.28-.08,.56,.02,1.01,.73,1.04,.57,.03,1.07,.02,1.2-.73,1.18-6.72,5.3-11.4,10.7-15.11,2.29-1.57,4.66-3.01,6.32-5.32,.25-.35,.48-.45,.83-.12,1.3,1.23,2.88,1.36,4.53,1.08,.53-.09,.79,0,.8,.61,.1,6.75,0,13.47-2.11,19.98Zm12.61-37.56c-.75,.99-1.67,1.85-2.84,2.29-2.77,1.05-4.5,3.14-5.8,5.65-1,1.93-1.65,4-1.89,6.14-.15,1.32-.89,1.42-2.03,1.49-.35-.07-.9-.12-1.4-.29-.98-.33-1.32-1.22-.87-2.12,1.64-3.26,2.41-6.7,2.21-10.36-.05-.86-.23-1.66-.61-2.44-.68-1.42-1.33-2.86-1.27-4.5,.09-2.21,1.64-3.04,3.53-1.9,.96,.58,1.76,1.35,2.55,2.15,1.55,1.56,3,1.66,4.79,.39,1.05-.75,2.68-.59,3.6,.36,.85,.88,.9,2,.04,3.14Z"/>
      <path d="M32.97,46.12c-.29,.09-.6,.15-.89,.25-5.33,1.68-9.06,5.26-11.7,10.05-3.35,6.08-4.49,12.72-4.78,19.56,0,.53-.08,1.14,.72,1.18,.78,.04,.84-.51,.87-1.08,.02-.5,.02-1,.04-1.5,.22-5,1.13-9.86,3.06-14.49,2.04-4.9,5.01-9,9.96-11.37,1.01-.48,2.07-.85,3.13-1.17,.51-.16,.66-.44,.53-.95-.14-.56-.47-.63-.96-.48Z"/>
    </g>
  </g>
</svg>