<?xml version="1.0" encoding="UTF-8"?>
<svg id="_图层_2" data-name="图层 2" xmlns="http://www.w3.org/2000/svg" viewBox="0 0 100.03 87.41">
  <g id="_图层_2-2" data-name=" 图层 2">
    <g>
      <path d="M16.84,78.01c18.39,.01,36.78,0,55.17,0,1.22,0,2.46,.01,3.67-.13,4.18-.48,6.27-2.91,6.37-7.14,.04-1.73-.19-3.01-2.84-1.95,2.02-3.68,3.94-6.67,4.79-10.17,2.78-11.5-6.06-20.54-17.53-17.77-9.1,2.19-14.91,8.01-17.98,16.76-.41,1.17-.1,2.7-1.42,3.54-.24-.22-.56-.37-.56-.52-.01-.6,0-1.22,.14-1.8,2.02-8.95,7.48-14.94,15.85-18.45,.73-.31,1.85-.26,2.02-1.32,.15-.91-.73-1.21-1.33-1.54-6.81-3.76-14.03-5.7-21.87-4.97-19.11,1.78-32.89,16.93-34.23,34.55-.64,8.5,1.11,10.9,9.75,10.91Zm38.19-23.59c1.72-4.42,9.75-10.04,14.63-10.1,.79,.05,2.08-.25,2.19,1.08,.11,1.29-1.11,1.37-2.1,1.48-2.35,.27-4.32,.98-4.4,3.84,0,.12-.02,.31-.09,.34-3.33,1.44-5.81,4.13-8.81,5.96-1.38,.84-2.03-1.05-1.42-2.61Zm-37.34-3.59c5.73-8.15,13.59-12.85,23.4-14.33,1.12-.17,2.56-.23,2.63,1.17,.07,1.43-1.4,1.01-2.3,.97-2.37-.11-4.29,.26-5.18,2.94-.41,1.24-1.64,1.79-3.02,1.06-1.28-.69-2.05,.18-2.89,.9-2.43,2.08-4.56,4.42-6.37,7.07-.76,1.11-1.5,2.25-2.43,3.21-1.1,1.13-2.44,2.51-4.1,1.21-1.68-1.31-.68-2.87,.26-4.2Z"/>
      <path d="M87.26,71.67c-1.76-.42-2.59,.54-3.16,2.21-1.71,5.03-3.39,6.21-8.57,6.22-20.84,.02-41.67,.02-62.51,0-5.06,0-7.13-1.41-8.65-6.22-.55-1.73-1.24-2.67-3.05-2.1-1.86,.59-1.29,2.14-1.03,3.4,1.14,5.59,6.29,9.63,12.28,9.64,10.54,.02,21.08,0,31.62,0,0-.04,0-.08,0-.12,9.81,0,19.61,.02,29.42-.02,1.71,0,3.43-.13,5.12-.4,5.39-.84,8.32-4.29,9.63-9.35,.34-1.3,.86-2.81-1.09-3.28Z"/>
      <path d="M97.21,31.78c-1.49-.82-2.36-1.94-3.22-3.34-1.61-2.61-4.16-3.37-7.03-2.54-2.94,.85-4.77,3.1-4.28,6.05,.47,2.88,.01,4.94-2.26,6.73-.85,.67-1.68,1.64-.38,2.74,1.11,.94,2.01,.43,2.9-.4,1.16-1.09,2.2-2.45,3.57-3.13,2.5-1.24,2.97-2.35,.57-4.15-.96-.71-1.32-1.77-.76-2.95,.46-.97,1.3-1.47,2.35-1.53,1.26-.07,2.15,.61,2.54,1.74,.45,1.3,.77,2.61,2.33,3.04,2.23,.61,3.76,1.98,2.41,4.24-1.29,2.18-3.08,1.3-4.56-.23-.87-.9-2.11-1.37-2.81-.15-1.2,2.08-2.95,3.57-4.55,5.26-.93,.98-.68,2.09,.14,2.98,1.06,1.13,1.76,.04,2.39-.62,1.92-2.03,3.86-3.9,6.55-2.61,3.36,.2,5.62-.96,6.48-3.75,.88-2.86,.61-5.73-2.38-7.38Z"/>
      <path d="M46.55,22.77c-.04,.87,.18,1.85,1.12,2.13,1.17,.35,1.73-.62,2.29-1.44,2.19-3.22,1.86-7.35-1.44-10.31-3.68-3.3-5.48-6.59-2.14-11.07,.38-.52,.52-1.18,.07-1.7-.67-.77-1.38-.21-1.95,.18-2.68,1.83-4.19,4.39-4.61,7.52,.17,2.37,.9,4.43,2.59,6.01,2.52,2.37,4.25,5.04,4.08,8.67Z"/>
      <path d="M40.48,26.48c.07,.86-.57,2.2,.93,2.34,1.12,.11,1.65-.94,1.97-1.87,.31-.91,.47-1.87,.48-1.91,.2-3.18-.73-4.97-2.36-6.42-1.58-1.4-2.97-2.89-3.48-5.02-.17-.74-.48-1.52-1.36-1.46-1.09,.08-1.18,1.04-1.28,1.9-.32,2.7,.35,5.05,2.3,7.03,1.48,1.5,2.61,3.2,2.79,5.4Z"/>
      <path d="M10.24,86.91c0,.17,0,.33,0,.5h63.43c0-.17,0-.33,0-.5H10.24Z"/>
    </g>
  </g>
</svg>