<?xml version="1.0" encoding="UTF-8"?>
<svg id="_图层_2" data-name="图层 2" xmlns="http://www.w3.org/2000/svg" viewBox="0 0 67.57 78.01">
  <g id="_图层_2-2" data-name=" 图层 2">
    <g>
      <path d="M5.19,58.24c1.22-.62,1.79,.82,2.52,1.48,5.16,4.63,10.1,4.62,15.13-.08,3.93-3.68,5.58-3.69,9.65-.05,5.39,4.82,10.17,4.81,15.4-.04,3.92-3.63,5.73-3.64,9.66,.06,2.05,1.93,4.28,3.44,7.2,3.48,1.27,.02,2.37-.45,2.71-1.84,.31-1.29,.03-2.73-1.31-2.92-3.39-.47-5.22-3.12-7.69-4.89-3.07-2.21-6.41-2.48-9.78-.86-1.36,.66-2.54,1.73-3.72,2.72-4.2,3.52-5.49,3.53-9.4-.18-1.4-1.32-2.83-2.5-4.75-3.04-4.39-1.24-7.92,.13-10.93,3.35-2.05,2.19-4.48,3.47-7.23,1.48-2.3-1.66-4.28-3.69-6.85-5.07-1.9-1.02-1.61-3.61-.74-4.77,1.06-1.42,2.06,.64,2.88,1.38,4.58,4.2,10.09,4.2,14.67-.09,4.41-4.13,5.54-4.14,10.17-.12,5.26,4.57,10.13,4.49,15.17-.25,3.84-3.61,5.5-3.66,9.38-.11,2.07,1.89,4.28,3.46,7.17,3.6,1.38,.07,2.62-.46,2.92-2.04,.26-1.34-.23-2.54-1.56-2.81-2.75-.56-4.52-2.53-6.55-4.13-4.38-3.44-9.16-3.34-13.27,.29-5.46,4.82-5.8,4.83-11.21,.06-3.87-3.41-8.92-3.79-12.79-.96q-6.56,4.79-13.4-.01c-1.69-1.19-4.97-1.55-3.71-4.66,1.03-2.54,3.8-1.33,5.76-1.34,17.49-.09,34.98-.05,52.47-.07,1.63,0,3.6,.23,4.15-1.89,.56-2.18-1.27-2.85-2.79-3.51-5.89-2.55-11.83-5-17.71-7.58-1.82-.8-2.89-.47-4.2,1.12-3.53,4.29-7.68,5.49-11.97,3.85-4.62-1.77-6.94-5.23-6.74-10.92,.1-2.8-.94-2.71-2.86-1.82-6.54,3.02-12.54,6.88-17.37,12.25C1.35,29.9-.05,32.99,0,36.73c.14,10.11,.03,20.22,.06,30.34,0,1.17-.04,2.48,.44,3.49,.74,1.58,1.97,2.84,.58,4.76-.51,.71-.06,1.9,.96,2.4,.79,.39,1.7,.51,2.22-.38,1.16-1.97,3.07-1.53,4.79-1.54,16.89-.03,33.79-.01,50.68-.02,1.19,0,2.38,.02,3.57-.09,.94-.08,2.11-.22,1.86-1.57-.2-1.06-1.24-1.08-2.04-.8-2.45,.86-4.96,.35-7.44,.36-17.23,.05-34.47,.03-52.68,.03,2.36-1.64,4.05-1.4,5.67-1.41,12.25-.02,24.51,0,36.76-.01,6.19,0,12.37,.02,18.56-.09,1.68-.03,3.54-.41,3.38-2.74-.15-2.09-1.9-2.15-3.46-2.26-.83-.06-1.66-.03-2.5-.03-16.89,0-33.79,0-50.68,0q-6.16,0-6.01-6.29c.02-.91-.43-2.19,.47-2.65Z"/>
      <path d="M27.35,13.93c-1.03,.94-1.16,2.57-1.09,3.81,.02,4.04,2.77,7.39,6.48,8.11,3.28,.64,7.03-1.32,8.56-4.48,1.68-3.47,.81-7.67-2.49-9.8-2.39-1.55-3.04-2.77-.67-4.77,1.12-.94,2.33-2.18,.85-3.55-1.41-1.3-2.81-.13-3.64,.98-2.52,3.36-4.86,6.83-7.99,9.7Z"/>
      <path d="M29.86,9.65c2.43-.14,1.74-2.08,1.96-3.32C31.77,2.62,29.37,0,26.22,0c-2.34,0-2.26,1.76-2.31,3.25-.09,3.26,3.04,6.57,5.94,6.4Z"/>
    </g>
  </g>
</svg>