<?xml version="1.0" encoding="UTF-8"?>
<svg id="_图层_2" data-name="图层 2" xmlns="http://www.w3.org/2000/svg" viewBox="0 0 84.66 60.78">
  <g id="_图层_2-2" data-name=" 图层 2">
    <g>
      <path d="M84.5,1.56C83.92-.04,82.39,.02,81.02,.02,61.86,.01,42.7,.05,23.54,0c-2.76,0-3.82,1.11-3.63,3.81,1.13,16.08,6.99,30.14,17.83,42.11,1.5,1.66,2.82,1.72,4.37,.1,1.81-1.89,3.74-3.65,5.57-5.51,1.2-1.22,2.08-1.48,3.75-.32,5.11,3.56,10.69,.82,11.31-5.42,.18-1.83,.03-3.69,.03-5.54,.38-.02,.77-.03,1.15-.05,0,3.18-.02,6.37,0,9.55,.03,4.55,2.15,7.23,5.69,7.23,3.67,0,5.82-2.5,5.9-7.12,.09-4.85,.4-9.74-.06-14.55-.74-7.8,.67-14.49,7.52-19.23,1.12-.78,2.08-1.98,1.53-3.52Zm-47.32,3.27c1.86,.59,4.88-1.08,4.99,2.34,.08,2.8-2,4.12-4.68,4.16-2.86,.05-5.05-1.4-5.07-4.26-.02-3.57,3.18-1.46,4.77-2.24Zm33.48,15.02c-.03,5.6,.01,11.2-.03,16.8,0,1.28,.32,2.72-1.25,4.06-.96-3.19-.37-6.14-.52-9.02-.09-1.73,.12-3.49-.7-5.12-1.21-2.39-3.18-3.56-5.77-3.16-2.61,.4-4.2,2.11-4.41,4.81-.14,1.86,0,3.74-.18,5.59-.12,1.26-.57,2.64-2.19,2.48-1.36-.13-1.61-1.36-1.63-2.55-.03-1.62,0-3.24-.14-4.85-.12-1.37-.87-2.41-2.35-2.43-1.47-.03-2.43,.96-2.42,2.33,.04,5.68-5.24,7.45-7.99,11.06-.85,1.11-1.62,.53-2.37-.4-7.57-9.48-12.11-20.2-13.37-32.28-.09-.86-.42-1.87,.85-2.06,1.59-.24,1.66,.97,1.93,2.12,1.35,5.7,4.07,8.14,8.99,8.21,4.86,.07,8.48-2.62,9.21-7.44,.37-2.43,1.29-3.14,3.57-3.06,3.48,.13,6.97,.07,10.45,0,2.07-.04,3.67,.17,4.96,2.33,1.28,2.15,3.65,2,4.77-.25,1.24-2.48,2.91-2.13,5.92-1.72-6.54,3.68-5.3,9.32-5.33,14.57Z"/>
      <path d="M16.56,7.41C15.92,.03,16.13,.02,8.67,.04c-1.37,0-2.74,0-4.11,0C1.22,0-.18,1.78,.02,4.98,1.32,25.43,8.57,43.41,22.36,58.66c2.48,2.75,4.19,2.82,6.89,.25,1.8-1.72,3.41-3.65,5.3-5.26,2.14-1.82,2.25-3.03,.21-5.35C24.47,36.61,17.94,23.09,16.56,7.41Z"/>
      <path d="M58.14,7.48c-3.86,.13-7.54,3.77-7.48,7.42,.06,4.23,3.48,7.71,7.54,7.69,4.04-.02,7.72-3.71,7.64-7.65-.09-4.26-3.53-7.59-7.69-7.46Z"/>
      <path d="M45.65,16.37c-3.25,.49-.68,2.83-.83,4.35-1.85-.12-2.96-1.01-3.98-2.13-1.02-1.12-2.09-2.31-3.8-1.45-.94,.47-1.41,1.39-1.38,2.47,.05,1.76,1.4,2.12,2.74,2.56,1.53,.5,3.07,1.02,3.8,3.02-1.3,.68-3.16-1.02-3.56,1.25-.25,1.41,.43,2.4,1.67,3.01,.9,.44,1.83,.7,2.87,.58,4.47-.49,8.18-6.02,6.76-10.26-.67-1.98-1.95-3.75-4.29-3.4Z"/>
    </g>
  </g>
</svg>