<?xml version="1.0" encoding="UTF-8"?>
<svg id="_图层_2" data-name="图层 2" xmlns="http://www.w3.org/2000/svg" viewBox="0 0 79.68 66.06">
  <g id="_图层_2-2" data-name=" 图层 2">
    <g>
      <path d="M40.32,24.07c1.89,1,1.79-1.17,2.24-2.08,3.03-6.08,7.77-10.46,13.48-13.91,3.86-2.34,4.43-2.13,5.7,2.11,2.65,8.88,2.81,17.57-2.42,25.84,3.95,1.29,6.1,.24,7.42-3.54,3.82-10.89,1.52-21.04-3.17-31.01-.88-1.86-2.2-1.69-3.76-1-5.1,2.25-9.91,5-14.04,8.77-3.18,2.9-5.71,6.35-7.56,10.28-1.13,2.4,.5,3.69,2.11,4.54Z"/>
      <path d="M23.1,36.56c2.36-.25,4.78-.05,7.17-.05v-.06c2.52,0,5.05-.15,7.55,.04,2.81,.21,3.38-1.12,3.31-3.6-.23-8.64-10.69-14.72-18.23-10.52-3.55,1.98-5.42,6.31-4.64,10.3,.54,2.77,1.76,4.21,4.84,3.88Z"/>
      <path d="M26.66,18.83c2.26-.14,4.5-.01,6.67,.73,1.37,.49,2.02-.24,2.65-1.35,1.3-2.28,2.69-4.51,4.13-6.7,.83-1.26,1.29-2.39,.19-3.73-1.79-2.2-3.04-4.92-5.84-6.12-.29-.12-.93,.31-1.28,.63-4.08,3.82-7.4,8.12-8.64,13.75-.42,1.9-.04,2.92,2.12,2.78Z"/>
      <path d="M6.5,36.11c-3.4-7.99-2.92-12.85,1.45-17.14,2-1.96,3.12-2.09,4.06,.96,.92,2.97,1.38,6.19,3.19,9.25,4.03-6.18,0-11.11-1.19-16.27-.37-1.6-1.67-.97-2.79-.63C2.89,14.8-1.89,24.27,.71,32.92c.87,2.88,2.32,4.39,5.79,3.19Z"/>
      <path d="M79.66,17.57c-.12-5.69-1.34-6.6-6.85-5.03-1.29,.37-1.97,.96-1.87,2.34,.1,1.24,.82,1.88,1.98,1.73,2.79-.36,2.64,1.48,2.66,3.3,.06,5.6-.88,10.96-4.03,16.16,3.35,1.03,5.02,0,6.09-2.94,1.83-5.07,2.14-10.26,2.02-15.56Z"/>
      <path d="M73.51,39.44c-1.17-.36-2.48-.36-3.73-.36-10.08-.03-20.15-.01-30.23-.01-10.32,0-20.65,0-30.97,.01-1.86,0-3.92-.35-5.14,1.58-1.47,2.33,1.07,2.91,1.96,4.2,.14,.2,.23,.45,.32,.68,2.72,7.83,8.63,12.46,15.85,15.76,1.04,.48,2.21,.86,2.45,2.13,.43,2.32,2.04,2.52,3.95,2.51,6.42-.04,12.85,.05,19.27-.04,3.13-.05,7,1.37,8.18-3.49,.1-.42,1-.73,1.58-.93,9.14-3.18,14.12-10.45,18.21-18.57,.91-1.81-.08-2.97-1.7-3.47Zm-14.68,7.24c-1.91,5.3-3.91,10.56-5.82,15.86-.52,1.45-1.48,1.91-2.84,1.7-1.89,.23-2.27-.44-1.58-2.15,2.22-5.58,4.32-11.2,6.5-16.79,.48-1.24,1.31-2.31,2.83-1.77,1.61,.56,1.35,1.97,.92,3.17Z"/>
    </g>
  </g>
</svg>