<?xml version="1.0" encoding="UTF-8"?>
<svg id="_图层_2" data-name="图层 2" xmlns="http://www.w3.org/2000/svg" viewBox="0 0 87.74 87.53">
  <g id="_图层_2-2" data-name=" 图层 2">
    <g>
      <path d="M34.04,35.18c11.24-8.43,19.57-19.38,26.23-28.99l.12-.17v-.2c0-.32,.01-.64,.03-.95,.08-1.96,.17-4.19-3.29-4.86h-.12c-1.14-.01-2.75,.23-5.13,2.15-.61,.61-1.26,1.2-1.9,1.79-1.39,1.28-2.83,2.61-4,4.14-9.35,12.18-19.73,24.73-34.75,32.65-2.32,1.23-4.59,2.64-6.77,4.01l-.14,.09C-.05,47.55-1.12,51.82,1.18,57.17l.32,.73,.66-.46c3.27-2.27,6.56-4.51,9.83-6.75,7.31-4.99,14.87-10.14,22.05-15.52ZM2.08,55.91c-1.64-4.38-.67-7.74,2.91-9.97l.14-.09c2.17-1.35,4.41-2.76,6.69-3.96,15.25-8.04,26.15-21.26,35.17-33.01,1.1-1.44,2.5-2.73,3.85-3.97,.65-.6,1.3-1.2,1.88-1.78,1.96-1.58,3.23-1.82,4.2-1.83,2.3,.47,2.25,1.62,2.18,3.51-.01,.26-.02,.53-.03,.8-6.58,9.48-14.8,20.26-25.82,28.52-7.16,5.37-14.7,10.51-22,15.49-3.06,2.08-6.12,4.17-9.17,6.29Z"/>
      <path d="M87.73,33.42c-.5-5.83-2.75-9.77-6.51-11.39-3.82-1.65-7.89-.41-11.77,3.59-.8,.82-1.59,1.73-2.43,2.79-1.61,2.02-3.2,4.04-4.8,6.07-2.71,3.44-5.52,7-8.32,10.45-9.94,12.22-19.44,19.02-30.78,22.03-1.41,.37-2.72,1.04-3.81,1.64-3.88,2.13-5.75,5.94-5.13,10.43,.65,4.7,3.39,7.6,7.71,8.16,1.38,.18,3.07,.35,4.84,.35,1.94,0,3.98-.21,5.8-.86,23.35-8.33,40.57-22.62,51.21-42.47,1.22-2.27,2.03-4.77,2.82-7.18,.36-1.11,.73-2.23,1.13-3.32l.05-.14v-.14Zm-2.42,3.2c-.77,2.36-1.57,4.8-2.73,6.97-10.47,19.55-27.46,33.64-50.5,41.85-3.21,1.15-7.26,.8-10.03,.44-4.73-.61-6.19-4.17-6.59-7.05-.55-3.99,1.03-7.23,4.46-9.11,1.02-.56,2.24-1.18,3.51-1.52,11.63-3.09,21.34-10.01,31.46-22.46,2.82-3.46,5.62-7.02,8.34-10.47,1.59-2.02,3.19-4.05,4.79-6.06,.81-1.02,1.58-1.9,2.35-2.69,2.5-2.58,5.06-3.89,7.52-3.89,.95,0,1.89,.2,2.8,.59,3.26,1.41,5.23,4.92,5.71,10.16-.39,1.06-.74,2.15-1.1,3.23Z"/>
      <path d="M21.44,65.07c10.75-3.11,19.43-9.23,26.54-17.65,5.94-7.03,11.41-14.48,17.55-21.33,2.46-2.74,5.91-5.02,9.36-6.3,4.08-1.52,5.25-2.65,3.76-6.97-1.83-5.34-7.03-7.96-12.23-5.6-2.42,1.09-4.79,3.01-6.35,5.16C46.87,30.58,30.22,44.71,10.29,55.05c-1.49,.77-3,1.68-4.16,2.87-2.88,2.93-3.68,6.62-2.4,10.43,1.15,3.45,3.77,5.5,7.73,5.82,2.89-5.98,4.05-7.37,9.98-9.09Zm-10.98,.23c-.88-.58-1.72-2.21-1.51-3.12,.17-.74,2.03-1.72,2.95-1.55,3.06,.56,4.44-.39,5.03-3.5,.86-4.54,2.07-5.01,6.23-3.15,3.7,1.65,5.54,.54,6.16-3.69,.96-6.49,1.83-7.18,8.47-6.66,3.25,.26,4.45-1.32,4.43-5.82-.01-4.63,1.17-5.92,5.91-6.42q7.07-.74,6.95-7.51c-.07-4.44,1.51-6.16,6.75-6.63,2.69-.24,4.81-.51,4.68-4.01-.02-.67,1.28-1.9,2-1.92,.69-.02,1.83,1.07,2.07,1.88,1.34,4.46-1.62,8.1-6.37,8.04-4.4-.06-5.03,.57-5,4.99,.05,6.62-1.97,8.85-8.52,8.88-3.12,.01-4.28,1.14-4.19,4.33,.19,6.98-1.98,9.05-9.1,8.87-2.3-.06-3.23,.75-3.68,2.92-1.53,7.33-2.93,8.36-9.99,7.27-2.34-.36-3.4,.41-3.66,2.68-.56,4.75-6.43,6.26-9.62,4.13Z"/>
    </g>
  </g>
</svg>