<?xml version="1.0" encoding="UTF-8"?>
<svg id="_图层_2" data-name="图层 2" xmlns="http://www.w3.org/2000/svg" viewBox="0 0 118.92 103.65">
  <g id="_图层_2-2" data-name=" 图层 2">
    <g>
      <path d="M65.11,49.4c.21,4.41,1.92,7.27,5.93,8.84,.75,.29,1.7,.66,2.37,.43,6.38-2.14,11.37-.14,15.99,4.45,2.18,2.17,5.15,3.65,7.96,5.05,1.26,.63,3.01,.28,4.65,.38-.09,.88-.15,1.56-.23,2.23-.42,3.59-.69,3.84-4.37,3.72-4.03-.13-7.22-2.2-10.23-4.61-2.66-2.13-5.39-4.05-9.05-4.05,1.09,2.96,2.3,5.8,3.14,8.76,.44,1.55,1.04,2.46,2.53,3.22,5.76,2.97,6.29,11.28,1.31,15.38-1.65,1.36-2.7,3.44-4.4,5.68,6.68,0,12.4-.03,18.12,.02,1.49,.02,1.83-.63,2.02-1.99,2.5-17.75,5.07-35.49,7.61-53.24,.46-3.21,.84-6.42,1.28-9.81H63.03c.75,5.31,1.84,10.4,2.08,15.54Z"/>
      <path d="M15.07,89.16c-1.05-3.17-1.85-6.42-2.67-9.66-.22-.88-.19-1.83-.29-2.93,2.2-.35,4.15-.87,6.11-.9,2.19-.04,3.59-.59,4.08-2.94,.38-1.82,1.84-3.67,1.58-5.31-1-6.39-2.58-12.68-3.79-19.04-.78-4.07-.66-4.09,3.46-6.08,1.24,6.75,2.46,13.32,3.67,19.9,.38-.03,.76-.05,1.14-.08,0-1.25,.25-2.56-.04-3.73-1.97-8.15-.2-16.22,.41-24.31,.12-1.57,.75-2.43,2.15-2.24,0,4.9,.08,9.74-.06,14.57-.03,1.02-.83,2.02-1.28,3.03-.13-.06-.25-.12-.38-.18v10.7c.28,0,.56,0,.83,0v-8.6c.32-.08,.64-.15,.96-.23,2.48,1.49,.05,4.61,1.81,7.11,2.68-5.21,2.12-10.84,3.93-15.88,2.05,.95,2.44,2.43,1.96,4.46-.63,2.66-1.04,5.37-1.6,8.39,2.15-.78,3.88-1.94,5.56-1.88,2.59,.08,3.09-1.33,3.4-3.21,.29-1.75,1.08-3.79,.5-5.23-.88-2.15-2.78-3.87-4.35-5.93-.53,1.6-.95,2.88-1.37,4.16-.29-.02-.59-.05-.88-.07,0-1.52-.07-3.04,.01-4.55,.27-5.2,.29-5.2-4.83-6.61-.08-.02-.17,0-.44,.03-.43,2.79-.87,5.62-1.31,8.45-.12-.01-.24-.02-.35-.04v-11.42c-2.47,1.08-4.59,2.01-6.56,2.87-.1-.75-.3-2.15-.55-3.9-2.74,1.79-7.03,1-6.58,5.56-2.17,1.03-4.4-1.25-6.55,1.13-1.01,1.12-3.7,.73-5.64,1.02,.75,3.88,1.39,7.19,2.02,10.5-.28,.05-.57,.09-.85,.14-.45-1.37-.9-2.75-1.44-4.41-1.27,.85-2.29,1.65-3.41,2.27-1.84,1.01-2.61,2.25-1.78,4.42,1.13,2.98,1.32,6-.51,8.9-.32,.5-.13,1.31-.21,1.97-.05,.46-.12,.92-.24,1.37-.21,.76-.8,1.57-.67,2.24,2.17,10.69,4.4,21.37,6.67,32.04,1.07,5.02,1.13,5.02,6.27,4.47,2.77-.3,5.54-.64,8.31-.96,.13-.25,.27-.51,.4-.76-1.45-1.71-2.93-3.4-4.33-5.15-.85-1.08-1.86-2.17-2.28-3.42Zm27.69-45.73c3.23,1.85,2.03,4.25,.84,6.35-.7,.35-1.41,.71-2.22,1.11,.45-2.46,.9-4.88,1.37-7.47Zm-6.45-8.93c2.22,.44,2.41,1.11,1.55,5.29-2.59-1.49-2.75-2.06-1.55-5.29Zm-14.58-2.31c.05-.61,1.45-1.1,2.66-1.95,.33,3.39,.59,6.19,.86,8.98-1.23,.53-2.15,.93-3.63,1.56,0-3.02-.14-5.83,.11-8.59Zm-6.27,3.33c.28-.07,.53-.19,.76-.19,.95,.03,1.89,.11,3.23,.19,.15,1.94,.31,3.89,.42,5.83,.02,.31-.12,.82-.32,.91-2.99,1.34-1.73,3.73-1.4,5.8,.87,5.47,1.87,10.92,2.79,16.37,.13,.75,.12,1.53,.17,2.3-.2,.2-.41,.4-.61,.6-.8-.79-2.21-1.5-2.3-2.37-1.07-9.55-1.94-19.13-2.86-28.7-.02-.24,.08-.48,.13-.76Zm-4.37,1.12c1.76,3.85,1.73,5.45-.11,6.93-1.97-4.67-1.94-6.27,.11-6.93ZM3.15,59.62c.22-1.78,.43-3.57,.65-5.35,.31,.01,.62,.02,.93,.03,.92,1.62,1.84,3.25,3.15,5.55-1.93-.1-3.33-.16-4.72-.23Zm4.96-2.56c-1.54-2.83-3.2-5.61-4.58-8.51-.9-1.88-.25-3.33,2.2-3.77,.89,4.04,1.78,8.07,2.67,12.11-.09,.06-.19,.11-.28,.17Zm1.46-3.82q-1.62-4.21,2.48-7.39c1.19,6.59,2.34,12.95,3.49,19.31-.26,.1-.53,.2-.79,.29-.49-.85-1.09-1.65-1.45-2.55-1.29-3.21-2.5-6.44-3.74-9.67Z"/>
      <path d="M83.1,91.59c2.32-1.54,3.02-3.72,2.89-6.27-.15-2.7-1.22-5.02-4.01-5.78-1.84-.5-2.29-1.53-2.69-3.2-2.27-9.63-7.25-17.23-17.34-19.79-4.62-1.18-9.62-1.53-14.4-1.28-10.5,.55-18.21,5.57-22.07,15.7-.83,2.18-1.43,4.45-2.28,6.62-.26,.67-.89,1.44-1.53,1.68-3.04,1.12-4.65,2.85-4.79,5.74-.15,2.98,.73,5.46,3.68,6.83,.57,.26,1.33,.79,1.43,1.3,1.03,5.76,5.41,7.66,10.27,8.41,6.49,1,13.06,1.41,19.79,2.1,6.45-.69,13.02-1.15,19.5-2.19,4.14-.66,7.59-2.79,9.2-7.14,.39-1.07,1.37-2.09,2.34-2.73Zm-50.17-27.35c8.94-8.11,26.88-8.51,36.23-.85,2.97,2.43,4.92,5.51,6.19,9.8-4.31-1.21-6.34,.83-7.65,4.25-.25,.64-1.42,1.28-2.16,1.28-.75,0-1.56-.73-2.21-1.3-.35-.3-.4-.94-.6-1.41-.81-1.89-2.05-3.15-4.28-3.16-2.33-.01-3.67,1.27-4.52,3.26-.52,1.23-.6,2.71-2.56,2.75-1.94,.04-2.49-1.2-3.01-2.62-.8-2.16-2.2-3.47-4.66-3.38-2.38,.08-3.55,1.58-4.26,3.57-.46,1.28-.91,2.73-2.56,2.25-1.04-.3-2.28-1.18-2.7-2.12-1.22-2.73-3.04-4.13-6.43-3.62,1.06-3.53,2.65-6.4,5.17-8.69Zm42.95,14.39h-6.03c.3-1.97,.65-3.63,2.81-3.69,2.35-.07,2.58,1.79,3.22,3.69Zm-14.55,.01h-5.95c.32-2.05,.98-3.63,2.93-3.66,2.14-.04,2.71,1.66,3.02,3.66Zm-14.39,.08h-5.91c.29-1.86,.55-3.61,2.78-3.72,2.3-.12,2.73,1.62,3.13,3.72Zm-17.63-3.77c2.38-.21,2.85,1.66,3.17,3.71h-5.64c-.09-1.9,.36-3.52,2.47-3.71Zm-4.06,17.34c4.97-.54,5.82,4.26,9.23,6.6-6.28-.68-9.14-2.78-9.23-6.6Zm5.8,.09h7.23c-1.48,1.34-2.66,2.41-3.99,3.62-1.03-1.14-1.96-2.19-3.24-3.62Zm43.55,4.85c-3.69,1.14-7.52,2.42-11.32,2.52-9.07,.24-18.17-.16-27.25-.32-.33,0-.66-.15-1.55-.36,3.67-4.06,7.25-7,12.83-6.89,10.13,.21,20.26,.06,30.48,.06,.55,2.81-1.12,4.35-3.18,4.98Zm-23.32-8.11c-9.28,0-18.55,0-27.83,0-2.56,0-3.79-1.14-3.75-3.43,.04-2.33,1.21-3.36,3.82-3.36,18.55,0,37.11,0,55.66,0,2.68,0,3.85,1,3.88,3.31,.03,2.47-1.11,3.48-3.95,3.48-9.28,0-18.55,0-27.83,0Z"/>
      <path d="M111.56,25.81c-.97-.52-2.37-.33-3.58-.33-5.8-.02-11.59-.01-17.75-.01,2.36-5.77,4.33-11.35,9.79-14.67,.94-.57,1.86-1.19,2.79-1.79,.89-.57,1.71-1.4,2.68-1.67,4.46-1.24,8.97-2.32,13.42-3.45-.59-4.33-.6-4.34-4.44-3.39-2.52,.62-5,1.46-7.55,1.88-1.8,.3-3.68,.06-5.93,.06-.13,.22-.57,.93-.97,1.58-.99-.21-1.81-.38-2.87-.6,.41,2.74-1.41,2.51-3.04,2.36-.12,1.02-.23,1.85-.33,2.7-.83,.12-1.51,.21-1.95,.28-.54,2-.81,3.69-1.44,5.23-1.28,3.13-2.86,6.13-4.09,9.27-.64,1.63-1.46,2.2-3.23,2.18-7.2-.07-14.41,.09-21.61,.05-2.1-.01-3.13,1.06-3.31,2.86-.18,1.83,1.03,2.87,2.79,3.13,1.03,.15,2.08,.2,3.11,.19,14.15,0,28.29-.03,42.44-.07,1.65,0,3.4,.12,4.9-.39,.97-.33,2.16-1.7,2.2-2.65,.03-.93-1.08-2.26-2.03-2.77Z"/>
    </g>
  </g>
</svg>