<?xml version="1.0" encoding="UTF-8"?>
<svg id="_图层_2" data-name="图层 2" xmlns="http://www.w3.org/2000/svg" viewBox="0 0 74.31 65.92">
  <g id="_图层_2-2" data-name=" 图层 2">
    <g>
      <path d="M22.32,7.21c1.92-2.02,1.36-3.29-.5-4.69-1.07-.8-2.07-1.68-3.11-2.52h-2.95c-2.2,3.02-.12,4.86,1.8,6.84,1.54,1.59,2.77,2.45,4.76,.37Z"/>
      <path d="M18.9,56.12c-5.62-2.88-6.51-5.23-4.52-11.25,.91-2.76,2.56-4.95,4.6-6.97,6.19-6.12,12.3-12.33,18.44-18.49,1.87-1.88,3.41-4.09,1.11-6.34-2.2-2.16-4.25-.5-6,1.26-5.11,5.13-10.11,10.35-15.36,15.33-4.15,3.93-7.84,8.08-9.73,13.62-.27-5.21,1.1-8.18,5.76-12.96,5.82-5.97,11.65-11.93,17.47-17.9,1.57-1.61,2.13-3.42,.46-5.2-1.55-1.66-3.44-1.37-4.89,.11-7.38,7.51-15.46,14.39-21.92,22.76-5.15,6.67-5.81,15.15-1.35,21.28,2.69,3.69,4.24,7.28,3.74,11.79-.13,1.2-.12,2.74,1.7,2.58,1.76-.15,4.43,1.19,4.97-1.61,.61-3.14,2.07-1.98,3.55-1.13,3,1.72,5.97,3.42,9.64,2.8,.81-.14,1.84,.25,2.27-.75,.39-.91-.29-1.63-.78-2.32-2.31-3.22-5.76-4.85-9.15-6.59Z"/>
      <path d="M55.66,48.05c-2.48-2.31-4.2-4.89-3.7-8.37,1.15-8.02-2.62-13.66-8.57-18.33-1.11-.87-2.28-1.95-3.42-.4-1.18,1.59-4.22,2.22-2.96,5.18,.45,1.06,1.85,2.01,.66,3.24-1.19,1.22-2.21,.05-3.22-.6-2.25-1.45-2.99,.84-4.16,1.8-1.04,.86-2.66,1.72-1.45,3.58,.64,.98,1.92,1.89,.71,3.19-1.26,1.35-2.11-.11-3.16-.57-2.95-1.31-3.51,1.83-5.15,2.95-1.19,.81-1.21,1.91-.19,3.13,4.87,5.83,10.45,9.97,18.64,8.84,3.4-.47,6.18,.84,8.48,3.44,2.6,2.94,5.37,5.72,8.06,8.57,.93,.99,1.84,2.04,3.35,2.04,4.51,.02,9.02,0,14.72,0-6.77-6.44-12.65-12.12-18.65-17.69Z"/>
      <path d="M5.17,24.02c1.63-.98,3.32-2.21,3.83-4.18,.29-1.1-4.83-5.26-6.35-5.27-1.53,.14-2.53,.99-2.55,2.79-.01,1.65,4.16,7.2,5.06,6.66Z"/>
      <path d="M10.69,14.7c.63,.74,1.32,2.17,2.59,1.36,1.29-.83,2.45-1.97,2.94-3.42,.02-.97-.53-1.52-1.1-1.92-2.09-1.45-3.88-5.41-6.82-2.53-2.74,2.69,.76,4.63,2.38,6.51Z"/>
    </g>
  </g>
</svg>