<?xml version="1.0" encoding="UTF-8"?>
<svg id="_图层_2" data-name="图层 2" xmlns="http://www.w3.org/2000/svg" viewBox="0 0 54.97 117.93">
  <defs>
    <style>
      .cls-1 {
        fill-rule: evenodd;
      }
    </style>
  </defs>
  <g id="_图层_2-2" data-name=" 图层 2">
    <g>
      <path class="cls-1" d="M33.98,51.47c-4.12,2.18-8.67,4-14.99,4h-3.5c-6.01,0-11.87-1.57-15.49-4v62.46c4.87,3.26,11.45,4,19.49,4,4.77,0,14.23-1.59,14.51-5.97,.39-6.05-.02-13.77-.02-20.01V51.47Z"/>
      <path class="cls-1" d="M49.47,79.45h-7.99c-2.76,0-3.34-1-5.5-1.5v33.98c0,2.55,6.08,3,8.99,3h2c2.69,0,7.99-.64,7.99-3v-33.98c-2.15,.5-2.74,1.5-5.5,1.5Z"/>
      <path class="cls-1" d="M16.49,54.47h3c3.42,0,13.99-1.8,13.99-4,0-3.71-10.12-5-14.49-5v-5.5c0-1.12-.4-1.1-1-2,3.3-2.21,8.49-7.13,8.49-12.49v-3.5c0-7.17-6.06-18.03-9.49-21.99V5c-2.63,3.92-6.5,7.24-6.5,13.99v2c0,8.61,3.13,11.57,6,16.99-.6,.9-1,.88-1,2v5.5h-3c-3.1,0-11.99,1.75-11.99,4.5,0,3.48,11.64,4.5,15.99,4.5Zm1.5-42.47c0-.07,.49-.99,.5-1,2.7,.72,5,6.82,5,10.49v3c0,3.61-1.85,8.91-5.5,8.99,.22-2.62,3.5-6.08,3.5-9.49,0-5.86-3.5-10.88-3.5-11.99Zm-4.5,34.48h2v3.5c0,.97,.89,2,1.5,2,1.17,0,2-.83,2-2v-3.5c3.01,0,9.49,.98,9.49,3.5,0,2.64-6.79,3.5-9.99,3.5h-5c-2.67,0-7.99-1.08-7.99-3.5s5.32-3.5,7.99-3.5Z"/>
      <path class="cls-1" d="M45.47,69.46c-.6,.9-1,.88-1,2v4.5c0,1.51,.59,1.38,2,1.5v-6.5c0-1.91,.15-.18-.5-1.5,2.1-1.4,5-3.54,5-7v-.5c0-4.8-2.89-11.58-5.5-13.49v3c-1.76,1.18-3.5,4.01-3.5,7v3c0,2.74,1.95,6.86,3.5,7.99Zm2-8.49v-1c0-2.52-3.86-6-.5-6,.93,0,2.5,3.71,2.5,5v3c0,3.08-.81,5.43-4,5.5,.22-2.6,2-2.72,2-6.5Z"/>
      <path class="cls-1" d="M40.97,78.45l-1.94-1.13-.03-1.8,2.55-.85c-1.79-.22-5.07,.5-5.07,1.77,0,1.36,2.85,1.96,4.5,2Z"/>
      <path class="cls-1" d="M49.39,74.68l2.55,.85,.02,1.92-2.1,.78c1.66,.18,4.59-.68,4.59-1.78,0-1.27-3.28-2-5.07-1.77Z"/>
    </g>
  </g>
</svg>