<?xml version="1.0" encoding="UTF-8"?>
<svg id="_图层_2" data-name="图层 2" xmlns="http://www.w3.org/2000/svg" viewBox="0 0 70.44 105.2">
  <defs>
    <style>
      .cls-1 {
        fill-rule: evenodd;
      }
    </style>
  </defs>
  <g id="_图层_2-2" data-name=" 图层 2">
    <path class="cls-1" d="M62.28,14.4l.75-5.59v-3.24c0-4.18-15.2-5.56-20.39-5.56h-10.2c-5.46,0-11.35,.51-15.87,1.27-6.29,1.06-8.69,1.29-8.69,8.46s2.86,4.72-2.44,10.07c-1.21,1.22-5.44,7.13-5.44,8.93s3.4,3.1,5.1,3.24v54.22c0,13.66,13.4,19,27.34,19h2.78c15.49,0,30.59-3.35,30.59-18.54V32.9c2.42-.2,4.63-2.08,4.63-4.63v-1.39c0-2.88-6.48-9.74-8.16-12.48ZM34.29,.93h.93c7.83,0,23.89,.09,26.88,4.17-2.78,4.15-16.89,4.63-24.1,4.63h-1.39c-8.11,0-24.36-.18-27.34-4.63C11.98,1.05,26.93,.93,34.29,.93ZM8.8,6.95c3.57,.83,3.84,1.73,9.22,2.36,3.51,.41,6.54,.88,10.7,.88h14.83c3.6,0,7.43-.31,10.31-.81,4.57-.8,5.19-1.62,8.23-2.43v3.24c0,5.51-3.91,6.73-8.75,7.47-4.53,.69-9.01,1.8-14.42,1.8-7.63,0-30.12-.51-30.12-6.49V6.95ZM4.17,30.59c-1.32,0-3.24-.93-3.24-1.85,0-2.46,6.11-9.94,7.79-10.9l5.18,1.63c-.28,3.42-6.01,11.12-9.73,11.12Zm3.71,0c.58-2.18,5.8-5.7,6.91-10.25l15.8,1.45,3.54,.05-2.46,13.88c-10.41-.03-16.1-3.34-23.78-5.12Zm37.63,4.73c-2.1,.54-8.92,2.23-11.21,2.23l-2.03-.03,2.49-15.73,7.91,.25,11.67-1.65,1.74,12.53c.38,2.35-8.14,1.78-10.57,2.41Zm24.01-6.58c0,2.1-3.07,3.71-5.56,3.71l-6.77-.03-2.11-12.47,7.49-2.79c1.55,2.31,6.95,6.29,6.95,9.73v1.85Z"/>
  </g>
</svg>