<?xml version="1.0" encoding="UTF-8"?>
<svg id="_图层_2" data-name="图层 2" xmlns="http://www.w3.org/2000/svg" viewBox="0 0 126.35 79.74">
  <defs>
    <style>
      .cls-1 {
        fill-rule: evenodd;
      }
    </style>
  </defs>
  <g id="_图层_2-2" data-name=" 图层 2">
    <g>
      <path class="cls-1" d="M50.54,54.47c.14-1.67,.4-2.81,2.25-2.81h20.22c1.87,0,1.64,1.01,1.73,2.48l20.73,3.14v-2.25L90.41,3.93c-5.91-1.38-10.3-3.93-18.53-3.93h-13.48c-3.71,0-9.77,.32-12.48,1-2.61,.66-9.07,2.81-10.56,2.93l-5.04,53.35,14.04-2.25,6.18-.56Z"/>
      <path class="cls-1" d="M124.66,71.88l-3.95-.31-58.44,3.68-45.43-4.49H6.74c-2.99,0-5.47,.51-6.74,2.25,4.2,5.73,48.69,6.74,61.77,6.74,15.05,0,59.61,.12,64.58-7.3-.69-.38-.6-.56-1.68-.56Z"/>
      <path class="cls-1" d="M55.03,73.56l7.88,.24,56.7-3.05c-3.78-2.4-29.17-3.93-37.06-3.93h-6.74c-.04,1.8,.18,2.81-1.68,2.81h-22.46c-1.87,0-1.64-1.01-1.68-2.81h-7.86l-29.2,2.25,.05,.14,42.07,4.35Z"/>
      <polygon class="cls-1" points="49.89 65.69 50.54 55.59 45.48 55.59 29.28 58.41 28.64 64.58 28.64 66.26 37.62 66.26 49.89 65.69"/>
      <path class="cls-1" d="M75.29,55.31l-.04,8.71c0,3.64,10.49,.35,13.48,2.25h8.42v-2.25c0-2.78-.07-5.03-2.25-5.62l-19.61-3.09Z"/>
      <path class="cls-1" d="M63.45,61.77h-8.98v3.93h16.28v-10.67h-15.72v3.37h8.42c1.29,0,1.68,.39,1.68,1.68s-.39,1.68-1.68,1.68Z"/>
    </g>
  </g>
</svg>