<?xml version="1.0" encoding="UTF-8"?>
<svg id="_图层_2" data-name="图层 2" xmlns="http://www.w3.org/2000/svg" viewBox="0 0 67.71 104.3">
  <g id="_图层_2-2" data-name=" 图层 2">
    <g>
      <path d="M50.61,57.7c-.32-.29-.75-.42-1.21-.39-1.69,.12-1.71,1.63-1.72,2.27,0,.49,0,.98,.01,1.47,.02,1.1,.04,2.14-.11,3.16-.98,7.01-7.27,12-14.31,11.33-6.69-.63-11.95-6.32-11.96-12.96v-1.07c0-.72,0-1.43,0-2.15-.03-1.75-1.11-2.03-1.75-2.04-.53,0-1.76,.17-1.82,1.99-.01,.39,0,.78,0,1.23v.7c-.03,.91,.07,2.01,.17,3.06,.64,6.56,5.94,13.73,14.83,14.72,.61,.07,1.22,.1,1.83,.1,6.44,0,12.38-3.78,15.17-9.82,1.48-3.21,1.61-6.59,1.53-9.78-.02-.83-.24-1.44-.65-1.82Zm-1.94,11.1c-2.84,6.15-9.19,9.79-15.81,9.04-8.27-.92-13.2-7.58-13.8-13.67-.1-1.02-.19-2.08-.16-2.92v-.74c0-.43,0-.8,0-1.18,.03-.8,.31-.86,.57-.86,.02,0,.04,0,.06,0,.27,0,.59,.01,.61,.89,0,.71,0,1.42,0,2.13v1.07c.02,7.23,5.74,13.43,13.02,14.11,7.64,.71,14.51-4.69,15.58-12.32,.16-1.11,.14-2.25,.12-3.34,0-.48-.02-.95,0-1.43,.01-.98,.19-1.09,.64-1.12,.21,0,.29,.04,.34,.09,.16,.14,.26,.5,.27,.98,.08,3.04-.04,6.27-1.42,9.26Z"/>
      <path d="M67.62,101.21l-.02-.21c-.29-3.31-.53-6.62-.77-9.94l-.24-3.26c-.12-1.65-.24-3.3-.36-4.95-.12-1.65-.23-3.3-.36-4.96-.27-3.57-.54-7.15-.81-10.73l-.64-8.58c-.18-2.44-.35-4.89-.57-7.33-.16-1.83-.55-2.01-2.32-2.01H7.32c-3.2,0-3.47,.25-3.64,3.33v.19c-.2,3.34-.45,6.67-.69,10.01l-.2,2.77c-.2,2.71-.4,5.41-.61,8.12l-1.33,18.05c-.26,3.53-.52,7.05-.81,10.58-.04,.52-.04,1.11,.35,1.53,.39,.42,.99,.48,1.53,.48h.02c8.46-.04,16.91-.03,25.37-.03h37.44c1.44,0,2.17,0,2.63-.5,.45-.5,.39-1.19,.27-2.56Zm-1.13,1.78c-.13,.12-.96,.12-1.79,.12H27.29c-8.46,0-16.92,0-25.37,.03-.53,.03-.67-.09-.69-.11-.02-.02-.09-.13-.05-.64,.3-3.53,.56-7.06,.82-10.59l1.33-18.05c.21-2.71,.41-5.41,.61-8.12l.2-2.77c.25-3.34,.5-6.68,.69-10.03v-.19q.13-2.23,2.49-2.23H61.57s.02,0,.03,0c.44,0,.89,0,.97,.04,.07,.1,.12,.62,.14,.91,.21,2.43,.39,4.87,.56,7.31l.64,8.58c.27,3.58,.54,7.15,.81,10.72,.12,1.65,.24,3.3,.36,4.95,.12,1.65,.23,3.3,.36,4.96l.24,3.25c.24,3.32,.48,6.64,.78,9.96l.02,.21c.07,.76,.14,1.54,.03,1.67Z"/>
      <path d="M35.32,47.01c0,.07-.05,.13-.11,.29,.17,.05,.26,.11,.36,.11,3.92,0,7.84,0,11.76,.01,.66,0,.95-.36,1.2-.87,1.41-2.91,1.87-5.99,1.35-9.15-1.09-6.67-6.14-11.77-12.69-12.96-6.47-1.17-12.98,1.85-16.29,7.72-2.58,4.58-2.73,9.35-.61,14.17,.22,.5,.42,1.08,1.16,1.08,3.88,0,7.77,0,11.65,0,.2,0,.45,.05,.53-.22,.08-.26-.78-2.11-1.06-2.25-1.1-.56-1.86-1.42-2.24-2.6-.42-1.3-.2-2.21,.6-2.37,1.26-.25,1.44,.63,1.62,1.58,.18,.9,1.09,1.52,1.98,1.49,.86-.03,1.72-.77,1.89-1.63,.18-.88-.3-1.8-1.18-2.17-.39-.16-.82-.23-1.24-.27-2.03-.22-3.37-1.47-3.82-3.6-.36-1.69,.56-3.6,2.2-4.47,.55-.29,.92-.57,.92-1.27,0-.67,.42-1.18,1.13-1.19,.77-.02,1.18,.52,1.22,1.23,.03,.63,.32,.94,.85,1.21,1.26,.64,2.01,1.69,2.19,3.09,.09,.75,.19,1.59-.86,1.77-.98,.17-1.34-.43-1.4-1.31-.01-.2-.11-.42-.21-.6-.46-.84-1.17-1.26-2.12-1.07-.93,.18-1.51,.78-1.6,1.75-.09,.97,.38,1.63,1.25,2.02,.37,.17,.76,.15,1.15,.2,1.74,.23,3.02,1.11,3.58,2.79,.56,1.67,.39,3.32-.97,4.53-.97,.86-2.04,1.54-2.21,2.96Z"/>
      <path d="M5.72,48.01s.06,0,.09,0c.61-.02,1.22-.02,1.83-.01h.82s.58,0,.58,0h2.09s0,0,0,0c.5,0,.86-.15,1.07-.44,.21-.29,.24-.66,.1-1.11-.8-2.47-1.08-5.22-.9-8.65,0-.17,.04-.69-.31-1.05-.23-.24-.57-.35-.99-.34-.92,.02-1.83,.02-2.75,0h-.06c-.86,0-1.37,.45-1.51,1.34-.39,2.51-.81,5.01-1.24,7.52l-.18,1.1c-.09,.53,0,.93,.25,1.23,.24,.28,.61,.42,1.11,.42Zm-.21-1.45l.18-1.1c.42-2.51,.85-5.02,1.24-7.53,.06-.36,.09-.37,.39-.35,.93,.02,1.87,.02,2.8,0h.03s.06,0,.08,0c0,.03,0,.09,0,.16-.19,3.58,.11,6.46,.95,9.07,0,0,0,.01,0,.02-.02,0-.05,0-.07,0h-3.48c-.63,0-1.25,0-1.88,0-.17,.02-.24-.01-.27-.01h0s-.02-.11,.01-.27Z"/>
      <path d="M35.26,19.82c.04,.39,.03,.78,0,1.17-.05,.66,.21,.92,.9,1,3.01,.34,5.82,1.28,8.35,3,2.03,1.39,2.04,1.38,3.65-.54,.02-.03,.05-.05,.07-.08,.36-.36,.31-.65-.09-.97-3.43-2.72-7.27-4.43-11.95-4.86-.78-.21-1.04,.33-.94,1.27Z"/>
      <path d="M48.62,28.87c1.93,2.46,3.16,5.24,3.57,8.35,.22,1.64,.2,1.64,1.88,1.64,1.84,0,1.87,0,1.63-1.63-.51-3.55-1.71-6.83-3.84-9.75-1.46-1.99-1.43-1.97-3.15-.3-.62,.6-.62,1.01-.1,1.68Z"/>
      <path d="M14.09,38.86c.25-.02,.5,0,.75,0,1.67,0,1.68,0,1.93-1.7,.38-2.62,1.32-5.01,2.77-7.21,1.3-1.98,1.29-1.96-.44-3.59-.53-.5-.84-.47-1.27,.09-2.63,3.36-4.25,7.12-4.63,11.4-.07,.75,.12,1.08,.89,1.01Z"/>
      <path d="M21.88,25.82c.53,.54,.85,.51,1.4,.05,2.33-1.92,5.02-3.08,7.97-3.65,1.6-.31,1.6-.29,1.6-1.92,0-1.71-.07-1.8-1.24-1.63-3.44,.5-6.6,1.71-9.44,3.74-2.16,1.54-2.13,1.52-.29,3.42Z"/>
      <path d="M58.12,48.1c.27,0,.53-.03,.76-.06,.26-.03,.53-.07,.7-.04h.04s.79,0,.79,0c.47,0,.89-.01,1.31,.01,.22,.01,.91,.06,1.33-.41,.38-.43,.33-1.02,.25-1.42-.23-1.27-.44-2.54-.64-3.82-.18-1.11-.36-2.23-.56-3.34-.06-.36-.1-.67-.14-.91-.22-1.56-.55-1.69-2.15-1.7h-.81c-.37,0-.84,.02-1.18,.38-.34,.37-.34,.87-.3,1.28,.19,2.01,.06,4.15-.4,6.52-.05,.24-.15,.5-.25,.76-.26,.69-.59,1.55-.04,2.22,.34,.42,.82,.52,1.29,.52Zm-.16-2.33c.12-.32,.24-.65,.3-.95,.49-2.49,.62-4.73,.42-6.86-.02-.25,0-.35-.01-.36,.03,0,.12-.03,.31-.03h.83c.41,0,.83,.01,.87,0,.04,.08,.09,.39,.13,.69,.04,.26,.08,.57,.15,.96,.19,1.11,.37,2.21,.55,3.32,.21,1.28,.42,2.56,.65,3.83,.06,.31,.02,.42,.03,.43-.02,0-.13,.05-.39,.03-.45-.03-.9-.03-1.4-.02h-.7c-.31-.03-.64,.01-.96,.05-.37,.05-.88,.11-1.01-.04-.13-.15,.08-.69,.23-1.08Z"/>
      <path d="M34.11,13.59c.98-.07,1.31-.71,1.31-1.62,0-1.71,0-3.42,0-5.13,0-1.74,0-3.49,0-5.23,0-.9-.32-1.54-1.31-1.61-.87-.06-1.4,.55-1.41,1.61-.01,3.45-.01,6.91,0,10.36,0,1.06,.55,1.68,1.41,1.62Z"/>
      <path d="M27.05,13.59c.91-.07,1.3-.63,1.31-1.5,0-1.17,0-2.35,0-3.52,0-1.21,.02-2.42,0-3.63-.02-.99-.56-1.57-1.4-1.51-.91,.06-1.31,.63-1.31,1.5,0,2.38-.02,4.77,0,7.15,0,.98,.57,1.57,1.4,1.51Z"/>
      <path d="M41.33,13.6c.83,0,1.34-.56,1.36-1.56,.02-1.17,0-2.35,0-3.52,0-1.17,.02-2.35,0-3.52-.02-1-.52-1.57-1.35-1.57-.82,0-1.35,.56-1.36,1.56-.02,2.35-.02,4.69,0,7.04,0,1.01,.52,1.57,1.34,1.57Z"/>
      <path d="M14.16,41.28c-.07,0-.14,0-.21,0-.56-.05-.75,.22-.72,.76,.07,1.22,.34,2.39,.66,3.56q.5,1.81,2.38,1.81c.29,0,.57-.03,.86,0,.91,.1,1.04-.24,.68-1.03-.42-.94-.69-1.94-.9-2.96-.45-2.23-.46-2.23-2.75-2.16Z"/>
      <path d="M53.32,41.26c-.8,.02-1.06,.37-1.12,1.08-.11,1.14-.38,2.24-.77,3.31q-.64,1.77,1.21,1.77t2.43-1.87c.16-.58,.31-1.17,.42-1.76,.5-2.58,.47-2.59-2.16-2.53Z"/>
      <path d="M21.4,15.51c.9,.02,1.37-.52,1.39-1.4,.02-.92,0-1.85,0-2.77,0-.96,.02-1.92,0-2.88-.02-.83-.46-1.36-1.31-1.38-.91-.02-1.38,.53-1.39,1.41-.02,1.88-.02,3.77,0,5.65,0,.83,.46,1.36,1.31,1.38Z"/>
      <path d="M46.44,15.51c.9,.01,1.36-.54,1.38-1.42,.02-.92,0-1.85,0-2.77,0-.92,0-1.85,0-2.77-.01-.87-.42-1.46-1.32-1.48-.9-.01-1.37,.53-1.38,1.42-.02,1.88-.02,3.77,0,5.65,.01,.83,.47,1.36,1.31,1.37Z"/>
    </g>
  </g>
</svg>