<?xml version="1.0" encoding="UTF-8"?>
<svg id="_图层_2" data-name="图层 2" xmlns="http://www.w3.org/2000/svg" viewBox="0 0 65.11 72.4">
  <defs>
    <style>
      
    </style>
  </defs>
  <g id="_图层_2-2" data-name=" 图层 2">
    <path class="cls-1" d="M64.97,45.3c.09-1.95-2.36-1.26-3.36-2.26-.32-5.45-.99-10.91-.84-16.35,.12-4.58-1.73-5.47-5.8-5.02-5.42,.6-10.9,.69-16.35,1,1.52-2.59,4.61-3.01,6.69-4.83,3.29-2.88,5.94-6.02,4.59-10.87-.99-3.57-2.87-6.26-6.81-6.74-5.07-.61-8.18,2.34-10.54,6.27-.87,1.44-1.3,3.15-1.91,4.74-1.06,2.76-2.18,3.06-3.97,.4-2.07-3.07-4.05-6.3-7.67-7.95-4.09-1.86-7.59-.91-10.12,2.86-2.63,3.93-2.26,6.44,1.3,9.81,3.28,3.1,7.65,4.48,11.15,7.22-5.12,1.47-10.44,1.06-15.66,1.6-3.4,.35-4.54,1.26-4.09,4.78,.73,5.68,.96,11.43,1.4,17.15-1.14,.62-3.11,.58-2.81,2.48,.25,1.6,2.11,.86,3.11,1.47,.55,5.87,1.23,11.73,1.61,17.6,.2,3.08,1.45,3.86,4.42,3.53,7.71-.84,15.44-1.38,23.17-2.04,1.49,2.36,2.73,2.35,3.7-.38,7.15-.46,14.29-1.08,21.44-1.3,3.81-.12,5.63-.96,5.02-5.37-.72-5.22-.61-10.56-.86-15.84,.98-.85,3.12-.48,3.19-1.96ZM37.2,6c1.9-2.17,3.89-4.38,7.07-1.98,3.12,2.36,3.71,6.45,1.34,9.54-2.81,3.66-7.13,4.86-11.1,6.6-.84,.37-1.75,.56-3.47,1.1,1.84-5.79,2.52-11.12,6.15-15.27ZM12.69,14.3c-1.54-1.3-2.89-2.92-1.89-5.29,.78-1.84,2.2-2.52,4.09-2.46,4.85-.14,12.99,8.99,12.15,13.64-.17,.92-.83,1.38-1.69,.87-4.12-2.45-8.94-3.63-12.66-6.77ZM5.48,46.89c-.4-5.39-.71-10.79-1.24-16.18-.22-2.24,.56-3.02,2.73-3.15,6.01-.36,12.01-.88,18.02-1.34-2.16,4.15-4.64,8.08-7.65,11.68-.81,.97-1.68,2.27-.28,3.22,1.09,.75,2.09-.38,2.7-1.23,2.08-2.9,4.05-5.89,6.08-8.84,.69-1,1.26-2.49,2.73-2.07,1.23,.35,.9,1.82,1,2.87,.12,1.24,.15,2.49,.26,3.73,.82,9.49,.84,9.6-8.51,10.41-5.26,.46-10.52,1.41-15.84,.89Zm26.72,20.68c-6.97,.61-13.96,1.08-20.91,1.9-3.11,.37-4.09-.65-4.2-3.64-.19-4.97-.72-9.92-1.1-14.88,7.25-1.74,14.68-1.8,22.07-2.31,1.99-.14,3.36,.66,3.48,2.79,.29,5.38,1.76,10.71,.68,16.14Zm1.44-25.79c-.4-4.32-.8-8.64-1.23-13.24,3.02,.34,3.96,2.83,5.75,4.13,1.89,1.37,3.67,2.89,5.57,4.24,.73,.52,1.77,1.09,2.54,.19,1.02-1.18,.02-1.96-.86-2.65-3.4-2.68-7.12-5.03-9.26-9.01,6.16-.39,12.34-.69,18.49-1.23,2.57-.23,3.61,.46,3.66,3.15,.1,5.25,.48,10.49,.74,15.74h0c-7.37,1.63-14.9,.89-22.34,1.49-1.84,.15-2.88-.94-3.05-2.81Zm22.65,24.24c-6.64,.17-13.27,.82-19.91,1.27,0,0,0,0,0,0-.54-5.26-1.08-10.51-1.63-15.77-.24-2.35,.91-3.52,3.16-3.67,7.14-.45,14.26-1.44,21.43-.61,.19,4.79,.14,9.61,.65,14.37,.35,3.17-.34,4.33-3.71,4.41Z"/>
  </g>
</svg>