<?xml version="1.0" encoding="UTF-8"?>
<svg id="_图层_2" data-name="图层 2" xmlns="http://www.w3.org/2000/svg" viewBox="0 0 84.52 87.9">
  <defs>
    <style>
     
    </style>
  </defs>
  <g id="_图层_2-2" data-name=" 图层 2">
    <g>
      <path class="cls-1" d="M83.87,31.56c0-1.42-.69-1.58-1.78-1.63-4.66-.2-9.33-.44-13.99-.67,.32-.26,.61-.57,.96-.77,3.93-2.16,6.16-5.5,6.96-9.87,.35-1.92,.65-3.85,1.13-5.74,.69-2.73,1.77-5.35,4.29-6.86,1.58-.95,.54-1.51-.16-1.74-2.38-.77-1.65-1.78-.42-2.97,.28-.27,.69-.52,.51-1.15-1.27-.13-2.42,.31-3.52,.91-3,1.64-4.62,4.34-5.64,7.47-.87,2.66-1.27,5.42-1.74,8.16-.53,3.11-1.79,5.73-4.91,7.01-3.5,1.45-7.16,1.6-10.88,1.3,3.64-1.65,6.94-3.67,9.3-6.95,2.21-3.08,2.4-7.03,.51-9.8-2.32-3.39-6.75-5.15-10.39-4.11-4.02,1.14-6.19,4.32-8.17,7.63-.88,1.46-1.58,3.02-2.56,4.91-1.41-2.97-2.6-5.63-4.39-7.93-2.45-3.15-5.35-5.49-9.64-5.27-5.7,.3-9.78,5.89-7.57,10.61,1.71,3.66,3.95,7,7.65,9.06,.76,.42,1.45,.96,2.33,1.54-6.79,.82-15.2-1.66-18.39-10.47-1.11-3.07-2.35-6.14-4.31-8.79C7.06,2.79,4.68,.66,.8,.19c.88,1.32,1.98,2.28,2.12,3.36,.21,1.65-2.12,.79-2.73,2.15,4.26,2.09,5.87,6.16,7.5,10.25,1.92,4.81,4.63,9.05,9.33,11.67,.37,.21,.72,.46,.6,.98-4.46,.1-8.92,.27-13.37,.27-1.58,0-1.96,.57-2,2.05-.34,11.07-.78,22.14-.73,33.23,.03,6.69,.12,13.38,.66,20.05,.26,3.22,.82,3.54,3.96,3.28,.76-.06,1.53-.13,2.29-.13,23-.01,45.99,.64,68.99,.34,6.41-.08,6.53-.02,6.76-6.38,.59-16.59-.34-33.16-.3-49.74Zm-36.39-8.95c1.27-3.69,2.61-7.37,4.77-10.65,2.45-3.72,5.26-4.29,8.16-1.81,1.09,.93,1.57,2.09,1.49,3.51-.09,1.62-.95,2.91-1.89,4.12-2.7,3.49-6.37,5.54-10.47,6.92-.78,.26-1.79,.51-2.38-.13-.46-.5,.1-1.32,.32-1.96ZM26.09,14.31c-1.07-2.57-.68-4.08,1.09-5.12,1.91-1.13,4.26-.73,5.89,1.02,1.64,1.75,2.76,3.83,3.79,5.98,1.06,2.2,1.8,4.52,2.58,6.83,.43,1.28,0,1.88-1.37,1.78-.41-.06-.86-.04-1.23-.2-4.76-2.19-8.68-5.3-10.75-10.28Zm57,53.86c.03,5.22-.01,10.45-.27,15.67-.1,1.94-.87,2.49-2.67,2.49-10.17-.02-20.35,0-30.52,.11-1.64,.02-1.47-.82-1.59-1.92-.12-1.06,.82-2.79-.61-2.99-.74-.11-.45,1.93-.37,2.95,.11,1.59-.4,2.17-1.97,1.91-.54-.09-1.11-.02-1.67-.03-1.39-.04-3.08,.39-4.08-.26-.99-.64-.19-2.44-.36-3.72-.05-.4,.03-.99-.48-1.01-.71-.03-.52,.65-.6,1.1-.22,1.26,.7,2.96-.47,3.69-.91,.56-2.44,.12-3.69,.13-4.32,0-8.64,0-12.96,0,0-.04,0-.09,0-.13-5.02,0-10.03-.05-15.05,.03-1.44,.02-2.19-.28-2.32-1.85-.56-6.74-.49-13.5-.53-20.26,0-.84,.37-1.07,1.14-1.05,1.25,.04,2.51,.03,3.76,0,.44-.01,1.16,.22,1.19-.45,.03-.85-.78-.58-1.27-.6-1.11-.04-2.24-.11-3.34,0-1.29,.14-1.53-.46-1.48-1.57,.08-1.6,.11-3.21,.03-4.81-.06-1.25,.33-1.8,1.65-1.66,.97,.1,1.95,.07,2.92,.02,.55-.03,1.49,.33,1.47-.6-.01-.74-.88-.45-1.38-.47-1.04-.04-2.09-.07-3.13,0-1.02,.07-1.52-.16-1.48-1.34,.23-6.68,.41-13.37,.57-20.06,.02-.95,.3-1.31,1.3-1.35,10.59-.36,21.18-.29,31.77-.34,1.45,0,1.23,.83,1.33,1.74,.11,1.02-.6,2.86,.51,2.86,1.08,0,.53-1.88,.48-2.88-.06-1.44,.45-1.83,1.76-1.67,.76,.09,1.53,.02,2.3,.04,1.25,.04,2.76-.32,3.67,.26,.9,.58,.2,2.18,.36,3.32,.06,.43-.17,1.11,.59,1.06,.55-.04,.43-.6,.47-.99,.11-1.15-.54-2.78,.35-3.34,.9-.57,2.42-.21,3.66-.16,9.61,.36,19.21,.78,28.82,1.09,1.39,.05,1.73,.49,1.74,1.82,0,6.13,.09,12.26,.23,18.39,.03,1.18-.25,1.65-1.48,1.55-1.18-.09-2.37-.03-3.55,0-.39,0-.93-.03-.86,.59,.05,.41,.46,.47,.82,.48,1.25,.02,2.51,.08,3.76,0,1.13-.07,1.52,.38,1.41,1.45-.04,.41,.02,.84,.01,1.25-.02,1.66,.53,3.71-.24,4.88-.78,1.17-2.97,.26-4.53,.42-.47,.05-1.19-.09-1.2,.5-.02,.85,.8,.53,1.29,.57,1.51,.14,3.51-.65,4.42,.32,1.05,1.13,.36,3.18,.37,4.83Z"/>
      <path class="cls-1" d="M20.11,46.19c-.97-.65-.32-.92-.05-1.4,1.49-2.69,.65-5.44-2.11-6.84-1.13-.57-2.35-.83-3.6-.96-1.69-.18-2.4,.38-2.23,2.23,.46,4.85,.9,9.7,1.06,14.56,.07,2.2,.83,3.06,2.64,2.84,3.52,.09,5.87-1.17,6.65-3.39,.97-2.76,.21-5.3-2.36-7.04Zm-5.32-3.78c0-.37-.02-.51,0-.64,.15-.75-.63-1.9,.35-2.2,1.15-.35,2.35,.18,3.04,1.27,.76,1.22,.71,2.52-.17,3.68-.66,.86-1.81,1.16-2.61,.7-1.11-.64-.15-2.05-.6-2.82Zm4.93,10.35c-.85,1.27-2.24,1.59-3.64,1.76-1.08,.13-.74-.76-.8-1.29-.09-.83-.09-1.67-.13-2.5,0-.07-.02-.14-.01-.21,.18-1.02-.75-2.57,.46-2.97,1.41-.47,3.08-.08,4.12,1.32,.93,1.26,.86,2.63,.01,3.9Z"/>
      <path class="cls-1" d="M73.83,54.98c-2.4-2.8-4.82-5.6-7.3-8.33-.74-.82-.81-1.32-.02-2.18,2.01-2.19,3.9-4.5,6.16-7.13-4.81-.53-5.44,4.24-8.7,5.65,0-1.44,0-2.75,0-4.05,0-.86,.06-1.76-1.19-1.75-1.19,.02-1.48,.7-1.39,1.8,.42,5.42,.81,10.84,1.17,16.26,.06,.84,.37,1.38,1.22,1.35,1.06-.04,.83-.89,.83-1.57,0-2.16,0-4.32,0-6.77,2.2,2.37,4.31,4.64,6.42,6.92,.52,.56,.99,1.19,1.8,1.35,.55,.11,1.19,.28,1.57-.21,.5-.65-.27-.99-.58-1.34Z"/>
      <path class="cls-1" d="M33.74,76.66c-1.15-.66-1.17-1.78-1.38-2.87-.19-1.02-.26-2.09-.89-2.98-.69-.99-.5-1.83,.13-2.86,1.5-2.44,.65-4.76-1.97-5.98-1.49-.69-3.05-.91-4.66-1-1.42-.08-2.04,.43-1.87,1.96,.25,2.21,.33,4.44,.5,6.66,.17,2.36,.34,4.72,.55,7.08,.06,.64,.28,1.3,1.13,1.19,.74-.1,.75-.71,.75-1.29,0-.84,0-1.67,0-2.62-.04-.44-.11-1-.12-1.55,0-.66-.33-1.48,.44-1.89,.75-.41,1.51-.08,2.16,.35,1.46,.96,2.01,2.4,2.11,4.1,.09,1.43,.42,2.8,1.94,3.42,.51,.21,1.14,.36,1.5-.24,.31-.52,.26-1.15-.31-1.47Zm-7.31-8.41c-1.68-.66-.7-2.36-.94-3.59-.15-.77-.14-1.55,1.11-1.42,1.59,.16,3.03,1.37,2.89,2.72-.16,1.6-1.29,2.17-3.06,2.29Z"/>
      <path class="cls-1" d="M44.3,56.55c1.39-.24,.86-1.37,.7-2.19-1.06-5.18-2.18-10.34-3.21-15.52-.2-1.01-.67-1.47-1.66-1.48-.88,.03-1.59,.15-1.82,1.27-1.1,5.45-2.25,10.9-3.43,16.33-.19,.86,.02,1.37,.84,1.57,.94,.23,1.42-.2,1.57-1.15,.16-.96,.49-1.89,.63-2.85,.19-1.32,.61-1.98,2.22-2.04,1.75-.06,2.13,.77,2.35,2.11,.12,.75,.31,1.5,.49,2.24,.18,.76,.06,1.91,1.31,1.69Zm-5.42-7.89c.4-1.67,.8-3.32,1.35-5.57,.36,1.58,.56,2.52,.79,3.46q.58,2.42-2.14,2.11Z"/>
      <path class="cls-1" d="M58.03,53.77c.52-.75,1.42-1.65,.14-2.46-1.08-.68-1.68-.05-2.28,.94-1.39,2.29-3.97,2.17-5.32-.19-1-1.75-1.11-3.7-1.17-5.66-.02-1.55,.16-3.06,.69-4.52,.49-1.35,1.16-2.57,2.77-2.8,1.46-.22,2.12,.77,2.7,1.86,.64,1.2,1.29,.75,1.89-.02,.65-.83,.23-1.57-.29-2.27-2.21-2.97-6.02-2.68-8.42,.64-2.72,3.77-2.83,10.21-.25,14.27,2.54,3.98,6.85,4.09,9.54,.22Z"/>
      <path class="cls-1" d="M45.78,60.98c-1.36-.34-2.15,.25-2.02,1.78,.12,1.39,.18,2.78,.27,4.16-.13,2.99,.6,5.94,.55,8.93-.01,.77,0,1.5,1,1.81,4.34,1.35,9.15-1.99,9.09-6.54-.07-5.74-3.96-8.91-8.9-10.14Zm3.01,14.64c-1.37,.51-2.33,.26-2.31-1.49,.02-1.53,0-3.06,0-4.59h-.25c0-1.53,0-3.06,0-4.59,0-1.07,.56-1.29,1.5-1.07,2.27,.54,4.17,2.97,4.37,5.67,.27,3.49-.55,5.03-3.32,6.06Z"/>
      <path class="cls-1" d="M60.96,62.07c-.15-.71-.79-.92-1.48-.89-.69,.03-1.23,.31-1.39,1.02-.32,1.41-.59,2.84-.89,4.26-.65,3.05-1.32,6.1-1.97,9.16-.17,.81-.5,1.75,.75,1.99,1.08,.21,1.21-.63,1.37-1.41,.14-.68,.32-1.35,.46-2.03,.2-.99,.63-1.55,1.8-1.57,1.23-.03,1.79,.46,2,1.58,.15,.82,.35,1.63,.52,2.45,.12,.6,.37,1.09,1.08,1,.75-.09,.74-.7,.74-1.5-.96-4.54-1.95-9.3-2.99-14.05Zm-.71,8.85c-.33,.15-.87,.15-1.18-.03-.54-.3-.24-.88-.15-1.33,.16-.79,.4-1.58,.6-2.36,.14,.01,.28,.02,.42,.03,.18,.74,.39,1.47,.52,2.21,.08,.5,.5,1.14-.21,1.47Z"/>
      <path class="cls-1" d="M20.25,60.92c-1.11-.02-2.22,0-3.33,0v.02c-.62,0-1.25-.01-1.87,0-2.75,.07-2.83,.15-2.64,2.87,.25,3.67,.43,7.35,.78,11.01,.1,1.01-.46,2.89,1.22,2.74,1.33-.12,.72-1.83,.73-2.86,.01-1.25-.44-2.64-.02-3.7,.59-1.5,2.3-.68,3.52-.87,.57-.09,.91-.3,.97-.87,.06-.61-.31-.9-.85-.96-.76-.09-1.52-.16-2.28-.18-2.51-.09-1.46-2.05-1.69-3.28-.25-1.34,.53-1.89,1.83-1.82,1.18,.06,2.36,.1,3.53,.14,.72,.03,1.24-.2,1.24-1.03,0-.73-.36-1.19-1.13-1.2Z"/>
      <path class="cls-1" d="M73.18,60.79c-.56-.41-1.07-.21-1.49,.22-.29,.29-.49,.67-.73,1.01-.82,1.2-1.16,3.45-2.3,3.5-1.49,.07-1.69-2.25-2.66-3.39-.48-.57-.76-1.37-1.66-1.48-.67,.08-1.06,.46-.87,1.12,.17,.59,.49,1.14,.79,1.69,1.46,2.65,3.54,5.02,3.35,8.37-.08,1.45,.13,2.92,.27,4.38,.06,.66,.03,1.54,1.03,1.52,1.03-.02,.9-.89,.9-1.56,0-1.25,.04-2.52-.11-3.76-.31-2.52,.07-4.8,1.7-6.86,.81-1.03,1.35-2.27,1.96-3.44,.23-.43,.31-.96-.18-1.33Z"/>
      <path class="cls-1" d="M24.92,40.23c.32,4.52,.59,8.48,.87,12.43,.3,4.17-.54,4.1,4.22,3.87,1.04-.05,2.81,.64,2.81-1.16,0-1.61-1.8-1.04-2.69-1.03-1.93,.04-2.23-.78-2.25-2.48-.04-4.31-.31-8.62-.46-12.92-.03-.94,.02-1.9-1.37-1.78-1.29,.11-1.27,1.02-1.19,1.97,.05,.55,.06,1.11,.06,1.1Z"/>
      <path class="cls-1" d="M41.05,75.62c-.74-.33-.54-1.05-.57-1.65-.14-3.05-.28-6.11-.39-9.17-.02-.68-.2-1.47,.3-2.01,.48-.53,1.57-.77,1.07-1.72-.49-.93-1.6-.64-2.46-.73-.62-.07-1.25,0-1.87,.04-.53,.03-.94,.26-1.06,.82-.1,.45,.03,.93,.43,1.08,1.37,.51,1.27,1.7,1.36,2.78,.23,2.84,.41,5.68,.61,8.53,.07,.98,.24,1.98-1.19,2.19-.56,.08-.75,.59-.67,1.13,.08,.56,.49,.83,1.03,.85,.55,.02,1.11,0,1.67,0,0,0,0,0,0,.01,.35,0,.7,.01,1.04,0,.68-.03,1.47,.07,1.71-.83,.21-.81-.39-1.06-.99-1.33Z"/>
    </g>
  </g>
</svg>