<?xml version="1.0" encoding="UTF-8"?>
<svg id="_图层_2" data-name="图层 2" xmlns="http://www.w3.org/2000/svg" viewBox="0 0 83.64 66.82">
  <defs>
    <style>
  
    </style>
  </defs>
  <g id="_图层_2-2" data-name=" 图层 2">
    <g>
      <path class="cls-1" d="M3.39,21.07c5.22,.04,10.45,.02,15.68,.02,.4-.02,.8-.06,1.19-.06,3.99,0,7.99,0,11.98,0,12.68,0,25.36,0,38.04-.02,.77,0,1.02,.18,.99,.98-.06,2.03,0,4.06-.03,6.09-.01,.85,.1,2.03-.18,2.49-.22,.37-1.52,.14-2.31,.14-.54,0-.76,.13-.75,.73,.03,3.43,.04,6.86,0,10.28-.01,.91,.56,.68,1.05,.72,.56,.04,.92,0,.91-.76-.05-2.23-.02-4.46-.02-6.69,0-2.34,0-2.37,2.36-2.35,.69,0,.9-.17,.89-.88-.04-3.83-.06-7.66,.01-11.48,.02-1.01-.3-1.17-1.22-1.17-8.59,.04-17.17,.02-26.05,.02,1.92-.4,3.59-.7,5.22-1.11,3.24-.81,6.37-1.91,8.93-4.17,1.99-1.76,3.22-3.94,2.95-6.67-.53-5.5-6.19-8.54-11.32-6.12-2.48,1.17-4.51,2.92-6.33,4.94-3.35,3.71-5.9,7.95-8.08,12.42-.13,.27-.16,.72-.6,.7-.36-.02-.39-.4-.53-.66-.08-.15-.14-.3-.22-.45-2.98-5.85-6.35-11.4-11.68-15.47-.13-.1-2.61-1.71-3.9-2.06-3.72-.99-6.72,.25-8.87,3.15-1.87,2.52-1.5,6.35,.64,9.02,1.86,2.32,4.43,3.52,7.13,4.53,2.45,.68,4.89,1.41,7.42,1.73,.15,.02,.42,.08,.55,.17-.15,.07-.43,.07-.61,.07-2.46-.02-4.92-.03-7.38-.05-5.95-.28-11.91-.19-17.86-.25-1.01,0-1.24,.38-1.23,1.29,.03,3.49,.01,6.99,.02,10.48,0,2.36-.16,2.02,2.02,2.05,1.29,.02,1.29,.01,1.29,1.33,0,10.35,0,20.7,0,31.05,0,.33,0,.67,.02,1,.03,.47,.22,.61,.76,.63,1.11,.02,1.23-.56,1.22-1.45-.02-10.82-.01-21.63-.01-32.45,0-2.13,0-2.19-2.17-2.06-.92,.05-1.07-.3-1.06-1.07,.03-2.46,.04-4.93-.02-7.39-.02-.92,.25-1.2,1.18-1.19ZM46.7,11.55c2.8-1.86,5.7-3.56,8.91-4.62,1.27-.42,2.57-.72,3.92-.51,2.17,.33,3.2,2.45,2.1,4.37-.79,1.38-2.09,2.22-3.44,2.95-3.9,2.11-8.13,3.28-12.4,4.28-2.67,.63-5.33,1.4-8.34,1.04,2.91-2.9,5.98-5.32,9.25-7.5Zm-26.11,4.56c-1.74-.56-4.77-2.03-6.37-3.06-.79-.51-1.49-1.12-2.07-1.85-1.52-1.88-.56-4.36,1.81-4.73,1.39-.22,2.7,.12,4,.56,1.04,.35,2.07,.72,3.02,1.27,3.5,1.53,6.57,3.74,9.59,6.03,1.62,1.22,3.16,2.54,4.62,3.96,.23,.22,.41,.37,.62,.78-2.1,.29-4.1-.14-6.11-.55-3.29-.67-5.93-1.38-9.12-2.4ZM53.91,45.19c-1.86-.24-3.72-.04-5.57-.15-.97-.06-1.21,.25-1.2,1.21,.04,4.35-.01,8.7-.03,13.05,0,1.86,.01,3.73-.02,5.59-.01,.69,.27,.96,.94,.95,1.53-.02,3.07,.07,4.59-.02,3.62-.21,5.34-1.32,5.94-4.67,0-.33,0-.66,.01-.99,.04-3.39,.15-6.78-.05-10.16-.17-2.92-1.72-4.44-4.61-4.81Zm.35,15.82c-.07,.58-.21,1.12-.8,1.39-.62,.29-1.39,.55-1.89,.16-.58-.45-.23-1.28-.18-1.96-.22-2.05-.07-4.12-.1-6.17-.03-1.86,.02-3.72-.02-5.58-.01-.62,.18-.78,.79-.77,1.64,.03,2.24,.48,2.27,2.08,.07,3.62,.2,7.24-.07,10.86Z"/>
      <path class="cls-1" d="M35.66,57.62c-.26-1.03-.49-1.8-.49-2.18,1.11-.55,1.53-1.16,1.65-1.37,.59-1.08,.7-2.28,.7-3.48,0-3.4-1.43-4.99-4.81-5.43-2.05-.26-4.12,.03-6.18-.19-.81,.04-.7,.66-.7,1.17,0,3.66,0,7.32,0,10.98,0,2.46,.04,4.93-.02,7.39-.02,.97,.34,1.32,1.28,1.25,.59-.05,1.2-.05,1.8,0,.89,.07,1.15-.33,1.14-1.17-.04-2.36-.02-4.72,0-7.09,0-.4-.16-.91,.5-1.01,.64-.09,.87,.23,1,.81,.42,1.85,.9,3.68,1.34,5.53,.72,3.03,.71,3.01,3.87,2.95,.87-.02,1.11-.28,.86-1.13-.67-2.33-1.32-4.67-1.92-7.03Zm-2.15-5.69c-.41,1.47-1.55,2.14-3.02,1.81-.52-.12-.48-.47-.48-.83,0-1.33,0-2.65,0-3.98-.15-.67-.04-.99,.8-.97,2.16,.04,2.8,.64,2.79,2.89,0,.36-.07,.72-.1,1.09Z"/>
      <path class="cls-1" d="M70.77,57.93c-.64-3.43-1.26-6.86-1.89-10.29q-.47-2.58-3.07-2.58c-2.03,0-1.98,0-2.36,2.05-.86,4.67-1.76,9.34-2.65,14.01-.12,.62-.24,1.24-.35,1.86-.51,3.02-.51,3.01,2.61,2.79,.6-.04,.9-.25,.99-.86,.14-.99,.33-1.96,.5-2.95,.06-.35,.16-.6,.58-.68,2.04-.38,2.5-.08,2.83,1.95,0,.03,.01,.07,.02,.1,.48,2.88-.19,2.48,3.03,2.51,1.17,0,1.28-.13,1.06-1.27-.33-1.76-1.22-6.17-1.31-6.63Zm-4.02,.63c-2.05-.05-1.76,.29-1.51-1.62,.22-1.74,.48-3.48,.72-5.22,.03-.21-.05-.47,.23-.64,.34,2.33,.68,4.65,1.03,6.96,.06,.42-.1,.53-.47,.52Z"/>
      <path class="cls-1" d="M22.81,44.97c-2.23,.03-4.46-.01-6.68-.06-.61-.01-.8,.22-.83,.81-.17,3.19,0,6.39-.07,8.96,0,3.64,0,6.67,0,9.7,0,1.45,.08,1.52,1.49,1.57,.3,.01,.6,.05,.88,.12,1.19,.29,2.02-.3,2.02-1.48,0-2.36,.02-4.72-.01-7.09-.01-.73,.22-1.07,.97-.98,.23,.03,.47,0,.7,0,2.07,0,2.04,0,2.02-2.07,0-.75-.24-1.08-1.03-1.08-.85,0-1.94,.4-2.48-.19-.53-.58-.15-1.66-.16-2.52-.02-2.57,0-2.57,2.55-2.57,1.84,0,1.81,0,1.83-1.88,0-.89-.27-1.24-1.2-1.23Z"/>
      <path class="cls-1" d="M82.71,45.04c-.66,.06-1.33,.05-2,0-.63-.04-.93,.15-1.09,.82-.49,2.02-1.07,4.02-1.7,6.33-.48-1.64-.87-3-1.26-4.35-.83-2.85-.83-2.82-3.81-2.8-.79,0-.87,.24-.63,.92,.5,1.44,.95,2.91,1.37,4.38,.69,2.43,1.64,4.78,2.14,7.26,.02,1.89,.03,3.78,.07,5.67,.05,2.79-.43,2.47,2.48,2.49,1.55,0,1.49-.01,1.56-1.54,.11-2.59-.06-2.85,.31-6.82,0-.47,.88-3.76,.99-4.14,.73-2.42,1.45-4.84,2.23-7.24,.23-.72,.22-1.04-.65-.97Z"/>
      <path class="cls-1" d="M44.26,57.31c-.01-3.79-.02-7.58,0-11.37,0-.69-.19-.96-.9-.9-.73,.06-1.47,.07-2.19,0-.84-.08-1.05,.23-1.05,1.05,.03,3.46-.02,6.91-.04,10.37,0,2.79,.02,5.57,0,8.36,0,.72,.25,1.04,.98,1.01,.73-.03,1.46-.04,2.19,0,.89,.06,1.14-.33,1.12-1.18-.03-2.02,.01-4.05,.02-6.07-.05-.43-.13-.86-.13-1.28Z"/>
      <path class="cls-1" d="M19.6,43.13c1.93-.21,2.77-1.05,3.06-3.06,.06-.43,.02-1.37,.03-1.8-.03-.89-.6-1.59-.82-2.42-.07-.28-.24-.51-.14-.85,.9-3.06,.21-4.87-1.75-5.41-1.31-.36-2.71-.22-4.07-.29-.66-.04-1.16,.12-1.16,.98,.02,3.99,.02,7.98,0,11.97,0,.69,.31,.97,.96,.96,1.3-.01,2.59,.06,3.89-.08Zm-1.97-9.94c0-.2,0-.4,0-.6,.02-1.04,.53-1.33,1.44-.81,.85,.48,.91,2.44,.07,2.95-.38,.23-.82,.31-1.24,.13-.39-.17-.24-.57-.26-.88-.02-.26,0-.53,0-.79Zm.42,3.81c.67-.11,1.32,.06,1.66,.79,.19,.4,.2,.83,.2,1.26,0,1.36-.41,1.9-1.42,1.95-.57,.03-.88-.14-.86-.77,.02-.69-.03-1.39,.01-2.08,.02-.41-.26-1.05,.41-1.15Z"/>
      <path class="cls-1" d="M29.83,42.42c0-1.24,.04-1.24-1.21-1.25-.27,0-.53,0-.8,0-.8-.01-1.08-.15-1.07-1.01,.05-2.99,.02-5.98,.02-8.97,0-1.68,0-1.63-1.69-1.69-.85-.03-1.05,.25-1.04,1.06,.05,3.16,.02,6.31,.02,9.47-.01,.49-.03,.99-.03,1.48q0,1.62,1.63,1.61c1.13-.01,2.26-.04,3.39-.03,.51,0,.78-.07,.78-.69Z"/>
      <path class="cls-1" d="M51.43,37.29c.47,1.41,.93,2.76,1.38,4.11,.58,1.73,.58,1.7,2.44,1.71,.71,0,.86-.16,.61-.84-.73-1.96-1.39-3.94-2.12-5.91-.19-.5-.17-.94,.03-1.43,.64-1.53,1.25-3.07,1.87-4.62,.09-.22,.33-.47,.04-.71-.49-.42-2.43,.05-2.68,.65-.62,1.48-1.23,2.97-1.85,4.45-.16-1.17-.16-2.28-.16-3.4,0-1.8,0-1.76-1.78-1.79-.76-.01-.94,.23-.93,.96,.04,3.56,.02,7.12,.02,10.67,0,2.1,0,2.09,2.08,1.97,.48-.03,.62-.19,.61-.65-.02-1.33,0-2.66-.01-3.99,0-.4-.03-.8,.44-1.18Z"/>
      <path class="cls-1" d="M44.74,38.02c-.47,.03-.64,.17-.63,.64,.02,.56,0,1.13-.07,1.69-.06,.5-.3,.87-.89,.89-.6,.02-.94-.28-1.04-.85-.07-.39-.11-.79-.11-1.19-.01-1.73-.01-3.46,0-5.19,0-.56,.04-1.13,.1-1.69,.07-.64,.45-.93,1.09-.89,.63,.04,.85,.47,.9,1,.04,.5,.04,1,.03,1.49,0,.36,.11,.51,.5,.56,1.98,.24,2.4-.13,2.09-2.1-.32-2.07-.98-2.89-3.19-3.01-2.74-.14-4.06,1.01-4.21,3.75-.05,.93,0,1.86,0,2.79-.01,0-.02,0-.03,0,0,.76,0,1.53,0,2.29,0,.76-.01,1.53,.17,2.28,.51,2.09,1.68,2.89,4.06,2.77,1.94-.1,2.97-1.09,3.23-3.12,.26-2.02,.03-2.26-1.99-2.14Z"/>
      <path class="cls-1" d="M36.15,30.96c-.33-1.71,.03-1.38-1.72-1.43-1.57-.01-1.62-.02-1.83,1.03-.08,.38-.2,.74-.26,1.12-.35,2.05-.73,4.1-1.08,6.14-.27,1.59-.52,3.18-.8,4.76-.06,.34,.01,.46,.36,.52,1.76,.3,2.12,.06,2.38-1.67,.02-.13,.07-.26,.07-.39-.02-.81,.43-.92,1.14-.93,.8-.02,1.08,.23,1.18,1.03,.24,2.01,.28,1.98,2.03,1.96,.62,0,.78-.13,.66-.79-.73-3.78-1.38-7.58-2.11-11.36Zm-1.66,7.43c-.5-.01-.83-.02-.72-.68,.22-1.32,.39-2.65,.57-3.98,.04,0,.08,.01,.12,.02,.19,1.3,.37,2.61,.58,3.91,.08,.49,.04,.74-.55,.73Z"/>
    </g>
  </g>
</svg>