<?xml version="1.0" encoding="UTF-8"?>
<svg id="_图层_2" data-name="图层 2" xmlns="http://www.w3.org/2000/svg" viewBox="0 0 148.27 75.71">
  <defs>
    <style>
    
    </style>
  </defs>
  <g id="_图层_2-2" data-name=" 图层 2">
    <g>
      <path class="cls-1" d="M54.68,52.72c.64-2.62,.61-5.28,.22-7.9-.66-4.44-2.85-6.36-7.31-6.82-2.44-.25-4.89-.11-7.33-.12-2.13-.01-2.76,.66-2.77,2.81,0,5.1,0,10.2,0,15.3,0,5.15,0,10.3,0,15.45,0,2.05,.58,2.6,2.73,2.6,2.12,0,2.59-.45,2.6-2.51,0-3.8,0-7.6,.02-11.4,0-.39-.28-.91,.45-1.12,3.37-.98,6.07,1.02,6.07,4.56,0,2.81-.03,5.62,.01,8.43,.03,1.59,.78,2.06,2.95,2.04,1.75-.02,2.37-.53,2.38-2.09,.02-3.33,0-6.66-.03-9.99-.01-1.65-.52-3.17-1.49-4.48-.49-.67-.72-1.07,0-1.75,.84-.79,1.22-1.9,1.49-3.02Zm-5.16-2.01c-.55,2.09-1.96,2.79-4.86,2.93-1.47,.07-2.07-.27-1.87-1.83,.14-1.12,.03-2.28,.03-3.42,0-1.4,.04-2.8-.01-4.2-.02-.69,.2-.91,.88-.88,.98,.05,1.97,.05,2.96,.03,1.59-.02,2.56,.82,2.88,2.28,.37,1.67,.44,3.41,0,5.07Z"/>
      <path class="cls-1" d="M76.39,38.07c-2.03-.09-4.06-.07-6.09-.07-2.03,0-2.51,.52-2.52,2.61,0,5.15,0,10.3,0,15.45,0,5.25,0,10.51,0,15.76,0,1.64,.59,2.26,2.21,2.27,2.13,.01,4.27,.03,6.4-.07,4.44-.21,7.52-2.87,7.91-7.24,.64-7.15,.64-14.34,0-21.49-.39-4.37-3.49-7.03-7.92-7.23Zm2.66,26.48c-.06,3.36-2.11,4.85-5.41,4.23-.91-.17-.51-.78-.52-1.19-.03-3.9-.02-7.8-.02-11.71s.03-7.6-.02-11.39c-.01-.96,.22-1.21,1.19-1.2,3.51,.03,4.75,1.06,4.8,4.55,.08,5.57,.07,11.13-.02,16.7Z"/>
      <path class="cls-1" d="M104.04,65.23c-1.92-8.4-3.85-16.79-5.75-25.19-.32-1.43-1.11-2.09-2.61-2.07-1.44,.02-2.28,.51-2.62,2.03-2.4,10.56-4.86,21.11-7.33,31.66-.19,.82-.01,1.45,.55,1.97,1.42,1.33,4.48,.42,4.92-1.47,.29-1.26,.52-2.53,.82-3.78,.31-1.34,.26-3.26,1.11-3.84,1-.68,2.81-.13,4.25-.25,.94-.08,1.14,.43,1.29,1.12,.45,2.12,.89,4.24,1.33,6.37,.38,1.83,.97,2.33,2.85,2.33,2.46,0,3.02-.71,2.48-3.14-.43-1.91-.85-3.83-1.28-5.74Zm-9.39-8.8c.29-1.82,.61-3.63,.91-5.45,.09,0,.18,0,.28,0,.42,2.63,.83,5.26,1.25,7.88q-2.88,.34-2.44-2.43Z"/>
      <path class="cls-1" d="M100.57,31.66c1.85,0,2.37-.46,2.39-2.26,.03-2.55,0-5.1,.01-7.65,0-.59-.15-1.27,.57-1.69,.17,.25,.35,.49,.5,.74,1.82,3.19,3.62,6.38,5.45,9.56,.72,1.25,3.12,1.86,4.24,1.01,1.3-.99,.6-2.09,0-3.15-2.17-3.81-4.29-7.67-6.54-11.43-.69-1.16-.59-1.98,.1-3.06,2.28-3.51,4.46-7.09,6.66-10.65,1.06-1.72,.39-2.91-1.61-3.05-1.45-.1-2.42,.4-3.18,1.7-1.9,3.23-3.91,6.38-5.88,9.56-.31-2.97-.3-5.86-.32-8.74,0-1.92-.57-2.5-2.34-2.51-1.8,0-2.41,.59-2.41,2.45,0,8.95,0,17.91,0,26.86,0,1.79,.56,2.3,2.36,2.31Z"/>
      <path class="cls-1" d="M32.2,38.03c-3.44-.01-6.87,0-10.31,0-2.29,0-2.83,.55-2.83,2.83,0,5.05,0,10.1,0,15.15,0,5.1,0,10.21,0,15.31,0,2.19,.59,2.78,2.73,2.79,2.22,0,2.71-.48,2.72-2.79,0-3.7,.08-7.4-.04-11.09-.04-1.37,.4-1.65,1.63-1.55,1.4,.11,2.81,.06,4.22,.02,1.58-.04,2.17-.82,2.17-2.73,0-1.8-.6-2.54-2.14-2.57-1.56-.03-3.13-.04-4.69,0-.81,.03-1.19-.11-1.17-1.07,.07-2.65,.05-5.31,0-7.97-.01-.8,.21-1.06,1.03-1.04,2.24,.06,4.48,.05,6.72,0,1.76-.03,2.43-.88,2.39-2.88-.03-1.8-.64-2.43-2.43-2.44Z"/>
      <path class="cls-1" d="M71.79,23.06c.89,0,1.16,.37,1.31,1.12,.39,1.87,.89,3.72,1.2,5.6,.24,1.43,1.05,1.92,2.47,1.88,1.94,.02,2.65-.75,2.22-2.64-2.06-9.06-4.14-18.11-6.23-27.17-.28-1.22-1.04-1.84-2.34-1.83-1.3,.02-2.01,.67-2.29,1.89-2.08,9-4.16,18-6.23,27.01-.37,1.62,.04,2.44,1.24,2.68,1.96,.39,3.04-.15,3.4-1.73,.26-1.11,.46-2.23,.72-3.33,.84-3.57,.85-3.53,4.54-3.49Zm-1.37-11.9c.68,2.48,.85,4.79,1.25,7.19h-2.51c.41-2.36,.81-4.65,1.25-7.19Z"/>
      <path class="cls-1" d="M94.25,27.54c.82-1.85,.92-3.81,.84-5.79-.04-.97-.59-1.48-1.57-1.6-2.35-.28-3.01,.26-3.12,2.62-.02,.36-.05,.73-.08,1.09-.17,2.17-1.07,3.16-2.85,3.15-1.65,0-2.71-1.04-2.79-3.07-.11-2.7-.03-5.4-.03-8.11-.03,0-.06,0-.1,0,0-2.39,0-4.79,0-7.18,0-.41,.06-.83,.12-1.24,.25-1.71,1.35-2.74,2.87-2.71,1.45,.03,2.5,1.03,2.73,2.69,.1,.72,.1,1.45,.13,2.18,.06,1.29,.6,1.99,2.02,1.98,2.35-.02,2.8-.43,2.69-2.83-.03-.62-.08-1.25-.14-1.87-.42-4.08-3.23-6.68-7.32-6.81-4.01-.12-7.24,2.41-7.63,6.42-.62,6.27-.58,12.57,0,18.84,.29,3.21,2.83,5.81,5.64,6.22,4.17,.6,7.18-.77,8.59-3.98Z"/>
      <path class="cls-1" d="M117.55,49.1c-.37-.35-2.25-1.1-3.84-2.6,0,0-.2,.44-.2,.44-.38,.59-.5,1.01-1.22,1.71-.33-.14-.38-.45-.5-.74-1.23-2.84-2.47-5.67-3.73-8.49-.62-1.37-3.1-2.01-4.65-1.25-1.08,.53-1.21,1.51-.45,3.26,2.03,4.68,4.05,9.36,6.11,14.03,.38,.87,.59,1.73,.58,2.69-.03,4.32-.02,8.64-.02,12.96,0,2.61,.36,3,2.77,2.99,2.04-.01,2.56-.61,2.56-2.95,0-2.34,.1-4.69-.02-7.03-.24-4.61,0-9.1,2.5-13.17,.67-1.45,.7-1.43,.12-1.86Z"/>
      <path class="cls-1" d="M61.19,37.99c-2.02,.01-2.52,.49-2.52,2.45,0,5.15,0,10.3,0,15.45,0,5.25,0,10.51,0,15.76,0,2.01,.52,2.46,2.67,2.45,2.02,0,2.68-.61,2.68-2.53,0-10.35,0-20.71,0-31.06,0-1.96-.68-2.55-2.83-2.53Z"/>
      <path class="cls-1" d="M56.93,27.03c-1.46-.04-2.91,0-4.37,0q-2.25,0-2.25-2.17c0-7.34,0-14.68,0-22.01,0-2.26-.43-2.78-2.3-2.79-1.9,0-2.4,.56-2.4,2.74,0,4.32,0,8.64,0,12.96s0,9.06,0,13.58c0,1.74,.49,2.31,2.15,2.33,3.07,.04,6.14,.04,9.21,0,1.61-.02,2.1-.65,2.07-2.41-.02-1.61-.53-2.17-2.12-2.21Z"/>
      <path class="cls-1" d="M134.29,58.58c.33-.37,.83-.79,.67-1.02-.13-.18-.64,.02-1.21,.19-.51,.18-.89,.13-.49,.78,.52,.82,.65,.48,1.03,.05Z"/>
      <path class="cls-1" d="M147.97,66.34c-4.02-6.01-8.02-12.03-12-18.05-.42-.63-.9-.88-1.66-.87-2.65,.05-5.3,0-7.95-.27-.89-1.4-2.27-2.23-3.63-3.06-.35-.22-.78-.73-1.17-.11-.39,.64,.18,.91,.62,1.17,1.21,.71,2.35,1.5,3.2,2.63-.12,.51-.24,1.01-.36,1.52-2.52-.3-4.23-.93-5.43-1.68-.6-.38-.5-.55-.28-1.04,.82-1.83,1.59-3.68,2.37-5.53,.38-.91,.52-1.83-.27-2.58-1.15-1.11-4.36-.51-5.03,.94-.75,1.61-1.43,3.26-2.2,5.05-.52-.13-1.68-1.93,.12-2.71,.27-.12,.42-.43,.17-.78-.26-.36-.53-.42-.93-.22-1.16,.57-1.49,1.5-1.23,2.71,.25,1.16,.94,2.01,1.72,2.75,0,0,1.39,.95,1.4,.95,.87,.62,1.98,1.28,2.91,1.71,2.32,.96,3.94,1.3,6.09,1.75-.61,1.49-1.17,3-1.86,4.46-.39,.82-.28,1.44,.19,2.15,3.93,5.88,7.85,11.76,11.72,17.68,.66,1.01,1.16,.99,2.07,.38,3.66-2.48,7.34-4.93,11.05-7.34,.73-.48,.89-.85,.39-1.59Zm-21.12-15.3c.53,.03,1.16,.53,1.56-.12,.36-.59-.33-1.02-.48-1.55,0,0,0,0,0,0,.91-.05,1.35,.46,1.37,1.3,.02,.63-.37,1.08-.98,1.25-.76,.2-1.33,0-1.47-.88Zm1.73,5.61c-.45-.66-.33-1.36,.31-1.99,.32-.32,.67-.79,1.16-.34,.43,.4,.12,.73-.26,.99-.33,.23-.49,.54-.27,.93,.14,.25,.39,.35,.66,.28,.38-.09,.61-.35,.71-.74,.24-.93,.08-1.94,.72-2.79,.5-.66,1.15-.91,1.9-.8,.82,.12,1.21,.76,1.38,1.51,.18,.78-.32,1.26-.84,1.71-.3,.25-.64,.41-.94,.01-.23-.31-.12-.58,.18-.79,.36-.25,.66-.53,.45-1.02-.11-.26-.34-.39-.63-.33-.53,.11-.77,.48-.86,.98-.12,.66-.2,1.34-.38,1.98-.24,.84-.91,1.24-1.72,1.38-.71,.12-1.16-.32-1.58-.99Zm2.88,4.87c-.49-.39-.03-.72,.24-1,.28-.29,.76-.52,.55-1.01-.28-.65-.88-.34-1.35-.3-.38,.03-.74,.1-.89-.35-.19-.55,.3-.55,.75-.8,1.59-.55,3.36-1.14,5.11-1.77,.32-.11,.65-.22,.86,.04,.25,.34,.04,.69-.23,.97-1.31,1.32-2.62,2.64-3.92,3.96-.32,.32-.73,.55-1.1,.25Zm1.91,2.75c-1.32-1.62-1.29-1.83,.43-2.91,.48-.3,.97-.61,1.45-.92,.7-.44,1.41-.89,2.11-1.33,.35-.22,.73-.55,1.07-.06,.33,.48-.08,.75-.43,.97-1.1,.7-2.18,1.41-3.3,2.08-.67,.4-1.28,.75-.51,1.61,.23,.26,.47,.64,.04,.93-.44,.31-.63-.11-.85-.38Zm2.7,3.43c-.45,.23-.62-.2-.83-.48-1.25-1.61-1.23-1.72,.46-2.79,.48-.31,.97-.61,1.45-.92,.44-.28,.88-.56,1.32-.83,1.67-1.05,2.05-.93,2.8,.88,.13,.3,.27,.56-.06,.81-.46,.35-.67,0-.82-.32-.35-.73-.74-1.03-1.52-.43-.48,.37-.79,.62-.32,1.2,.28,.34,.48,.75-.03,1.05-.39,.23-.7-.01-.86-.38-.4-.91-.88-.48-1.45-.18-.82,.43-.45,.86-.13,1.36,.22,.34,.56,.73,0,1.03Zm6.28,.67c-.27,.26-.62,.47-.96,.14-.33-.33-.2-.66,.13-.92,.35-.27,.65-.55,.4-1.03-.14-.26-.4-.33-.67-.28-.47,.09-.69,.44-.78,.87-.15,.71-.21,1.44-.42,2.13-.24,.81-.84,1.26-1.71,1.36-.74,.09-1.15-.33-1.51-.88-.47-.75-.51-1.45,.22-2.07,.34-.28,.65-.84,1.15-.41,.57,.49,0,.76-.33,1.08-.34,.33-.45,.76,0,1.05,.51,.33,.96,0,1.1-.46,.25-.78,.25-1.65,.54-2.41,.29-.75,.79-1.45,1.79-1.41,.88,.04,1.42,.51,1.71,1.33,.3,.84-.15,1.39-.69,1.91Z"/>
      <path class="cls-1" d="M10.8,30.47c-.48-.15-1.06-.45-1.2-.21-.12,.2,.27,.58,.66,1.03,.36,.39,.48,.77,.91,.14,.55-.8,.18-.79-.37-.96Z"/>
      <path class="cls-1" d="M41.75,27.21c1.15-3.57,1.07-7.14-.79-10.52-.29-.53-.44-.93-.08-1.54,1.72-2.98,1.92-6.19,1.24-9.49-.67-3.21-2.7-4.97-5.95-5.43-1.92-.27-3.84-.18-5.77-.17-1.73,0-2.26,.63-2.27,2.42-.01,2.34-.16,4.69,0,7.03,.34,4.99,.4,5-5.02,5.98-.12-.16-.23-1.11-.31-1.68,1.07-1.04,2.21-1.99,3.53-2.71,.39-.21,.73-.5,.43-.97-.24-.37-.69-.3-.98-.1-1.44,.96-3.04,1.74-3.9,3.37-2.65,.03-5.31,.07-7.96,.08-.68,0-1.14,.18-1.54,.79-3.97,6.04-7.95,12.07-11.99,18.06-.58,.87-.48,1.26,.37,1.81,3.75,2.42,7.48,4.89,11.19,7.38,.73,.49,1.14,.58,1.7-.28,3.92-6.01,7.9-11.98,11.87-17.95,.45-.67,.51-1.27,.19-2.03-.65-1.53-1.2-3.1-1.79-4.65,1.28-.38,2.8-.74,4.12-.91,3.01-.4,4.73-2.69,6.95-4.37,.38-.29,.67-.83,.81-1.3,.33-1.14,.37-2.29-.8-3.05-.35-.23-.87-.32-1.15,.03-.3,.39-.09,.77,.39,.96,.91,.35,.75,.98,.42,1.64-.39,.77-.9,1.44-1.82,1.89,0-2.02-.01-3.84,0-5.66,0-.38-.2-.84,.32-1.09,1.26-.62,3.87,.51,4.26,1.94,.34,1.25,.49,2.54,.23,3.85-.48,2.36-1.02,2.85-3.4,2.96-.5,.02-.95-.17-1.44,.31-1.74,1.68-2.29,1.96-3.76,2.43-.83,.27-.94,.93-.93,1.69,.03,3.8,0,7.6,.02,11.4,0,1.77,.55,2.34,2.33,2.34,1.87,0,3.75-.02,5.61-.14,2.81-.18,4.82-1.65,5.68-4.31Zm-30.45,9.26c-.43,.67-1.12,.84-1.95,.51-.43-.17-.99-.3-.77-.93,.19-.56,.62-.4,1.01-.16,.35,.21,.69,.23,.96-.12,.17-.23,.17-.5,0-.72-.24-.31-.57-.42-.96-.36-.95,.15-1.81,.7-2.84,.45-.81-.2-1.29-.7-1.49-1.42-.22-.79,.22-1.41,.84-1.87,.64-.48,1.29-.21,1.9,.1,.35,.17,.63,.42,.38,.85-.19,.33-.49,.34-.8,.15-.37-.24-.75-.4-1.12,0-.19,.21-.22,.47-.05,.71,.31,.44,.75,.51,1.24,.4,.66-.15,1.31-.35,1.97-.44,.86-.11,1.5,.34,1.95,1.03,.39,.61,.17,1.19-.28,1.84Zm3.33-4.58c-.17,.6-.64,.32-1.02,.18-.38-.14-.78-.49-1.14-.1-.48,.52,.03,.94,.26,1.36,.18,.33,.38,.64,.03,.96-.43,.39-.62-.06-1.03-.37-1.14-1.25-2.38-2.63-3.65-3.99-.23-.25-.47-.51-.3-.8,.21-.37,.62-.31,.98-.17,1.73,.67,3.46,1.35,5.2,2.03,.42,.16,.79,.45,.67,.91Zm1.77-2.84c-.97,1.85-1.17,1.91-2.84,.76-.47-.32-.94-.65-1.42-.97-.69-.47-1.37-.94-2.06-1.41-.34-.23-.8-.45-.48-.96,.31-.49,.72-.23,1.07,.01,1.08,.73,2.16,1.45,3.22,2.2,.64,.46,1.2,.88,1.68-.17,.15-.32,.4-.68,.84-.41,.46,.29,.15,.62-.01,.93Zm1.97-2.89c-.98,1.78-1.09,1.81-2.74,.69-.47-.32-.94-.64-1.42-.96-.43-.29-.86-.58-1.29-.88-1.63-1.12-1.66-1.51-.3-2.92,.23-.23,.41-.47,.77-.27,.51,.28,.26,.61,.03,.88-.53,.62-.65,1.09,.21,1.57,.53,.3,.88,.48,1.23-.18,.2-.39,.5-.74,.97-.39,.37,.27,.27,.65,0,.94-.68,.73-.09,1,.41,1.4,.72,.58,.97,.07,1.3-.42,.22-.33,.45-.81,.95-.4,.39,.32,.06,.65-.11,.95Zm1.69-2.49c-.5,.73-1.13,1.05-1.99,.62-.4-.2-1.03-.26-.83-.9,.23-.72,.7-.31,1.12-.13,.43,.19,.88,.11,.97-.42,.1-.6-.37-.88-.86-.83-.82,.09-1.62,.43-2.43,.46-.81,.03-1.65-.15-2-1.08-.31-.83-.1-1.5,.54-2.09,.65-.61,1.34-.41,2.02-.13,.34,.14,.68,.38,.51,.82-.17,.44-.52,.45-.89,.24-.38-.21-.76-.38-1.11,.05-.19,.23-.14,.5,0,.72,.27,.4,.68,.45,1.1,.37,.71-.14,1.41-.38,2.12-.46,.84-.1,1.49,.27,1.93,1.03,.37,.65,.15,1.19-.21,1.73Zm-.4-5.72c-.55-.21-.89-.76-.7-1.37,.18-.59,.37-1.35,1.32-.99,.65,.06-.89,.91-.46,1.48,.45,.6,1.15-.09,1.72,.12-.37,.89-1.08,1.07-1.88,.76Zm17.75,7.14c-.39,1.43-3.02,2.53-4.28,1.89-.45-.23-.3-.62-.3-.95-.02-1.14,0-2.29,0-3.43s.03-2.39-.01-3.59c-.02-.67,.2-.87,.88-.9,2.39-.12,3.42,.65,3.92,2.98,.3,1.37,.15,2.7-.21,4Z"/>
    </g>
  </g>
</svg>