<?xml version="1.0" encoding="UTF-8"?>
<svg id="_图层_2" data-name="图层 2" xmlns="http://www.w3.org/2000/svg" viewBox="0 0 169.39 168.95">
  <g id="_图层_2-2" data-name=" 图层 2">
    <g>
      <path d="M61.97,69.16c-.1,.03-.18,.06-.25,.07-.06,.02-.11,.03-.16,.03-.04,0-.08,0-.13,0-.09,0-.19,0-.31-.02-.11-.01-.21-.02-.28-.02-.08,0-.15,.03-.22,.09-.07,.06-.13,.13-.18,.22-.06,.09-.1,.18-.14,.28-.04,.1-.07,.19-.09,.27h0s-.03,.1-.03,.1v.08c.01,.06,.02,.13,.02,.2,0,.07,.01,.14,.02,.2,0,.06,0,.1,0,.11l-.18,.75c-.09,.35-.19,.73-.29,1.12-.11,.39-.22,.79-.33,1.2-.12,.41-.24,.81-.36,1.21-.13,.4-.25,.79-.37,1.15-.08,.2-.15,.4-.22,.6-.06,.2-.09,.41-.09,.63,0,.04,0,.08,.02,.12,.01,.04,.03,.08,.05,.11,.02,.03,.05,.06,.08,.09,.03,.02,.06,.04,.1,.04h.18c.12,0,.23-.02,.35-.06,.11-.04,.22-.09,.33-.17,.06,.1,.12,.19,.18,.26,.06,.07,.11,.12,.17,.16,.06,.04,.13,.07,.2,.08,.07,.01,.16,.02,.26,.02,.2,0,.41-.02,.63-.07,.22-.05,.45-.11,.69-.18,.24-.07,.47-.16,.7-.26,.23-.1,.45-.2,.66-.3s.4-.21,.58-.31c.18-.1,.33-.19,.46-.28,.4-.29,.69-.59,.88-.92,.18-.33,.27-.65,.27-.96,0-.23-.06-.44-.17-.62-.12-.18-.3-.34-.54-.49-.24-.14-.55-.27-.92-.37-.37-.11-.81-.2-1.32-.27,.64-.22,1.22-.44,1.74-.67,.52-.23,.96-.47,1.34-.73s.66-.55,.86-.85c.2-.31,.3-.65,.3-1.04,0-.22-.05-.41-.15-.57-.1-.16-.23-.28-.4-.38-.17-.1-.36-.17-.57-.21-.21-.04-.43-.07-.66-.07-.18,0-.36,0-.53,.03s-.35,.04-.53,.08c-.18,.04-.38,.08-.58,.14-.21,.06-.43,.13-.68,.22-.16,.06-.3,.1-.4,.13Zm.37,4.96c.15,.03,.29,.05,.4,.07,.11,.02,.19,.04,.24,.05,.29,.07,.52,.17,.7,.29s.27,.28,.27,.45c0,.1-.02,.21-.07,.3-.05,.1-.11,.19-.18,.28-.07,.09-.16,.17-.25,.24-.09,.07-.18,.14-.26,.19-.22,.12-.44,.23-.67,.33-.23,.1-.45,.19-.68,.27s-.44,.14-.64,.19c-.21,.05-.4,.08-.57,.1-.01,0-.06,0-.13,0-.08,0-.16-.01-.26-.02l-.43-.05c.13-.49,.25-.98,.37-1.47,.12-.49,.27-.99,.43-1.52,.06,.02,.16,.04,.29,.07,.13,.03,.28,.05,.44,.08,.16,.03,.33,.06,.5,.08,.18,.03,.34,.05,.5,.08Zm1.19-4.34c.27-.05,.52-.08,.73-.08,.16,0,.29,.01,.39,.05,.11,.03,.19,.07,.26,.12,.06,.05,.11,.11,.14,.17,.03,.07,.05,.13,.05,.19,0,.1-.02,.2-.07,.3-.05,.1-.11,.2-.19,.29-.08,.09-.17,.18-.27,.26-.1,.08-.2,.15-.31,.2h0c-.29,.14-.58,.28-.87,.42-.29,.14-.58,.27-.86,.4-.28,.13-.56,.24-.83,.35-.27,.11-.52,.2-.76,.27,.05-.16,.09-.31,.14-.46,.05-.15,.09-.28,.12-.4,.04-.12,.07-.23,.09-.31,.03-.09,.04-.15,.05-.2,.03-.04,.06-.1,.09-.18,.03-.08,.06-.17,.09-.25,.03-.09,.06-.17,.08-.24,.02-.07,.04-.12,.06-.14,.06-.09,.2-.19,.39-.29,.2-.1,.42-.19,.68-.27,.25-.08,.52-.15,.79-.2Z"/>
      <path d="M67.06,77.23c.13,.08,.23,.15,.3,.21,.08,.07,.15,.12,.22,.17,.07,.05,.16,.08,.25,.11,.09,.03,.22,.04,.38,.04,.13,0,.3-.03,.5-.08,.2-.05,.41-.12,.64-.2,.22-.08,.45-.16,.68-.25s.43-.16,.62-.23c.04-.01,.11-.04,.2-.07,.1-.04,.21-.08,.33-.13,.12-.05,.26-.1,.4-.15,.14-.05,.28-.11,.41-.16,.13-.05,.26-.1,.37-.14,.11-.04,.21-.08,.28-.1,.06-.02,.13-.04,.21-.08,.09-.03,.17-.08,.27-.13,.09-.05,.18-.11,.26-.17,.08-.07,.15-.14,.2-.22,.02-.05,.03-.11,.05-.18,.01-.07,.02-.15,.02-.25,0-.06,0-.11-.02-.17-.01-.06-.03-.11-.06-.15-.03-.04-.07-.08-.12-.1-.05-.03-.11-.04-.18-.04-.04,0-.08,0-.13,.02-.05,.01-.1,.03-.16,.05-.35,.15-.62,.26-.82,.34-.2,.08-.36,.15-.48,.2-.12,.05-.22,.09-.3,.13-.08,.03-.18,.08-.29,.12-.21,.09-.44,.19-.7,.29-.25,.1-.51,.19-.76,.28-.25,.08-.5,.15-.74,.21-.24,.06-.44,.09-.62,.09-.07,0-.12-.02-.15-.06s-.04-.1-.04-.17c0-.12,.02-.29,.06-.49,.04-.2,.1-.42,.16-.64l.12-.44c.11-.42,.24-.85,.38-1.28,.14-.44,.29-.87,.43-1.3,.14-.43,.29-.86,.42-1.28,.14-.42,.26-.83,.36-1.23,.01-.06,.02-.11,.03-.17,0-.06,.01-.13,.01-.2,0-.1-.01-.2-.03-.29-.02-.1-.05-.19-.1-.26-.05-.08-.1-.14-.18-.19-.07-.05-.16-.07-.27-.07-.17,0-.32,.06-.46,.18-.13,.12-.22,.28-.27,.49,0,.21-.05,.5-.13,.85-.08,.36-.19,.77-.32,1.24-.14,.47-.29,.97-.47,1.52-.18,.55-.36,1.12-.56,1.71l-.36,1.1c-.03,.07-.05,.16-.07,.25s-.04,.19-.06,.29c-.02,.1-.03,.19-.04,.29-.01,.09-.02,.17-.02,.24,0,.14,.02,.27,.07,.39,.05,.12,.13,.22,.24,.29Z"/>
      <path d="M74.45,77.43c.05,.11,.11,.19,.18,.27,.08,.07,.17,.11,.29,.11,.07,0,.14-.02,.21-.05,.07-.03,.13-.07,.19-.13,.06-.05,.1-.11,.14-.17,.04-.06,.06-.13,.08-.19,.01-.07,.03-.16,.04-.28,.01-.12,.03-.24,.04-.37,.01-.13,.03-.25,.04-.38,.02-.12,.03-.22,.06-.3,.04-.14,.08-.29,.14-.46,.05-.16,.11-.33,.17-.49,.06-.17,.14-.33,.21-.49,.08-.16,.16-.3,.25-.44,.09,.02,.17,.06,.25,.1,.07,.05,.15,.07,.24,.07,.28,0,.55-.03,.81-.1,.26-.07,.52-.13,.78-.19,.18-.04,.34-.08,.5-.11,.16-.04,.31-.07,.45-.1,.14-.03,.29-.06,.42-.09,.14-.03,.28-.05,.42-.06,.1,0,.19-.02,.28-.03,.09-.01,.16-.02,.22-.04-.03,.14-.07,.28-.1,.42-.03,.14-.06,.27-.1,.4-.03,.13-.06,.24-.09,.35-.03,.11-.05,.2-.06,.28-.02,.07-.05,.16-.09,.29-.04,.12-.09,.25-.16,.39-.06,.14-.12,.29-.19,.45-.06,.15-.12,.3-.18,.45-.05,.14-.1,.27-.13,.39-.03,.11-.05,.2-.05,.27,0,.07,.01,.15,.04,.22s.06,.14,.1,.19c.05,.06,.1,.1,.17,.14,.07,.03,.15,.05,.24,.05,.15,0,.27-.03,.37-.09,.09-.06,.17-.13,.23-.23,.06-.09,.11-.2,.14-.31,.03-.12,.07-.23,.1-.34h0c.03-.06,.07-.14,.11-.25,.04-.1,.08-.22,.13-.34,.05-.12,.09-.25,.14-.38,.05-.13,.09-.25,.12-.36,.04-.11,.07-.2,.09-.28,.02-.08,.04-.13,.05-.16l.23-.88c.05-.22,.11-.47,.17-.74,.06-.27,.12-.55,.17-.85,.05-.29,.1-.59,.14-.9,.04-.31,.05-.6,.05-.89,0-.33-.03-.64-.09-.93-.06-.29-.16-.55-.3-.77-.14-.22-.33-.39-.57-.52-.24-.13-.54-.19-.9-.19s-.68,.08-1.03,.25c-.35,.17-.68,.39-1.01,.66-.33,.27-.64,.59-.95,.93-.3,.35-.59,.71-.85,1.07-.26,.36-.5,.72-.71,1.06-.21,.35-.39,.65-.53,.91-.17,.29-.33,.59-.48,.88-.15,.3-.28,.59-.39,.88-.11,.29-.2,.58-.26,.86-.06,.28-.1,.55-.1,.82,0,.1,0,.22,.03,.34,.02,.13,.05,.24,.09,.35Zm2.9-4.86c.03-.05,.05-.11,.08-.16,.03-.05,.06-.09,.08-.14,.03-.04,.05-.07,.07-.1,.11-.16,.24-.32,.38-.51,.14-.18,.29-.37,.44-.55,.16-.18,.32-.36,.5-.53,.17-.17,.35-.32,.54-.45,.19-.13,.37-.23,.57-.31,.19-.08,.38-.12,.58-.12,.16,0,.28,.04,.37,.13,.09,.09,.15,.2,.2,.33s.07,.27,.08,.41c0,.15,.01,.27,.01,.39,0,.14,0,.27,0,.4,0,.13-.02,.26-.03,.37-.01,.12-.03,.22-.04,.32-.02,.09-.03,.17-.05,.23-.13,.03-.32,.06-.58,.11-.25,.05-.53,.1-.84,.15-.3,.05-.61,.09-.92,.12s-.59,.05-.83,.05h-.67s.04-.09,.06-.15Z"/>
      <path d="M84.6,76.81c.04,.05,.1,.11,.17,.19,.07,.07,.16,.14,.26,.21,.1,.07,.22,.13,.35,.17,.13,.05,.27,.07,.43,.07,.25,0,.47,0,.63-.02,.17-.01,.31-.03,.43-.05,.12-.02,.23-.04,.31-.06,.09-.02,.18-.04,.28-.06,.11-.02,.26-.06,.45-.12,.19-.06,.39-.13,.6-.22,.21-.09,.43-.19,.65-.3,.22-.11,.42-.23,.59-.36,.17-.13,.32-.26,.43-.4,.11-.14,.17-.28,.17-.42,0-.07-.01-.13-.04-.19-.03-.06-.06-.11-.11-.16-.05-.05-.1-.09-.16-.12-.06-.03-.12-.05-.17-.05h-.17c-.29,.18-.57,.35-.84,.51-.27,.16-.55,.3-.83,.41-.28,.12-.58,.21-.89,.28-.31,.07-.65,.1-1.02,.1-.17,0-.31-.03-.43-.07-.12-.05-.22-.14-.3-.27-.07-.11-.13-.25-.19-.4s-.09-.34-.09-.54c0-.27,.03-.53,.08-.77,.06-.25,.14-.49,.24-.73,.1-.23,.23-.47,.37-.69,.14-.23,.3-.45,.47-.67,.12-.13,.26-.28,.42-.45,.16-.17,.34-.34,.53-.51,.19-.17,.39-.34,.6-.51,.21-.17,.42-.31,.63-.44,.21-.13,.41-.23,.62-.31,.2-.08,.39-.12,.56-.12,.06,0,.12,.02,.15,.06,.04,.04,.07,.09,.09,.15,.02,.06,.04,.12,.06,.19,.02,.07,.04,.14,.07,.19,.03,.06,.08,.11,.13,.15,.05,.04,.13,.06,.22,.06,.06,0,.12,0,.17-.01,.05,0,.09-.03,.12-.07,.03-.04,.06-.1,.07-.17,.02-.07,.02-.18,.02-.31,0-.19-.04-.37-.11-.54-.07-.17-.17-.32-.29-.44s-.27-.23-.43-.3c-.16-.07-.34-.11-.52-.11s-.36,.03-.54,.08c-.18,.06-.36,.13-.54,.21-.18,.09-.35,.18-.52,.29-.17,.1-.33,.2-.48,.3h0c-.24,.14-.5,.33-.76,.59-.27,.25-.54,.54-.8,.87-.27,.33-.53,.68-.78,1.07-.25,.39-.49,.79-.69,1.2-.15,.3-.26,.6-.32,.92-.06,.32-.09,.6-.09,.85,0,.35,.06,.66,.17,.95,.12,.29,.3,.58,.56,.88Z"/>
      <path d="M91.93,77.59c.03,.1,.09,.18,.15,.24,.07,.07,.16,.1,.27,.1,.18,0,.32-.05,.41-.14,.09-.09,.16-.2,.2-.34s.06-.28,.07-.43c0-.16,.01-.3,.02-.43,0-.16,.02-.33,.04-.51,.02-.18,.05-.37,.1-.56l.16-.66c.07-.02,.17-.05,.32-.11,.14-.06,.29-.11,.44-.17,.15-.06,.29-.12,.41-.17,.12-.05,.21-.07,.25-.07,.07,0,.16,.01,.25,.03,.09,.02,.19,.04,.29,.07,.1,.03,.2,.06,.3,.1,.1,.03,.18,.07,.26,.1l.19,.07c.19,.07,.39,.18,.59,.32,.2,.14,.39,.31,.56,.51,.17,.2,.32,.42,.45,.68s.21,.52,.26,.81l.03,.16c.02,.1,.04,.21,.06,.33s.05,.22,.1,.32c.05,.09,.11,.17,.19,.24,.08,.06,.2,.09,.35,.09,.1,0,.18-.02,.27-.05,.08-.03,.16-.08,.22-.13,.06-.05,.12-.12,.17-.19,.05-.07,.08-.15,.11-.22-.09-.57-.23-1.08-.43-1.53s-.43-.85-.71-1.19c-.28-.34-.61-.64-.98-.88-.37-.24-.78-.44-1.22-.59,.32-.28,.64-.57,.96-.87,.32-.29,.63-.6,.92-.91s.59-.63,.86-.97c.28-.33,.54-.68,.78-1.04,.01-.05,.02-.11,.02-.19,0-.09-.01-.18-.03-.28s-.05-.19-.1-.28-.1-.15-.17-.21c-.07-.06-.14-.08-.23-.08-.13,0-.25,.04-.34,.12-.09,.08-.18,.18-.25,.29-.07,.11-.13,.23-.18,.34-.05,.11-.1,.2-.15,.26-.3,.37-.61,.73-.93,1.09-.32,.36-.64,.7-.96,1.03-.21,.21-.41,.41-.61,.61-.2,.19-.4,.37-.61,.52-.21,.16-.42,.29-.64,.41-.22,.12-.45,.21-.7,.27l.24-.79c.11-.36,.23-.72,.34-1.06,.11-.34,.21-.69,.29-1.03,.03-.12,.05-.22,.07-.32,.02-.1,.04-.19,.05-.29,.02-.09,.03-.18,.03-.27,0-.09,0-.18,0-.28,0-.11,0-.21-.02-.29-.02-.08-.04-.15-.08-.2-.04-.05-.09-.09-.17-.11-.07-.02-.16-.04-.28-.04-.33,0-.53,.15-.61,.47l-1.51,6.07c-.03,.12-.06,.25-.09,.4-.03,.15-.06,.29-.08,.44-.02,.15-.04,.29-.06,.43-.02,.14-.02,.27-.02,.38,0,.09,0,.19,.01,.3,0,.11,.03,.21,.06,.31Z"/>
      <path d="M63.52,85.23c.07-.05,.12-.11,.16-.17,.04-.06,.07-.12,.08-.17,.02-.06,.03-.11,.03-.15,0-.07-.02-.13-.05-.18-.03-.05-.08-.08-.14-.1-.06-.02-.13-.04-.21-.05-.08,0-.17-.01-.27-.01-.2,0-.4,0-.6,.03-.2,.02-.41,.04-.62,.08-.22,.04-.44,.08-.69,.14-.24,.06-.51,.12-.8,.2-.05,.02-.14,.04-.25,.07-.12,.03-.24,.06-.38,.09-.14,.03-.27,.06-.39,.08-.13,.02-.23,.04-.29,.05l-.06-.14c-.02-.05-.07-.09-.14-.13-.07-.03-.2-.05-.4-.05-.09,0-.17,.04-.24,.11-.07,.07-.14,.16-.2,.26-.06,.1-.11,.2-.15,.3-.04,.1-.07,.18-.09,.24-.06,.17-.11,.34-.17,.52-.06,.18-.12,.38-.19,.61s-.14,.48-.23,.76c-.08,.28-.17,.61-.28,.99l-.27,.96s-.02,.07-.03,.11c-.01,.04-.02,.09-.04,.13-.02,.04-.03,.08-.05,.12-.02,.03-.04,.06-.06,.07-.16,.11-.3,.22-.39,.33-.1,.11-.15,.26-.15,.45,0,.12,.03,.22,.08,.3,.05,.08,.1,.16,.16,.23,0,.09-.02,.21-.05,.37-.03,.16-.06,.35-.1,.54-.04,.2-.07,.4-.1,.61-.03,.21-.05,.4-.05,.58,0,.21,.03,.38,.09,.52,.06,.13,.18,.2,.34,.2h.16c.06,0,.12-.03,.18-.09,.06-.06,.1-.12,.11-.2l.65-2.83c.31-.14,.62-.28,.93-.4s.62-.24,.93-.33c.31-.09,.62-.17,.93-.22,.31-.05,.62-.08,.92-.08h.14s.09,0,.14,0c.08-.03,.14-.08,.18-.14,.05-.07,.08-.13,.1-.19,.02-.06,.03-.12,.04-.17s0-.08,0-.08c0-.11-.04-.2-.13-.26-.08-.06-.18-.11-.3-.13-.12-.03-.24-.04-.36-.05-.12,0-.22,0-.29,0-.47,0-.95,.05-1.42,.16-.47,.11-.95,.24-1.43,.41,.02-.07,.04-.15,.06-.25,.02-.09,.04-.17,.05-.21,0-.04,.03-.12,.06-.24,.03-.12,.08-.27,.13-.43,.05-.16,.1-.33,.16-.52,.06-.19,.12-.36,.17-.53,.06-.17,.11-.31,.17-.44,.05-.13,.1-.22,.13-.27,.09-.08,.21-.15,.37-.23,.16-.07,.34-.14,.53-.21,.2-.07,.41-.14,.63-.2,.22-.07,.45-.13,.67-.18,.22-.06,.44-.11,.64-.15,.2-.05,.39-.09,.55-.13,.1-.02,.21-.04,.33-.05,.11-.02,.22-.04,.32-.05,.1-.02,.19-.03,.27-.05,.08-.02,.13-.03,.16-.04,.1-.03,.18-.07,.25-.12Z"/>
      <path d="M66.1,83.9c-.09-.02-.19-.03-.29-.03-.24,0-.42,.06-.54,.19-.12,.13-.21,.33-.28,.59-.03,.11-.04,.22-.04,.32s0,.2,.02,.28c.01,.08,.02,.17,.02,.27,0,.13,0,.25-.02,.37-.02,.12-.04,.24-.06,.35-.03,.12-.05,.23-.08,.35-.03,.12-.06,.24-.09,.37-.25,.99-.5,1.96-.76,2.93-.26,.96-.52,1.94-.76,2.93-.01,.06-.02,.12-.03,.18,0,.06-.01,.12-.01,.19,0,.15,.04,.28,.11,.4,.07,.11,.21,.17,.39,.17,.11,0,.21-.03,.3-.09,.09-.06,.17-.15,.23-.26,.01-.05,.03-.13,.06-.23,.03-.1,.06-.22,.1-.35,.04-.13,.08-.27,.12-.41,.04-.15,.08-.29,.12-.42,.04-.13,.07-.26,.1-.37,.03-.11,.05-.2,.07-.27l.52-2.04v.09c0,.13,.03,.25,.09,.36,.06,.11,.16,.19,.29,.23,.1-.02,.2-.04,.31-.06,.11-.02,.23-.04,.36-.04h.1c.22,0,.45,.05,.67,.15,.22,.1,.44,.23,.65,.39,.21,.16,.41,.36,.6,.58,.19,.22,.36,.46,.51,.71,.14,.23,.26,.46,.36,.69,.1,.23,.19,.43,.28,.61s.19,.33,.28,.44c.1,.11,.22,.17,.38,.17,.1,0,.19-.02,.28-.07,.09-.05,.16-.11,.22-.18,.06-.07,.11-.16,.15-.25,.04-.09,.06-.18,.06-.27,0-.12-.03-.23-.08-.33-.2-.43-.4-.8-.59-1.11-.19-.31-.37-.59-.54-.82-.17-.23-.34-.43-.5-.59-.16-.16-.32-.3-.48-.41-.16-.11-.31-.21-.46-.29-.15-.08-.3-.16-.45-.23,.05-.04,.15-.09,.28-.17,.14-.07,.29-.15,.46-.24,.17-.09,.34-.18,.52-.28,.18-.1,.33-.19,.47-.28,.34-.22,.64-.46,.9-.71,.26-.25,.46-.52,.61-.81,.13-.25,.2-.51,.2-.78,0-.08,0-.16-.02-.24-.01-.08-.03-.17-.06-.27-.06-.2-.15-.38-.27-.52-.12-.14-.26-.27-.42-.37-.16-.1-.33-.18-.51-.24-.18-.06-.36-.1-.54-.13-.18-.03-.35-.05-.51-.06-.16,0-.31-.01-.43-.01-.22,0-.4,0-.55,.01-.14,0-.27,.02-.38,.03-.11,0-.2,.02-.28,.03-.08,0-.17,.01-.25,.01-.11,0-.21-.01-.32-.03-.11-.02-.21-.05-.31-.08-.09-.03-.18-.05-.28-.07Zm1.22,1.39c.31-.04,.62-.06,.93-.06,.17,0,.36,0,.56,.02,.2,.01,.39,.05,.55,.09,.17,.05,.31,.12,.42,.21,.11,.09,.17,.22,.17,.38s-.07,.33-.2,.51c-.13,.17-.31,.35-.52,.52-.21,.17-.46,.35-.73,.51-.27,.17-.54,.32-.81,.46-.27,.14-.53,.27-.77,.38-.25,.11-.45,.19-.62,.26-.22,.08-.41,.16-.58,.25-.17,.09-.3,.19-.39,.3,.05-.18,.11-.38,.17-.6s.13-.46,.2-.7c.07-.24,.14-.48,.21-.71,.07-.24,.13-.46,.19-.67,.06-.21,.12-.39,.16-.56,.05-.16,.09-.29,.11-.37,.31-.11,.62-.19,.93-.23Z"/>
      <path d="M73.45,88.72c-.06,.22-.12,.43-.17,.64-.05,.21-.1,.39-.14,.56l-.78,3.41s0,.04,0,.06c0,.02,0,.04,0,.06,0,.08,.02,.15,.05,.22,.03,.07,.07,.13,.12,.19,.03,.04,.08,.06,.15,.07s.13,.02,.2,.02,.14-.01,.22-.04c.08-.03,.15-.06,.22-.11,.07-.05,.13-.11,.18-.17,.05-.07,.09-.14,.11-.23,.06-.24,.11-.48,.16-.72,.04-.24,.08-.47,.12-.71,.03-.23,.07-.46,.11-.7,.04-.23,.08-.46,.14-.69,.04-.19,.09-.37,.13-.51,.04-.15,.08-.28,.12-.4,.04-.12,.07-.23,.11-.34,.03-.1,.07-.21,.1-.31,.12-.39,.24-.77,.36-1.12,.12-.35,.24-.71,.36-1.06,.06-.19,.13-.38,.2-.57,.07-.18,.13-.36,.19-.52,.06-.17,.1-.32,.14-.47,.04-.14,.06-.27,.06-.38,0-.16-.04-.3-.12-.43-.08-.13-.19-.23-.33-.3-.17,0-.33,.04-.48,.11-.15,.07-.26,.19-.35,.36-.07,.31-.14,.61-.21,.89-.07,.28-.15,.56-.23,.84-.04,.13-.08,.28-.14,.46-.05,.18-.11,.37-.17,.58-.06,.21-.13,.42-.19,.65-.06,.22-.13,.45-.19,.67Z"/>
      <path d="M80.16,84.45c-.46-.03-.97-.05-1.51-.05-.12,0-.25,0-.39,.03-.14,.02-.28,.05-.4,.09-.12,.04-.23,.09-.31,.16-.08,.07-.13,.15-.13,.25,0,.06,.01,.12,.03,.18,.02,.06,.05,.12,.08,.18,.03,.06,.06,.11,.09,.16,.03,.05,.06,.09,.08,.12,.05,.05,.12,.08,.21,.11,.09,.03,.19,.04,.29,.06,.1,.01,.19,.02,.27,.02,.08,0,.13,0,.15,0l-1.62,6.55c-.23,.02-.45,.05-.65,.09-.2,.04-.41,.13-.6,.27-.11,.08-.19,.17-.24,.26-.05,.09-.07,.18-.07,.27,0,.06,.02,.12,.05,.17,.03,.05,.09,.1,.17,.14,.08,.04,.18,.07,.31,.1,.13,.02,.29,.04,.48,.04,.17,0,.36,0,.55-.02,.2-.01,.39-.03,.59-.06,.2-.03,.39-.06,.59-.1,.19-.04,.38-.08,.54-.14h0c.38-.09,.76-.2,1.16-.32,.4-.12,.79-.26,1.17-.43,.38-.16,.75-.36,1.11-.58,.36-.22,.69-.48,.99-.78s.56-.64,.79-1.03,.4-.83,.53-1.33c.02-.1,.04-.22,.05-.36,.01-.14,.02-.27,.02-.39,0-.23-.03-.45-.08-.66-.05-.21-.12-.41-.2-.59-.08-.18-.18-.35-.29-.51-.11-.15-.23-.29-.35-.42-.32-.33-.66-.6-1.02-.8-.36-.2-.74-.35-1.14-.46-.4-.11-.84-.18-1.3-.21Zm2.14,1.92c.23,.16,.43,.34,.61,.54,.17,.2,.31,.42,.42,.65,.1,.24,.16,.49,.16,.75s-.05,.51-.16,.75c-.11,.24-.25,.47-.42,.69-.18,.22-.38,.42-.61,.61-.23,.19-.48,.37-.73,.53-.25,.16-.51,.31-.77,.43-.26,.13-.51,.24-.74,.33-.23,.09-.46,.17-.67,.23-.21,.06-.4,.12-.56,.16-.16,.04-.29,.07-.38,.1l-.15,.03c.05-.22,.11-.45,.16-.69,.06-.23,.11-.46,.16-.68,.21-.89,.43-1.76,.66-2.63,.23-.86,.5-1.71,.83-2.55,.23,0,.47,.03,.73,.09,.26,.06,.51,.14,.76,.26,.25,.11,.49,.25,.72,.4Z"/>
      <path d="M89.4,85.22c-.33,.27-.64,.59-.95,.93-.3,.35-.59,.71-.85,1.07-.26,.36-.5,.72-.71,1.06-.21,.35-.39,.65-.53,.91-.17,.29-.33,.59-.48,.88-.15,.3-.28,.59-.39,.88-.11,.29-.2,.58-.26,.86-.06,.28-.1,.55-.1,.82,0,.1,0,.22,.03,.34,.02,.13,.05,.24,.09,.35,.05,.11,.11,.19,.18,.27,.08,.07,.17,.11,.29,.11,.07,0,.14-.02,.21-.05,.07-.03,.13-.07,.19-.13,.06-.05,.1-.11,.14-.17,.04-.06,.06-.13,.08-.19,.01-.07,.03-.16,.04-.28,.01-.12,.03-.24,.04-.37,.01-.13,.03-.25,.04-.38,.02-.12,.03-.22,.06-.3,.04-.14,.08-.29,.14-.46,.05-.16,.11-.33,.17-.49,.06-.17,.14-.33,.21-.49,.08-.16,.16-.3,.25-.44,.09,.02,.17,.06,.25,.1,.07,.05,.15,.07,.24,.07,.28,0,.55-.03,.81-.1,.26-.07,.52-.13,.78-.19,.18-.04,.34-.08,.5-.11s.31-.07,.45-.1c.14-.03,.29-.06,.42-.09,.14-.03,.28-.05,.42-.06,.1,0,.19-.02,.28-.03,.09-.01,.16-.02,.22-.04-.03,.14-.07,.28-.1,.42-.03,.14-.06,.27-.1,.4-.03,.13-.06,.24-.09,.35-.03,.11-.05,.2-.06,.28-.02,.07-.05,.16-.09,.29-.04,.12-.09,.25-.16,.39-.06,.14-.12,.29-.19,.45-.06,.15-.12,.3-.18,.45-.05,.14-.1,.27-.13,.39-.03,.11-.05,.2-.05,.27,0,.07,.01,.15,.04,.22,.02,.07,.06,.14,.1,.19,.05,.06,.1,.1,.17,.14,.07,.03,.15,.05,.24,.05,.15,0,.27-.03,.37-.09,.09-.06,.17-.13,.23-.23,.06-.09,.11-.2,.14-.31,.03-.12,.07-.23,.1-.34h0c.03-.06,.07-.14,.11-.25,.04-.1,.08-.22,.13-.34,.05-.12,.09-.25,.14-.38,.05-.13,.09-.25,.12-.36,.04-.11,.07-.2,.09-.28,.02-.08,.04-.13,.05-.16l.23-.88c.05-.22,.11-.47,.17-.74,.06-.27,.12-.55,.17-.85,.05-.29,.1-.59,.14-.9,.04-.31,.05-.6,.05-.89,0-.33-.03-.64-.09-.93-.06-.29-.16-.55-.3-.77-.14-.22-.33-.39-.57-.52-.24-.13-.54-.19-.9-.19s-.68,.08-1.03,.25c-.35,.17-.68,.39-1.01,.66Zm1.99,.39c.16,0,.28,.04,.37,.13,.09,.09,.15,.2,.2,.33s.07,.27,.08,.41c0,.15,.01,.27,.01,.39,0,.14,0,.27,0,.4,0,.13-.02,.26-.03,.37-.01,.12-.03,.22-.04,.32-.02,.09-.03,.17-.05,.23-.13,.03-.32,.06-.58,.11-.25,.05-.53,.1-.84,.15s-.61,.09-.92,.12c-.31,.03-.59,.05-.83,.05h-.67s.04-.09,.06-.15c.03-.05,.05-.11,.08-.16,.03-.05,.06-.09,.08-.14,.03-.04,.05-.07,.07-.1,.11-.16,.24-.32,.38-.51,.14-.18,.29-.37,.44-.55,.16-.18,.32-.36,.5-.53,.17-.17,.35-.32,.54-.45,.19-.13,.37-.23,.57-.31,.19-.08,.38-.12,.58-.12Z"/>
      <path d="M99.02,89.65c-.06,0-.12-.04-.18-.11-.06-.07-.13-.17-.19-.29s-.13-.27-.19-.44c-.06-.17-.12-.35-.18-.55-.05-.15-.1-.36-.16-.62-.06-.26-.12-.53-.18-.82-.06-.29-.12-.57-.19-.85-.06-.28-.12-.51-.16-.69-.03-.13-.08-.27-.14-.42-.06-.15-.13-.3-.22-.43-.09-.13-.18-.24-.29-.33-.11-.09-.22-.13-.35-.13-.12,0-.21,.03-.29,.1-.08,.07-.14,.15-.19,.24-.05,.09-.08,.2-.1,.31-.02,.11-.03,.21-.03,.29,0,.19,.03,.36,.09,.52,.06,.16,.13,.31,.21,.46,.11,.19,.2,.43,.26,.69,.07,.27,.14,.53,.21,.8,.08,.29,.16,.59,.25,.89,.09,.3,.19,.6,.3,.9,.11,.3,.23,.58,.38,.85,.14,.27,.3,.52,.48,.76,0,.04-.01,.08-.02,.12-.01,.04-.03,.09-.06,.14-.03,.05-.08,.12-.15,.2s-.15,.19-.26,.32c-.25,.3-.52,.59-.8,.87-.28,.28-.55,.55-.8,.81-.13,.14-.26,.27-.39,.39-.12,.13-.23,.24-.32,.36-.09,.11-.17,.22-.22,.33-.05,.11-.08,.21-.08,.31,0,.06,0,.13,.02,.2,.01,.07,.04,.13,.07,.18,.03,.05,.07,.09,.12,.13,.05,.03,.11,.05,.18,.05,.14,0,.27-.04,.39-.13,.12-.09,.24-.18,.34-.28,.46-.47,.97-1.02,1.53-1.65,.56-.63,1.13-1.31,1.71-2.05,.66-.83,1.3-1.69,1.94-2.6,.64-.9,1.26-1.8,1.88-2.67,.09-.13,.17-.27,.27-.42,.09-.15,.17-.31,.25-.47,.07-.16,.13-.31,.18-.47,.05-.15,.07-.29,.07-.4,0-.1-.01-.2-.04-.3-.03-.1-.06-.18-.12-.26-.05-.07-.12-.13-.2-.18-.08-.05-.18-.07-.29-.07-.09,0-.16,.02-.24,.06-.07,.04-.13,.08-.19,.14-.05,.06-.1,.12-.14,.19-.04,.07-.07,.14-.09,.21l-.17,.68c-.06,.14-.13,.28-.19,.42-.07,.14-.15,.29-.23,.43-.08,.15-.18,.31-.28,.47-.1,.16-.22,.34-.36,.54-.36,.53-.73,1.06-1.12,1.6-.38,.54-.75,1.04-1.1,1.51-.09,.12-.16,.17-.2,.17Z"/>
      <path d="M138.81,161.53c.42,.28,.87,.58,1.44,.96,1.09-2.08,2.16-4.11,3.24-6.18-.6-.27-1.09-.5-1.57-.71-1.04,2-2.07,3.95-3.11,5.93Z"/>
      <path d="M9.35,148.45c-1.7-1.33-3.38-2.65-5.09-3.98-.36,.54-.66,1-.96,1.44,1.64,1.28,3.23,2.53,4.83,3.78,.38-.39,.75-.77,1.21-1.24Z"/>
      <path d="M10.53,100.86c1.19,1.67,2.36,3.31,3.55,4.96,.48-.35,.92-.66,1.4-1-1.2-1.67-2.37-3.31-3.55-4.96-.49,.35-.94,.67-1.4,1Z"/>
      <path d="M97.34,125.42c1.22,1.69,2.41,3.34,3.63,5.02,.51-.38,.94-.71,1.38-1.04-1.19-1.65-2.35-3.25-3.53-4.87-.45,.27-.92,.55-1.48,.89Z"/>
      <path d="M149.29,50.57c-.39-.29-.82-.61-1.28-.96-1.23,1.71-2.14,3.56-2.94,5.51,.54,.22,1.05,.42,1.5,.6,.92-1.74,1.81-3.44,2.72-5.16Z"/>
      <path d="M8.97,23.45c1.48-1.5,2.9-2.94,4.36-4.42-.48-.43-.89-.79-1.16-1.04-1.41,1.38-2.79,2.73-4.2,4.12,.27,.35,.6,.8,1.01,1.34Z"/>
      <path d="M53.69,166.51c.42,.28,.86,.58,1.37,.92,1.12-1.79,2.21-3.53,2.93-5.52-.57-.19-1.09-.36-1.52-.5-.94,1.73-1.85,3.4-2.78,5.11Z"/>
      <path d="M29.32,61.37c1.31-1.44,2.6-2.84,3.89-4.25-.45-.41-.84-.77-1.27-1.17-1.32,1.44-2.6,2.84-3.9,4.26,.45,.41,.85,.78,1.27,1.16Z"/>
      <path d="M143.84,87.26c-1.11-1.31-2.25-2.65-3.41-4.02-.4,.24-.87,.52-1.35,.81,.98,1.7,2.28,3.06,3.62,4.38,.4-.41,.78-.8,1.14-1.17Z"/>
      <path d="M76.48,8.11c-1.4-1.18-2.75-2.32-4.14-3.49-.37,.41-.73,.82-1.15,1.29,1.46,1.23,2.88,2.42,4.33,3.64,.36-.53,.66-1,.96-1.44Z"/>
      <path d="M132.31,3.3c-.47-.37-.9-.7-1.36-1.06-1.16,1.41-2.3,2.78-3.38,4.1,.39,.39,.78,.78,1.22,1.22,1.15-1.39,2.32-2.81,3.52-4.26Z"/>
      <path d="M169.39,30.43c-.96-1.59-1.77-3.22-2.89-4.68-.47,.35-.9,.68-1.32,.99,.94,1.56,1.84,3.05,2.75,4.56,.49-.3,.96-.58,1.46-.88Z"/>
      <path d="M133.08,91.66c-1.11,0-2.09,.65-2.38,1.75-.25,.94,.02,2.06,.77,2.71,.83,.73,2.14,.8,3.06,.18,.86-.57,1.26-1.61,1.1-2.62-.08-.53-.34-1.05-.75-1.4-.5-.44-1.15-.62-1.81-.63Zm1.79,2.7s-.01,.07-.01,.09c0,.05-.02,.1-.03,.15-.02,.09-.05,.18-.09,.27,0,0,0,0,0,0,0,.02-.02,.04-.03,.06-.02,.05-.05,.09-.07,.14-.12,.2-.16,.26-.33,.42-.24,.22-.63,.4-.96,.43-.46,.05-.82-.02-1.17-.24-.03-.02-.07-.05-.1-.07,0,0-.06-.06-.07-.06-.07-.07-.14-.14-.2-.22-.04-.05,.03,.05,0,0-.01-.02-.03-.04-.04-.06-.03-.04-.05-.08-.08-.12-.02-.04-.05-.08-.07-.12,0-.01-.03-.07-.04-.09-.16-.39-.19-.66-.15-1.08,0,0,0,0,0,0,0-.03,0-.05,.01-.08,.01-.06,.02-.11,.04-.17,.01-.05,.03-.1,.05-.15,0-.02,.02-.04,.02-.06,0-.02-.02,.04,.01-.03,.05-.1,.1-.19,.16-.28,0-.01,.02-.03,.03-.04,0,0,.02-.02,.02-.03,.03-.04,.07-.08,.11-.11,.11-.11,.1-.1,.21-.17,.05-.03,.09-.06,.14-.08,.02-.01,.04-.02,.07-.03,.02,0,.02,0,.02-.01,0,0,0,0,.02,0,.27-.1,.46-.13,.74-.13,.45,0,.84,.09,1.2,.36,.05,.04-.04-.03,0,0,.02,.02,.04,.03,.05,.05,.04,.03,.07,.06,.1,.1,.03,.03,.06,.07,.09,.1-.01-.02,.02,.02,.05,.07,.05,.08,.1,.17,.14,.25,0,.02,.01,.03,.02,.03,0,0,0,.01,.01,.03,.02,.05,.03,.1,.05,.15,.03,.09,.05,.18,.06,.27,0,0,0,0,0,0,0,.02,0,.04,0,.07,0,.06,0,.12,0,.17,0,.09,0,.17-.01,.26Z"/>
      <path d="M44.62,161.07c-.5-.44-1.15-.62-1.81-.63-1.11,0-2.09,.65-2.38,1.75-.25,.94,.02,2.06,.77,2.71,.83,.73,2.14,.8,3.06,.18,.86-.57,1.26-1.61,1.1-2.62-.08-.53-.34-1.05-.75-1.4Zm-.01,2.07s-.01,.07-.01,.09c0,.05-.02,.1-.03,.15-.02,.09-.05,.18-.09,.27,0,0,0,0,0,0,0,.02-.02,.04-.03,.06-.02,.05-.05,.09-.07,.14-.12,.2-.16,.26-.33,.42-.24,.22-.63,.4-.96,.43-.46,.05-.82-.02-1.17-.24-.03-.02-.07-.05-.1-.07,0,0-.06-.06-.07-.06-.07-.07-.14-.14-.2-.22-.04-.05,.03,.05,0,0-.01-.02-.03-.04-.04-.06-.03-.04-.05-.08-.08-.12-.02-.04-.05-.08-.07-.12,0-.01-.03-.07-.04-.09-.16-.39-.19-.66-.15-1.08,0,0,0,0,0,0,0-.03,0-.05,.01-.08,.01-.06,.02-.11,.04-.17,.01-.05,.03-.1,.05-.15,0-.02,.02-.04,.02-.06,0-.02-.02,.04,.01-.03,.05-.1,.1-.19,.16-.28,0-.01,.02-.03,.03-.04,0,0,.02-.02,.02-.03,.03-.04,.07-.08,.11-.11,.11-.11,.1-.1,.21-.17,.05-.03,.09-.06,.14-.08,.02-.01,.04-.02,.07-.03,.02,0,.02,0,.02-.01,0,0,0,0,.02,0,.27-.1,.46-.13,.74-.13,.45,0,.84,.09,1.2,.36,.05,.04-.04-.03,0,0,.02,.02,.04,.03,.05,.05,.04,.03,.07,.06,.1,.1,.03,.03,.06,.07,.09,.1-.01-.02,.02,.02,.05,.07,.05,.08,.1,.17,.14,.25,0,.02,.01,.03,.02,.03,0,0,0,.01,.01,.03,.02,.05,.03,.1,.05,.15,.03,.09,.05,.18,.06,.27,0,0,0,0,0,0,0,.02,0,.04,0,.07,0,.06,0,.11,0,.17,0,.09,0,.17-.01,.26Z"/>
      <path d="M8.17,9.3c.86-.57,1.26-1.61,1.1-2.62-.08-.53-.34-1.05-.75-1.4-.5-.44-1.15-.62-1.81-.63-1.11,0-2.09,.65-2.38,1.75-.25,.94,.02,2.06,.77,2.71,.83,.73,2.14,.8,3.06,.18Zm-3.12-2.46s0-.05,.01-.08c.01-.06,.02-.11,.04-.17,.01-.05,.03-.1,.05-.15,0-.02,.02-.04,.02-.06,0-.02-.02,.04,.01-.03,.05-.1,.1-.19,.16-.28,0-.01,.02-.03,.03-.04,0,0,.02-.02,.02-.03,.03-.04,.07-.08,.11-.11,.11-.11,.1-.1,.21-.17,.05-.03,.09-.06,.14-.08,.02-.01,.04-.02,.07-.03,.02,0,.02,0,.02-.01,0,0,0,0,.02,0,.27-.1,.46-.13,.74-.13,.45,0,.84,.09,1.2,.36,.05,.04-.04-.03,0,0,.02,.02,.04,.03,.05,.05,.04,.03,.07,.06,.1,.1,.03,.03,.06,.07,.09,.1-.01-.02,.02,.02,.05,.07,.05,.08,.1,.17,.14,.25,0,.02,.01,.03,.02,.03,0,0,0,.01,.01,.03,.02,.05,.03,.1,.05,.15,.03,.09,.05,.18,.06,.27,0,0,0,0,0,0,0,.02,0,.04,0,.07,0,.06,0,.12,0,.17,0,.09,0,.17-.01,.26,0,.02-.01,.07-.01,.09,0,.05-.02,.1-.03,.15-.02,.09-.05,.18-.09,.27,0,0,0,0,0,0,0,.02-.02,.04-.03,.06-.02,.05-.05,.09-.07,.14-.12,.2-.16,.26-.33,.42-.24,.22-.63,.4-.96,.43-.46,.05-.82-.02-1.17-.24-.03-.02-.07-.05-.1-.07,0,0-.06-.06-.07-.06-.07-.07-.14-.14-.2-.22-.04-.05,.03,.05,0,0-.01-.02-.03-.04-.04-.06-.03-.04-.05-.08-.08-.12s-.05-.08-.07-.12c0-.01-.03-.07-.04-.09-.16-.39-.19-.66-.15-1.08,0,0,0,0,0,0Z"/>
      <path d="M105.71,32.2c-1.11,0-2.09,.65-2.38,1.75-.25,.94,.02,2.06,.77,2.71,.83,.73,2.14,.8,3.06,.18,.86-.57,1.26-1.61,1.1-2.62-.08-.53-.34-1.05-.75-1.4-.5-.44-1.15-.62-1.81-.63Zm1.79,2.7s-.01,.07-.01,.09c0,.05-.02,.1-.03,.15-.02,.09-.05,.18-.09,.27,0,0,0,0,0,0,0,.02-.02,.04-.03,.06-.02,.05-.05,.09-.07,.14-.12,.2-.16,.26-.33,.42-.24,.22-.63,.4-.96,.43-.46,.05-.82-.02-1.17-.24-.03-.02-.07-.05-.1-.07,0,0-.06-.06-.07-.06-.07-.07-.14-.14-.2-.22-.04-.05,.03,.05,0,0-.01-.02-.03-.04-.04-.06-.03-.04-.05-.08-.08-.12-.02-.04-.05-.08-.07-.12,0-.01-.03-.07-.04-.09-.16-.39-.19-.66-.15-1.08,0,0,0,0,0,0,0-.03,0-.05,.01-.08,.01-.06,.02-.11,.04-.17,.01-.05,.03-.1,.05-.15,0-.02,.02-.04,.02-.06,0-.02-.02,.04,.01-.03,.05-.1,.1-.19,.16-.28,0-.01,.02-.03,.03-.04,0,0,.02-.02,.02-.03,.03-.04,.07-.08,.11-.11,.11-.11,.1-.1,.21-.17,.05-.03,.09-.06,.14-.08,.02-.01,.04-.02,.07-.03,.02,0,.02,0,.02-.01,0,0,0,0,.02,0,.27-.1,.46-.13,.74-.13,.45,0,.84,.09,1.2,.36,.05,.04-.04-.03,0,0,.02,.02,.04,.03,.05,.05,.04,.03,.07,.06,.1,.1,.03,.03,.06,.07,.09,.1-.01-.02,.02,.02,.05,.07,.05,.08,.1,.17,.14,.25,0,.02,.01,.03,.02,.03,0,0,0,.01,.01,.03,.02,.05,.03,.1,.05,.15,.03,.09,.05,.18,.06,.27,0,0,0,0,0,0,0,.02,0,.04,0,.07,0,.06,0,.12,0,.17,0,.09,0,.17-.01,.26Z"/>
      <path d="M61.75,122.09c-2.12,1.44-4.24,2.88-6.36,4.32l-.91,.62c-.24,.16-.27,.52,0,.68,2.05,1.2,4.1,2.4,6.15,3.6,.29,.17,.59,.34,.88,.51,.26,.15,.58-.04,.59-.34,.07-2.64,.14-5.28,.21-7.92,0-.38,.02-.76,.03-1.14,0-.15-.06-.25-.16-.31-.11-.1-.27-.14-.43-.03Zm-.4,8.25c0,.16,0,.31-.01,.47-1.86-1.09-3.72-2.18-5.58-3.27-.11-.07-.23-.13-.34-.2,1.94-1.32,3.88-2.64,5.82-3.96,.1-.07,.2-.14,.3-.21-.06,2.39-.12,4.78-.19,7.16Z"/>
      <path d="M44.44,67.11c.11-.11,.15-.27,.03-.43-1.46-2.11-2.92-4.21-4.38-6.32-.21-.3-.42-.6-.63-.91-.16-.24-.52-.27-.68,0-1.18,2.06-2.37,4.12-3.55,6.18-.17,.29-.34,.59-.51,.88-.15,.26,.04,.58,.34,.59,2.64,.05,5.28,.09,7.92,.14,.38,0,.76,.01,1.14,.02,.15,0,.24-.06,.31-.16Zm-8.22-.77c-.16,0-.32,0-.47,0,1.07-1.87,2.15-3.74,3.22-5.61,.07-.12,.13-.23,.2-.35,1.34,1.93,2.67,3.86,4.01,5.79,.07,.1,.14,.2,.21,.3-2.39-.04-4.77-.08-7.16-.13Z"/>
      <path d="M167.33,54.07c-1.02-2.14-2.05-4.29-3.07-6.43-.15-.31-.29-.61-.44-.92-.14-.29-.52-.22-.68,0-1.54,2.15-3.08,4.31-4.63,6.46-.22,.3-.43,.61-.65,.91-.12,.17-.07,.33,.04,.44,.06,.09,.16,.15,.3,.15,2.56,0,5.12,0,7.68-.01,.37,0,.74,0,1.11,0,.32,0,.46-.33,.34-.59Zm-8.02-.18c-.11,0-.23,0-.34,0,1.4-1.96,2.8-3.91,4.2-5.87,.08-.11,.16-.23,.24-.34,.93,1.95,1.87,3.91,2.8,5.86,.05,.11,.11,.22,.16,.33-2.35,0-4.71,0-7.06,.01Z"/>
      <path d="M71.76,18.7c-.3,.07-.36,.45-.17,.65,1.76,1.97,3.53,3.95,5.29,5.92,.25,.28,.5,.56,.75,.84,.13,.14,.28,.15,.41,.09,.11-.03,.21-.11,.24-.26,.55-2.5,1.11-5.01,1.66-7.51,.08-.36,.16-.71,.24-1.07,.07-.3-.18-.55-.48-.48-2.32,.53-4.64,1.07-6.96,1.6-.33,.08-.66,.15-.99,.23Zm7.53-.93c-.51,2.3-1.02,4.59-1.53,6.89-.03,.11-.05,.23-.08,.34-1.6-1.79-3.2-3.58-4.8-5.37-.1-.11-.2-.22-.29-.33,2.11-.48,4.22-.97,6.33-1.45,.12-.03,.24-.06,.37-.08Z"/>
      <path d="M139.85,64.26c.06-.12,.06-.23,.02-.33-.04-.13-.14-.23-.3-.25,0,0-.01,0-.02,0-.01,0-.02,0-.04,0-2.09,.02-4.17,.04-6.26,.05,.7-2.51,1.38-5.05,2.26-7.5,.09-.25-.14-.49-.38-.5-1.77-.07-3.54-.13-5.3-.2-.16,0-.35,.12-.38,.29-.61,3.38-1.21,6.77-1.82,10.15-.09,.48-.17,.97-.26,1.45-.04,.25,.11,.49,.38,.5,1.97,.03,3.93,.06,5.9,.09-.62,2.92-1.24,5.84-1.86,8.76-.09,.43-.19,.87-.28,1.3-.09,.42,.5,.71,.72,.3,.86-1.59,1.72-3.18,2.58-4.78,1.36-2.52,2.73-5.05,4.09-7.57,.32-.58,.63-1.17,.95-1.75Zm-3.26,4.38c-1.25,2.31-2.5,4.63-3.75,6.94,.47-2.19,.93-4.37,1.4-6.56,.09-.43,.18-.87,.28-1.3,.05-.25-.11-.49-.38-.5-1.97-.03-3.94-.06-5.91-.09,.58-3.22,1.15-6.44,1.73-9.66,.07-.38,.14-.77,.21-1.15,1.48,.06,2.96,.11,4.44,.17-.86,2.47-1.53,5.02-2.24,7.53-.07,.24,.12,.5,.38,.5,2.04-.02,4.08-.04,6.12-.05-.75,1.39-1.51,2.79-2.26,4.18Z"/>
      <path d="M38.15,42.22c1.54,.02,3.08,.05,4.62,.07-.49,2.29-.98,4.59-1.46,6.88-.08,.36-.15,.71-.23,1.07-.09,.42,.5,.71,.72,.3,1.78-3.29,3.56-6.59,5.34-9.88,.25-.47,.5-.93,.75-1.4,.06-.12,.06-.23,.02-.33-.04-.13-.14-.23-.3-.25,0,0-.01,0-.02,0-.01,0-.02,0-.04,0-1.63,.01-3.27,.03-4.9,.04,.55-1.98,1.09-3.97,1.78-5.9,.09-.25-.14-.49-.38-.5-1.41-.05-2.83-.11-4.24-.16-.16,0-.35,.12-.38,.29-.48,2.71-.97,5.42-1.45,8.13-.07,.38-.14,.77-.21,1.15-.04,.25,.11,.49,.38,.5Zm1.83-8.42c.05-.28,.1-.57,.15-.85,1.13,.04,2.25,.09,3.38,.13-.67,1.95-1.2,3.95-1.76,5.93-.07,.24,.12,.5,.38,.5,1.59-.01,3.17-.03,4.76-.04-1.5,2.77-2.99,5.54-4.49,8.3,.33-1.56,.66-3.12,1-4.69,.08-.36,.15-.71,.23-1.07,.05-.25-.11-.49-.38-.5-1.55-.02-3.09-.05-4.64-.07,.46-2.55,.91-5.09,1.37-7.64Z"/>
      <path d="M5.1,129.37c-.13,.31-.26,.62-.39,.93-.11,.27,.01,.58,.34,.59,1.48,.02,2.95,.05,4.43,.07-.57,2.8-1.19,5.62-1.48,8.46-.04,.39,.56,.53,.73,.2,1.83-3.47,3.66-6.94,5.49-10.41,.26-.49,.52-.98,.78-1.48,.14-.27-.04-.57-.34-.59-1.24-.08-2.48-.16-3.72-.24,.93-1.95,1.85-3.89,2.78-5.84,.15-.31,.29-.62,.44-.93,.13-.27-.02-.58-.34-.59l-5.3-.13c.93-2.4,1.86-4.79,2.78-7.19,.14-.36,.28-.72,.42-1.09,.09-.24-.14-.5-.38-.5H5.79c-.07,0-.13,.02-.18,.05-.02,0-.03,.02-.04,.03-.02,.02-.04,.03-.06,.05-.04,.04-.07,.09-.09,.16-.95,3.42-1.9,6.84-2.84,10.26-.13,.48-.27,.96-.4,1.44-.07,.26,.13,.47,.38,.5,1.68,.16,3.4,.04,5.07,.31-.84,1.98-1.68,3.96-2.51,5.93Zm-2.05-7c.9-3.26,1.81-6.53,2.71-9.79,.11-.39,.21-.77,.32-1.16h4.69c-.93,2.39-1.85,4.78-2.78,7.18-.14,.36-.28,.72-.42,1.09-.1,.25,.15,.49,.38,.5,1.75,.04,3.5,.08,5.25,.13-.92,1.94-1.85,3.88-2.77,5.82-.15,.31-.29,.62-.44,.93-.13,.28,.03,.57,.34,.59,1.23,.08,2.47,.16,3.7,.24-1.65,3.13-3.3,6.25-4.95,9.38,.17-1.01,.37-2.02,.56-3.02,.22-1.19,.45-2.38,.69-3.56,.05-.25-.11-.49-.38-.5l-4.32-.07c.83-1.95,1.66-3.91,2.48-5.86,.13-.31,.26-.62,.39-.93,.09-.22,.04-.52-.23-.58-1.71-.37-3.48-.26-5.22-.38Z"/>
      <path d="M135.81,122.69c-.95-.06-1.91-.12-2.86-.19,.84-1.77,1.68-3.54,2.53-5.31,.13-.27-.02-.58-.34-.59-1.38-.03-2.75-.07-4.13-.1,.84-2.17,1.68-4.35,2.53-6.52,.09-.24-.14-.5-.38-.5h-4.44c-.07,0-.13,.02-.18,.05-.02,0-.03,.02-.04,.03-.02,.02-.04,.03-.06,.05-.04,.04-.07,.09-.09,.16-.76,2.74-1.52,5.47-2.27,8.21-.11,.39-.21,.77-.32,1.16-.07,.26,.13,.47,.38,.5,1.31,.12,2.64,.04,3.94,.23-.76,1.8-1.52,3.59-2.28,5.39-.11,.27,.01,.58,.34,.59,1.15,.02,2.3,.04,3.45,.06-.45,2.21-.94,4.45-1.17,6.69-.04,.39,.56,.53,.73,.2,1.47-2.78,2.93-5.56,4.4-8.34,.21-.39,.41-.78,.62-1.18,.14-.27-.04-.57-.34-.59Zm-4.33,7.75c.27-1.62,.62-3.22,.94-4.82,.05-.25-.11-.49-.38-.5-1.11-.02-2.23-.04-3.34-.05,.75-1.77,1.5-3.55,2.25-5.32,.09-.22,.04-.52-.23-.58-1.35-.29-2.73-.22-4.09-.3,.72-2.58,1.43-5.16,2.15-7.74,.08-.29,.16-.58,.24-.87h3.57c-.84,2.17-1.68,4.34-2.52,6.51-.1,.25,.15,.49,.38,.5,1.36,.03,2.72,.07,4.08,.1-.84,1.76-1.68,3.52-2.51,5.28-.13,.28,.03,.57,.34,.59,.94,.06,1.89,.12,2.83,.19-1.23,2.34-2.47,4.67-3.7,7.01Z"/>
      <path d="M134.81,141.47s-.02,0-.02,0c-.01,0-.03,0-.04,0-.04,0-.07-.01-.11,0-1.04,.17-2.08,.34-3.12,.52-2.5,.41-4.99,.83-7.49,1.24-.03,0-.07,.01-.1,.02-.37-2.53-.9-5.56-3.71-6.38-.83-.24-1.72-.26-2.58-.16-.91,.11-1.81,.25-2.62,.7-1.24,.69-1.86,1.93-2.03,3.3-.17,1.43,.08,2.88,.3,4.3-2.04,.34-4.07,.67-6.11,1.01-.86,.14-1.73,.29-2.59,.43-.4,.07-.83,.09-1.22,.2-.02,0-.04,0-.05,0-.07,.01-.13,.04-.17,.08-.26-.05-.59,.25-.45,.59,2.83,6.48,5.62,12.98,8.37,19.5,.17,.41,.35,.82,.52,1.24,.07,.16,.19,.3,.38,.29,1.93-.08,3.86-.31,5.78-.52,2.89-.32,5.77-.7,8.63-1.22,1.23-.22,2.46-.47,3.66-.81,.81-.23,1.69-.47,2.41-.93,.23-.15,.47-.33,.61-.58,.24-.42,.2-1.03,.26-1.5,.22-1.75,.39-3.51,.56-5.27,.5-5.19,.9-10.38,1.25-15.58,0,0,0,0,0,0,0-.03,0-.05,0-.08,.02-.23-.14-.35-.32-.37Zm-7.29,1.96c.04,1.88,.05,3.76,.06,5.63-2.46,.39-4.93,.78-7.39,1.18-.06-.33-.11-.66-.16-.99-.26-1.49-.54-2.97-.82-4.45,1.31-.22,2.62-.43,3.93-.65,1.46-.24,2.92-.48,4.38-.72Zm-13.39,13.41c-.47-1.55-.93-3.1-1.39-4.65,2.27-.34,4.54-.7,6.81-1.06,.27,1.59,.54,3.18,.8,4.77-2.07,.32-4.14,.63-6.21,.94Zm6.33-.17c.26,1.65,.54,3.31,.79,4.96-1.81,.26-3.63,.53-5.44,.79-.24-.79-.47-1.57-.71-2.36-.25-.83-.5-1.65-.74-2.48,2.04-.3,4.07-.6,6.11-.92Zm-5.44-18.36c.59-.44,1.33-.66,2.05-.77,.87-.13,1.78-.21,2.65-.01,1.22,.27,2.08,1.09,2.58,2.21,.51,1.13,.68,2.39,.85,3.62-2.72,.45-5.43,.9-8.15,1.35-.32,.05-.64,.11-.96,.16-.33-2.1-.97-5.11,.97-6.55Zm-.9,7.33c1.44-.24,2.87-.48,4.31-.71,.34,1.81,.65,3.62,.97,5.43-2.3,.37-4.59,.73-6.89,1.08-.28-.94-.56-1.88-.85-2.82-.24-.82-.49-1.63-.73-2.45,1.06-.18,2.13-.35,3.19-.53Zm-10.55,1.74c1.02-.17,2.04-.34,3.07-.51,1.17-.19,2.34-.39,3.51-.58,.53,1.75,1.05,3.5,1.58,5.26-1.99,.3-3.98,.59-5.98,.86-.73-1.68-1.45-3.35-2.18-5.03Zm4.45,10.32c-.51-1.18-1.01-2.37-1.52-3.56-.14-.33-.29-.67-.43-1,1.96-.27,3.92-.55,5.88-.85,.11,.36,.22,.73,.33,1.09,.35,1.18,.71,2.37,1.06,3.55-1.71,.25-3.43,.49-5.15,.7-.07,0-.12,.03-.17,.06Zm2.37,5.55c-.69-1.62-1.37-3.23-2.07-4.84,1.75-.22,3.5-.46,5.25-.71,.48,1.61,.97,3.22,1.45,4.83-1.49,.22-2.97,.43-4.46,.65-.08,.01-.13,.04-.17,.08Zm1.83,4.28c-.51-1.21-1.03-2.4-1.54-3.61,.03,0,.06,0,.1,0,1.49-.22,2.98-.43,4.48-.65,.16,.52,.31,1.04,.47,1.56,.23,.78,.47,1.56,.7,2.34-1.4,.15-2.8,.29-4.2,.36Zm6.34-.6c-.45,.05-.9,.1-1.34,.16-.39-1.31-.78-2.62-1.18-3.92,1.78-.26,3.56-.52,5.34-.77,.21,1.37,.41,2.73,.61,4.1-1.14,.16-2.28,.31-3.42,.44Zm2.69-10.39c2.11-.32,4.22-.65,6.33-.96,0,1.71-.01,3.42-.02,5.13-1.85,.27-3.7,.54-5.55,.8-.25-1.66-.51-3.31-.77-4.97Zm5.63,9.15c-1.37,.27-2.75,.49-4.13,.69-.2-1.37-.41-2.74-.62-4.11,1.81-.26,3.62-.53,5.43-.79,0,1.35,0,2.7,.02,4.05-.23,.05-.47,.1-.7,.15Zm.7-10.9c-2.15,.32-4.31,.64-6.46,.98-.26-1.59-.52-3.19-.8-4.78,2.42-.39,4.84-.77,7.26-1.15,0,1.65,0,3.31,0,4.96Zm5.13,6.44c-.08,.75-.17,1.5-.27,2.25-.01,.11-.02,.22-.04,.33,0,.02,0,.03,0,.04-.04,.09-.04,.08-.17,.2-.43,.37-1.3,.64-1.92,.83-.64,.19-1.28,.35-1.93,.5-.01-1.33,0-2.67,0-4,1.47-.21,2.93-.43,4.4-.64-.02,.17-.03,.33-.05,.5Zm.56-5.62c-.13,1.44-.28,2.88-.43,4.32-1.49,.22-2.99,.43-4.48,.65,0-1.71,0-3.42,0-5.12,1.66-.24,3.32-.47,4.98-.69-.03,.28-.05,.56-.07,.85Zm.14-1.64c-1.68,.22-3.37,.45-5.05,.7,0-1.66,0-3.31,0-4.97,1.82-.29,3.65-.56,5.47-.83-.13,1.7-.28,3.4-.43,5.1Zm.49-5.89c-1.85,.27-3.69,.55-5.53,.84,0-.29,0-.58,0-.87,0-1.59-.02-3.18-.06-4.77,.89-.15,1.78-.29,2.67-.44,.86-.14,1.73-.29,2.59-.43,.24-.04,.49-.07,.74-.11-.13,1.93-.27,3.86-.42,5.78Z"/>
      <path d="M1.78,45.29c.9,.36,1.87,.59,2.8,.83,3.14,.83,6.3,1.57,9.46,2.31,1.34,.31,2.69,.62,4.03,.93,2.66,.61,5.38,1,8.04,1.61,.22,.05,.41-.07,.48-.27,1.89-5.32,2.78-10.93,4.05-16.42,.05-.21-.06-.42-.27-.48-6.51-2.05-13.2-3.51-19.86-4.99-1.78-.4-3.57-.79-5.35-1.2-.05-.01-.1,0-.14,0,0,0-.02,0-.02,0,0,0,0,0,0,0-.14,.01-.27,.1-.31,.28-.58,2.51-1.23,5.01-1.83,7.51-.07,.09-.09,.21-.08,.32-.01,.05-.02,.09-.03,.14-.37,1.55-.72,3.09-1.04,4.65-.23,1.13-.48,2.28-.57,3.44-.02,.27-.05,.59,.04,.85,.1,.29,.35,.39,.61,.49Zm3.58-16.84c6.44,1.48,12.92,2.81,19.3,4.51,1.73,.46,3.44,.95,5.15,1.48-.26,1.15-.51,2.3-.75,3.46-6.46-1.5-12.89-3.14-19.34-4.69-1.73-.42-3.47-.83-5.21-1.24,.29-1.17,.58-2.35,.85-3.53Zm-1.04,4.29c6.47,1.5,12.91,3.14,19.36,4.7,1.72,.42,3.44,.83,5.17,1.23,.02,0,.03,0,.04,0-.19,.88-.37,1.76-.56,2.64-.02,0-.03-.02-.05-.02-6.57-1.52-13.1-3.18-19.65-4.76-1.65-.4-3.29-.79-4.94-1.17,.21-.87,.42-1.74,.63-2.6Zm-1.99,8.64c.29-1.48,.63-2.96,.97-4.43,.07-.28,.14-.56,.21-.84,6.46,1.5,12.88,3.13,19.33,4.69,1.75,.42,3.49,.84,5.24,1.24,.04,0,.07,0,.1,0-.61,2.74-1.29,5.45-2.21,8.1-2.21-.49-4.45-.84-6.66-1.3-1.25-.26-2.49-.56-3.73-.85-3.12-.72-6.23-1.45-9.33-2.24-1.19-.3-2.39-.61-3.56-.97-.16-.05-.32-.1-.48-.16-.17-.06-.18-.09-.29-.12,0-.06,0-.12,0-.18,0-.98,.24-1.97,.43-2.93Z"/>
      <path d="M8.2,44.16c.74,.62,1.82,.9,2.74,.58,1.01-.35,1.61-1.34,1.62-2.39,0-1.32-.9-2.4-2.17-2.7-.47-.11-.96-.1-1.4,.01-.34-.29-.76-.51-1.22-.62-1.11-.25-2.3,.07-2.85,1.14-.47,.91-.4,2.09,.21,2.92,.67,.91,1.97,1.39,3.07,1.07Zm1.37-3.82c.2,0,.42,.01,.62,.06,.47,.11,.83,.31,1.14,.65,.22,.25,.39,.65,.44,.99,.1,.71-.2,1.48-.82,1.84-.16,.09-.31,.14-.54,.18-.02,0-.1,.01-.11,.01-.06,0-.12,0-.17,0-.13,0-.25-.01-.36-.03-.24-.04-.48-.11-.67-.21-.05-.02-.08-.05-.12-.07,.61-.48,.96-1.24,.97-2.03,0-.51-.13-.98-.37-1.39Zm-1.26,.68s.06-.09,.07-.1c.06-.08,.13-.15,.2-.22,.07-.06,.11-.09,.19-.14,.18,.25,.32,.58,.37,.88,.09,.68-.18,1.41-.75,1.78-.37-.52-.48-1.19-.27-1.81,0-.03,.06-.17,.04-.1,.02-.05,.04-.1,.07-.14,.02-.05,.05-.09,.08-.14Zm-2.81-.22s.06-.17,.04-.1c.02-.05,.04-.1,.07-.14,.02-.05,.05-.09,.08-.14,.01-.02,.06-.09,.07-.1,.06-.08,.13-.15,.21-.22,.08-.07,.1-.09,.24-.17,.16-.09,.37-.17,.57-.19,.24-.03,.54,0,.79,.05,.23,.06,.44,.13,.63,.24-.26,.19-.48,.43-.65,.75-.43,.83-.39,1.88,.09,2.69-.05,0-.09,0-.14,0-.13,0-.25-.01-.36-.03-.24-.04-.48-.11-.67-.21-.23-.11-.35-.2-.51-.37-.54-.54-.7-1.35-.46-2.06Z"/>
      <path d="M15.62,42.46c3.14,.73,6.28,1.45,9.43,2.18,.49,.11,.7-.64,.21-.76-3.14-.73-6.28-1.45-9.43-2.18-.49-.11-.7,.64-.21,.76Z"/>
      <path d="M15.28,43.96c3.14,.73,6.28,1.45,9.43,2.18,.49,.11,.7-.64,.21-.76-3.14-.73-6.28-1.45-9.43-2.18-.49-.11-.7,.64-.21,.76Z"/>
      <path d="M14.93,45.46c3.14,.73,6.28,1.45,9.43,2.18,.49,.11,.7-.64,.21-.76-3.14-.73-6.28-1.45-9.43-2.18-.49-.11-.7,.64-.21,.76Z"/>
      <path d="M70.58,157.56c-1.47-1.27-2.94-2.55-4.37-3.87,.26-.33,.49-.68,.69-1.04,1.57-2.87,.86-6.38-1.4-8.68-2.38-2.41-5.97-2.99-8.97-1.41-.44,.23-.85,.5-1.25,.8-1.38,.92-2.48,2.18-3.05,3.75-.51,1.38-.55,2.92-.21,4.35,.68,2.81,2.91,5.31,5.81,5.86,1.65,.31,3.31-.01,4.8-.75,.33-.16,.65-.35,.96-.54,1.3,2.02,2.37,4.18,3.6,6.24,.62,1.04,1.28,2.07,2.05,3.01,.58,.71,1.27,1.43,2.11,1.83,1.68,.78,3.39-.45,4.08-2.01,.76-1.69-.42-3.29-1.54-4.48-1.03-1.09-2.18-2.07-3.31-3.04Zm-7.16-2.37c-1.32,.89-2.85,1.49-4.46,1.45-2.68-.06-4.97-2-5.9-4.45-.52-1.37-.65-2.89-.27-4.32,.44-1.61,1.5-2.93,2.87-3.85,1.34-1,2.91-1.64,4.59-1.6,1.41,.03,2.77,.55,3.89,1.4,2.26,1.71,3.43,4.72,2.5,7.46-.56,1.64-1.81,2.96-3.23,3.91Zm11.46,9.02c-.11,.75-.67,1.4-1.23,1.88-.53,.45-1.16,.62-1.82,.37-.76-.29-1.38-.95-1.89-1.56-.73-.86-1.35-1.82-1.93-2.79-1.3-2.15-2.41-4.42-3.78-6.53,.53-.38,1.02-.81,1.46-1.29,2.16,1.99,4.44,3.83,6.59,5.83,.73,.69,1.48,1.4,2.04,2.25,.36,.54,.65,1.18,.56,1.84Z"/>
      <path d="M64.25,145.19c-.97-.99-2.25-1.64-3.63-1.8-1.57-.18-3.11,.36-4.37,1.29-2.12,1.43-3.16,3.86-2.54,6.37,.54,2.18,2.28,4.11,4.54,4.54,2.75,.52,5.81-1.25,7.11-3.67,1.2-2.24,.65-4.95-1.1-6.74Zm.74,5.6c-.76,2.3-3.41,4.17-5.83,4.12-2.03-.04-3.76-1.5-4.48-3.35-.89-2.33-.11-4.81,1.96-6.2,1-.74,2.16-1.24,3.42-1.22,1.07,.01,2.11,.39,2.97,1.03,1.72,1.27,2.63,3.55,1.95,5.62Z"/>
      <path d="M94.57,17.01c3.78,.38,7.56,.76,11.33,1.15,.54,.05,1.07,.11,1.61,.16,.23,.02,.37-.2,.39-.39,.14-1.28,.27-2.55,.41-3.83,.02-.22-.2-.37-.39-.39-3.83-.38-7.66-.76-11.49-1.13-.54-.05-1.08-.11-1.62-.16-.22-.02-.34,.12-.36,.29-.01,.03-.03,.07-.03,.11-.08,1.27-.16,2.54-.24,3.81-.01,.23,.19,.37,.39,.39Zm.6-3.78c3.71,.37,7.42,.73,11.13,1.1,.4,.04,.79,.08,1.19,.12-.11,1.02-.22,2.03-.32,3.05-3.66-.37-7.32-.74-10.99-1.11-.4-.04-.8-.08-1.2-.12,.06-1.01,.13-2.02,.19-3.03Z"/>
      <path d="M88.81,20.08c2.69,.26,5.39,.53,8.08,.79,4.26,.42,8.53,.84,12.79,1.25,.99,.1,1.97,.19,2.96,.29,.13,.01,.23-.06,.3-.16,.01-.01,.03-.02,.04-.03,1.86-2.42,3.72-4.84,5.58-7.26,.18-.24,.32-.39,.36-.69,.06-.52,.1-1.04,.15-1.55,.19-1.93,.38-3.87,.58-5.8,.14-1.37,.27-2.74,.41-4.11,0-.03,0-.06,0-.09,0-.2-.15-.31-.33-.32-.02,0-.04-.02-.06-.02-2.51-.27-5.02-.53-7.52-.8-4-.43-7.99-.85-11.99-1.28-.9-.1-1.81-.19-2.71-.29-.04,0-.07,0-.11,0-.12,0-.21,.07-.25,.16-2.22,2.35-4.44,4.69-6.66,7.04-.32,.34-.65,.68-.97,1.02-.09,.09-.11,.2-.1,.3-.05,.06-.09,.13-.1,.23-.25,3.18-.5,6.37-.74,9.55-.04,.46-.07,.91-.11,1.37-.02,.23,.19,.37,.39,.39Zm29.55-8.05c-.06,.65-.13,1.3-.19,1.95,0,.06-.03,.17-.04,.26-.03,.04-.06,.09-.07,.1-.98,1.28-1.97,2.56-2.95,3.83-.64,.84-1.29,1.67-1.93,2.51,.29-2.77,.59-5.53,.88-8.3,.04-.4,.09-.81,.13-1.21,.93-1.31,1.86-2.63,2.79-3.94,.07-.05,.12-.11,.14-.2,.67-.95,1.35-1.9,2.02-2.85-.26,2.61-.52,5.23-.78,7.84ZM96.72,1.69c.28-.3,.56-.6,.84-.89,2.46,.26,4.91,.52,7.37,.78,4,.43,7.99,.85,11.99,1.28,.68,.07,1.36,.15,2.05,.22-.8,1.14-1.61,2.27-2.41,3.41-1.81-.19-3.62-.39-5.43-.58-3.78-.4-7.56-.81-11.34-1.21-1.79-.19-3.58-.38-5.36-.57,.77-.81,1.54-1.63,2.3-2.44Zm-2.96,3.13s.08,.03,.13,.04c3.67,.39,7.34,.78,11.01,1.17,3.29,.35,6.57,.7,9.86,1.05,.43,.05,.85,.09,1.28,.14-.61,.86-1.22,1.72-1.82,2.58-.2,.28-.39,.55-.59,.83-2.64-.28-5.29-.56-7.93-.83-4.33-.46-8.66-.91-12.99-1.37-.71-.08-1.43-.15-2.14-.23,1.07-1.13,2.13-2.25,3.2-3.38Zm-3.82,5.31c.03-.4,.06-.8,.09-1.2,2.61,.27,5.21,.55,7.82,.82,4.33,.46,8.66,.91,12.99,1.37,.85,.09,1.69,.18,2.54,.27-.33,3.1-.66,6.19-.99,9.29-.03,.31-.07,.62-.1,.93-2.58-.25-5.16-.51-7.74-.76-4.26-.42-8.53-.84-12.79-1.25-.85-.08-1.69-.17-2.54-.25,.24-3.07,.48-6.14,.72-9.2Z"/>
      <path d="M168.92,98c-2.62-.47-5.23-.94-7.85-1.4,.08,0,.16-.02,.24-.03,1.24-.17,2.62-.42,3.67-1.14,.89-.61,1.24-1.57,.7-2.55-.73-1.34-2.11-1.93-3.56-1.41-1.08,.39-2.03,1.1-2.87,1.94,.19-.48,.36-.97,.5-1.47,.37-1.32,.73-3.1-.16-4.31-.83-1.13-2.74-1.33-3.86-.53-1.2,.85-1.26,2.55-1.11,3.87,.05,.46,.13,.91,.23,1.36-.17-.21-.33-.43-.5-.63-.94-1.09-2.36-2.51-3.94-2.3-1.3,.18-2.57,1.77-2.09,3.08,.42,1.13,1.6,1.87,2.71,2.41-2.13-.28-4.27-.43-6.39-.78-.03,0-.05,0-.08,0-.18-.03-.36,.04-.4,.27-.29,1.69-.58,3.38-.86,5.07-.03,.19,.05,.45,.27,.48,.26,.04,.51,.08,.77,.12-.3,1.75-.6,3.49-.89,5.24-.53,3.09-1.05,6.19-1.58,9.28-.12,.69-.23,1.37-.35,2.06-.03,.19,.05,.45,.27,.48,2.35,.36,4.7,.72,7.05,1.08,1.37,.21,2.74,.42,4.11,.63,.07,.36,.61,.48,.73,.11,2.29,.35,4.58,.7,6.87,1.06,1.11,.17,2.21,.34,3.32,.52,.19,.03,.44-.05,.48-.27,.35-2.07,.7-4.13,1.06-6.2,.56-3.29,1.12-6.59,1.68-9.88,.03-.16,.05-.32,.08-.48,.23,.04,.46,.07,.69,.11,.19,.03,.44-.05,.48-.27,.29-1.69,.58-3.38,.86-5.07,.03-.19-.05-.44-.27-.48Zm-4-4.85c1.19,1.9-2.58,2.51-3.71,2.66-1,.13-2.03,.19-3.05,.12,1.48-1.99,4.88-5.76,6.75-2.78Zm-9.06-5.1c.67-.85,2.32-.85,3.03-.04,.8,.93,.43,2.53,.15,3.59-.41,1.5-1.05,2.94-1.82,4.29-.06-.1-.17-.17-.28-.2-.14-.29-.27-.58-.43-.87-.43-.97-.76-1.99-.96-3.03-.23-1.14-.46-2.76,.32-3.75Zm-6.5,4.7c-.3-.36-.49-.81-.3-1.27,.23-.54,.71-1.12,1.3-1.26,1.27-.32,2.55,1.06,3.3,1.9,.8,.9,1.51,1.93,2.11,3,.09,.21,.2,.41,.31,.62-.43-.07-.86-.15-1.29-.22-.58-.16-1.16-.37-1.7-.57-1.29-.48-2.82-1.1-3.72-2.2Zm-5.24,6.5c.24-1.44,.49-2.87,.73-4.31,2.2,.34,4.42,.49,6.62,.8,.98,.14,1.95,.31,2.92,.48,.67,.19,1.35,.32,2.02,.37-.14,.91-.28,1.82-.42,2.73-1.23-.22-2.45-.46-3.68-.66-2.37-.4-4.77-.62-7.14-1.02-.03,0-.05,0-.08,0-.18-.03-.36,.04-.4,.27-.08,.46-.16,.92-.24,1.38-.11-.02-.23-.04-.34-.05Zm11.76,.84c-.05,.33-.1,.67-.15,1-3.05-.49-6.09-.97-9.14-1.45-.45-.07-.9-.14-1.36-.22,.05-.32,.11-.64,.16-.96,2,.32,4.02,.53,6.02,.84,1.47,.23,2.94,.51,4.4,.77,.02,0,.04,0,.05,.01Zm-2.84,17.99c-2.83-.44-5.66-.87-8.49-1.31-.74-.11-1.47-.23-2.21-.34,.3-1.75,.6-3.49,.89-5.24,.55-3.25,1.11-6.51,1.66-9.76,.07-.41,.14-.82,.21-1.23,2.07,.33,4.14,.66,6.21,.99,1.43,.23,2.86,.46,4.29,.68-.61,3.99-1.22,7.97-1.87,11.95-.23,1.42-.47,2.84-.71,4.26Zm12.61-10.16c-.56,3.29-1.12,6.59-1.68,9.88-.11,.64-.22,1.28-.33,1.93-2.56-.43-5.13-.8-7.69-1.2-.72-.11-1.43-.22-2.15-.33,.91-5.39,1.74-10.8,2.57-16.21,2.6,.41,5.21,.83,7.81,1.25,.73,.12,1.47,.24,2.2,.36-.25,1.44-.49,2.88-.74,4.33Zm.87-5.1c-2.46-.4-4.92-.79-7.38-1.18-.88-.14-1.76-.28-2.64-.42,0,0,0-.01,0-.02,.05-.32,.1-.64,.15-.96,2.76,.51,5.52,1.03,8.27,1.56,.57,.11,1.15,.22,1.72,.33-.04,.23-.08,.46-.12,.69Zm1.11,.18c-.11-.02-.23-.04-.34-.06,.06-.34,.12-.68,.17-1.02,.03-.2-.05-.44-.27-.48-3.47-.68-6.95-1.34-10.43-1.98,.14-.92,.28-1.83,.42-2.74,3.09,.54,6.17,1.08,9.26,1.63,.64,.11,1.28,.23,1.93,.34-.24,1.44-.49,2.87-.73,4.31Z"/>
      <path d="M5.65,94.28c.26,1.02,.53,2.04,.79,3.06,.05,.19,.28,.34,.48,.27,2.5-.87,5-1.75,7.51-2.62,3.99-1.39,7.97-2.78,11.96-4.18,.91-.32,1.82-.64,2.73-.95,.01,0,.02-.01,.03-.02,0,0,.01,0,.02-.01,.07-.03,.12-.07,.15-.13,.01-.01,.03-.01,.03-.03,.6-.92,1.19-1.85,1.79-2.77,.2-.32,.48-.64,.64-.98,.1-.21,.01-.37-.07-.55-.66-1.44-1.33-2.87-2-4.31-1.17-2.53-2.35-5.06-3.52-7.59-1.16-2.5-2.32-4.99-3.48-7.49-.4-.87-.81-1.74-1.21-2.61-.19-.41-.35-.87-.59-1.27-.01-.02-.02-.04-.03-.06-.07-.15-.29-.22-.44-.18-1.82,.51-3.61,1.1-5.39,1.73-.28-.91-.56-1.83-.9-2.73-.57-1.55-1.27-3.23-2.49-4.39-1.17-1.11-2.68-1.24-4.06-.42-1.41,.84-1.95,2.23-1.99,3.72-1.56,1.13-1.88,3.03-1.59,4.88,.15,.95,.42,1.86,.75,2.75-.36,.13-.71,.27-1.06,.4-.5,.18-1.04,.25-1.34,.71-.24,.37-.48,.74-.72,1.11-.53,.82-1.06,1.64-1.59,2.46,0,.01,0,.03-.01,.04-.02,.04-.03,.08-.04,.13,0,.02,0,.04,0,.07,0,.02,0,.04,0,.06,.73,2.81,1.45,5.63,2.18,8.44,1.15,4.48,2.31,8.96,3.46,13.44Zm14.83-30.91s.06-.09,.08-.13c1.11,2.39,2.22,4.79,3.33,7.18,1.95,4.2,3.9,8.4,5.85,12.61,.41,.89,.83,1.78,1.24,2.67-.64,.99-1.28,1.98-1.92,2.98-1.14-2.45-2.28-4.91-3.42-7.36-1.95-4.2-3.9-8.4-5.85-12.61-.4-.87-.81-1.74-1.21-2.61,.51-1,1.18-1.87,1.9-2.73Zm-.16-.65s0,0,0,0c0,0,0,0,0,0,0,0,0,0,0,0Zm-5.48,2.84c.16,.47,.92,.27,.76-.21-.11-.33-.21-.66-.31-.98,.51-.18,1.02-.37,1.54-.55,1.02-.35,2.04-.67,3.07-.97-.73,.88-1.43,1.78-1.96,2.8-1.54,.44-3.07,.94-4.58,1.46-.19-.61-.4-1.22-.6-1.83,.59-.22,1.18-.43,1.78-.64,.1,.31,.2,.62,.3,.93Zm-7.44-8.37c1.06-.99,2.51-1.22,3.62-.22,1.13,1.02,1.77,2.55,2.3,3.94,.37,.97,.67,1.97,.97,2.96-.6,.21-1.19,.43-1.78,.65-.02-.05-.03-.1-.05-.15-.57-1.55-1.27-3.23-2.49-4.39-1.03-.98-2.33-1.2-3.56-.67,.09-.79,.37-1.54,.99-2.13Zm1.29,10.37c-.08-.22-.17-.44-.25-.66,1.2-.45,2.4-.9,3.6-1.35,.2,.6,.38,1.21,.57,1.82-2.06,.73-4.11,1.49-6.15,2.27-.23-.58-.47-1.16-.69-1.75,.65-.24,1.29-.48,1.94-.72,.08,.2,.15,.4,.22,.6,.17,.47,.92,.27,.76-.21Zm.65-7.09c1.13,1.02,1.77,2.55,2.3,3.94,.05,.13,.09,.26,.14,.39-.89,.33-1.79,.67-2.68,1.01-.31,.12-.63,.23-.94,.35-.51-1.26-1.04-2.51-1.4-3.83-.18-.66-.33-1.4-.37-2.12,.95-.54,2.07-.54,2.96,.26Zm-3.69,.29c.01,.14,.02,.28,.05,.42,.29,1.84,1.04,3.54,1.73,5.25-.64,.24-1.29,.48-1.93,.72-.16-.44-.3-.88-.42-1.33-.45-1.65-.74-3.74,.59-5.06Zm-2.58,8.11c.66-.23,1.31-.47,1.97-.71,.23,.59,.47,1.17,.7,1.75-.57,.22-1.13,.43-1.7,.64-.89,.33-1.79,.66-2.69,.98,.57-.89,1.15-1.78,1.72-2.66Zm-1.63,5.96c.43,.72,.86,1.44,1.29,2.16,1.44,2.4,2.87,4.8,4.31,7.19,.33,.55,.66,1.1,.98,1.64,.26,.43,.94,.04,.68-.4-.89-1.5-1.79-2.99-2.68-4.49-1.44-2.4-2.87-4.8-4.31-7.19-.25-.41-.49-.83-.74-1.24,1.69-.6,3.37-1.23,5.05-1.86,.08,.21,.16,.41,.23,.62,.17,.47,.92,.27,.76-.21-.08-.23-.17-.45-.26-.68,2.03-.77,4.06-1.52,6.11-2.25,.1,.31,.2,.62,.31,.93,.16,.47,.92,.27,.76-.21-.11-.33-.21-.66-.31-.99,.27-.09,.53-.19,.8-.28,1.16-.39,2.32-.76,3.5-1.1,1.19,2.57,2.38,5.13,3.57,7.7,1.95,4.2,3.9,8.4,5.85,12.61,.33,.72,.67,1.43,1,2.15-.13,0-.25-.01-.34-.02-.99-.11-1.98-.17-2.97-.24-2.37-.16-4.74-.3-7.12-.42-.56-.03-1.11-.06-1.67-.08-.5-.02-.5,.76,0,.78,3.65,.18,7.3,.35,10.94,.67,.07,0,.14,.02,.21,.02-2,.7-4,1.4-5.99,2.09-3.99,1.39-7.97,2.78-11.96,4.18-.78,.27-1.57,.55-2.35,.82-.69-2.68-1.38-5.36-2.07-8.03-1.15-4.48-2.31-8.96-3.46-13.44-.04-.14-.07-.29-.11-.43Z"/>
      <path d="M128.73,20.57c.74,.8,1.52,1.58,2.37,2.26,.68,.55,1.44,1.09,2.31,1.31,.12,.03,.3,0,.38-.1,1.08-1.36,2.16-2.72,3.24-4.08,.2,5.83,.29,11.66,.44,17.49,.04,1.49,.08,2.99,.14,4.48,0,.23,.17,.37,.39,.39,2.1,.19,4.22,.15,6.32,.06,2.26-.1,4.52-.29,6.76-.6,.01,0,.02,0,.04,0,.06,0,.11-.02,.17-.03,.06,0,.12-.01,.18-.02,.02,0,.03-.01,.04-.01,2.24-.31,4.47-.73,6.67-1.25,2.05-.48,4.1-1.02,6.07-1.77,.2-.08,.33-.26,.27-.48-1.5-6.22-3.14-12.41-4.72-18.61-.23-.9-.45-1.8-.67-2.7,1.4,1.02,2.81,2.03,4.21,3.05,.11,.08,.28,.06,.4,0,.77-.44,1.36-1.17,1.87-1.88,.64-.89,1.17-1.84,1.67-2.81,.62-1.22,1.2-2.47,1.69-3.75,.06-.15-.04-.37-.18-.44-2.23-1.1-4.31-2.47-6.43-3.76-1.79-1.1-3.67-2.19-5.72-2.72-.97-.25-1.94-.33-2.94-.32-.63,0-1.4,0-1.94,.38-.49,.35-.59,.97-.62,1.54-.04,.91-.06,1.76-.54,2.57-.76,1.27-2.2,1.77-3.58,2.04-1.2,.1-2.48,.05-3.52-.63-.74-.48-1.22-1.24-1.49-2.07-.2-.62-.33-1.39-.9-1.79-.53-.37-1.21-.25-1.8-.12-.92,.21-1.83,.5-2.68,.92-1.86,.94-3.4,2.43-4.82,3.93-1.87,1.98-3.63,4.06-5.66,5.88-.12,.1-.16,.34-.06,.47,.82,1.1,1.71,2.15,2.64,3.15Zm34.95,17.5c-1.81,.66-3.69,1.16-5.57,1.61-2.28,.54-4.59,1-6.92,1.31-2.33,.33-4.68,.52-7.02,.62-1.93,.08-3.87,.11-5.8-.04-.01-.3-.02-.6-.03-.9,3.15,.27,6.34,.1,9.48-.19,3.62-.34,7.24-.87,10.78-1.72,1.65-.39,3.29-.86,4.88-1.48,.07,.27,.13,.53,.2,.8Zm4.42-26.48c-.43,1.08-.92,2.15-1.45,3.19-.47,.92-.97,1.82-1.55,2.66-.43,.62-.92,1.27-1.55,1.7-.22-.16-.44-.32-.66-.48,.78-1.16,1.87-2.09,2.56-3.32,.74-1.34,1.38-2.71,1.86-4.18,.26,.14,.53,.29,.8,.42Zm-27.37-4.57c.18,.17,.27,.44,.34,.66,.15,.45,.26,.89,.46,1.32,.33,.73,.85,1.35,1.51,1.8,1.15,.79,2.6,.89,3.96,.79,.03,0,.05,0,.08,0,.08-.01,.16-.02,.24-.03,.05,0,.1-.03,.14-.05,1.1-.24,2.19-.62,3.04-1.39,.57-.51,.98-1.17,1.2-1.89,.13-.4,.19-.83,.22-1.25,.03-.41-.02-.83,.07-1.23,.08-.37,.31-.52,.6-.59,0,0,0,0,0,0,.3,1.35,.2,2.76-.48,3.98-.62,1.11-1.61,1.95-2.75,2.51-2.25,1.09-5.23,1.07-7.23-.54-1.3-1.05-1.97-2.63-2.17-4.26,.29-.04,.58-.02,.77,.16Zm-9.04,5.33c1.39-1.51,2.83-3.04,4.59-4.12,.88-.54,1.8-.89,2.79-1.15,.04-.01,.08-.02,.13-.04,.21,1.58,.79,3.1,1.93,4.24,1.03,1.02,2.39,1.63,3.82,1.83,2.83,.39,5.97-.75,7.58-3.18,.96-1.44,1.16-3.18,.82-4.85,.83-.05,1.68-.03,2.48,.13,2.03,.4,3.88,1.42,5.64,2.48,1.72,1.03,3.39,2.13,5.14,3.11-.01,.02-.03,.04-.04,.07-.47,1.47-1.1,2.86-1.87,4.19-.67,1.16-1.7,2.05-2.45,3.15-1.19-.86-2.38-1.72-3.57-2.58-.29-.21-.65,.14-.58,.44,1.45,6.02,3.05,12,4.57,18.01,.2,.81,.4,1.62,.61,2.43-3.01,1.18-6.22,1.86-9.4,2.39-3.57,.6-7.18,.98-10.8,1.08-1.59,.05-3.18,.03-4.76-.1-.19-5.71-.29-11.43-.44-17.14-.03-1.29-.07-2.58-.11-3.86-.01-.31-.44-.56-.67-.28-.9,1.13-1.79,2.26-2.69,3.39-.02-.01-.03-.03-.05-.05-1.39-.75-2.54-1.84-3.7-2.89-.93-.85-1.91-1.8-2.52-2.93,1.22-1.22,2.37-2.51,3.54-3.78Zm-4.12,4.34c.64,1.11,1.61,2.07,2.54,2.92,1.19,1.09,2.39,2.22,3.82,2.99-.18,.23-.37,.46-.55,.7-.72-.24-1.38-.73-1.95-1.21-.79-.66-1.52-1.39-2.21-2.15-.78-.85-1.59-1.8-2.26-2.68,.21-.19,.41-.38,.61-.58Z"/>
      <path d="M151.79,24.5c.53,.09,1.08,.07,1.61,0,.76-.09,1.53-.23,2.23-.55,1-.45,1.54-1.31,1.57-2.4,.02-.65-.1-1.3-.22-1.93-.15-.82-.33-1.63-.45-2.45-.04-.25-.25-.32-.44-.27-.07-.04-.15-.06-.24-.05-2.16,.3-4.32,.69-6.49,.96-.13,.02-.23,.09-.29,.18-.07,.08-.11,.19-.09,.32,.2,1.48,.33,3.08,.9,4.48,.35,.87,.95,1.54,1.91,1.71Zm4.32-5.39c.13,.64,.25,1.28,.3,1.92,.06,.84-.07,1.61-.83,2.07-.54,.32-1.19,.46-1.8,.56-.52,.08-1.05,.14-1.58,.1-.75-.06-1.21-.43-1.53-1.13-.25-.56-.38-1.18-.49-1.78-.06-.28-.1-.57-.15-.86,2.01-.39,4.05-.62,6.08-.9Zm-.28-1.46c.04,.24,.08,.47,.13,.71-.01,0-.02,0-.03,0-2.01,.28-4.03,.5-6.02,.89-.03-.23-.07-.47-.1-.7,2.01-.27,4.01-.61,6.02-.89Z"/>
      <path d="M9.54,161.49l8.46-7.08c-2.8,2.34-5.7,4.67-8.46,7.08Z"/>
      <path d="M22.13,158.98l-8.84,7.48c2.82-2.35,5.9-4.99,8.84-7.48Z"/>
      <path d="M46.24,135.67c-.95-1.01-1.87-2.15-2.99-2.98-.65-.48-1.4-.75-2.19-.48-.96,.32-1.77,1.11-2.52,1.76-3,2.61-6.12,5.1-8.97,7.88-2.37-.74-4.96-.48-7.12,1.02-.43,.3-.83,.63-1.21,.99-1.41,1.2-2.45,2.81-2.78,4.65-.17,.91-.16,1.83-.03,2.74-2.92,2.13-5.61,4.53-8.41,6.81-.92,.75-1.96,1.47-2.69,2.41-.49,.63-.68,1.36-.43,2.13,.38,1.2,1.31,2.22,2.06,3.2,.7,.94,1.38,2.05,2.34,2.75,.69,.51,1.46,.49,2.23,.15,.54-.24,1.03-.59,1.51-.93,.73-.53,1.44-1.07,2.15-1.62,2.89-2.24,5.64-4.65,8.43-7.01,.38,.08,.76,.13,1.15,.15,1.92,.09,3.78-.61,5.31-1.74,1.69-1.25,3.12-2.94,3.73-4.98,.23-.76,.32-1.53,.31-2.29,0,0,.01,0,.02-.01,2.46-2.08,4.97-4.1,7.37-6.25,1.25-1.12,2.56-2.23,3.66-3.49,.57-.64,1.09-1.42,.89-2.32-.22-1-1.14-1.83-1.81-2.54Zm-27.96,28.62c-1.28,1.03-2.57,2.05-3.91,3-.58,.41-1.46,1.11-2.22,.85-.82-.27-1.42-1.28-1.91-1.92-.8-1.05-1.7-2.08-2.33-3.25-.33-.6-.49-1.21-.11-1.82,.53-.84,1.46-1.46,2.21-2.08,2.86-2.33,5.62-4.78,8.59-6.97,.12,.48,.26,.95,.45,1.4,1.04,2.47,3.12,4.55,5.66,5.39-2.13,1.81-4.24,3.65-6.42,5.4Zm17.01-13.08c-.22,1.83-1.21,3.46-2.51,4.73-1.34,1.3-3.03,2.32-4.91,2.54-3.16,.36-6.08-1.6-7.6-4.27-1.59-2.78-1.61-6.33,.55-8.82,.3-.35,.63-.66,.98-.96,1.29-1.22,2.91-2.08,4.7-2.21,1.59-.12,3.17,.3,4.54,1.11,2.71,1.59,4.64,4.69,4.26,7.9Zm11.35-11.27c-1.01,1.16-2.21,2.18-3.35,3.21-2.36,2.13-4.82,4.13-7.25,6.17-.33-2.34-1.68-4.52-3.58-5.99-.64-.5-1.34-.88-2.07-1.19,2.32-2.22,4.81-4.25,7.24-6.35,.96-.83,1.87-1.75,2.93-2.45,.56-.38,1.14-.62,1.79-.29,1,.5,1.77,1.51,2.51,2.3,.78,.83,1.76,1.66,2.29,2.68,.37,.72-.03,1.34-.51,1.9Z"/>
      <path d="M32.78,141.95l8.4-7.15c-2.83,2.32-5.63,4.78-8.4,7.15Z"/>
      <path d="M45.45,139.34l-8.86,7.45c2.95-2.48,6.07-5.06,8.86-7.45Z"/>
      <path d="M31.3,144.86c-1.2-.93-2.68-1.51-4.2-1.51-1.73-.01-3.32,.75-4.56,1.92-2.22,1.89-2.83,4.88-1.7,7.54,1.02,2.42,3.31,4.36,6,4.49,3.09,.15,6.19-2.34,7.06-5.25,.8-2.68-.45-5.52-2.6-7.19Zm2.03,6.14c-.34,2.7-2.96,5.2-5.65,5.5-2.4,.27-4.61-1.23-5.76-3.26-.65-1.14-.98-2.46-.84-3.78,.15-1.45,.92-2.7,2.02-3.64,.98-.92,2.21-1.58,3.57-1.68,1.2-.09,2.4,.23,3.44,.84,2.06,1.21,3.54,3.57,3.24,6.01Z"/>
      <path d="M24.1,145.98c-.86,0-.86,1.34,0,1.34s.86-1.34,0-1.34Z"/>
      <path d="M30.23,153.24c-.86,0-.86,1.34,0,1.34s.86-1.34,0-1.34Z"/>
      <path d="M23.53,152.67c-.86,0-.86,1.34,0,1.34s.86-1.34,0-1.34Z"/>
      <path d="M30.79,147.88c.86,0,.86-1.34,0-1.34s-.86,1.34,0,1.34Z"/>
      <path d="M28.78,146.34c.69,0,.69-1.07,0-1.07s-.69,1.07,0,1.07Z"/>
      <path d="M25.55,154.21c-.69,0-.69,1.07,0,1.07s.69-1.07,0-1.07Z"/>
      <path d="M22.69,149.2c.69,0,.69-1.07,0-1.07s-.69,1.07,0,1.07Z"/>
      <path d="M31.63,151.36c-.69,0-.69,1.07,0,1.07s.69-1.07,0-1.07Z"/>
      <path d="M31.84,149.97c.69,0,.69-1.07,0-1.07s-.69,1.07,0,1.07Z"/>
      <path d="M22.48,150.58c-.69,0-.69,1.07,0,1.07s.69-1.07,0-1.07Z"/>
      <path d="M26.32,146.13c.69,0,.69-1.07,0-1.07s-.69,1.07,0,1.07Z"/>
      <path d="M28,154.42c-.69,0-.69,1.07,0,1.07s.69-1.07,0-1.07Z"/>
      <path d="M28.2,150.51c.55-.08,1.1-.17,1.65-.25,.12-.02,.24-.04,.37-.06,.21-.03,.32-.3,.27-.48-.06-.22-.27-.31-.48-.27-.63,.1-1.27,.19-1.9,.29-.13-.27-.37-.47-.72-.53-.13-.74-.25-1.49-.38-2.23-.03-.15-.05-.31-.08-.46-.04-.21-.29-.33-.48-.27-.22,.06-.31,.27-.27,.48,.15,.87,.29,1.73,.44,2.6-.83,.5-.65,2.07,.56,2.07,.61,0,.95-.41,1.04-.88Z"/>
      <path d="M41.33,26.46c2.58,.39,5.33-.09,7.87-.54,2.85-.51,5.65-1.27,8.43-2.08,1.66-.48,3.85-.99,4.92-2.49,.97-1.36,.6-3.29,.37-4.82-.22-1.4-.49-2.8-.73-4.2-.3-1.77-.53-3.56-.86-5.32-.31-1.64-.61-3.32-1.15-4.9-.15-.44-.3-.76-.74-.98-.52-.25-1.12-.33-1.69-.36-1.61-.08-3.25,.23-4.81,.58-1.64,.37-3.26,.84-4.82,1.46-.57,.23-1.14,.47-1.67,.77-.07,.04-.11,.08-.14,.14,0,0,0,0,0,0-.02,.04-.04,.08-.05,.12,0,.04,0,.08,0,.13,0,0,0,0,0,0,0,.02,0,.03,0,.05,.63,2.24,.96,4.56,1.3,6.86,.08,.56,.16,1.13,.25,1.69,.07,.47,.17,.94,.16,1.41-.02,.82-.38,1.58-.83,2.25-1.87,2.8-5.18,4.13-7.24,6.74-.51,.64-1.09,1.58-.64,2.4,.39,.72,1.31,.95,2.06,1.06Zm5.61-8.68c1.04-1.16,1.98-2.64,1.8-4.27-.2-1.75-.48-3.51-.79-5.25,.02,0,.04,0,.06-.02,1.8-.82,3.81-1.04,5.74-1.38,2.17-.39,4.34-.77,6.54-1,.64,3.08,1.06,6.2,1.6,9.3-1.7,.12-3.32,.99-4.25,2.44-1.08,1.68-.78,3.68-.45,5.54-2.18,.66-4.4,1.25-6.62,1.71-.91,.19-1.83,.36-2.75,.51-.09-2.16-1.04-4.42-2.6-5.95,.6-.51,1.19-1.04,1.72-1.64Z"/>
      <path d="M38.46,103.72c-.35-1.16-.7-2.32-1.09-3.47-.26-.78-.53-1.58-.92-2.3-.2-.38-.49-.84-.98-.85-.7-.02-1.48,.22-2.16,.4-4.05,1.05-7.84,2.91-11.72,4.43-.04,.02-.07,.04-.1,.06-.01,0-.02,.01-.03,.02-.01,0-.02,.02-.03,.03-.1,.09-.16,.21-.12,.37,1.49,6.33,2.97,12.68,4.89,18.9,.55,1.77,1.13,3.53,1.75,5.27,.05,.15,.2,.3,.38,.29,1.63-.13,3.24-.5,4.82-.89,1.95-.49,3.89-1.06,5.78-1.75,.82-.3,1.64-.62,2.43-.99,.52-.24,1.15-.48,1.56-.89,.86-.85,.2-2.45-.07-3.41-1.41-5.09-2.88-10.16-4.4-15.21Zm4.08,17.8c-.09,.34-.52,.52-.88,.71-.67,.35-1.38,.65-2.08,.92-1.97,.77-4,1.39-6.04,1.92-1.61,.42-3.26,.82-4.92,.98-2.13-6.02-3.75-12.2-5.24-18.4-.41-1.7-.81-3.41-1.21-5.12,3.19-1.26,6.31-2.69,9.57-3.75,.79-.26,1.58-.49,2.39-.68,.33-.07,.65-.14,.99-.19,.12-.02,.23-.02,.35-.04,.01,0,.04,.02,.07,.06,.35,.45,.55,1.01,.75,1.54,.37,.97,.68,1.96,.98,2.95,1.5,4.85,2.98,9.72,4.28,14.62,.26,.98,.55,1.95,.8,2.93,.12,.46,.32,1.07,.2,1.54Z"/>
      <path d="M35.65,122.15c-1.15,0-1.15,1.78,0,1.78s1.15-1.78,0-1.78Z"/>
      <path d="M36.97,105.85c-.43-1.42-.79-2.96-1.49-4.28-.17-.32-.4-.69-.8-.71-.5-.03-1.07,.15-1.55,.27-3.04,.76-5.88,2.16-8.78,3.3-.04,.02-.07,.04-.1,.06-.01,0-.02,.01-.03,.02,0,0-.02,.02-.03,.03-.1,.09-.16,.21-.12,.37,1.27,5.42,2.55,10.85,4.31,16.13,0,0,0,.01,0,.02-.06,.19,.02,.34,.15,.41,.15,.44,.3,.88,.45,1.32,.05,.15,.2,.3,.38,.29,1.22-.1,2.42-.37,3.6-.67,1.44-.36,2.87-.78,4.26-1.29,.61-.22,1.21-.46,1.8-.73,.41-.19,.91-.38,1.23-.7,.64-.66,.17-1.82-.03-2.56-1.04-3.78-2.14-7.54-3.27-11.29Zm-10.76,4.56c-.44-1.79-.86-3.58-1.28-5.36,1.16-.46,2.31-.95,3.46-1.42-.71,2.22-1.42,4.44-2.14,6.66-.01,.04-.03,.08-.04,.12Zm.33,1.33c.05-.04,.09-.1,.12-.18,.8-2.48,1.59-4.96,2.39-7.44,.09-.29,.19-.58,.28-.87,.3-.12,.59-.23,.89-.34-1.04,3.35-2.1,6.69-3.39,9.94-.1-.37-.19-.74-.29-1.11Zm2.29,8.08c-.61-1.89-1.16-3.79-1.67-5.7,.01-.02,.03-.03,.04-.05,1.54-3.72,2.73-7.56,3.92-11.4,0-.03,0-.05,0-.08,.23-.08,.46-.17,.7-.25,.58-.19,1.17-.37,1.77-.51-.54,3.14-1.24,6.26-2,9.35-.73,2.94-1.77,5.78-2.76,8.64Zm.98,2.44c-.05,0-.11,.01-.16,.02-.14-.41-.28-.82-.42-1.23,1.08-3.21,2.29-6.36,3.11-9.66,.79-3.21,1.52-6.44,2.07-9.71,0,0,0,0,0-.01,.07,0,.14-.02,.2-.02,0,0,0,0,0,0,.03,.12,.17,.26,.23,.38,.12,.23,.21,.47,.3,.71-.03,.04-.06,.09-.07,.16-.55,3.27-1.33,6.49-2.15,9.7-.83,3.24-2.04,6.36-3.1,9.53-.01,.04-.01,.08-.02,.12Zm3.37-.69c-.83,.22-1.68,.42-2.53,.57,1.04-3.1,2.22-6.15,3.03-9.33,.73-2.85,1.42-5.72,1.95-8.62,.08,.25,.17,.49,.25,.74,.5,1.62,.99,3.24,1.47,4.87-.02,.04-.04,.08-.05,.13-.66,4.02-2.64,7.65-3.79,11.53-.11,.03-.22,.07-.34,.1Zm2.16-.68s0,.04,0,.06c-.3,.09-.61,.17-.92,.26,1.03-3.31,2.61-6.46,3.39-9.84,.15,.51,.29,1.01,.43,1.52-.01,.02-.03,.04-.04,.07-.83,2.31-1.66,4.62-2.49,6.93-.12,.33-.24,.66-.36,1Zm4.45-1.89c-.05,.22-.4,.37-.66,.5-.49,.25-1,.47-1.52,.66-.44,.17-.9,.32-1.35,.47,.77-2.15,1.55-4.31,2.32-6.46,0,0,0,0,0-.01,.14,.51,.29,1.01,.43,1.52,.2,.73,.41,1.46,.6,2.2,.09,.34,.23,.79,.16,1.12Z"/>
      <path d="M88.1,146.12c-.46,.11-.92,.2-1.35,.26-.19,.03-.33,.21-.3,.4,.03,.18,.18,.31,.35,.31,.02,0,.03,0,.05,0,.46-.07,.94-.16,1.42-.27,.19-.05,.31-.24,.26-.43-.05-.19-.24-.31-.43-.26Z"/>
      <path d="M79.46,143.89c-.12-.16-.35-.18-.5-.06-.16,.12-.18,.34-.06,.5,.31,.4,.65,.76,1.01,1.08,.07,.06,.15,.09,.23,.09,.1,0,.2-.04,.27-.12,.13-.15,.11-.37-.04-.5-.33-.29-.64-.61-.92-.98Z"/>
      <path d="M82.7,146.15c-.43-.13-.85-.31-1.23-.52-.17-.09-.39-.03-.48,.14-.1,.17-.03,.39,.14,.48,.43,.24,.89,.43,1.36,.58,.04,.01,.07,.02,.11,.02,.15,0,.29-.1,.34-.25,.06-.19-.05-.39-.23-.45Z"/>
      <path d="M82.16,129.45c-.09-.18-.3-.25-.48-.16-.44,.22-.87,.47-1.26,.74-.16,.11-.2,.33-.09,.5,.07,.1,.18,.15,.29,.15,.07,0,.14-.02,.2-.06,.37-.25,.76-.48,1.17-.69,.18-.09,.25-.3,.16-.48Z"/>
      <path d="M87.72,128.41c0-.2-.15-.36-.34-.37-.48-.02-.97,0-1.46,.05-.2,.02-.34,.19-.32,.39,.02,.18,.17,.32,.35,.32,.01,0,.02,0,.04,0,.46-.05,.92-.06,1.36-.04,.19,.01,.36-.15,.37-.34Z"/>
      <path d="M85.38,146.49c-.09,0-.17,0-.27,0-.37,0-.74-.02-1.09-.06-.2-.03-.37,.12-.4,.31-.02,.2,.12,.37,.31,.4,.38,.05,.77,.07,1.18,.07,.09,0,.19,0,.29,0,.2,0,.35-.17,.35-.37,0-.2-.17-.34-.37-.35Z"/>
      <path d="M94.04,132.7c.07,.11,.18,.17,.31,.17,.06,0,.13-.02,.18-.05,.17-.1,.22-.32,.12-.49-.26-.43-.54-.83-.84-1.2-.13-.15-.35-.17-.5-.05-.15,.13-.17,.35-.05,.5,.28,.34,.54,.71,.78,1.11Z"/>
      <path d="M92.54,130.71c.1,0,.2-.04,.27-.12,.13-.15,.11-.37-.04-.5-.37-.32-.78-.61-1.2-.86-.17-.1-.39-.04-.49,.13-.1,.17-.04,.39,.13,.49,.38,.23,.75,.49,1.09,.79,.07,.06,.15,.09,.23,.09Z"/>
      <path d="M94.66,133.92c.16,.37,.31,.76,.44,1.16l.04,.12c.05,.15,.19,.25,.34,.25,.03,0,.07,0,.1-.02,.19-.06,.29-.26,.24-.44l-.04-.13c-.14-.43-.29-.84-.46-1.23-.08-.18-.29-.26-.47-.18-.18,.08-.26,.29-.18,.47Z"/>
      <path d="M77.71,140.21c-.08-.27-.15-.56-.21-.85-.04-.16-.07-.33-.1-.49-.03-.19-.21-.32-.41-.29-.19,.03-.32,.22-.29,.41,.03,.17,.06,.35,.1,.52,.07,.3,.14,.6,.22,.89,.04,.16,.19,.26,.34,.26,.03,0,.06,0,.1-.01,.19-.05,.3-.25,.25-.44Z"/>
      <path d="M95.46,136.53c.09,.46,.14,.92,.16,1.35,0,.19,.17,.34,.36,.34,0,0,.01,0,.02,0,.2,0,.35-.18,.34-.37-.02-.47-.08-.96-.17-1.45-.04-.19-.22-.32-.42-.28-.19,.04-.32,.22-.28,.42Z"/>
      <path d="M95.98,138.93c-.2-.02-.37,.12-.4,.31-.05,.45-.15,.89-.28,1.31-.06,.19,.04,.39,.23,.45,.04,.01,.07,.02,.11,.02,.15,0,.29-.1,.34-.25,.15-.46,.25-.95,.31-1.44,.02-.2-.12-.37-.31-.4Z"/>
      <path d="M94.77,141.77c-.22,.38-.48,.75-.77,1.09-.13,.15-.11,.37,.04,.5,.07,.06,.15,.09,.23,.09,.1,0,.2-.04,.27-.12,.33-.38,.61-.79,.85-1.21,.1-.17,.04-.39-.13-.49-.17-.1-.39-.04-.49,.13Z"/>
      <path d="M77.18,135.08s.07,.02,.11,.02c.15,0,.29-.1,.34-.25,.13-.43,.31-.85,.51-1.24,.09-.17,.02-.39-.15-.48-.18-.09-.39-.02-.48,.15-.23,.43-.42,.89-.56,1.36-.06,.19,.05,.39,.23,.45Z"/>
      <path d="M78.58,132.61c.11,0,.21-.05,.28-.14,.27-.35,.58-.69,.91-1,.14-.13,.15-.36,.02-.5-.14-.14-.36-.15-.5-.02-.36,.34-.69,.7-.99,1.09-.12,.16-.09,.38,.07,.5,.06,.05,.14,.07,.22,.07Z"/>
      <path d="M90.7,145.23c-.4,.18-.83,.35-1.28,.51-.19,.06-.29,.27-.22,.45,.05,.15,.19,.24,.34,.24,.04,0,.08,0,.12-.02,.47-.16,.92-.34,1.35-.53,.18-.08,.26-.29,.18-.47-.08-.18-.29-.26-.47-.18Z"/>
      <path d="M90.12,129.28c.14,0,.28-.09,.33-.23,.07-.18-.03-.39-.21-.46-.45-.17-.93-.3-1.42-.39-.2-.04-.38,.09-.42,.28-.04,.19,.09,.38,.28,.42,.45,.08,.89,.21,1.3,.36,.04,.02,.08,.02,.12,.02Z"/>
      <path d="M93.03,143.81c-.34,.28-.71,.54-1.11,.78-.17,.1-.22,.32-.12,.49,.07,.11,.18,.17,.31,.17,.06,0,.13-.02,.18-.05,.43-.26,.83-.54,1.2-.84,.15-.12,.17-.35,.05-.5-.12-.15-.35-.17-.5-.05Z"/>
      <path d="M78.14,141.52c-.07-.18-.28-.27-.46-.2-.18,.07-.27,.28-.2,.46,.18,.47,.39,.91,.61,1.32,.07,.12,.19,.18,.31,.18,.06,0,.12-.01,.17-.04,.17-.09,.24-.31,.14-.48-.21-.38-.4-.8-.58-1.24Z"/>
      <path d="M76.91,137.89c.2,0,.35-.17,.35-.37,0-.08,0-.16,0-.23,0-.38,.02-.75,.07-1.12,.03-.2-.11-.37-.31-.4-.2-.03-.37,.11-.4,.31-.05,.4-.08,.81-.08,1.21,0,.08,0,.17,0,.25,0,.19,.16,.35,.36,.35h0Z"/>
      <path d="M83.92,129.19c.22-.06,.45-.12,.67-.17,.19-.04,.31-.23,.27-.43-.04-.19-.23-.31-.43-.27-.24,.05-.47,.11-.71,.18,0,0,0,0,0,0-.24,.07-.47,.14-.7,.22-.19,.06-.28,.27-.22,.45,.05,.15,.19,.24,.34,.24,.04,0,.08,0,.12-.02,.21-.07,.43-.14,.66-.21,0,0,0,0,0,0Z"/>
      <path d="M91.72,127.52c-2.07-1-4.4-1.2-6.66-.86-.6,.09-1.18,.22-1.76,.38-2.37,.68-4.6,1.96-6.15,3.91-1.48,1.86-2.24,4.19-2.18,6.57,.07,2.44,.86,5.05,2.18,7.11,1.08,1.69,2.64,3,4.56,3.64,2.06,.69,4.3,.57,6.39,.13,2.31-.49,4.6-1.41,6.45-2.89,1.66-1.33,2.85-3.18,3.23-5.29,.46-2.56-.13-5.26-1.21-7.59-1.01-2.18-2.66-4.06-4.85-5.12Zm3.35,16.44c-1.45,1.58-3.42,2.59-5.43,3.24-1.98,.64-4.18,1-6.26,.68-1.81-.28-3.45-1.12-4.68-2.48-1.49-1.65-2.29-3.85-2.73-6-.45-2.22-.21-4.58,.88-6.58,1.08-1.99,2.87-3.47,4.92-4.39,.56-.25,1.15-.45,1.74-.62,2.09-.58,4.33-.74,6.43-.13,2.09,.6,3.86,1.96,5.06,3.77,2.42,3.64,3.23,9.06,.07,12.51Z"/>
      <path d="M24.84,6.02c.21-.08,.43-.16,.65-.22,0,0,0,0,0,0,.22-.07,.45-.13,.66-.18,.19-.04,.31-.24,.27-.43-.04-.19-.24-.31-.43-.27-.23,.05-.47,.12-.71,.19,0,0,0,0,0,0h0c-.24,.07-.47,.15-.7,.24-.18,.07-.27,.28-.2,.46,.05,.14,.19,.23,.33,.23,.04,0,.09,0,.13-.02Z"/>
      <path d="M28.99,19.33c-.46,.12-.92,.2-1.35,.25-.2,.02-.33,.2-.31,.4,.02,.18,.18,.31,.35,.31,.01,0,.03,0,.04,0,.46-.06,.94-.15,1.43-.27,.19-.05,.31-.24,.26-.43-.05-.19-.24-.31-.43-.26Z"/>
      <path d="M30.19,5.69c.43,.13,.84,.31,1.22,.53,.06,.03,.12,.05,.18,.05,.12,0,.24-.06,.31-.18,.1-.17,.04-.39-.13-.49-.43-.25-.88-.45-1.36-.6-.19-.06-.39,.04-.45,.23-.06,.19,.05,.39,.23,.45Z"/>
      <path d="M27.53,5.4c.46-.03,.91-.03,1.35,.02,.01,0,.02,0,.04,0,.18,0,.34-.14,.35-.32,.02-.2-.12-.37-.32-.39-.48-.05-.97-.06-1.47-.02-.2,.01-.34,.19-.33,.38,.01,.2,.18,.34,.38,.33Z"/>
      <path d="M31.55,18.37c-.39,.2-.81,.39-1.25,.56-.18,.07-.28,.27-.21,.46,.05,.14,.19,.23,.33,.23,.04,0,.08,0,.13-.02,.47-.18,.92-.38,1.33-.6,.17-.09,.24-.31,.15-.48-.09-.17-.31-.24-.48-.15Z"/>
      <path d="M35.32,14.15c-.19-.04-.38,.07-.43,.27-.1,.43-.26,.85-.46,1.24-.09,.17-.02,.39,.15,.48,.05,.03,.11,.04,.16,.04,.13,0,.25-.07,.32-.19,.23-.44,.41-.91,.52-1.4,.04-.19-.07-.38-.27-.43Z"/>
      <path d="M33.37,8.01c.07,.1,.18,.15,.29,.15,.07,0,.15-.02,.21-.07,.16-.12,.19-.34,.08-.5-.3-.41-.63-.78-.98-1.11-.15-.13-.37-.12-.5,.02-.13,.15-.12,.37,.02,.5,.32,.29,.62,.63,.89,1Z"/>
      <path d="M34.92,11.75c.08,.45,.12,.89,.12,1.31,0,0,0,.04,0,.04,0,.2,.16,.34,.36,.34s.36-.18,.36-.37c0-.46-.04-.95-.13-1.44-.03-.19-.22-.32-.41-.29-.19,.03-.32,.22-.29,.41Z"/>
      <path d="M26.28,20.36c.19,0,.35-.15,.36-.34,0-.2-.15-.36-.34-.37-.47-.02-.91-.08-1.32-.18-.19-.05-.38,.07-.43,.26-.05,.19,.07,.38,.26,.43,.46,.12,.96,.18,1.47,.2,0,0,0,0,.01,0Z"/>
      <path d="M20.69,14.74c-.07-.22-.13-.45-.19-.68-.05-.21-.1-.43-.13-.64-.03-.19-.21-.33-.41-.29-.19,.03-.33,.21-.3,.41,.04,.23,.09,.47,.14,.7,.06,.25,.13,.49,.2,.72,.05,.15,.19,.25,.34,.25,.03,0,.07,0,.1-.02,.19-.06,.29-.26,.24-.44Z"/>
      <path d="M21.16,16.02c-.08-.18-.29-.26-.47-.18-.18,.08-.26,.29-.18,.47,.21,.47,.45,.9,.71,1.29,.07,.1,.18,.16,.3,.16,.07,0,.14-.02,.2-.06,.16-.11,.21-.33,.1-.49-.24-.35-.46-.75-.65-1.18Z"/>
      <path d="M19.92,12.42c.19,0,.35-.15,.36-.35,.01-.45,.07-.9,.17-1.33,.05-.19-.07-.38-.26-.43-.19-.05-.38,.07-.43,.26-.11,.48-.18,.97-.19,1.47,0,.2,.15,.36,.35,.37h0Z"/>
      <path d="M20.57,9.69c.13,0,.26-.07,.32-.2,.19-.4,.43-.78,.7-1.13,.12-.16,.09-.38-.06-.5-.16-.12-.38-.09-.5,.06-.31,.39-.57,.82-.78,1.26-.09,.18-.01,.39,.17,.48,.05,.02,.1,.04,.15,.04Z"/>
      <path d="M33.68,16.74c-.28,.32-.61,.63-.99,.91-.16,.12-.19,.34-.07,.5,.07,.09,.18,.14,.28,.14,.07,0,.15-.02,.21-.07,.41-.31,.78-.65,1.09-1,.13-.15,.12-.37-.03-.5-.15-.13-.37-.12-.5,.03Z"/>
      <path d="M22.52,7.38c.33-.29,.7-.55,1.1-.78,.17-.1,.23-.32,.13-.49s-.32-.23-.49-.13c-.43,.25-.84,.54-1.2,.86-.15,.13-.17,.35-.04,.5,.07,.08,.17,.12,.27,.12,.08,0,.16-.03,.23-.09Z"/>
      <path d="M22.67,18.22c-.14-.13-.37-.13-.5,.02-.13,.14-.13,.37,.02,.5,.37,.35,.78,.64,1.21,.88,.05,.03,.11,.04,.17,.04,.13,0,.25-.07,.31-.19,.09-.17,.03-.39-.14-.48-.38-.21-.74-.47-1.07-.77Z"/>
      <path d="M34.56,10.36l.02,.07c.05,.15,.19,.25,.34,.25,.04,0,.07,0,.11-.02,.19-.06,.29-.26,.23-.45l-.03-.11c-.15-.44-.32-.86-.52-1.25-.09-.18-.3-.25-.48-.16-.18,.09-.25,.3-.16,.48,.18,.36,.34,.75,.49,1.19Z"/>
      <path d="M24.01,21.31c1.69,.51,3.52,.38,5.22-.02,1.88-.44,3.73-1.24,5.21-2.49,1.31-1.11,2.24-2.64,2.51-4.34,.33-2.08-.18-4.25-1.09-6.13-.86-1.77-2.24-3.31-4.05-4.14-1.7-.78-3.59-.92-5.42-.61-.5,.08-.99,.2-1.48,.35-1.94,.6-3.73,1.69-4.98,3.31-1.18,1.53-1.75,3.45-1.66,5.38,.17,3.56,2.11,7.59,5.73,8.69Zm-4.72-7.12c-.46-2-.23-4.11,.86-5.87,1.12-1.81,2.97-3.01,4.98-3.63,1.68-.5,3.48-.67,5.19-.21,1.7,.46,3.15,1.54,4.14,2.99,1.97,2.89,2.71,7.2,.22,10-1.12,1.26-2.64,2.09-4.21,2.65-1.61,.57-3.39,.9-5.1,.69-1.46-.18-2.81-.84-3.81-1.92-1.2-1.28-1.87-3-2.26-4.69Z"/>
      <path d="M156.21,63.51c.23,.02,.45,.05,.68,.09h0c.23,.04,.46,.08,.68,.13,.03,0,.05,0,.08,0,.16,0,.31-.11,.35-.28,.04-.19-.08-.38-.27-.43-.24-.05-.48-.1-.72-.14,0,0,0,0,0,0-.24-.04-.48-.07-.73-.1-.2-.02-.37,.12-.39,.32-.02,.2,.12,.37,.32,.39Z"/>
      <path d="M154.7,79.43c-.02,.2,.12,.37,.32,.39,.48,.05,.96,.08,1.44,.08,.2,0,.34-.16,.34-.36s-.17-.36-.37-.36c-.43,0-.88-.03-1.34-.07-.2-.02-.37,.12-.39,.32Z"/>
      <path d="M153.45,63.64s.05,0,.07,0c.43-.09,.88-.14,1.34-.16,.2,0,.35-.17,.34-.37,0-.2-.18-.35-.37-.34-.49,.02-.98,.08-1.45,.18-.19,.04-.32,.23-.28,.42,.03,.17,.18,.29,.35,.29Z"/>
      <path d="M162.18,66.41c.07,.09,.17,.13,.27,.13,.08,0,.16-.03,.23-.08,.15-.13,.17-.35,.05-.5-.31-.37-.66-.72-1.04-1.04-.15-.13-.38-.1-.5,.05-.13,.15-.1,.38,.05,.5,.35,.29,.67,.6,.95,.94Z"/>
      <path d="M158.9,64.14c.43,.16,.84,.36,1.22,.57,.06,.03,.12,.05,.18,.05,.12,0,.24-.06,.31-.18,.1-.17,.04-.39-.13-.49-.41-.23-.86-.44-1.32-.62-.18-.07-.39,.02-.46,.21-.07,.18,.02,.39,.21,.46Z"/>
      <path d="M147.5,69.08s.07,.01,.1,.01c.15,0,.3-.1,.34-.26,.13-.44,.29-.86,.48-1.26,.08-.18,0-.39-.17-.48-.18-.08-.39,0-.48,.17-.21,.43-.38,.89-.52,1.37-.05,.19,.05,.39,.24,.44Z"/>
      <path d="M148.81,66.57c.11,0,.22-.05,.29-.15,.26-.36,.56-.7,.88-1,.14-.13,.15-.36,.02-.5-.13-.14-.36-.15-.5-.02-.36,.33-.68,.7-.97,1.1-.12,.16-.08,.38,.08,.5,.06,.05,.14,.07,.21,.07Z"/>
      <path d="M150.85,64.67c.06,0,.13-.02,.19-.05,.37-.23,.77-.44,1.19-.6,.18-.07,.27-.28,.2-.46-.07-.18-.28-.27-.46-.2-.46,.18-.9,.4-1.31,.66-.17,.1-.22,.32-.11,.49,.07,.11,.18,.17,.3,.17Z"/>
      <path d="M148.25,75.41c-.09-.17-.31-.23-.48-.14-.17,.09-.24,.31-.14,.48,.24,.43,.53,.84,.86,1.21,.07,.08,.17,.12,.26,.12,.09,0,.17-.03,.24-.09,.15-.13,.16-.36,.03-.5-.3-.33-.55-.69-.76-1.07Z"/>
      <path d="M153.74,78.9c-.46-.1-.91-.22-1.32-.35-.19-.06-.39,.04-.45,.23-.06,.19,.04,.39,.23,.45,.44,.14,.91,.27,1.39,.37,.03,0,.05,0,.08,0,.16,0,.31-.11,.35-.28,.04-.19-.08-.38-.27-.42Z"/>
      <path d="M159.12,78.81c-.41,.13-.85,.23-1.31,.29-.19,.03-.33,.21-.3,.4,.02,.18,.18,.31,.35,.31,.02,0,.03,0,.05,0,.5-.07,.98-.18,1.43-.32,.19-.06,.29-.26,.23-.45-.06-.19-.26-.29-.45-.23Z"/>
      <path d="M147.11,71.86s.01,0,.02,0c.19,0,.35-.15,.36-.34,.02-.43,.07-.89,.15-1.35,.03-.19-.1-.38-.29-.41-.19-.03-.38,.1-.41,.29-.08,.49-.14,.98-.16,1.44-.01,.2,.14,.36,.34,.37Z"/>
      <path d="M147.75,74.18c-.12-.41-.2-.85-.24-1.31-.02-.2-.18-.34-.39-.32-.2,.02-.34,.19-.32,.39,.05,.5,.14,.99,.27,1.44,.04,.16,.19,.26,.34,.26,.03,0,.07,0,.1-.01,.19-.05,.3-.25,.24-.44Z"/>
      <path d="M164.09,72.46c-.2-.03-.38,.11-.4,.3-.07,.47-.16,.92-.28,1.33-.05,.19,.06,.39,.25,.44,.03,0,.06,.01,.09,.01,.16,0,.3-.1,.34-.26,.12-.44,.22-.92,.29-1.42,.03-.19-.11-.38-.3-.4Z"/>
      <path d="M163.72,70.06c.05,.38,.07,.77,.07,1.17,0,.06,0,.12,0,.18,0,.2,.15,.36,.35,.36h0c.19,0,.35-.16,.36-.35,0-.06,0-.13,0-.19,0-.43-.03-.85-.08-1.26-.03-.2-.2-.33-.4-.31-.2,.03-.33,.2-.31,.4Z"/>
      <path d="M163.43,68.75c.05,.15,.19,.25,.34,.25,.03,0,.07,0,.11-.02,.19-.06,.29-.26,.23-.45-.15-.47-.34-.93-.57-1.36-.09-.17-.31-.24-.48-.15-.17,.09-.24,.31-.15,.48,.21,.39,.38,.8,.51,1.23Z"/>
      <path d="M162.95,75.36c-.19,.42-.41,.81-.66,1.16-.11,.16-.08,.38,.08,.5,.06,.04,.13,.07,.21,.07,.11,0,.22-.05,.29-.15,.28-.39,.52-.82,.73-1.28,.08-.18,0-.39-.18-.47-.18-.08-.39,0-.47,.18Z"/>
      <path d="M161.42,77.51c-.33,.29-.69,.55-1.07,.77-.17,.1-.23,.31-.14,.48,.07,.12,.19,.18,.31,.18,.06,0,.12-.01,.17-.05,.43-.24,.84-.53,1.2-.86,.15-.13,.16-.36,.03-.5-.13-.15-.36-.16-.5-.03Z"/>
      <path d="M150.01,77.36c-.16-.12-.38-.08-.5,.08-.11,.16-.08,.38,.08,.5,.38,.27,.8,.52,1.26,.74,.05,.02,.1,.04,.15,.04,.13,0,.26-.07,.32-.2,.09-.18,.01-.39-.17-.48-.42-.2-.81-.43-1.16-.68Z"/>
      <path d="M147.88,78.42c1.5,1.35,3.44,2.1,5.4,2.52,2.05,.43,4.24,.53,6.28-.03,1.86-.51,3.47-1.62,4.56-3.21,1.29-1.9,1.82-4.34,1.8-6.61-.02-2.14-.66-4.23-2-5.92-1.28-1.6-3.12-2.67-5.06-3.25-.52-.16-1.05-.27-1.59-.36-2.24-.36-4.55-.17-6.61,.84-1.94,.95-3.45,2.61-4.3,4.59-.88,2.06-1.22,4.52-.91,6.74,.26,1.8,1.08,3.48,2.44,4.71Zm-1.38-9.39c.47-2.02,1.53-3.89,3.2-5.15,1.63-1.22,3.65-1.76,5.67-1.73,.56,0,1.12,.06,1.68,.15,1.89,.32,3.74,1.02,5.21,2.28,1.45,1.25,2.38,2.94,2.72,4.82,.7,3.84-.67,8.6-4.44,10.32-1.7,.78-3.63,.88-5.47,.7-1.92-.19-3.9-.72-5.55-1.75-1.4-.87-2.49-2.16-3-3.74-.62-1.9-.47-3.98-.02-5.91Z"/>
      <path d="M57.93,46.54c-2.56,.02-5.13,.05-7.69,.07-.32,0-.65,0-.97,0-.13,0-.22,.05-.29,.12,0,0-.02,0-.02,.01-.83,.73-1.66,1.45-2.49,2.18-.12,.1-.24,.21-.36,.31,0,0,0,0,0,0,0,0,0,0,0,.01-.03,.03-.05,.06-.07,.1,0,0,0,0,0,0-.02,.05-.03,.1-.04,.16,0,.01,0,.02,0,.03-.13,5.76-.13,11.52-.13,17.28,0,5.61,.01,11.23-.07,16.84-.06,3.94-.16,7.88-.15,11.83,.01,3.81,.06,7.62,.12,11.42,.03,2.11,.02,4.22,.12,6.33,0,.03,0,.07,0,.1,0,.26,.2,.42,.45,.45,9.29,.81,18.61,1.25,27.93,1.36,8.66,.1,17.31-.09,25.96-.51,4.6-.22,9.2-.52,13.8-.86,0,0,.01,0,.02,0,.1,0,.21-.05,.29-.12,.61-.53,1.21-1.06,1.82-1.59,.31-.27,.63-.54,.93-.82,.37-.35,.27-1.03,.3-1.51,.2-3.32,.3-6.64,.35-9.96,.11-7.3-.03-14.6-.23-21.9-.19-7.04-.46-14.07-.67-21.11-.09-3.02-.16-6.04-.19-9.06,0-.12,0-.22-.01-.32,.01-.14-.03-.28-.12-.38-.02-.02-.04-.02-.05-.03-.07-.07-.16-.13-.29-.17-.23-.07-.48-.09-.71-.12-2.13-.25-4.31-.24-6.45-.28-3.76-.07-7.52-.09-11.27-.1-1.72,0-3.43,0-5.15,0,.16-2.6,.22-5.21-.05-7.8-.4-3.85-1.72-7.88-5.38-9.78-2.05-1.06-4.47-1.37-6.75-1.25-1.98,.11-3.94,.67-5.52,1.91-.33,.26-.63,.55-.91,.84-.3,.18-.59,.36-.87,.58-3.01,2.35-3.95,6.38-4.25,10-.15,1.87-.14,3.74-.04,5.62-3.62,.03-7.24,.06-10.85,.1Zm57.8,1.71s0,.05,0,.07c0,.36,0,.72,.01,1.07,.01,.7,.02,1.4,.04,2.1,.03,1.46,.07,2.92,.11,4.38,.09,3.21,.2,6.43,.3,9.64,.23,6.93,.46,13.86,.58,20.8,.11,6.7,.14,13.41-.15,20.11-.06,1.4-.14,2.81-.23,4.21-.64,.56-1.28,1.12-1.92,1.68,.38-6.2,.44-12.42,.39-18.62-.06-7.03-.26-14.06-.49-21.08-.21-6.38-.45-12.77-.57-19.15-.01-.69-.02-1.39-.03-2.08,0-.34,0-.67-.01-1.01,0-.17,.01-.36,0-.54,.66-.53,1.31-1.05,1.97-1.58Zm-23.22-1.04c3.77,0,7.55,0,11.32,.03,2.93,.02,5.86,.05,8.79,.17,.85,.03,1.71,.07,2.56,.15,0,0,0,0,0,0-.63,.5-1.25,1.01-1.88,1.51-.08,.07-.16,.13-.24,.2-.53-.11-1.1-.14-1.63-.17-2.5-.16-5.02-.18-7.52-.22-3.81-.05-7.62-.06-11.43-.06-.03,0-.06,0-.1,0,.04-.53,.08-1.07,.12-1.6Zm20.37,2.67s0,0,0,0c0,0,0,.01,0,.01,0-.01-.01-.03-.01-.04,0,0,.01,.01,.01,.02Zm-34.04-21.29c2.15-.43,4.57-.28,6.64,.43,1.71,.58,3.19,1.68,4.19,3.19,1.03,1.58,1.54,3.43,1.83,5.27,.45,2.91,.38,5.89,.19,8.85-.27,0-.55,0-.82,0,.1-2.13,.1-4.26-.12-6.38-.4-3.85-1.72-7.88-5.38-9.78-2.05-1.06-4.47-1.37-6.75-1.25-.45,.02-.9,.08-1.34,.15,.51-.21,1.03-.38,1.57-.49Zm12.06,25.74s-.01,.07-.02,.11c0,.03-.02,.09-.04,.14,0,0,0,0-.01,.02,0,.01-.01,.03-.02,.04-.02,.03-.03,.06-.05,.1-.02,.03-.03,.06-.05,.08,0,0,0,.01-.01,.02-.05,.05-.09,.1-.14,.15,0,0-.03,.03-.05,.04-.02,.01-.04,.03-.04,.03-.03,.02-.06,.04-.09,.05,0,0-.04,.02-.06,.03-.01,0-.07,.03-.08,.03-.04,.01-.07,.02-.11,.03-.04,0-.07,.02-.11,.03-.01,0-.03,0-.04,0,0,0,0,0,0,0-.09,0-.18,.01-.27,0-.03,0-.06,0-.1,0-.02,0-.04,0-.06-.01-.07-.02-.14-.04-.21-.06,0,0,0,0,0,0,0,0-.02-.01-.02-.01-.03-.02-.07-.04-.1-.06-.03-.02-.05-.03-.08-.05,0,0-.01,0-.01-.01-.06-.05-.11-.1-.16-.16,0,0,0,0,0,0,0,0,0,0,0,0-.02-.03-.04-.05-.05-.08-.02-.03-.06-.09-.08-.14,0,0,0,0,0-.02,0-.02-.01-.03-.02-.05-.01-.03-.02-.06-.03-.09,0-.02-.03-.11-.04-.16,0,0,0,0,0,0,0-.02,0-.03,0-.05,0-.03,0-.06,0-.1,0-.01,0-.1,0-.16,0,0,0,0,0-.01,0-.02,0-.04,.01-.06,0-.04,.02-.07,.03-.11,.01-.04,.02-.08,.04-.11,0,0,0,0,0-.01,0,0,0,0,0-.01,.03-.06,.07-.12,.11-.18,0,0,.02-.02,.02-.03,.02-.03,.05-.05,.08-.08,0,0,.05-.04,.07-.06,.02-.01,.04-.03,.05-.03,.04-.02,.08-.04,.11-.06,0,0,.02,0,.03-.01,0,0,0,0,0,0,.07-.02,.13-.04,.2-.06-.03,.36-.06,.72-.09,1.07-.04,.57,.85,.57,.89,0,.03-.33,.05-.66,.08-.99,.07,.04,.13,.08,.2,.12,0,0,0,0,.01,0,.02,.02,.05,.04,.07,.07,.02,.02,.04,.05,.07,.07,0,0,0,0,.01,.01,0,0,0,0,0,.01,.03,.05,.07,.11,.1,.17,0,.01,.01,.03,.02,.04,0,.03,.02,.06,.02,.07,.02,.06,.03,.12,.04,.18,0,0,0,0,0,0,0,.04,0,.08,0,.12,0,.01,0,.09,0,.15,0,.01,0,.03,0,.04Zm-2.18-.03s0-.02,0-.03c0,0,0,.01,0,.03Zm-9.63-5.45c-2.43,.01-4.86,.03-7.29,.05-.06-.53-.11-1.05-.16-1.58,2.24-.02,4.48-.04,6.72-.05,3.86-.03,7.72-.04,11.59-.05-.03,.53-.07,1.07-.11,1.6-3.58,0-7.16,.01-10.74,.03Zm11.35,3.51c.08-.88,.15-1.77,.22-2.65,.26,0,.51,0,.77,0-.04,.45-.08,.9-.11,1.34-.05,.56-.09,1.13-.14,1.69-.22-.18-.47-.31-.74-.38Zm.29-3.54c.04-.53,.07-1.07,.1-1.6,.27,0,.53,0,.8,0-.04,.54-.08,1.07-.13,1.6-.26,0-.52,0-.77,0Zm-16.32-17.76s.05-.04,.07-.07c.79-.46,1.66-.8,2.59-.98,2.15-.43,4.57-.28,6.64,.43,1.71,.58,3.19,1.68,4.19,3.19,1.03,1.58,1.54,3.43,1.83,5.27,.38,2.45,.39,4.94,.27,7.43-2.02,0-4.04,0-6.07,.01-4.12,.02-8.23,.05-12.35,.08-.13-1.67-.2-3.35-.17-5.03,.08-3.52,.56-7.6,3-10.34Zm-4.17,21.25c-.1-.83-.19-1.67-.27-2.5,.34,0,.69,0,1.03,0,.07,.6,.14,1.19,.21,1.78,.05,.42,.1,.83,.15,1.25,0,.07,.03,.13,.06,.18-.07-.09-.12-.19-.21-.26-.28-.24-.62-.39-.98-.45Zm-.36-3.39c-.05-.53-.08-1.05-.11-1.58,.33,0,.65,0,.98,0,.05,.53,.1,1.05,.15,1.58-.34,0-.68,0-1.02,0Zm2.13-15.61c-.82,1.92-1.21,4.07-1.38,6.1-.19,2.34-.13,4.69,.05,7.03-.25,0-.5,0-.75,0-.07,0-.15,0-.22,0-.06-1.21-.1-2.41-.08-3.62,.07-3.18,.49-6.82,2.37-9.52Zm-2.42,20.95c.07,.56,.96,.57,.89,0-.04-.34-.08-.67-.12-1.01,0,0,0,0,0,0,0,0,0,0,0,0,0,0,.01,0,.02,0,.07,.04,.14,.08,.2,.12,0,0,0,0,.01,0,.02,.02,.05,.04,.07,.07,.02,.02,.04,.05,.07,.07,0,0,0,0,.01,.01,0,0,0,0,0,.01,.03,.05,.07,.11,.1,.17,0,.01,.01,.03,.02,.04,0,0,0,0,0,0,0,.03,.02,.06,.02,.07,.02,.06,.03,.12,.04,.18,0,0,0,0,0,0,0,.04,0,.08,0,.12,0,.01,0,.09,0,.15,0,.01,0,.03,0,.04,0,.04-.01,.07-.02,.11,0,.03-.02,.09-.04,.14,0,0,0,0-.01,.02,0,.01-.01,.03-.02,.04-.02,.03-.03,.06-.05,.1-.02,.03-.03,.06-.05,.08,0,0,0,.01-.01,.02-.05,.05-.09,.1-.14,.15,0,0-.03,.03-.05,.04-.02,.01-.04,.03-.04,.03-.03,.02-.06,.04-.09,.05,0,0-.04,.02-.06,.03-.01,0-.07,.03-.08,.03-.04,.01-.07,.02-.11,.03-.04,0-.07,.02-.11,.03-.01,0-.03,0-.04,0,0,0,0,0,0,0-.09,0-.18,.01-.27,0-.03,0-.06,0-.1,0-.02,0-.04,0-.06-.01-.07-.02-.14-.04-.21-.06,0,0,0,0,0,0,0,0-.02-.01-.02-.01-.03-.02-.07-.04-.1-.06-.03-.02-.05-.03-.08-.05,0,0-.01,0-.01-.01-.05-.05-.11-.1-.16-.16,0,0,0,0,0,0,0,0,0,0,0,0-.02-.03-.04-.05-.05-.08-.02-.03-.06-.09-.08-.14,0,0,0,0,0-.02,0-.02-.01-.03-.02-.05-.01-.03-.02-.06-.03-.09,0-.02-.03-.11-.04-.16,0,0,0,0,0,0,0-.02,0-.03,0-.05,0-.03,0-.06,0-.1,0-.01,0-.1,0-.16,0,0,0,0,0-.01,0-.02,0-.04,.01-.06,0-.04,.02-.07,.03-.11,.01-.04,.02-.08,.04-.11,0,0,0,0,0-.01,0,0,0,0,0-.01,.03-.06,.07-.12,.11-.18,0,0,.02-.02,.02-.03,.02-.03,.05-.05,.08-.08,0,0,.05-.04,.07-.06,.02-.01,.04-.03,.05-.03,.04-.02,.08-.04,.11-.06,0,0,.02,0,.03-.01,0,0,0,0,0,0,.05-.02,.11-.03,.16-.04,.04,.35,.09,.71,.13,1.06Zm-.84,.04s0-.02,0-.03c0,0,0,.01,0,.03Zm.61-1.97c-.67,.14-1.24,.57-1.43,1.27-.2,.71,.02,1.57,.58,2.06,.66,.57,1.68,.64,2.41,.17,.68-.43,1.01-1.23,.88-2.02-.05-.29-.19-.55-.37-.79,.22,.37,.89,.31,.83-.19-.13-1.01-.25-2.03-.36-3.04,1.21,0,2.41-.02,3.62-.03,4.47-.03,8.93-.05,13.4-.06,.29,0,.57,0,.86,0-.07,.87-.14,1.73-.21,2.59-.77,.08-1.44,.53-1.65,1.31-.2,.71,.02,1.57,.58,2.06,.66,.57,1.68,.64,2.41,.17,.68-.43,1.01-1.23,.88-2.02-.03-.19-.1-.37-.19-.55,.22,0,.45-.14,.47-.43,.08-1.04,.17-2.08,.26-3.12,2.89,0,5.78,0,8.67,.02,2.93,.02,5.86,.05,8.79,.17,.85,.03,1.71,.07,2.56,.15,.07,0,.14,.01,.2,.02,.03,0,.11,.01,.15,.02,.06,0,.11,.02,.17,.03,0,.24,.04,.53,.04,.7,0,.36,0,.72,.01,1.07,.01,.7,.02,1.4,.04,2.1,.03,1.46,.07,2.92,.11,4.38,.09,3.21,.2,6.43,.3,9.64,.23,6.93,.46,13.86,.58,20.8,.11,6.7,.14,13.41-.15,20.11-.05,1.15-.12,2.29-.19,3.44-.49-.46-.97-.92-1.46-1.38-.42-.39-1.05,.24-.63,.63,.48,.45,.96,.91,1.44,1.36-7.97,.58-15.95,1-23.94,1.2-8.93,.22-17.86,.16-26.78-.23-5.16-.22-10.32-.56-15.48-1-.03-1.61-.07-3.22-.09-4.84-.06-3.7-.11-7.41-.13-11.12-.02-3.76,.03-7.52,.11-11.28,.12-5.59,.11-11.18,.11-16.77,0-5.75,0-11.49,.09-17.24,0-.38,.01-.76,.02-1.13,.22,.21,.44,.42,.66,.63,.42,.39,1.05-.24,.63-.63-.2-.19-.41-.38-.61-.57,1.59,0,3.18-.02,4.77-.03,3.43-.03,6.86-.06,10.29-.1,2.15-.02,4.3-.03,6.46-.05,.08,.84,.18,1.68,.28,2.52Zm-.49-4.98c.04,.53,.08,1.05,.13,1.58-1.06,0-2.12,.01-3.18,.02-3.75,.03-7.49,.07-11.24,.1-2.31,.02-4.63,.05-6.94,.06,.54-.47,1.08-.94,1.62-1.42,.07-.06,.14-.12,.21-.18,1.9,0,3.81-.02,5.71-.04,3.43-.03,6.86-.06,10.29-.1,1.13-.01,2.26-.02,3.4-.03Z"/>
      <path d="M148.62,158.78c.04,.35,.1,.7,.17,1.04,.47,2.4,1.15,4.79,1.99,7.08,.11,.3,.22,.56,.34,.84,.04,0,.09-.02,.15-.04,.84-.26,1.63-.75,2.38-1.19,.12-.07,.23-.14,.35-.21-1.54-2.15-3.07-4.3-4.61-6.45-.26-.36-.51-.72-.77-1.08Z"/>
      <path d="M156.47,145.98c-.3,.45-.61,.9-.91,1.35-.27,.4-.53,.79-.8,1.19,1.96,2.54,3.92,5.08,5.88,7.62,.22-1.31,.44-2.63,.65-3.94,0,0,0-.01,0-.02-.07-.09-.13-.17-.2-.26-1.54-1.98-3.08-3.96-4.62-5.94Z"/>
      <path d="M153.88,149.84c.3-.44,.59-.88,.89-1.32h0c-.3,.44-.59,.88-.89,1.32Z"/>
      <path d="M152.41,155.91c-.46-.62-.91-1.23-1.37-1.85,.29-.43,.58-.86,.87-1.29-.96,1.44-1.93,2.87-2.89,4.31,.09-.14,.19-.28,.28-.41,1.53,2.14,3.05,4.27,4.58,6.41,.54,.76,1.09,1.52,1.63,2.28,.43-.28,.86-.56,1.27-.85,.44-.31,.88-.62,1.31-.95-.01-.01-.02-.03-.03-.04-1.88-2.53-3.76-5.07-5.64-7.6Z"/>
      <polygon points="160.2 140.48 160.2 140.47 160.2 140.47 160.2 140.48"/>
      <path d="M162.6,143.31c.18-1.24,.37-2.47,.54-3.71-.38,.11-.77,.16-1.16,.08-.39-.08-.67-.31-.87-.59-.3,.46-.6,.92-.9,1.38,.8,.95,1.6,1.89,2.4,2.84Z"/>
      <path d="M159.17,142.01c-.55,.81-1.1,1.63-1.65,2.44,1.38,1.78,2.76,3.55,4.14,5.33,.21-1.37,.39-2.74,.59-4.11-1.03-1.22-2.06-2.43-3.09-3.65,0,0,0,0,0,0Z"/>
      <path d="M153.73,150.06c-.55,.81-1.09,1.63-1.64,2.44,1.75,2.36,3.5,4.72,5.25,7.08,.69,.93,1.38,1.86,2.07,2.79,.05-.05,.09-.1,.13-.15,0,0,.12-.22,.1-.16,.16-.5,.19-1.08,.28-1.6,.1-.56,.19-1.13,.29-1.69,.01-.09,.03-.17,.04-.26l-.22-.28c-2.1-2.73-4.21-5.45-6.31-8.18Z"/>
      <path d="M162.61,138.93s.06-.02,.08-.02l-1.02-.38c.19,.29,.49,.46,.94,.4Z"/>
      <path d="M166.44,131.2c-.89-.38-1.82-.67-2.77-.84-.76-.13-1.62-.25-2.37-.03-.32,.1-.62,.27-.79,.56-.13,.23-.13,.46-.13,.72,0,.46-.01,.92-.02,1.39-.03,1.63,.04,3.23,.29,4.85h0s0,0,0,0c0,.03,0,.07,.01,.1,0,.02,.01,.03,.02,.04,.01,.08,.03,.16,.05,.24,.02-.04,.05-.07,.07-.11,.2-.3,.62-.18,.72,.08-.04-.11-.07-.23-.09-.36,0-.02-.01-.03-.02-.05,0-.02,0-.04,0-.06-.21-1.29-.3-2.58-.29-3.89,0-.68,.02-1.35,.03-2.03,0-.15-.02-.32,0-.46,0-.07,.03-.08,.02-.07,.01-.03,.08-.1,.11-.12,.4-.27,1.15-.2,1.66-.15,.8,.09,1.58,.29,2.34,.55,.75,.26,1.5,.58,2.16,1.02,.23,.16,.47,.34,.64,.56,.12,.15,.2,.3,.18,.45,0-.02,0,.03-.03,.09-.03,.08-.06,.15-.09,.22-.09,.19-.18,.38-.29,.56-.23,.4-.5,.78-.79,1.14-.62,.77-1.33,1.48-2.11,2.08-.65,.5-1.44,1.04-2.27,1.19l.52,.19c.09-.43,.74-.26,.74,.18,.14-.07,.29-.15,.42-.22,.96-.56,1.82-1.3,2.58-2.1,.72-.77,1.41-1.63,1.86-2.59,.32-.7,.29-1.25-.25-1.83-.56-.61-1.37-1.01-2.12-1.33Z"/>
      <path d="M161.53,138.27c.01,.06,0,.13-.03,.2l.17,.06c-.05-.08-.1-.16-.14-.26Z"/>
      <path d="M160.03,162.13c-.21,1.2-8.75,6.66-9.18,5.96-.63-1.02-3.24-9.62-2.58-10.61l12.61-18.78c-.07-.15-.12-.3-.16-.47-1.71,2.54-3.42,5.09-5.13,7.63-2.36,3.51-4.72,7.03-7.08,10.54-.19,.28-.4,.55-.57,.84-.3,.51-.17,1.2-.09,1.75,.34,2.5,1.1,5,1.91,7.39,.15,.43,.3,.87,.47,1.29,.1,.25,.2,.62,.45,.77,.52,.32,1.43-.24,1.88-.46,2.15-1.06,4.21-2.43,6.09-3.9,.58-.45,1.34-.98,1.68-1.65,.15-.3,.16-.67,.21-.99,.11-.62,.22-1.25,.32-1.88,.2-1.18,.4-2.35,.59-3.53,.73-4.4,1.4-8.82,2.02-13.24,.16-1.16,.32-2.32,.48-3.48,0-.02,0-.04,0-.06-.13,.07-.27,.12-.41,.18-1.07,7.92-2.09,14.46-3.52,22.67Z"/>
      <path d="M163.13,139.61c.14-.04,.28-.09,.42-.15,.01-.08,.02-.15,.03-.23l-.37-.13s0,.02-.01,.03c-.02,.16-.05,.32-.07,.48Z"/>
      <path d="M161.37,138.68s.07-.1,.1-.15c.01-.02,.02-.04,.03-.06l-.36-.13-.25,.38c.06,.14,.13,.27,.22,.39,.09-.14,.18-.28,.28-.42Z"/>
    </g>
  </g>
</svg>