<?xml version="1.0" encoding="UTF-8"?>
<svg id="_图层_2" data-name="图层 2" xmlns="http://www.w3.org/2000/svg" viewBox="0 0 104.36 99.25">
  <g id="_图层_2-2" data-name=" 图层 2">
    <path d="M10.84,69.94c-1.12-.91-2.2-1.41-3.28-1.95-1.29-.64-1.62-1.51-1.13-2.71,.5-1.23,1.49-1.72,2.8-1.32,2.27,.69,3.69,2.4,4.84,4.33,.49,.83,.76,.92,1.73,.53,2.01-.81,2.4-2.24,2.47-4.17,.26-6.48,2.55-12.22,6.65-17.22,.81-.98,.71-1.36-.56-1.65-1.69-.39-3.33-.97-4.99-1.47-2.65-.8-3.34-2.43-1.88-4.83,2.24-3.7,5.45-6.32,9.42-8.04,4.63-2.01,9.55-2.65,14.52-2.95,1.18-.07,1.75-.39,2.11-1.6,1.93-6.31,3.97-12.6,6-18.88,.38-1.19,.88-2.35,1.41-3.48,1.84-3.95,5.52-5.44,9.62-3.99,2.15,.76,4.06,2,6.08,3.03,2.25,1.15,4.49,1.41,6.97,.58,7.34-2.47,13.23,1.36,14.26,9.12,.21,1.63,.35,3.26,.31,4.9-.17,6.27,.5,12.52,.49,18.79,0,1.09,.68,1.49,1.47,1.91,4.14,2.23,8,4.84,11.3,8.22,1.89,1.94,2.91,4.31,2.92,7.03,0,1.97-1.09,2.99-3.03,3.11-1.14,.07-2.68-.48-3.32,.3-.67,.81,.34,2.14,.52,3.27,1.73,10.77-.68,20.42-8.07,28.56-2.47,2.72-5.68,4.59-9.41,4.95-1.76,.17-3.31,.66-4.91,1.32-2.3,.94-4.68,1.31-6.78-.6-.44-.4-.75-.18-1.14,.09-2.5,1.73-5.09,2.54-7.95,.82-.44-.26-.84-.14-1.21,.14-2.29,1.74-4.77,1.61-7.27,.65-.83-.32-1.37-.21-2.08,.31-3.19,2.34-6.66,2.88-10.38,1.37-1.32-.54-2.65-.74-4.09-.41-3.61,.83-6.76-.17-9.48-2.63-1.41-1.27-4.55-1.24-6.77,.1-1.29,.78-2.61,1.46-4.12,1.69-4.45,.68-8-1.06-10.71-4.38-3.46-4.24-4.72-9.26-3.92-14.66,.71-4.82,3.69-7.47,8.52-7.97,.62-.06,1.24-.11,2.09-.19ZM48.25,29.96c-3.01,.19-6.67,.32-10.31,.69-4.14,.42-8.2,1.28-11.92,3.28-2.82,1.51-5.13,3.6-6.83,6.3-.93,1.48-.46,2.25,1.29,2.29,.29,0,.57-.07,.86-.09,3.26-.26,6.41-1.31,9.73-1.29,10.08,.05,20.13,.56,30.14,1.74,11.17,1.32,21.92,4.3,32.3,8.64,2.37,.99,4.49,2.43,6.82,3.48,1.57,.71,2.36,.14,2.16-1.56-.22-1.91-.9-3.68-2.3-5.03-1.77-1.7-3.6-3.35-5.67-4.7-13.87-9.02-29.14-13.38-46.27-13.75Zm38.08-8.03c-.03-3.41,.08-5.96-.32-8.51-.86-5.5-5.23-10.45-11.87-7.54-2.79,1.22-5.58,.75-8.23-.63-1.63-.84-3.21-1.78-4.88-2.52-4.26-1.9-7.14-.86-8.79,3.47-1.76,4.64-3.18,9.4-4.75,14.11-.3,.9-.02,1.39,.98,1.41,3.52,.08,7.01,.59,10.5,.96,.48,.05,.95,.13,1.36-.25,.83-.78,1.83-.74,2.86-.54,2.84,.56,5.67,1.11,8.51,1.68,1.38,.28,2.76,.53,3.48,2.01,.2,.41,.71,.45,1.13,.57,2.95,.89,5.91,1.75,8.84,2.72,1.1,.36,1.54,.22,1.37-1.01-.31-2.25-.17-4.52-.21-5.93Zm-9.83,48.83c-.01-10.14-2.5-17.39-7.43-23.68-.39-.49-.74-1.15-1.34-1.27-2.12-.42-4.27-.74-6.41-1.05-.65-.1-.86,.27-.68,.89,.81,2.8,.56,5.66,.23,8.48-1.18,10.07-1.02,20.1,.24,30.15,.35,2.75,.88,5.58-.02,8.33-.47,1.45,.24,1.96,1.38,2.28,.91,.25,1.81,.13,2.7-.18,1.68-.59,2.81-1.82,3.83-3.19,5.07-6.76,7.3-14.46,7.5-20.75Zm-64.9,1.2c-.82,0-1.64-.05-2.45,0-4.13,.31-6.43,2.26-7.05,6.34-.73,4.83,.36,9.33,3.42,13.18,3.18,4,8.04,5.11,11.83,2.77,1.79-1.1,3.6-1.65,5.71-1.66,4.54-.03,7.88-3.13,8.62-7.62,.74-4.5-.82-8.37-3.2-11.98-3.14-4.77-7.28-5.63-11.99-2.44-1.56,1.05-2.98,1.89-4.89,1.4Zm47.59-20.72c-.07-2,.11-3.55-.34-5.06-.23-.76-.52-1.49-1.28-1.84-2.15-1.01-5.04-.34-6.38,1.61-2.83,4.12-4.91,8.61-6.14,13.47-.85,3.38-1.27,6.82-1.1,10.31,.04,.91,.06,1.84,1.4,1.93,5.15,.33,7.63,3.6,8.74,8.22,1.18,4.89,1.02,9.66-1.63,14.12-.22,.37-.5,.7,.09,1.07,2.39,1.48,6.09-.02,6.74-2.81,.33-1.41,.42-2.84,.26-4.3-.88-8.34-1.76-16.68-1.29-25.08,.23-4.04,.63-8.06,.92-11.63Zm-16.06,46.1c3.45,.02,5.93-1.47,7.57-4.12,3.21-5.17,2.76-10.59,.46-15.92-.97-2.25-2.87-3.56-5.44-3.73-1.7-.11-3.38,0-4.99,.56-.91,.31-1.65,.26-2.46-.21-1.99-1.16-4.19-1.69-6.47-1.87-.44-.03-.94-.08-1.19,.34-.23,.38,.14,.73,.33,1.04,.84,1.37,1.41,2.85,1.94,4.35,1.92,5.39,.79,12.74-5.25,15.67-.89,.43-.42,.77,.03,1.11,2.08,1.53,4.38,2.25,6.94,1.66,1.92-.44,3.72-.31,5.5,.51,1.02,.47,2.12,.65,3.03,.61Zm28.23-50.94c-.09,.84,.36,1.14,.61,1.52,3.91,5.87,6.21,12.27,6.36,19.37,.2,9.11-2.22,17.43-7.52,24.87-.7,.98-.35,1.45,.46,1.94,.52,.32,1.1,.34,1.68,.33,2.39-.07,4.36-1.16,6.08-2.7,3.76-3.35,5.93-7.69,7.24-12.45,2.88-10.44,.45-19.86-5.52-28.66-2.38-3.51-6.12-3.02-9.4-4.21Zm10.03,46.03c2.97-.73,5.32-2.09,7.35-3.98,3.71-3.46,5.83-7.86,7.21-12.66,1.93-6.7,1.79-13.31-.82-19.84-.59-1.47-1.43-2.53-2.99-3.06-2.74-.93-5.43-1.99-8.15-2.96-.5-.18-.98-.54-1.58-.41,9.14,14.45,9.75,28.64-1.02,42.91Zm-44.41-21.24c-.4-.57-.59-.9-.83-1.19-.5-.58-1.03-1.14-1.54-1.71-.88-.99-.93-2.09-.09-2.98,.89-.95,1.93-1.05,2.99-.33,.47,.32,.85,.78,1.21,1.22,1.18,1.48,1.68,3.23,1.97,5.06,.06,.39,.11,.8,.66,.75,.5-.05,.8-.3,.77-.84-.02-.29-.02-.58-.04-.87-.46-9.43,2.56-17.82,7.67-25.57,.51-.78,.36-1.01-.45-1.07-1.2-.08-2.45,.05-3.6-.22-2.67-.63-4.42,.56-5.93,2.54-2.65,3.47-4.82,7.2-6.43,11.26-1.52,3.82-2.68,7.74-2.85,11.88-.02,.5-.25,1.13,.68,1.06,1.91-.14,3.7,.46,5.81,1Zm2.65-27.93c-2.16-.38-4.09-.19-6.01-.28-.91-.04-1.68,.2-2.41,.75-3.14,2.36-5.53,5.36-7.51,8.7-2.44,4.11-3.55,8.62-3.62,13.39-.01,.66,0,1.14,.91,1,2.48-.4,4.5,.7,6.4,2.11,.29,.22,.53,.71,.94,.49,.35-.19,.31-.68,.34-1.06,.27-3.79,1.25-7.4,2.61-10.93,1.97-5.12,4.66-9.83,8.36-14.17Zm46.98-6.23c0-1.84,0-3.46,0-5.09,0-.51-.34-.78-.77-.93-3.31-1.18-6.67-2.19-10.06-3.08-.49-.13-.84-.08-.96,.5-.19,.94-.41,1.88-.64,2.81-.14,.57,.04,.92,.61,1.1,4.02,1.3,7.96,2.8,11.83,4.69Zm-37.28-8.86s0-.05,0-.07c1.39,.06,2.79,.1,4.18,.19,1.39,.09,2.78,.19,4.17,.36,.96,.12,1.48-.15,1.52-1.17,.02-.48,.12-.95,.19-1.43,.14-1.02-.29-1.5-1.33-1.59-2.68-.24-5.35-.62-8.04-.82-3.74-.28-3.74-.23-4.58,3.43-.01,.05-.02,.09-.04,.14-.23,.7,.04,.98,.76,.96,1.06-.03,2.12,0,3.18,0Zm15.95,.7c-.28,.73,.18,.97,.83,1.1,.56,.11,1.12,.27,1.68,.41,2.94,.72,2.93,.71,3.45-2.25,.13-.73-.06-1.08-.78-1.22-2.08-.38-4.15-.79-6.22-1.17-.36-.07-.84-.18-.97,.33-.11,.41,.31,.54,.61,.69,.86,.42,1.61,.91,1.41,2.12Z"/>
  </g>
</svg>