<?xml version="1.0" encoding="UTF-8"?>
<svg id="_图层_2" data-name="图层 2" xmlns="http://www.w3.org/2000/svg" viewBox="0 0 115.46 133.85">
  <defs>
    <style>
      .cls-1 {
        fill-rule: evenodd;
      }
    </style>
  </defs>
  <g id="_图层_2-2" data-name=" 图层 2">
    <g>
      <path class="cls-1" d="M103.59,28.06c0-2,.53-2.44,1.36-3.22l1.34,11.31c3.19-.07,5.93-1.63,5.93-4.86v-3.24c0-2.52-1.62-3-1.53-7.19l4.77,2.33c-.13-5.71-3.78-6.28-7.55-8.09v-3.78c-1.76-2.63-4.36-5.4-8.63-5.4-5.21,0-9.17,4.56-9.17,9.71v.54c0,4.9,3.78,7.49,3.78,13.49v1.62c0,2.68-1.02,4.84-2.16,6.47,.81,2.01,5.35,.54,8.09,.54v5.93l-4.44-3.08-2.55,.5,.6,9.58h1.54c2.5,0,1.67-2.52,4.32-3.23l1.07,8.02c-1.74-.37-3.8-2.09-4.85-2.09-2.84,0-1.08,4.56-1.08,7.55h1.62c1.53,0,2.36-1.98,2.7-3.24h1.08c.33,4,3.06,5.44-2.13,5.42-3.5-.01-4.88,.52-8.66,.52l1.86-2.46,.5,.28-2.07-19.38-1.84,2.18,2.64-7.06c0-3.6-2.09-7.01-4.86-7.01-1.38,0-5.34,2.72-7.55,3.24,1.93-2.64,5.04-1.49,5.93-4.86-1.88-.44-4.16-2.16-5.4-2.16-.99,0-4.02,4.74-6.47,5.4,.72-1.07,4.86-5.06,4.86-5.93,0-1.96-.64-1.89-1.08-3.78-4.32,.36-4.9,4.16-7.55,5.94,.66-2.48,3.78-5.86,3.78-8.63v-1.62c0-2.06,.17-.2-.54-1.62-4.31,1.15-7.23,11.42-10.79,14.03,1.18-5.06,5.93-9.73,5.93-18.34,0-.74-1.13-1.29-1.74-1.68l-10.81,23.44-.53-.24,10.38-24.22c-.87-1.3-2.81-3.78-4.86-3.78-4.31,0-5.65,22.38-8.09,25.9,0-9.81,4.68-19.83,6.48-27.53L48.75,.64l-.71,.42-.93,31.33-.71-.02c0-7.24,1-28.04-1.08-32.37h-7.01l6.25,33.39L36.28,.51l-2.83,.03c-2.98,0-3.61,1.08-5.93,1.62l-.51,.2,3.74,9.52L25.71,3.34l-3.05-.1c-1.54,0-2.43,1.76-3.24,2.7l6.19,8.99c-2.37-1.23-6.01-7.91-8.35-7.91-1.76,0-2.97,2.58-3.78,3.78l7.26,8.42-8.65-6.55c-1.93,1.18-3.47,2.59-3.47,5.14v.54c0,2.72,17.16,11.18,19.42,14.57L7.19,19.69l-2.87,5.67,.05,1.49,18.3,7.14c-4.67-.39-12.86-5.4-17.8-5.4h-.54c-1.89,0-2.16,2.39-2.16,4.32,0,2.66,11.44,2.33,14.56,4.43l-12.94-1.19H1.57s-1.05,5.53-1.05,5.53l13.06,1.9-.1,.68-11.87-1.1c-3.06-.34-.95,7.08,0,7.13l10.78-.66-.02,.91-12.39,1.25v5.4c0,1.66,.5,3.24,2.16,3.24,3.76,0,7.12-2.16,12.41-2.16l-.11,.12L.54,62.59c.05,2.16,.58,5.93,2.7,5.93l1.07-.07,21.05-3.16v.54c-7.41,0-13.23,3.24-19.96,3.24H3.24v1.62c0,3.23,1.04,3.22,1.68,5.64l20.44-5.1c-2.76,2.4-19.42,4.05-19.42,7.55,0,1.26,1.44,2.7,2.7,2.7h3.78c5.01,0,7.62-1.85,11.33-2.16l.2,.59L0,87.41c.08,3.48,2.44,4.86,5.94,4.86h3.24c4.44,0,9.47-2.97,13.11-3.47l-15.26,7.79c.52,1.95,1.88,3.24,4.32,3.24h1.08c4.62,0,11.74-5.57,15.11-6.47-2.11,3.15-11.39,8.07-12.41,11.87,9.73,0,17.59-10.66,22.14-11.86l-12.24,14.8,.38,.43,3.21-.67c3.32-2.89,6.31-4.98,9.58-8.23,3.07-3.04,5.23-6.67,8.77-9.04-.98,3.67-11.99,13.25-12.41,18.34h1.62c6.81,0,16.02-16.21,19.96-17.27-1.93,2.88-5.4,7.33-5.4,11.87,0,1.22-.21-.25,.54,1.08l.48,.41,6.53-7.43v4.86c2.15,3.2,1.85,6.58,7.08,7l.99,6.61-2.67-.66c.62,2.33,2.7,3.46,2.7,4.86v.54c0,2.46-2.81,2.7-5.51,3.03l7.13,2.37c.31,3.7,3.41,5.41,5.93,7.01l1.05,.59,.55-.39-3.76-5.62,12.41,1.1c-.79-2.96-6.78-3.16-10.25-3.24l.02-.96,4.84-.66c-.51-.73-.19-1.27-1.64-1.22l-5.38,.68c-2.3-1.54-3.24-4.87-3.24-8.63v-3.78c0-1.72,10.25-3.62,10.25-10.25,0-.21-4.32-5.81-4.86-8.09,1.99,1.46,3.13,7.01,6.47,7.01h3.24c1.26,0,2.16-.9,2.16-2.16,0-1.61-3.01-2.9-4.23-5.03l4.77,2.33c7.24-3.47,12.6,1.57,20.03-5.87,4.19-4.19,6.41-11.06,6.41-19.49-.01-12.61,1.4-11.46-2.87-21.95-1.62-3.99-6.31-15.29-6.31-19.59ZM28.6,63.13l-2.27-2.63c-.95,.49-1.48,1.01-3.13,1.01h-2.16c-2.75,0-4.86-6.78-4.86-9.71v-4.32c0-3.6,1.14-10.25,4.32-10.25h3.24c2.22,0,2.7,4.1,2.7,6.47,0,.73-.6,.81-1.08,1.08-.35-1.52-1.5-4.86-3.24-4.86-1.26,0-2.16,.9-2.16,2.16v5.94l.91,10.27c1.38,.26,1.41,.52,2.87,.52,.98,0,1.77-1.96,2.16-2.7l-2.51-1.93c.13-.89-.06-1.3,1.43-1.3h3.24l.66,4.84-.12,5.41Zm12.41,24.82l-1.67-2.67c-1.84,.42-1.77,1.06-3.73,1.06h-.54c-4.59,0-5.94-6.07-5.94-10.79v-5.4c0-4.04,1.4-8.63,5.4-8.63h1.62c1.78,0,3.24,4.37,3.24,5.94s-.42,1.3-1.62,1.62c-.16-1.93-1.29-4.86-3.24-4.86-.66,0-1.62,1.12-1.62,2.16v9.71l.62,5.93c.9,.66,.87,1.09,2.08,1.09h.54c1.26,0,2.16-.9,2.16-2.16,0-1.77-1.09-2.02-2.7-2.16,.62-.85,.1-1.08,1.62-1.08h3.78v10.25Zm1.62-43.16c0,4.79-1.35,12.41-5.93,12.41-6.15,0-7.55-4.71-7.55-10.79v-.54c0-4.86,.69-12.95,5.4-12.95h2.16c4.76,0,5.93,6.49,5.93,11.33v.54Zm31.83,16.19l2.15-1.09,1.08-20.5c.04-.58-.63-.46-1.08-2.16l5.92,.66c-.89,3.29-2.17,4.62-2.15,10.12,.02,3.89-.53,7.27-.53,11.88h3.78l2.28-3.56,.42,4.64c0,1.24-.38,1.62-1.62,1.62h-7.55c-1.46,0-1.49-.26-2.7-.54v-1.08Zm-19.42,15.11c0,3.26-.91,9.17-3.78,9.17h-1.62c-4.64,0-5.4-5.09-5.4-9.71,0-3.22,.8-9.71,3.78-9.71h2.7c4.26,0,4.32,5.54,4.32,9.71v.54Zm-8.09-12.95h-2.7c.66-2.48,1.62-1.36,1.62-3.24v-18.88c0-1.3-.87-1.59-1.63-3.12l9.18-.24c1.67,1.24,3.24,2.12,3.24,4.98v2.16c0,2.11-1.75,3.98-2.7,5.4,2.33,1.23,3.78,2.92,3.78,6.47,0,6.59-5.96,6.47-10.79,6.47Zm16.73,25.9h-6.47c.87-2.41,1.62-.41,1.62-2.7v-17.27c0-1.75-.47-.41-1.07-2.62l5.91-.74c2.16-.15,4.87,2.06,4.87,3.9v2.7c0,2.58-1.58,3.23-2.16,5.4,1.94,.52,3.24,2.49,3.24,4.86,0,3.32-2.56,6.47-5.93,6.47Zm3.78-28.6h-8.09c.7-2.61,2.16-1.8,2.16-3.78v-18.34c0-1.87-.92-1-2.19-2.93l7.56-1.04c2.01-.08,4.88,2.34,4.88,3.97v3.78c0,2.04-1.32,3.6-2.16,4.86,1.28,1.91,3.24,2.52,3.24,5.4v1.08c0,3.4-2.91,7.01-5.4,7.01Zm4.32,25.9c.74-1.11,1.62-1.4,1.62-2.7v-15.11c0-1.49-.42-1.3-1.62-1.62v-1s5.92-.74,5.92-.74c2.47-.18,4.33,2.05,4.33,4.44v.54c0,2.91-1.16,4.06-2.16,5.93,1.94,.52,3.24,2.49,3.24,4.86,0,6.79-5.73,5.4-11.33,5.4Zm23.74-.54v3.78h-3.24c-1.96,0-.53,.12-1.08-.54l-5.83,1.99-.34-.55,1.88-2.5-1.1-17.83-1.27-2.04,5.04-.12c-.28,1.21-.54,1.24-.54,2.7v4.32l.65,12.4h2.05c2.14,0,1.23-1.76,3.24-3.23,.71,1.42,.54-.44,.54,1.62Zm7.55-.54l-5.93,.62,1.64-2.75-1.22-14.58-1.47-.65-.04-.97,9.17-.54-.23,4.84-4.26-3.21-.36,.53v7.55l4.8-2.25,.05,6.02-3.64-2.37c-.85,1.64-.68-.23-.68,1.83v4.32l.34,.48,3.91-2.74,.66,3.87h-2.74Z"/>
      <path class="cls-1" d="M36.15,35.07c-2.01,.97-3.24,.64-3.24,3.78v8.63c0,2.56,.6,3.9,1.08,5.94,1.21,.28,1.24,.54,2.7,.54,1.66,0,2.7-3.38,2.7-4.86v-7.55c0-3.16-1.13-5.36-3.24-6.47Z"/>
      <path class="cls-1" d="M49.64,67.44c-1.26,0-2.16,.9-2.16,2.16l.11,7.01,.11,3.77c-.19,.73,.61,2.16,1.94,2.16h2.16c.07-2.95,1.08-3.8,1.08-7.01,0-2.99-.46-8.09-3.24-8.09Z"/>
      <path class="cls-1" d="M64.74,49.1l-.12,2.71,.74,5.91c2.86-.23,5.32-1.06,5.32-4.31,0-3.48-2.42-4.32-5.93-4.32Z"/>
      <path class="cls-1" d="M52.34,52.34h-2.7v8.09h1.62c2.61,0,4.32-1.71,4.32-4.32,0-1.53-1.71-3.78-3.24-3.78Z"/>
      <path class="cls-1" d="M69.06,41v-1.62c0-2.4-2.18-3.24-4.86-3.24v9.71h1.62c1.84,0,3.24-3,3.24-4.86Z"/>
      <path class="cls-1" d="M53.41,44.78v-2.16c0-2.18-1.17-3.78-3.24-3.78-.76,0-1.08,.74-1.08,1.62v8.63c2.57-.6,4.32-1.13,4.32-4.32Z"/>
      <path class="cls-1" d="M65.82,72.3v-1.62c0-1.46-.26-1.49-.53-2.76l-3.9-.46,.76,8.61c2.4-.2,3.67-1.09,3.67-3.77Z"/>
      <path class="cls-1" d="M64.74,79.31h-2.16v7.01c3.17,0,4.86-.67,4.86-3.78v-.54c0-1.26-1.44-2.7-2.7-2.7Z"/>
      <path class="cls-1" d="M79.85,70.14v-.54c0-1.75-.47-.41-1.08-2.7h-3.24v6.47c0,3.14,4.32,.77,4.32-3.24Z"/>
      <path class="cls-1" d="M76.09,77.6l-.14,1.73,.72,4.83c2.9,0,4.25-.25,4.25-3.23,0-1.46-.26-1.49-.54-2.7l-4.3-.63Z"/>
    </g>
  </g>
</svg>