<?xml version="1.0" encoding="UTF-8"?>
<svg id="_图层_2" data-name="图层 2" xmlns="http://www.w3.org/2000/svg" viewBox="0 0 174.86 139.03">
  <defs>
    <style>
      .cls-1 {
        fill-rule: evenodd;
      }
    </style>
  </defs>
  <g id="_图层_2-2" data-name=" 图层 2">
    <g>
      <path class="cls-1" d="M151.86,92.51h-1.6c-4.42,0-4.94,2.59-8.56,2.67,.08-3.53,3.37-4.76,4.81-7.49-.33-.49-.87-1.6-1.6-1.6-1.22,0-3.48,1.7-5.32,2.16l2.62-4.25-1.04-.58h-1.6c-1.15,1.72-4.23,5.35-6.95,5.35h-1.6c.25-3.04,3.34-5.61,5.35-6.95v-1.6c-1.43-.34-1.01-.53-2.14-.53-.34,0-1.54,1.2-2.14,1.6-.62,.93-1.73,2.67-3.21,2.67h-1.07c-1.23,0-1.6-.37-1.6-1.6,0-2.39,2.92-1.85,3.21-5.35l-2.26-.65-6.39,5.96,2.76-7.98-2.12-.6-2.87,6.95-4.08,.74,4.05-9.06-2.46-.16-1.6,1.6c-1.56,2.95-2.86,6-6.42,6.95l2.67-9.09c-.64-.44-2.28-1.6-3.21-1.6h-1.07c-5.01,0-4.72,5.93-8.97,6.93l-.65-4.79c.62-.93,3.05-3.74,0-3.74-1.36,0-2.47,1.82-3.74,2.67-1.32,2.49-3.84,6.34-7.49,6.42l2.67-5.88v-2.67c-.43-.3-1.32-1.07-1.6-1.07-3.2,0-3.47,3.44-5.35,4.81,.91-3.93,3.74-7.44,3.74-12.83,0-1.64-.5-3.21-2.14-3.21h-1.07c-5.13,0-4.81,13.72-4.65,19.98l-2.84,1.95c-.38-1.63-.64-8.56-2.67-8.56s-2.15,3.69-3.21,5.35c0-1.65-.23-4.28-1.6-4.28-2.67,0-1.6,6.49-1.61,9.08l-2.13,1.08c-2.03-4.24,.05-6.95-3.74-6.95-1.22,0-.62-.18-2.14-.53-1.38,2.06-2.62,2.32-3.12,5.44-.65,4.07,.82,4.82-2.41,6.92l-2.49-8.08h-2.14s-2.14,5.88-2.14,5.88c0-4.4-.46-15.51-3.74-15.51-2.4,0-3.74,2.35-3.74,4.81,0,5.34,5.6,18.85,9.09,19.78,.37-.65,.53-.57,.53-1.6v-8.56h1.07v2.67c0,1.45,1.97,3.74,3.74,3.74,1.89,0,2.8-1.67,3.21-3.21,1.43,.34,1.01,.53,2.14,.53,2.76,0,3.33-1.42,4.34-3.29l1.54,1.15h1.6l1.7-2.06,1.45,1.06c2.18-1.49,2.74-5.21,2.74-8.63h1.07v2.67c0,1.34,1.17,4.28,2.14,4.28,1.65,0,2.55-1.15,3.21-2.14,.97,.65,.94,1.07,2.14,1.07,2.15,0,2.87-8.28,5.88-9.09-.57,2.14-2.14,2.79-2.14,5.35v2.67c1.2,.28,1.23,.53,2.67,.53,1.67,0,3.09-.98,4.28-1.6,.56,.83,.71,1.6,2.14,1.6h1.6c3.06,0,3.82-.85,6.42-1.07,.37,1.4,1.03,2.14,2.67,2.14,1.13,0,.71-.19,2.14-.53l-8.02,6.42c-.36,.68-1.07,1.77-1.07,2.67,0,1.52,1.85,2.67,3.21,2.67,7.51,0,4.73-8.93,12.2-10.66l.64,1.66,5.88-.63c.03,1.18-.16,2.67,1.07,2.67,2.02,0,3.57-1.3,4.81-2.14l-.41,.54,4.26,3.24,.43-.57c-1.19,2.49,.91,4.28,3.74,4.28l1.49,.03,.65,2.11h2.14l5.88-3.21c-1.36,2.03-2.94,2.61-3.21,5.88l3.74,1.6c.27,3.21,1.78,2.91,3.74,4.28-3.94,0-12.83-.13-12.83,3.21v1.07c0,1.73,1.94,2.67,3.74,2.67h2.14c2.67,0,4.05-1.76,5.86-2.69,1.85-.95,5.85-.52,8.59-.51l1.07-2.39-6.03,.09,7.08-6.26c-.98-1.47-1.65-4.28-3.74-4.28Zm-111.76-18.72v-2.14c1.78,.64,1.79,1.68,2.14,3.74l.63,4.26c.15,1.44,.34,2.52,.44,3.76-1.29-1.48-3.21-6.87-3.21-9.63Zm19.25,8.56c0,.88-.32,1.6-1.07,1.6-1.01,0-1.6-1.97-1.6-3.21,0-1.56,.72-2.77,1.07-4.28h1.07c.14,1.67,.53,1.9,.53,3.74v2.14Zm20.85-11.76h-.53v-3.21c0-3.19,.29-7.16,2.67-8.02,0,3.78-1.6,5.28-1.6,7.49,0,2.06-.53,1.2-.53,3.74Zm14.44,5.35v.53c0,1.23-.37,1.6-1.6,1.6-1.13,0-.71-.19-2.47-.91l3.41-2.98c.83,1.56,.66-.29,.66,1.75Zm3.74,13.9c.63-2.36,2.84-3.77,4.81-4.81-.6,2.56-1.85,4.57-4.81,4.81Zm4.28-11.23c.07-3.31,2.04-5.77,4.81-6.42-.25,2.99-1.42,6.34-4.81,6.42Zm34.76,27.81c-.88,0-1.6-.32-1.6-1.07,0-.88,.77-.94,1.61-1.01l4.8-.6c-.71,.97-3.27,2.67-4.81,2.67Zm9.09-6.95c-.48,0-1.07-.59-1.07-1.07,0-2.03,4.08-3.21,6.95-3.21-.49,1.82-3.71,4.28-5.88,4.28Z"/>
      <path class="cls-1" d="M87.16,41.71v-1.6l.53-5.88c-.78-.38-3.13-1.07-4.28-1.07-5.07,0-4.46,10.16-9.62,10.16-2.03,0-2.14-3.25-2.14-5.35,0-3.01,3.35-.64,3.72-4.39l-3.72,.65v-8.02c0-1.23-.37-1.6-1.6-1.6s-1.6,.37-1.6,1.6l-.04,9.52-5.84,2.25v-2.67c0-3.33-1.33-8.02-4.28-8.02s-6.95,2.95-6.95,5.35v.53c0,2.04-.16,.19,.53,1.6,3.06-2.05,1.73-4.17,6.42-4.28,.44,1.87,1.07,1.8,1.07,3.74v3.74c0,1.64-1.57,2.14-3.21,2.14l-2.41,.23,2.43,2.57,2.54-.65,.64,9.09c2.74-.23,3.21-1.95,3.21-4.81l.04-5.79,5.85-2.23v3.21c0,2.7,1.93,5.35,4.81,5.35,2.53,0,3.23-3.18,5.35-3.74,.37,1.4,1.03,2.14,2.67,2.14s2.67-1.42,3.86-2.25l1.52,1.84,2.11-.65c-.55,2.36-2.14,3.62-2.14,5.88v.53c0,1.8,.94,3.74,2.67,3.74,2.99,0,4.81-6.56,4.82-10.22l4.8,.6c-.87,1.65-2.67,3.73-2.67,5.88v1.07c0,1.44,.26,1.47,.53,2.67h2.14c1.48,0,2.58-1.74,3.21-2.67l2.31-6.36,6.16,1.05,1.57,1.15,3.32-.11c-1.22,1.66-6.78,3.6-10.16,7.49v2.14c1.05,.56,1.58,1.07,3.21,1.07h1.07c3.21,0,6.85-4.78,7.62-7.16l6.81-3,.05-2.58-5.4,2.58c.66-1.25,5.72-9.62,3.21-9.62-4.43,0-2.67,6.83-8.48,6.73l3.67-8.34h-1.6c-2.24,0-4.13,5.13-5.35,6.95h-4.28c2.24-1.56,5.35-2.1,5.35-5.88,0-2.5-1.25-3.74-3.74-3.74-6.83,0-1.44,8.02-11.23,8.02,1.56-1.35,3.74-2.5,3.74-5.35v-1.07c0-1.29-1.92-3.21-3.21-3.21h-1.07c-1.29,0-1.57,.87-2.67,1.6-1.75,3.3-1.51,7.39-5.88,7.49Zm-3.22-2.14c-.18,1.21-.39,3.21-1.59,3.21-.75,0-1.07-.73-1.07-1.6v-1.07c0-2.34,1.29-4.3,3.21-4.81l-.55,4.28Zm6.96,10.16c0,1.48-.41,1.29-1.83,1.55l1.35-5.82h.48s0,4.27,0,4.27Zm17.11,6.42c.65-2.43,2.86-3.7,5.35-4.28-1.17,2.2-2.22,4.02-5.35,4.28Zm-.53-19.78c.75,0,1.07,.73,1.07,1.6,0,2.28-2.23,3.48-3.74,4.28,.04-1.99,1.15-5.88,2.67-5.88Zm-8.56,15.51c0-2.88,.82-4.37,2.14-5.88,0,2.75-.09,5.14-2.14,5.88Zm-4.81-12.83c0-2.4,.93-3.55,3.21-3.74,0,3.57-1.03,4.42-3.21,5.88v-2.14Z"/>
      <path class="cls-1" d="M106.5,104.83l-1.69-.03c-3.76,0-1.68,6.76-6.42,8.02-.74-1.32-.53,.14-.53-1.07,0-2.65,2.1-5.32,2.67-7.49-1.41-.7,.44-.53-1.6-.53-2.25,0-3.74,4.33-3.74,6.95l-2.56,1.31,.54-6.11-.12-2.15-3.74-1.07c-6.08,1.42-4.34,7.82-9.09,9.09-.37-.65-.53-.57-.53-1.6v-2.67c0-2.22,2.14-6.35,2.14-10.16v-3.21c0-1.52-1.07-3.74-2.14-3.74-3.02,0-4.81,6.12-4.81,9.62v4.28c-2.92,.68-5.35,3.48-5.35,6.95,0,1.86,.77,4.28,2.67,4.28h1.07c2.43,0,2.79-1.14,4.28-2.14,1.1,.74,1.39,1.6,2.67,1.6,.79,0,2.36-1.15,3.21-1.6,1.05,.56,1.58,1.07,3.21,1.07,1.96,0,2.58-.83,3.74-1.6,.56,.83,.71,1.6,2.14,1.6h.53c1.37,0,1.29-.13,2.2-.61l1.56,1.27,3.19-.65c-1.02,2.82-8.56,5.38-8.56,9.09v.53c0,1.25,.89,2.14,2.14,2.14h1.6c3.58,0,5.3-3.85,6.41-6.42,1.56-3.58,3.7-3.7,6.95-5.88v-3.21l-5.03,4.13,2.98-9.98Zm-31.63,7.99h-2.14v-2.14c0-2.21,1.33-3.91,2.67-4.81,0,4.31,1.53,3.06-.53,6.95Zm3.21-17.65c0-1.48,.41-1.29,1.6-1.6v4.81c0,2.61-.52,4.86-1.6,6.42v-9.62Zm11.76,12.3c0,2.55-1.14,3.78-2.67,4.81-.7-1.41-.53,.44-.53-1.6v-1.6c0-1.53,2.13-3.85,3.74-4.28-.28,1.2-.53,1.23-.53,2.67Zm4.28,16.58c.24-2.84,2.79-4.27,4.81-5.35-.59,2.54-1.89,5.1-4.81,5.35Z"/>
      <path class="cls-1" d="M90.38,83.83l5.87,.66,1.18-.96c-1.16-.66-1.68-1.18-3.32-1.18h-8.56c-7.35,0-14.86,3.81-19.78,6.42-9.85,6.6-20.21,21.39-34.76,21.39h-4.81c-13.29,0-24.6-13.3-24.6-26.74,0-8.99,7.21-19.78,14.97-19.78h3.74c2.84,0,6.95,1.92,6.95,4.28v2.14c0,1.33-1.47,2.14-2.14,2.14-2.01,0-1.01-.35-3.21-.53,.37,1.4,1.03,2.14,2.67,2.14,2.38,0,4.81-2.17,4.81-4.28,0-3.82-3.85-7.49-7.49-7.49h-5.35c-8.45,0-16.58,10.81-16.58,19.78v.53c0,15.85,12.02,29.94,27.27,29.94h.53c27,0,31.32-28.34,59.35-28.34l3.22-.12Z"/>
      <path class="cls-1" d="M29.94,36.36c0,4.97,5.48,12.3,10.16,12.3h3.21c3.83,0,7.49-2.88,7.49-6.42v-1.07c0-2.38-1.93-5.35-4.28-5.35-1.21,0,.25-.21-1.07,.53,1.12,1.53,3.74,2.24,3.74,4.81,0,3.74-3.08,5.88-6.95,5.88h-1.07c-1.84,0-2.77-.76-3.74-1.6-1.97-1.32-5.35-4.88-5.35-8.02v-3.74c0-5.53,5.39-10.62,9.26-12.66,2.76-1.45,14.19-5.61,18.55-2.84l18.72,2.14h1.6c6.73,0,14.97-3.31,14.97-9.62v-2.14c0-3.02-3.94-6.42-6.95-6.42h-2.14c-3,0-5.35,2.34-5.35,5.35v.53c0,2.29,1.65,4.28,3.74,4.28,2.89,0,4.21-1.3,4.28-4.28-3.07,.82-.62,2.14-3.21,2.14-1.44,0-1.47-.26-2.67-.53-.34-1.43-.53-1.01-.53-2.14,0-1.49,2.25-3.74,3.74-3.74h.53c3.41,0,6.95,2.27,6.95,5.35,0,6.34-5.81,9.09-12.3,9.09l-5.87-.12-20.33-2.02h-1.07c-11.85,0-24.06,7.78-24.06,19.25v1.07Z"/>
      <path class="cls-1" d="M78.6,119.78l-2.13,.15-11.78,.39c-1.79-.95-3.21-1.51-3.21-4.28,0-1.25,1.43-2.67,2.67-2.67,1.09,0,.98,1.1,1.07,2.14h-1.07l1.6,1.6c.36-.68,1.07-1.77,1.07-2.67,0-1.25-1.43-2.67-2.67-2.67-2.59,0-4.28,1.69-4.28,4.28v.53c0,3,3.54,5.88,6.42,5.88h2.67c3.42,0,4.07-1.07,7.49-1.07h.53c4.13,0,8.02,3.1,8.02,6.95v2.67c0,3.56-4.26,6.42-8.02,6.42h-2.14c-2.59,0-4.28-1.69-4.28-4.28,0-2.41,2.2-5.35,4.28-5.35h.53c1.64,0,3.21,.5,3.21,2.14l-.02,1.54-2.12,.6c.19,.8,.12,1.6,1.07,1.6,1.25,0,2.67-1.43,2.67-2.67v-1.6c0-1.73-2.32-3.21-4.28-3.21h-1.07c-3,0-5.88,3.54-5.88,6.42v1.6c0,2.88,2.64,4.81,5.35,4.81h4.28c4.4,0,8.56-4.86,8.56-9.62s-4.44-9.62-8.56-9.62Z"/>
      <path class="cls-1" d="M104.81,28.87c10.36,0,29.41-1.49,29.41,9.62v1.07c0,1.95-1.48,4.28-3.21,4.28h-1.6c-1.25,0-2.14-.89-2.14-2.14,0-1.77,1.53-2,3.21-2.14v-1.6h-1.6c-1.51,0-3.21,2.23-3.21,3.74,0,2.59,2.58,4.22,5.35,4.28l3.74-2.14c.43-1.87,1.07-1.8,1.07-3.74v-2.14c0-7.07-11.38-11.54-19.25-11.25l-14.44,.02c-1.94-.45-4.81-1.53-4.81-3.74,0-2.5,1.25-3.74,3.74-3.74,1.12,0,1.5,1.42,1.6,2.67l-1.87,1.34,1.87,.27c.84-.62,1.6-1.24,1.6-2.67,0-2.04-1.58-3.21-3.74-3.21-2.64,0-4.81,2.17-4.81,4.81v1.07c0,3.17,5.54,5.35,9.09,5.35Z"/>
      <path class="cls-1" d="M35.83,101.6c.88,0,1.6-.32,1.6-1.07,0-2.28-7.16-15.55-8.56-18.18,1.41-2.11,7.49-5.19,7.49-6.42,0-5.4-16.58,9-16.58,13.37,0,1.08,1.26,3.21,2.14,3.21,1.03,0,2.14-.95,2.14-1.6,0-1.63-.24-1.96-.7-3.36l3.91-3.6c.26,3.09,6.16,17.65,8.56,17.65Z"/>
      <path class="cls-1" d="M161.49,66.31c-2.29,0-4.28,1.65-4.28,3.74,0,1.51,.23,.99,1.07,1.6,1.72-1.26,.89-3.74,2.67-3.74,2.39,0,4.81,3.37,4.81,5.88,0,2.25-2.37,5.35-4.28,5.35h-1.6c-3.73,0-11.14-7.62-12.83-10.16-3.97-2.66-7.55-8.56-14.97-8.56-2.8,0-5.88,2.39-5.88,5.35v.53c0,2.5,1.25,3.74,3.74,3.74h1.6c1.25,0,2.67-1.43,2.67-2.67,0-1.48-.41-1.29-1.6-1.6-.04,1.71,.17,2.67-1.6,2.67h-1.07c-1.25,0-2.14-.89-2.14-2.14v-.53c0-1.77,2.98-3.74,4.81-3.74,9.94,0,19.64,18.72,26.74,18.72h2.14c3,0,5.88-3.54,5.88-6.42v-.53c0-3.17-1.41-4.53-2.67-6.42-1.47-.34-2.17-1.07-3.21-1.07Z"/>
      <path class="cls-1" d="M110.15,87.16c.92,3.45,13.9,5.35,13.9,14.97v3.21c0,3.54-3.98,6.95-7.49,6.95-2.5,0-3.74-1.25-3.74-3.74v-1.6c0-1.25,.89-2.14,2.14-2.14s1.17,.42,2.15,1.07l-1.08,2.13c1.18-.03,2.67,.16,2.67-1.07,0-1.44-.26-1.47-.53-2.67-1.05-.56-1.58-1.07-3.21-1.07-2.5,0-3.74,1.25-3.74,3.74v2.14c0,1.94,.63,1.88,1.07,3.74,2.27,.61,.94,1.07,2.67,1.07h2.67c4.25,0,8.56-4.87,8.56-9.62v-.53c0-8.08-9.03-15.99-16.04-16.58Z"/>
      <path class="cls-1" d="M56.15,20.85v-1.6c-8.87,.2-21.39,6.27-21.39,14.97v1.6c0,4.11,2.07,6.1,4.28,8.02l4.28-.53c.28-1.2,.53-1.23,.53-2.67v-.53c0-1.51-1.23-2.06-2.14-2.67h-2.14l-.53,2.14c1.67-.14,3.21-1.29,3.21,1.07,0,.88-.32,1.6-1.07,1.6-2.95,0-4.26-2.97-4.81-5.35,0-10.41,10.23-16.04,19.78-16.04Z"/>
      <path class="cls-1" d="M61.49,69.51c3.53,0,9.46-1.66,10.16-4.28-3.72,.31-5.3,2.67-11.23,2.67h-1.07c-4.16,0-6.95-1.5-6.95-5.88,.23-2.78,1.98-4.28,4.81-4.28,1.64,0,3.21,.5,3.21,2.14v2.67l-1.62,.51-1.25-1.46-1.42,.42c.32,1.36,.45,2.67,2.14,2.67h1.07c1.25,0,2.67-1.43,2.67-2.67v-2.67c0-1.51-2.23-3.21-3.74-3.21-3.75,0-7.49,1.61-7.49,5.35v2.14c0,4.53,5.46,5.88,10.16,5.88h.53Z"/>
      <path class="cls-1" d="M102.13,96.25c-3.18,.74-6.77,4.28-11.23,2.14-1.79-.95-3.21-1.51-3.21-4.28,0-.88,.32-1.6,1.07-1.6s.8,.59,1.07,1.07l1.07-.53c-.32-1.21-.51-2.14-2.14-2.14-1.25,0-2.67,1.43-2.67,2.67v1.07c0,3.55,2.91,4.23,4.81,5.88,7.2,0,9.53-2.67,12.3-2.67h.53c3.08,0,3.74,1.68,3.74,4.81h1.6v-1.6c0-3.92-2.86-4.81-6.95-4.81Z"/>
      <path class="cls-1" d="M8.01,60.41c2.47-1.26,5.33-2.13,9.1-2.13h5.35c-.32-1.19-.12-1.6-1.6-1.6h-5.35c-4.46,0-16.4,5.25-14.03,7.61,.79,.79,4.74-2.97,6.53-3.88Z"/>
      <path class="cls-1" d="M90.38,63.22l6.94-.66c6.22-.67,11.87,2.89,15.51,4.81l1.3-.17-1.84-2.5c-6.21-1.45-6.68-3.74-16.58-3.74l-.55-.12-4.79,.65v1.73Z"/>
      <path class="cls-1" d="M132.08,57.75c3.06,0,3.82,.85,6.42,1.07-.25-2.32-2.29-2.67-4.81-2.67h-2.14c-3.56,0-10.01,4.88-8.56,8.02,2.76-1.85,3.81-6.42,9.09-6.42Z"/>
      <path class="cls-1" d="M151.86,80.74c.79,2.95,5.3,4.28,9.09,4.28,2.74,0,5.12-.54,5.35-3.21-2.6,.22-3.33,1.6-5.88,1.6-4.67,0-5.76-2.44-8.56-2.67Z"/>
      <path class="cls-1" d="M54.54,72.72c-.82-3.06-6.27-2.42-6.42-9.09h-1.6c.11,4.92,3.14,8.98,8.02,9.09Z"/>
      <path class="cls-1" d="M112.29,116.57c.32,1.19,.12,1.6,1.6,1.6h5.88c2.34,0,4.3-1.29,4.81-3.21-2.95,.25-2.76,1.6-5.35,1.6h-6.95Z"/>
      <path class="cls-1" d="M126.17,93.58l2.63,10.57,1.13,.12v-3.21c0-2.94-1.38-6.86-3.76-7.48Z"/>
      <path class="cls-1" d="M7.15,108.89c-2.5-1.67-1.86-3.38-4.47-4.08,.27,3.27,5.24,7.49,8.02,7.49,2.04,0,.19,.16,1.6-.53-1.12-1.53-3.43-1.72-5.15-2.87Z"/>
      <path class="cls-1" d="M92.51,19.27l-11.14,3.99c1.99,2.58,10.39-1.21,11.14-3.99Z"/>
      <path class="cls-1" d="M56.68,117.1v-1.6h-1.6v2.14c0,2.18,2.32,5.88,4.28,5.88h1.6c-.75-2.81-4.28-2.34-4.28-6.42Z"/>
      <path class="cls-1" d="M79.52,4.12c1.31-1.48,2.86-2.04,3.9-3.59-3.24-1.5-6.87,3.67-6.95,7.49,2.79-.74,1.16-1.76,3.05-3.9Z"/>
      <path class="cls-1" d="M89.83,130.47c0,3.69-2.98,4.11-3.74,6.95,3.1-.07,2.73-.9,4.28-2.67l1.07-5.88c-1.19,.32-1.6,.12-1.6,1.6Z"/>
      <path class="cls-1" d="M117.64,67.37l-.61,2.2,1.15,1.54h2.14c.65-.97,1.07-.94,1.07-2.14l-.02-1.54-2.16-.7-1.57,.63Z"/>
      <path class="cls-1" d="M140.08,79.13l.55-2.67c-.96-.65-.94-1.07-2.14-1.07h-.53c-1.03,0-2.14,.95-2.14,1.6,0,1.43,.77,1.58,1.6,2.14h2.65Z"/>
      <path class="cls-1" d="M102.13,59.35c-.44-1.64-1.04-2.14-3.21-2.14h-1.07c-1.88,0-2.44,.5-3.21,1.6,.65,.37,.57,.53,1.6,.53h5.88Z"/>
      <path class="cls-1" d="M64.7,20.32h-3.74v1.07l7.49,1.07c-.53-1.48-1.81-2.14-3.74-2.14Z"/>
      <path class="cls-1" d="M66.31,59.35c0-2.19-.54-3.03-2.67-3.21,.24,2.88,1.07,1.57,1.07,2.67,0,2.01-.35,1.01-.53,3.21,1.93-.21,2.14-.62,2.14-2.67Z"/>
      <path class="cls-1" d="M157.74,64.17c0-.72-.58-.3-1.07-2.14-2.51-1.84,.47-1.26-2.67-1.6v1.6l2.14,3.21c.8-.19,1.6-.12,1.6-1.07Z"/>
      <path class="cls-1" d="M18.18,73.79c-.28,0-1.01,.43-1.07,.53,.95,1.8,1.76,4.6,4.28,4.81-.12-1.5-2.42-5.35-3.21-5.35Z"/>
      <path class="cls-1" d="M29.94,24.6c-.26-2.37-3.29-3.26-5.35-3.74,.21,2.58,2.88,3.54,5.35,3.74Z"/>
      <path class="cls-1" d="M108.01,19.78c0-2.53-1.34-4.08-3.76-4.27l2.61,5.11c.36,.04,1.16,.11,1.16-.84Z"/>
      <path class="cls-1" d="M21.39,27.81v1.6l6.95,.53c-1.15-1.57-4.39-2.08-6.95-2.14Z"/>
      <path class="cls-1" d="M15.51,87.16c-2.56,.06-5.14,.7-5.35,3.21,2.01-.47,4.81-1.19,5.35-3.21Z"/>
      <path class="cls-1" d="M71.65,98.92c-.19-2.3-1.19-4.81-3.21-5.35,.22,2.64,.91,4.73,3.21,5.35Z"/>
      <path class="cls-1" d="M28.34,42.24c-2.21,1.17-4.19,.89-4.81,3.21,3.17-.07,2.74-1,5.45-1.64l-.63-1.57Z"/>
      <path class="cls-1" d="M170.58,62.03c-2.02,.47-4.28,1.76-4.81,3.74,2.36-.2,4.61-1.34,4.81-3.74Z"/>
      <path class="cls-1" d="M133.72,99.98l-1.15-4.37-1.58,.61c.29,1.23,.55,1.26,.55,2.7,0,.88,.32,1.6,1.07,1.6,1.21,0-.25,.21,1.11-.54Z"/>
      <path class="cls-1" d="M27.27,35.83h-5.35v1.6h1.6c1.84,0,2.07-.4,3.74-.53v-1.07Z"/>
      <polygon class="cls-1" points="170.06 69.66 170.06 71.26 174.85 70.58 174.86 69 170.06 69.66"/>
      <path class="cls-1" d="M36.36,49.73c-.72,0-2.55,2.83-2.67,4.28,2.48-.21,2.85-2.05,3.74-3.74-.01,0-1-.53-1.07-.53Z"/>
      <path class="cls-1" d="M113.9,95.72s-1-.53-1.07-.53c-2.01,0-1.01,.35-3.21,.53l-.53,1.6h1.6l1.13,.09,2.08-1.69Z"/>
      <path class="cls-1" d="M32.62,20.32c1.21,0-.25,.21,1.07-.53-1.16-1.74-1.27-3.23-3.21-3.74,.03,1.55,.98,4.28,2.14,4.28Z"/>
      <path class="cls-1" d="M11.23,52.94c-2.47,.06-4.03,.4-4.28,2.67,2.17-.18,3.77-.77,4.28-2.67Z"/>
      <path class="cls-1" d="M59.89,108.01l4.28-.53v-1.6c-2.71,0-3.7-.01-4.28,2.14Z"/>
      <path class="cls-1" d="M158.28,89.3h4.28v-1.6h-2.67c-1.26,0-1.57,.37-1.6,1.6Z"/>
      <path class="cls-1" d="M136.89,26.2c-2.47,.21-3,1.27-3.21,3.74,2.05-.55,2.72-1.65,3.21-3.74Z"/>
      <path class="cls-1" d="M137.96,33.7l3.74-2.68s-1-.53-1.07-.53c-1.08,0-3.21,1.26-3.21,2.14,0,1.21-.21-.25,.54,1.08Z"/>
      <path class="cls-1" d="M16.04,95.18c-2.44,.2-2.7,1.04-3.21,3.21,2.23-.19,3.02-.98,3.21-3.21Z"/>
      <path class="cls-1" d="M13.34,79.66l-.61,1.58c1.3,.32,1.33,.57,2.77,.57h1.6c-.64-1.75-1.74-1.67-3.77-2.15Z"/>
      <path class="cls-1" d="M62.56,99.46c.54,2.02,1.38,2.48,3.74,2.67-.23-2.14-1.51-2.49-3.74-2.67Z"/>
      <path class="cls-1" d="M92.51,135.28l.82,.7,1.32-2.83v-1.6c-1.91,.51-1.94,1.38-2.14,3.74Z"/>
      <path class="cls-1" d="M28.34,50.8l4.81-3.21c-1.82-.84-4.61,.72-4.81,3.21Z"/>
      <path class="cls-1" d="M172.71,75.93h-2.14v1.6h3.74c-.32-1.19-.12-1.6-1.6-1.6Z"/>
      <path class="cls-1" d="M162.02,60.42c-2.31,.19-2.09,.3-2.14,2.67v1.07h1.07l1.07-3.74Z"/>
      <path class="cls-1" d="M120.85,59.89l4.28-3.21c-2.03-.94-4.06,.64-4.28,3.21Z"/>
      <path class="cls-1" d="M51.87,119.78c.17,2.03,.64,2.99,2.67,3.21-.17-2.03-.64-2.99-2.67-3.21Z"/>
      <path class="cls-1" d="M152.4,69.51h2.14c-.32-1.19-.13-1.6-1.6-1.6h-2.14c.32,1.19,.12,1.6,1.6,1.6Z"/>
      <path class="cls-1" d="M142.77,36.36h-3.74c.32,1.19,.12,1.6,1.6,1.6h.53c1.48,0,1.29-.41,1.6-1.6Z"/>
      <path class="cls-1" d="M108.55,93.04c1.64-1.2,.86,.34,.84-2.41l-2.45,2.41,.04,1.7,1.57-.63v-1.07Z"/>
      <path class="cls-1" d="M141.17,43.85c-.2-2.45-.65-2.62-3.21-2.67,.45,1.67,1.56,2.23,3.21,2.67Z"/>
      <path class="cls-1" d="M128.34,48.1l-1.47-.44-1.19,2.62s.98,.53,1.05,.53c1.02,0,1.39-1.74,1.62-2.7Z"/>
      <path class="cls-1" d="M40.1,55.08c1.19-.32,1.6-.12,1.6-1.6v-1.6h-1.6v3.21Z"/>
      <path class="cls-1" d="M21.39,99.46v-1.6h-1.6v3.21c1.19-.32,1.6-.12,1.6-1.6Z"/>
      <path class="cls-1" d="M27.27,99.46h1.07c-.06-2.49-.07-2.65-2.14-3.21,.23,2.74,.41,.72,1.07,3.21Z"/>
      <polygon class="cls-1" points="113.39 101.64 114.43 101.06 113.9 99.99 112.83 99.99 111.12 100.03 111.76 101.6 113.39 101.64"/>
      <path class="cls-1" d="M132.08,25.13c-2.26,.19-2.14,.3-2.14,2.67,1.89-.5,1.65-.57,2.14-2.67Z"/>
      <path class="cls-1" d="M49.19,74.33c-.19-2.31-.3-2.09-2.67-2.14,.51,1.89,.57,1.65,2.67,2.14Z"/>
      <path class="cls-1" d="M37.97,16.58v-2.67h-1.6c.06,2.53-.54,2.1,1.6,2.67Z"/>
      <polygon class="cls-1" points="135.22 45.47 135.82 47.59 137.42 47.59 137.4 46.03 136.35 45.45 135.22 45.47"/>
      <path class="cls-1" d="M168.97,81.81c.5,1.86,.49,1.96,2.67,2.14-.5-1.86-.49-1.96-2.67-2.14Z"/>
      <path class="cls-1" d="M46.52,53.47c-.06-2.53,.54-2.1-1.6-2.67,.06,2.53-.54,2.1,1.6,2.67Z"/>
      <path class="cls-1" d="M77.53,0c-1.93,.16-1.93,.23-2.67,1.6,.01,0,1,.53,1.07,.53,.98,0,1.36-1.23,1.6-2.14Z"/>
      <path class="cls-1" d="M43.31,13.37s-1-.53-1.07-.53c-1.01,0-1.07,1.06-1.07,2.14,2.55-.28,.9,.73,2.14-1.6Z"/>
      <path class="cls-1" d="M48.66,49.19c.17,2.09-.32,1.62,1.6,2.14-.17-2.09,.32-1.62-1.6-2.14Z"/>
      <rect x="126.19" y="24.6" width="1.07" height="2.14"/>
      <polygon class="cls-1" points="131.54 47.59 132.18 50.37 133.15 49.19 131.54 47.59"/>
    </g>
  </g>
</svg>