<?xml version="1.0" encoding="UTF-8"?>
<svg id="_图层_2" data-name="图层 2" xmlns="http://www.w3.org/2000/svg" viewBox="0 0 75.07 71.93">
  <g id="_图层_2-2" data-name=" 图层 2">
    <g>
      <path d="M74.21,33.21c-2.05-7.82-7.81-11.52-15.52-12.58-1.46-.2-2.93-.34-4.4-.5-8.15-.89-15.45-3.75-19.26-11.39C29.69-2.04,16.49-2.53,8.66,5.51,1.38,12.97,.86,22.54,.02,32.03c0,1.07-.04,2.15,0,3.22,.81,17.3,10.98,28.7,27.47,30.31,8.79,.85,17.38-.93,25.78-3.42,5.03-1.49,9.93-3.37,14.01-6.85,6.93-5.91,9.2-13.41,6.93-22.09Zm-10.31,17.64c-12.95,8.66-27.51,12.1-42.84,7.63-11.31-3.3-14.64-12.83-15.72-23.44-.09-.93-.01-1.88-.01-2.82,.03-5.82,1.06-11.47,3.13-16.9,1.77-4.65,5.09-7.83,9.79-9.46,4.52-1.57,8.79-.15,11.08,4,5.57,10.11,14.34,14.73,25.52,15.7,4.27,.37,8.56,.95,11.7,4.5,4.93,5.59,4.32,16.12-2.65,20.78Z"/>
      <path d="M36.6,67.22c-4.05,.85-8.5,2.81-12.83-.39-1.57-1.16-3.92,.03-5.34,1.62-.66,.74-1.66,1.79-1.03,2.82,.66,1.07,1.99,.62,2.93,.18,3.61-1.72,7.42-1.89,11.33-1.95,4.64-.07,9.22,1.68,14.28,.46-2.65-3.71-5.48-3.55-9.33-2.74Z"/>
      <path d="M28.63,20.96c-9.44-.06-17.36,7.71-17.31,17,.05,9.38,7.94,17.27,17.21,17.22,9.18-.06,16.94-7.76,17.05-16.91,.11-9.43-7.55-17.25-16.95-17.31Zm11.44,18.5c-1.41,.39-1.58-1.11-1.92-2.06-1.58-4.42-4.49-7.54-8.79-9.43-.75-.33-2.16-.43-1.73-1.74,.37-1.11,1.6-.65,2.41-.75,5.31,.14,10.86,5.81,10.97,11.16,.02,1.05,.32,2.48-.92,2.82Z"/>
      <path d="M59.87,30.48c-1.25,1.23-.5,2.39,.55,3.44,1.36,1.36,2.25,2.97,2.37,5.13-.3,3.24-2.04,5.81-4.69,7.86-1.12,.87-2.19,1.89-1.23,3.33,1.12,1.68,2.58,.85,3.85,.03,2.55-1.64,4.32-3.95,5.44-6.75,1.78-4.49,.74-9.9-2.39-12.55-1.2-1.01-2.53-1.82-3.88-.48Z"/>
    </g>
  </g>
</svg>