<?xml version="1.0" encoding="UTF-8"?>
<svg id="_图层_2" data-name="图层 2" xmlns="http://www.w3.org/2000/svg" viewBox="0 0 70.17 117.22">
  <g id="_图层_2-2" data-name=" 图层 2">
    <path d="M33.11,89.35h.02c7.16,1.12,42.97-6.59,36.18-20.02-6.4-12.66-29.04,9.88-35.58,17.16,2.56-7.62,4.3-15.49,5.45-23.15,9.1-2.3,14.51-10.37,16.73-14.57,1.15,.68,2.42,1.17,3.86,1.17,4.32,0,7.8-3.48,7.8-7.78,0-.66-.09-1.29-.24-1.91-.83-3.37-3.9-5.89-7.56-5.89-.7,0-1.36,.09-2.01,.26-3.31,.9-5.76,3.94-5.76,7.53,0,2.05,.83,3.9,2.14,5.29-1.9,3.62-6.71,11.02-14.59,13.48,.78-5.75,1.25-11.28,1.5-16.45,2.41-3.99,7.64-14.25,7.91-28.72,.36-18.79-16.64-21.83-18.61-3.4-1.63,15.29,5.89,28.46,8.53,32.56-.19,3.69-.52,7.58-.97,11.58-2.76-2.03-10.82-8.98-15.66-24.08-.01-.04-.06-.06-.08-.1,1.45-1.42,2.37-3.38,2.37-5.57,0-3.64-2.52-6.7-5.91-7.53-.61-.15-1.23-.24-1.88-.24-4.01,0-7.32,3.04-7.73,6.97-.02,.26-.04,.53-.04,.81,0,4.29,3.48,7.8,7.78,7.8,1.33,0,2.53-.42,3.62-1.01,5.89,17.9,15.93,24.59,17.26,25.41-.75,5.97-1.83,12.12-3.39,18.25-.38-.25-.88-.59-1.45-1-3.53-5.15-3.78-7.93-13.89-23.94-11.63-18.43-26.13-13.78-12.35,7.34,10.76,16.49,21.74,18.88,26.09,19.14,.47,.31,.77,.51,1,.65-2.1,7.66-4.93,15.17-8.79,22.01-6.98-3.51-11.2-11.75-12.79-14.88-.21-.42-.35-.69-.46-.89,1.35-1.26,2.22-3.01,2.22-4.99,0-3.18-2.12-5.83-5.04-6.64-.59-.18-1.23-.26-1.86-.26-3.81,0-6.9,3.09-6.9,6.9v.15c.09,3.72,3.13,6.72,6.9,6.72,1.03,0,1.99-.26,2.87-.67,.09,.17,.18,.34,.34,.65,1.67,3.29,6.09,11.86,13.61,15.73-2.64,4.39-5.66,8.52-9.25,12.13-.42,.42-.42,1.11,0,1.53,.21,.21,.49,.31,.76,.31s.56-.11,.77-.32c2.67-2.69,4.97-5.69,7.11-8.81,1.23,.29,2.5,.43,3.79,.43,6.26,0,12.95-3.02,16.98-5.42,1.26,1.6,3.13,2.7,5.31,2.7,3.7,0,6.73-2.91,6.88-6.59,.02-.11,.02-.2,.02-.31,0-3.81-3.09-6.9-6.9-6.9s-6.88,3.09-6.88,6.9c0,.83,.2,1.61,.47,2.35-4.19,2.46-11.96,5.93-18.36,4.83,3.37-5.27,6.12-10.97,8.3-16.92,.16,.05,.13,.16,.36,.2Z"/>
  </g>
</svg>