<?xml version="1.0" encoding="UTF-8"?>
<svg id="_图层_2" data-name="图层 2" xmlns="http://www.w3.org/2000/svg" viewBox="0 0 125.47 67.77">
  <defs>
    <style>
    
    </style>
  </defs>
  <g id="_图层_2-2" data-name=" 图层 2">
    <g>
      <path class="cls-1" d="M124.47,62.61c-1.5-1.02-3.04-1.99-4.48-3.1-6.66-5.13-11.72-11.44-14.17-19.61-.31-1.02-.47-2.08-.68-3.01,2.02-.35,3.87-.53,5.64-1.01,3.26-.87,6.06-2.49,7.99-5.4,1.4-2.11,.96-5.59-.05-6.9-.24-.31-.72-.45-1.09-.66-.17,.35-.35,.69-.49,1.05-.27,.69-.35,1.53-.79,2.08-1.2,1.5-2.41,3.05-3.88,4.25-2.04,1.66-4.29,3.07-6.51,4.49-.78,.5-1.73,.78-2.7,.02,1.26-2.01,2.54-3.97,3.74-5.97,2.19-3.66,4.42-7.3,6.48-11.04,1.32-2.39,.71-4.86-1.37-6.48-.52-.4-1.22-.56-1.65-.75-.89,2.17-1.46,4.11-2.43,5.83-3.15,5.56-6.48,11.01-9.67,16.54-2.72,4.72-6.66,8.3-10.83,11.64-1.64,1.31-3.47,.34-3.63-1.79-.2-2.67,.65-5.09,1.99-7.32,.95-1.59,2.1-3.06,3.16-4.58,.66,3.41,2.05,5.24,3.9,4.98,.21-2.02,.34-2.32,1.74-4.04,1.86-2.28,1.8-4.8,.85-7.38-.19-.53-.7-.94-.99-1.33-.87,1.02-1.59,1.86-2.34,2.74-1.14-1.76-2.17-2.06-3.72-.86-1.45,1.12-2.87,2.38-4,3.82-2.17,2.75-3.99,5.8-6.23,8.49-2.19,2.63-4.72,4.99-7.13,7.44-.26,.26-.71,.33-1.07,.49-.08-.1-.17-.19-.25-.29,.51-.99,1.02-1.98,1.53-2.97,.89-1.75,1.9-3.46,1.73-5.54-.14-1.73-1.58-3.06-3.09-2.93-.25,.48-.41,.96-.71,1.32-1.6,1.96-3.17,3.95-4.87,5.83-1.34,1.48-2.85,2.82-4.31,4.2-.18,.17-.52,.18-.79,.26-.08-.3-.3-.64-.22-.91,.16-.61,.41-1.21,.72-1.77,1.89-3.37,4.42-6.23,7.22-8.85,1.99-1.87,4.01-3.7,6.84-4.26,.19-.04,.44-.49,.42-.72-.43-3.38-3.26-4.98-6.26-3.48-4.06,2.01-7.2,5.16-9.87,8.71-2.45,3.26-4.55,6.79-7.74,9.44-.7,.58-1.38,1.19-2.13,1.69-.79,.52-1.32,.25-1.16-.66,.2-1.13,.48-2.32,1.03-3.32,3.42-6.18,6.95-12.3,10.39-18.46,1.6-2.87,3.18-5.75,4.56-8.73,1.17-2.53-.05-5.69-2.37-6.85-1.07-.53-1.46-.34-1.7,.78-.12,.55-.24,1.12-.5,1.61-2.42,4.74-4.78,9.52-7.35,14.17-2.04,3.7-4.3,7.28-6.58,10.84-.72,1.12-1.8,2-2.72,2.99,1.1-6.19-1.19-10.37-6.76-12.89,.51-.43,.91-.76,1.31-1.11,3.19-2.8,6.31-5.67,8.45-9.42,1.1-1.93,1.37-3.98,.96-6.12-.98-5.04-5.68-7.39-9.78-7.61-5.03-.27-9.53,1.33-13.76,3.84C14.74,8.47,8.75,14.56,3.82,21.71c-1.32,1.91-2.34,4.04-3.35,6.14-.62,1.29-.37,2.63,.69,3.65,1.02,.99,2.33,1.25,3.56,.62,1.8-.92,3.5-2.04,5.24-3.08,.22-.13,.44-.28,.66-.42-.14,.52-.39,.89-.62,1.28-2.76,4.55-5.72,9-7.13,14.23-1.31,4.87-1.4,9.65,1.1,14.19,2.46,4.44,6.34,7.13,11.15,8.5,3.72,1.06,7.44,1.23,11.08-.4,.3-.13,.57-.33,1.13-.66-.53-.04-.68-.06-.83-.06-2.63,0-5.29,.24-7.89-.07-5.35-.63-9.18-4.2-10.38-9.13-.92-3.81-.33-7.49,.77-11.15,1.36-4.53,4.12-8.3,6.59-12.23,2.03-3.23,4.09-6.45,5.86-9.83,1.34-2.56-.72-6.13-3.55-6.68-.63-.12-1.09-.03-1.2,.76-.21,1.48-1.03,2.65-2.08,3.68-1.7,1.67-3.31,3.45-5.1,5.02-1.52,1.34-3.22,2.49-4.88,3.66-.28,.2-1.01,.25-1.12,.09-.22-.31-.31-.91-.16-1.24,.5-1.09,1.03-2.2,1.75-3.16,5.57-7.44,12.21-13.74,20.24-18.49,3.82-2.26,7.87-3.83,12.48-3.1,2.39,.38,3.78,1.35,4.1,3.24,.26,1.55-.4,2.88-1.22,4.13-1.99,3.05-4.67,5.46-7.46,7.73-3.46,2.82-6.99,5.55-10.57,8.22-1.58,1.18-2.07,3.22,.08,5.31,.18-.12,.36-.26,.55-.38,2.71-1.72,5.44-3.42,8.61-4.2,3.57-.88,5.93,.9,5.76,4.51-.08,1.63-.61,3.24-1.04,4.84-.68,2.54-2.12,4.32-4.57,5.65-4.41,2.39-8.64,5.13-12.81,7.91-1.44,.96-2.72,2.33-3.69,3.77-1.77,2.6-.19,5.47,2.94,5.67,2.28,.15,4.35-.61,6.25-1.72,6.88-4.03,11.71-9.97,15.18-17.02,.81-1.64,2.24-2.41,3.38-3.61-.19,.71-.46,1.36-.7,2.02-.69,1.95-.59,3.87,.33,5.72,.91,1.82,2.92,2.51,4.72,1.58,.86-.45,1.68-1.03,2.42-1.66,1.28-1.1,2.49-2.28,3.79-3.47,.08,1.96,.83,3.52,2.3,4.69,1.35,1.07,2.38,1.16,3.66,.03,1.62-1.42,3.11-2.99,4.65-4.5,.3-.29,.57-.61,.85-.91,.08,.49-.04,.85-.11,1.21-.34,1.61,.54,3.37,2.2,4.51,1.34,.92,2.59,.46,3.67-.37,1.43-1.11,2.79-2.32,4.08-3.59,1.23-1.21,2.32-2.55,3.49-3.86,.07,.95,.11,1.85,.22,2.74,.59,5.14,5.61,7.19,9.17,4.21,.93-.78,1.9-1.51,2.77-2.34,1.29-1.23,2.51-2.54,3.76-3.81-.04,.77-.3,1.4-.43,2.05-.14,.7-.21,1.42-.2,2.13,.02,1.41,.98,2.8,2.07,3.11,.68,.19,1.24,.16,1.51-.69,.49-1.53,.95-3.09,1.63-4.54,.9-1.92,2-3.75,3.01-5.61,.28,.33,.32,.58,.35,.83,.04,.3,.07,.6,.12,.89,.96,5.66,3.18,10.84,6.08,15.75,2.72,4.59,5.96,8.76,10.08,12.19,2.13,1.78,4.95,1.17,6.2-1.25,.53-1.03,.37-1.69-.55-2.32Zm-101.58-7.73c-1.33,.96-2.83,1.7-4.29,2.46-.32,.16-1.04,.11-1.19-.11-.22-.32-.3-1.05-.08-1.31,.99-1.22,1.95-2.55,3.2-3.45,3.68-2.64,7.49-5.09,11.25-7.61,.09,.09,.17,.18,.26,.28-2.54,3.72-5.46,7.1-9.14,9.75Z"/>
      <path class="cls-1" d="M55.05,59.16c.5-.37,.87-.61,1.21-.9,.88-.75,1.44-1.69,1.24-2.88-.22-1.32-1.07-2.15-2.35-2.49-2.56-.67-5.12-.23-7.72,.13,.32,.1,.64,.2,1.12,.36,0,3.33-.01,6.66,0,9.98,0,.79,.07,1.54-1.01,1.71h4.61c-.33-.36-.9-.69-.93-1.07-.12-1.31-.04-2.64-.04-3.94,1.13-.11,3.48,2.51,4.24,4.55-.33,.12-.66,.25-1.27,.48h4.98c-2.16-1.49-2.41-4.15-4.08-5.94Zm-2.85,.3c-.5,.13-.96,.16-.93-.53,.07-1.95,.17-3.9,.26-5.9,1.46-.15,2.13,.28,2.63,1.57,.77,2-.19,4.39-1.96,4.86Z"/>
      <path class="cls-1" d="M72.31,52.58s-.07-.02-.11-.02c-2.07,.04-4.14,.09-6.21,.13,0,.12,0,.25,0,.37,.34,.07,.68,.14,1.31,.27,0,3.18,0,6.32,0,9.45,0,.94,.41,2.11-1.29,2.26,1.79,.13,3.43,.15,5.08,.12,.52,0,1.06-.09,1.57-.2,3.5-.77,5.48-3.47,5.33-7.22-.12-2.97-1.96-4.66-5.65-5.18Zm1.43,10.44c-.55,1.03-1.48,1.58-2.63,1.76-.73,.11-.93-.11-.87-.98,.06-.9,.03-7.54,.03-9.96,0-.72,.28-1,1.05-.91,1.53,.19,2.51,1.08,2.98,2.44,.9,2.61,.76,5.19-.56,7.65Z"/>
      <path class="cls-1" d="M86.36,53.93c-.25-.87-.53-1.38-1.57-1.32-1,.06-1.86-.07-2.28,1.25-1,3.12-2.15,6.19-3.29,9.26-.27,.71-.74,1.35-1.09,1.95h3.49c0-.05,0-.11,0-.16-.41-.12-.82-.23-1.31-.37,.98-4.14-.09-3.24,4.04-3.47,.19-.01,.4-.05,.56,.01,.25,.1,.59,.23,.67,.44,.41,.96,.75,1.95,1.14,3.01-.53,.16-.92,.28-1.31,.39,0,.05,.02,.11,.03,.16h4.79c-.32-.5-.78-.98-.96-1.54-1.02-3.19-2-6.39-2.93-9.61Zm-5.15,6.5c.59-2.09,1.17-4.11,1.83-6.43,.82,2.4,1.53,4.5,2.3,6.76-1.42-.11-2.69-.21-4.13-.32Z"/>
      <path class="cls-1" d="M101.44,52.73h-3.83c.61,.24,.93,.37,1.42,.56-.84,2.15-1.66,4.23-2.6,6.61-1.02-2.46-1.89-4.53-2.78-6.67,.5-.16,.86-.27,1.22-.39l-.04-.12h-5.39c.33,.41,.72,.79,.97,1.24,.81,1.45,1.48,2.98,2.37,4.38,.94,1.48,1.22,3.04,1.19,4.75-.02,.93,.06,1.78-1.15,2.02h5.09c-.49-.32-1.21-.57-1.21-.84-.03-1.43-.3-3.05,.28-4.25,1.23-2.57,2.67-5.08,4.47-7.29Z"/>
      <path class="cls-1" d="M37.09,52.66c1.17,.23,.96,1.12,.97,1.88,.04,2.84,.06,5.67,.12,8.51,.02,.88,.25,1.82-1.03,2.05h5.38c-.09-.22-.22-.31-.33-.3-1.1,.11-1.26-.45-1.28-1.44-.01-.96-.01-1.91,.04-2.95,.04-.83,.21-1.12,1.08-1.1,1.07,.02,2.14-.15,3.21-.23,0-.13-.01-.25-.02-.38h-4.04v-5.66c2.19-.08,4.11,.01,4.59,2.75,.09-.08,.19-.17,.28-.25-.05-.97-.09-1.95-.14-2.88h-8.84Z"/>
      <path class="cls-1" d="M63.67,54.91c.02-.87-.09-1.8,1-2.21h-4.97c1,.27,1.02,.95,1.02,1.72,0,2.72,.03,5.44,.06,8.16,0,1,.45,2.2-1.1,2.48h4.89c-1.1-.12-1.13-.81-1.1-1.66,.1-2.83,.14-5.66,.2-8.5Z"/>
    </g>
  </g>
</svg>