<?xml version="1.0" encoding="UTF-8"?>
<svg id="_图层_2" data-name="图层 2" xmlns="http://www.w3.org/2000/svg" viewBox="0 0 101.05 122.89">
  <defs>
    <style>
      .cls-1 {
        fill-rule: evenodd;
      }
    </style>
  </defs>
  <g id="_图层_2-2" data-name=" 图层 2">
    <g>
      <path class="cls-1" d="M15.36,69.71h-5.91c-1.6,0-1.63,.28-2.95,.59-5.65,.47-6.5,6.87-6.5,13v11.23c0,12.66,6.26,28.36,18.91,28.36h2.95c8.98,0,16.57-8.6,20.45-14.42,2.87-4.31,11.46-17.53,11.46-23.4v-.59c0-1.32-.47-1.3-1.18-2.36-5.94-6.83-24.2-12.41-37.23-12.41Zm-3.55,27.18l1.65,13.02c-1.08-1.4-3.42-9.88-3.42-12.43v-7.68c0-4.78,1.64-18.91,5.32-18.91,1.36,0,1.77,.41,1.77,1.77,0,4.06-6.47,16.48-5.32,24.23Z"/>
      <path class="cls-1" d="M69.14,70.31c4.62-2.7,14.4-5.32,21.86-5.32h6.5v-2.95c0-6.21-9.8-8.86-16.55-8.86-7.54,0-9.97,2.86-14.77,4.14L46.04,0l-7.52,2.12c.23,3.67,5.8,8.49,5.8,16.77v3.55c0,10.19-9.08,23.91-13,31.32-1.33-.31-1.36-.59-2.95-.59h-.59c-10.53,0-26.59,5.87-26.59,14.77,0,1.25,.21,.78,.59,2.36l4.73-.59,11.78-2.05c12.52-1.26,25.77,7.61,33.13,11.51,0-6.48,1.32-8.21,3.55-12.41-2.4-4.54-11.9-11.68-18.32-11.82l12.87-29.35,13.75,34.06c-4.49,1.2-11.26,11.78-11.26,17.74v1.18c0,1.6,.28,1.63,.59,2.95l1.7,1.27c4.48-3.04,7.41-8.14,14.85-12.49Z"/>
      <path class="cls-1" d="M93.95,66.16h-1.77c-7.1,0-25.82,6.57-28.36,10.05h2.36c2.44,5.09,2.34,11.09,5.78,16.67,3.47,5.63,6.82,8.16,9.58,12.28-7.49-2-16.85-18.36-18.91-27.18l1.18-1.77c-2.96,.79-8.27,5.63-8.27,9.45,0,2.28,8.87,15.1,10.78,16.99,3.63,3.61,10.41,10.78,16.99,10.78h3.55c7.21,0,14.18-11.57,14.18-20.09v-3.55c0-7.08-.54-23.64-7.09-23.64Z"/>
    </g>
  </g>
</svg>