<?xml version="1.0" encoding="UTF-8"?>
<svg id="_图层_2" data-name="图层 2" xmlns="http://www.w3.org/2000/svg" viewBox="0 0 132.03 149.5">
  <defs>
    <style>
      .cls-1 {
        fill-rule: evenodd;
      }
    </style>
  </defs>
  <g id="_图层_2-2" data-name=" 图层 2">
    <g>
      <path class="cls-1" d="M110.21,66.54c-.28-2.79-3.24-14-5.1-15.47l.59,3.97-.1,4.01-.34,2.55-2.71-6.51,.54,4.45,.02,4-.25,2.53-2.25-4.49,.49,3.96v5c0,3.62,.98,5.23,3.94,7.02l2.05-.03c3.51-.07,10.26-4.39,12.95-6.51l-5.93,.91c2.89-2.16,7.54-4.36,9.39-6.04l-7.46,1.43,9.02-5.67c-2.85-.03-12.33,2.97-14.85,4.88Zm-4.97,9.46l-.65-4.89,3.51,1.92,2.48,.2-5.33,2.78Zm2.48-4.99l-.66-4.39,3.06,1.86,1.93,.12-4.33,2.41Z"/>
      <path class="cls-1" d="M113.13,126.06l-1.99-.13-.19-1.89-.97,.31,1.06,2.48-1.42,.33,.44,.79-2.06,.15-1.42-2.06,1.31-2.47,.5,1.37,.87-2.3,.72,1.67,1.42-2.74,.59,1.41c1-2.57,2.73-8.3,2.59-10.86l-4.06,7.51-.47-.17,.44-3.89-3.83,5.9,.28-3.93-4.81,8.98v2.5c-.55-.04-7.8,4.64-9.16,5.34-2.98,1.53-7.14,3.35-10.14,4.35-5.97,1.98-17.61,5.81-23.67,5.81l-.51,.06-1.97-.47c8.05-.62,20.9-3.75,26.59-9.46,3.73-3.74,5.62-6.12,6.69-11.3,.51-2.45,.4-5.88,.86-8.14,.47-2.32,1.26-5.36,1.37-7.62,5.45-.25,4.12-.45,8.31-1.62l.75-1.43c-1.58-1.92-3.21-2.89-5.65-2.81l1.48,.92,.18,1.69-4.07,1.15c.36-9.32,14.56-15.36,15.3-22.46-1.67,1.42-3.6,3.17-5.23,4.65-2.45,2.22-3.52,4.04-4.99,5.39,.23-2.2,2.27-4.78,3.55-6.84,2.14-3.45,1.91-4.84,3.32-7.71l-1.95-.42c-.47,6.58-11.45,18.39-12.1,27.91h-2.06s.62-4.48,.62-4.48v-1s2.98-21.98,2.98-21.98l5.47-5.87c-3.1-.28-2.13,.84-4.42,1.29l-.04-1.42c-.12-3.04,2-9.19,1.88-13.04l.95-2.97,1.16-8.47c.06-.5,3.4-.95,4.62-1.88,.77-.59,2.78-2.69,3.51-3.48,1.48-1.6,4.97-5.76,6.21-7.74l-6.18,3.75-.34-.41,7-8.89-5.91,2.97,7.08-8.67c-3.3,.45-12.3,7.56-14.38,10.34-.6-3.29-7.35-12.89-10.04-14.95l3.7,11.55-4.63-5.58c.36,3.22,3.08,5.82,2.62,10.1l-3.8-4.02,2.09,5.47c-1.17,.9-4.86,3.87-5.03,5.44l.92,.05-1.21,2.66-.9-1.13-1.18,.11-.52,.96-1.76-2.42,1.15-.22c-.82-1.67-6.8-7.59-8.4-7.82l.89,1.29c-.79,1.73-2.75,5.66-4.65,6.26l3.35-12.21-5.28,7.24,3.96-13.12c-3.14,1.94-7.64,13.17-9.53,16.64-3.3-1.52-11.26-8.61-16.17-9.15,.46,.75,8.55,7.35,9.71,9.22-1.56-.17-2.73-.73-3.47-2.2l-1.21,.19-3.13-1.09,3.24,2.62-4.27,12.78-2.52-1.37,1.47-.67c-1.74-1.21-9.45-3.49-11.26-3.55,1.42,1.74,9.72,6.47,12.83,6.42,4.97-3.36,3.22-3.32,4.26-8.57l1.39,1.15-2.84,10.35c-3.89-.88-7.85-4.14-13.65-4.34,1.06,1.25,8.73,6.17,10.8,6.41,7.21,.83,6.94-5.29,7.73-10.45l1.23,1.45c0,1.51-2.61,9.54-3.13,12.88-3.01-1.8-14.26-6.06-17.19-5.74,.44,.42,5.31,2.9,6.98,4.23,2.76,2.2,4.79,3.55,8.37,3.61l2.05,.07c3.09-1.9,4.44-4.35,4.44-8.05v-2.5s.18-2.63,.18-2.63l2.69,1.74c-.13,1.07-2.12,5.39-2.68,7.07-1.04,3.09-1.46,4.78-1.8,8.3-3.25-2.47-13.44-5.92-17.28-5.98l10.35,7.03-7.42-1.43c2.61,1.92,7.53,4.63,10.39,7.02l-7.39-1.52c4.39,3.24,10.79,7.71,16.46,7.81l2.51-.93c.79-2.92,3-3.79,3-8.99v-6c0-1.84,.28-1.82,.64-3.47l.86,.47,4.39,17.48-3.33-2.54-2.04,.14c3.51,2.67,3.7,4.27,6.36,7.02l1.52,9.87c-1.44-2.49-1.25-2.9-3.51-5.87-1.33-1.75-2.68-4.1-3.84-5.59l-.11,2.05,4.06,7.92-2.38-.57-6.13-11.51c-2.15,1.89,1.92,8.02,3.54,9.96-4.83-.49-10.09-2.87-16.01-2.87l-7.03-.22-11.01,1.66c-2.27,1.43-7.73,2.7-11.1,4.39-4.25,2.13-5.57,3.14-9.51,5.98C5.58,103.72-.73,113.87,.07,120.53l.53,5.04c5.06,8.05,3.26,7.63,12.23,13.25,3.62,2.27,16.2,5.68,20.3,5.68l.52-.09,3.98,.59h.5c2.49,0,3.69,1,6.5,1,5.41,1.31,8.94,3.5,15.49,3.5h7.99c5.7,0,9.76-2.73,14.99-4,4.01-.09,15.53-1.71,18.45-3.87-1.8-.05-1.43,.37-3.45,.37l-4.01,.09-3.98-.59h-4.5c-4.49,1.09-7.67,5.5-12.49,5.5l-1.01,.09-6.98-1.09-3.01-.09-6.98,1.09h-4c-1.84,0-2.41-.24-3.5-1h9.49c9.71,0,37.46-9.16,45.51-15.45l-.04-1.04,4.5,2.5h1l5.5,.02,2.01-.33-3.97-1.64,1.96-.06,4,.02,2.02-.33-3.98-1.64,1.96-.06,4,.02,1.99-.27-5.99-2.25-3.61-.59-.84,1.13ZM52.53,44.47l-1.91-.49,.05-2.87,2.6,2.39-.74,.97Zm37.48,63.09l-.55,5.42-1-1.9,.13-1.06v-2.5l1.42,.04Zm.07-23.03c-.68,5.59-2.67,14.11-2.43,19.55l-.9,1.53-2.37-1.45c1.04-1.71,2.72-10.44,2.72-12.63v-.5l-.2-2.62-4.43,13.09-1.26-1.09-.12-2.4,1.07-7.89c2.08-1.95,1.89-1.44,3.49-4.05l-.07-2.05,.05-1.55-.84-1.47-1.75,7.09-.5-.12,1.18-7.43-.13-.52-.5-2.89c7.7-2.7,7-9.03,9.89-11.58,.05,4.23-2.27,13.8-2.9,18.96Zm-8.45-19.47l3.33-.66,1.89-1.49-2.76,4.13,1.79-1.11c.1,1.79-.67,3.22-2.2,3.52l.41-2.41-.68,.31-.9,1.65-3.36-4.85,2.47,.9Zm-2.45-4.42c1.72,.34,2.04,1.12,2.33,2.83-1.64-.32-2.29-1.03-2.33-2.83Zm6.82-.5c-.28,1.72-.7,2.53-2.28,3.37-.06-1.89,.36-2.98,2.28-3.37Zm-4.5,9.32l-2.38-1.54,.03-1.83c1.57,1.08,2.06,1.6,2.36,3.37Zm-2.36,2.63c1.57,1.08,2.06,1.6,2.36,3.37l-2.38-1.54,.03-1.83Zm.06-1.96c1.73,.26,1.47,.92,3.38,.92,2.78,0,2.32-1.49,4.45-1.87l-4.71,5.71-3.12-4.76Zm6.79,2.51c-.29,1.71-.61,2.49-2.33,2.83,.01-1.78,.6-2.48,2.33-2.83Zm7.46-9.21l-4.49,3.45,4.78-8.89-.29,5.43Zm9.61-31.85c-.18,1.99-.89,2.89-2.91,2.91,.37-1.89,1.2-1.94,2.91-2.91Zm-5.13,2.46c-1.45-1.04-1.76-1.58-1.78-3.37,1.86,.38,1.95,1.51,1.78,3.37Zm.51,1.75l1.12-.21h.5c1.63,0,1.68-.22,2.96-.37l-4.61,4.72-2.84-5.74,2.88,1.6Zm3.53,1.88l-.7,2.1-2.13,.72c.26-1.36,1.19-2.5,2.83-2.83Zm-5.04,2.37c-1.45-1.04-1.76-1.58-1.78-3.37,1.86,.38,1.95,1.51,1.78,3.37Zm.56,1.68l1.07-.14h1l2.88-1.06-3.38,3.55,1.88-.53c-.25,1.58-1.32,2.65-2.79,2.94l.91-2.41-1.88,1.95-2.17-5.33,2.48,1.02Zm-24.03-5.29c2.86,2.33,2.93,7.89,8.11,9.14h1c4.06,0,5.02-4.56,7-7.08l1.02,2.11c-2.57,3.39-6.14,4.33-8.14,9.42-1.68-2.28-2.51-3.94-4.98-5.84-.49-.38-5.18-4.72-5.45-5.1l1.45-2.66Zm12.02,11.23c-.26,1.29-.96,2.56-2.33,2.83,.26-1.63,.47-2.45,2.33-2.83Zm-13.77-6.99c3.16,.64,3.4,9.13,9.86,10.9h1c4.62,0,6.23-6.19,8.49-9.08l1.53,2.55c-2.35,3.56-7.89,5.71-10.15,11.49l-.87-.96-.04,1.42c-1.62-.32-2.37-1.75-2.33-3.37l2.37,1.96c-.99-4.08-7.9-7.97-10.54-11.45l.67-3.45Zm-8.04,5.82c-.12-1.98,.04-2.97,1.83-3.33,.11,1.86,0,2.96-1.83,3.33Zm.33-9.32c.11,1.99-.17,2.71-1.78,3.87l-.13-1.96c.76-1.58,.33-1.59,1.91-1.91Zm-4,4.33c-1.67-.28-2.45-.56-2.83-2.33,1.78,.02,2.5,.69,2.83,2.33Zm2.95,.45l1.96-1.87-2.25,6.34-5.06-4.18c3.35,.35,2.15,.17,5.35-.3Zm-.95,5.54c-1.73-.29-2.94-1.01-3.33-2.83,1.76,.29,2.98,1.06,3.33,2.83Zm-2.84,.67l2.42,.42,2.87-.67,1.95-1.86-1.31,4.52,1.76-2.05,.29,2.09c-1.02,1.74-.27,1.53-1.96,1.87l-.09-1.91-.64,1.95-.72-.43-.49,1.08-3.28-2.27,2.57,.13-3.37-2.87Zm-7.53,22.44l2.96-.04c1.93-.47,2.83-1.56,3.87-2.96,.05,1.8-.37,1.43-.37,3.45l.02,1.5-.16,1.97-.86-.47-.2,1.19-3.38-1.69c2.56-1.47,1.34,.22,3.58,.5-1.63-2.49-3.51-1.92-5.46-3.46Zm4.54,7.54c1.9,.02,2.97,.52,3.33,2.33-2.3-.39-2.4-.7-3.33-2.33Zm-1.54-2.04l2.68,.25,3.81-2.74-.68,5.89-5.82-3.41Zm6.54,2.86l-.06-1.9,.47-1.51c.95,.37,1-.79,1,1.5s-.17,1.63-1.41,1.91Zm7.37-16.36l.44-1.38c-2.53-2.76-1.16-6.54-4.3-6.57l1.41,5.41-3.18,9.02-.34-2.03,.02-4.5c0-2.14,.63-2.02,.5-4l-.07-1.46-2.67,5.97-.28-2.01,.02-5.5,.03-1.91c1.99,.02,1.12,.42,2.97,.42,1.21,0,2.01-.43,3.37-.63,3.85-3.8,2.56-4.37,4.63-7.95,4.46,5.63,2.58,8.33,9.95,12.62l2.58-.16c7.16-4.04,5.56-6.51,9.78-12.29l2.67,2.41-.84,1.73c2.13,4.48-3.34,9.21-6.53,11.76l5.45-10.34c-3.18,.57-9.99,9.18-11.98,11.83-1.27-3.68-8.17-10-11.46-11.98l4.91,9.34c-1.77-.21-3.23-2.33-4.91-3.34l4.91,9.34c-1.77-.21-3.23-2.33-4.91-3.34,.18,1.32,3.42,6.94,4.36,8.5,1.63,2.74,3.99,4.54,7.01,5.59l-.62,2.87,.12,1.52-2.19,15-.33-2.51,.02-.5,.48-3.97-2.11,2.37,.13,2.1v.5c-.01,1.14,.25,2,.4,2.91l-1.85-.94c-.72-6.71-4.84-28.71-7.6-33.91Zm-6.45,31.94h3l2.62,.2c-.96,.83-8.36,2.1-11.95,3.96-3.26,1.69-6.03,3.89-8.97,6.02-5.4,3.89-10.97,12.55-11.18,19.3l-.04,1.55,2.94,4.39c-3.87,.25-8.49-2.83-11.28-5.56l-.13-2.38,.02-2.5-.05-2.05c2.05-3.33,1.95-5.74,5.18-9.31,2.29-2.53,4.63-5.09,7.69-6.8,6.25-3.48,15.09-6.82,22.16-6.82ZM9.65,113.02v-.5c0-11.86,23.22-22.49,32.98-22.49h6v.5c-12.25,0-31.52,12.29-34.48,24.48v2.5l1.07,2.35c-3.12-1.45-4.69-2.24-5.57-5.85v-1Zm32.98,25.48h-1l-4.45-1.76c-2.84,2.29-.83,3.36-4.55,4.26h-1.5c-5.43,0-26.42-8.03-27.35-13.95,3.96,2.87,5.94,5.84,11.42,7.89,4.07,1.52,10.72,4.56,14.93,4.56,3.54,0,3.27-3.09,7-4h1l6.98,1.09,.52-.09,3.98,.59,8.01-.09c4.75,0,12.7-2.55,17.17-4.31,4.07-1.61,11.52-7.12,13.31-7.68-5,7.55-19.13,12.99-27.98,12.99h-1.5l-3.98,.59-12.01-.09Zm62.95-9.43l-2.5-.48,.7-2.75,1.03,1.17,.7-.98,2.05,2.92-1.97,.12Z"/>
      <polygon class="cls-1" points="109.97 124.35 109.95 124.31 109.93 124.36 109.97 124.35"/>
      <path class="cls-1" d="M100.59,29.08c3.37,0,6.16-2.37,8.11-4.88,1.84-2.36,4.39-4.98,5.84-6.98-2.23,.33-13.16,7.51-13.45,9.87l2.81-2.04-.58,2.23-2.07,.88-.15-1.07-.87,.46c-.49-3.64-6.82-12.49-9.49-14.41,.05,.46,2.89,8.31,3.3,9.52,.89,2.62,3.52,6.43,6.56,6.43Z"/>
      <path class="cls-1" d="M58.8,34.14l-.87,1.24-2.73-2.85,2.38,.41c-1.62-2.24-11.19-7.42-13.91-7.74,.12,.16,5.48,5.13,6.57,6.25,2.11,2.16,5.02,4.79,8.36,4.63,5.92-.28,8.53-12.93,8.89-16.96-2.65,2.33-7.57,11.59-7.99,15.4l-.69-.39Zm2.32-3.57c2.09,.88,.52,2.74-.5,4.08-1.13-1.96,0-1.97,.5-4.08Z"/>
      <path class="cls-1" d="M56.81,27.65l-.69,1.01c-1.74-1.05-1.57-.3-1.88-2.1l1.84,.39c-1.48-2.07-9.03-5.96-11.41-6.24,1.64,2.28,7.92,8.13,10.95,8.87h1l.5,.02,1.87-.15c2.4-2.37,3.44-3.38,4.11-6.89,.48-2.55,2.24-7.66,2.39-8.93-2.01,1.84-7.33,11.27-7.99,14.41l-.68-.38Z"/>
      <path class="cls-1" d="M101.59,22.58c3.26,0,5.73-1.98,7.5-4.5,1.79-2.55,3.91-4.24,5.45-6.37-1.99,.29-10.07,5.89-11.37,7.87l2.09-.2-2.16,2.32-1.92-.71c-.31-3.06-6.02-11.12-8.45-12.86,.09,.56,2.49,7.22,2.92,8.4,.91,2.5,3.04,6.05,5.94,6.05Z"/>
      <path class="cls-1" d="M120.68,121.6l-1.48-.16-1.31-2.4,1.09-1.67,1.1,.64,1.37-7.45c-1.14,1.54-3.87,6.06-3.87,7.95l-.12,1.05,.95,2.12,2.12,1.28-4.51-.31-2.16-1.23,1.52-1.86,.59,1.41c.94-2.43,2.28-6.86,2-9.41-1.25,1.7-4.37,6.83-4.37,8.95v1c.82,3.4,2.05,2.26,4,4l9.48-.22-5.95-2.22,1.96-.06,4.5,.02,2.01-.32-8-2.2-.9,1.09Z"/>
      <path class="cls-1" d="M112.74,61.51l-.58-4.98-4.11-9.9,.61,3.92-.07,5.51c0,2.92,1.48,6.26,4.5,7h2l1.18,.3,11.27-6.66c-3.32-.3-11.86,2.72-14.79,4.82Z"/>
      <path class="cls-1" d="M115.21,56.52c-.43-3.97-1.76-10.4-4.19-13.38l.62,4.42-.05,4c0,3.08,1.44,5.75,4.5,6.5h1l1.17,.29,10.28-6.15c-2.46-.07-11.04,2.7-13.32,4.33Z"/>
      <path class="cls-1" d="M54.08,24.12c3.68-.2,5.23-1.63,6.49-5.09,.16-.44,2.4-8.75,2.14-9.07l-5.59,9.62,1.09,.9-1.08,2.54-1.5,.09-1.38-.09-1.24-1.73,1.52,.33-.4-1.03-10.95-5.37c1.21,1.53,8.8,7.68,10.91,8.91Z"/>
      <path class="cls-1" d="M103.63,17.13c4.1-2.4,7.71-6.19,10.25-10.16l-9.29,6.12,1.15,1.07-2.11,1.85-2.49-.5-1.18-1.98,1.13-.94-6.37-8.45c.03,.17,2.58,7.36,2.86,7.96,1.7,3.67,2.26,4.01,6.05,5.03Z"/>
      <path class="cls-1" d="M117.08,49.56c-.16-1.83-2.22-9.03-3.37-9.95-.05,1.8,.37,1.43,.37,3.45v3.5c0,3.08,1.32,7,5,7,1.9,0,8.79-4.15,10.4-5.57l-9.4,2.57,.62,1.05-2.12,1.53c-2.04-1.23-2.56-.92-2.42-3.53l.92-.05Z"/>
      <path class="cls-1" d="M44,49.02l-.03-2.09,1.8,2.12-.59,1.38c1.1-.32,.96,.91,.96-1.87v-1c-.36-1.49-5.65-8.8-6.87-10.45-.04,1.87,3.21,10.7,4.74,11.91Z"/>
      <path class="cls-1" d="M122.33,116.08l.87,1.88,1.95,.14,6.88-5.45c-2.47-.07-5.03,2.07-7.38,2.99l.32,1.25-1.22,.55c-1.28-1.72,.77-4.6,.7-7.37-1.19,1.61-3.37,4.87-3.37,6.95,0,1.47,.12,1.12,.58,2.45l.92,.05c-.97-1.91-1.54-1.78-.25-3.44Z"/>
      <path class="cls-1" d="M82.03,39.02l.67,2.68-1.03,.97,1.43-.11c.3-1.23,.5-1.57,.5-3v-2.5c0-2.37-1-3.63-1-6v-2.5c-1.24,.52-1-.73-1,2l-.16,.49-.34,10.5,.5-.46,.42-2.09Z"/>
      <polygon class="cls-1" points="103.68 10.2 103.23 13.56 104.09 13.09 105.09 10.59 105.09 9.59 104.76 0 102.09 10.09 102.22 11.04 103.68 10.2"/>
      <path class="cls-1" d="M54.54,17.62l1.22,1.96-.59,1.38c1.63-.47,.96-1.46,.96-3.87l-4.67-9.36,2.17,11.36,.92-1.47Z"/>
      <path class="cls-1" d="M118.62,50.48l.96,.09c1.8-2.72,4.02-7.94,4.2-11.06l-5.2,8.06,1.19,.15-1.15,2.76Z"/>
      <polygon class="cls-1" points="123.62 119.56 122.58 119.52 124.58 120.52 125.58 120.52 128.58 120.54 130.61 120.13 124.46 118.43 123.62 119.56"/>
    </g>
  </g>
</svg>