<?xml version="1.0" encoding="UTF-8"?>
<svg id="_图层_2" data-name="图层 2" xmlns="http://www.w3.org/2000/svg" viewBox="0 0 41.27 87.14">
  <g id="_图层_2-2" data-name=" 图层 2">
    <g>
      <path d="M18.38,4.06c-1.65,.23-1.87,1.61-1.88,2.92-.05,5.63,.02,11.26-.11,16.89-.04,1.61,.78,3.52-1.02,4.86-1.72-1.21-1.12-2.97-1.18-4.47-.15-4.34,.05-8.7-.31-13.02-.21-2.58,1.11-7.02-2.82-6.94-3.64,.07-2.06,4.34-2.27,6.81-.49,5.78,.62,11.71-2.51,17.35,0-6.65,.04-13.3-.03-19.95-.02-1.83,.39-4.41-2.37-4.44-2.63-.03-2.58,2.52-2.7,4.36C.72,15.8,.41,23.18,.02,30.57c-.22,4.28,1.05,7.86,4.42,10.7,2.34,1.97,3.5,4.56,3.11,7.71-1.32,10.9-.41,21.86-.97,32.78-.16,3.03,1.18,5.18,4.25,5.37,3.24,.2,5.04-1.73,5.21-5,.07-1.28,.06-2.57,.02-3.86-.3-9.48-.53-18.96-.98-28.43-.16-3.47,.72-6.32,3.3-8.64,2.36-2.13,4.04-4.81,4.12-7.95,.23-9-.49-17.98-1.64-26.91-.18-1.44-.85-2.5-2.49-2.27Z"/>
      <path d="M41.25,43.59c0-2.73,0-5.47,0-8.2-.02-9.97,0-19.94-.09-29.91-.02-2.33-.63-4.68-3.26-5.33-2.85-.7-4.5,1.22-5.67,3.46-.66,1.27-1.15,2.67-1.47,4.07-2.23,9.77-3.09,19.68-2.38,29.67,.18,2.53,.46,5.21,1.96,7.39,1.47,2.13,1.72,4.42,1.63,6.88-.3,9.15-.64,18.31-.81,27.47-.07,3.67,.47,7.82,5.06,7.93,4.74,.11,5.06-3.96,5.04-7.72-.03-11.9-.01-23.8-.01-35.7Z"/>
    </g>
  </g>
</svg>