<?xml version="1.0" encoding="UTF-8"?>
<svg id="_图层_2" data-name="图层 2" xmlns="http://www.w3.org/2000/svg" viewBox="0 0 113.98 138.94">
  <defs>
    <style>
      .cls-1 {
        fill-rule: evenodd;
      }
    </style>
  </defs>
  <g id="_图层_2-2" data-name=" 图层 2">
    <g>
      <path class="cls-1" d="M113.98,112.96c0-5.39-4.91-8.67-8.95-11.04l-1.04,.04-1.4-.62c-.46-5.79-1.2-7.82-5.68-11.37l2.26-4.41-.17-1.08v-2c-1.56-6.44-4.61-6.38-8.58-9.49l2.74-3.37-.21-2-5.27-2.4-.23-1.6-1.05-1.01-1.88-.14-.5,.02c-1.61,0-1.64,.16-3.04,.54l-1.42-2.5-2.04-.06c-.88-.01-3.7,.66-4.5,1.11l-1.23-2.92-.77-.66-.96-.6-4.08-.43-1.92,1.66-2.48-.8,2.15-3.19-.2-1.13c0-1.57-.19-1.32-1.04-2.46,.22-1.78,.54-1.62,.54-3.54,0-1.73-.49-2.24-1.63-3.37l-2.06-.34-2.25-6.23-1.56-.08-1.38,.09-2.9,3.18c-2.31,.37-2.19,.02-3.68,1.8l-2.56-.69-1.91,2.24c-2.59,1.07-2.79,1.32-3.2,4.36l-2.51-1.34-2.68-5.15h-2.59c-1.03-2.87-2.58-5.4-2.58-8.46v-6l1.15-1.89-.15-1.11V6.03l-.03-1.91-1.39-.14-.13-2.82-1.07-1.01L26.04,0l-9,.02-2.05-.03-1.87,1.08-.07,2.49-1.1,.82,.11,2.13V23.51s-.03,2.04-.03,2.04l1.12,.82-.11,2.13v4c0,4.35-10.17,23.78-13.04,28.43l.07,2.05v65.96s-.04,2.05-.04,2.05c1.72,2.81,1.78,4.04,5.53,4.94h29.48c3.3,0,6.21-1.74,7-5v-5l.03-1.91,3.35,1.75,2.51-2.44,.13-1.39c.11-2.17-1.62-3.08-1.9-4.96l2.3,1.1,1.59-.66,4.55,5.02c-.83,1.49-.58,.54-.58,2.5v4c1.12,4.62,4.85,8.87,9.49,9.99h4c3.87-1.06,5.78-4.52,6.08-8.41l5.46-.54c3.36,2.45,4.73,6.95,10.94,6.95h3.5l5.57-2.97,2.36,1.12,1.07-.15h2c4.79,0,7.5-4.51,7.5-8.99,0-2.59-.93-3.8-1.54-6.04,1.97-2.6,3.54-3.12,3.54-6.95Zm-15.49-15.99v1c-.74,3.06-1.94,4.26-5,5h-2l-1.07,.16-4.1-1.98-1.24-2.5c1.59-1.72,2.41-4.36,2.41-6.67,0-1.95-.44-1.78-.41-3.41l1.91-.09h.5c4.6,0,8.99,3.84,8.99,8.49Zm-25.07,5.5c.63-1.09,.68-.51,.61-2l-.2-1.33-1.83-2.16c1.1-.98,2.47-3,4-3h1c6.55,1.59,7.5,5.91,7.5,11.99-1.1,2.2-2.07,3.41-4.5,4h-1.5l-1.2,.31-4.21-3.13,1.65-1.71-1.32-2.96Zm7.34-14.67l-1.38-2.21-3.86-.64-4.42-1.05c.38-1.79,2.64-1.91,4.41-1.91h2c1.61,0,1.64-.16,3.04-.54,2.51,1.9,4.45,4.73,4.45,8.04,0,1.21-.43,2.01-.55,3.45l-2.71,2.35-2.69-1.68c2.36-.32,3.78-.77,4.6-3.29l-2.89-2.52Zm11.24-12.4c1.69,1.4,3.5,4.34,3.5,6.58,0,3.1-2.25,4.83-5,5.5h-2l-1.91-.03-4-6.38c4.77-.49,7.17-1.87,9.41-5.67ZM26.04,92.47H10.05s-1.97,.08-1.97,.08l-.03,1.91v6.5s.08,1.97,.08,1.97l1.91,.03,11.99-.02,2.12,.07,1.37,5.44H3.55v-34.48H25.04c3.98,1.09,4.56,4.01,11.05,3.87l1.86,.96c-3.52,2.61-9.8-3.33-12.41-3.33-1.87,0-.67-.03-1.63,.5l-.37,2-.02,2.5,.13,1.89,7.96,7.09-3.7,2.96-1.87,.05Zm25.49,18.53l-1.61-1.13-1.76,.68,.18,4.84-2.69-.99-2.16-2.08-1.43,1.56c-2.62-3.05,.81-7.14-2.54-9.4-2.61,.53-3.42,2.17-5.2,3.94l-1.33-1.46-3.95-.26,.62-3.28-1.37-1.28,1.77-3.33-1.54-1.41c1.41-5.25,5.16-5.26,6.84-7.74l-9.78-8.35,.09-3.59c3.08,1.03,13.65,8.14,15.36,.28-2.14-3.13-12.37-1.43-15.65-7.58l.98-1.37c-2.14-1.62-5.13-3-5.7-5.89l2.44-.5-1.41-2.44c5.1-1.29,8.61,5.96,13.06,4.42,.7-2.79-2.83-4.91-4.41-6.82l-1.97-7.52,.47-.22,2.36,2.26,1.99-8.14c2.34,1.25,1.91,5.29,3.37,7.31l1.28-1.33c2.23,3.67-1.59,7.43,3.29,10.47l2.39-.74c1.89-3.94-2.44-8.63-1.14-12.66l1.46,.05,1.56-2.1c.32,2.25-.43,4.02,2.05,4.8,2.52-2.22-.35-3.4,2.32-6.39l.63,1.8,5.31-5.87,2.8,8.84,1.83-2.19c.86,4.25-.77,5.3-.67,7.67l1.7-.19c-.95,6.12-15.04,13.05-13.6,19.07l2.26,.75c5.73-1.39,8.28-9.04,12.2-12.95l1.25,.98,1.21,.12,1.94-2.46,2.85,.4,.13,1.87,.92,.05-5.48,4.49v2.38s1.38,1.2,1.38,1.2c2.54-.77,5.83-4.53,7.71-6.46l3.87-.52-3.12,2.29-.9,3.19c2.65,.9,5.92-1.87,7.96-3.13l3.04,.1-2.18,2.68,3.67-.33,1.57,.08,2.54,1.37c-.94,3.2-5.28,3.74-6.01,6.11l3.48,.04,1.41,.77-5.39,3.34c-3.04-.17-4.04,.9-7.07,.9h-1l-6.03,.62-3.11,1.63c1.02,3.3,6.26,4.81,9.2,4.69l1.41,.73-.33,.91,3.85,1.95c-1.54,.9-1.91,.96-3.99,.96h-1.5l-2.67,.17-.42,2.26c-3.79-.12-11.23-10.65-15.91-11.3l14.49,16.36,.82,1.17-1.45,.93,1.52,3.73-2.42,.47,1.07,1.75-.2,4.23c-1.99-.77-1.16-3.16-4.33-3.02l.4,2.46c-3.09-.4-3.87-7.97-8.89-6.36l.27,4.48c-2.99-.47-2.36-11.16-8.71-11.9l-1.29,.94c.02,1.93,5.79,9.52,3.72,13.16Zm4.86-46.97c-.27,2.03-3.96,6.48-6.28,6.87,.37-1.86,4.55-5.62,6.28-6.87Zm-3.74,49.67l1.94-1.4-.41-3.82,1.96,2.91,1.38,.09,1.39-.13,1.65-1.85-.6-2.45c2.17,1.53,2.45,3.56,6.07,6.37l.02,1.58c-1.26,2.17-2.03,3.35-4.54,3.95h-1.5c-3.71,0-5.82-2.28-7.37-5.25Zm13.86,20.24h-3c-4.61-1.12-7.28-5.8-6.91-10.41,.92,.15,1.78,.41,2.91,.41h1.5c1.92,0,1.76-.33,3.54-.54,2.72,3.49,2.32,2.92,5.82,5.67,.27,2.75-1.33,4.25-3.87,4.87Zm14.36-11.12c-1.65,1.67-3.33,3.13-5.87,3.13-3.31,0-6.13-1.95-8.16-4.51l1.66-3.98v-2.5s.22-2.12,.22-2.12l1.74,1.15,1.11,.04,1.4-1.09,4.53,2,1.87,.15c1.16,1.15,2.13,2.65,2.13,4.37,0,.96-.42,2.32-.63,3.37Zm15.62,3.63v1c-.74,3.06-1.94,4.26-5,5h-3.5c-2.14-.52-4.9-1.9-5.54-4.04,1.63-2.15,2.32-2.4,2.63-5.37,2.06,.02,3.64,1.41,6.41,1.41,1.62,0,2.64-.32,4.16-1.16l.84,2.16v1Zm0-13.49v2.5c-.66,2.72-2.32,3.85-5,4.5h-2.5c-2.96-.78-5.2-2.32-6.91-5.17,3.49-2.55,2.67-1.89,4.95-5.78l-.04-1.04,.51-.46,.07-2,1.42-.04c2.5-.1,3.8,1.87,5.5,3l2,3.5v1Zm7,17.49c-1.28,0-2.4-.42-3.45-1.13l.12-2.45-2.15-4.42,1.95-2.61,.62-5.29c4.93-.38,8.91,4.37,8.91,8.91,0,3.46-2.22,7-6,7Zm6.5-18.49c-.48,1.96-1.46,2.86-2.92,3.94l-5.07-2.43-1.91-.1c-.68-1.87-2.21-4.78-4.03-5.49l-.05-.92c2.69-.23,4.6-1.98,5.58-4.45l.92-.05c4.13,1,7.5,4.06,7.5,8.49v1Z"/>
      <path class="cls-1" d="M49.51,85.48l.05-1.55-1.06-1.29c6.85,.73,8.28,8.65,11.39,11.34-.24-2.23-2-5.77-3.73-7.63-2.14-2.29-5.93-3.93-6.62-4.74,3.67-.44,10.87-3.58,14.48-5.12,2.04-.87,4.77-1.87,6.93-2.57,2.13-.68,6.26-1.17,7.54-1.82-5.03-.45-15.27,3.29-19.78,5.07-3.32,1.31-6.25,1.96-9.35,3.14-2.89,1.1-8.5,1.4-9.8,2.06l2.48,.12,3-.02,2.38,.04,1.71,2.38-.07,1.64c-1.99,3.27-7.93,8.42-7.91,10.92,2.54-3.4,6.46-6.7,8.44-9.92l-.07-2.05Z"/>
      <path class="cls-1" d="M30.36,82.66l6.78,6.29c2.06-1.06,4.29-2.36,4.93-4.53-1.45-.88-9.35-1.91-11.71-1.77Z"/>
    </g>
  </g>
</svg>