<?xml version="1.0" encoding="UTF-8"?>
<svg id="_图层_2" data-name="图层 2" xmlns="http://www.w3.org/2000/svg" viewBox="0 0 88.33 78.11">
  <g id="_图层_2-2" data-name=" 图层 2">
    <g>
      <path d="M88.18,48.2c-.43-5.11-2.4-9.53-6.25-12.89-2.65-2.31-5.64-4.23-8.5-6.29-4.34-3.13-9.41-4.6-14.43-6.04-7.15-2.05-14.41-3.41-21.84-1.44-1.37,.36-2.35-.25-3.32-1.07-2.14-1.8-4.18-3.74-6.47-5.32-2.18-1.51-2.89-3.14-2.37-5.83C25.89,4.72,21.56,0,16.86,0c-3.82,0-6.96,2.83-7.58,6.87-.12,.82-.23,1.54-1.28,1.67-3.25,.39-5.27,2.33-6.57,5.21-1.41,3.1-2.26,6.21-.21,9.38,1.64,2.54,3.94,4.17,6.86,4.97,1.42,.39,2.62,.06,3.66-.91,.5-.46,.97-.98,1.38-1.53,1.36-1.82,3.08-2.26,5.2-1.54,2.78,.94,5.3,2.38,7.42,4.37,1.68,1.58,3.16,3.28,3.45,5.9,.32,2.9,1.1,5.78,2.22,8.5,1.73,4.21,3.55,8.38,5.44,12.52,3.58,7.83,8.74,14.35,16.03,19.09,4.45,2.9,9.29,4.07,14.53,3.47,1.64-.19,3.23-.78,4.86-1.11,5.24-1.05,9.14-4.08,11.77-8.55,3.63-6.17,4.73-12.98,4.14-20.09ZM31.27,27.26c-.51,.78-1.07,.16-1.51-.09-.51-.29-1.24-.57-.92-1.42,.1-.27,.34-.49,.44-.76,.22-.58,.3-1.2-.35-1.55-.65-.35-1.23-.17-1.63,.48-.24,.39-.32,1.03-1.03,.71-.85-.38-.25-.82-.05-1.28,.22-.51,.05-.97-.41-1.28-.46-.32-.94-.26-1.36,.07-.34,.27-.62,.65-.99,.85-.44,.23-.89,0-1.15-.38-.26-.39,.02-.63,.37-.78,.38-.17,1.01-.17,.9-.76-.13-.66-.7-1.05-1.31-1.29-.53-.21-1.23-.26-1.45,.3-.82,2.09-2.33,1.64-3.89,1.21-1.59-.44-2.85,.21-3.99,1.28-1.12,1.05-2.31,1.96-4.01,1.83-3.1-.24-4.9-2.43-4.87-6,.07-3.09,1.41-5.55,4.7-5.87,1.33-.13,2.6-.81,3.9-1.24,.76-.26,.7-.79,.52-1.43-.48-1.66-.34-3.29,.3-4.88,.24-.61,.62-1.12,1.15-1.49,.42-.29,.9-.47,1.37-.13,.46,.33,.24,.79,.12,1.21-.08,.28-.18,.56-.22,.85-.05,.36,.02,.7,.39,.86,.37,.15,.71-.01,.9-.31,.31-.49,.53-1.04,.82-1.55,.27-.49,.61-.93,1.28-.67,.74,.3,.48,.81,.28,1.34-.21,.54-.41,1.1-.52,1.67-.08,.39,.01,.82,.45,.99,.46,.18,.69-.18,.95-.49,.43-.51,.49-1.91,1.26-1.41,.88,.56-.71,.92-.74,1.63-.01,.32-.21,.64-.34,.95-.14,.32-.3,.67,.09,.91,.34,.21,.67,0,.95-.2,.19-.14,.34-.35,.52-.51,.24-.22,.44-.63,.84-.35,.33,.23,.24,.61,.17,.95-.22,1.13-.81,2.1-1.44,3.03-.78,1.13-.51,1.8,.57,2.63,3.53,2.7,6.96,5.54,10.42,8.32,.3,.24,.71,.5,.45,.95-.6,1.06-1.24,2.11-1.9,3.13Zm51.79,35.25c-.53,.98-1.07,1.82-2.38,1.04-.39-.23-.86-.24-1.2,.17-.24,.29-.25,.64-.09,.97,.26,.55,.73,.58,1.25,.47,.27-.06,.59-.32,.81-.01,.24,.34-.04,.65-.23,.93-.85,1.22-1.96,2.19-3.13,3.07-3.15,2.37-6.52,4.34-10.27,5.6-2.7,.9-5.42,.43-8.39-.11,.77-.18,1.29-.32,1.21-1.03-.05-.46-.32-.72-.74-.8-.64-.12-.95,.23-1.22,.79-.44,.94-.8,.9-2.24-.15,.35-.42,.84,.06,1.22-.19,.31-.2,.53-.45,.48-.83-.04-.41-.39-.72-.7-.58-1.03,.48-2.3-.49-3.17,.71-.26-.71-.13-1.17,.4-1.51,.4-.26,.69-.59,.47-1.09-.21-.46-.62-.6-1.1-.54-.54,.08-.78,.44-.7,.94,.17,1.13-.68,.91-1.22,.84-.35-.04-1.13-.34-.21-.9,.5-.3,.66-.84,.74-1.38,.08-.55,.09-1.12-.56-1.35-.6-.21-1.03,.05-1.32,.6-.36,.7-.82,1.14-1.61,.5-.57-.46-.9-.89-.1-1.49,.39-.29,.44-.78,.07-1.17-.43-.45-1.1-.55-1.46-.14-.78,.9-1.12,.17-1.59-.28-.04-.03-.06-.08-.1-.1-3.15-2.33-2.29-5.47-1.69-8.54,.3-1.54,.7-3.05,1.03-4.58,.19-.91,.04-1.76-1.04-1.9-1.08-.13-1.04,.81-1.14,1.52-.35,2.41-1.12,4.73-1.27,7.47-.8-1.1-1.21-1.88-1.01-3.05,.28-1.64,.48-3.28,1.07-4.86,.28-.75,.27-1.53-.65-1.82-.98-.31-1.26,.38-1.45,1.18-.22,.93-.51,1.85-.82,2.97-.74-1.07-1.11-1.87-.59-3,.53-1.14,.51-2.48,1.01-3.67,.36-.83-.25-1.34-.93-1.55-.82-.25-1.12,.36-1.23,1.06-.08,.52-.11,1.06-.65,1.52-.62-.81-.59-1.56-.1-2.32,.45-.71,.81-1.46,1.02-2.27,.4-1.54-.24-2.19-1.91-1.82,.28-.87,.54-1.7,.8-2.53,.24-.76,.33-1.56-.57-1.86-.98-.33-1.37,.45-1.67,1.22-.12,.3-.05,.69-.45,.94-1.07-3.05-1.83-6.08-1.12-9.31,.81-3.65,3.2-5.74,6.66-6.71,4.19-1.17,8.37-.47,12.51,.32,10.1,1.95,18.84,6.83,26.7,13.22,4.53,3.68,6.22,9.03,6.7,14.72,.31,3.73-.29,7.33-2.09,10.67Z"/>
      <path d="M66.72,37.02c-.58,.1-1.57,.02-1.52,.79,.05,.86,1.02,.46,1.59,.52,3.24,.33,6.58,.09,9.6,1.68,.73,.38,1.57,.72,1.98-.31,.39-.96-.5-1.26-1.16-1.55-2.41-1.07-5-1.27-7.59-1.46-1-.13-1.95,.16-2.91,.33Z"/>
      <path d="M69.56,35.75c.69,.08,1.34-.04,1.49-.82,.15-.82-.59-.9-1.14-1.05-.32-.09-.68-.1-1.02-.11-3-.13-5.97,.14-8.92,.59-.64,.1-1.26,.36-1.18,1.04,.07,.62,.78,.47,1.23,.45,3.18-.1,6.35-.43,9.54-.09Z"/>
      <path d="M61.74,32.67c.79,.05,1.76-.12,1.71-1.12-.05-.91-1.04-.83-1.7-.95-2.23,.19-4.39,.59-6.51,1.13-.65,.16-1.76,.11-1.56,1.11,.2,.95,1.24,.68,2,.65,.24,0,.48-.1,.72-.14,1.77-.29,3.51-.8,5.35-.68Z"/>
      <path d="M74.64,68.23s0,0,0,0h-.01s0,0,0,0Z"/>
      <path d="M72.54,68.83c-.54,1.8-1.35,1.51-2.5,.67-.59-.43-1.13-.35-1.28,.5-.14,.85,.86,2.13,1.62,1.86,1.1-.4,3.23,1.08,3.21-1.59,0-.05,.25-.11,.39-.15,1.17-.3,1.16-1.01,.67-1.88-.79-.06-1.84-.23-2.1,.6Z"/>
      <path d="M65.4,68.55c-.08-.04-.19-.04-.29-.06-.41-.03-1.05,.12-.97,.4,.31,1.07,.09,2.2,.44,3.24,.14,.4,.62,.45,1.02,.29,.22-.09,.49-.18,.62-.36,.61-.83,1.68-1.71,1.63-2.52-.07-1.23-1.64-.54-2.45-.99Z"/>
      <path d="M53.54,63.69c-.97,0-1.94,.12-2.87,.45-.59,.21-.89,.62-.77,1.23,.12,.64,.64,.79,1.21,.82,.89,.03,1.62-.62,2.54-.56,.55,.04,1.13-.24,1.09-.91-.04-.67-.58-1.04-1.21-1.03Z"/>
      <path d="M50.75,30.99c.65,.54,3.66,.69,4.4,.21,.39-.26,.67-.59,.55-1.09-.11-.46-.51-.54-.92-.54-.58,0-1.17,0-1.75,0v.02c-.63,0-1.26,0-1.89,0-.31,0-.57,.13-.65,.47-.08,.35-.05,.67,.26,.92Z"/>
      <path d="M61.23,70.99c-.56-.04-1.18,0-1.23,.7-.04,.64,.44,.99,1.06,.92,.56-.06,.86,.04,.81,.66-.06,.7,.19,1.2,.95,1.15,.83-.05,1.01-.64,.87-1.37,.02-1.5-.48-1.93-2.46-2.06Z"/>
      <path d="M74.64,68.23s0,0,0-.01c0,0,0,0-.01,0,0,0,.01,.01,.01,.01Z"/>
      <path d="M79,66.54c-.6-.48-1.2-.24-1.76,.12-.28,.18-.48,.34-.91,.2-1.46-.49-1.72-.24-1.69,1.36,.83,.2,1.68-.05,2.55,.34,.71,.31,1.47-.34,1.98-.97,.29-.37,.16-.78-.17-1.05Z"/>
      <path d="M10.6,21.31c-2.16-.63-2.89-1.74-2.59-4.04,.07-.56-.07-.98-.62-1.17-.62-.21-1.17-.04-1.53,.52-.3,.46-.36,1-.39,1.55-.02,2.5,2.27,4.81,4.79,4.82,.66,0,1.37-.05,1.47-.86,.1-.82-.66-.67-1.13-.81Z"/>
    </g>
  </g>
</svg>