<?xml version="1.0" encoding="UTF-8"?>
<svg id="_图层_2" data-name="图层 2" xmlns="http://www.w3.org/2000/svg" viewBox="0 0 169.52 86.46">
  <g id="_图层_2-2" data-name=" 图层 2">
    <g>
      <path d="M118.47,16.39c.28,.19,.56,.25,.83,.15,.27-.09,.56-.35,.85-.74l1.68-2.37,3.42-1.21,.07-.02c.46-.16,.77-.35,.91-.55,.13-.18,.18-.4,.13-.66-.04-.26-.16-.45-.34-.58-.15-.11-.34-.16-.57-.16-.23,0-.49,.05-.77,.15l-2.56,.91,.02-2.68c0-.33-.04-.6-.1-.8-.07-.2-.16-.35-.3-.45-.23-.16-.48-.23-.73-.19-.26,.04-.46,.15-.6,.35-.16,.22-.23,.58-.23,1.1v3.62s-1.69,2.37-1.69,2.37c-.29,.4-.43,.74-.43,1.04s.14,.54,.43,.75Z"/>
      <path d="M94.95,9.12c.35,0,.61-.11,.78-.34,.17-.23,.27-.6,.28-1.09l.04-1.55,1.38,.03c.98,.03,1.76-.22,2.32-.75,.57-.53,.86-1.27,.88-2.23,.02-.94-.25-1.7-.83-2.26-.57-.57-1.37-.86-2.39-.89l-1.85-.04c-.52-.01-.89,.08-1.11,.28-.22,.2-.33,.57-.34,1.12l-.16,6.23c-.01,.49,.06,.86,.23,1.11,.16,.24,.41,.37,.76,.38Zm1.21-7.21l.89,.02c.48,.01,.83,.12,1.05,.31,.22,.2,.33,.5,.32,.9,0,.4-.13,.69-.37,.89-.24,.19-.6,.29-1.06,.27l-.89-.02,.06-2.37Z"/>
      <path d="M106.57,10.66c.33,.11,.61,.08,.85-.09,.24-.17,.44-.49,.59-.96l.5-1.47,1.31,.44c.93,.31,1.74,.3,2.44-.03,.7-.34,1.2-.95,1.5-1.86,.31-.89,.26-1.69-.12-2.4-.38-.71-1.06-1.23-2.02-1.56l-1.76-.6c-.49-.17-.87-.18-1.14-.06-.26,.13-.48,.45-.66,.98l-2,5.9c-.16,.46-.19,.84-.11,1.12,.08,.28,.29,.48,.62,.59Zm3.29-6.53l.84,.29c.46,.15,.76,.35,.91,.61,.16,.25,.17,.57,.05,.95-.13,.38-.34,.62-.62,.74-.29,.11-.65,.09-1.09-.05l-.84-.29,.75-2.25Z"/>
      <path d="M69.43,16.45c.26,.41,.53,.68,.81,.78,.27,.11,.55,.07,.84-.12,.29-.19,.44-.43,.46-.72,.01-.29-.11-.65-.38-1.06l-1.24-1.94,3.18-2.04,1.24,1.93c.26,.42,.53,.68,.8,.79,.27,.11,.56,.07,.85-.12,.29-.18,.44-.43,.46-.72,.01-.3-.11-.65-.38-1.06l-3.42-5.32c-.27-.42-.53-.68-.8-.79-.28-.12-.56-.08-.85,.11-.29,.19-.44,.43-.45,.73-.01,.3,.11,.65,.38,1.06l1.15,1.79-3.18,2.04-1.15-1.79c-.26-.41-.53-.67-.81-.79-.27-.11-.56-.07-.84,.12-.3,.18-.45,.43-.46,.72-.01,.3,.11,.65,.38,1.06l3.42,5.33Z"/>
      <path d="M81.57,11.19c.23,.13,.48,.15,.76,.08,.21-.06,.38-.19,.49-.39,.12-.2,.18-.46,.2-.77l.05-.96,3.21-.91,.47,.73c.19,.3,.39,.51,.61,.61,.22,.11,.45,.13,.71,.06,.28-.08,.49-.23,.62-.46,.14-.22,.17-.47,.09-.74-.03-.08-.06-.17-.11-.27-.05-.09-.12-.2-.2-.32l-3.97-5.6c-.24-.34-.51-.57-.82-.69-.3-.13-.62-.14-.96-.05-.36,.1-.63,.29-.82,.57-.18,.27-.3,.65-.34,1.14l-.52,6.76c-.01,.09-.01,.18,0,.28,.01,.1,.03,.21,.06,.32,.08,.27,.23,.48,.46,.61Zm1.7-7.54l1.91,2.93-2.07,.59,.16-3.52Z"/>
      <path d="M46.73,44.12c.02-.12,.17-.4,.42-.84,.22-.93,.32-1.8,.32-2.59,0-1.75-.54-2.63-1.61-2.63s-2.4,.77-3.84,2.3c-1.44,1.53-2.68,3.42-3.73,5.66-1.28,2.71-1.93,5.22-1.93,7.54,0,1.22,.27,1.95,.81,2.21,.22,.09,.45,.14,.7,.14,1.43,0,3.22-1.4,5.4-4.2,2.01-2.57,3.18-4.65,3.51-6.24-.07-.65-.08-1.09-.04-1.33Zm-1.31-1.51c-.2,.36-.41,.76-.48,1.14-.1,.48-.07,1.06-.03,1.57-.46,1.72-2.07,3.92-3.09,5.23-.54,.7-2.43,3-3.6,3.43-.01-.17-.02-.34-.02-.44,0-2.33,.77-4.67,1.75-6.75,.88-1.87,1.99-3.68,3.41-5.19,.43-.46,1.45-1.46,2.22-1.68,.05,.26,.05,.6,.05,.75,0,.64-.09,1.3-.22,1.93Z"/>
      <path d="M106.6,37.7c-1.78-.07-3.44,.66-5.01,2.17-1.08,1-2.38,2.72-3.93,5.15-.56,.87-1.07,1.99-1.54,3.37-.58,1.61-.88,3-.88,4.17,0,1.87,.76,2.86,2.28,2.98,1.31,.09,2.91-.71,4.8-2.42,1.57-1.43,2.84-2.97,3.82-4.63,.35-.95,.77-1.95,1.26-2.98,.19-.19,.36-.33,.53-.42,.3-1.29,.45-2.52,.45-3.72,0-2.41-.6-3.63-1.79-3.68Zm-.32,6.35c-.06,.05-.12,.11-.17,.17l-.22,.22-.13,.28c-.47,.97-.89,1.97-1.27,2.98-.92,1.52-2.07,2.87-3.39,4.06-.71,.64-2.39,2.03-3.44,1.95-.63-.04-.58-.58-.58-1.15,0-1.16,.37-2.46,.77-3.54,.35-1.05,.78-2.1,1.36-3,.98-1.54,2.3-3.55,3.64-4.8,.98-.96,2.14-1.67,3.49-1.69,.18,.46,.22,1.5,.22,1.85,0,.9-.1,1.79-.27,2.67Z"/>
      <path d="M126.76,43.94c0,.14,.04,.31,.11,.51,.07,.2,.12,.28,.14,.23,.05-.32,.02-.95-.07-1.86-.03,.26-.09,.63-.18,1.12Z"/>
      <path d="M158.49,37.7c-1.78-.07-3.45,.66-5.01,2.17-1.08,1-2.38,2.72-3.93,5.15-.56,.87-1.08,1.99-1.54,3.37-.59,1.61-.88,3-.88,4.17,0,1.87,.76,2.86,2.28,2.98,1.31,.09,2.91-.71,4.8-2.42,1.57-1.43,2.84-2.97,3.82-4.63,.35-.95,.77-1.95,1.26-2.98,.19-.19,.36-.33,.53-.42,.31-1.29,.46-2.52,.46-3.72,0-2.41-.6-3.63-1.79-3.68Zm-.32,6.35c-.06,.05-.12,.11-.17,.17l-.22,.22-.14,.28c-.46,.97-.89,1.97-1.27,2.98-.92,1.52-2.07,2.87-3.39,4.06-.71,.64-2.39,2.03-3.43,1.95-.64-.04-.58-.58-.58-1.15,0-1.16,.38-2.46,.77-3.54,.35-1.05,.78-2.1,1.36-3,.98-1.54,2.3-3.55,3.63-4.8,.99-.96,2.14-1.67,3.49-1.69,.19,.46,.22,1.5,.22,1.85,0,.9-.1,1.79-.27,2.67Z"/>
      <path d="M167.88,63.65s-4.16-.36-3.95-.99c.22-.64,.56-1.27,.56-1.27,0,0-3.9,.46-4.56,1.44,0,0-.37-.44-.59-.97,.12-.26,.23-.53,.33-.8,.88-2.22,1.5-4.68,2.02-7.01,.33-1.52,.65-3.04,.95-4.56,.19-.86,.49-1.73,.86-2.57l.39-.87-.46-.76c.39-1.42,.65-2.9,.65-4.37,0-3.52-1.52-6.42-5.32-6.67-5.41-.36-9.39,4.02-12.01,8.26-.12-1.79-1.14-3.25-3.12-3.25-.33,0-.64,.05-.95,.14-.71,.18-1.34,.52-1.9,.96-.14-1.45-1.31-2.4-2.93-2.4-.52,0-1.02,.08-1.47,.28,.21-.24,.39-.51,.56-.81,.26-.52,.39-1.03,.39-1.57,0-.91-.4-1.73-1.12-2.29-.57-.45-1.24-.73-1.98-.73-1.74,0-3.25,.79-3.78,2.52-.14,.45-.23,.92-.23,1.39,0,1.75,1.23,2.89,2.95,2.89,.24,0,.48-.02,.72-.05,.52-.09,.99-.26,1.4-.48-.02,.03-.04,.06-.06,.09-.38,.56-.73,1.19-.82,1.87-.38-.48-.91-.83-1.62-.94l-.31-.05-.31,.05c-.88,.16-1.63,.63-2.26,1.23-.01-.04-.02-.08-.04-.12-.03-.92-.3-1.82-1.01-2.47l-.07-.07-.09-.07c-.7-.51-1.54-.65-2.38-.5-1.56,.33-2.67,1.37-2.67,2.96,0,.28,.04,.55,.11,.82-.07,.7-.14,1.4-.21,2.11v.08s0,.09,0,.09c0,.78,.11,1.56,.43,2.26-.32,.94-.8,1.89-1.32,2.78-.1,0-.19,0-.29,.01,0,0,.07,.08,.17,.2-.31,.51-.63,1-.94,1.46-.32,.47-1.42,1.99-2.16,2.55-.1-.35-.13-.73-.13-1.09,0-2.99,1.19-6.07,2.56-8.68,.48-.92,.87-1.89,1.13-2.9,.18-.45,.3-.93,.3-1.42,0-1.88-1.5-2.84-3.25-2.63-.09,.01-.18,.03-.27,.05,.09-.3,.13-.59,.13-.89,0-.91-.4-1.73-1.12-2.29-.57-.45-1.24-.73-1.98-.73-1.74,0-3.25,.79-3.78,2.52-.14,.45-.23,.92-.23,1.39,0,1.75,1.23,2.89,2.96,2.89,.24,0,.48-.02,.72-.05,.18-.03,.35-.07,.52-.12-.19,.37-.33,.76-.43,1.16-.32-.25-.71-.43-1.18-.5l-.31-.05-.31,.05c-1.04,.18-1.89,.82-2.6,1.58,.01-.26,.02-.53,.02-.79,0-3.52-1.52-6.42-5.32-6.67-4.61-.31-8.18,2.83-10.76,6.39-.35-3.25-2.1-5.73-5.96-5.76-2.75-.03-5.27,.88-7.53,2.42-.78,.52-1.55,1.13-2.22,1.82-.68-1.19-1.88-1.96-3.54-2.16-1.78-.22-3.6,.44-5.32,1.5,1.14-2.41,2.35-4.78,3.57-7.1,.42-.81,.7-1.69,.7-2.61,0-1.6-1.03-2.82-2.68-2.82-1.08,0-2.09,.37-2.76,1.25-.35,.45-.62,1.17-.83,1.68-1.92,4.68-3.86,9.42-5.69,14.19,0-.06,0-.12,0-.18,0-1.95-1.02-3.62-3.13-3.62-.33,0-.64,.05-.95,.14-.71,.18-1.34,.52-1.9,.96-.15-1.45-1.31-2.4-2.94-2.4-1.02,0-2,.35-2.6,1.23-.44,.65-.84,1.4-.84,2.22,0,.21,.02,.41,.07,.61-.09,.28-.19,.55-.28,.82l-.09-.12s-.04-.04-.06-.07c.14-.67,.21-1.36,.21-2.05,0-1.44-.3-2.87-1.12-4.08-.99-1.45-2.49-2.14-4.22-2.14-2.84,0-5.2,1.78-7.01,3.8-1.26,1.4-2.34,2.99-3.26,4.65-.3-.7-.84-1.26-1.62-1.58-.37-.16-.79-.24-1.22-.24-1.12,0-2.12,.57-2.95,1.29-.24,.21-.49,.45-.73,.7,1.61-3.69,3.26-7.42,5.05-11.05,.35-.79,1.1-2.36,1.1-3.13v-.53l-.28-.45c-.07-.11-.14-.22-.22-.31,.84,.03,1.68,.07,2.5,.11,.56,.91,1.55,1.44,2.76,1.44,.83,0,1.63-.24,2.37-.6,1.16-.52,2.14-1.5,1.97-2.92-.35-3.63-7.56-3.41-10.09-3.41-3.81,0-7.77,.22-11.58,.39-4.16,.18-8.31,.39-12.47,.61-.43-1.21-1.95-1.62-3.26-1.62-.69,0-1.39,.09-2.06,.2-.7,.12-1.58,.26-2.24,.52-1.14,.41-2.05,1.3-2.05,2.62,0,.41,.09,.81,.24,1.19,.72,1.76,2.68,2.34,4.4,2.53,1.23,.14,2.62,.1,3.86,.04,5.15-.21,10.3-.44,15.45-.72-1.52,3.47-3.05,6.92-4.61,10.37-1.92,4.27-4.37,9.57-5.93,14.43-1.75-.93-5.69-2.84-7.43-2.13,0,0,1.2,1.79,.92,3.22,0,0,.29,1.48-4.87,2.09,0,0,1.34,.82-2.71,3.46,0,0,6.12,.57,5.34,2.81,.78-.05,7.74-2.18,5.72-.21-1.18,1.13-4.77,3.27-4.93,4.87,2.82-1.31,2.52,4.86,1.86,6.39,2.08-1.4,5.43-2.59,7.12,.08,1.71-1.96,2.65-11,4.22-6.74,0,0,1.14,3.06,.99,3.63,0,0,3.73-.05,4.99,2.05,0,0,.09-3.37,2.84-4.43,0,0-2.6-5-1.73-5.21,.88-.21,1.85-.29,1.85-.29,0,0-3.34-4.11-4.94-4.15,0,0,.08-.26,.24-.61,.84-.26,1.54-.82,2.09-1.56,.88-1.17,1.81-2.47,2.77-3.78-.21,1.09-.36,2.12-.36,2.96,0,2.31,1.05,4.43,3.63,4.43,.94,0,1.81-.3,2.58-.82,.08-.05,.16-.11,.23-.17,.42,.29,.9,.51,1.48,.65,.42,.11,.85,.16,1.28,.16,.31,0,.62-.03,.93-.08,.49,.47,.93,1.02,1.17,1.64,0,0,1.56,1.66-4.56,6.59,0,0,2.37-.02-.69,6.61,0,0,8.3-4.19,9.1-.68,.95-.69,8.17-9.01,7.15-4.87-.6,2.41-3.49,8.03-2.4,10.21,2.56-3.95,7.13,4.21,7.51,6.7,1.54-3.47,4.87-7.68,9.18-5.61,.61-3.89-5.43-16.24,0-12.04,0,0,3.91,3.02,4.17,3.86,0,0,4.75-3.06,8.05-1.38,0,0-2.58-4.39,.09-7.96,0,0-7.34-4.31-6.4-5.29,.22-.22,.44-.43,.66-.64,0,0,.01,0,.02,.01,1.33,.78,3.64,2.16,5.17,2.43,.84,.15,1.68,0,2.39-.48,.34-.23,.62-.52,.83-.85,1.42,.45,2.95,.59,4.43,.59,1.86,0,3.82-.14,5.63-.62,1-.27,2.09-.7,2.83-1.42,.2,.37,.43,.72,.7,1.02-.78,.47-1.32,1.29-1.6,2.25-.3,1.06-.16,2.12,.24,3.12-.45-.06-.92-.08-1.41-.03,0,0,2.21,2.48,1.76,3.51,0,0-6.91,.2-8.34,2.17,0,0,1.95,.87,2.47,2.21,0,0,1.02,1.09-2.99,4.31,0,0,1.55-.01-.45,4.32,0,0,5.42-2.74,5.94-.44,.63-.45,5.34-5.89,4.68-3.19-.4,1.57-2.29,5.25-1.57,6.67,1.67-2.57,4.66,2.75,4.91,4.39,1-2.27,3.19-5.03,6.01-3.67,.4-2.54-3.55-10.61,0-7.86,0,0,2.56,1.97,2.73,2.52,0,0,3.11-2,5.26-.9,0,0-1.69-2.87,.06-5.2,0,0-4.81-2.82-4.18-3.46,.62-.64,1.39-1.21,1.39-1.21,0,0-1.55-.53-3.16-.86,1.19-1.34,2.11-3.01,2.81-4.75,.63-1.6,1.13-3.32,1.55-5.03,.62,1.24,1.71,2.04,3.19,2.04,.96,0,1.84-.32,2.6-.91,.41,.55,.95,1.01,1.64,1.35,.38,.19,.75,.31,1.12,.39-.28,.74-1.09,1.91-3.26,3.65,0,0,1.7-.01-.5,4.72,0,0,5.92-2.99,6.49-.49,.69-.49,5.84-6.43,5.11-3.47-.43,1.71-2.49,5.73-1.71,7.29,1.82-2.82,5.08,3,5.36,4.78,1.1-2.48,3.48-5.48,6.56-4,.44-2.78-3.87-11.59,0-8.59,0,0,2.79,2.16,2.98,2.76,0,0,2.98-1.92,5.29-1.17,.34,1.03,.87,2,1.67,2.75,1.04,.97,2.38,1.42,3.77,1.58-.56,.52-.98,1.06-1.08,1.56,0,0,1.6-.04,2.39,.7,0,0,1.04,.41-.62,3.88,0,0,1.04-.51,1.09,3.07,0,0,2.78-3.61,3.88-2.22,.28-.51,1.71-5.71,2.13-3.66,.24,1.19,.15,4.29,1.09,5.02,.3-2.28,4.04,.35,4.73,1.38-.05-1.86,.53-4.43,2.87-4.42-.55-1.85-5.83-6.03-2.54-5.32,0,0,2.37,.51,2.66,.83,0,0,1.45-2.36,3.26-2.31,0,0-2.07-1.4-1.64-3.54ZM19.59,55.19c.02-.06,.04-.12,.06-.19v.02c0,.08,.02,.16,.02,.24-.03-.02-.06-.05-.08-.07Zm-1.93,.01c.14,.19,.15,.64,.04,1.37-.14,.82-.62,1.23-1.44,1.23-.4,0-.74-.13-1.03-.37-.3-.25-.39-.56-.3-.93,.77-3.32,3.03-9.14,6.77-17.46,1.21-2.66,2.81-6.24,4.77-10.73-.03-.05,.04-.33,.21-.84,.22-.6,.43-1.12,.67-1.54-4.51,.26-10.59,.55-18.23,.88-1.71,.05-2.9,.03-3.58-.04-1.64-.19-2.61-.65-2.91-1.4-.07-.17-.1-.33-.1-.49,0-.39,.29-.7,.88-.91,.3-.12,.93-.26,1.89-.42,.68-.12,1.26-.17,1.75-.17,1.08,0,1.59,.21,1.54,.63,0,.14-.02,.29-.07,.44-.04,.15-.27,.29-.66,.4-.12,.03-.18,.06-.18,.11,0,.09,.3,.14,.91,.14,3.53-.19,8.29-.42,14.27-.7,6.87-.26,10.71-.39,11.5-.39,5.4,0,8.16,.6,8.27,1.79,.05,.39-.27,.74-.95,1.05-.59,.28-1.11,.42-1.58,.42-.82,0-1.29-.39-1.4-1.16-.02-.14-.26-.22-.7-.25-3.34-.18-5.88-.21-7.61-.07,.09,.54-.21,1.08-.91,1.65-1.47,2.36-3.51,6.45-6.1,12.27-1.94,4.37-3.85,9.54-5.72,15.5Zm14.76,.73c.14,.02,.31,.02,.52,0,.26-.05,.41-.07,.46-.07,.26,0,.42,.16,.49,.49,.07,.25-.15,.56-.66,.9-.5,.34-1.02,.51-1.56,.51-1.19,0-1.79-.86-1.79-2.6,0-1.22,.55-3.83,1.65-7.85,.28-1.01,.42-1.57,.42-1.68,0-.09-.02-.15-.07-.18-.17-.09-.49,.13-.98,.67-.78,.86-3.02,3.78-6.73,8.76-.49,.66-1.03,.99-1.65,.99-.7,0-1.05-.28-1.05-.84,0-.17,.04-.4,.1-.7,1.15-4.37,2.94-9.41,5.37-15.11,1.99-4.69,2.98-7.45,2.98-8.27,0-.73,.26-1.29,.77-1.68,.07-.05,.27-.25,.59-.6,.17-.19,.38-.31,.64-.35,.72-.17,1.25,0,1.57,.52,0,.16-.3,.93-.91,2.31-1.31,2.64-3.16,6.7-5.54,12.17-1.78,4.67-2.66,7.31-2.66,7.92,0,.09,.03,.15,.07,.18,.07,.03,.57-.58,1.51-1.82,1.26-1.66,2.44-3.08,3.54-4.24,.89-.93,1.43-1.48,1.61-1.65,.66-.56,1.24-.84,1.75-.84,.19,0,.36,.03,.53,.1,.51,.21,.77,.66,.77,1.33,0,.33-.11,.96-.32,1.89-.09,.42-.52,1.98-1.26,4.66-.54,1.85-.81,3.15-.81,3.89s.21,1.12,.63,1.19Zm101.21-18.16c-.17,.02-.32,.04-.46,.04-.74,0-1.12-.35-1.12-1.05,0-.25,.05-.54,.14-.84,.26-.82,.94-1.23,2.04-1.23,.28,0,.56,.11,.84,.33,.28,.22,.42,.51,.42,.86,0,.23-.06,.47-.18,.7-.35,.65-.91,1.05-1.68,1.19Zm-17.42,0c-.17,.02-.32,.04-.46,.04-.75,0-1.12-.35-1.12-1.05,0-.25,.04-.54,.14-.84,.26-.82,.94-1.23,2.03-1.23,.28,0,.56,.11,.84,.33,.28,.22,.43,.51,.43,.86,0,.23-.06,.47-.18,.7-.35,.65-.91,1.05-1.68,1.19ZM49.04,56.74c-.23,.25-.55,.39-.95,.39-.26,0-.54-.07-.84-.21-1.19-.49-1.78-1.73-1.78-3.72,0-.44,.04-1,.1-1.65-1.31,1.78-2.66,3.2-4.07,4.27-1.54,1.17-2.96,1.76-4.24,1.76-.28,0-.56-.04-.84-.11-1.43-.35-2.13-1.64-2.13-3.86s.59-4.7,1.78-7.36c1.26-2.8,2.69-5.08,4.28-6.83,1.89-2.13,3.78-3.2,5.64-3.2,1.19,0,2.09,.45,2.7,1.34,.54,.8,.8,1.81,.8,3.05,0,.91-.14,1.79-.42,2.63,.19,.09,.41,.3,.66,.63,0,.45-.12,.93-.35,1.48-1.49,3.48-2.25,6.11-2.25,7.89,0,1.1,.3,1.78,.91,2.04,.28,.07,.68,.26,1.19,.56,.07,.07,.11,.15,.11,.25,0,.26-.11,.48-.32,.67Zm6.77-3.63c-.14-.03-.31-.1-.48-.18,.18-.3,.36-.6,.55-.89-.03,.36-.05,.72-.07,1.08Zm9.98,.53c.04-.15,.08-.29,.13-.44,.2,.07,.4,.14,.6,.19,.19,.15,.39,.29,.59,.43-.45-.08-.89-.14-1.32-.18Zm11.98,3.3c-.29,.2-.64,.26-1.03,.19-.77-.14-2.29-.88-4.56-2.21-2.12-1.26-3.74-2.34-4.84-3.22-1.19-.23-1.79-.64-1.79-1.22,0-.28,.15-.61,.45-.98,.42-.52,.79-.78,1.12-.78s.82,.25,1.47,.74c1.31,.11,2.6-.11,3.86-.67,1.59-.68,2.85-1.8,3.79-3.37,.72-1.21,1.08-2.28,1.08-3.19,0-1.19-.53-1.79-1.61-1.79-1.85,0-4.6,2.13-8.24,6.38-.84,.98-1.64,2.2-2.39,3.65-.84,1.68-1.26,3-1.26,3.96,0,.16,.01,.31,.04,.45,.07,.4-.08,.74-.44,1.02-.34,.27-.7,.37-1.07,.32-.12,.12-.24,.25-.39,.38-.87,.79-1.72,1.12-2.56,.98-1.19-.21-1.79-1.45-1.79-3.72s.48-4.83,1.43-7.47c.31-.82,.46-1.46,.46-1.92,0-.21-.05-.33-.14-.35-.16-.05-.75,.68-1.75,2.17-.91,1.28-1.82,2.57-2.7,3.86-1.09,1.61-2.13,3.34-3.12,5.19-.12,.21-.34,.4-.67,.56-.32,.17-.63,.21-.91,.14-.59-.12-.87-.49-.87-1.12,0-.21,.03-.44,.1-.7,.42-1.49,1.04-3.44,1.86-5.82,.72-2.15,1.46-4.3,2.21-6.45-.14-.16-.21-.34-.21-.53,0-.28,.18-.68,.53-1.19,.19-.28,.55-.42,1.09-.42,.87,0,1.23,.4,1.09,1.2-.12,.61-.58,1.86-1.4,3.74-.56,1.29-1.51,3.73-2.84,7.33,.98-1.8,3-4.8,6.07-9.01,.77-1.05,1.58-1.69,2.42-1.9,.17-.04,.32-.07,.46-.07,.87,0,1.3,.6,1.3,1.79,0,.43-.07,.89-.21,1.4-.91,3.16-1.56,5.49-1.93,7.01-.26,1.05-.39,1.96-.39,2.74,0,1.05,.22,1.59,.67,1.61,.19,0,.48-.22,.89-.65,.25-.27,.47-.45,.67-.55,.03-.11,.05-.23,.09-.35,1.96-5.85,5.1-14.02,9.42-24.54,.28-.7,.48-1.12,.6-1.26,.26-.35,.7-.53,1.3-.53,.56,0,.84,.33,.84,.98,0,.56-.16,1.15-.49,1.75-3.11,5.94-5.41,10.9-6.91,14.9,4.16-4.72,7.51-6.93,10.06-6.63,1.73,.21,2.59,1.24,2.59,3.09,0,1.26-.47,2.7-1.4,4.31-.75,1.31-1.86,2.41-3.33,3.3-1.26,.77-2.61,1.3-4.04,1.57,1.22,1.35,3.17,2.67,5.86,3.93,.19-.09,.38-.14,.56-.14,.3,0,.61,.14,.9,.42,.29,.28,.44,.58,.44,.91,0,.3-.15,.56-.44,.75Zm-8.56-9.3c1.33-1.51,4.59-5.03,6.29-5.33-.03,.71-.48,1.59-.83,2.18-.71,1.19-1.67,2.07-2.94,2.62-.81,.35-1.64,.55-2.5,.55-.01,0-.02,0-.02-.01Zm10.55,.76c-.73,.02-1.35,.3-1.87,.73,.48-.49,.91-1.03,1.28-1.61,.17,.3,.37,.6,.58,.88Zm-2.28,1.14c-.28,.31-.52,.68-.72,1.08-.35,.72-.58,1.46-.7,2.21-.62-.32-1.27-.67-1.88-1.07,.43-.21,.86-.44,1.27-.69,.74-.45,1.42-.95,2.03-1.52Zm14.33,1.36c-.11-.1-.22-.2-.33-.3-.06-.05-.12-.11-.18-.16,.19-.01,.39-.04,.58-.09-.02,.18-.04,.37-.06,.55Zm-.28-2.36c-.19,.05-.35,.07-.49,.07-.42,0-.63-.19-.63-.56,0-.28,.16-.83,.49-1.65,.49-1.24,.82-2.12,.98-2.63,.09-.77,.14-1.43,.14-1.96,0-2.08-.72-3.17-2.14-3.26-1.63-.09-3.28,.37-4.94,1.4-1.78,1.1-2.7,2.38-2.77,3.82-.07,1.33,.57,2.58,1.89,3.75,.05,.03,1.23,.84,3.54,2.46,1.34,.93,2.22,1.6,2.66,2,.91,.79,1.35,1.49,1.34,2.1-.03,.72-.82,1.29-2.39,1.72-1.4,.37-3.12,.56-5.16,.56-1.68,0-3.09-.21-4.24-.63-1.38-.52-2.04-1.25-2-2.21,.04-.7,.23-1.39,.56-2.07,.42-.82,.91-1.22,1.47-1.22,.49,0,.73,.15,.73,.45,0,.17-.17,.56-.51,1.18-.34,.62-.51,1.09-.51,1.42,.02,.61,.45,1.05,1.3,1.34,.31,.12,1.14,.29,2.49,.52,3.65-.07,5.47-.48,5.47-1.22,0-.49-.58-1.17-1.75-2.04-1.08-.73-2.15-1.45-3.22-2.17-2.53-1.73-3.79-3.61-3.79-5.65,0-.28,.02-.55,.07-.81,.23-1.52,1.4-3,3.51-4.42,2.1-1.43,4.26-2.13,6.49-2.1,2.97,.03,4.37,1.95,4.21,5.79,.02,.05,.04,.12,.04,.21,0,.38-.19,1.12-.57,2.24-.77,2.25-1.53,3.44-2.28,3.58Zm-2.93-.11c-.93-.65-2.43-1.83-3.47-2.42-.6-.56-1.17-1.29-1.12-2.15,.05-1.05,1.09-1.85,1.9-2.35,1.17-.73,2.47-1.22,3.86-1.13,.04,0,.13,0,.16,.03,.22,.19,.26,1.14,.26,1.4,0,.52-.05,1.05-.11,1.57-.26,.78-.58,1.58-.88,2.34-.27,.68-.62,1.59-.62,2.33,0,.13,0,.26,.03,.38Zm-7,4.48c.04-.06,.07-.13,.1-.17,.3-.54,.64-1.18,.72-1.81,.14,.09,.27,.19,.41,.29,.97,.66,1.94,1.31,2.91,1.96-.83,.08-1.74,.11-2.23,.12-.58-.09-1.37-.21-1.9-.38Zm27.96-7.35c.05,.07,.17,.28,.39,.63-.44,1-.77,1.99-.98,2.94-.31,1.52-.62,3.03-.95,4.52-.63,2.83-1.27,5.07-1.93,6.73-1.84,4.63-4.48,6.8-7.89,6.52-1.29-.12-2.27-.49-2.95-1.13-.8-.74-1.32-1.97-1.58-3.68-.37-.79-.47-1.52-.28-2.17,.26-.88,.72-1.33,1.37-1.33,.12,0,.25,.01,.42,.04,.66,.12,.98,.46,.98,1.02,0,.28-.09,.66-.26,1.14-.18,.48-.27,.88-.27,1.21,0,.79,.22,1.51,.67,2.14,.54,.75,1.28,1.16,2.24,1.22,1.4,.09,2.62-.51,3.64-1.82,.68-.84,1.39-2.22,2.14-4.14,.93-2.36,1.56-4.94,1.89-7.75-3.06,3.81-6.13,5.6-9.18,5.36-2.31-.18-3.48-1.7-3.48-4.55s.86-5.63,2.56-8.48c3.27-5.52,6.82-8.14,10.63-7.89,2.4,.17,3.61,1.78,3.61,4.84,0,1.4-.27,2.94-.81,4.63Zm-11.65,13.31c1.96-.07,3.73-.78,5.33-1.85-.18,.58-.38,1.15-.6,1.71-.45,1.14-1.1,2.7-1.87,3.67-.21,.26-.43,.5-.67,.69-.54,.03-.93,.21-1.21,.44-.06,0-.13,0-.2,0-.39-.03-.65-.14-.88-.46-.23-.32-.33-.67-.33-1.07,0-.15,.1-.44,.15-.58,.2-.56,.37-1.17,.37-1.77,0-.27-.03-.53-.09-.78Zm17.54-14.58c-.61,1.26-1.21,2.54-1.82,3.82-.84,2.05-1.19,3.86-1.05,5.4,.04,.58,.29,.89,.74,.91,.12,0,.26-.04,.42-.11,.16-.07,.28-.1,.35-.1,.16,0,.34,.15,.52,.45,.14,.26-.03,.59-.51,.99-.48,.4-1,.59-1.56,.59-.82,0-1.39-.48-1.72-1.43-.17-.49-.25-1.08-.25-1.75,0-1.96,.83-5.14,2.49-9.54,.7-.93,1.38-1.46,2.04-1.57,.44,.07,.66,.4,.66,1.01,0,.44-.1,.89-.32,1.33Zm8.42,9.5c-2.39,2.95-4.48,3.97-6.28,3.09-1.19-.58-1.79-1.91-1.79-4s.82-5.8,2.45-11.08c.02-.68,.21-1.29,.57-1.83,.21-.32,.42-.64,.63-.93,.21-.29,.49-.46,.84-.51,.79-.09,1.19,.18,1.19,.81,0,.23-.07,.52-.21,.84-.21,.87-.55,1.74-1.02,2.63-1.85,3.53-2.77,6.71-2.77,9.53,0,.73,.11,1.37,.31,1.93,.31,.79,.76,1.19,1.37,1.19,1.03,0,2.35-1.19,3.96-3.54,1.5-2.17,2.45-4.1,2.87-5.79-.39-.37-.6-1.03-.6-1.96,0,0,.08-.83,.25-2.49-.09-.21-.14-.41-.14-.6,0-.61,.39-.99,1.16-1.16,.4-.07,.72,0,.98,.18,.3,.28,.44,.76,.42,1.43,.16,.4,.24,.9,.24,1.51,0,.3-.09,1.13-.28,2.49,.07,.44-.03,.8-.28,1.08-.58,2.27-1.88,4.65-3.89,7.15Zm7.66,1.86c-.48,.4-1,.59-1.56,.59-.82,0-1.39-.48-1.72-1.43-.16-.49-.24-1.08-.24-1.75,0-1.96,.83-5.14,2.49-9.54,.7-.93,1.38-1.46,2.04-1.57,.45,.07,.66,.4,.66,1.01,0,.44-.1,.89-.31,1.33-.61,1.26-1.22,2.54-1.82,3.82-.85,2.05-1.2,3.86-1.05,5.4,.05,.58,.29,.89,.74,.91,.12,0,.26-.04,.42-.11,.16-.07,.28-.1,.35-.1,.16,0,.34,.15,.52,.45,.14,.26-.03,.59-.51,.99Zm7.21-2.7c-.15-.03-.3-.07-.45-.1,.17-.28,.33-.56,.51-.83-.03,.31-.05,.62-.06,.93Zm3.6,4.63c-1.19-.21-1.79-1.45-1.79-3.72s.48-4.83,1.44-7.47c.31-.82,.46-1.46,.46-1.92,0-.21-.05-.33-.14-.35-.17-.05-.75,.68-1.76,2.17-.91,1.28-1.81,2.57-2.69,3.86-1.1,1.61-2.14,3.34-3.12,5.19-.12,.21-.34,.4-.67,.56-.33,.17-.63,.21-.91,.14-.59-.12-.88-.49-.88-1.12,0-.21,.04-.44,.11-.7,.42-1.49,1.04-3.44,1.86-5.82,.73-2.15,1.46-4.3,2.21-6.45-.14-.16-.22-.34-.22-.53,0-.28,.18-.68,.53-1.19,.19-.28,.55-.42,1.09-.42,.86,0,1.22,.4,1.09,1.2-.12,.61-.59,1.86-1.4,3.74-.56,1.29-1.51,3.73-2.84,7.33,.98-1.8,3-4.8,6.06-9.01,.77-1.05,1.58-1.69,2.42-1.9,.16-.04,.31-.07,.46-.07,.87,0,1.29,.6,1.29,1.79,0,.43-.06,.89-.21,1.4-.91,3.16-1.56,5.49-1.93,7.01-.26,1.05-.39,1.96-.39,2.74,0,1.05,.22,1.59,.66,1.61,.19,0,.49-.22,.9-.65,.41-.44,.74-.65,1-.65,.3,0,.61,.21,.91,.63,.21,.28-.12,.82-.98,1.61-.87,.79-1.72,1.12-2.56,.98Zm15.64,2.8c-1.85,4.63-4.47,6.8-7.89,6.52-1.28-.12-2.27-.49-2.95-1.13-.79-.74-1.32-1.97-1.57-3.68-.38-.79-.47-1.52-.28-2.17,.26-.88,.71-1.33,1.37-1.33,.12,0,.26,.01,.42,.04,.65,.12,.98,.46,.98,1.02,0,.28-.09,.66-.26,1.14-.18,.48-.26,.88-.26,1.21,0,.79,.22,1.51,.66,2.14,.54,.75,1.29,1.16,2.24,1.22,1.4,.09,2.62-.51,3.65-1.82,.68-.84,1.39-2.22,2.13-4.14,.94-2.36,1.57-4.94,1.9-7.75-3.06,3.81-6.13,5.6-9.19,5.36-2.31-.18-3.47-1.7-3.47-4.55s.85-5.63,2.56-8.48c3.27-5.52,6.81-8.14,10.62-7.89,2.41,.17,3.61,1.78,3.61,4.84,0,1.4-.27,2.94-.81,4.63,.05,.07,.18,.28,.39,.63-.44,1-.78,1.99-.99,2.94-.3,1.52-.62,3.03-.94,4.52-.63,2.83-1.27,5.07-1.93,6.73Zm-8.19-1.52c1.96-.07,3.73-.78,5.33-1.85-.18,.58-.39,1.15-.61,1.71-.45,1.14-1.1,2.7-1.86,3.67-.55,.69-1.18,1.2-2.08,1.13-.39-.03-.65-.14-.88-.46-.23-.32-.32-.67-.32-1.07,0-.15,.1-.44,.15-.58,.2-.56,.37-1.17,.37-1.77,0-.27-.04-.53-.1-.78Z"/>
    </g>
  </g>
</svg>