<?xml version="1.0" encoding="UTF-8"?>
<svg id="_图层_2" data-name="图层 2" xmlns="http://www.w3.org/2000/svg" viewBox="0 0 144.7 116.07">
  <defs>
    <style>
    

    </style>
  </defs>
  <g id="_图层_2-2" data-name=" 图层 2">
    <g>
      <path class="cls-1" d="M118.71,61.32c-13.49,0-26.99,0-40.48,0q-2.15,0-2.15-2.2c0-10.75,0-21.49,0-32.24,0-2.89-1.42-4.34-4.32-4.4-1.37-.03-2.75-.03-4.12,0-3.06,.05-4.37,1.39-4.37,4.44,0,10.75,0,21.49,0,32.24q0,2.16-2.18,2.16c-13.79,0-27.58,0-41.37,0-2.08,0-2.09,0-2.09,2.01,0,7.66,0,15.31,0,22.97,0,3.05,.28,6.08,.89,9.06,1.11,5.47,3.15,10.51,7.87,13.86,6.03,4.28,12.83,6.56,20.23,6.72,7.55,.15,15.11,.03,22.67,.03v.02c6.87,0,13.74-.07,20.61,.02,5.44,.07,10.64-.97,15.61-3.11,4.35-1.87,8.54-4.02,11.25-8.19,3.3-5.09,4.34-10.78,4.41-16.69,.09-8.05,.04-16.1,.03-24.14,0-2.67,.49-2.56-2.48-2.56Z"/>
      <path class="cls-1" d="M46.71,57.82c.4,.99,.98,1.3,2,1.29,3.34-.05,6.68-.08,10.01,.01,1.46,.04,1.85-.51,1.81-1.89-.09-2.75-.03-5.5-.02-8.24,0-2.8,0-5.6,0-8.39,0-.64-.05-1.26-.31-1.87-3.96-9.21-8.32-18.21-13.93-26.55-2.05-3.05-4.18-6.08-7.3-8.19-2.46-1.67-4.1-1.03-4.91,1.86-.13,.47-.2,.96-.26,1.44-.49,3.7,.07,7.35,.73,10.96,2.49,13.67,7.01,26.72,12.18,39.57Zm2.32-5.11c.34-5.79,1.18-11.49,3.27-16.94,.23-.59,.4-1.61,1.18-1.44,.68,.15,.64,1.12,.63,1.8-.07,6.27-1.07,12.38-3.26,18.27-.23,.61-.46,1.64-1.14,1.52-.77-.14-.6-1.19-.67-1.89-.05-.44,0-.88,0-1.32Zm-7.02-16.43c-.03-5.87,.89-11.59,3.06-17.07,.19-.48,.43-1.18,1.04-1.07,.58,.11,.59,.84,.62,1.36,.04,.68,.01,1.37,.01,2.06-.22,5.16-.98,10.22-2.89,15.04-.23,.59-.39,1.6-1.18,1.45-.74-.13-.66-1.16-.66-1.78Z"/>
      <path class="cls-1" d="M103.9,59.09c.34,0,.69,0,1.03,0,2.24,0,2.28,0,2.78-2.2,1.08-4.73,2.17-9.46,3.15-14.21,2.1-10.23,3.69-20.54,4.94-30.9,.4-3.31,.66-6.63,.97-9.95,.05-.54,.16-1.12-.65-1.22-3.21-.38-6.43-.74-9.67-.45-.96,.08-1.34,.58-1.36,1.54-.02,1.17-.17,2.34-.25,3.52-.6,9.24-1.21,18.49-1.77,27.73-.46,7.63-1.25,15.23-2.15,22.83-.39,3.32-.41,3.31,2.99,3.31Z"/>
      <path class="cls-1" d="M114.54,39.13c-2.89,5.81-4.93,11.83-6.12,18.18-.31,1.67-.25,1.79,1.56,1.78,1.02,.22,1.62-.4,2.13-1.38,2.57-4.96,5.23-9.88,7.78-14.85,5.94-11.56,11.52-23.29,16.77-35.18,.4-.9,.31-1.39-.62-1.84-1.94-.94-3.86-1.92-5.74-2.99-1.1-.62-1.61-.3-2.12,.76-2.14,4.42-3.79,9.04-5.43,13.66-2.61,7.34-4.74,14.88-8.22,21.87Z"/>
      <path class="cls-1" d="M144.52,31.8c-1.18-2.93-2.61-5.7-4.95-7.92-.86-.81-1.27-.63-1.91,.28-4.6,6.6-9.36,13.08-14.36,19.38-3.64,4.58-6.75,9.51-9.93,14.41-.49,.75-.41,1.17,.59,1.15,.98-.02,1.96,0,2.94,0,.93,0,1.87-.03,2.8,.01,.87,.04,1.48-.27,1.98-.99,6.37-9.25,13.46-17.84,22.37-24.79,.52-.41,.74-.84,.46-1.52Z"/>
      <path class="cls-1" d="M89.84,34.24c-.94,2.31-1.16,4.75-1.21,7.2-.1,4.85,.4,9.68,.64,14.52,.16,3.13,.26,3.13,3.49,3.13h1.47c1.18,0,2.35-.03,3.53,0,.91,.03,1.28-.32,1.37-1.27,.43-4.53,.95-9.05,1.41-13.58,.32-3.17,.63-6.34-.31-9.47-.75-2.5-2.58-4.02-4.95-4.13-2.69-.12-4.38,1-5.43,3.59Z"/>
      <path class="cls-1" d="M18.25,57.1c-.32,1.71-.02,1.99,1.71,1.99,3.58,0,7.15,0,10.73,0,3.68,0,7.35,0,11.03,0,1.66,0,1.9-.25,1.66-1.9-.35-2.43-1.35-4.57-2.93-6.47-3.12-3.76-8.42-5.48-13.15-4-5.09,1.59-8.08,5.15-9.05,10.38Z"/>
      <path class="cls-1" d="M24.96,46.39c3.32-3.33,4.94-7.35,5.14-12.12-.17-4.76-1.91-8.94-5.53-12.28-.55-.51-.94-.64-1.59-.05-7.08,6.29-7.29,17.93-.43,24.44,.89,.85,1.5,.93,2.42,0Z"/>
      <path class="cls-1" d="M82.99,59.09c.91,.02,1.29-.34,1.39-1.27,.33-3.02,.77-6.02,1.1-9.03,.24-2.18,.59-4.37,.03-6.57-.67-2.64-2.76-4.15-5.43-3.89-1.19,.12-1.85,.57-1.81,1.94,.08,2.84,.03,5.68,.03,8.53,0,1.96-.03,3.92,0,5.88,.11,5.25-.99,4.32,4.68,4.42Z"/>
      <path class="cls-1" d="M20.84,47.75c-3.4-3.83-7.63-5.85-12.77-5.93-2.56-.07-4.94,.59-7.25,1.63-.89,.4-1.01,.8-.35,1.63,4.62,5.76,13.47,7.71,19.98,4.4,.96-.49,1.12-.9,.38-1.73Z"/>
      <path class="cls-1" d="M92.14,28.32c.25,1.06,1.05,.99,1.84,1,.77,0,1.44-.02,1.64-1.03,.42-2.16,.95-4.31,1.41-6.46,.37-1.74,.89-3.45,1.04-5.47-1.21,.67-1.65,1.84-2.68,2.52,.4-2.8,.78-5.44,1.16-8.09-.12-.03-.24-.05-.36-.08-.81,1.35-1.63,2.69-2.58,4.26-.8-4.49-1.54-8.66-2.28-12.82-.15,0-.3,0-.45,0-.31,3.01-.61,6.02-.95,9.31-.79-1.04-1.41-1.86-2.25-2.97,0,.58-.04,.77,0,.95,1.48,6.3,2.98,12.59,4.46,18.88Z"/>
      <path class="cls-1" d="M112.47,40.87c.86-.37,.87-.98,1.07-1.44,3.19-7.33,5.81-14.88,8.48-22.4,1.3-3.65,2.59-7.29,3.91-10.93,.56-1.54-.77-1.7-1.59-2.13-.87-.45-1.35,.12-1.59,.95-.24,.85-.52,1.69-.79,2.53-2.49,7.79-5.69,15.35-7.69,23.3-.82,3.27-1.48,6.56-1.81,10.12Z"/>
      <path class="cls-1" d="M78.75,37.63c.89,.11,2.13,.42,2.76-.45,1.46-1.99,2.75-4.11,4.24-6.39-1.3,0-2.02,.88-3.17,.9,.85-1.79,1.62-3.4,2.52-5.3-1.23,.38-1.76,1.35-2.78,1.56,.15-2.07,.62-4,.32-6.08-.74,1.23-1.48,2.47-2.47,4.12-.52-3.17-.97-5.89-1.48-8.93-.5,.79-.41,1.24-.41,1.67,0,5.74,0,11.48,.03,17.22,0,.59-.32,1.57,.43,1.67Z"/>
    </g>
  </g>
</svg>