<?xml version="1.0" encoding="UTF-8"?>
<svg id="_图层_2" data-name="图层 2" xmlns="http://www.w3.org/2000/svg" viewBox="0 0 84.82 57.16">
  <g id="_图层_2-2" data-name=" 图层 2">
    <g>
      <path d="M19.57,21.61c-3.19,1.62-4.76,3.97-4.96,7.61-.09,1.68-.85,3.99-2.1,4.83-4.91,3.31-2.9,8.7-4.87,12.67,4.48,.46,8.65,.38,12.53,1.4,8.78,2.32,17.64,2.2,26.58,2.08,5.55-.07,11.13,.54,16.66,1.09,6.9,.69,13.77,1.63,20.65,2.46,.25-.54,.5-1.09,.75-1.63-2.94-2.73-5.91-5.43-8.82-8.2-1.31-1.24-2.84-2.42-3.69-3.95-3.85-6.89-9.21-12.31-15.38-17.11-2.68-2.09-4.94-4.72-7.39-7.1-3.65-3.54-7.31-7.07-11.47-11.09-5.48,5.06-10.42,9.63-15.36,14.19-1.02,.94-1.93,2.14-3.13,2.75Zm51.79,19.83c-3.22,2.44-6.25,4.73-9.49,7.17-2.06-1.24-1.12-2.46,.36-3.89,4.73-4.57,7.27-5.45,9.13-3.28Zm-13.63-11.32c.29-.94,1.01-2.14,1.81-2.41,.64-.22,1.88,.61,2.54,1.27,2.24,2.27,4.35,4.67,6.51,7.02-.18,.45-.36,.9-.54,1.34-2.62-.52-5.35-.72-7.82-1.64-2.35-.88-3.27-3.09-2.5-5.58Zm-37.42,11.51c-1.99,3.13-4.33,3.94-6.84,2.12,.64-.9,1.27-1.81,2.06-2.92q-3.14-2.62-2.63-3.95c1.24,.71,2.52,2.02,3.71,1.95,.91-.06,1.71-1.87,2.6-2.95,2.22,1.09,2.72,3.22,1.11,5.76Zm12.24,5.38c-2.44-3.35-.68-7.13,4.58-9.19,.34,.18,.67,.37,1.01,.55-1.87,2.89-3.74,5.78-5.58,8.64Zm17.62,.32c-.31,.84-1.58,2.11-2.05,1.96-1.17-.35-2.13-1.4-3.53-2.43-.6,.37-1.66,1.01-3.05,1.87-.58-.94-1.15-1.86-1.93-3.11,1.11-.33,1.9-.48,2.61-.8,.74-.34,1.4-.84,1.69-1.02-.7-1.83-1.17-3.05-1.64-4.27,1.68,.04,3.55-.38,4.98,.22,2.12,.89,3.7,5.4,2.91,7.58Zm-7.54-9.85c-4.14-.17-7.3-2.56-7.2-5.44,.1-2.84,3.48-5.19,7.47-5.2,4.19-.01,7.6,2.48,7.5,5.47-.1,2.95-3.68,5.34-7.77,5.17Zm9.56,4.76c.4-3.56,.78-7.04,1.17-10.53,4.39,4.55,4,9.24-1.17,10.53Zm-3.97-23.63c2.16,.02,4.3,1.76,6.44,2.78l-.27,1.06c-.76,.25-1.53,.49-2.5,.81q.46,4.24-1.82,4.06c.49-4.99,.28-5.17-4.57-3.89-1.05-2.77,1.39-4.83,2.72-4.82Zm-10.64-8.54c4.1-.17,7.69,2.21,7.78,5.16,.1,3.14-3.43,5.62-7.79,5.46-3.91-.14-7.08-2.41-7.2-5.14-.13-2.83,3.14-5.31,7.21-5.47Zm.61,12.39c.76,2.76-2.11,5.33-6.18,6.09-4.11,.77-7.68-.55-8.09-3.59,5.42,1.87,10.01,.46,14.27-2.5Zm-8.78,12.72c1.68,2.13,1.53,4.51-.67,5.9-2.02,1.28-4.55,1.73-7.41,2.74,1.42-5.89,.97-8.91-1.31-9.17-1.16-.13-2.51,1.4-3.93,2.28,.03-.14-.06-1.07,.35-1.63,2.64-3.59,10.19-3.65,12.97-.12Z"/>
      <path d="M7.54,41.93c.27-3.49,.71-6.77,4.2-8.82,.83-.49,1.46-2.02,1.47-3.08,.04-4.85,2.3-8.09,6.61-10.08,.37-.17,.7-.52,.95-.86,4.02-5.6,9.57-9.49,15.06-13.42,1.75-1.26,2.03-2.63,1.03-4.38-1.15-2.04-2.65-1.21-4.12-.43C22.7,6.2,14.36,13.49,8.12,23.02,4.11,29.14,1.45,35.86,.39,42.94c2.2,.55,4.11,1.03,6.4,1.6,.24-.78,.69-1.68,.76-2.62Z"/>
      <path d="M42.46,51.45c-7.52,.74-14.99-.2-22.37-2.06-3.28-.82-6.8-.87-10.22-.92-2.05-.03-3.49,0-4.66-2.25-.49-.95-3.08-.82-4.71-1.19-.14,1.4-.87,3.24-.25,4.1,.69,.95,2.58,1.29,3.99,1.42,14.45,1.35,28.91,2.62,43.37,3.86,10.93,.94,21.86,1.79,32.79,2.68,1.77,.15,3.5,.26,3.95-2.4-3.21-.19-6.22-.28-9.22-.56-10.88-1.05-21.58-3.78-32.68-2.69Z"/>
    </g>
  </g>
</svg>