<?xml version="1.0" encoding="UTF-8"?>
<svg id="_图层_2" data-name="图层 2" xmlns="http://www.w3.org/2000/svg" viewBox="0 0 153.56 127.47">
  <defs>
    <style>
      .cls-1 {
        fill-rule: evenodd;
      }
    </style>
  </defs>
  <g id="_图层_2-2" data-name=" 图层 2">
    <g>
      <path class="cls-1" d="M44.79,75.3l-.07-1.59-3.38,1.59c-.41-1.76-.98-2.31-.98-4.43l-.16-1.5,1.14-9.82v-7.38c0-1.71-3.03-4.92-5.41-4.92h-.49c-4.57,0-6.24,2.97-8.49,5.4l1.6-10.32c4.34-1.01,10.83-8.7,10.83-14.27v-2.46c0-3.24-1.73-6.4-4.92-6.4h-1.48c-5.73,0-7.46,6.88-8.79,11.39-2.28,7.68,.48,10.88-7.45,12.73v-2.46c0-4.51,.97-8.37-4.43-8.37h-1.97c.13,1.54,.49,1.75,.49,3.45v.98c0,6.71-.19,9.84-6.89,9.84H.49c-.32,1.32-.49,.93-.49,1.97,0,.69,.67,.98,1.48,.98l1.98,.11,5.44-.6-2.01,18.2v4.92c0,4.19,1.87,9.35,5.91,9.35l1.74,.04-1.25-8.9c-1.13-6.8,2.46-19.21,2.41-25.72l5.45-2.33-1.95,20.67v5.91c0,2.66,1.1,7.38,3.45,7.38h2.46v-7.38c0-6.53,3.6-21.02,9.84-21.16,.26,1.1,.49,1.13,.49,2.46,0,8.33-3.89,27.07,4.92,27.07h.49c1.66,0,3.94-2.2,3.94-4.43Zm-15.75-39.37c0-4.19,2.58-11.79,5.41-13.29,.77,.51,1.48,.65,1.48,1.97v2.95c0,3.87-4,9.56-6.89,10.34v-1.97Z"/>
      <path class="cls-1" d="M100.4,48.73c0,2.92,1.38,7.87,3.94,7.87h1.97v-4.92c0-3.67,1.05-11.07,2.46-13.29,.16,7.39,5.2,18.7,12.8,18.7h.49c2.79,0,6.4-1.89,6.4-4.43,0-1.88,.15-.18-.49-1.48-1.07,.71-1.64,1.48-3.45,1.48h-.49c-4.17,0-11.02-10.7-11.32-14.27,3.7-.31,9.84-5.37,9.84-9.35v-2.46c0-1.91-2.7-3.94-4.92-3.94h-.49c-4.53,0-6.32,5.39-8.29,6.9l3.37-21.67v-1.97c0-2.89-.96-5.91-3.94-5.91h-.98c-2.33,0-3.6,17.32-4.13,20.48-1.09,6.47-2.76,15.58-2.76,22.34v5.91Zm15.26-22.15c.69,0,.98,.67,.98,1.48v1.97c0,3.72-5.45,6.25-7.87,7.87,.7-3.01,3.88-11.32,6.89-11.32Z"/>
      <path class="cls-1" d="M147.65,50.2h-.98c-1.61,0-1.48,.88-1.48,2.46-1.1-.26-1.13-.49-2.46-.49h-.49c-4.94,0-9.35,7.12-9.35,11.81v6.89c0,3.62,3.01,8.86,6.4,8.86,5.78,0,5.16-4.34,7.4-6.89l.96,15.26v6.89c0,3.8-1.15,7.87-4.92,7.87-3.1,0-3.45-4.45-3.45-7.87-.4-.28-1.22-.98-1.48-.98-.81,0-1.48,.29-1.48,.98,0,5.33,1.25,10.83,6.4,10.83h.49c7.87,0,10.34-12.29,10.34-20.67v-2.46c0-7.65,.3-32.48-5.91-32.48Zm-5.91,25.1c-1.33-.97-1.97-2.64-1.97-4.92v-2.95c0-4.83,1.08-11.38,3.94-13.29l.89,1.08,.68,10.23c.06,2.34-2.25,8.9-3.54,9.85Z"/>
      <path class="cls-1" d="M59.55,73.83h-2.46v1.97c-2.09-.56-.86-.98-2.46-.98h-1.48c-7.24,0-11.32,10.05-11.32,17.72v.49c0,3.52,1.97,8.37,4.92,8.37h.98c5,0,4.69-2.89,6.89-5.41,0,8.35-.74,29.04-7.87,29.04-1.55,0-3.67-2.96-3.5-4.44l.59-4.5-2.5-.91c-.26,1.1-.49,1.13-.49,2.46v4.43c0,2.58,2.2,5.41,4.92,5.41h1.97c8.24,0,10.05-11.28,11.81-18.21,1.27-5.01,3.45-21.28,3.45-27.07v-1.97c0-2.75-.96-6.4-3.45-6.4Zm-3.45,5.41c0,5.47-2.87,17.14-6.89,18.21-.26-1.1-.49-1.13-.49-2.46v-.98c0-4.78,2.98-16.73,6.4-16.73,.69,0,.98,.67,.98,1.48v.49Z"/>
      <path class="cls-1" d="M45.28,59.55v2.95c0,3.62,3.01,8.86,6.4,8.86,4.93,0,7.43-3.85,8.37-7.87,2.27,1.66,1.68,3.94,6.4,3.94,1.33,0,1.36-.24,2.46-.49-1-1.89-1.97-4.49-1.97-7.38v-1.97c0-2.92,.15-7.52,.67-10.16,.4-2,2.58-8.05-.18-8.05h-3.94c-1.15,0-1.97,.82-1.97,1.97v1.48c-2.09-.56-.86-.98-2.46-.98h-1.97c-7.04,0-11.81,10.73-11.81,17.72Zm7.87,0c0-4.64,2.95-14.93,6.89-15.26,.58,6.93-.99,21.2-6.4,22.64-.26-1.1-.49-1.13-.49-2.46v-4.92Z"/>
      <path class="cls-1" d="M78.75,56.6c0-6.51,2.78-18.7,8.86-18.7,1.93,0,2.46,2.43,2.46,4.43l.16,1.49-1.14,12.78v2.46c0,1.87,1.7,4.92,3.45,4.92h3.45c-.4-1.72-.98-1.66-.98-3.45v-6.89c0-3.15,.98-3.75,.98-6.89v-6.89c0-3.58-2.58-7.38-5.91-7.38-6.14,0-7.48,4.8-10.34,6.89,0-5.28-.68-7.38-5.91-7.38h-1.97c.4,1.72,.98,1.66,.98,3.45l.16,6.91-1.14,11.3v4.43c0,3.24,1.73,6.4,4.92,6.4h1.97v-7.87Z"/>
      <path class="cls-1" d="M131.41,71.37c.02-5.09-1.17-11.81-5.91-11.81h-.98c-4.33,0-6.29,4.5-8.37,6.89l-.49-3.94c-1.1-.74-1.73-1.97-2.95-1.97h-4.43c1.67,6.25,1.97,7.49,1.97,15.75,0,5.56-.43,13.29,4.92,13.29h2.12s-.64-8.86-.64-8.86c-.41-5.77,1.48-16.24,6.4-16.24,6.47,0-.91,23.62,6.89,23.62h.49c1.33,0,1.36-.24,2.46-.49-1.51-6.46-1.51-7.96-1.48-16.24Z"/>
      <path class="cls-1" d="M133.38,48.23h.49c3.93,0,9.35-5.42,9.35-9.35,0-10.31-12.3-14.16-12.3-16.73,0-1.51,.46-2.95,1.97-2.95h1.48c2.95,0,1.21,3.94,3.94,3.94h1.48c0-3.72-1.94-7.38-5.41-7.38h-1.48c-2.77,0-6.4,3.13-6.4,5.91v2.46c0,5.6,9.35,10.63,9.35,16.24,0,1.39-1.56,3.45-2.95,3.45h-.98c-3.84,0-.83-5.78-6.4-5.91v2.95c0,3.73,3.69,7.38,7.87,7.38Z"/>
      <path class="cls-1" d="M87.61,95.48c-6.45,0,.36-22.22-5.92-21.25l-3.92,.58v10.34c0,6.28,.89,14.27,6.89,14.27h.98c6.78,0,8.03-6.57,8.98-12.68,.52-3.35,.1-6.68,.37-10.46,.22-2.97,1.41-6.69,1.48-9.84h-1.48c-5.42,0-.86,29.04-7.38,29.04Z"/>
      <path class="cls-1" d="M68.9,78.75h-1.48v1.97l-1.48,12.8v3.94c0,5.01,2.22,5.91,7.38,5.91-.51-.97-.98-1.45-.98-2.95l-.23-6.43,1.7-12.77c-1.11-1.65-2.16-2.46-4.92-2.46Z"/>
      <path class="cls-1" d="M88.6,101.45l-4.93,.37v18.77c0,1.51,.46,2.95,1.97,2.95,4.95,0,8.37-5.39,8.37-10.34,0-4.32-1.46-12.11-5.41-11.75Zm-1.48,19.63v-12.8c0-2.31-.88-7.61,1.89-3.38,1.03,1.56,1.55,4.77,1.55,7.32s-.99,8.59-3.45,8.86Z"/>
      <path class="cls-1" d="M106.31,94.99h2.95c-.15-1.82-1.06-2.48-1.65-4.25-.37-1.09-.61-4.33-.81-5.59-.62-3.87-.49-7.78-.49-12.3-.56-.84-1.07-1.97-2.46-1.97h-2.46c-2.34,0-1,10.55-1,13.79,0,4.37,1.74,10.32,5.92,10.32Z"/>
      <path class="cls-1" d="M47.74,36.42h1.48c.26-1.1,.49-1.13,.49-2.46v-6.89h2.46c.63,2.72,.53,8.86,3.45,8.86,2.65,0,.63-2.28,.48-4.42-.18-2.57-.28-4.34-.47-6.42-.33-3.67-.76-9.03-4.52-9.33l.68,6.38-.14,3.36-2.35,.58-.57-7.38-.99-1.96h-1.97c-.23,.98-.56,1.38-.76,2l1.74,15.72,.99,1.96Z"/>
      <path class="cls-1" d="M99.91,97.94h-1.37s-.71,14.27-.71,14.27l.12,7.39c1.39-.12,1.97,.01,1.97-1.48v-4.92c6.75-.56,.93,2.41,6.88,6.37l1.49-.47c-.12-1.41-2.48-9.28-3.16-11.6-.81-2.73-2.43-9.56-5.2-9.56Zm-.49,13.78v-8.86h.98l2.07,8.83-3.05,.03Z"/>
      <path class="cls-1" d="M114.19,107.29c-1.36-1.96-2.9-10.34-5.41-10.34l-1.74,.09,4.92,14.27,1.25,8.27c1.11-.3,1.97-.47,1.97-1.97v-2.46c0-6.43-.35-3.68,.95-9.38,.61-2.68,2.43-6.22,2.49-8.83-2.64,.22-4.19,7.47-4.43,10.34Z"/>
      <path class="cls-1" d="M61.52,23.62h2.95c.04,1.88,1.43,5.91,2.95,5.91,2.58,0-.76-7.96-1.38-10.43-.99-3.94-1.34-8.66-6-8.76V29.53h1.48v-5.91Zm0-7.87l2.29,6.8-2.29,.09v-6.89Z"/>
      <path class="cls-1" d="M84.16,28.05c.26-1.1,.49-1.13,.49-2.46v-4.92c2.64-.62,3.94-2.17,3.94-5.41v-1.48c0-1.8-1.36-3.94-2.95-3.94h-3.45c-1.13,0-1.48,.34-1.48,1.48v3.94c0,3.46,.24,12.53,3.45,12.8Zm1.97-11.81v1.48c0,1.5-.85,1.67-1.84,1.96l-.69-8.84c2.46,.26,2.53,2.91,2.53,5.41Z"/>
      <path class="cls-1" d="M74.32,26.09v-7.38c3.18-.26,4.43-2.55,4.43-5.91v-.49c0-1.69-1.28-4.43-2.95-4.43h-3.45c-1.13,0-1.48,.34-1.48,1.48v4.92c0,3.11,.27,4.16,.51,6.88,.25,2.93,.02,4.87,2.94,4.94Zm1.37-16.23l.6,4.41c.17,1.15-.36,1.31-.51,2.89l-1.95,.55,.11-4.45-.66-4.4,2.41,.99Z"/>
      <path class="cls-1" d="M100.9,6.89c-2.78,.3-3.84,5.82-4.43,8.37-2.14-3.08-.78-9.25-5.41-9.35,0,2.98,1.21,5.18,1.78,8.06,.99,5.04,.68,3.88,.68,8.67,0,1.7,.36,1.91,.49,3.45,4.41-.37,1.29-5.87,3.11-9.69,.95-1.99,3.62-7.51,3.78-9.5Z"/>
      <path class="cls-1" d="M71.37,68.9c-1.67,0-3.45,1.78-3.45,3.45,0,2.19,1.99,4.43,3.94,4.43,1.67,0,3.45-1.78,3.45-3.45,0-2.39-1.63-4.43-3.94-4.43Z"/>
      <path class="cls-1" d="M106.31,64.97c0-1.8-1.36-3.94-2.95-3.94h-.98c-2.3,0-3.45,1.15-3.45,3.45v.49c0,1.44,2.45,3.45,3.94,3.45,2.3,0,3.45-1.15,3.45-3.45Z"/>
    </g>
  </g>
</svg>