<?xml version="1.0" encoding="UTF-8"?>
<svg id="_图层_2" data-name="图层 2" xmlns="http://www.w3.org/2000/svg" viewBox="0 0 77.98 71.26">
  <defs>
    <style>
      
    </style>
  </defs>
  <g id="_图层_2-2" data-name=" 图层 2">
    <g>
      <path class="cls-1" d="M76.91,68.63c-.82-.09-1.65-.06-2.48-.09-.19,0-.38-.02-.61-.03,.04-.16,.08-.26,.1-.37,.15-.69,.41-1.38,.42-2.08,.05-3.41,.02-6.83,.02-10.24,0-2.68,0-5.37,0-8.05,0-.27,.08-.36,.36-.38,.35-.02,.7-.08,1.03-.17,.97-.24,1.98-1.42,2.01-2.4,.04-1.71,.07-3.42,.06-5.14,0-.47-.09-.95-.23-1.4-.3-1-1.47-1.86-2.5-1.87-5.21-.03-10.42-.07-15.63-.08-4.06,0-8.12,.04-12.17,.06-4.48,.01-8.96,0-13.44,.03-.35,0-.72,.11-1.04,.26-1.22,.57-1.7,1.63-1.73,2.9-.04,1.54-.03,3.09,0,4.63,.03,1.79,1.29,3.1,3.05,3.16,.38,.01,.46,.12,.46,.49-.01,5.69,0,11.38,0,17.07,0,1.16-.07,2.33,.57,3.46-.18,.03-.27,.06-.36,.07-2.15,.02-4.29,.04-6.44,.07-.37,0-.52-.1-.52-.5,.01-1.98,0-3.96,0-5.94,0-4.41,0-8.82,0-13.23,0-3.62,0-7.25,0-10.87,0-.33,.1-.43,.44-.43,.57,0,1.15-.03,1.71-.11,.58-.07,.84-.44,.92-.89,.13-.65-.12-1.25-.6-1.45-.29-.12-.62-.2-.93-.21-1.12-.02-2.25-.02-3.37,0-.38,0-.5-.1-.5-.49,.02-2.82,.01-5.65,0-8.47,0-.38,.11-.47,.48-.47,2.63,.01,5.25,0,7.88,0,1.9,0,3.79,0,5.69,0,.35,0,.47,.11,.45,.46-.03,.39-.01,.79,0,1.18,0,1.98,0,3.96,0,5.94,0,.57,.45,1.12,.94,1.2,.72,.12,1.27-.15,1.48-.78,.09-.27,.12-.57,.12-.86,0-2.22,0-4.44,0-6.66,0-.33,.06-.47,.43-.47,6.03,0,12.05,0,18.08,0,1.47,0,1.83,.36,1.82,1.84,0,.01,0,.03,0,.04,0,1.85,0,3.71,0,5.56,0,.26,.05,.54,.17,.77,.26,.52,.88,.73,1.49,.56,.49-.13,.81-.6,.81-1.24,0-2.23,0-4.47-.03-6.7,0-.36-.1-.76-.26-1.09-.71-1.48-1.91-2.26-3.56-2.28-.98-.01-1.97,0-2.95,0-.15,0-.3-.02-.43-.02,.05-.52,.13-.98,.13-1.45,0-3.23,0-6.46,0-9.69,0-.93,0-1.85,0-2.78,0-.2,.01-.33,.28-.36,1.3-.15,2.15-1.12,2.22-2.4,.06-1.22,.06-2.44,0-3.66-.06-1.32-1.1-2.4-2.53-2.4-3.64,0-7.27-.04-10.91-.04-2.91,0-5.81,.04-8.72,.04-3.09,0-6.18,0-9.27,0-1.37,0-2.39,1.1-2.44,2.34-.05,1.28-.07,2.56,.01,3.83,.08,1.23,.86,2.03,1.98,2.25,.46,.09,.52,.23,.52,.63-.01,3.15-.03,6.29,0,9.44,.01,1.41-.15,2.82,.16,4.27-.19,0-.34,0-.49,0-.83,0-1.66,0-2.49,0-7.57,0-15.14,0-22.71,0-.41,0-.84,.09-1.22,.25-1.62,.66-2.46,1.88-2.47,3.64-.02,2.26-.02,4.52,0,6.78,0,1.38,.56,2.49,1.72,3.28,.81,.54,1.72,.62,2.65,.59,.57-.02,.58,0,.58,.56,0,8.89-.01,17.78,.02,26.67,0,.75,.23,1.51,.45,2.24,.15,.52,.46,.99,.72,1.53-.15,.02-.25,.04-.36,.04-.67,0-1.35,0-2.02,0-.91,.01-1.83-.02-2.73,.07-.88,.09-1.29,1.07-.84,1.84,.23,.4,.57,.58,1.04,.58,3.72,0,7.44,0,11.16,0,6.74,.01,13.48,.03,20.22,.05,4.11,.01,8.23,.03,12.34,.03,4.77,0,9.55,.02,14.32,0,3.93-.01,7.86-.06,11.8-.08,1.83-.01,3.65,0,5.48-.01,.64,0,1.07-.46,1.13-1.12,.05-.62-.31-1.2-.91-1.27ZM49.28,5.61c.02-.84,.02-1.69,0-2.53,0-.3,.1-.38,.39-.38,1.35,.01,2.7,0,4.04,0,0,0,0,0,0,0,1.33,0,2.67,0,4,0,.36,0,.5,.1,.48,.48-.03,.87-.02,1.74,0,2.61,0,.29-.09,.39-.39,.39-2.68-.03-5.36-.06-8.04-.06-.4,0-.5-.14-.49-.51Zm-1.17,10.23c0-2.2,0-4.41,0-6.61,0-.41,.13-.53,.53-.52,2.2,.01,4.41,0,6.61,0,.35,0,.47,.1,.47,.45-.01,2.98,0,5.95,0,8.93,0,1.14,0,2.27,0,3.41,0,.99-.49,1.46-1.48,1.46-1.88,0-3.76,0-5.64,0-.37,0-.48-.09-.48-.47,.02-2.22,0-4.44,0-6.65Zm-2.5,.09c0,2.2,0,4.41,0,6.61,0,.31-.08,.42-.4,.42-.95-.02-1.91-.02-2.86,0-.34,0-.42-.12-.42-.44,0-4.42,0-8.85,0-13.27,0-.38,.14-.48,.49-.47,.91,.02,1.83,.02,2.74,0,.35,0,.46,.11,.45,.46-.01,2.23,0,4.47,0,6.7Zm-4.82-12.84c0-.29,.13-.36,.38-.35,.87,0,1.74,0,2.61,0h0c.86,0,1.71,.01,2.57,0,.3,0,.43,.08,.42,.4-.02,.85-.01,1.71,0,2.57,0,.28-.08,.4-.38,.4-1.74-.01-3.48-.01-5.22,0-.31,0-.38-.13-.38-.4,.01-.87,.01-1.74,0-2.61Zm-1.84,5.62c.37,0,.53,.09,.52,.5-.02,2.22,0,4.44,0,6.65,0,2.22,0,4.44,0,6.65,0,.34-.09,.46-.45,.45-1.9-.02-3.79,0-5.69-.01-.96,0-1.46-.49-1.48-1.48-.02-1.24-.01-2.47-.01-3.71,0-2.79,0-5.59,0-8.38,0-.68,0-.67,.66-.67,2.15,0,4.3,0,6.44,0Zm-9.56-3.02c.02-.86,.02-1.71,0-2.57,0-.32,.08-.45,.43-.45,2.7,.01,5.39,.02,8.09,.01,.28,0,.4,.09,.4,.39-.01,.88-.01,1.77,0,2.65,0,.29-.09,.39-.39,.39-1.36-.01-2.72,0-4.09,0,0,0,0,.02,0,.02-1.33,0-2.67-.01-4,0-.35,0-.46-.11-.45-.45ZM4.13,34.99c-1,0-1.5-.51-1.5-1.5,0-2.16,0-4.32,0-6.49,0-.61,.18-1.15,.79-1.41,.21-.09,.46-.1,.7-.1,2.19,0,4.38,0,6.57,0,.86,0,1.71,0,2.57,0h0c3.09,0,6.18,0,9.27,0,.33,0,.47,.07,.46,.44-.02,2.85-.02,5.7,0,8.55,0,.38-.12,.47-.48,.47-4.9-.01-9.8-.02-14.7-.01-1.22,0-2.44,.05-3.66,.06Zm21.2,11.41c0,2.23,0,4.47,0,6.7,0,4.96,0,9.91,0,14.87,0,.57,0,.57-.59,.57-3.89,0-7.78,.01-11.67,0-.8,0-1.61,.03-2.39-.11-1.1-.19-1.94-.83-2.51-1.8-.37-.62-.53-1.3-.53-2.04,.01-6.09,0-12.19,0-18.28,0-2.74,0-5.48,0-8.21,0-.57,0-.57,.55-.57,5.17,0,10.33,0,15.5,0,.41,0,.81,.04,1.22,.02,.35-.01,.42,.13,.42,.45,0,2.79,0,5.59,0,8.38Zm9.04-1.53c-.62,0-.76-.14-.76-.77,0-1.46,0-2.92,0-4.38,0-.64,.17-.82,.82-.82,1.89,0,3.79,0,5.68,0,2.2,0,4.41,.01,6.61,0,.41,0,.53,.12,.52,.52-.02,1.61,0,3.23,0,4.84q0,.6-.58,.6c-2.03,0-4.07,0-6.1,0,0,0,0,0,0,0-2.06,0-4.13,0-6.19,0Zm14.5,13.09c0,3.31,0,6.63,0,9.94,0,.55,0,.56-.55,.56-3.03,0-6.07-.01-9.1,0-1,0-2.04-.99-2.06-2.05-.03-2.13-.01-4.27-.01-6.4,0-4.03,0-8.06,0-12.09,0-.41,.11-.51,.51-.51,3.53,.02,7.05,0,10.58,0,.65,0,.65,0,.65,.64,0,3.3,0,6.6,0,9.9h0Zm8.7,9.84c0,.66,0,.66-.67,.66-1.7,0-3.4,0-5.1,0-.34,0-.46-.07-.46-.44,.01-3.37,0-6.74,0-10.11h0c0-3.35,0-6.71,0-10.06,0-.36,.11-.45,.45-.44,1.78,.01,3.57,.01,5.35,0,.33,0,.43,.1,.43,.43-.01,4.01,0,8.03,0,12.04,0,2.64,0,5.28,0,7.92Zm1.18-22.93c-1.42-.01-2.84,0-4.25,0-1.43,0-2.86-.01-4.3,0-.36,0-.45-.12-.45-.46,.01-1.67,.01-3.34,0-5.01,0-.33,.09-.44,.43-.44,2.86,.01,5.73,.01,8.59,0,.32,0,.44,.07,.44,.42-.02,1.68-.02,3.37,0,5.05,0,.37-.14,.44-.47,.44Zm3-5.51c0-.33,.08-.46,.44-.46,4.1,.01,8.2,0,12.3,0,.71,0,.88,.17,.88,.86,0,1.4,0,2.81,0,4.21,0,.73-.16,.9-.88,.9-2.02,0-4.04,0-6.06,0h0c-2.06,0-4.13-.02-6.19,0-.4,0-.49-.12-.49-.5,.02-1.67,.01-3.34,0-5.01Zm10.1,26.81c0,1.17-.98,2.33-2.23,2.32-3.05-.04-6.09-.03-9.14-.02-.38,0-.4-.18-.4-.46,0-3.37,0-6.74,0-10.11h0c0-3.31,0-6.63,0-9.94,0-.42,.11-.55,.54-.54,3.62,.02,7.25,.01,10.87,0,.3,0,.38,.1,.38,.39,0,6.12,0,12.24,0,18.37Z"/>
      <path class="cls-1" d="M10.54,16.26c.53,.12,1.07,.17,1.61,.25,.3,.04,.44,.23,.5,.49,.07,.31,.14,.63,.19,.94,.17,1.1,1,2.08,1.98,2.32,1.3,.32,2.44-.06,3.14-1.1,.31-.46,.54-.98,.75-1.49,.16-.37,.41-.46,.77-.4,.41,.07,.83,.13,1.24,.19,2.25,.05,3.67-2.37,2.58-4.27-.29-.51-.79-.9-1.21-1.32-.54-.55-.53-.53-.22-1.24,.24-.56,.55-1.15,.58-1.73,.11-2.24-2.15-3.67-4.15-2.68-.4,.2-.79,.43-1.17,.65-.24,.13-.44,.11-.64-.08-.28-.27-.58-.53-.88-.79-.59-.52-1.27-.75-2.07-.74-1.35,.03-2.67,1.2-2.7,2.64-.01,.58,.13,1.16,.25,1.73,.12,.52,.11,.62-.35,.88-.28,.16-.56,.32-.84,.48-.87,.5-1.38,1.21-1.5,2.23-.16,1.41,.72,2.73,2.12,3.04Zm.6-3.06c.45-.3,.94-.56,1.39-.86,.89-.59,1.35-1.86,1.09-2.89-.1-.41-.17-.82-.23-1.23-.02-.13,.05-.37,.12-.39,.16-.03,.37,0,.5,.08,.27,.2,.49,.46,.74,.68,.69,.61,1.48,1.05,2.4,.86,.61-.12,1.18-.47,1.76-.73,.17-.07,.31-.21,.48-.25,.14-.04,.35-.03,.45,.05,.08,.06,.08,.29,.03,.42-.13,.37-.3,.72-.47,1.07-.65,1.41-.25,2.58,.85,3.58,.17,.15,.33,.3,.51,.44,.2,.17,.49,.36,.32,.65-.08,.15-.38,.17-.58,.25-.01-.02-.02-.04-.03-.07-.2-.02-.4,0-.59-.05-1.52-.38-2.96,.47-3.5,1.9-.1,.27-.22,.55-.36,.8-.08,.14-.24,.24-.37,.36-.13-.15-.33-.27-.39-.44-.11-.3-.15-.62-.2-.94-.18-1.25-1.13-2.4-2.69-2.49-.36-.02-.73-.08-1.08-.16-.14-.03-.34-.14-.37-.25-.03-.11,.09-.32,.2-.4Z"/>
      <path class="cls-1" d="M66.43,22.89c.82-.21,.91-.16,1.28,.53,.09,.17,.19,.34,.27,.52,.5,1,1.34,1.53,2.42,1.53,1.07,0,1.96-.51,2.4-1.54,.22-.51,.32-1.07,.4-1.62,.05-.34,.19-.46,.49-.5,.37-.05,.75-.09,1.12-.17,.93-.18,1.56-.74,1.91-1.6,.39-.96,.29-1.91-.42-2.66-.44-.46-1.04-.79-1.59-1.12-.28-.17-.38-.3-.35-.65,.06-.7,.3-1.36,.09-2.11-.39-1.44-2.27-2.45-3.69-1.68-.52,.28-.97,.7-1.41,1.11-.26,.24-.44,.29-.77,.12-.64-.34-1.25-.78-2.03-.72-.21,.02-.43,0-.63,.06-1.47,.44-2.49,1.83-1.84,3.63,.12,.34,.3,.66,.46,.98,.14,.28,.14,.52-.13,.74-.27,.22-.52,.47-.75,.73-1.08,1.25-.9,2.73,.14,3.77,.71,.71,1.62,.91,2.61,.65Zm-.67-2.96c.42-.5,.93-.96,1.22-1.52,.38-.73,.29-1.55-.07-2.31-.13-.28-.29-.54-.41-.82-.04-.1,0-.23-.01-.35,.12,0,.25-.02,.35,.03,.46,.2,.9,.45,1.37,.63,1.02,.39,1.89,.05,2.67-.62,.26-.23,.49-.5,.75-.74,.07-.07,.19-.1,.28-.15,.04,.11,.12,.22,.11,.33-.04,.42-.13,.83-.17,1.24-.13,1.29,.45,2.18,1.56,2.76,.24,.12,.48,.23,.7,.37,.1,.07,.17,.2,.25,.31-.11,.05-.22,.13-.34,.16-.59,.14-1.23,.19-1.78,.43-1.08,.47-1.43,1.46-1.57,2.55-.03,.25-.12,.49-.18,.73-.05,0-.11,0-.16,0-.15-.29-.32-.57-.45-.86-.7-1.52-1.85-2.09-3.48-1.73-.28,.06-.59,.04-.88,.05-.02-.04-.03-.09-.05-.13,.1-.12,.2-.24,.3-.36Z"/>
    </g>
  </g>
</svg>