<?xml version="1.0" encoding="UTF-8"?>
<svg id="_图层_2" data-name="图层 2" xmlns="http://www.w3.org/2000/svg" viewBox="0 0 71.31 110.98">
  <defs>
    <style>
      .cls-1 {
        fill-rule: evenodd;
      }
    </style>
  </defs>
  <g id="_图层_2-2" data-name=" 图层 2">
    <path class="cls-1" d="M66.1,34.35h-2.08c-3.33,0-3.96,1.04-7.29,1.04,.87-3.73,4.68-6.51,4.68-11.97,0-3.76-4.45-8.33-8.85-8.33h-3.12c-.49-5.88-4.14-15.09-10.93-15.09h-1.04l-5.73,.15-.52-.15c-2.02,0-3.23,2.38-3.64,4.16-1.17-.27-1.2-.52-2.6-.52h-1.56c-7.74,0-4.64,12.7-7.29,17.7-2.8-.23-3.8-1.56-6.77-1.56h-.52c-4.47,0-7.29,2.88-7.29,7.29v3.12c0,6.72,7.49,13.86,7.81,17.7l-5.71-.64c-2.08-.14-3.66,2.81-3.66,4.8v3.12c0,13.71,20.29,10.26,20.82,16.66h-3.64c-1.6,0-3.12,.48-3.12,2.08v1.56c0,4.99,12.03,8.79,13.01,13.01h-6.77c.52,6.25,7.21,6.67,9.37,9.89-.14,1.63-.52,1.85-.52,3.64,0,.4,1.29,2.2,1.56,2.6l2.1-.35c-.26,2.56-.28,5.25-.28,6.71h1.56c1.2,0,1.56-.36,1.56-1.56v-3.65c.42,.52,.96,.93,1.82,.93,2.37,0,9.89-7.62,9.89-9.89v-.52c0-1.47-1.19-2.01-2.08-2.6-15.53,0,4.68-6.18,4.68-11.45v-1.04c0-3.17-4.55-2.58-6.77-3.64,1.13-4.22,20.82-8.39,20.82-15.62v-1.04c0-2.34-3.65-2.6-6.25-2.6,3.48-3.02,13.53-5.92,13.53-13.53v-5.2c0-2.62-2.59-5.2-5.21-5.2Zm-21.34,61.94v.52c-4.63,0-6.57,1.37-9.13,3.13-.03-.39-.1-.65-.18-.91,2.9-1.96,4.03-2.74,9.32-2.74Zm-9.89-33.83v13.01c3.77-2.52,6.38-5.68,11.1-8.16,2.37-1.24,10.85-5.17,13.36-5.38-2,2.73-18.15,6.18-24.46,15.62v9.37c3.92-2.08,6.37-4.16,12.49-4.16v1.04h-2.08c-3.79,0-8.81,2.82-10.41,5.21v9.1c-.42,.23-.76,.7-1.04,1.35v-4.2l-4.98-4.32,.34-.44,4.52,2.86,.12-9.04-13.2-8.02,.42-.7,12.9,7.49c-.11-14.47-.06-13.04-10.34-18.73-3.84-2.12-17.53-7.17-17.88-11.27,5.51,3.69,7.88,5.24,14.4,8.5,6.33,3.17,8.58,5.24,13.71,8.67v-14.57c-4.55-6.8-24.79-21.86-24.98-30.71,.75,.55,3.74,6.7,5.11,8.43,1.88,2.38,4.3,4.89,6.47,7.06,2.45,2.45,11,12.5,13.4,13.14v-12.49c0-2.28-7.92-6.95-8.85-10.93l8.63,8.55,.22-11.67c-4.31-1.15-11.45-12.57-11.45-18.74,1.01,.74,4.28,12.9,11.45,17.7V5.2h1.04v11.45c4.76-1.27,5.99-9.6,7.81-10.93-.1,4.31-4.53,11.1-7.81,11.97v13.01l10.57-9.19c-.41,2.81-8.56,9.7-10.57,10.23v13.01c5.42-1.26,19.13-17.67,19.26-23.42h1.04c-.55,6.57-14.35,23.08-20.3,24.46v14.57c5.48-3.67,8.52-6.7,15.26-10.24,3.22-1.69,5.28-2.89,8.34-4.67,2.26-1.32,5.16-4.86,7.11-5.38-6.3,9.4-24.28,12.77-30.71,22.38Z"/>
  </g>
</svg>