<?xml version="1.0" encoding="UTF-8"?>
<svg id="_图层_2" data-name="图层 2" xmlns="http://www.w3.org/2000/svg" viewBox="0 0 189.58 148.22">
  <defs>
    <style>
      .cls-1 {
        fill-rule: evenodd;
      }
    </style>
  </defs>
  <g id="_图层_2-2" data-name=" 图层 2">
    <g>
      <path class="cls-1" d="M166.1,57.56c-1.59-2.39-1.34-5.28-5.24-5.28h-1.15c-4.51,0-4.81,1.65-8.04,1.72,.12-5.23,5.74-4.65,5.74-8.04,0-.49-1.23-1.72-1.72-1.72-.75,0-5.03,1.92-5.74,2.3l3.59-3.87-.83-1.83-3.91,1.68c-.54,.74-2.89,2.87-4.02,2.87h-4.02l-.42-.43,7.39-7.11-1.23-1.65h-1.72c-1.39,.93-3.41,4.02-5.17,4.02-1.55,0-1.58-.27-2.87-.57v-1.72c0-1.88,2.61-2.49,4.02-4.6-.6-.89-.76-1.72-2.3-1.72-1.27,0-5.26,5.16-7.47,5.74l3.98-6.92-2.26-1.7c-3.67,2.45-2.29,7.47-6.89,7.47h-1.72l-.51-.33,4.99-7.79-.45-1.64h-2.3c-2.31,3.46-4.01,7.54-8.62,8.62l3.76-9.65-2.85-1.4-2.06-.43c-5.52,0-5.02,5.79-9.77,6.89l-.7-5.15c.06-.46,4.03-4.04,.13-4.04-1.65,0-4.4,3.44-5.17,4.6l-3.27,2.1c-.72,1.96-1,2.86-3.62,3.07v-1.72c0-.88,2.36-4.4,2.87-5.17l-.6-2.87h-2.28c-2.02,0-2.47,2.3-4.02,3.44,.31-3.68,2.87-6.26,2.87-11.49v-2.3c0-1.34-.95-2.3-2.3-2.3h-.57c-5.77,0-5.17,14.58-5.17,21.26l-2.63,2.58-1.67-8.29c-.75-.74-.73-1.19-2.02-1.19-1.53,0-1.95,4.24-2.3,5.74l-1.15-.57c0-2,.35-3.45-1.72-3.45-1.64,0-1.38,9.43-1.72,10.92-2.93-.24-3.35-4.59-4.02-7.47-10.01,.83-5.96,4.28-8.04,13.21-2.61-.7-3.97-5.35-4.6-8.04l-2.91,1.06-.64,5.82h-.47c0-4.63-1.91-16.07-5.74-16.07-1.62,0-3.45,2.4-3.45,4.02,0,5.9,7.46,20.87,12.06,21.26l-.72-10.33c1.61,1.67,1.95,5.73,4.74,5.73h1.15c1.98,0,2.49-1.81,2.87-3.45l4.02,.57,2.33-3.56,2.84,.69,2.61-1.94c1.32,.02,.67,.21,1.99,.21,1.79,0,2.3-6.38,2.3-8.62,1.45,1.66,1.79,6.89,3.45,6.89s2.87-1.52,4.02-2.3v1.15h2.3l4.72-9.98c.21,3.05-1.85,3.71-1.85,7.1,0,.72,.87,2.3,2.3,2.3h1.15c2.71,0,2.3-1.11,4.6-1.72,.51,1.4,.66,1.72,2.87,1.72h1.72c2.24,0,4.27-.44,5.74-1.15,1.34,2.53,1.38,2.3,5.17,2.3-1.73,2.36-9.77,5.01-9.77,9.19,0,1.22,.21,.76,.57,2.3,2.28,.19,1.38,.57,2.87,.57,7.61,0,4.95-8.55,12.64-10.34,1.24,.83,1.91,1.72,4.02,1.72h.57c1.55,0,1.58-.27,2.87-.57v2.87h1.72c2.71,0,2.3-1.11,4.6-1.72l-.52,.49,3.64,3.83,.32,2.57,5.64,2.03c.14,1.53-.09,2.56,1.82,2.56,1.28,0,5.63-2.44,7.47-2.87-.93,1.39-4.02,3.41-4.02,5.17v.57c0,2.05,1.36,2.25,3.45,2.3v1.72c0,2.08,2.21,2.59,3.45,3.45l-7.45-.71-2.89,.13c-1.94,0-4.02,1.02-4.02,2.87v.57c0,1.38,2.06,3.45,3.45,3.45h2.87c3.81,0,5.65-2.3,7.47-2.3,3.08,0,3.96,1.15,7.47,1.15,.93,0,1.34-1.57,1.72-2.3l-6.34-.38,8.71-5.82ZM44.24,27h1.15l3.45,13.21c-2.24-2.58-4.6-8.37-4.6-13.21Zm21.26,12.06c-1.3-.35-2.3-.55-2.3-2.3v-4.02c0-1.59,.44-1.38,1.72-1.72,.07,3.03,1.15,3.38,1.15,5.74,0,1.21-.21,.76-.57,2.3Zm21.26-14.36v-2.3c0-3.65,.15-9.36,2.87-10.34,0,4.69-1.72,5.83-1.72,9.77,0,1.87-.3,1.89-1.15,2.87Zm16.09,6.89h-1.72c-.94,0-1.72-.34-1.72-1.15,0-1.16,2.54-2.39,3.45-2.87v4.02Zm4.02,12.64c.66-2.47,3.28-4.51,5.74-5.17-1.35,2.55-2.11,5.09-5.74,5.17Zm5.17-11.49c.09-4,1.88-6.13,5.17-6.89-.68,2.94-1.84,6.62-5.17,6.89Zm38.49,31.02c-1.8,.15-2.04,.57-4.02,.57h-1.72c-1.62,0-1.06-.25-1.72-1.15,1.29-.3,1.32-.57,2.87-.57h4.6v1.15Zm4.6-5.17c.25-2.95,2.1-3.45,5.17-3.45h2.3c-.54,2.02-3.32,3.45-5.74,3.45h-1.72Z"/>
      <path class="cls-1" d="M120.64,135.58c1.93-1.02,3.45-1.63,3.45-4.6v-1.15c0-5.03-16.81-13.58-21.45-15.89-4.45-2.21-21.96-10.72-23.93-13.41,.69-1.04,1.15-1.01,1.15-2.3,0-8.24-28.34-21.83-37.92-21.83h-2.3c-1.55,0-1.58,.27-2.87,.57,1.87,7,45.5,29.8,51.7,39.06l6.89,5.17,16.09,11.49,9.19,2.87Z"/>
      <path class="cls-1" d="M136.73,96.51c-1.21,0-.76-.21-2.3-.57v-2.3c0-1.52,9.31-7.77,10.92-8.62l3.63-3.23c-.56-.94-.97-2.51-1.9-2.51-3.1,0-12.87,9.77-16.66,9.77-1.32,0-1.72-.4-1.72-1.72,0-2.24,10.67-10.23,13.21-10.92l-.55-3.45-4.05,1.15c-.79,1.17-11.22,9.19-12.64,9.19-.51,0-1.15-.64-1.15-1.15,0-4.65,9.12-9.63,12.64-11.49l.68-1.68c-.46-.57-1.04-1.76-1.83-1.76-5.44,0-17.81,12.3-17.81,20.68v1.15c0,1.55,1.69,5.18,2.3,6.32l-19.89,13.82,.36,.55c2.58,.6,4.31,2.87,5.74,2.87,.58,0,15.32-11.35,17.23-12.64,1.71,.4,7.77,2.87,8.62,2.87,10.23,0,14.69-7.29,20.11-10.92,1.07-1.6,2.3-1.99,2.3-4.6,0-.08-.57-1.14-.57-1.15-4.43,1.18-10.39,10.34-16.66,10.34Z"/>
      <path class="cls-1" d="M106.28,62.04c.59-1.23,1.08-2.87-1.15-2.87-4.66,0-3.1,9.19-8.04,10.34v-4.6c0-2.22,1.04-4.31,.13-5.26-.09-.09-4.11-1.64-4.15-1.64h-.57c-5.68,0-5.7,10.67-10.92,12.06-.48-1-1.15-2.55-1.15-4.02,0-4.47,1.72-7.23,1.72-12.06v-1.15c0-3.19-.5-8.62-3.45-8.62-4.16,0-5.17,5.09-5.17,9.19v1.72l.66,6.31c-3.43,1.78-5.83,4.11-5.83,9.2,0,2.35,2.02,5.74,4.6,5.74,2.17,0,4.24-2.64,5.17-4.02,.91,.48,2.59,1.72,3.45,1.72,1.9,0,3.24-1.7,4.02-2.87,1.18,.79,1.49,1.72,2.87,1.72h1.15c3.3,0,2.5-1.58,5.17-2.3,.35,1.3,.55,2.3,2.3,2.3h.57c1.29,0,1.26-.45,2.3-1.15,1.24,.83,1.91,1.72,4.02,1.72,1.22,0,.76-.21,2.3-.57-1.05,2.91-10.92,6.44-10.92,11.49,0,1.22,.21,.76,.57,2.3,1.29,.3,1.32,.57,2.87,.57h1.72c4.39,0,6.73-5.53,7.95-8.71,1.63-4.27,8.71-4.34,8.71-7.95v-2.3l-6.61,4.95c.41-3.31,5.29-12.99,2.02-12.99-1.91,0-2.76,2.15-3.45,3.45-.68,2.94-1.84,6.62-5.17,6.89v-1.72c0-2.85,1.09-5.15,2.3-6.89Zm-32.17,10.34c-1.32,0-1.72-.4-1.72-1.72v-1.15c0-3.44,1.11-3.43,1.72-5.74l1.02,.03,1.28,5.14c-.91,1.9,0,3.45-2.3,3.45Zm5.17-13.21c0,1.87-.3,1.89-1.15,2.87l-1.38-10.89,.23-1.75c0-1.59,.44-1.38,1.72-1.72,.3,1.29,.57,1.32,.57,2.87v8.62Zm10.34,10.92v-3.45c0-2.93,2.06-4.71,4.02-5.74,0,4.06-.1,8.87-4.02,9.19Zm9.19,14.36c.26-3.08,3.69-5.62,6.32-6.32-1.42,2.68-2.3,6.23-6.32,6.32Z"/>
      <path class="cls-1" d="M70.09,132.13c0,2.44,3.13,5.17,5.74,5.17s16.94-11.25,18.38-13.21l-7.47-6.89c-3.87,.9-16.66,9.96-16.66,14.94Z"/>
      <path class="cls-1" d="M41.36,13.79c3.96,0,13.28,5.74,17.23,5.74h4.6c5.14,0,9.19-5.68,9.19-11.49v-.57c0-3.24-3.65-7.47-6.89-7.47h-1.15c-3.4,0-6.32,3.08-6.32,6.32,0,2.54,2.62,4.38,5.17,4.6-.3-3.65-2.87-2.08-2.87-4.02,0-2.72,2.33-4.6,4.6-4.6,2.96,0,5.74,3.31,5.74,5.74,0,4.49-3.81,9.19-8.04,9.19h-4.02c-5.44,0-12.03-5.74-20.68-5.74-14.21,0-25.85,11.31-25.85,25.28v1.72c0,3.56,1.8,9.49,5.17,9.77-.3-3.56-2.87-5.43-2.87-10.92v-2.3c0-9.56,11.45-21.26,20.11-21.26h6.89Z"/>
      <path class="cls-1" d="M127.54,19.53h.57c8.61,0,14.17-5.74,20.68-5.74h4.02c11.1,0,22.4,11.27,22.4,22.4,0,4.65-3.45,10.77-3.45,10.92,0,1.62,.25,1.06,1.15,1.72,2.28-1.67,4.02-6.91,4.02-10.92v-2.3c0-13.31-11.7-24.13-25.28-24.13h-1.15c-7.83,0-16.1,6.32-20.68,6.32h-1.15c-5.16,0-9.77-3.93-9.77-9.19v-.57c0-2.61,2.73-5.74,5.17-5.74,2.24,0,5.17,2.19,5.17,4.02,0,2.6-2.01,1.49-3.45,3.45,.29,.51,.37,1.15,1.15,1.15,2.25,0,4.02-2.14,4.02-4.6v-.57c0-2.89-2.86-5.74-5.74-5.74-4.31,0-8.04,2.8-8.04,6.89v4.02c0,4.49,5.61,8.62,10.34,8.62Z"/>
      <path class="cls-1" d="M88.47,38.49c-6.93,0-10.85,3.11-14.94,3.45l-8.04,5.74c-3.39,5.07-16.04,16.09-24.7,16.09-2.75,0-3.53-1.49-6.32-1.72,.27,3.19,3.61,3.45,6.89,3.45h2.3c13.76,0,23.77-24.7,43.09-24.7h5.74c4.75,0,7.72,2.76,8.04-1.15l-10.89-1.38-1.18,.23Z"/>
      <path class="cls-1" d="M40.21,32.17c0-.8-.78-1.15-1.72-1.15-1.91,0-13.79,12.6-13.79,16.66v1.72c0,1.34,.95,2.3,2.3,2.3s2.3-.95,2.3-2.3c0-1.1-1.15-.39-1.15-2.3,0-2.06,1.66-4.12,3.45-4.6,.78,3.36,8.5,16.19,10.92,17.81,.89-.6,1.72-.76,1.72-2.3s-10.05-15.66-11.49-17.81c1.49-2.23,7.47-5.89,7.47-8.04Z"/>
      <path class="cls-1" d="M149.94,112.6c0-2.26-1.87-4.6-4.6-4.6s-3.39,.75-3.45,3.45c2.53-.21,2.51-1.15,4.02-1.15,.7,0,1.72,1.19,1.72,2.3v1.72c0,1.83-2.93,4.02-5.17,4.02-6.65,0-7.77-6.89-14.36-6.89h-.57c-3.16,0-5.5,2.75-5.74,5.74,3.77-.31,2.09-3.45,5.17-3.45h1.15c4.48,0,9.07,6.89,13.21,6.89h1.72c3.53,0,6.89-4.44,6.89-8.04Z"/>
      <path class="cls-1" d="M71.24,117.19c-.07-3.26-2.56-5.74-5.74-5.74h-1.15c-5.52,0-6.88,6.89-13.79,6.89-2.84,0-5.17-2.33-5.17-5.17v-.57c0-1.34,.95-2.3,2.3-2.3,2.33,0,1.47,1.76,4.02,.57-.39-1.46-1.11-2.87-2.87-2.87h-1.72c-1.38,0-3.45,2.06-3.45,3.45v3.45c0,2.34,3.98,5.74,6.89,5.74h1.15c4.93,0,8.11-6.89,14.36-6.89,4.07,0,1.5,3.04,5.17,3.45Z"/>
      <path class="cls-1" d="M126.39,52.85h-1.72c-1.79,0-3.45,1.82-3.45,4.02v1.15c0,1.83,2.93,4.02,5.17,4.02h3.45c2.89,0,5.74-2.86,5.74-5.74,0-9.74-16.78-13.11-18.38-10.92,2.3,3.13,16.09,1.27,16.09,10.34,0,2.96-2.39,4.6-5.17,4.6-2,0-4.6-.82-4.6-2.87,0-3.23,2.54-.54,2.87-4.6Z"/>
      <path class="cls-1" d="M73.53,81.58c-5.73,0-11.49-6.57-10.69-3.15,.75,3.19,6.96,5.45,11.26,5.45,4.02,0,18.12-2.03,18.96-5.17-8.08,0-12.51,2.87-18.38,2.87h-1.15Z"/>
      <path class="cls-1" d="M72.96,141.32c-2.03,0-4.1-2.73-4.6-4.6-5.81,.48,1.36,6.89,6.32,6.89s13.11-5.21,13.21-9.77c-3.62,.3-7.65,7.47-13.21,7.47h-1.72Z"/>
      <path class="cls-1" d="M42.51,88.47c-.94-3.51-9.77-5.12-9.77-11.49,0-2.89,1.72-3.8,1.72-5.17,0-.08-.57-1.14-.57-1.15-2.14,1.43-3.45,2.74-3.45,6.32v.57c0,4.16,7.66,11.49,10.92,11.49,.08,0,1.14-.57,1.15-.57Z"/>
      <path class="cls-1" d="M119.49,139.6c-5.17,0-5.94-2.3-9.19-4.02l-.68,1.68c1.73,2.47,4.69,4.64,8.72,4.64h2.87c2.75,0,6.09-1.89,6.32-4.6l-3.45,.57c-1.08,.94-2.59,1.72-4.6,1.72Z"/>
      <path class="cls-1" d="M11.05,50.99c-1.65-1.66-4.45-7.11-6.46-7.33,0,6.84,8.05,13.21,14.94,13.21-.57-2.12-5.85-3.23-8.48-5.88Z"/>
      <path class="cls-1" d="M184.98,43.66c-3.79,.32-4.71,10.64-14.94,11.49v1.72c6.6,0,14.8-6.96,14.94-13.21Z"/>
      <path class="cls-1" d="M166.03,80.43c-2.09,1.45,0,5.86,0,9.19,0,3.86-4.05,5.93,.57,6.32,.58-2.48,1.72-3.15,1.72-6.32v-4.02c0-1.92-1.17-4.35-2.3-5.17Z"/>
      <path class="cls-1" d="M188.43,55.72c-.53,0-6.04,5.17-13.79,5.17,.34,1.28,.13,1.72,1.72,1.72h.57c3.91,0,12.64-3.32,12.64-5.74,0-.51-.64-1.15-1.15-1.15Z"/>
      <path class="cls-1" d="M157.98,83.87c.21,2.53,1.15,2.51,1.15,4.02,0,2.41-2.78,4.9-4.02,6.32l.68,1.68c2.47-.65,5.64-4.8,5.64-8v-.57c0-2.32-1.32-4.77-3.45-3.45Z"/>
      <path class="cls-1" d="M24.7,76.98c0,5.01,3.47,12.64,6.32,12.64,.8,0,1.15-.78,1.15-1.72,0-.55-3.42-3.48-4.24-4.95-2.11-3.78,.88-5.62-3.23-5.96Z"/>
      <path class="cls-1" d="M0,55.72c.65,5.04,8.32,6.89,14.36,6.89v-1.72h-2.3c-4.91,0-9.46-4.95-12.06-5.17Z"/>
      <path class="cls-1" d="M68.94,145.92c.35,1.3,.55,2.3,2.3,2.3h4.6c2.94,0,5.51-.58,5.74-3.45-2.79,.23-3.6,1.15-6.89,1.15h-5.74Z"/>
      <path class="cls-1" d="M40.79,118.92c.55,4.28,4.92,7.47,9.77,7.47v-2.3c-6.82,0-5.96-4.85-9.77-5.17Z"/>
      <path class="cls-1" d="M152.24,118.92c-2.78,.3-1.77,1.8-4.46,3.59-1.41,.94-5.31,1.79-5.31,2.73,0,2.83,9.64-.44,9.77-6.32Z"/>
      <path class="cls-1" d="M129.83,21.26c-1.34,0-2.3,.95-2.3,2.3,0,.79,1.2,1.37,1.72,1.72h2.3c.69-1.04,1.15-1.01,1.15-2.3,0-.7-1.19-1.72-2.3-1.72h-.57Z"/>
      <path class="cls-1" d="M121.79,144.77h-6.32c.35,2.04,.41,2.3,2.87,2.3h2.3c1.55,0,1.58-.27,2.87-.57-.34-1.28-.13-1.72-1.72-1.72Z"/>
      <path class="cls-1" d="M149.37,32.17c-2.54,0-1.79,2.11-1.15,3.45,.81,.4,.95,.57,2.3,.57h1.15c.75-1.51,.57,.47,.57-1.72v-1.72c-1.29-.3-1.32-.57-2.87-.57Z"/>
      <path class="cls-1" d="M111.45,77.56v2.3h2.3c1.91,0,1.2,1.15,2.3,1.15,.51,0,1.15-.64,1.15-1.15,0-1.15-2.39-2.3-4.02-2.3h-1.72Z"/>
      <path class="cls-1" d="M40.21,122.94c-1.18,0-1.06,1.18-1.15,2.3,2.34,.63,2.52,2.3,3.45,2.3,1.18,0,1.06-1.18,1.15-2.3-2.34-.62-2.52-2.3-3.45-2.3Z"/>
      <path class="cls-1" d="M149.37,126.39c0,.51,.64,1.15,1.15,1.15,.03,0,2.89-2,3.45-2.3v-2.3c-1.34,.36-4.6,1.97-4.6,3.45Z"/>
    </g>
  </g>
</svg>