<?xml version="1.0" encoding="UTF-8"?>
<svg id="_图层_2" data-name="图层 2" xmlns="http://www.w3.org/2000/svg" viewBox="0 0 144.97 114.98">
  <g id="_图层_2-2" data-name=" 图层 2">
    <g>
      <path d="M44.18,57.72C31.13,49.63,15.49,48.12,.22,41.85c1.25,5.49,.42,9.95,.09,14.45-1.06,14.46,.34,28.53,9.19,40.74,8.27,11.41,18.08,20.09,33.75,17.47,3.87-.65,7.82-.8,11.74-1.11,1.74-.14,3.06-.24,3.5-2.54,2.23-11.68,5.99-23.26,.47-35.09-3.41-7.31-8.11-13.93-14.76-18.05Z"/>
      <path d="M130.86,66.53c-15.13-5.08-29.07-3.31-42.42,5.78-10.65,7.26-10.48,18.61-10.72,28.94-.09,4.05,7.99,5.61,13.05,6.96,.59,.16,1.17,.48,1.66,.85,7.43,5.58,26.97-1.93,31.63-6.87,8.72-9.23,13.33-21.11,20.91-31.76-5.03-1.38-9.65-2.41-14.11-3.91Z"/>
      <path d="M65.07,17.9c-.16-.23-.37-.34-.65-.33-6.09-5.11-9.82-12.63-17.26-17.57,.04,7.34-1.08,13.47-4.83,18.89-4.21,6.09-4.31,12.81-2.59,19.64,1.52,6.02,4.29,11.58,10.33,14.01,4.9,1.97,9.81,3.88,14.53,6.25-.76-4.23,1.3-7.18,4.73-9.1,3.7-2.07,5.03-5.34,5.38-9.15,.85-9.24-1.85-17.05-9.65-22.65Z"/>
    </g>
  </g>
</svg>