<?xml version="1.0" encoding="UTF-8"?>
<svg id="_图层_2" data-name="图层 2" xmlns="http://www.w3.org/2000/svg" viewBox="0 0 137.67 97">
  <g id="_图层_2-2" data-name=" 图层 2">
    <g>
      <polygon points="69.59 25.15 69.46 28.11 71.2 27.62 69.59 25.15"/>
      <path d="M92.98,27.74c.24-.1,.42-.3,.52-.62,.11-.32,.1-.59-.04-.81-.13-.21-.38-.39-.77-.52l-.71-.24-.64,1.89,.71,.24c.37,.13,.68,.14,.92,.05Z"/>
      <path d="M82.03,25.46c.2-.16,.31-.41,.31-.74,0-.34-.08-.59-.27-.75-.19-.17-.48-.26-.89-.26l-.75-.02-.05,2,.74,.02c.4,0,.7-.07,.9-.23Z"/>
      <path d="M90.88,69.56c0-1.84-.42-2.85-1.25-3.05-.12-.04-.25-.07-.39-.08-1.5-.06-2.91,.55-4.23,1.83-.9,.85-2,2.29-3.3,4.34-.47,.73-.91,1.67-1.3,2.83-.49,1.36-.74,2.53-.74,3.52,0,1.4,.51,2.22,1.53,2.45,.16,.05,.33,.08,.52,.1,1.1,.08,2.46-.6,4.05-2.04,1.32-1.21,2.39-2.5,3.22-3.9,.3-.81,.65-1.64,1.06-2.51,.16-.16,.3-.28,.45-.35,.25-1.08,.38-2.13,.38-3.13Z"/>
      <path d="M38.79,71.83c.02-.09,.14-.34,.36-.71,.17-.78,.27-1.52,.27-2.18,0-1.48-.45-2.21-1.36-2.21s-2.03,.65-3.24,1.93c-1.21,1.29-2.26,2.88-3.14,4.77-1.08,2.29-1.62,4.4-1.62,6.35,0,1.03,.23,1.65,.68,1.86,.18,.08,.37,.12,.59,.12,1.2,0,2.72-1.18,4.55-3.55,1.69-2.17,2.68-3.92,2.96-5.26-.06-.55-.07-.92-.03-1.12Zm-1.1-1.27c-.17,.3-.34,.64-.41,.96-.08,.41-.06,.89-.02,1.33-.39,1.44-1.75,3.3-2.61,4.41-.45,.59-2.05,2.52-3.04,2.89-.01-.14-.01-.29-.01-.38,0-1.96,.65-3.93,1.48-5.69,.74-1.58,1.68-3.1,2.87-4.38,.36-.39,1.22-1.23,1.87-1.41,.04,.22,.04,.5,.04,.64,0,.54-.07,1.09-.18,1.62Z"/>
      <path d="M132.96,66.43c-1.5-.06-2.9,.55-4.22,1.83-.91,.85-2.01,2.29-3.31,4.34-.47,.73-.91,1.67-1.3,2.83-.49,1.36-.74,2.53-.74,3.52,0,1.57,.64,2.41,1.92,2.51,1.1,.08,2.46-.6,4.05-2.04,1.32-1.21,2.39-2.5,3.22-3.9,.29-.81,.65-1.64,1.06-2.51,.16-.16,.31-.28,.45-.35,.25-1.08,.38-2.13,.38-3.13,0-2.03-.5-3.06-1.51-3.1Zm-.27,5.35s-.1,.09-.15,.14l-.19,.19-.11,.24c-.39,.82-.75,1.66-1.07,2.51-.77,1.28-1.74,2.42-2.85,3.42-.6,.54-2.01,1.71-2.9,1.64-.53-.04-.49-.49-.49-.97,0-.98,.31-2.08,.65-2.99,.3-.88,.66-1.77,1.14-2.53,.83-1.29,1.93-2.99,3.06-4.04,.83-.8,1.8-1.4,2.94-1.42,.16,.38,.19,1.26,.19,1.56,0,.76-.08,1.51-.23,2.26Z"/>
      <path d="M106.23,71.68c0,.12,.03,.26,.08,.43,.06,.17,.1,.23,.12,.19,.04-.28,.02-.8-.06-1.56-.02,.22-.07,.53-.15,.94Z"/>
      <path d="M137.67,69.14c0-2.97-1.29-5.4-4.49-5.62-4.55-.31-7.91,3.39-10.12,6.96-.1-1.51-.96-2.74-2.63-2.74-.28,0-.54,.04-.8,.12-.6,.15-1.13,.43-1.6,.81-.13-1.22-1.11-2.02-2.48-2.02-.43,0-.86,.07-1.23,.24,.18-.2,.33-.43,.47-.68,.22-.44,.33-.87,.33-1.32,0-.77-.34-1.46-.94-1.94-.48-.38-1.05-.61-1.67-.61-1.19,0-2.23,.44-2.83,1.37-.63-.62-1.34-1.25-2.14-1.91l.33-.65c7.41,1.26,13.07,.86,13.63-1.25,.52-1.94-3.42-4.79-9.56-7.28,7.87-.75,13.5-2.7,13.5-5,0-1.86-3.67-3.49-9.23-4.44,6.52-2.71,10.65-5.77,10.09-7.88-.53-2-5.17-2.62-11.64-1.9,5.08-4.07,7.92-7.79,6.89-9.58-1.04-1.8-5.68-1.2-11.74,1.17,3.87-5.24,5.64-9.57,4.17-11.03-1.46-1.47-5.79,.31-11.03,4.17,2.37-6.06,2.97-10.71,1.17-11.75-1.79-1.04-5.52,1.81-9.58,6.89,.72-6.46,.1-11.11-1.91-11.65-2-.53-4.86,3.17-7.47,9.14-.98-6.44-2.78-10.76-4.86-10.76s-3.88,4.32-4.85,10.76c-2.61-5.96-5.48-9.67-7.47-9.14-2,.54-2.63,5.18-1.9,11.65-4.06-5.08-7.79-7.93-9.59-6.89-1.78,1.04-1.19,5.69,1.18,11.75-5.24-3.86-9.58-5.64-11.04-4.17-1.47,1.46,.32,5.8,4.17,11.03-6.06-2.37-10.71-2.97-11.74-1.17-1.04,1.79,1.8,5.52,6.89,9.58-6.47-.73-11.11-.1-11.64,1.9-.04,.13-.05,.26-.05,.39v.03c.03,2.08,4.04,4.93,10.14,7.46-5.56,.96-9.23,2.59-9.23,4.44,0,2.3,5.62,4.25,13.5,5-6.14,2.48-10.08,5.34-9.56,7.28,.57,2.11,6.22,2.51,13.63,1.25l.34,.65c-2.97,2.44-4.86,4.69-5.1,6.18-.36-.82-1.2-1.33-2.29-1.33-.86,0-1.69,.29-2.2,1.03-.37,.56-.71,1.19-.71,1.87,0,.18,.02,.35,.06,.52-.08,.23-.16,.46-.24,.69l-.08-.09s-.03-.04-.04-.06c.11-.57,.17-1.15,.17-1.73,0-1.22-.26-2.42-.95-3.44-.83-1.22-2.09-1.8-3.56-1.8-2.39,0-4.38,1.5-5.91,3.2-1.06,1.18-1.97,2.52-2.74,3.91-.26-.59-.71-1.06-1.37-1.33-.31-.13-.66-.21-1.03-.21-.95,0-1.78,.48-2.48,1.09-.21,.17-.41,.38-.62,.59,1.35-3.11,2.74-6.25,4.26-9.31,.29-.66,.93-1.99,.93-2.64v-.45l-.24-.38c-.06-.09-.12-.17-.18-.26,.71,.02,1.42,.05,2.1,.09,.48,.77,1.31,1.21,2.33,1.21,.7,0,1.37-.21,2-.51,.97-.43,1.8-1.26,1.66-2.46-.3-3.06-6.37-2.87-8.51-2.87-3.21,0-6.54,.19-9.75,.33-3.51,.15-7,.33-10.51,.51-.36-1.03-1.65-1.37-2.75-1.37-.58,0-1.17,.08-1.74,.17-.59,.1-1.34,.22-1.89,.43-.96,.34-1.73,1.09-1.73,2.21,0,.34,.08,.68,.21,1,.61,1.48,2.26,1.97,3.71,2.13,1.04,.12,2.2,.08,3.25,.04,4.34-.17,8.68-.38,13.02-.61-1.28,2.92-2.57,5.83-3.89,8.73-2,4.45-4.68,10.24-5.8,14.99-.2,.88,.07,1.74,.77,2.32,.53,.44,1.17,.67,1.87,.67,1.45,0,2.5-.9,2.74-2.33,.08-.45,.13-.93,.06-1.39,.02-.06,.04-.12,.06-.19v.02c0,1.42,1.07,2.26,2.43,2.26,1.1,0,1.99-.59,2.63-1.45,.74-.99,1.52-2.08,2.33-3.18-.18,.91-.3,1.79-.3,2.49,0,1.95,.87,3.74,3.05,3.74,.79,0,1.52-.25,2.17-.7,.07-.04,.13-.09,.2-.14,.35,.24,.76,.43,1.24,.55,.35,.09,.71,.13,1.08,.13,1.67,0,3.21-.81,4.51-1.79,.43-.33,.84-.68,1.24-1.06,.36,.94,1,1.73,2.06,2.17,.39,.18,.84,.3,1.31,.3,.72,0,1.38-.25,1.88-.77,.04-.04,.07-.08,.11-.12,.43,0,.86-.11,1.27-.31,.51-.26,.96-.61,1.23-1.13,.64-1.2,1.32-2.38,2.06-3.51-.04,.52-.07,1.03-.07,1.55,0,1.95,.54,4.26,2.79,4.65,1.3,.22,2.47-.31,3.42-1.17,.42-.09,.83-.28,1.18-.56,.73-.57,1.11-1.42,.95-2.34,0-.04,0-.08,0-.12,0-.3,.09-.66,.21-1.04,.17,.06,.34,.12,.51,.16,1.24,.96,2.64,1.83,3.98,2.62,1.12,.66,3.07,1.82,4.35,2.05,.71,.13,1.41,0,2.01-.4,.29-.2,.53-.44,.7-.72,1.19,.38,2.49,.5,3.73,.5,.69,0,1.39-.03,2.09-.09,.87,.33,1.77,.61,2.71,.83v7.42l-2.84,2.44c-.37,.31-.35,.78,.04,1.04,.39,.26,1,.21,1.37-.1l1.44-1.23v2.07c0,.52,.42,.95,.95,.95s.95-.43,.95-.95v-2.2l1.59,1.36c.37,.31,.99,.36,1.37,.1,.39-.25,.4-.72,.04-1.04l-2.9-2.49s-.06-.05-.1-.07v-3.79c.26,1.21,.75,2.42,1.67,3.27,.93,.87,2.16,1.25,3.41,1.36,.71,.06,1.36,.01,1.98-.11l-2.12,1.83c-.37,.31-.35,.78,.04,1.04,.39,.26,1.01,.21,1.37-.1l1.43-1.23v2.07c0,.52,.43,.95,.95,.95s.95-.43,.95-.95v-2.2l1.59,1.36c.37,.31,.98,.36,1.37,.1,.39-.25,.41-.72,.04-1.04l-2.9-2.49s-.07-.05-.1-.07v-.44c1.64-1.21,2.81-3.13,3.62-5.17,.51-1.28,.91-2.65,1.25-4.02,.05-.03,.09-.05,.13-.08,.53,.96,1.42,1.59,2.61,1.59,.81,0,1.56-.27,2.19-.77,.35,.46,.79,.86,1.38,1.14,2.84,1.39,5.49-.93,7.17-3.02,.26-.32,.51-.65,.76-.98,.03,.46,.12,.92,.26,1.36,.45,1.34,1.46,2.26,2.91,2.26,.61,0,1.17-.15,1.69-.44,.2,.1,.43,.18,.67,.23,.59,.15,1.21,.04,1.78-.25,.51-.26,.96-.61,1.23-1.13,.64-1.2,1.33-2.38,2.07-3.51-.05,.52-.08,1.03-.08,1.55,0,1.95,.53,4.26,2.79,4.65,.44,.08,.87,.06,1.27-.02,0,.01,0,.03,0,.04-.26,.91-.13,1.84,.22,2.7,.23,1.38,.72,2.81,1.77,3.78,.93,.87,2.16,1.25,3.41,1.36,4.23,.36,6.78-2.87,8.21-6.46,.75-1.87,1.26-3.95,1.7-5.91,.28-1.28,.55-2.56,.8-3.84,.16-.73,.42-1.46,.73-2.16l.32-.74-.38-.64c.33-1.2,.55-2.44,.55-3.68ZM14.31,81.16c.12,.16,.13,.54,.03,1.15-.12,.69-.52,1.04-1.21,1.04-.33,0-.63-.11-.87-.31-.25-.21-.33-.47-.26-.78,.65-2.8,2.55-7.7,5.7-14.71,1.03-2.25,2.37-5.26,4.02-9.04-.02-.04,.04-.27,.17-.71,.18-.51,.36-.95,.56-1.3-3.8,.22-8.92,.46-15.36,.74-1.44,.04-2.44,.03-3.01-.03-1.38-.16-2.2-.55-2.45-1.18-.06-.14-.09-.27-.09-.41,0-.34,.24-.59,.74-.77,.26-.09,.79-.22,1.6-.35,.57-.1,1.06-.15,1.48-.15,.9,0,1.34,.18,1.3,.53,0,.12-.02,.24-.06,.37-.04,.13-.22,.24-.57,.34-.09,.02-.14,.05-.14,.09,0,.08,.26,.12,.77,.12,2.97-.16,6.98-.35,12.02-.59,5.79-.22,9.02-.33,9.69-.33,4.55,0,6.87,.5,6.97,1.51,.04,.34-.22,.63-.8,.88-.49,.24-.93,.36-1.33,.36-.69,0-1.08-.33-1.18-.97-.02-.12-.22-.19-.59-.21-2.82-.16-4.95-.18-6.41-.06,.08,.45-.17,.91-.76,1.39-1.25,1.99-2.96,5.43-5.14,10.34-1.63,3.69-3.24,8.03-4.81,13.06Zm12.44,.62c.12,.02,.26,.02,.44,0,.22-.04,.35-.06,.39-.06,.22,0,.35,.14,.41,.41,.06,.22-.12,.47-.54,.76-.43,.28-.86,.42-1.31,.42-1.01,0-1.51-.73-1.51-2.19,0-1.02,.47-3.23,1.39-6.61,.24-.85,.36-1.32,.36-1.42,0-.08-.02-.13-.06-.15-.14-.08-.41,.11-.83,.56-.65,.73-2.54,3.19-5.67,7.38-.42,.55-.88,.83-1.39,.83-.59,0-.89-.23-.89-.71,0-.13,.03-.33,.09-.59,.96-3.69,2.47-7.93,4.52-12.73,1.67-3.96,2.51-6.28,2.51-6.97,0-.61,.22-1.08,.65-1.42,.06-.04,.22-.21,.5-.5,.13-.16,.31-.25,.53-.3,.61-.14,1.06,0,1.33,.45,0,.14-.26,.79-.77,1.95-1.1,2.22-2.66,5.64-4.67,10.25-1.5,3.94-2.25,6.16-2.25,6.68,0,.08,.02,.13,.06,.15,.05,.02,.48-.49,1.27-1.54,1.06-1.4,2.06-2.59,2.98-3.57,.74-.79,1.2-1.25,1.36-1.39,.55-.47,1.04-.71,1.47-.71,.16,0,.3,.03,.44,.09,.43,.17,.65,.55,.65,1.12,0,.28-.09,.81-.27,1.6-.07,.36-.43,1.66-1.06,3.93-.46,1.56-.68,2.65-.68,3.28s.18,.95,.53,1Zm85.78-17.9c.23,0,.47,.09,.71,.28,.24,.18,.35,.43,.35,.72,0,.2-.05,.39-.15,.59-.3,.55-.77,.89-1.42,1-.13,.02-.26,.03-.39,.03s-.22-.02-.32-.04c-.32-.12-.49-.39-.49-.81,0-.2,.03-.42,.1-.65-.03-.04-.07-.08-.11-.12,.22-.67,.79-1.01,1.7-1.01Zm0,5.06c.16-.28,.2-.63,.12-1.03,.28-.08,.54-.17,.78-.3-.01,.03-.03,.05-.05,.07-.31,.47-.61,1-.69,1.57-.07-.09-.15-.17-.23-.24,.02-.03,.05-.05,.06-.07Zm-8.8,1.03c-.06,.59-.13,1.18-.18,1.78v.07s0,.07,0,.07c0,.65,.09,1.32,.36,1.9-.45,1.32-1.26,2.65-2.01,3.75-.27,.4-1.19,1.67-1.82,2.15-.09-.3-.11-.62-.11-.92,0-2.52,1-5.12,2.15-7.31,.41-.78,.74-1.6,.96-2.45,.03-.07,.05-.14,.07-.2l.62-.32c-.08,.25-.14,.51-.14,.8,0,.23,.04,.46,.1,.68Zm-22.04,16.44c.17-.47,.31-.97,.31-1.46,.93-.06,1.85-.18,2.74-.35v2.02c-.13,.22-.27,.43-.41,.61-.45,.57-.99,1-1.75,.95-.32-.02-.55-.11-.74-.38-.19-.28-.27-.57-.27-.91,0-.12,.09-.37,.13-.48Zm-18.68-8.74c.23-.14,.46-.3,.68-.46,.1,.13,.19,.27,.29,.39-.22,.51-.37,1.02-.45,1.55-.53-.26-1.07-.57-1.59-.9,.36-.18,.72-.37,1.07-.58Zm22.58-26.33l-3.95,7.42c-.26,.49-.76,.79-1.31,.79s-1.05-.31-1.31-.79l-3.94-7.42c-.3-.58-.2-1.29,.27-1.75,2.76-2.76,7.23-2.76,9.98,0,.47,.47,.57,1.17,.27,1.75Zm12.98,12.83c.23,.18,.35,.43,.35,.72,0,.2-.05,.39-.15,.59-.3,.55-.77,.89-1.42,1-.13,.02-.27,.03-.39,.03-.12,0-.22-.02-.32-.04-.32-.12-.49-.39-.49-.81,0-.22,.04-.45,.12-.71,.21-.69,.78-1.04,1.71-1.04,.05,0,.1,0,.16,.02,.14,.05,.28,.12,.42,.23Zm.7-29.79l1.42-2v-3.04s0,0,0-.01c0-.43,.06-.74,.19-.92,.13-.17,.29-.27,.51-.3,.21-.03,.42,.03,.61,.16,.12,.09,.2,.21,.26,.38,.05,.17,.08,.4,.08,.67l-.02,2.26,2.16-.76c.24-.09,.45-.13,.65-.13,.2,0,.36,.05,.48,.14,.15,.11,.25,.27,.29,.49,.04,.22,0,.4-.11,.56-.13,.17-.38,.33-.78,.47l-.05,.02-2.88,1.02-1.42,2c-.24,.34-.47,.55-.71,.63-.24,.08-.47,.04-.71-.13-.23-.17-.35-.38-.35-.63s.12-.54,.36-.88Zm-10.46-4.75l1.68-4.97c.15-.44,.34-.71,.56-.82,.22-.11,.55-.09,.96,.05l1.48,.5c.81,.27,1.38,.71,1.7,1.31,.32,.6,.35,1.27,.1,2.03-.26,.77-.68,1.29-1.27,1.57-.59,.28-1.27,.29-2.06,.03l-1.1-.37-.42,1.23c-.13,.4-.3,.66-.49,.81-.21,.14-.44,.17-.72,.08-.28-.09-.45-.26-.52-.5-.07-.23-.04-.55,.09-.94Zm-2.06,14.41c0,1.15-.93,2.07-2.08,2.07s-2.07-.92-2.07-2.07,.93-2.07,2.07-2.07,2.08,.93,2.08,2.07Zm-8-20.77c0-.46,.11-.78,.29-.95,.18-.17,.49-.25,.93-.24l1.56,.04c.86,.02,1.53,.27,2.02,.75,.48,.47,.72,1.11,.7,1.91-.02,.81-.27,1.43-.75,1.87-.48,.44-1.13,.65-1.96,.63l-1.17-.03-.03,1.3c-.01,.42-.09,.72-.24,.92-.15,.2-.37,.29-.66,.29-.3,0-.51-.12-.65-.32-.14-.2-.2-.51-.19-.93l.13-5.25Zm-2.74,18.7c1.14,0,2.08,.93,2.08,2.07s-.94,2.07-2.08,2.07-2.07-.92-2.07-2.07,.93-2.07,2.07-2.07Zm-7.83-17.17c.03-.41,.13-.74,.28-.96,.16-.23,.39-.4,.69-.48,.29-.08,.56-.07,.81,.04,.26,.11,.49,.3,.69,.58l3.34,4.72c.06,.1,.12,.19,.16,.27,.04,.09,.08,.16,.1,.22,.06,.23,.04,.44-.08,.63-.11,.19-.29,.31-.52,.39-.22,.06-.41,.04-.6-.05-.18-.09-.34-.27-.51-.52l-.4-.62-2.7,.77-.04,.81c-.01,.26-.07,.48-.17,.65-.1,.17-.24,.28-.42,.33-.23,.07-.44,.05-.63-.06-.19-.11-.32-.28-.39-.52-.03-.09-.04-.18-.05-.26,0-.09,0-.17,0-.24l.44-5.7Zm-13.04,5.16c.25-.16,.49-.19,.72-.1,.23,.1,.46,.32,.68,.66l.96,1.51,2.68-1.72-.97-1.51c-.22-.35-.33-.65-.32-.9,0-.25,.13-.45,.38-.61,.25-.16,.48-.19,.72-.09,.23,.09,.45,.32,.68,.66l2.88,4.49c.22,.35,.33,.65,.32,.89-.01,.25-.14,.45-.39,.61-.25,.15-.48,.19-.71,.09-.22-.09-.46-.31-.68-.66l-1.04-1.63-2.68,1.72,1.04,1.63c.22,.35,.33,.65,.32,.89-.01,.24-.14,.45-.39,.61-.25,.16-.48,.19-.71,.1-.23-.09-.45-.31-.68-.66l-2.88-4.49c-.22-.35-.33-.65-.32-.9,0-.24,.14-.45,.38-.6Zm-1.19,39.21c-.23,.6-.47,1.2-.7,1.8v-.15c0-.5-.09-.98-.25-1.4,.31-.07,.62-.15,.95-.24Zm-13.18,13.31c-.19,.21-.46,.33-.79,.33-.22,0-.46-.06-.71-.18-1.01-.41-1.51-1.46-1.51-3.13,0-.38,.03-.84,.09-1.39-1.1,1.5-2.25,2.7-3.43,3.6-1.3,.99-2.49,1.48-3.57,1.48-.24,0-.48-.03-.71-.09-1.2-.29-1.8-1.38-1.8-3.25s.5-3.96,1.51-6.21c1.06-2.36,2.26-4.28,3.61-5.76,1.6-1.79,3.17-2.69,4.75-2.69,1,0,1.77,.38,2.28,1.12,.45,.67,.68,1.53,.68,2.57,0,.77-.12,1.51-.35,2.22,.16,.08,.34,.26,.56,.53,0,.38-.1,.79-.29,1.24-1.26,2.93-1.89,5.15-1.89,6.65,0,.93,.26,1.5,.77,1.71,.24,.06,.57,.22,1,.47,.06,.06,.09,.13,.09,.21,0,.21-.09,.4-.27,.56Zm24.21,.16c-.25,.17-.54,.22-.87,.17-.65-.12-1.93-.74-3.84-1.86-1.79-1.07-3.15-1.97-4.08-2.72-1-.2-1.51-.54-1.51-1.03,0-.24,.13-.51,.39-.83,.35-.43,.67-.65,.94-.65s.7,.21,1.24,.62c1.1,.1,2.19-.09,3.25-.56,.63-.27,1.2-.62,1.71-1.06,.02,.03,.03,.07,.04,.1,.61-.5,1.13-1.11,1.57-1.84,.61-1.02,.91-1.92,.91-2.69,0-.81-.3-1.29-.89-1.44-.17-.06-.37-.1-.6-.1-1.56,0-3.87,1.79-6.94,5.38-.71,.82-1.38,1.85-2.01,3.07-.71,1.42-1.06,2.53-1.06,3.34,0,.14,0,.26,.03,.39,.06,.33-.06,.62-.37,.86-.29,.22-.59,.31-.9,.27-.1,.1-.2,.21-.33,.32-.73,.67-1.44,.94-2.16,.83-1-.18-1.5-1.22-1.5-3.13s.4-4.07,1.21-6.29c.26-.69,.39-1.23,.39-1.63,0-.18-.04-.27-.12-.3-.14-.04-.63,.57-1.48,1.83-.77,1.08-1.53,2.17-2.28,3.25-.92,1.36-1.8,2.82-2.63,4.37-.1,.18-.29,.34-.57,.48-.27,.14-.53,.18-.77,.12-.49-.1-.74-.41-.74-.94,0-.18,.04-.38,.09-.6,.36-1.26,.88-2.89,1.57-4.9,.61-1.81,1.23-3.62,1.86-5.43-.12-.14-.18-.29-.18-.44,0-.24,.15-.57,.44-1,.16-.24,.47-.35,.91-.35,.73,0,1.04,.34,.91,1-.09,.51-.49,1.57-1.18,3.16-.47,1.08-1.26,3.14-2.39,6.17,.83-1.52,2.53-4.05,5.11-7.6,.41-.56,.84-.98,1.28-1.26,.05,0,.09,.02,.14,.03,.25-.15,.5-.26,.75-.33,.14-.04,.26-.06,.38-.06,.08,0,.15,0,.22,.02,.49,.15,.74,.63,.74,1.45,0,.35-.06,.74-.18,1.18-.77,2.66-1.3,4.63-1.62,5.91-.22,.88-.32,1.65-.32,2.3,0,.88,.18,1.34,.56,1.36,.16,0,.41-.18,.75-.55,.21-.22,.4-.37,.56-.46,.02-.1,.04-.19,.07-.29,1.04-3.11,2.49-7.01,4.33-11.69,.06-.02,.11-.03,.16-.05,1.06-2.71,2.26-5.67,3.59-8.9,.23-.59,.4-.94,.5-1.06,.22-.29,.58-.44,1.09-.44,.08,0,.14,.02,.2,.03,.25,.11,.38,.36,.38,.76,0,.47-.14,.96-.42,1.47-2.62,5-4.56,9.19-5.82,12.55,1.09-1.24,2.12-2.28,3.09-3.11l.09,.07c2.14-1.85,3.95-2.69,5.43-2.51,.16,.02,.3,.05,.44,.08,1.08,.32,1.62,1.14,1.62,2.48,0,1.06-.4,2.27-1.18,3.63-.63,1.1-1.56,2.03-2.81,2.78-1.06,.65-2.2,1.09-3.4,1.33,1.03,1.14,2.67,2.24,4.93,3.31,.16-.08,.32-.12,.47-.12,.26,0,.51,.12,.75,.35,.25,.24,.37,.49,.37,.77,0,.25-.12,.47-.37,.63Zm-3.99-11.08l.26,.19c-.02-.09-.04-.18-.06-.28,.1,.57,.24,1.12,.41,1.67-.48,.51-1.04,.92-1.71,1.22-.68,.3-1.38,.46-2.11,.46,0,0-.01,0-.02,0,.69-.78,1.99-2.2,3.23-3.24Zm4.03,8.2c.02-.27,.06-.53,.13-.79,.04,.04,.07,.08,.11,.12,.08-.35,.2-.69,.36-1.03,.35-.69,.77-1.03,1.24-1.03,.09,0,.16,0,.22,.02,.17,.06,.27,.16,.27,.33,0,.14-.14,.47-.42,.99-.29,.52-.43,.92-.43,1.2,.02,.51,.38,.89,1.09,1.12,.07,.03,.18,.06,.32,.09,.34,.1,.97,.22,1.91,.38,3.07-.06,4.61-.4,4.61-1.03,0-.42-.49-.99-1.47-1.72-.91-.61-1.82-1.22-2.72-1.83-2.13-1.46-3.19-3.04-3.19-4.76,0-.24,.02-.46,.06-.68,.2-1.28,1.18-2.52,2.95-3.72,1.77-1.2,3.59-1.79,5.46-1.78,.42,0,.81,.06,1.16,.15,1.62,.51,2.37,2.07,2.26,4.69,.02,.04,.03,.1,.03,.18,0,.31-.16,.95-.48,1.89-.65,1.89-1.29,2.9-1.92,3.02-.16,.04-.29,.06-.41,.06-.06,0-.1-.01-.15-.02-.17-.07-.26-.21-.26-.42,0-.24,.14-.7,.42-1.39,.41-1.04,.69-1.78,.82-2.22,.08-.65,.12-1.2,.12-1.65,0-1.57-.49-2.47-1.45-2.69-.15-.05-.31-.08-.48-.09-1.38-.08-2.76,.31-4.16,1.18-1.5,.93-2.28,2-2.34,3.22-.05,1.13,.48,2.18,1.6,3.16,.04,.02,1.03,.71,2.98,2.07,1.12,.79,1.87,1.35,2.24,1.69,.77,.67,1.15,1.26,1.13,1.77-.02,.61-.69,1.09-2.01,1.45-1.18,.32-2.63,.47-4.34,.47-1.42,0-2.61-.17-3.57-.53-1.17-.44-1.73-1.05-1.69-1.86Zm17.16,11.29c-1.09-.1-1.91-.42-2.48-.95-.67-.63-1.11-1.66-1.33-3.1-.31-.67-.4-1.28-.24-1.83,.03-.08,.05-.16,.08-.24,.05,0,.09,0,.14,.01,.23-.57,.58-.86,1.06-.86,.09,0,.2,0,.33,.03,.47,.11,.72,.38,.72,.82,0,.23-.08,.56-.22,.96-.15,.4-.22,.75-.22,1.02,0,.67,.18,1.27,.56,1.8,.45,.63,1.09,.97,1.89,1.03,.84,.06,1.59-.19,2.27-.72v.13c.33-.24,.64-.54,.93-.91,.31-.39,.63-.92,.96-1.58v-.3c.23-.48,.47-1.03,.7-1.64,.11-.29,.21-.58,.31-.88,.05-.02,.11-.03,.16-.05,.6-1.73,1.02-3.57,1.25-5.56-.05,.07-.11,.13-.16,.2,0-.08,.02-.15,.03-.23-2.58,3.21-5.16,4.71-7.74,4.51-.22-.02-.42-.05-.62-.1-1.44-.4-2.17-1.63-2.17-3.7,0-2.36,.72-4.74,2.16-7.15,2.76-4.64,5.74-6.86,8.95-6.64,.23,.02,.45,.05,.66,.1,1.5,.41,2.26,1.72,2.26,3.94,0,1.18-.23,2.48-.68,3.9,.04,.06,.15,.23,.33,.53-.38,.85-.65,1.67-.83,2.48-.26,1.28-.52,2.55-.8,3.81-.53,2.38-1.07,4.27-1.62,5.67-1.55,3.9-3.77,5.73-6.64,5.5Zm13.4-9.48c-.41,.34-.84,.5-1.32,.5-.59,0-1.02-.3-1.31-.89,.03-.02,.06-.04,.09-.06-.03-.07-.06-.15-.09-.23-.14-.41-.21-.91-.21-1.48,0-1.65,.7-4.33,2.1-8.03,.58-.79,1.15-1.22,1.7-1.33,.29,.1,.45,.36,.45,.82,0,.37-.09,.75-.26,1.12-.51,1.07-1.03,2.14-1.54,3.22-.71,1.73-1,3.25-.88,4.55,.04,.49,.25,.75,.62,.77,.1,0,.22-.03,.35-.08,.13-.06,.24-.09,.29-.09,.14,0,.29,.13,.44,.39,.13,.22-.02,.49-.42,.83Zm8.22-1.57c-2.01,2.48-3.77,3.35-5.29,2.6-1-.49-1.51-1.61-1.51-3.37,0-.63,.09-1.45,.27-2.42,.06-.09,.13-.18,.19-.27,.33-1.71,.91-3.91,1.74-6.61,.02-.57,.18-1.09,.47-1.54,.17-.28,.35-.53,.53-.78,.18-.25,.41-.39,.71-.43,.16-.02,.29-.02,.41,0,.3,.08,.47,.29,.47,.64,0,.2-.06,.43-.18,.71-.17,.73-.46,1.47-.85,2.22-1.56,2.97-2.34,5.65-2.34,8.03,0,.61,.09,1.15,.26,1.63,.26,.67,.64,1,1.15,1,.86,0,1.98-.99,3.34-2.99,1.26-1.83,2.07-3.45,2.42-4.87-.34-.31-.5-.87-.5-1.65,0,0,.07-.7,.21-2.09-.08-.18-.12-.35-.12-.5,0-.22,.07-.39,.19-.55,.04,.01,.08,.03,.12,.04,.16-.21,.41-.36,.79-.44,.16-.03,.31-.03,.44,0,.09,.03,.18,.07,.26,.12,.25,.24,.37,.64,.35,1.21,.14,.34,.21,.76,.21,1.27,0,.26-.08,.96-.23,2.1,.06,.37-.02,.68-.24,.91-.49,1.91-1.58,3.92-3.28,6.03Zm6.46,1.57c-.4,.34-.84,.5-1.32,.5-.69,0-1.17-.41-1.45-1.21-.13-.41-.21-.91-.21-1.48,0-1.65,.7-4.33,2.1-8.03,.59-.79,1.16-1.23,1.71-1.33,.37,.06,.56,.34,.56,.86,0,.37-.09,.75-.26,1.12-.51,1.07-1.03,2.14-1.54,3.22-.71,1.73-1,3.25-.89,4.55,.04,.49,.25,.75,.62,.77,.1,0,.22-.03,.35-.08,.14-.06,.24-.09,.3-.09,.13,0,.29,.13,.44,.39,.12,.22-.02,.49-.43,.83Zm11.26,.8c-.73,.67-1.44,.94-2.15,.83-1-.18-1.51-1.22-1.51-3.13s.4-4.07,1.21-6.29c.26-.69,.39-1.23,.39-1.63,0-.18-.04-.27-.12-.3-.13-.04-.63,.57-1.48,1.83-.77,1.08-1.53,2.17-2.27,3.25-.93,1.36-1.81,2.82-2.63,4.37-.1,.18-.28,.34-.56,.48-.27,.14-.53,.18-.77,.12-.49-.1-.74-.41-.74-.94,0-.18,.03-.38,.09-.6,.35-1.26,.87-2.89,1.56-4.9,.61-1.81,1.23-3.62,1.86-5.43-.12-.14-.18-.29-.18-.44,0-.24,.14-.57,.44-1,.16-.24,.47-.35,.92-.35,.73,0,1.04,.34,.92,1-.1,.51-.49,1.57-1.18,3.16-.47,1.08-1.27,3.14-2.39,6.17,.83-1.52,2.53-4.05,5.11-7.6,.65-.88,1.33-1.42,2.04-1.59,.13-.04,.26-.06,.39-.06,.73,0,1.09,.5,1.09,1.51,0,.35-.06,.74-.18,1.18-.77,2.66-1.31,4.63-1.62,5.91-.22,.88-.32,1.65-.32,2.3,0,.88,.18,1.34,.56,1.36,.16,0,.41-.18,.75-.55,.35-.36,.63-.55,.84-.55,.26,0,.51,.17,.77,.53,.17,.23-.1,.69-.83,1.36Zm14.27-8.78c-.38,.85-.65,1.67-.83,2.48-.25,1.28-.52,2.55-.8,3.81-.53,2.38-1.07,4.27-1.62,5.67-1.56,3.9-3.77,5.73-6.64,5.5-1.09-.1-1.91-.42-2.48-.95-.67-.63-1.11-1.66-1.33-3.1-.31-.67-.4-1.28-.24-1.83,.22-.74,.61-1.12,1.15-1.12,.1,0,.22,0,.35,.03,.55,.09,.82,.38,.82,.86,0,.23-.07,.56-.22,.96-.14,.4-.22,.75-.22,1.02,0,.67,.18,1.27,.56,1.8,.45,.63,1.09,.97,1.89,1.03,1.18,.08,2.21-.43,3.07-1.53,.57-.71,1.17-1.87,1.8-3.48,.78-1.99,1.32-4.17,1.59-6.53-2.58,3.21-5.16,4.71-7.74,4.51-1.95-.16-2.92-1.43-2.92-3.84s.72-4.74,2.16-7.15c2.76-4.64,5.74-6.86,8.95-6.64,2.03,.14,3.05,1.49,3.05,4.08,0,1.18-.22,2.48-.68,3.9,.04,.06,.15,.23,.33,.53Zm-10.15,10.69c1.65-.06,3.15-.66,4.49-1.56-.16,.48-.33,.97-.51,1.44-.38,.96-.93,2.28-1.57,3.09-.46,.57-.99,1-1.75,.95-.33-.02-.55-.11-.74-.38-.19-.28-.27-.57-.27-.91,0-.12,.09-.37,.13-.48,.17-.48,.31-.99,.31-1.49,0-.23-.03-.45-.08-.66Z"/>
    </g>
  </g>
</svg>