<?xml version="1.0" encoding="UTF-8"?>
<svg id="_图层_2" data-name="图层 2" xmlns="http://www.w3.org/2000/svg" viewBox="0 0 175.39 60.66">
  <defs>
    <style>
      .cls-1 {
        fill-rule: evenodd;
      }
    </style>
  </defs>
  <g id="_图层_2-2" data-name=" 图层 2">
    <path class="cls-1" d="M168.6,16.9c-4.62-2.16-2.03-4.49-10.83-4.49-2.79-4.16-5.68-3.06-12.25-3.06-4.32-2.9-4.21-3.11-11.5-3.05-6.56,.05-6.01-2.31-11.47-2.31h-.77c-8.75,0-8.85-.42-17.55-1.6-4.25-.57-12.26-3.01-17.68-2.23L51.46,5l-.15-1.01c-3.39,.49-5.24,.8-6.89,3.06-5.72-2.75-11.94,.03-15.32,2.3-6.37,0-8.78-.99-11.49,3.06-9.27,0-7,2.47-10.81,4.5-2.9,1.55-6.8,5.43-6.8,8.52v.77c0,2.87,4.33,7.64,6.89,9.2,4.25,2.59,3.03,4.59,10.73,4.59,3.36,5.02,4.63,.4,7.13,6.66,2.03,5.09,2.81,3.16,7.42,5.6l-2.17-7.7c5.62,1.58-1.29,8.94,11.36,10l-1.51-7.66h1.51s1.64,8.41,1.64,8.41l7.56,1.54-1.31-7.68,.75-.23,2.36,8.62,7.36,1.04-.97-10.05,1.12-.12,1.49,10.73,7.56,.92-.89-9.31,1.68-.02v7.66c0,1.76,.53,2.3,2.3,2.3h5.36v-9.96c0-2.19,.24-1.4,1.53-2.3v12.25h8.42v-9.19h1.53v9.19h7.66v-11.49h1.53v11.49l7.65-.82v-9.14h1.54v9.19c8.86-.74,8.2-1.47,8.42-11.49h1.53l-1.58,9.95,7.68-.9,2.12-8.56,.76,.24-1.4,7.68,7.69-1.66,1.67-8.26,1.43-.02-1.51,7.66c14.3-3.34,5.32-7.74,11.46-9.96l-2.51,7.59c5.6-2.52,5.34-.33,7.74-6.19,2.06-5.03,3.83-1.23,7.02-6,7.61,0,17.62-8.28,17.62-14.55,0-2.62-3.7-7.08-6.79-8.53Zm-2.4,.87c3.25,0,4.67,1.24,5.36,3.23l-11.49,.6-3.06-1.54v-1.53c2.4-.2,2.72-.77,5.36-.77h3.83Zm-9.19-3.83h2.3c3.18,0,4.79,.47,6.01,1.75l-10.46,2.58-4.88-2.52c2.88-.91,3.74-1.8,7.03-1.8Zm-8.42-3.83c3.03,0,5.59,.52,6.8,2.05l-7.66,3.06-6.03-2.05v-1.53c1.86-.43,4.98-1.53,6.89-1.53Zm-15.32-2.3h6.13c2.07,0,2.11,.37,3.83,.77v1.53l-3.84,1.5-8.41-2.27c.2-1.15,.91-1.53,2.3-1.53Zm-15.32,26.04c-2.9-.78-9.82-11.77-12.83-14.74-2.85-2.82-13.63-11.93-14.74-13.59,8.07,1.88,23.71,21.03,27.57,28.34ZM37.53,7.81h6.13v1.53l-8.4,2.37-3.85-1.6c1.34-1.82,2.95-2.3,6.13-2.3Zm-11.49,2.3c3.87,0,4.07,1.23,7.66,1.53-1.48,1.28-4.33,3.06-6.89,3.06-.88,0-4.98-1.85-6.89-2.3,1.34-1.82,2.95-2.3,6.13-2.3Zm-9.96,3.83h.77c2.99,0,5.69,.59,7.89,1.92l-4.73,2.27-10.05-1.9c1.34-1.82,2.95-2.3,6.13-2.3Zm-6.89,3.83h3.83c2.64,0,2.97,.57,5.36,.77l-.17,1.27-2.89,1.81c-1.09-.55-1.28-.78-3.07-.78H6.89c-2.07,0-2.11,.37-3.83,.77,.68-2.54,3.06-3.83,6.13-3.83ZM1.53,26.19c0-4.71,7.38-3.83,12.21-3.85l-.87,2.26c-4.56,.05-9.72,3.12-9.81,3.12-.68,0-1.53-.85-1.53-1.53Zm2.3,4.6v-.77c0-2.96,5.41-3.83,8.42-3.83,3.4,0,6.95,1.05,8.42,3.06-6.28,0-10.89-.52-12.25,4.6-2.4-.2-4.6-.53-4.6-3.06Zm13.02,8.42c-2.29-.53-7.66-2.36-7.66-4.6,0-3,3.79-3.83,6.89-3.83h5.36c2.07,0,2.11,.37,3.83,.77v1.53c-5.09,0-8.03,1.37-8.42,6.13Zm12.25,3.06h-3.06c-3,0-7.66-1.65-7.66-3.83,0-2.61,4.27-4.6,6.89-4.6h3.06c2.78,0,4.28,.64,6.13,1.53-2.76,3.76-5.22,.67-5.36,6.89Zm14.55,3.06h-5.36c-2.97,0-7.66-1.02-7.66-3.83,0-2.61,4.26-4.6,6.89-4.6h3.06c2.78,0,4.27,.64,6.13,1.53-1.15,1.72-3.06,2.69-3.06,4.6v2.3Zm13.79,2.3h-5.36c-3,0-7.66-1.65-7.66-3.83,0-3.57,6.12-4.6,9.96-4.6h1.53c2.78,0,2.69,.91,5.36,1.53-.5,1.88-1.56,6.89-3.83,6.89Zm19.72-.03c-1.31,.83-2.06,1.56-4.4,1.56h-3.83c-2.97,0-7.66-1.02-7.66-3.83v-2.3c3.09-.82,3.07-2.3,7.66-2.3h2.3c3.29,0,4.15,.89,6.8,1.52l-.87,5.34Zm-6.51-28.88c-2.97,2.96-10.52,14.41-13.21,15.13,3.92-7.4,19.33-26.42,27.57-28.34-.71,1.07-11.91,10.77-14.36,13.21Zm25.85,28.91c-3.09,.82-3.07,2.3-7.66,2.3h-.77c-3.94,0-9.19-.87-9.19-4.6,0-2.39,3.79-3.83,6.13-3.83h5.36c2.34,0,6.13,1.44,6.13,3.83v2.3Zm17.62-2.3c0,2.39-3.79,3.83-6.13,3.83h-5.36c-2.34,0-3.09-.74-4.4-1.56l-.87-5.34c2.65-.62,3.5-1.52,6.8-1.52h.77c3.36,0,9.19,.67,9.19,3.83v.77Zm9.19,2.3h-5.36c-2.91,0-2.34-4.06-3.83-6.89,2.67-.62,2.58-1.53,5.36-1.53h3.06c2.84,0,8.42,1.71,8.42,3.83,0,3.15-4.21,4.6-7.66,4.6Zm15.32-2.3h-6.89v-2.3c0-1.9-1.91-2.88-3.06-4.6,1.85-.89,3.35-1.53,6.13-1.53h.77c3.94,0,9.19,.87,9.19,4.6,0,2.39-3.79,3.83-6.13,3.83Zm12.25-3.06h-4.6c-.12-5.34-2.44-4.36-5.36-6.89,2.67-.62,2.58-1.53,5.36-1.53h3.83c2.27,0,6.89,2.22,6.89,3.83,0,2.48-3.33,4.6-6.13,4.6Zm7.66-3.83c-.6-2.58-2.7-5.36-5.36-5.36h-3.06v-1.53c3.76-.31,2.81-1.53,6.13-1.53h1.53c2.84,0,8.42,1.71,8.42,3.83,0,3.27-3.97,4.6-7.66,4.6Zm12.97-6.23l-4.55,1.64c-1.28-5.48-5.75-4.6-12.25-4.6,1.1-1.5,4.34-3.06,6.89-3.06h.77c3.36,0,9.19,.67,9.19,3.83l-.05,2.19Zm.81-4.49s-3.31-2.01-5.2-2.46c-3.72-.89-3.51,.12-5.52-2.9,1.72-.4,1.76-.77,3.83-.77h1.53c2.27,0,6.89,2.22,6.89,3.83,0,1.25-.46,2.3-1.53,2.3Z"/>
  </g>
</svg>