<?xml version="1.0" encoding="UTF-8"?>
<svg id="_图层_2" data-name="图层 2" xmlns="http://www.w3.org/2000/svg" viewBox="0 0 154.17 103.07">
  <g id="_图层_2-2" data-name=" 图层 2">
    <g>
      <polygon points="65.69 26.72 65.54 29.87 67.4 29.35 65.69 26.72"/>
      <path d="M90.24,27.41l-.75-.26-.68,2.01,.75,.25c.39,.13,.73,.15,.99,.05,.25-.1,.44-.32,.55-.66,.12-.34,.1-.62-.04-.85-.14-.23-.41-.41-.82-.55Z"/>
      <polygon points="49.47 76.04 51.07 76.04 50.27 70.45 49.47 76.04"/>
      <path d="M78.9,27.06c.22-.17,.33-.44,.34-.79,0-.36-.09-.63-.29-.81-.2-.18-.52-.27-.95-.28l-.79-.02-.05,2.12,.79,.02c.42,0,.74-.07,.95-.24Z"/>
      <path d="M110.7,55.92c8.37-.79,14.35-2.87,14.35-5.32,0-1.97-3.91-3.71-9.81-4.72,6.92-2.88,11.32-6.14,10.72-8.37-.57-2.13-5.5-2.79-12.37-2.02,5.4-4.32,8.42-8.28,7.32-10.18-1.1-1.91-6.04-1.27-12.48,1.25,4.1-5.56,6-10.17,4.44-11.72-1.56-1.56-6.17,.33-11.73,4.43,2.52-6.43,3.16-11.38,1.25-12.48-1.9-1.1-5.86,1.92-10.17,7.32,.77-6.87,.1-11.8-2.03-12.37-2.12-.57-5.17,3.37-7.94,9.71-1.03-6.84-2.96-11.43-5.16-11.43s-4.12,4.59-5.15,11.43c-2.77-6.33-5.82-10.28-7.94-9.71-2.13,.57-2.79,5.51-2.02,12.37-4.32-5.4-8.28-8.42-10.19-7.32-1.9,1.1-1.26,6.04,1.26,12.48-5.57-4.1-10.17-5.99-11.73-4.43-1.56,1.56,.34,6.16,4.43,11.72-6.44-2.52-11.37-3.15-12.48-1.25-1.1,1.9,1.92,5.86,7.32,10.18-6.87-.77-11.81-.11-12.38,2.02-.04,.13-.05,.27-.06,.41v.04c.04,2.21,4.3,5.23,10.78,7.93-5.91,1.01-9.81,2.75-9.81,4.72,0,2.44,5.98,4.52,14.34,5.32-6.28,2.54-10.38,5.44-10.19,7.5h-12.95v22.49H63.22c2.33,1.75,5.15,3.08,8.28,3.8v7.88l-3.02,2.59c-.39,.34-.38,.84,.04,1.11,.41,.27,1.07,.22,1.46-.12l1.52-1.3v2.2c0,.55,.45,1,1,1s1-.46,1-1v-2.34l1.69,1.44c.39,.34,1.04,.39,1.46,.12,.41-.27,.43-.77,.04-1.11l-3.08-2.64s-.07-.05-.11-.08v-7.38c1.17,.17,2.36,.26,3.58,.26,1.61,0,3.18-.15,4.69-.44v7.69l-3.02,2.59c-.39,.34-.38,.84,.04,1.11,.41,.27,1.07,.22,1.46-.12l1.52-1.3v2.2c0,.55,.45,1,1.01,1s1-.46,1-1v-2.34l1.69,1.44c.39,.34,1.04,.39,1.46,.12,.41-.27,.44-.77,.04-1.11l-3.08-2.64s-.07-.05-.1-.08v-8.04c2.69-.76,5.12-1.97,7.18-3.52h42.88v-22.49h-12.95c.2-2.05-3.91-4.96-10.18-7.5Zm-74.71,13.43h-2.27v12.07h-2.14v-12.07h-2.29v-2.16h6.7v2.16Zm8.6,12.07h-2.14v-6.03h-2.59v6.03h-2.14v-14.22h2.14v6.04h2.59v-6.04h2.14v14.22Zm39.3-34.63c0,1.22-.99,2.2-2.2,2.2s-2.21-.98-2.21-2.2,.99-2.2,2.21-2.2,2.2,.99,2.2,2.2Zm-8.51-22.07c0-.49,.11-.83,.3-1.01,.2-.18,.53-.26,1-.25l1.66,.04c.91,.02,1.62,.29,2.14,.79,.52,.51,.77,1.18,.74,2.03-.02,.86-.29,1.52-.79,1.99-.51,.47-1.2,.7-2.08,.67l-1.24-.03-.04,1.38c0,.44-.09,.77-.25,.98-.16,.21-.39,.31-.7,.3-.31,0-.54-.12-.68-.34-.15-.22-.22-.55-.21-.99l.14-5.58Zm-2.91,19.87c1.21,0,2.21,.99,2.21,2.2s-.99,2.2-2.21,2.2-2.2-.98-2.2-2.2,.99-2.2,2.2-2.2Zm-20.59,36.83l-.5-3.28h-2.24l-.52,3.28h-2.24l2.42-14.22h2.95l2.39,14.22h-2.26Zm2.89-42.64c-.26,.17-.52,.2-.76,.1-.24-.1-.48-.33-.72-.7l-3.05-4.77c-.24-.37-.36-.69-.34-.95,0-.26,.14-.47,.41-.65,.26-.17,.51-.2,.75-.1,.25,.1,.48,.34,.73,.71l1.03,1.6,2.85-1.83-1.03-1.6c-.24-.37-.35-.69-.34-.95,.01-.26,.15-.48,.41-.65,.26-.17,.52-.2,.76-.1,.25,.1,.48,.34,.72,.7l3.06,4.77c.24,.37,.35,.69,.34,.95-.01,.26-.15,.48-.41,.65-.26,.17-.51,.2-.75,.1-.24-.1-.48-.33-.72-.7l-1.11-1.73-2.85,1.83,1.11,1.73c.23,.37,.35,.69,.34,.95-.02,.26-.15,.47-.41,.65Zm8.57,42.64h-2.3l-2.95-9.12v9.12h-2.14v-14.24h2.41l2.85,9.56v-9.56h2.14v14.24Zm1.49-47.88c-.24,.07-.47,.04-.67-.07-.21-.12-.34-.3-.41-.54-.03-.1-.04-.19-.05-.28,0-.09-.01-.17,0-.25l.46-6.06c.04-.44,.14-.78,.3-1.02,.17-.25,.41-.42,.73-.51,.31-.09,.59-.08,.87,.04,.27,.11,.51,.32,.73,.61l3.55,5.02c.07,.11,.13,.21,.17,.29,.05,.09,.08,.17,.1,.23,.07,.25,.04,.47-.08,.67-.12,.2-.31,.34-.56,.41-.23,.06-.44,.04-.63-.05-.19-.1-.37-.28-.54-.55l-.42-.66-2.87,.82-.04,.86c-.01,.28-.07,.52-.17,.69-.11,.18-.26,.3-.45,.35Zm5.47,47.88l-2.26-5.78-.65,1.28v4.5h-2.14v-14.24h2.14v5.08l2.63-5.08h2.3l-2.95,5.81,3.44,8.43h-2.52Zm9.44-1c-.35,.48-.84,.81-1.47,1.01-.34,.11-.73,.16-1.19,.16-.84,0-1.53-.21-2.08-.62-.46-.34-.83-.81-1.1-1.39-.27-.59-.43-1.26-.47-2.02l2.04-.15c.09,.83,.31,1.43,.66,1.8,.26,.28,.55,.42,.89,.4,.47-.02,.84-.25,1.12-.7,.14-.22,.22-.53,.22-.94,0-.59-.27-1.18-.81-1.76-.43-.4-1.06-1-1.91-1.81-.71-.69-1.21-1.3-1.51-1.85-.32-.61-.48-1.28-.48-2,0-1.3,.44-2.27,1.31-2.94,.54-.4,1.2-.6,2-.6s1.42,.17,1.96,.51c.42,.26,.77,.63,1.03,1.11,.26,.47,.42,1.02,.47,1.64l-2.06,.37c-.06-.58-.23-1.03-.5-1.35-.2-.23-.48-.35-.86-.35s-.69,.18-.9,.52c-.17,.28-.25,.63-.25,1.04,0,.65,.28,1.31,.84,1.99,.22,.26,.54,.56,.96,.91,.5,.42,.83,.71,.99,.88,.53,.53,.94,1.05,1.23,1.57,.14,.24,.25,.47,.33,.67,.21,.51,.31,.96,.32,1.36,.01,.99-.25,1.84-.78,2.54Zm-1.26-17.98c-.27,.52-.81,.84-1.39,.84s-1.12-.32-1.39-.84l-4.19-7.89c-.32-.62-.21-1.37,.29-1.86,2.92-2.93,7.68-2.93,10.6,0,.49,.49,.61,1.24,.28,1.86l-4.19,7.89Zm10.57,9.63h-2.22v-1.67c0-.34-.12-.63-.36-.87-.24-.25-.53-.37-.87-.37s-.63,.12-.87,.37c-.24,.24-.35,.53-.35,.87v7.78c0,.34,.12,.63,.35,.87,.24,.23,.53,.35,.87,.35s.63-.12,.87-.35c.24-.24,.36-.53,.36-.86v-2.79h-1.2v-2.16h3.42v4.97c0,.95-.33,1.75-1,2.4-.66,.66-1.46,.99-2.39,.99s-1.75-.33-2.41-1c-.66-.66-.99-1.46-.99-2.39v-7.76c0-.95,.34-1.75,1-2.41,.66-.66,1.47-1,2.4-1s1.75,.34,2.4,1c.66,.67,.99,1.47,.99,2.41v1.62Zm4.01,9.35h-2.14v-14.22h2.14v14.22Zm-.08-51.97c-.27,.82-.73,1.37-1.35,1.67-.62,.3-1.35,.31-2.18,.03l-1.17-.4-.44,1.31c-.14,.42-.32,.7-.53,.86-.21,.15-.47,.18-.76,.08-.29-.1-.47-.28-.55-.52-.08-.26-.04-.59,.1-1l1.79-5.29c.16-.47,.36-.75,.59-.87,.24-.11,.58-.1,1.02,.05l1.58,.53c.86,.3,1.46,.76,1.81,1.39,.34,.64,.38,1.35,.11,2.15Zm7.37,51.97h-2.95l-2.54-14.22h2.24l1.8,11.15,1.8-11.15h2.24l-2.59,14.22Zm3.79-47.54c-.13,.19-.4,.35-.82,.5l-.06,.02-3.06,1.09-1.5,2.12c-.26,.36-.51,.58-.76,.67-.25,.08-.5,.04-.74-.14-.26-.18-.38-.4-.39-.67,0-.26,.13-.57,.39-.93l1.51-2.12v-3.22s0,0,0-.02c0-.46,.07-.78,.21-.98,.13-.18,.31-.29,.54-.32,.23-.03,.45,.03,.65,.17,.12,.09,.21,.22,.27,.4,.05,.18,.09,.42,.09,.72l-.02,2.4,2.29-.81c.26-.09,.48-.14,.69-.14,.21,0,.38,.05,.51,.15,.17,.12,.26,.29,.3,.52,.04,.23,0,.43-.12,.59Zm2.74,47.54h-2.14v-14.22h2.14v14.22Zm9.32,0h-2.3l-2.96-9.12v9.12h-2.14v-14.24h2.41l2.84,9.56v-9.56h2.14v14.24Zm7.69-13.38c.66,.67,.98,1.47,.98,2.41v1.62h-2.22v-1.67c0-.34-.12-.63-.36-.87-.24-.25-.53-.37-.87-.37s-.63,.12-.87,.37c-.24,.24-.36,.53-.36,.87v7.78c0,.34,.12,.63,.36,.87,.24,.23,.53,.35,.87,.35s.63-.12,.87-.35c.24-.24,.36-.53,.36-.86v-2.79h-1.2v-2.16h3.42v4.97c0,.95-.33,1.75-1,2.4-.66,.66-1.46,.99-2.39,.99s-1.74-.33-2.41-1c-.66-.66-.99-1.46-.99-2.39v-7.76c0-.95,.33-1.75,1-2.41,.66-.66,1.47-1,2.4-1s1.75,.34,2.41,1Z"/>
      <polygon points="9.29 64.67 0 75.55 18.58 75.55 18.58 53.79 0 53.79 9.29 64.67"/>
      <polygon points="154.17 53.79 135.59 53.79 135.59 75.55 154.17 75.55 144.88 64.67 154.17 53.79"/>
    </g>
  </g>
</svg>