<?xml version="1.0" encoding="UTF-8"?>
<svg id="_图层_2" data-name="图层 2" xmlns="http://www.w3.org/2000/svg" viewBox="0 0 221.65 87.86">
  <g id="_图层_2-2" data-name=" 图层 2">
    <path d="M221.64,40.82c-.1-1.39-1.1-2.27-2.05-3.11-4.39-3.9-9.71-5.53-15.39-6.34-2.49-.36-5.06,.25-7.8-.61,4.05-3.09,8.89-4.03,12.91-6.61,3.86-2.47,7.37-5.16,9.64-9.24,.54-.96,.15-1.13-.72-1.52-1.9-.85-3.83-.38-5.73-.45-5.03-.2-8.77,2.03-11.26,6.33-1.01,1.74-1.77,3.62-2.65,5.44-1.37,2.84-3.48,4.89-6.47,5.98v-.05s.01-.02,.01-.02c-.01,0-.02,0-.03-.01-.23-.87,.76-1.24,.85-1.98,3.29-4.46,3.23-9.32,1.78-14.98-2.7,3.98-3.91,8.13-6.24,11.66-.75,2.42-1.68,4.84-.5,7.39-1.88,.93-3.75,1.86-5.63,2.79-.77-.13-1.42,.28-2.09,.53-1.65,.63-3.13,1.73-5,1.77-.1-.14-.21-.28-.31-.43-.11-1.28,1.2-1.96,1.31-3.15,3.04,.13,4.31-2.64,6.43-4.01,.26-.17,.42-.73,.39-1.09-.15-1.79-.6-3.44-1.86-4.67-.17-.75-.76-1.38-1.57-1.76,.05-.43,.47-.82,.91-1.24,2.47-2.35,2.8-4.01,1.52-7.07-.33-.78-.6-1.49-.06-2.45,.72-1.28-.67-4.23-1.91-4.5-.32-.07-.61-.14-.87-.2-.21-.7-.46-1.11-.72-1.11-.21,0-.41,.25-.58,.7-.91-.38-1.54-.92-2.71-2.09-.3-.29-.69-.64-1.04-.44-1.01,.57-2.28,.04-3.21,.81-.12,.01-.22,.05-.32,.11-.13,.09-.26,.19-.38,.28-.69,.81-1.28,1.74-2.22,2.29-.38,.22-.85,.55-1.27,.11-.34-.35,.04-.75,.05-1.13,.5-2.85-1.12-4.94-3.18-3.93-2.75,1.34-5.47,2.9-6.73,5.98-.76,1.34-1.34,2.79-2.44,4.09-1.01-1.72-.63-3.92-2.44-5.01-1.99-1.5-4.78-1.29-6.93,.53-2.68,2.27-3.8,5.7-2.4,8.19,1,1.77,1.49,3.54,1.27,5.52-.02,1.14-.05,2.28-.06,3.42-.01,1.32-.84,1.61-1.7,.96-.85-.64-1.85-.98-2.66-1.63-1.25-1.01-2.54-.64-2.85,.96-.22,1.12-.12,2.24,.37,3.35,.51,1.15,.85,2.39,1.14,3.62,.13,.54,.23,1.27-.43,1.64-.73,.41-1.06-.26-1.49-.65-1.3-1.17-2.07-.95-2.45,.78-.25,1.13-.48,2.2-1.56,2.9-1.35,.87-1.08,1.84,0,2.75,0,1.08-.94,.96-1.58,1.2-2.19,.83-4.39-.1-6.57,.07-1.4,.11-2.43-.12-3.38-1.24,2.08-1.46,4.1-2.9,4.46-5.62,.03-.87-.1-1.79,.12-2.62,1.46-5.63-1.19-9.43-5.5-12.47-.79-.56-1.98-1.46-2.7-.94-1.17,.85-1.33-.01-1.71-.56-1.88-2.7-4.42-4.62-7.21-6.37-.46,.65,.37,1.26-.28,1.96-4.67-5.2-9.74-9.96-15.76-13.63-1.9,3.69-.87,7.38,.18,11.11-1.7-.19-2.46-1.75-3.99-2.29-.2,1.42,.21,2.55,.68,3.63,.86,1.98,1.55,4.01,2.06,6.1,.11,.43,.44,1.16-.23,1.11-1.08-.08-2.35,.96-3.26-.66-.74-1.31-2.12-2.04-3.5-2.63-.7-.3-1.42-.81-2.11,.04-.07,.09-.14,.18-.2,.28-3.13-.9-6.23-.05-9.35,.14-1.66-.57-3.49-.61-5.06-1.58,.57,1.04,1.46,1.69,2.36,2.33,.05,.14,.11,.27,.16,.41-.09,.09-.17,.18-.26,.27-1.07-.09-2.14-.17-3.2-.26-4.69-5.47-11.24-7.49-17.74-9.66-4.72-1.58-9.66-1.34-14.5-1.97-.64-.06-1.16-.7-1.9-.4,.24,1.02,1.42,.86,1.9,1.59,2.34,3.51,5.18,6.6,8.05,9.69,4.43,4.76,9.23,8.88,15.28,11.4,2.92,1.74,6.14,2.37,9.44,2.66-.15,.37-.23,.77-.23,1.19,0,.09,0,.19,.02,.28-.63,.36-1.43,.34-2.38,.1-3.46-.89-6.83-1.97-10.02-3.63-4.48-2.33-8.72-5.05-13.07-7.6-1.9-1.11-4.13-1.68-5.61-3.47-.8-.99-1.67-1.93-2.4-2.97-1.38-2-3.29-3.26-5.38-4.41-5.05-2.77-10.48-3.22-16.03-2.78-3.74,.3-7.48,.84-10.87,2.67-.38,.07-.91-.02-1.02,.44-.12,.49,.43,.6,.74,.82,9.36,6.49,19.65,9.58,31.07,8.57,3.54,.1,6.93,.66,9.9,2.84,3.43,2.51,7.18,4.49,10.88,6.56,.47,.26,1.2,.26,1.4,1.08-3.75-.07-7.56,.74-10.73-2.22-.81-.75-2.02-1.26-3.26-1.51-5.39-1.08-10.69-.57-16.01,.59-5.06,1.1-9.61,3.42-14.27,5.51-1.09,.49-2.67,.91-2.77,2.03-.1,1.13,1.34,1.89,2.36,2.54,6.22,3.96,13.04,4.67,20.17,3.66,3.74,.16,7.14-1.81,10.88-1.76,.54,0,1.1-.47,1.63-.76,2.56-1.44,4.38-3.51,5.33-6.31,.51-.16,1.01-.44,1.52-.47,5.5-.33,10.87,.31,16.08,2.16,.29,.1,.84,.22,.72,.88-.39,.14-.81,.41-1.25,.45-4.63,.36-8.83,1.83-12.87,4.19-5.89,3.45-11.18,7.45-14.83,13.33-.34,.42-1.05,.67-.66,1.5,1.61-.24,3.23-.25,4.84-.36,6.21-.43,12.29-1.44,17.37-5.48,2.58-2.05,5.46-3.89,6.1-7.54,.14-.8,.63-.92,1.3-.52,2.2,1.28,4.65,1.96,7.17,2.92-2.33,.53-4.24-.6-6.27-.82-.69-.07-1.62-.7-1.92,.22-.27,.82,.76,1.11,1.4,1.4,.54,.25,1.13,.44,1.71,.59,2.5,.68,5.04,.63,7.77,.37-1.35,2.06-3.82,3.33-3.51,6.34,.96-.74,1.94-.95,2.76-1.72,1.25-1.18,1.95-2.71,3.1-3.91,.12,.1,.24,.2,.36,.3-.35,1.3-.69,2.59-1.04,3.89-.37,.37-.73,.75-1.11,1.1-.68,.62-.54,1.17,.19,1.59,3.05,1.76,6.4,2.63,9.81,3.33,1.4,.99,3.32,.4,4.68,1.54,.34,.31,.69,.57,1.06,.78h0c-.37-.21-.73-.47-1.07-.78-.14,.23-.25,.48-.41,.69-1.38,1.75-1.32,1.9,.81,2.62,2.05,.69,4.2,.81,6.31,1.15,2.86,.6,5.78,.43,8.68,.65,.55,.07,1.09,.13,1.64,.2,.15,.11,.31,.21,.47,.3,.03,.18,.06,.37,.09,.55-.52,1.29-.25,2.54,.95,3.07,1.3,.58,1.42-1.02,2.06-1.67,.13-.14,.19-.35,.28-.53,2.42-2.61,6.04-2.84,8.95-4.5,.49-.28,.98-.55,1.48-.81,.79-.09,1.49-.46,2-1.02,2.71-1.36,5.43-2.69,7.78-4.65,.83,.48,.58,1.55,1.17,2.16-6.93,2.24-12.96,6.02-18.2,11.02-.79,.75-2.68,1.71-1.97,2.57,.81,.99,2.69,.12,3.85-.52,3.7-2.02,7.33-4.17,10.92-6.38,1.92-1.18,4.04-2.15,5.4-4.09,.48,.15,.29,.71,.59,.97,.05,.62,.47,1.31-.54,1.64-4.91,1.64-8.71,5-12.45,8.36-3.28,2.94-6.78,5.69-9.32,9.38-.17,.25-.62,.42-.38,.82,.31,.51,.7,.17,1.04,0,.42-.2,.85-.4,1.25-.63,5.16-3,9.91-6.55,14.44-10.43,.84-.72,1.66-1.57,3.1-2.07,.07,.07,.14,.11,.2,.14-1.06,1.92-2.35,3.16-3.58,4.41-3.8,3.85-7.58,7.7-10.24,12.48-.64,1.15-1.05,2.37-.67,3.93,3.12-2.95,6.14-5.68,8.71-8.83,1.95-2.39,3.72-4.92,5.57-7.39,.13-.26,.25-.52,.38-.79-.13,.26-.25,.52-.38,.79,.12,.11,.24,.22,.36,.33-.24,.7-.4,1.43-.73,2.08-1.8,3.59-3.64,7.16-5.47,10.74-.26,.51-.65,1.01-.09,1.68,3.56-2.06,5.62-5.36,7.29-8.87,1.61-3.39,3.1-6.87,3.44-11.15,.64,1.39,.99,2.34,1.48,3.2,1.11,1.91,1.84,4.08,3.61,5.54,.62,.51,1.43,1.08,2.2,.62,.76-.45,.37-1.4,.2-2.05-1.2-4.5-3.34-8.45-7.08-11.38-.64-.5-1.1-.98-.88-1.84,.98,1.06,2.22,1.76,3.41,2.54,1.94,1.39,3.85,2.84,5.84,4.16,.82,.55,2.01,1.08,2.71,.09,.67-.94-.25-1.83-.89-2.58-1.74-2.05-3.78-3.72-6.25-4.83-.84-.38-1.66-.99-2.54-1.09-2.4-.28-2.8-1.76-2.63-3.78,.64,.1,1.22,.2,1.8,.29,3.18,.74,6.25,2.68,10.27,.94-3.69-1.53-6.58-3.56-10.15-3.91-.85-.5-1.8-.25-2.7-.37-1.26-.17-1.39-1.32-1.64-2.2-.24-.85,.67-.5,1.08-.68,.23,.06,.47,.12,.7,.19,.17,.07,.34,.14,.51,.21,2.31,.48,4.61,1.27,7.03,.42-2.4-1.04-4.6-2.61-7.38-2.44-.42-.59-1.11-.55-1.64-.46-2.65,.44-3.34-1.5-4.49-3.49,2.05,.28,3.59-.67,5.29-.83,.88,1.86,2.54,2.86,4.66,2.61,1.62-.2,3.2-.3,4.81,.03,1.17,.24,1.78-.28,1.84-1.49,.02-.48-.33-1.29,.46-1.29,.71,0,1.05,.65,1.12,1.43,.3,3.35,1.83,4.8,5.38,5.19,2.32,.25,4.14-2.05,2.94-4.05-.75-1.24,.13-1.89,.43-2.53,.17-.38,.49-.45,.86-.4,1.28,1.05,3.13,1.71,5.19,1.71,.12,0,.24,0,.37-.01,2.14,.54,4.29,.98,6.54,.48,1.62-.36,3.41-.49,3.6-2.76,0-.1,.04-.18,.07-.26,.39-.22,.75-.45,1.07-.7,0,0,0,0,.01,0,2.03-.87,3.62,.02,5.15,1.21,.09,1.78-1.1,2.98-2.06,4.24-2.05,2.7-3.87,5.49-4.57,8.87-.24,1.14-.25,2.21,.45,3.27,.57,.88,.91,.88,1.66,.19,2.69-2.48,5.1-5.16,6.69-8.5,1.65-3.46,1.86-6.82-.59-10.03,1.93-.07,3.85-.16,5.32,1.45,.67,.73,1.34,1.44,2.01,2.16,.7,1.24,.6,2.4-.13,3.65-.46,.79-.7,1.74-.92,2.65-.58,2.41,.05,4.35,2.13,5.6,2.09,1.25,3.71,2.83,4.72,5.17,2.75-3.24,2.74-6.87,2.05-10.57-.52-2.78-1.96-4.99-4.72-6.08-.59-.23-.73-.72-.97-1.19-1.39-2.76-3.54-4.49-6.67-4.85,3.59-2.22,7.63-3.49,11.37-5.39q3.16-.52,4.46,2.37c.19,.43,.35,.88,.51,1.32,.84,2.31,2.45,3.81,4.78,4.55,1.82,.57,3.69,.76,5.58,.74,3.7-.02,7.41-.07,11.04,.85,1.48,.37,1.62-.44,1.54-1.49Zm-15.25-22.64s0,0,0,0c-.02,.03-.03,.06-.05,.09,.02-.03,.03-.06,.05-.09Zm-75.4,33.27c.25,.88-.79,.82-1.32,1.1-.08-.02-.15,.01-.2,.08h0c-1.79,.55-3.56,1.15-5.22,2.01-.27-.36-.61-.66-1-.88,1.02-.34,1.65-.82,1.65-1.35,0-.23-.13-.45-.35-.66,1.54-.9,2.92-2.07,4.37-3.11,1.43,.37,1.75,1.67,2.07,2.79Zm-2.87-3.94c.29,.12,.47,.33,.59,.57-.12-.24-.3-.45-.59-.57-2.15,.76-4.3,1.52-6.45,2.29,.04,.31,.08,.61,.13,.92h0c-.04-.31-.08-.61-.13-.92-.73-2.35-1.46-4.7-2.17-7.05-.21-.71-.22-1.58,.81-1.18,2.81,1.08,5.91,1.74,7.64,4.64,.27,.45,.38,.84,.17,1.31Z"/>
  </g>
</svg>