<?xml version="1.0" encoding="UTF-8"?>
<svg id="_图层_2" data-name="图层 2" xmlns="http://www.w3.org/2000/svg" viewBox="0 0 162.75 119.27">
  <g id="_图层_2-2" data-name=" 图层 2">
    <g>
      <path d="M81.35,0c3.74,.52,7.5,.95,11.22,1.58,3.16,.54,5.38,2.43,6.23,5.54,1.62,5.95,3.05,11.94,4.6,17.91,1.22,4.69,2.48,9.37,3.79,14.04,.11,.38,.74,.75,1.19,.86,2.71,.63,5.51,.96,8.14,1.81,2.42,.79,4.84,1.86,6.94,3.27,3.77,2.52,3.92,7.41,.16,9.91-3.22,2.14-6.82,3.73-10.37,5.31-6.82,3.04-14.13,4.14-21.47,5.15-13.05,1.8-25.76,.17-38.19-3.74-4.45-1.4-8.66-3.65-12.88-5.7-2.31-1.12-4-2.96-4.04-5.79-.02-2.14,.97-3.77,2.63-5.05,3-2.33,6.5-3.45,10.15-4.18,1.39-.28,2.78-.64,4.19-.7,1.59-.06,2.13-.87,2.47-2.27,2.02-8.35,4.07-16.69,6.19-25.01,.57-2.25,1.4-4.43,2.17-6.62,.86-2.45,2.71-3.81,5.13-4.54,3.82-1.16,7.71-1.67,11.7-1.3,.02-.16,.03-.32,.05-.48Zm6.89,38.15s-.05,0-.08,0c0-1.57,.1-3.15-.05-4.7-.06-.62-.55-1.51-1.07-1.71-3.66-1.48-7.41-1.43-11.06-.02-.61,.24-1.28,1.3-1.28,1.97,.02,3.69,.19,7.38,.46,11.06,.04,.6,.77,1.48,1.35,1.66,3.25,1,6.56,1.09,9.85,.08,.86-.26,1.41-.68,1.46-1.67,.11-2.22,.27-4.43,.42-6.65Zm7.01-33.01c-.3-.49-.33-.61-.4-.65-3.93-2.14-8.23-2.29-12.54-2.23-2.24,.03-4.48,.23-6.71,.49-2.03,.24-4.04,.65-6.04,1.08-.45,.1-.81,.59-1.21,.89,.07,.16,.14,.33,.21,.49,4.43,.18,8.86,.51,13.29,.5,4.39-.01,8.78-.36,13.4-.57Z"/>
      <path d="M9.62,62.72c5.99-1.31,5.91-6.25,7.38-10.53,.4,.44,.87,.73,.95,1.1,.81,3.51,3.49,4.48,6.55,4.86,2.85,.35,2.65,0,2.17,3.02-.71,4.4,.08,8.68,1.34,12.87,.52,1.73,2.25,1.99,3.17,.45,1.48-2.46,2.74-5.06,4.07-7.61,.28-.53,.48-1.1,.83-1.9,.46,.49,.91,.8,1.15,1.23,.76,1.41,1.83,1.66,3.15,.92,1.23-.69,2.41-1.48,3.64-2.18,.32-.18,.73-.22,1.1-.32,.09,.37,.22,.73,.25,1.1,.11,1.25,0,2.55,.33,3.74,.25,.89,.93,1.75,1.61,2.42,1.03,1.02,1.24,1.7,.14,2.64-.9,.76-1.99,1.41-3.1,1.8-3.36,1.16-5.62,3.43-7.23,6.6,4.02,2.32,7.23-1.18,10.84-1.7,0,2.06-.43,3.93,.13,5.42,.52,1.4,2.1,2.42,3.34,3.75-.42,.25-.88,.6-1.39,.82-2.11,.91-3.87,2.23-4.92,4.32-.64,1.27-1.26,1-2.08,.22-2.98-2.83-5.64-3.05-9.25-.97-1.18,.68-1.39,1.34-.68,2.51,1.58,2.59,3.07,5.23,4.59,7.86,.32,.55,.59,1.12,.89,1.68-.12,.09-.23,.17-.35,.26-.88-1.05-1.85-2.04-2.61-3.18-1.51-2.28-2.88-4.64-4.34-6.95-1.86-2.95-4.45-3.18-6.4-.31-1.26,1.84-2.06,4.04-2.82,6.16-.5,1.39-1.15,1.99-2.54,1.44-1.68-.66-3.04,.14-4.46,.82-.45,.22-1.03,.18-1.54,.26-.05-.51-.22-1.05-.13-1.53,.69-3.37,.54-3.77-2.49-5.74,.39-.49,.68-1.08,1.15-1.43,2.21-1.66,2.6-4.06,2.48-6.52-.03-.67-1.08-1.58-1.85-1.88-2.49-.97-5.01-1.96-7.81-1.37-.27,.06-1-.55-.96-.72,.72-3.2-.88-4.88-3.68-5.81-.09-.03-.16-.12-.22-.2-.03-.03-.01-.09,.02,.24,3.24-2.22,6.33-4.35,9.33-6.4,1.17,.88,2.41,2.01,3.82,2.83,1.59,.93,3.5,.53,4.7-.84,.29-.34,.34-1.02,.28-1.52-.42-3.4-1.81-6.28-4.59-8.42-1.19-.91-2.3-1.92-3.95-3.3Z"/>
      <path d="M152.28,98.23c-3.46,.99-3.33,3.23-2.7,5.71,.11,.42-.09,.93-.15,1.4-.47-.06-1.03,.02-1.41-.2-1.65-.95-3.3-1.5-5.2-.77-.89,.34-1.44-.16-1.72-1-.33-1.01-.6-2.04-1.02-3.02-.5-1.16-1.02-2.34-1.73-3.37-2.21-3.21-4.78-3.07-6.89,.22-1.96,3.06-4.03,6.05-6.07,9.06-.19,.28-.5,.48-1.03,.56,.3-.57,.58-1.16,.91-1.72,1.54-2.67,3.07-5.35,4.65-8,.58-.98,.54-1.73-.56-2.16-1.45-.56-2.91-1.16-4.41-1.49-1.98-.43-3.47,.53-4.79,1.98-1.31,1.46-1.54,1.39-2.49-.23-1.09-1.88-2.74-3.07-4.67-3.95-.52-.24-1.01-.55-1.78-.96,.73-.57,1.18-1.03,1.72-1.33,1.82-1.03,2.5-2.56,2.2-4.59-.01-.1-.04-.2-.04-.3,.02-.87,.05-1.74,.07-2.61,.94,.24,1.96,.32,2.79,.76,1.94,1.03,3.92,1.64,6.12,1.36,.57-.07,1.11-.31,1.79-.51-1.62-3.31-3.91-5.52-7.23-6.74-1.24-.46-2.36-1.3-3.42-2.11-.81-.63-.61-1.56,.15-2.07,2.21-1.46,2.26-3.66,2.26-5.92,0-.52,.09-1.05,.13-1.57,.54,.19,1.11,.33,1.61,.59,1.16,.62,2.26,1.34,3.41,1.96,1.19,.64,2.12,.34,2.8-.85,.26-.46,.67-.84,1.19-1.47,.36,.79,.6,1.38,.89,1.94,1.27,2.47,2.5,4.97,3.89,7.37,.34,.58,1.34,1.25,1.86,1.13,.66-.16,1.43-1,1.62-1.7,1.27-4.51,2.06-9.09,.99-13.78-.23-1.01,.04-1.49,1.17-1.58,1.2-.09,2.39-.38,3.57-.65,2.1-.5,3.46-1.77,4.06-3.88,.15-.52,.55-.96,1-1.71,.8,2.47,1.53,4.56,2.15,6.67,.71,2.42,2.99,3.07,5.12,4.23-1.42,1.19-2.55,2.17-3.72,3.1-2.45,1.94-3.93,4.43-4.44,7.52-.41,2.48,1.79,4.48,4.17,3.52,1.27-.51,2.35-1.51,3.48-2.34,.39-.29,.67-.73,.82-.9,3.18,2.18,6.24,4.28,9.35,6.42-.22,.12-.7,.4-1.21,.64-2.21,1.02-2.7,1.84-2.54,4.27,.12,1.81,.12,1.82-1.66,1.61-2.84-.34-5.38,.74-7.89,1.8-.5,.21-1.07,.98-1.07,1.5-.01,2.46,.28,4.87,2.5,6.53,.46,.34,.77,.87,1.4,1.62Z"/>
      <path d="M75.48,108.32c1.13-1.64,2.2-3.13,3.2-4.67,.11-.17-.28-.61-.29-.94-.03-.79-.26-1.77,.1-2.34,.41-.63,1.39-.9,2.12-1.33,.15,.73,.31,1.47,.46,2.2,.1,.51,.2,1.01,.29,1.52,.77-.19,1.7-.18,2.25-.63,.62-.51,.78-1.55,1.34-2.16,.37-.41,1.12-.48,1.69-.7,.11,.61,.42,1.26,.31,1.83-.33,1.63-.88,3.21-1.24,4.83-.09,.39,.24,.88,.37,1.32,.36-.2,.83-.31,1.07-.61,1.36-1.61,2.94-3.11,3.1-5.43,.02-.29,.46-.79,.69-.78,.38,.01,.91,.27,1.09,.58,.32,.55,.42,1.22,.69,2.07,.76-.68,1.39-1.29,2.08-1.83,1.61-1.27,3.05-1.4,4.19-.2,.41,.44,.69,1.38,.51,1.92-.32,.98-1.01,1.84-1.59,2.73-.69,1.05-1.44,2.07-1.12,3.45,1.61-.17,4.04-2.59,4.16-4.06,.21-2.63,2.49-5.6,4.93-6.4,1.82-.6,3.1,.07,3.1,1.62-2.39-.54-5.05,2.11-4.64,4.62,.16,.94,1.39,1.45,2.08,.78,.87-.84,1.6-1.81,2.41-2.71,.37-.42,.78-.8,1.17-1.2,.16,.05,.31,.1,.47,.15,.09,1.42,.18,2.85,.28,4.32,.74-.15,1.5-.31,2.26-.47,.07,.17,.14,.33,.21,.5-.61,.37-1.29,.65-1.8,1.12-.65,.62-1.44,1.3-1.69,2.11-.91,3.01-2.14,5.78-4.51,7.95-1.56,1.43-3.48,1.89-5.48,1.76-.64-.04-1.55-.74-1.77-1.34-.5-1.39-.32-2.88,.97-3.86,1.97-1.5,4.02-2.89,6.04-4.32,.41-.29,.94-.45,1.28-.8,.51-.54,.9-1.19,1.34-1.79-.12-.12-.25-.24-.37-.36-.44,.26-.86,.6-1.34,.75-.76,.24-1.69,.71-2.32,.47-2.02-.77-3.26,.4-4.62,1.44-.32,.24-.67,.55-1.04,.6-.97,.12-2.1,.42-2.89,.05-.45-.21-.62-1.64-.46-2.42,.36-1.75,1.02-3.44,1.62-5.36-2.03,.81-3.29,2.21-4.13,4.04-.27,.6-.46,1.24-.79,1.8-.18,.3-.65,.69-.88,.63-.37-.11-.81-.5-.9-.86-.18-.66-.12-1.38-.18-2.23-1.09,1.15-1.97,2.34-3.11,3.19-.75,.56-1.95,1-2.81,.81-1.28-.28-1.1-1.63-.98-2.7,.1-.85,.27-1.68,.4-2.5-2.25-.98-2.46-.87-3.63,1.1-.74,1.26-1.49,2.55-2.46,3.63-1.25,1.41-2.5,1.2-3.38-.45-.61-1.15-1.06-2.38-1.65-3.72-.83,1.2-1.66,2.3-2.38,3.47-.79,1.28-1.9,1.89-3.33,1.5-1.4-.38-1.43-1.66-1.46-2.86,0-.34-.05-.69-.08-1.09-1.67,.28-2.75,.98-3.07,2.71-.21,1.13-.71,2.21-1.08,3.31-1.2,3.57-5.39,5.57-8.56,5.3-1.82-.15-2.56-1.33-1.6-2.89,1.86-3.03,4.76-4.91,7.79-6.59,1.21-.67,1.97-1.52,1.9-2.8-1.38,.49-2.71,1.12-4.11,1.44-1.83,.41-3.22-.52-3.34-2.36-.24-3.68,.89-6.92,3.89-9.25,1.78-1.37,4.03-1.18,5.22,.27,.9,1.1,1.13,2.31,.12,3.94-.22-.79-.38-1.27-.49-1.76-.34-1.55-1.31-1.88-2.49-.84-1.84,1.63-3.12,5.27-2.72,8.34,.85-.53,1.65-.87,2.23-1.43,.87-.84,1.54-1.88,2.38-2.75,.29-.3,.95-.61,1.21-.48,.4,.2,.8,.78,.84,1.23,.12,1.14,.04,2.31,.04,3.58,1.42-.25,2.49-.8,2.98-2.22,.21-.62,.43-1.28,.82-1.78,.31-.4,.89-.6,1.35-.89,.3,.53,.9,1.11,.83,1.6-.2,1.55-.66,3.06-1.01,4.59-.16,.71-.28,1.43-.51,2.59,.65-.53,1-.72,1.22-1.01,1.62-2.09,3.72-3.86,4.21-6.7,.12-.7,.88-1.29,1.63-1.84,.35,2.96-.62,5.95,1.3,8.93Zm-24.23,7.24c3.28,.84,6.81-2.72,7.24-6.28-2.75,1.73-5.4,3.37-7.24,6.28Zm54.65-4.12c-.13-.15-.27-.3-.4-.44-1.86,1.42-3.78,2.77-5.54,4.31-.41,.36-.29,1.33-.42,2.01,.6-.07,1.33,.06,1.79-.24,2.13-1.38,3.48-3.41,4.56-5.63Z"/>
      <path d="M70.14,82.75c.88-.39,1.45-.78,2.07-.89,.69-.12,1.59-.24,2.08,.1,.41,.28,.56,1.27,.46,1.89-.27,1.75-.75,3.46-1.09,5.2-.11,.55-.02,1.14-.02,1.9,1.37-.56,2.02-1.27,1.83-2.69-.3-2.28,.55-4.18,2.27-5.67,1.11-.97,2.48-1.19,3.65-.39,1.1,.74,1.96,1.8,1.78,3.39-.14,1.17-.03,2.38,.2,3.64,1.35-1.14,2.34-2.43,2.54-4.21,.05-.45-.06-.94,.08-1.36,.18-.55,.52-1.04,.8-1.56,.64,.37,1.37,.66,1.9,1.15,.32,.3,.35,.92,.52,1.46,.83-.46,1.57-1.07,2.41-1.27,.75-.18,1.82-.17,2.34,.25,.42,.34,.41,1.46,.28,2.17-.2,1.1-.66,2.16-.85,3.29,1.37-1.4,2.34-2.85,2.47-4.97,.3-4.84,.89-9.66,1.45-14.48,.11-.98,.54-1.95,.94-2.87,.56-1.27,1.51-2.09,3-1.7,1.37,.36,1.53,1.61,1.42,2.7-.22,2.11-.55,4.21-1.04,6.27-.6,2.54-1.4,5.02-2.17,7.73,.83-.42,1.45-.92,2.15-1.05,.68-.13,1.55-.07,2.09,.28,.3,.2,.33,1.34,.04,1.77-1.01,1.52-2.21,2.91-3.52,4.59,.12,.16,.48,.68,.87,1.18,.55,.72,1.19,.73,1.81,.12,1.12-1.1,2.31-2.15,3.26-3.38,.41-.53,.32-1.48,.36-2.24,.09-1.54-.03-3.11,.22-4.62,.16-.96,.93-1.74,2.11-1.52,1.22,.23,1.49,1.19,1.31,2.21-.25,1.38-.75,2.72-1.02,4.1-.16,.8-.16,1.65-.11,2.46,.1,1.64,.52,3.3,.37,4.92-.14,1.53-1.21,2.67-2.86,2.95-1.32,.23-2-.59-2.28-1.72-.26-1.01-.05-1.89,1.37-2.18v1.78c2.11-.02,2.82-2.15,1.63-5-.81,.86-1.56,1.64-2.29,2.44-2.47,2.65-3.26,2.68-6.1,.07,0,.78,.13,1.47-.04,2.09-.13,.49-.55,1.08-.98,1.25-.26,.1-.99-.44-1.17-.85-.35-.76-.46-1.63-.7-2.56-.9,.81-1.62,1.67-2.53,2.22-1.44,.88-2.31,.4-2.42-1.3-.07-1.09,.17-2.21,.29-3.31,.04-.39,.14-.77,.29-1.54-1.8,1.15-2.71,2.49-3.16,4.19-.17,.64-.17,1.35-.47,1.9-.24,.45-.82,.72-1.25,1.07-.28-.42-.69-.81-.82-1.28-.17-.59-.11-1.24-.16-1.98-.81,.96-1.38,2.22-2.23,2.46-.76,.21-1.84-.71-2.84-1.15-.8,.37-2,1.43-2.96,1.25-1.62-.3-2.66,.16-3.92,.98-1.54,1-3.21-.1-2.92-1.88,.28-1.68,.93-3.3,1.37-4.95,.18-.69,.25-1.4,.41-2.31-1.83,.35-2.95,.86-3.12,2.66-.14,1.45-.41,2.93-.9,4.3-.24,.66-1.13,1.09-1.72,1.63-.45-.53-1.18-1.01-1.28-1.59-.19-1.11-.19-2.33,.05-3.43,1.07-4.89,2.2-9.77,3.42-14.62,.23-.92,.29-2.54,1.96-2.12,1.65,.42,.92,1.75,.74,2.77-.46,2.59-.98,5.17-1.46,7.76-.11,.59-.13,1.19-.22,2.13Zm28.09-2.79l.45,.07c.22-.67,.48-1.33,.65-2.01,.77-3.18,1.54-6.36,2.23-9.55,.12-.55-.13-1.17-.21-1.76-.19,0-.38,0-.57-.01-2.08,4.18-1.86,8.81-2.54,13.26Zm-19.49,9.8c1.92-1.58,2.76-3.53,3.04-6.2-.81,.08-1.71-.11-2.18,.25-1.25,.97-1.66,4.16-.86,5.95Zm23.62-7.38c-1.41,.93-2.96,1.72-3.72,3.34,1.89-.44,3.24-1.44,3.72-3.34Zm5.25-.84c.2,.03,.39,.06,.59,.09,.39-1.07,1.09-2.1,.52-3.28-.21-.03-.43-.06-.64-.08-.16,1.09-.31,2.18-.47,3.27Z"/>
      <path d="M29.89,41.43c.37,.56,.39,.61,.42,.64,.69,.74,2.03,1.25,1.54,2.52-.51,1.33-1.89,1.09-3.05,1.13-.76,.02-1.52,.08-2.27,.1-2.1,.04-3.68,.7-3.87,3.12,0,.12-.18,.23-.58,.73-.26-.97-.64-1.65-.55-2.26,.23-1.57-.46-2.65-1.31-3.87-.86-1.24-1.54-2.71-1.9-4.18-.47-1.94,.77-3.05,2.77-2.81,.48,.06,.96,.19,1.9,.38-.36-.88-.54-1.45-.81-1.97-1.54-2.96-2.7-6-1.98-9.43,.54-2.56,2.19-3.97,4.64-3.92,1.42,.03,2.5,.64,3.19,1.94,.34,.64,.79,1.21,1.19,1.81,.15-.06,.31-.12,.46-.18-.12-.47-.18-.96-.37-1.4-1.93-4.45,.15-9.52,3.46-11.3,.92-.5,2.37-.74,3.25-.35,.63,.28,.86,1.79,.98,2.78,.14,1.12-.27,2.32,.89,3.43,.85-.72,1.72-1.38,2.49-2.15,1.97-1.97,4.18-3.6,6.94-4.12,1.38-.26,2.96-.2,4.29,.23,1.98,.64,2.66,2.62,1.98,4.59-.67,1.94-1.85,3.51-3.63,4.52-1.8,1.02-3.68,1.88-5.51,2.83-.37,.19-.69,.47-1.04,.71l.12,.45c.39,0,.79,.01,1.18,0,1.06-.03,2.13-.18,3.17-.1,1.84,.16,2.81,1.08,3.01,2.65,.23,1.81-.7,3.8-2.23,4.21-1.39,.37-2.87,.49-4.32,.6-1.81,.13-3.64,.13-5.46,.2-.17,0-.33,.17-.74,.4,1.01,.43,1.84,.76,2.65,1.13,1.3,.6,2.09,1.57,2.08,3.07,0,1.45-.76,2.49-2.06,2.87-1.28,.37-2.66,.5-3.99,.52-1.31,.02-2.62-.38-3.92-.33-.96,.04-1.91,.49-3.02,.8Zm.27,2.93c.04-.12,.09-.24,.13-.36-.3-.25-.59-.51-.9-.76-1.26-1.04-1.26-1.7-.13-2.84,1.07-1.07,2.32-1.63,3.82-1.5,1.51,.12,3.01,.4,4.52,.44,.97,.02,2.04-.07,2.91-.47,1.37-.62,1.46-1.84,.24-2.74-.7-.52-1.7-.64-2.44-1.13-.7-.46-1.24-1.16-1.85-1.76,.59-.54,1.12-1.41,1.79-1.55,1.61-.33,3.3-.32,4.96-.44,1.41-.1,2.83-.11,4.23-.32,1.37-.2,1.93-1.32,1.98-2.53,.05-1.31-1.04-1.65-2.1-1.68-1.15-.03-2.31,.23-3.46,.16-.6-.04-1.49-.39-1.69-.84-.24-.57-.09-1.49,.23-2.06,.31-.55,1.02-.94,1.62-1.27,1.55-.85,3.3-1.43,4.66-2.5,1.34-1.05,2.5-2.47,3.35-3.95,.68-1.19-.33-2.57-1.71-2.75-1.96-.25-3.83-.06-5.46,1.25-1.73,1.39-3.51,2.72-5.25,4.09-1.94,1.53-3.43,1.06-3.93-1.35-.21-1.02-.04-2.11-.12-3.17-.08-1.18-.81-1.66-1.69-.9-1.15,.99-2.47,2.13-2.95,3.48-.86,2.41-1.24,4.98-.08,7.55,.25,.56-.03,1.76-.49,2.11-.41,.31-1.54,.04-2.1-.34-.62-.42-.99-1.24-1.43-1.91-.91-1.39-1.68-1.65-3.2-1.04-2.14,.87-3.05,2.32-2.47,4.73,.5,2.09,1.39,4.1,2.11,6.14,.25,.71,.61,1.4,.73,2.13,.22,1.39-.42,2.01-1.81,1.86-.35-.04-.69-.18-1.03-.23-1.15-.15-1.86,.53-1.43,1.58,.62,1.5,1.46,2.9,2.23,4.39,1.83-1.24-1.27-2.66,.52-3.77,.38,.32,.71,.59,1.25,1.05,.98-1.98,2.34-3.73,2.67-5.67,.34-1.94-.34-4.06-.62-6.44,2.01,1.16,1.85,3,2.46,4.68,1.59-1.91,3.08-3.68,4.53-5.48,.18-.23,.17-.65,.16-.99-.04-1.72-.17-3.44-.14-5.15,0-.5,.45-.99,.69-1.49,.24,.44,.63,.86,.69,1.32,.18,1.36,.23,2.74,.36,4.41,.59-.55,.9-.87,1.24-1.16,2.42-2.06,4.83-4.14,7.29-6.16,.63-.52,1.4-1.07,2.49-.18-3.27,2.92-7.11,5.11-9.89,8.91,.83-.17,1.32-.29,1.81-.37,.75-.12,1.51-.34,2.24-.28,.45,.04,.86,.53,1.28,.82-.38,.26-.72,.64-1.13,.75-1.37,.36-2.75,.75-4.15,.89-3.16,.34-4.35,2.83-6.05,5.16,.93-.17,1.63-.4,2.31-.38,.42,.01,.83,.41,1.24,.63-.35,.25-.67,.64-1.05,.72-3.54,.7-5.82,2.78-6.96,6.02,.56,.3,1.11,.59,1.98,1.05-1.35,.57-2.25,.94-3.14,1.32,.05,.09,.1,.18,.14,.27h5.95Z"/>
      <path d="M125.3,18.66c.31-1.03,.54-1.57,.62-2.14,.08-.6,0-1.21,0-1.82,.04-2.86,1.75-3.8,4.21-2.33,3.31,1.97,5.43,6.94,3.54,11.32-.2,.46-.31,.96-.46,1.44,.13,.07,.26,.14,.39,.22,.39-.48,.9-.9,1.15-1.44,.77-1.71,2.07-2.45,3.88-2.27,1.92,.19,3.46,1.12,3.89,3.07,.33,1.5,.56,3.17,.24,4.63-.44,2.04-1.45,3.95-2.2,5.93-.17,.44-.27,.9-.46,1.52,.53-.03,.82,0,1.09-.06,2.82-.61,4.11,.57,3.35,3.3-.36,1.31-1.13,2.57-1.94,3.68-.78,1.08-1.31,2.1-1.2,3.47,.05,.7-.22,1.43-.38,2.37-.47-.37-.68-.45-.68-.55-.23-2.46-1.83-3.16-4-3.18-1.01-.01-2.05,.05-3.03-.14-.78-.16-1.49-.66-2.22-1.01,.35-.72,.68-1.45,1.08-2.14,.14-.25,.43-.4,.7-.64-.64-1.1-1.64-1.36-2.73-1.29-1.36,.08-2.72,.41-4.08,.36-1.43-.05-2.9-.26-4.25-.7-1.25-.41-2.01-1.63-1.67-2.9,.27-1.01,1.05-1.99,1.85-2.71,.67-.6,1.7-.81,2.57-1.19,0-.14,0-.28-.01-.41-1.24-.1-2.49-.22-3.73-.29-1.81-.09-3.64-.04-5.44-.24-1.22-.14-2.27-.71-2.86-1.97-1.35-2.88-.11-5.12,3.07-5.28,1.26-.06,2.54,.1,3.81,.15,.05-.13,.1-.26,.15-.39-.36-.27-.69-.58-1.08-.79-1.83-.96-3.83-1.68-5.47-2.9-1.36-1.01-2.59-2.44-3.38-3.94-1.41-2.65,.19-5.26,3.22-5.55,3.48-.32,6.26,1.28,8.78,3.45,1.14,.98,2.23,2.02,3.69,3.36Zm15.11,25c.16,.04,.33,.08,.49,.12,.66-1.05,1.43-2.06,1.94-3.18,.3-.66,.42-1.61,.17-2.24-.12-.31-1.32-.31-2-.23-1.61,.18-2.35-.45-2.06-2.05,.12-.68,.52-1.3,.74-1.97,.76-2.34,1.69-4.65,2.16-7.05,.38-1.93-.87-3.24-3.02-3.94-1.79-.58-2.42,.68-3.14,1.88-.28,.47-.59,1.04-1.04,1.27-.61,.31-1.67,.66-1.99,.38-.48-.43-.53-1.38-.66-2.13-.04-.25,.22-.55,.33-.83,1.05-2.85,.15-7.53-1.94-9.33-.67-.57-1.66-.78-2.5-1.16-.17,.8-.34,1.59-.5,2.39-.03,.15,.01,.3,0,.45,0,1.41-.15,2.87-1.55,3.54-1.44,.69-2.28-.67-3.26-1.39-1.79-1.32-3.42-2.92-5.38-3.9-1.39-.7-3.2-.76-4.81-.72-1.16,.03-1.85,1.09-1.63,2.31,.14,.76,.54,1.53,1.01,2.15,1.71,2.28,4.33,3.25,6.75,4.5,.75,.39,1.58,.82,2.04,1.47,.36,.51,.43,1.47,.21,2.07-.15,.41-1.01,.76-1.57,.79-1.1,.05-2.22-.26-3.32-.2-1.02,.06-2.23,.13-2.38,1.59-.12,1.2,.82,2.46,2.17,2.66,1.39,.21,2.82,.16,4.22,.3,1.79,.18,3.6,.34,5.36,.7,.48,.1,1.19,.92,1.14,1.31-.08,.57-.68,1.19-1.21,1.55-.51,.36-1.25,.37-1.85,.63-.98,.43-2.25,1.01-1.82,2.21,.28,.78,1.5,1.24,2.35,1.77,.22,.14,.6,.04,.9,0,1.1-.14,2.2-.32,3.31-.43,1.72-.17,3.43-.34,4.96,.81,2.03,1.54,1.89,2.76,.14,3.75-.18,.1-.28,.34-.63,.79h6.27c.03-.09,.05-.19,.08-.28-.92-.37-1.84-.74-2.77-1.11,0-.14,0-.27,0-.41,.57-.27,1.13-.55,1.94-.94-1.14-1.46-2.02-3.17-3.4-4.22-1.38-1.05-3.25-1.44-5.36-2.31,.78-.32,1.28-.66,1.8-.71,.59-.05,1.21,.16,2.06,.3-1.65-2.6-3.08-4.88-6.26-5.16-1.35-.12-2.68-.5-4-.83-.34-.08-.61-.42-.91-.64,.29-.31,.53-.77,.87-.88,.45-.14,1-.06,1.49,.02,.94,.15,1.86,.35,2.79,.54l.28-.4c-3.29-2.82-6.58-5.65-9.87-8.47,.07-.18,.14-.36,.22-.54,.72,.24,1.58,.3,2.13,.75,2.45,1.95,4.81,4.01,7.2,6.04,.39,.33,.76,.7,1.29,1.2,.2-2.09,.38-3.89,.55-5.69,.23-.03,.47-.05,.7-.08,.19,.49,.54,.97,.54,1.46,.02,1.67-.09,3.33-.14,5-.01,.35-.17,.81,0,1.02,1.49,1.91,3.05,3.77,4.74,5.85,.63-3.43,1.02-4.13,2.67-4.43-1.58,4.29-1.48,8.24,2.04,11.36,.37-.14,.84-.31,1.32-.48-.06,.59-.11,1.18-.18,1.77-.06,.54-.14,1.07-.2,1.6Z"/>
      <path d="M68.87,70.48c-.57,1.89-1.82,2.77-3.12,2.98-2.35,.38-2.84,1.87-3.25,3.82-.86,4.11-1.87,8.19-2.92,12.25-.21,.82-.72,1.72-1.37,2.21-1.07,.8-2.06,.2-1.88-1.14,.32-2.35,.76-4.69,1.29-7,.67-2.96,1.44-5.9,2.25-8.82,.27-.98,.02-1.46-.88-1.85-2.19-.96-3.15-.77-4.67,.92-.27,.3-.8,.37-1.21,.55,0-.49-.18-1.08,.03-1.47,1.02-1.95,3.95-3.25,6.27-2.79,.89,.17,1.77,.45,2.59,.83,1.93,.89,3.8,.92,5.67-.14,.24-.13,.54-.16,1.21-.34Z"/>
      <path d="M70.48,97.23c-.96,.57-1.53,1.1-2.16,1.21-.29,.05-.72-.71-1.09-1.11,.56-.42,1.08-.97,1.72-1.19,.26-.09,.76,.52,1.53,1.09Z"/>
      <path d="M87.53,98.04c-.37-.6-.82-1.08-.73-1.23,.24-.4,.68-.76,1.12-.93,.14-.06,.81,.64,.75,.78-.18,.44-.61,.77-1.14,1.38Z"/>
      <path d="M86,39.06c0,.61,.03,1.21,0,1.82-.12,2.52-.48,3.04-2.51,3.73-2.09,.71-4.85,.2-5.94-1.1-.83-.99-1.05-7.74-.22-8.67,.35-.39,.89-.81,1.38-.84,1.78-.13,3.58-.24,5.35-.08,1.36,.12,2.08,1.11,2,2.57-.04,.86,0,1.72,0,2.58h-.05Z"/>
    </g>
  </g>
</svg>