<?xml version="1.0" encoding="UTF-8"?>
<svg id="_图层_2" data-name="图层 2" xmlns="http://www.w3.org/2000/svg" viewBox="0 0 97.06 106.71">
  <defs>
    <style>
    
    </style>
  </defs>
  <g id="_图层_2-2" data-name=" 图层 2">
    <g>
      <path class="cls-1" d="M95.7,46.81c-3.77-.19-7.54-.56-11.36-.25,3.68,.78,7.35,1.58,11.03,2.35,.8,.17,1.46-.09,1.55-.94,.08-.77-.47-1.12-1.22-1.16Z"/>
      <path class="cls-1" d="M74.47,44.58c-2.82-.79-5.64-1.55-8.46-2.31-.76-.2-1.48-.13-1.68,.73-.23,.97,.47,1.3,1.31,1.39,2.91,.32,5.83,.61,9,.94,.02,0,.46,.25,.58-.15,.16-.57-.43-.51-.73-.6Z"/>
      <path class="cls-1" d="M82.47,31.03c-.78-.05-1.14,.49-1.18,1.21-.17,3.4-.34,6.81-.51,10.22,.08,.01,.16,.03,.24,.04,.83-3.38,1.67-6.76,2.47-10.14,.17-.73-.26-1.27-1.02-1.32Z"/>
      <path class="cls-1" d="M76.67,59.32c-.2,.72,.11,1.26,.89,1.41,.7,.14,1.24-.2,1.3-.86,.28-3.1,.82-6.19,.33-9.39-.84,2.95-1.69,5.89-2.52,8.85Z"/>
      <path class="cls-1" d="M89.96,39.53c-.44-.53-.96-.27-1.41,.12-1.49,1.29-2.98,2.57-4.48,3.85h.01c2.04-.49,3.79-1.51,5.47-2.66,.49-.33,.82-.81,.39-1.32Z"/>
      <path class="cls-1" d="M84.49,50.91c-.12,.1-.24,.19-.36,.29,1.01,1.4,2,2.82,3.03,4.2,.29,.39,.71,.7,1.26,.37,.43-.26,.6-.75,.26-1.08-1.33-1.32-2.56-2.78-4.2-3.78Z"/>
      <path class="cls-1" d="M77.54,42.33c-.38-.72-.6-1.25-.91-1.73-.68-1.05-1.38-2.1-2.11-3.12-.25-.35-.63-.6-1.12-.3-.37,.23-.57,.62-.3,.93,1.28,1.5,2.43,3.14,4.44,4.22Z"/>
      <path class="cls-1" d="M69.93,53.2c.29,.42,.79,.45,1.14,.17,1.16-.94,2.4-1.82,3.16-3.14-1.57,.3-2.81,1.08-4.04,1.88-.37,.24-.55,.68-.26,1.09Z"/>
      <polygon class="cls-1" points="84.05 43.55 84.09 43.5 84.08 43.5 84.05 43.55"/>
      <path class="cls-1" d="M30.39,77.77c-3.63-.2-7.26-.56-10.94-.25,3.54,.79,7.08,1.59,10.62,2.36,.77,.17,1.4-.09,1.49-.95,.08-.77-.45-1.13-1.17-1.17Z"/>
      <path class="cls-1" d="M9.95,75.53c-2.71-.79-5.43-1.56-8.15-2.32-.73-.21-1.42-.13-1.62,.74-.22,.97,.45,1.3,1.26,1.4,2.8,.32,5.61,.61,8.66,.94,.02,0,.45,.25,.56-.15,.15-.57-.41-.52-.7-.6Z"/>
      <path class="cls-1" d="M17.65,61.89c-.75-.05-1.1,.5-1.13,1.22-.17,3.43-.33,6.85-.5,10.28,.08,.01,.15,.03,.23,.04,.8-3.4,1.61-6.8,2.38-10.21,.17-.74-.25-1.28-.98-1.33Z"/>
      <path class="cls-1" d="M12.07,90.36c-.19,.72,.11,1.26,.85,1.42,.67,.14,1.2-.2,1.25-.87,.27-3.12,.79-6.23,.32-9.45-.81,2.97-1.63,5.93-2.43,8.9Z"/>
      <path class="cls-1" d="M24.86,70.44c-.42-.53-.92-.27-1.35,.12-1.43,1.3-2.87,2.59-4.31,3.88h.01c1.96-.49,3.65-1.52,5.27-2.68,.47-.34,.79-.81,.38-1.32Z"/>
      <path class="cls-1" d="M19.6,81.9c-.11,.1-.23,.19-.34,.29,.97,1.41,1.93,2.83,2.92,4.23,.28,.4,.69,.71,1.21,.37,.41-.27,.57-.76,.25-1.09-1.28-1.33-2.46-2.8-4.04-3.8Z"/>
      <path class="cls-1" d="M12.03,71.52c-.65-1.06-1.33-2.11-2.03-3.14-.24-.36-.61-.6-1.08-.3-.36,.23-.54,.62-.29,.94,1.23,1.51,2.34,3.16,4.27,4.25-.36-.73-.58-1.26-.87-1.74Z"/>
      <path class="cls-1" d="M5.58,84.2c.28,.42,.76,.46,1.1,.17,1.11-.95,2.31-1.83,3.04-3.16-1.51,.3-2.71,1.09-3.89,1.89-.36,.24-.53,.68-.25,1.1Z"/>
      <polygon class="cls-1" points="19.17 74.49 19.22 74.44 19.2 74.44 19.17 74.49"/>
      <path class="cls-1" d="M36.69,1.32c-7.36,2.11-10.57,7.84-11.56,14.99-.29,2.14-.23,4.36-.05,6.52,.93,10.72,7.15,18.36,16.83,20.7-.32,1.22-.63,2.44-.95,3.65q-.98,3.66,2.8,3.87c.64,6.05,.61,11.9-3.03,17.28-4.63,6.85-3.71,13.62,.67,20.35,3.44,5.27,7.97,10.04,8.44,16.82,.04,.57,.27,1.14,.98,1.04,.67-.1,.75-.72,.75-1.27,0-2.13-.63-4.11-1.42-6.06-1.79-4.43-4.83-8.1-7.4-12.05-3.63-5.6-4.57-11.4-.75-17.11,3.97-5.94,4.25-12.38,3.7-19.08q3.71-.75,2.51-4.22c-.24-.69-.48-1.37-.76-2.04-.47-1.09-.42-1.79,.94-2.23,13.34-4.28,16.81-26.02,8.2-36.49C51.23-.53,44.08-.79,36.69,1.32Zm7.35,48.3c-.76-.18-2.21,.33-1.85-.83,.57-1.84-.05-5.02,2.22-5.21,2.55-.22,2.36,3.09,2.65,4.77,.31,1.83-2.09,.57-3.01,1.27Zm12.68-16.4c-5.94,10.86-18.1,11.86-25.52,1.93-5.28-7.06-6.48-15.1-3.46-23.47,2.44-6.75,7.64-9.89,15.59-9.92,7.15-.02,12.79,3.87,15.12,10.67,2.45,7.15,1.89,14.17-1.73,20.79Z"/>
      <path class="cls-1" d="M45.35,5.3c-.73,.13-2.01-.4-2.11,.9-.09,1.14,1.11,.86,1.86,1.03,.88,.19,1.78,.35,2.6,.7,4.13,1.76,6.11,5.17,7.08,9.35,.15,.66,.11,1.62,1.21,1.4,.65-.13,.63-.76,.64-1.33,.08-5.29-5.93-11.78-11.27-12.05Z"/>
    </g>
  </g>
</svg>