<?xml version="1.0" encoding="UTF-8"?>
<svg id="_图层_2" data-name="图层 2" xmlns="http://www.w3.org/2000/svg" viewBox="0 0 114.3 67.01">
  <g id="_图层_2-2" data-name=" 图层 2">
    <g>
      <path d="M113.94,52.15c-3.72-28.66-35.13-45.01-60.71-31.57-2.56,1.35-4.94,3.04-7.41,4.58-6.39-4.85-13.73-6.57-21.7-6.11-.4,.02-.94-.13-1.22-.4-3.91-3.82-7.78-7.68-11.7-11.57,1.42-1.8,1.82-3.61,.5-5.46C10.71,.24,9.26-.26,7.63,.13c-2.21,.53-3.06,2.19-3.14,4.42-2.21-.05-3.76,.88-4.33,2.98-.44,1.61,.02,3.08,1.39,4.1,1.87,1.41,3.72,.98,5.52-.38,3.23,3.25,6.32,6.53,9.61,9.59,1.72,1.61,2.92,3.18,2.25,5.65-.11,.42,.02,.91,.04,1.37,.21,4.33,1.19,8.48,2.83,12.5-.16,.17-.19,.22-.23,.24-.31,.18-.62,.35-.93,.53-8.82,5.14-13.73,12.76-14.46,22.98-.2,2.82-.06,2.89,2.85,2.89,17.44,0,34.88,0,52.32,0,16.57,0,33.14,0,49.72,0,2.04,0,2.25-.17,2.6-2.17,.74-4.21,.83-8.44,.28-12.68ZM21.59,29.04c.03-.45,0-.91,0-1.65,1.13,0,2.23,0,3.33,0,.86,0,1.58-.25,1.6-1.23,.02-.99-.67-1.26-1.55-1.25-1.06,.01-2.13,0-3.17,0-.27-2.23,.27-3.12,2.27-3.29,6.59-.55,12.86,.66,18.44,4.31,4.1,2.68,6.03,8.1,4.79,13-1.21,4.76-4.4,7.61-9.21,8.55-6.01,1.18-13.1-3.37-14.04-9.07,1.75,0,3.48,0,5.2,0,.89,0,1.73-.16,1.74-1.25,0-1.09-.83-1.26-1.72-1.25-1.43,.01-2.86,0-4.29,0q-2.23,0-2.62-2.6c1.38,0,2.72-.01,4.06,0,.89,.01,1.75-.12,1.78-1.2,.03-1.18-.88-1.33-1.82-1.32-.97,0-1.95-.09-2.91,.02-1.43,.17-1.97-.41-1.87-1.78Zm62.94,35.45c-5.78,0-11.55,0-17.33,0-.2,0-.39-.05-.59-.08,.47-2.42,1.05-2.92,3.36-2.92,2.04,0,4.09,0,6.13,0,.94,0,1.85-.13,1.83-1.32-.02-1.11-.89-1.2-1.77-1.19-2.04,.01-4.09,0-6.14,0,.48-2.05,2.3-3.56,4.23-3.56,2.15,0,4.29,0,6.44,0,.9,0,1.72-.17,1.7-1.27-.02-1.1-.85-1.25-1.74-1.24-1.56,0-3.13,0-4.69,0,2.38-2.09,4.86-3.67,8.07-3.27,.3,.04,.67,.11,.91-.02,.51-.29,.96-.7,1.43-1.07-.43-.48-.8-1.25-1.32-1.37-.97-.23-2.04,.02-3.05-.12-.49-.07-1.2-.45-1.34-.85-1.59-4.64-3.1-9.3-4.6-13.97-.13-.41-.1-.87-.17-1.65,1.25,.68,2.28,1.12,3.18,1.75,6.41,4.44,11.73,10,16.33,16.26,1.92,2.62,1.75,5.37-.07,8-2.46,3.55-5.98,5.81-9.76,7.71-.3,.15-.69,.17-1.04,.17Zm26.52-.09h-20.11c1.58-1.38,3.15-2.57,4.51-3.97,2.76-2.83,4.59-6.06,3.48-10.22-.26-.97-.74-1.88-1.22-3.08,.88,0,1.7,.15,2.44-.05,.57-.15,1.03-.73,1.54-1.12-.51-.45-1.02-.91-1.54-1.35-.06-.05-.2-.03-.3,0-3.2,.66-5.13-.99-7.22-3.24-3.5-3.76-7.42-7.15-11.34-10.49-1.35-1.15-3.17-1.89-4.89-2.44-2.17-.69-3.47,.39-2.95,2.58,1.03,4.36,2.38,8.65,3.65,12.96,.39,1.31,.94,2.58,1.36,3.7-2.35,1.75-4.72,3.26-6.8,5.1-3.34,2.94-5.76,6.63-7.65,10.64-.39,.82-.85,1.09-1.74,1.09-17.39-.03-34.78-.02-52.17-.02-.4,0-.8-.06-1.36-.1,0-.53-.02-.89,0-1.24,.12-2.13,.18-2.18,2.32-2.18,4.81,0,9.62,0,14.42,0,.95,0,2.19,.22,2.21-1.2,.01-1.38-1.17-1.29-2.16-1.29-4.71,0-9.41,0-14.12,0-.5,0-1,0-1.79,0,.49-1.27,.8-2.35,1.34-3.3,.19-.35,.92-.56,1.4-.56,3.32-.05,6.65-.02,9.97-.03,.9,0,1.87-.01,1.85-1.26-.02-1.21-.95-1.27-1.87-1.26-3.11,0-6.22,0-9.38,0,.78-2.4,1.77-3.15,4.04-3.15,.92,0,1.88,.15,2.75-.07,.52-.14,.9-.86,1.34-1.32-.46-.38-.86-.89-1.39-1.09-.48-.19-1.09-.04-1.83-.41,1.65-1.1,3.3-2.19,4.89-3.25,1.32,1.4,2.38,2.79,3.7,3.87,6.67,5.5,15.65,4.52,21.12-2.16,.38-.46,1.15-.79,1.77-.84,1.53-.12,3.07-.04,4.6-.04,.85,0,1.58-.23,1.6-1.23,.02-.99-.68-1.3-1.54-1.31-1.42-.02-2.84,0-4.47,0,.27-1.42,.51-2.64,.78-4.05,2.87,0,5.72,0,8.57,0,.46,0,.92-.01,1.38,0,.91,.03,1.89,.02,1.9-1.2,.01-1.3-1.02-1.32-1.98-1.32-2.76,0-5.52,0-8.29,0-.51,0-1.01,0-1.52,0-.62-1.97-1.21-3.84-1.85-5.88,2.77,0,5.47,0,8.17,0,.84,0,1.6-.17,1.66-1.17,.06-1.1-.71-1.34-1.63-1.34-2.34,0-4.68,0-7.14,0,8.46-7.25,25.62-11.41,40.95-3.38,17.27,9.04,23.5,27.57,20.55,41.66Z"/>
      <path d="M38.43,58.55c-1.61-.15-3.26-.15-4.87,0-.45,.04-.83,.81-1.24,1.24,.44,.39,.83,.99,1.35,1.13,.71,.2,1.51,.05,2.27,.05,.81,0,1.66,.15,2.43-.05,.5-.13,.87-.75,1.3-1.15-.41-.42-.8-1.17-1.25-1.21Z"/>
      <path d="M54.88,52.16c-1.66-.14-3.35-.16-5.01,0-.43,.04-1.04,.78-1.12,1.28-.05,.32,.65,.98,1.11,1.11,.71,.19,1.51,.05,2.27,.05v-.03c.91,0,1.85,.13,2.73-.05,.44-.09,1.05-.76,1.05-1.16,0-.41-.63-1.14-1.03-1.17Z"/>
      <path d="M36.36,38.61c.71-.23,1.5-.29,1.96-.7,.27-.24,.05-1.54-.02-1.55-1.2-.11-2.42-.12-3.62-.02-.09,0-.34,1.24-.08,1.53,.36,.42,1.12,.5,1.76,.74Z"/>
    </g>
  </g>
</svg>