<?xml version="1.0" encoding="UTF-8"?>
<svg id="_图层_2" data-name="图层 2" xmlns="http://www.w3.org/2000/svg" viewBox="0 0 170.17 158.6">
  <defs>
    <style>
      .cls-1 {
        fill-rule: evenodd;
      }
    </style>
  </defs>
  <g id="_图层_2-2" data-name=" 图层 2">
    <g>
      <path class="cls-1" d="M11.42,81.99l1.98,2.11,4.99-6.98c-.22,2.7-.66,1.47-.66,3.94,0,2.14,.57,.5,1.31,3.29,3.62-.08,3.36-1.31,5.26-1.31,1.26,0,.45,1.31,2.63,1.31,.98,0,2.9-1.42,3.94-1.97,.39,1.46,.15,1.97,1.97,1.97,2.14,0,.5-.57,3.29-1.31v1.31l1.8-.09,4.12-7.14c-.34,1.47-.66,1.51-.66,3.29,0,2,.63,2.65,1.34,4.03l4.57-1.41v1.31l1.74-.13,5.49-8.41c-.57,2.12-2.63,4-2.63,5.91,0,1.54,1.09,2.63,2.63,2.63,2.84,0,2.65-1.31,4.6-1.31,.39,0,1.36,.91,1.97,1.31h1.97l5.97-1.81,1.78,1.95,2.11-.14c-1.69,2.52-5.91,5.3-5.91,9.2,0,.8,1.36,1.97,2.63,1.97,3.32,0,4.73-3.02,5.91-5.26,.7-3.02,2.36-8.12,5.91-5.91l5.91-1.97c.39,1.47,.16,1.97,1.97,1.97,1.38,0,2.32-2.6,2.63-3.94,1.35,.91,1.71,1.97,3.29,1.97h2.63c.39,1.46,.15,1.97,1.97,1.97,1.09,0,3.69-1.49,4.6-1.97l1.03,2.15,.75,.1,4-6.92,.59,6.66,4.21-1.13c.75,.23,2.1,1.11,3.21,1.11,.18,0,1.2-.45,1.97-.66-1.86,2.78-6.57,5.21-6.57,9.2v.66c0,1.51,.46,1.97,1.97,1.97,4.6,0,5.75-3.71,6.82-7.64,1.37-5.04,5.54-2.97,5.67-8.79h-1.31l-3.06,4.14,1.2-9.38-4.02-1.45c-3.23,1.8-5.85,3.89-5.95,8.66h-1.97v-8.54c-4.43,.37-2.26,2.4-5.26,4.6v-4.6l-2.62,1.32-.71,6.56-3.78,1.59,2-9.43-2.78-.04-2.56,7.25-2.69-.02v-1.97c0-2.64,3.13-5.26-.66-5.26-1.52,0-3.09,6.8-4.6,8.54l.8-5.89-.15-2.65c-4.85,.11-3.29,2.6-3.29,7.88l-3.21,1.49,1.42-9.34c-3.94,.28-4.13,3.32-4.13,7.19l-3.17,2.75,.65-8.65c-3.64-.31-2.03-1.33-3.39-1.33-4.88,0-4.81,6.57-8.54,8.54l-.77-5.24c.04-.46,.95-.88,1.43-2.65-1.73-.86,.54-.66-1.97-.66-1.26,0-6.14,8.21-9.86,9.2,.1-4.43,2.63-4.21,2.63-6.57v-.66c0-1.08-.39-1.97-1.31-1.97-1.76,0-2.53,.94-3.29,1.97h-.66c.8-3.45,3.29-6.06,3.29-10.51v-.66c0-1.51-.46-1.97-1.97-1.97h-.66c-8.49,0-2.36,19.14-9.2,19.71v-1.97c0-3.17,2.07-6.57-1.31-6.57-1.17,0-2.43,2.95-3.29,3.94l-.72-4.09c-4.6,3.08-.14,8.21-5.85,8.69l.67-7.23c-3.55-.3-1.94-1.32-3.3-1.32-5.69,0-4.53,7.45-9.2,8.54l1.45-8.51-.48-.59-5,3.05c1.04-3.92,4.03-6.66,4.03-12.34,0-.92-.9-1.31-1.97-1.31h-1.31c-3.67,0-4.48,7.19-5.26,10.51h-3.94c.62-2.65,1.97-3.28,1.97-5.91v-.66c0-1.54-1.09-2.63-2.63-2.63-3.57,0-2.83,8.54-5.91,8.54H0v1.31H2.63v4.6c0,2.86,1.26,7.23,3.94,7.23,1.27,0,2.14-.89,3.94-1.31l.91-1.04Zm104.22,10.9l3.94-5.26c-.24,2.88-.93,5.01-3.94,5.26Zm2.63-13.14c0-2.79,1.06-4.01,3.29-4.6-.22,2.7-.66,1.47-.66,3.94v1.31s-2.63,1.32-2.63,1.32v-1.97Zm-48.62,13.14c.21-2.53,1.97-4.54,3.94-5.26-.62,2.65-1.36,4.57-3.94,5.26Zm5.91-17.74c-1.47,3.06-.27,6.17-3.94,6.57,0-4.01,.68-5.81,3.94-6.57Zm-11.83,3.29v1.97c0,1.08-.39,1.97-1.31,1.97-1.08,0-1.97-.39-1.97-1.31,0-1.34,2.03-2.29,3.29-2.63Zm-13.8-6.57c0-3.45,1.17-6.47,3.29-7.88l-2.84,9.79-.45,.07v-1.97Zm-23,7.88c0-2.79,1.06-4.01,3.29-4.6,0,3.3-.18,6.23-3.29,6.57v-1.97Zm-8.54-16.43c0,4.1-2.19,9.81-3.94,11.83,.37-4.47,1.64-9.18,3.94-11.83Zm-11.17,1.97h1.32c-.07,2.98-.89,4.64-2.88,5.85l1.56-5.85Zm-1.31,14.46v-3.29c0-1.77,.31-1.81,.66-3.29h5.91c0,8.73-6.57,10.09-6.57,6.57Z"/>
      <path class="cls-1" d="M168.86,79.09l-3.06,4.14,1.26-10.03c-4.04,.29-4.11,3.02-4.11,7.2l-2.49,1.54-.14-2.86,.74-5.9c-6.51,.52-1.08,7.41-6.65,7.87,.17-2.06,.66-2.33,.66-4.6v-2.63l-4.6-1.31c-1.39,1.89-2.48,1.73-3.93,4.61-1.31,2.6-.21,3.62-3.95,3.93v-2.63c0-1.86,3.06-8.58,3.94-9.86v-6.57l-1.89-1.41c-4.26,2.31-5.51,6.82-5.99,12.58-2.94,.68-5.91,3.01-5.91,6.57v.66c0,1.77,.31,1.81,.66,3.29,1.86,.43,1.12,.66,2.63,.66,.04,0,3.6-1.79,3.94-1.97,.68,1.02,.87,1.97,2.63,1.97,2.18,0,1.37-1.31,2.63-1.31,1.8,0,2.14,1.31,3.94,1.31,.5,0,2.78-1.63,3.29-1.97,.4,.6,1.07,1.97,1.97,1.97,1.11,0,2.46-.88,3.29-1.31,.64,.56,1.16,1.31,2.63,1.31,.18,0,1.2-.45,1.97-.66-1.45,2.17-7.23,6.72-7.23,9.2,0,1.54,1.09,2.63,2.63,2.63,4.6,0,5.75-3.71,6.82-7.64,1.37-5.04,5.54-2.97,5.67-8.79h-1.31Zm-30.22,0c0,1.27-1.17,2.63-1.97,2.63-3.6,0,.34-5.48,1.97-6.57v3.94Zm3.75-5.14l-.46-4.06c0-2.8,.5-5.14,2.63-5.91l-2.16,9.98Zm7.42,7.76c-.58,0-1.31-.73-1.31-1.31,0-2.36,1.89-4.71,3.94-5.26-.4,1.72-.88,6.57-2.63,6.57Zm7.88,11.17c.66-2.83,1.86-3.86,3.94-5.26-.24,2.88-.93,5.01-3.94,5.26Z"/>
      <path class="cls-1" d="M36.14,28.5c-1.3,1.78-3.94,2.28-3.94,4.6v1.31c0,4.17,5.82,2.64,8.54,3.94-1.27,1.74-3.28,1.76-3.28,4.6,0,.71,1.92,2.63,3.28,2.63h1.31c2.87,0,2.39-1.31,5.26-1.31s1.32,3.29,4.6,3.29c2.31,0,4.25-2.63,5.91-2.63,1.36,0-.25,1.02,3.29,1.31l-1.58-3.52c2.23-4.72,1.67-3.12,.97-9.01-.41-3.44,1.06-9.15-2.67-9.15h-1.31c-2.35,0-3.1,3.66-3.29,5.91-3.7-2.71-.69-11.17-5.26-11.17h-3.29c-.34,1.47-.66,1.51-.66,3.29v1.97c-4.41-1.18-3.36-7.23-9.2-7.23-1.39,0-.87,.24-2.63,.66-.34,1.47-.66,1.51-.66,3.29,0,3.66,2.92,4.72,4.6,7.23Zm-.66-9.2c4.15,0,3.43,7.88,8.54,7.88,.8,0,1.97-1.36,1.97-2.63v-3.29l3.33,1.21c-.05,3.77-.08,9.96,3.24,9.96,3.6,0,2.23-4.18,4.6-5.91,1.97,1.45,2.95,12.95,0,15.11l-.03-5.26,.03-1.97c0-1.88-.21-1.2-1.31-1.97l-.78-.09-.76,6.63c-1.52-.9-7-3.71-7-5.89v-5.91h-1.97v5.26l-4.39-5.41-1.49,.86,2.04,3.16c-3.76,.07-3.95-.77-4.7,2.04h5.26c1.74,0,5.48,3.63,5.91,5.26l-2.6,.74c.37,1.38,.13,1.89,1.95,1.89,.06,0,2.82-1.73,3.29-1.97l5.06,3.55c-.31,1.63-1.49,3.02-3.75,3.02-1.68,0-.98-3.29-3.94-3.29h-1.31c-3.07,0-2.06,1.31-6.57,1.31l3.28-5.26c-2.44-3.64-4.45-2.17-9.19-3.28,.12-5.43,3.94-2.75,3.94-6.57s-4.6-3.9-4.6-7.23c0-1.51,.46-1.97,1.97-1.97Z"/>
      <path class="cls-1" d="M109.07,26.53c0,2.8,2.63,2.82,2.63,6.57,0,1.3-1.97,.96-1.97,3.29,0,3.17,2.04,4.64,3.94,5.91l-1.17,3.82,.66,.27,2.63-2.63c1.14,.54,1.79,1.17,3.8,1.17s13.8-3.2,13.8-5.91v-.66c0-1.47-.52-1.44-1.31-2.63l-5.94-.34c2.31-3.44,10.54-2.99,10.54-7.54,0-1.54-.85-3.29-2.63-3.29-2.47,0-1.24,.43-3.94,.66,.41-4.91,5.91-4.52,5.91-9.86,0-1.53-1.75-3.29-3.29-3.29h-.66c-5.47,0-4.18,5.91-7.88,5.91-1.3,0-1.63-2.63-3.94-2.63h-1.31c-4.61,0-2.63,6.08-2.63,9.2-1.04-.55-2.97-1.97-3.94-1.97h-.66c-2.02,0-2.63,1.92-2.63,3.94Zm2.63-1.97l5.66,3.08c1.04-3.81-.09-10.3,2.88-10.3,.97,0,2.13,2.63,4.6,2.63,3.95,0,3.63-5.91,7.23-5.91,.8,0,1.97,1.36,1.97,2.63,0,.62-5.57,5.99-6.57,7.88l.78,1.92,1.86,.67,4.56-.76c-.46,6.03-10.49,3.02-10.49,8.68,0,.35,.95,1.44,1.31,1.97h4.6l1.18,1.45c-1.05,1.63-8.89,4.47-11.7,4.47-2.03,0-2.41-.63-2.63-2.63h3.29c2.27,0,2.54-.49,4.6-.66v-1.97l-6.55,.78,3.71-8.76,6.98-1.08-.19-.79c-1.62-.91,.17-.66-1.31-.66-2.47,0-1.24,.43-3.94,.66l3.77-5.55-.64-.59-3.63,2.44-.16-4.18h-1.97c0,10.24-.23,4.36-1.97,11.83l-3.68-2.33-.72,.69,3.06,4.29-2.73,6.49-3.78-4.78,.63-.42c1.46-.39,1.97-.15,1.97-1.97v-1.31c0-3.75-2.63-3.77-2.63-6.57,0-.09,.65-1.3,.66-1.31Z"/>
      <path class="cls-1" d="M62.42,27.19h1.97c3.32,0,1.02,4.21,3.3,4.07l7.76-.75,2.74,6.53c.58-.33,1.31-.43,1.31-1.31,0-.2-1.69-5.36-1.75-6.01l10.49-4.76-2.88-1.76,2.86-4.18-2.15-1.03c.74-1.4,4.84-7.88,.66-7.88-2.48,0-4.38,1.6-5.92,2.63l1.32-4.6h-3.29c-2.51,0-.24-.2-1.97,.66-.58-6.97-9.2-16.3-9.2,1.31-1.84,.88-3.29,.29-3.29,2.63v.66c0,1.67,2.23,3.03,3.29,4.6-1.47-.34-1.51-.66-3.29-.66h-4.6c-2.51,0-.24-.2-1.97,.66,.96,3.6,4.6,5.2,4.6,7.23v1.97Zm-1.31-7.88c5.48,0,6.13,1.97,9.2,1.97h.66c1.08,0,1.97-.39,1.97-1.31,0-2.1-4.11-4.86-5.24-6.53l2.61-1.35c-.34-1.47-.66-1.51-.66-3.29,0-2.85,1.05-2.03,1.31-5.26,6.8,1.81-1.93,8.04,7.88,7.23-.69,1.31-2.63,5.46-2.63,7.23,0,1.51,.46,1.97,1.97,1.97,3.53,0,3.51-6.06,7.88-7.23-.45,.86-3.94,6.47-3.72,6.57l-.22,3.94c0,.39,.91,1.36,1.35,2.08l-6.32,1.75-2.26-4.49c-.45,.8-.66,.7-.66,1.97v3.94h-5.26l-.35-2.23-7.53-6.97Z"/>
      <path class="cls-1" d="M106.44,138.23v-1.31c2.15-.18,4.6-.38,4.6-2.63v-1.31c0-4.89-8.54-1.68-8.54-6.57v-2.63c-2.35-.55-3.09-1.31-5.91-1.31h-1.97v-2.63h-1.97v3.94c-3.73,.87-9.2,10.06-9.2,13.14v1.31c0,1.51,.46,1.97,1.97,1.97h1.31c1.93,0,1.87-1.84,5.26-2.63-.34,4.05-3.29,5.7-3.29,9.2v.66c0,1.53,1.75,3.29,3.29,3.29,2.31,0,2.82-2.64,4.6-3.94,1.53,3.19-.78,11.83,4.6,11.83h.66c1.53,0,3.29-1.75,3.29-3.29v-1.97l-.74-5.9h2.71c3.07-.01,4.6-1.54,4.6-4.61,0-1.48-3.76-4.2-5.26-4.6Zm1.88,7.15l-5.89,1.07,.86,9.5h-2.1c-4.02,.01-1.97-5.59-1.97-8.53,0-.82-1-2.63-2.63-2.63-3.18,0-2.33,2.28-4.6,3.94-.5-.35-1.31-.35-1.31-1.31,0-4.41,3.28-5.26,3.28-9.2v-.66c0-1.27-1.17-2.63-1.97-2.63-3.52,0-2.52,2.95-6.57,3.29,.09-4.04,4.65-12.23,8.54-13.14l-4.57,8.84,.63,.35h1.31l3.61-5.51c.91,2.73,2.96,5.8,2.96,8.14,0,1.64-2.6,3.61-3.29,6.57l.64,.57,4.02-4.47c.29,1.43,.6,1.46,.6,3.24v3.94c2.7-.72,1.97-.49,1.97-3.94l4.34,1.94,.26-.62c-2.05-3.07-3.92-2.61-4.98-4.21-.6-.9-1.6-4.96-2.24-6.3h3.94c-.71-2.64-1.93-2.63-5.21-2.65l-2.29-6.46,2.9-.1c1.47,0,1.44,.52,2.63,1.31-1.26,5.42,2.84,5.4,7.88,6.57-.15,1.86,.02,2.63-1.97,2.63h-3.28v1.97c0,2.37,4.31,4.17,5.91,6.57l-1.41,1.89Z"/>
      <path class="cls-1" d="M87.39,109.98c2.22,0,5.09-1.19,6.57-1.97,.68,1.02,.87,1.97,2.63,1.97,3.4,0,5.51-4.61,3.94-7.88l2.62,1.32,.54,6.65,1.07,.09,3.46-5.56,.72,5.39c3.19-.27,5.3-1.25,5.38-4.62l-3.79,2.24,.63-8.14c-3.86,.3-2.73,1.63-4.73,3.93v-3.94l-.51-.51-2.63,2.63,.51,.51c-1.83-1.22-2.27-2.63-5.26-2.63h-1.31c-1.58,0-3.94,2.36-3.94,3.94v2.63l-2.6,.74-.03-4.02c0-1.47,.52-1.44,1.31-2.63-1.73-.86,.54-.66-1.97-.66-1.71,0-4.73,6.87-8.54,7.88l.81-7.21-3.43-.7c-6.77,3.6-2.57,7.75-9.86,7.91v-1.31c1.75-.47,3.94-1.85,3.94-3.94,0-1.54-1.09-2.63-2.63-2.63h-.66c-2.81,0-3.94,3.41-3.94,6.57l-2.6,.74-.46-4.06,1.39-3.11c-3.3-.07-8.61,5.72-8.84,8.4,2.2,.59,2.69,1.97,4.6,1.97,2.13,0,4.49-1.22,5.91-1.97,1.02,.68,2.39,1.97,3.94,1.97,.85,0,3.34-1.02,4.6-1.31,.61,.41,1.58,1.31,1.97,1.31,1.55,0,2.92-1.29,3.94-1.97,.26,.97,.12,1.97,1.31,1.97,1.11,0,2.46-.88,3.29-1.31,.64,.56,1.16,1.31,2.63,1.31Zm10.51-8.54c.92,0,1.31,.9,1.31,1.97,0,2.02-.61,3.94-2.63,3.94-.92,0-1.31-.9-1.31-1.97,0-1.33,1.55-3.94,2.63-3.94Zm-9.48,2.96c.23,2.43,.49,3.61-1.69,3.61-.09,0-1.3-.65-1.51-.89l3.21-2.72Zm-30.75,2.81l2.63-2.63,.15,3.43-2.77-.8Zm11.97-5.77c.58,0,1.31,.73,1.31,1.31,0,1.07-1.8,1.53-2.63,1.97,0-1.48-.17-3.29,1.31-3.29Zm7.23,5.91v-2.63c0-1.86,1.51-2.53,2.63-3.29,0,3.29-.06,5.23-2.63,5.91Z"/>
      <path class="cls-1" d="M52.97,119.05l3.64-7.39-1.1-.64-4.04,5.18,.31,.58-10.71-5.5-.34,.65v3.29h-4.6l.54,2.66-7.12,1.93c.4,4.74,3.92,3.62,6.57,5.92l-4.63,.4-.37,.66,3.94,3.94,.4,.91c-1.94,.7-3.29,3.38-3.29,5.91v2.63c0,1.27,.21,1.17,.66,1.97l9.91-5.16c1.13,.7,1.1,1.22,2.58,1.22,2.93,0,2.63-3.58,2.63-6.57l5.85,8.4,.72-.52c1.23-1.83,1.97-2.77,1.97-5.91v-1.97c1.46-.39,1.97-.15,1.97-1.97,0-1.36-1.02,.25-1.31-3.29h1.31v-1.97c0-2.25-3.34-4.75-5.51-5.38Zm1.23,6.71l-.32,10.5c-4.18-2.8-2.55-9.2-5.91-9.2h-1.97c-.34,1.47-.66,1.51-.66,3.29l-.14,4.83-2.29-1.2-8.4,4.84-.34-.58c.64-1.34,.76-2.25,1.51-3.75,.58-1.16,2.43-3.21,2.43-3.48,0-1.88-1.49-2.29-2.63-3.29,2.09-.49,8.54-1.17,8.54-3.29,0-1.47-.52-1.44-1.31-2.63h-9.86l-.14-.72,8.03-1.25v-1.97h2.63l.16-2.92,6.37,3.55-3.06,4.29,5.19-2.43,3.96,3.55-1.8,1.84Z"/>
      <path class="cls-1" d="M133.38,113.92l-5.25,.67v-1.99c-5.33,0-5.52,1.92-8.54,3.94l-7.14-4.11,5.2,6.06c-2.78,1.86-6.5,4.79-6.59,9.22h2.63c-.06,2.82-1.92,6.4,1.97,4.6l.41,7.9c4.12-.34,4.87-3.69,6.81-5.93,0,8.52,1.84,4.26,5.26,1.97,2.37,3.54,4.63,5.26,10.51,5.26l-1.21-3.33-1.34-7.85c.72-1.17,1.24-1.14,1.24-2.61,0-2.39-3.17-3.29-5.91-3.29,3.73-2.37,6.48-1.2,9.2-5.26l-7-3.19-.23-2.06Zm3.31,6.72l-9.22,1.16c-.37,.53-1.31,1.62-1.31,1.97,0,3.17,5.51,2.8,7.88,3.94-.79,1.19-1.31,1.16-1.31,2.63,0,1.88,2.63,3.1,2.63,6.57v1.97c-4.51-1.05-5.44-5.26-6.57-5.26-1.55,0-2.92,1.29-3.94,1.97v-7.88c-.53-.37-1.62-1.31-1.97-1.31-1.47,0-1.44,.52-2.63,1.31,0,3.18-.14,8.3-2.63,9.2v-3.94c0-2.27,.49-2.54,.66-4.6l-1.86,.03,.57-2.77-2.81-.7,5.41-5.1c2.5,4.72,5.86,5.47,1.31-1.31l5.13-3.24,.88,1.6,4.53,1.47,5.23,.83,.02,1.47Z"/>
      <path class="cls-1" d="M28.25,61.35h3.29c3.24,0,7.18-2.6,7.88-5.26,2.73,1.45,3.79,3.02,4.6,0l-4.47-2.2-.12-3.71c0-6.99-8.39-9.2-15.77-9.2h-1.31c-1.93,0-6.57,.39-6.57,1.97,0,4.45,6.13,18.4,12.48,18.4Zm9.86-8.54l-1.15-.03-.84-5.23c1.42,1.61,1.92,2.31,1.99,5.25Zm-10.51-9.86c4.53,0,4.94,1.84,7.88,2.63v1.31h-1.31l1.14,5.3-5.13-7.01-.91,.48,1.43,4.56-7.62-3.51-.65,.84,4.57,3.85-2.36,1.71,6.88-.49-2.94,3.8,.54,.72,5.79-2.88,3.13,1.33c-1.4,1.85-4.2,3.77-7.81,3.77-7.34,0-11.3-10.15-11.83-16.43h9.2Z"/>
      <path class="cls-1" d="M75.69,130.38l1.33-5.25-2.12-.04-.76,3.92c-5.34-2.59-13.7,3.27-13.7,8.56v.66c0,7.7,4.62,11.53,5.91,17.08,5.8-.48,13.8-10.34,13.8-17.74,0-2.93-2.8-6.02-4.47-7.19Zm-7.36,22.31c-1.76-1.29-5.91-10.5-5.91-13.8,0-5.47,5.16-8.54,11.2-8.53l-2.13,3.52-5.33,1.75,.24,1,4.84-.08-5.39,5.07,.57,.68,2.09-.75-.82,5.23,1.77-.06,2.3-7.9,2.5,4.39,.65-.37c-.11-5.07-2.99-5.21-1.06-7.59l2.98,4.16,.71-.51v-1.97l-2.9-4.44,.55-.37,2.52,3.37-.16,1.44c3.48,5.49-6.2,13.76-9.2,15.77Z"/>
      <path class="cls-1" d="M98.56,27.19l-.58,4.61c3.94-.45,1.34-1.84,3.08-4.08,.98-1.26,3.23-1.05,4.74-1.83,2.1-1.09,5.24-4.73,5.24-7.91v-4.6c0-3.45-2.52-10.35-3.94-12.48-5.4,3.61-15.77,7.69-15.77,15.77v.66c0,4.75,3.36,8.96,7.23,9.86Zm8.54-23c.3,3.63,1.97,5.73,1.97,9.2v3.94c0,4.12-4.02,7.56-7.88,7.88l6.39-4.6-.71-1.06-5.06,2.97c.34-3.52,3.31-3.13,5.3-5.85-1.7-2.35-2.38-.17-4.6,1.31l1.93-8.55c-2.85,.33-2.59,1.78-3.25,4.61l-2.49-1.54,2.19,6.65-4.74-2.19c.68,3.71,3.73,3.78,3.73,6.28v.66c0,1.27-.21,1.17-.66,1.97-3.1-2.08-5.91-4.01-5.91-9.2s10.1-12.18,13.8-12.48Z"/>
      <path class="cls-1" d="M143.23,96.83c-3.53,0-7.84,2.63-7.88,2.63-2.85,0-2.84-2.74-6.1-1.02l3.96,2.6c-.62,.92-1.14,.89-1.14,2.36v2.63c0,4.96,3.87,10.51,8.54,10.51h3.94c2.19,0,13.14-2.06,13.14-3.29,0-4.48-9.24-16.43-14.45-16.43Zm0,17.74h-1.31c-3.95,0-7.88-3.94-7.88-7.88v-1.31c0-1.77,.31-1.81,.66-3.29l2.49,1.54,.14,4.37c0,1.82,.51,1.58,1.97,1.97v-3.94l.74-.42,3.02,5.4,1.49,.27-.74-2.6,5.85,2.34,.15-1.7-7.11-3.5-.12-1.1h2.63c1.27,0,1.17-.21,1.97-.66-1.88-2.57-2.45-.66-6.57-.66-.89,0-.99-.73-1.31-1.31l4.59-.71c-.96-3.58-4.07-.67-7.22,.06v-1.31c3.23-.27,2.41-1.31,5.26-1.31h.66c5.17,0,12.09,9.02,12.48,13.8-4.1,.34-7.76,1.97-11.83,1.97Z"/>
      <path class="cls-1" d="M37.45,103.41v-.66c0-1.77-.31-1.81-.65-3.26l3.25-.81,.03-1.84-5.24,1.36c-1.88-1.29-3.49-3.33-6.58-3.33h-1.31c-7.18,0-15.14,9.59-16.43,15.11,5.01,.42,10.25,4.6,17.08,4.6,5.24,0,9.86-5.61,9.86-11.17Zm-11.17,9.2c-3.65,0-9.12-3.61-13.14-3.94,2.15-4.06,7.33-11.83,13.14-11.83h1.31c2.26,0,3.4,.93,4.6,1.97l-5.84-1.58-.48,.93,4.07,2.41,.27,.86c-3.46-.08-3.87-1.31-6.57-1.31-.09,0-1.3,.65-1.31,.66l3.86,2.17c-2.61,3.48-6.03,.92-6.48,5.06l5.29-1.88-.38,3.17,4.32-5.64,.62,.4v3.94c2.91-.78,1.97-1.46,1.97-5.26l3.79-2.24,.15,2.24c0,5.47-3.92,9.86-9.2,9.86Z"/>
      <path class="cls-1" d="M132.07,52.16l-4.37,2.73,.52,.79,4.49-1.62c.83,3.08,4.69,5.33,8.57,5.33h2.63c6.69,0,11.85-12.84,13.14-18.4-1.59-.76-2.87-1.31-5.26-1.31h-8.54c-7,0-11.17,5.2-11.17,12.48Zm4.6-7.23c1.51-2.26,4.79-3.94,8.54-3.94h1.31c10.01,0,7.75,1.06,5.26,7.23-1.5,3.71-3.52,9.2-8.54,9.2h-1.31c-5.49,0-4.47-2.37-7.88-3.29l.03-1.17,3.18-.65,5.79,2.88,.56-.85-3.63-3.65,7.21,.81v-1.31h-1.97l.29-.91,4.16-2.98-.63-.98-7.84,3.52,1.62-4.49-.98-.5-2.57,5.59-2.51,.77,1.88-5.29h-1.97l-1.57,5.85-1.06,.07c.23-2.76,.89-4.64,2.63-5.91Z"/>
      <path class="cls-1" d="M19.05,88.95l20.35,1.54,3.96-.23,13.11-1.52,7.25,.21-.66-1.97-24.96,1.43-1.98-.12-15.09-1.52-3.97,.21-5.91,.66-.75,1.95c3.87,.02,4.96-.95,8.63-.64Z"/>
      <path class="cls-1" d="M82.13,50.18c.46,.88,1.97,3.83,1.97,4.6,0,1-1.29,.74-1.97,3.29,2.06-.17,2.33-.66,4.6-.66,1.92,0-.17,1.7,3.29,2.63v-4.6l4.94-1.83-.37-.7-3.9-.86-.02-5.81-.61-.44-3.58,4.87-4.36-.48Z"/>
      <path class="cls-1" d="M125.49,88.95l19.03,1.58c3.45,.02,8.51-.23,9.22-2.89-4.12,0-5.93,1.01-9.86,.66l-18.4-1.31v1.97Z"/>
      <path class="cls-1" d="M88.04,86.98l-5.91,.66-1.97,1.97,9.84-.81,20.38,.15v-1.31c-2.06-.17-2.33-.66-4.6-.66h-17.74Z"/>
      <path class="cls-1" d="M73.59,60.7c.27-1.15,.72-3.29,1.97-3.29,1.39,0,.87,.24,2.63,.66-.81-3.02-1.97-1.66-1.97-3.94,0-1.36,1.02,.25,1.31-3.29-2.79,.74-1.15,1.31-3.29,1.31-2.28,0-.92-1.17-4-1.96l.86,4.56-2.44,1.67c2.43,.38,3.61,.11,3.61,2.3v1.97h1.31Z"/>
      <path class="cls-1" d="M104.35,53.58l.94-4.03c-.99,.53-3,2.6-3.44,2.6-1.27,0-2.14-.89-4.15-1.19l2.24,3.79-2.31,3.1,3.54-.58,1.65,3.62,1.11-4.12,3.19-.02-2.75-3.17Z"/>
      <path class="cls-1" d="M101.84,67.27c-1.08,0-1.97,.39-1.97,1.31,0,1.39,.24,.87,.66,2.63,2.38-.05,3.94-.29,3.94-2.63,0-.92-.9-1.31-1.97-1.31h-.66Z"/>
      <path class="cls-1" d="M82.79,69.24c0,1.08,.39,1.97,1.31,1.97,1.39,0,.87-.24,2.63-.66-.05-2.11,.21-3.29-1.97-3.29-1.51,0-1.97,.46-1.97,1.97Z"/>
    </g>
  </g>
</svg>