<?xml version="1.0" encoding="UTF-8"?>
<svg id="_图层_2" data-name="图层 2" xmlns="http://www.w3.org/2000/svg" viewBox="0 0 149.03 142.16">
  <defs>
    <style>
      .cls-1 {
        fill-rule: evenodd;
      }
    </style>
  </defs>
  <g id="_图层_2-2" data-name=" 图层 2">
    <g>
      <path class="cls-1" d="M78.53,41.84c-17.05,0-23.97,9.17-41.84,9.17h-1.15c-10.86,0-10.16-8.6-13.76-8.6h-1.72c-1.34,0-2.29,.95-2.29,2.29v1.15c0,1.55,.27,1.58,.57,2.87-2.67,.06-4.59,.84-4.59,3.44s1.34,4.01,4.01,4.01h1.15c3.04,0,3.84-2.29,6.88-2.29h.57c3.29,0,5.69,2.35,6.89,4.69l12.02-1.25h4.59c8.46,0,17.2,4.35,17.2,12.61v1.72c0,2.41-.61,3.88-1.72,5.16,0-7.26,.23-9.68-3.85-13.34-3.29-2.95-7.3-4.43-13.34-4.43h-6.31c-6.64,0-11.5,2.87-18.92,2.87h-2.87c-7.82,0-8.71-8.02-12.04-8.02h-.57c-1.55,0-1.58,.27-3.16,.57l.3,6.31c-2.11,.49-4.59,1.46-4.59,4.01,0,2.77,1.81,4.59,4.59,4.59h.57c3.66,0,4.9-3.44,9.17-3.44,3.14,0,8.17,3.72,10.32,5.16,0,1.65,4.01,11.1,4.97,13.37,1.77,4.17,5.02,8.01,8.32,10.6,7.49,5.88,13.51,10.42,26.83,10.42h5.16c11.87,0,48.72-11.84,48.72-20.64v-.57c0-7.31-9.35-14.46-12.61-18.92,8.03,1.87,13.63,16.05,14.33,16.05,.94,0,1.72-.34,1.72-1.15,0-4.27-13.64-20.81-16.77-23.93-5.96-5.95-15.32-14.47-26.8-14.47Zm-13.76,5.16c2.34-2.04,9.22-2.87,13.76-2.87h1.15c7.06,0,17.85,5.36,20.64,9.17-8.62-2.01-10.26-8.02-26.37-8.02-3.42,0-5.62,1.64-9.17,1.72Zm13.69,31.54c1.18,1.27,1.79,2.73,1.79,5.15v1.15c0,3.89-.77,7.27-4.01,8.02,1.31-1.95,2.87-4.79,2.87-8.02l.13-1.17-.77-5.13Zm-27.45,1.71c3.04,0,5.35-1.73,7.45-2.29-1.38,2.06-1.85,1.72-4.01,2.87h-3.44v-.57Zm-13.18,2.29c6.35,1.48,5.9,3.44,16.05,3.44-1.23,.85-1.89,1.15-4.01,1.15h-4.59c-2.58,0-6.41-3.03-7.45-4.59Zm30.95,20.06h-3.44c-8.27,0-21.51-4.48-24.65-9.17,2.86,.67,3.01,1.96,5.73,2.87,2.37,.79,3.93,1.15,6.66,1.94,4.62,1.34,10.13,2.06,15.71,2.06l1.16,.14,10.88-.71c-2.53,2.2-7.4,2.87-12.04,2.87Zm25.22-12.04c0,2.87-2.26,5.13-4.01,6.31,.61-2.3,2.29-2.99,2.29-5.73v-3.44c0-1.75-.55-2.31-1.15-3.44,1.9,.51,2.87,2.29,2.87,4.59v1.72Zm16.05-13.18v1.72c0,3.67-5,6.75-8.03,7.45,1.03-1.41,6.88-4.76,6.88-6.31,0-2.84-3.98-1.45-6.84-1.76-2.44-.27-5.07-1.03-7.12-2.05-2.7-1.34-8.88-6.51-11.26-6.51-3.32,0-4.23,1.14-5.73,2.87,.2-2.44,1.44-3.44,4.01-3.44h2.29c4.27,0,8.02,3.71,11.11,5.52,4.88,2.86,9.09,1.2,14.69,2.51Zm-14.33,6.88l.04-.4,6.27-1.32c-1.72,1.5-3.13,1.72-6.31,1.72Z"/>
      <path class="cls-1" d="M149.03,53.88c-.7-3-.77-5.16-4.59-5.16h-2.87c-2.74,0-3.56,.65-5.15,1.69l-1.73-.54c1.32-5.68,6.18-2.88,6.31-8.6-.67-.18-1.56-.57-1.72-.57-2.29,0-3.69,1.24-5.89,1.53l3.7-3.29-.68-1.68h-1.72c-1.12,.75-5.21,4.01-6.31,4.01h-2.29c-5.16,0,4.75-6.56,5.73-8.03-1.03-.69-1.01-1.15-2.29-1.15-2.19,0-3.94,3.44-5.73,3.44h-1.15c-1.11,0-2.29-1.02-2.29-1.72,0-2.63,3.6-2.03,4.59-5.73-.7-.39-.61-.57-1.72-.57h-.57c-2.19,0-5.54,4.5-8.03,5.16,.41-.61,4.59-6.85,4.59-6.88,0-1.91-1.03-1.68-2.87-1.72l-3.44,6.29-4.56,.73-.51-.44,3.92-5.44,1.72-3.44c-.7-.39-.61-.57-1.72-.57h-.57c-2.4,0-3.85,6.65-9.74,8.03,.59-2.52,4.01-7.63,4.01-9.17,0-.38-3.37-2.87-4.01-2.87h-.57c-1.55,0-1.58,.27-2.87,.57-2.04,1.78-4.18,5.66-7.45,5.73v-4.59c0-2.42,1.42-.43,1.72-4.01l-2.4-.69-3.33,2.98-8.23,6.26-.87-.81,3.94-8.32c-.21-.86-.13-1.72-1.15-1.72-3.06,0-3.7,2.08-5.73,3.44,1.09-4.06,5.16-7.51,5.16-13.76,0-1.31-.19-.67-.57-2.29h-2.87c-4.52,0-7.45,14.29-7.28,20.27l-3.04,2.09c-.39-.7-.57-.61-.57-1.72,0-3.18,1.87-8.02-1.15-8.02l-1.53,.09-3.06,5.64-.12-5.99-2.74,1.4,.23,5.96-3.74,3.72-.51-.51v-6.88c0-2.08-2.07-1.84-4.01-2.29-5.75,3.04-6.09,10.89-7.45,10.89-4.02,0,.3-9.17-2.87-9.17-2.09,0-3.31,3.69-4.52,5.17l1.65-11.48v-1.72c0-1.63-1.15-4.01-2.29-4.01-5.21,0-5.16,7.69-5.16,13.18l1.46,8.06c-.54,1.46-2.89,5.12-4.9,5.12-1.75,0-2.87-5.34-2.87-7.45,0-.16,.4-1.05,.57-1.72l5.12-1.28,.04-1.58-4.59,.57c.3-1.29,.57-1.32,.57-2.87v-2.29c0-1.93-1.01-4.01-2.87-4.01h-.57c-2.1,0-2.87,3.51-2.87,5.73l-.15,4.9-3.29,2.55h4.59c.09,3.98,2.89,10.32,6.88,10.32,2.21,0,2.77-3.22,5.41-3.54l2.36,1.17,3.69-10.24c0,3.49-.52,8.6,2.87,8.6,1.9,0,3.23-1.7,4.01-2.87,1.03,.69,1.01,1.15,2.29,1.15h1.72c1.62,0,2.21-1.32,2.87-2.29,.89,.6,2.09,1.72,3.44,1.72,.68,0,1.84-1.32,2.29-1.72,.46,.32,1.42,1.15,1.72,1.15,2.89,0,2.76-6.27,5.16-8.03v6.31c.46,.32,1.42,1.15,1.72,1.15,1.75,0,2.31-.55,3.44-1.15,.46,.32,1.42,1.15,1.72,1.15,3.68,0,3.84-8.14,8.03-8.6-.95,1.42-3.44,3.54-3.44,5.73,0,1.55,.27,1.58,.57,2.87,1.54,.37,1.08,.57,2.29,.57,2.12,0,2.74-.95,5.16-1.15,.51,1.4,2.01,2.54,4.03,2.42l6.09-.58,1.34,2.17h4.01c-1.5,2.04-10.89,4.5-10.89,8.6v.57c0,1.76,1.68,2.29,3.44,2.29h1.15c6.32,0,4.25-7.36,12.04-9.17,1.6,1.07,1.98,2.29,4.59,2.29h2.87v2.29c.67,.18,1.56,.57,1.72,.57,1.22,0,2.78-1.3,4.59-1.72,.22,2.67,1.68,3.47,3.86,3.98l-.51,3.1,5.83,2.08,.13,3.28,8.47-2.71c-1.14,1.7-4.01,3.54-4.01,5.73,0,1.2,2.27,2.02,3.44,2.29,.08,3.65,1.55,3.52,3.43,5.23l-5.15-.64h-5.73c-1.76,0-3.44,.53-3.44,2.29,0,2.77,1.81,4.59,4.59,4.59h1.72c3.8,0,5.64-2.29,7.45-2.29,3.13,0,3.18,1.15,6.31,1.15h.57c1.62,0,2.21-1.32,2.85-2.15l-6.44-.95,8.17-5.5ZM21.21,18.92h-1.15c-.15-1.79-.57-2.04-.57-4.01v-1.15c0-1.59,.44-1.38,1.72-1.72v6.88Zm12.04-10.89l-1.25,12.02c-.74-.96-1.04-.98-1.04-2.85v-4.59c0-2.72,.64-4.14,1.15-6.31,.78,.57,1.34,.15,1.15,1.72Zm16.05,13.18c0,1.32-.64,3.44-1.72,3.44-.8,0-1.15-.78-1.15-1.72v-1.72c0-2.29,.97-4.08,2.87-4.59v4.59ZM76.81,2.87l-4.59,11.46c.31-3.72,1.34-10.6,4.59-11.46Zm10.89,19.49c0,1.11-1.02,2.29-1.72,2.29-1.11,0-2.29-1.02-2.29-1.72,0-.79,3.1-2.62,4.01-2.87v2.29Zm2.29,15.48c.26-3.1,3.39-3.92,5.73-5.16-.7,2.62-2.57,4.9-5.73,5.16Zm6.31-11.46c.08-3.61,2.13-6.22,5.73-6.31-1.35,2.56-2.1,6-5.73,6.31Zm33.82,34.39h-1.72c-1.59,0-1.38-.44-1.72-1.72h7.45c-1.05,.91-2.04,1.72-4.01,1.72Zm8.03-5.73c.21-2.47,2.09-3.44,4.59-3.44h3.44c-.65,1.8-3.97,3.44-6.31,3.44h-1.72Z"/>
      <path class="cls-1" d="M89.15,122.27l-3.12,5.34-.63-.36c0-2.08-.17-9.17-1.72-9.17-1.34,0-2.29,.95-2.29,2.29v7.45c-2.5-.06-2.87-.37-2.87-2.87l-.1-5.44-3.34,1.43-.03,6.83-3.56,1.75,.72-8.01h-1.72c-2.19,0-.21,.18-1.72-.57h-2.29c-5.16,3.46-3.53,8.03-10.32,8.03,0-3.98,3.75-8.03,5.73-10.32,.58-2.47,1.72-3.14,1.72-6.31v-1.15c0-1.11-1.02-2.29-1.72-2.29-3.56,0-7.71,7.72-8.02,11.46h-2.29c-3.44,0-6.88,3.43-6.88,6.88,0,1.34,1.53,2.87,2.87,2.87h1.72c1.98,0,2.22-.42,4.01-.57,.35,1.3,.55,2.29,2.29,2.29h.57c2.47,0,3.11-.67,5.16-1.15,1.18,.79,1.49,1.72,2.87,1.72h.57c2.1,0,2.77-.89,4.01-1.72,1.03,.69,1.01,1.15,2.29,1.15h1.72c.85,0,2.53-1.24,3.44-1.72,1.34,.31,1.69,.57,3.44,.57,1.99,0,.81-1.02,3.44-1.72-1.35,2.01-5.73,7.71-5.73,10.32v1.15c0,1.32,.4,1.72,1.72,1.72h1.15c6.04,0,6.31-5.2,6.31-11.46,.46-.68,4.01-5.34,4.01-5.73,0-1.54-.82-2.2-1.41-2.69Zm-27.82-10.5c0,4.69-2.39,7.79-4.59,10.32,.28-3.41,2.37-8.84,4.59-10.32Zm-11.46,16.05c-4.16,0,.27-4.99,3.44-5.73-.06,2.59-1.03,5.73-3.44,5.73Zm16.05,2.29c-.8,0-1.15-.78-1.15-1.72,0-3.19,1.9-4.61,4.01-5.73-.05,2.23-.95,7.45-2.87,7.45Zm17.2,5.73c0,2.44-.93,3.49-2.87,4.01l2.87-6.31v2.29Z"/>
      <path class="cls-1" d="M93.43,122.09c4.85,0,16.79-4.27,17.15-8.15l-16.92,6.98-.23,1.17Z"/>
      <path class="cls-1" d="M33.47,116.13c-1.53-.93-6.8-6.07-6.94-3.28-.07,1.41,12.49,11.16,14.74,8.09-1.03-1.41-5.78-3.59-7.8-4.81Z"/>
      <path class="cls-1" d="M114.64,20.06h1.15c1.32,0,1.72-.4,1.72-1.72s-.95-2.29-2.29-2.29h-.57c-1.11,0-2.29,1.02-2.29,1.72,0,1.34,.95,2.29,2.29,2.29Z"/>
      <path class="cls-1" d="M134.7,32.1h1.15l.57-2.29c-.6-.89-.76-1.72-2.29-1.72h-.57c-2.53,0-1.79,2.1-1.15,3.44,.81,.4,.95,.57,2.29,.57Z"/>
    </g>
  </g>
</svg>