<?xml version="1.0" encoding="UTF-8"?>
<svg id="_图层_2" data-name="图层 2" xmlns="http://www.w3.org/2000/svg" viewBox="0 0 86.19 86.78">
  <g id="_图层_2-2" data-name=" 图层 2">
    <path d="M0,13.12c1.02-2.17,1.88-2.63,4.3-2.39,3.24,.33,6.47,.63,9.71,.93,1.32,.12,2.24,.79,2.72,2,.48,1.22,.22,2.32-.6,3.34-.17,.21-.24,.66-.14,.9,.77,1.84,1.58,3.67,2.42,5.48,.12,.25,.49,.56,.74,.56,3.88-.07,7.76-.19,11.64-.3,.14,0,.28-.05,.52-.08-.07-1.21-.14-2.39-.21-3.57-.08-1.25-.19-2.5-.25-3.75-.07-1.43,.46-2.09,1.88-2.34,.94-.16,1.88-.29,2.92-.46-.67-3.84,.13-7.25,2.84-10.09,1.82-1.91,4.08-2.98,6.69-3.28,4.89-.56,11.22,2.77,12.02,9.99,.61-.1,1.22-.2,1.83-.28,.87-.11,1.76-.43,2.62,.09,.12,.07,.34-.02,.51-.06,5.19-1.18,9.54,1.59,10.65,6.77,.03,.14,.09,.28,.16,.52,.67-.08,1.34-.18,2.01-.24,1.13-.11,1.68,.25,1.98,1.35,.37,1.37,.7,2.76,1.03,4.05,1.67,0,3.25,0,4.83,0,2.18-.01,3.39,1.16,3.39,3.35,0,6.9,0,13.79,0,20.69,0,2.31-1.25,3.75-3.52,4.12-2.62,.43-5.23,.86-7.91,1.3,.05,.17,.07,.31,.12,.44,.75,2.06-.27,3.92-2.43,4.3-3,.53-6,.98-9,1.48-6.56,1.08-13.12,2.14-19.68,3.24-1.64,.27-3.09,1.02-4.14,2.3-1.22,1.5-2.29,3.11-3.56,4.85,.64,0,1.07,0,1.5,0,13.11,0,26.22,0,39.32,0,1,0,1.91,.2,2.61,.94,.88,.93,1.1,2.04,.64,3.23-.47,1.2-1.4,1.84-2.67,1.92-.97,.06-1.95,.01-3.11,.01,1.72,1.87,2.57,3.89,2.23,6.29-.26,1.82-1.11,3.32-2.53,4.49-2.78,2.27-6.83,2.11-9.4-.38-2.62-3.12-2.84-6.49,.04-10.34h-20.88c1.86,2.02,2.67,4.32,2.02,6.99-.41,1.69-1.36,3.04-2.78,4.04-2.97,2.07-6.95,1.61-9.34-1.06-2.18-2.43-2.78-6.65,.52-10.03-.68,0-1.23,0-1.77,0-1.69-.02-3.01-.71-3.8-2.23-.77-1.48-.63-2.94,.32-4.31,1.7-2.46,3.37-4.93,5.11-7.35,.62-.86,1.39-1.61,2.12-2.44-.65-.08-1.3-.09-1.92-.24-2.26-.53-3.77-1.95-4.68-4.05-2.57-5.9-5.14-11.8-7.72-17.71-2.52-5.79-5.05-11.59-7.56-17.39-.21-.49-.46-.7-1.03-.75-3.33-.27-6.65-.65-9.98-.91-1.6-.12-2.64-.92-3.32-2.29v-1.61Zm54.77,59.5c7.25,0,14.51,0,21.76,0,.3,0,.6,.01,.89-.01,.7-.06,1.11-.48,1.16-1.14,.06-.69-.36-1.13-1.01-1.27-.34-.08-.71-.05-1.07-.05-13.85,0-27.7,0-41.55-.02-.45,0-1.12-.18-1.27-.49-.16-.31,.08-.96,.32-1.33,1.07-1.65,2.2-3.27,3.32-4.88,1.56-2.24,3.68-3.62,6.37-4.09,1.03-.18,2.06-.35,3.09-.52,8.38-1.37,16.77-2.75,25.15-4.12,1.03-.17,1.51-.7,1.38-1.5-.12-.78-.7-1.08-1.71-.92-9,1.48-17.99,3.01-27.01,4.39-3.86,.59-7.04,2.12-9.3,5.38-1.56,2.26-3.13,4.51-4.67,6.78-.24,.36-.46,.79-.51,1.21-.21,1.54,.84,2.6,2.55,2.6,7.37,0,14.75,0,22.12,0ZM37.76,14.99c.11,.79,.17,1.5,.32,2.19,.15,.7,.11,1.28-.68,1.49-.66,.18-1.05-.22-1.21-1.19-.12-.72-.23-1.44-.35-2.18-.91,.13-1.7,.27-2.5,.35-.56,.06-.76,.3-.7,.87,.13,1.33,.21,2.67,.31,4.01,.07,.97,.12,1.94,.19,3.01,6.5-.18,12.87-.35,19.3-.52,.07-1.02-.24-2.16,.81-2.65,.86-.4,1.86-.5,2.76-.73-.26-2.49,.6-4.97-.6-7.4-5.76,.9-11.63,1.81-17.66,2.75Zm.04,39.49c-.42,.07-.79,.13-1.17,.18-2,.27-3.37-.84-3.51-2.84-.21-2.98-.41-5.96-.62-8.93-.02-.32-.06-.66-.19-.96-2.28-5.28-4.57-10.56-6.88-15.83-.09-.2-.35-.46-.54-.47-1.78-.04-3.55-.02-5.46-.02,.14,.45,.19,.67,.28,.88,3.88,8.97,7.76,17.95,11.67,26.91,.84,1.92,2.72,3.04,4.74,2.87,.74-.06,1.46-.24,2.28-.37-.22-.51-.4-.94-.61-1.42ZM55.4,10.39c-.48-3.9-2.32-6.7-5.94-8.03-3.59-1.32-6.9-.61-9.63,2.1-2.4,2.38-3.09,5.32-2.38,8.72,6-.93,11.93-1.85,17.96-2.79Zm-4.73,40.16c-.33-.76-.6-1.35-.86-1.95-3.28-7.53-6.56-15.07-9.86-22.6-.12-.28-.43-.67-.66-.68-1.54-.06-3.08-.03-4.76-.03,.14,.42,.21,.67,.32,.9,.6,1.4,1.2,2.79,1.81,4.18,2.93,6.75,5.86,13.49,8.81,20.23,.12,.28,.54,.64,.78,.61,1.44-.16,2.87-.42,4.43-.66Zm20.39-3.23c-.16-.41-.26-.71-.38-1.01-2.85-6.55-5.69-13.11-8.54-19.66-.83-1.91-.83-1.91-2.88-1.86-.96,.02-1.93,0-3,0,.15,.4,.21,.59,.29,.78,1.77,4.07,3.54,8.14,5.31,12.2,1.41,3.22,2.81,6.44,4.25,9.65,.11,.24,.45,.57,.65,.54,1.41-.17,2.8-.41,4.31-.65Zm-29.31-22.27c.08,.34,.08,.43,.12,.51,3.49,8,6.99,15.99,10.46,24,.23,.54,.53,.74,1.08,.59,.28-.07,.57-.14,.88-.21-.16-2.4-.31-4.78-.49-7.15-.06-.83,.01-1.73-.3-2.47-2.08-4.94-4.25-9.84-6.41-14.75-.1-.23-.46-.49-.7-.5-1.52-.05-3.03-.02-4.65-.02Zm21.74-.33c3.25,7.46,6.48,14.84,9.73,22.3,1.58-.25,3.11-.49,4.74-.74-.16-.41-.25-.69-.37-.95-.91-2.1-1.83-4.2-2.75-6.31-2-4.59-3.99-9.18-6.01-13.76-.13-.3-.48-.74-.72-.74-1.49,0-2.97,.12-4.62,.2Zm-29.96,3.22s-.07,.04-.1,.06c.03,.36,.08,.71,.1,1.07,.2,3.18,.38,6.37,.58,9.55,.07,1.1-.06,2.29,.33,3.27,1.33,3.38,2.85,6.68,4.32,10,.08,.19,.39,.43,.57,.41,1.49-.19,2.98-.44,4.54-.69-3.48-7.97-6.91-15.82-10.33-23.67Zm37.25-3.45c.1,.31,.16,.54,.25,.75,2.91,6.69,5.84,13.38,8.74,20.08,.32,.75,.82,.52,1.33,.42,.66-.13,.63-.62,.51-1.11-.78-3.15-1.59-6.29-2.36-9.43-.85-3.46-1.54-6.97-3.19-10.19-.27-.53-.55-.78-1.15-.74-1.34,.09-2.68,.14-4.12,.21Zm-15.92,2.18s-.09,.03-.14,.05c.05,.38,.12,.76,.14,1.15,.2,3.3,.38,6.6,.59,9.9,.06,.95,.05,1.95,.39,2.81,1.05,2.66,2.24,5.27,3.4,7.88,.11,.25,.46,.59,.67,.56,1.43-.15,2.86-.38,4.39-.59-3.19-7.35-6.32-14.55-9.45-21.76Zm23.64-2.64c1.01,5.55,3.85,10.12,5.71,15.06,.07-.02,.14-.05,.22-.07,0-1.16,0-2.32,0-3.48,0-3.37,0-6.73,0-10.1,0-.75-.23-1.36-1.04-1.4-1.6-.06-3.19-.02-4.89-.02Zm-7.4-6.62c-.48-5-5.67-7.11-8.52-5.7,.56,2.24,1.12,4.48,1.69,6.78,2.33-.37,4.58-.72,6.83-1.08Zm-12.63,3.88c-.03,1.44-.03,1.46,1.24,1.43,5.16-.12,10.32-.24,15.48-.38,.25,0,.5-.08,.84-.13-.3-1.21-.58-2.33-.87-3.5-.64,.1-1.18,.19-1.77,.29,.08,.63,.18,1.22,.21,1.8,.03,.53-.2,.92-.8,1-.6,.08-.99-.15-1.16-.72-.1-.34-.19-.7-.19-1.05,0-.64-.27-.73-.84-.62-1.23,.23-2.47,.39-3.7,.57-2.82,.43-5.63,.87-8.44,1.3ZM14.97,14.41c-.22-.19-.56-.63-1.02-.83-.44-.2-.99-.16-1.49-.21-2.99-.29-5.99-.56-8.98-.85-.76-.07-1.44,.39-1.57,1.13-.11,.58,.42,1.24,1.11,1.38,.35,.07,.7,.13,1.06,.17,3.11,.29,6.23,.56,9.34,.86,.85,.08,1.58-.51,1.55-1.65Zm12.19,11.1c1.62,3.71,3.18,7.31,4.75,10.91l.19-.06c-.24-3.62-.48-7.23-.71-10.85h-4.23ZM60.87,12.48c-2.34,1.41-3.53,4.36-2.81,6.93,1.41-.22,2.83-.44,4.36-.68-.53-2.13-1.03-4.16-1.55-6.25Zm-11.96,12.46c1.44,3.31,2.8,6.44,4.16,9.56,.06-.02,.12-.04,.18-.06-.21-3.14-.41-6.28-.62-9.43-.19-.03-.31-.07-.42-.07-1.04,0-2.08,0-3.3,0Zm31.79,22.88c.26,.39,.38,.82,.64,.93,1.08,.46,2.87-.72,3.09-1.91,.49-2.69-.87-4.85-1.95-7.09,.32,1.63,.74,3.24,1.11,4.86,.33,1.41-.38,2.58-1.75,2.96-.31,.09-.63,.14-1.14,.25Zm-35.54,6.91l.15-.25c-.35-.35-.73-1.02-1.06-.99-1.5,.11-2.98,.42-4.7,.69,.4,.54,.73,1.29,.99,1.27,1.55-.14,3.08-.46,4.62-.72Zm1.51-1.67c-.06,.08-.13,.16-.19,.24,.32,.35,.67,1.02,.97,1,1.52-.13,3.03-.44,4.66-.7-.41-.51-.16-1.37-1.05-1.24-1.47,.21-2.93,.46-4.39,.7Zm12.12-.56c-.34-1.24-.36-1.28-.96-1.19-1.47,.22-2.93,.47-4.39,.71,.33,1.24,.37,1.31,1.08,1.19,1.41-.22,2.81-.47,4.27-.72Zm1.16-1.49c.49,.48,.86,1.12,1.16,1.09,1.5-.14,2.98-.45,4.57-.71-.29-.5-.1-1.26-.93-1.15-1.5,.21-2.99,.48-4.8,.78Zm6.9-1.06c.45,.49,.77,1.09,1.02,1.07,1.52-.16,3.03-.47,4.65-.75-.21-.46-.36-.79-.51-1.13-1.67,.26-3.26,.52-5.16,.82Zm12.38-.8l.15-.3c-.29-.26-.61-.77-.87-.74-1.52,.16-3.02,.45-4.62,.71,.28,.5,.16,1.17,.95,1.04,1.46-.24,2.92-.48,4.38-.72Zm-42.29,3.44c-.69-1.6-1.36-3.13-2.02-4.65-.09,1.19,0,2.33,.05,3.47,.06,1.36,.58,1.71,1.97,1.19Zm32.65,28.37c.59,.02,1.25-.57,1.29-1.15,.04-.61-.6-1.27-1.24-1.27-.68,0-1.18,.49-1.19,1.18-.01,.67,.5,1.23,1.14,1.24Zm-31.74-1.26c-.01,.68,.49,1.24,1.12,1.26,.63,.02,1.29-.62,1.29-1.23,0-.63-.55-1.16-1.2-1.17-.69,0-1.19,.46-1.2,1.14Zm19.54-30.42c-.43-.99-.86-1.98-1.38-3.17,.06,1,.11,1.76,.15,2.52,.05,.89,.3,1.03,1.23,.64Zm-2.92-27.33c.1,1.05,.5,1.18,2,.77-.05-.3-.09-.61-.16-1-.64,.08-1.22,.16-1.84,.24Z"/>
  </g>
</svg>