<?xml version="1.0" encoding="UTF-8"?>
<svg id="_图层_2" data-name="图层 2" xmlns="http://www.w3.org/2000/svg" viewBox="0 0 147.7 121.63">
  <g id="_图层_2-2" data-name=" 图层 2">
    <g>
      <path d="M136.94,78.06c-2.61,2.04-5.18,4-7.69,6.04-.31,.25-.29,.92-.39,1.4-.34,1.72-1.78,2.87-3.5,2.77-1.52-.09-2.72-1.22-2.88-2.73-.18-1.69,.83-3.35,2.44-3.54,.94-.11,1.94,.37,2.93,.53,.49,.08,1.12,.24,1.5,.02,2.84-1.6,5.24-3.72,7.01-6.48,.43-.67,.62-1.51,.73-2.42-2.6,2.51-5.8,2.73-9.02,2.9-.23,.01-.59-.05-.67,.08-.89,1.33-2.26,2.04-3.49,2.98-1.79,1.36-3.29,3.1-4.92,4.67-.16,.15-.41,.21-.73,.36,.57,.44,.85,.67,1.14,.89,1.93,1.48,2.17,3.18,.36,4.78-1.19,1.05-2.67,1.88-4.17,2.44-3.79,1.42-7.64,2.66-11.49,3.92-.91,.3-1.62,.43-1.32,1.74,.11,.45-.59,1.29-1.12,1.65-1.33,.92-2.82,1.61-4.14,2.54-.56,.4-.94,1.12-1.28,1.76-.47,.9-.8,1.88-1.23,2.81-.49,1.07-1.35,1.56-2.51,1.75-.49,.08-1.13,.44-1.34,.86-.78,1.53-1.88,2.7-3.43,3.34-1.88,.77-3.84,1.36-5.77,2.03-1.31,.46-2.66,.83-3.94,1.38-2.13,.92-4.28,1.1-6.36,.13-2.35-1.09-4.64-1.13-7.03-.26-2.91,1.06-5.57,.65-7.92-1.48-1.02-.92-2.15-.93-3.33-.18-1.53,.98-3.07,.92-4.56-.14-2.08-1.49-4.26-2.87-6.22-4.5-.9-.75-1.54-1.92-2.02-3.02-.62-1.4-.93-2.92-1.44-4.37-.16-.47-.42-1.05-.81-1.26-2.17-1.19-2.27-3.25-2.35-5.32-.03-.83,.05-1.69,.22-2.5,.23-1.11,.47-2.11-.65-2.98-.35-.28-.38-1.11-.37-1.69,0-2.94,.86-5.67,2-8.35,.43-1.02,.46-2.22,.64-3.34,.09-.55-.07-1.2,.17-1.64,1.31-2.39,.1-4.35-.94-6.35-2.27,.18-3.09-.51-2.89-2.8,.12-1.39,.66-2.74,1.07-4.33-1.04,.66-1.93,1.29-2.88,1.83-.84,.48-1.71,.98-2.62,1.27-1.33,.42-2.07-.31-1.82-1.71,.44-2.5,1.81-4.51,3.68-6.1,1.27-1.08,1.83-2.18,1.86-3.88,.05-2.89,.95-5.52,3.72-7.06,.4-.22,.84-.42,1.28-.55,5.87-1.78,12.9,3.97,12.38,10.04-.18,2.13-.18,4.28-.13,6.42,.05,2.13,1.76,3.05,3.55,1.91,2.36-1.5,4.6-3.18,6.98-4.63,.82-.5,1.92-.52,2.89-.77,.57-.15,1.15-.25,1.69-.47,1.63-.68,3.22-1.44,4.85-2.09,.97-.38,1.74-.08,2.1,.98,.29,.86,.87,1.14,1.43,.72,.95-1.71,1.73-3.55,2.89-5.11,4.6-6.18,10.19-11.24,17.38-14.28,1.47-.62,3.12-.99,4.71-1.1,2.26-.16,3.23,1.22,2.66,3.41-.16,.62-.38,1.23-.66,2.11,.91-.3,1.62-.59,2.35-.77,2.11-.51,4.21-1.23,6.35-1.38,2.78-.2,4.11,1.71,3.27,4.4-.42,1.36-1.14,2.63-1.82,4.13,.5-.08,.92-.13,1.33-.21,1.96-.41,3.88-.35,5.76,.41,2.15,.87,2.98,2.36,2.25,4.55-.49,1.48-1.31,2.84-2.07,4.43,.54,0,1.06,0,1.58,0,2.8-.02,4.4,1.7,3.65,4.39-.52,1.88-1.64,3.6-2.56,5.35-.32,.6-.84,1.09-1.39,1.77,3.01,.61,4.48,3.12,6.61,4.75,.77,.59,1.39,.85,2.37,.68,2.48-.45,4.96-.8,6.94-2.61,1.02-.93,1.71-1.88,1.34-3.39-.74-3.06-1.39-6.15-2.08-9.22-.05-.25-.08-.5-.12-.75,.14-.07,.29-.14,.43-.22,.53,.96,1.24,1.86,1.57,2.89,2.08,6.33,2.32,12.79,1.08,19.31-.22,1.19-.1,2.17,.55,3.18,1.11,1.72,2.14,3.49,3.21,5.24,.5,.81,1.03,1.28,2.15,.84,1.31-.51,2.41,.08,3.25,1.47,.72,1.2,.72,2.41-.16,3.51-.83,1.03-1.92,1.49-3.23,1.03-1.22-.42-1.96-1.66-1.73-3.16,.16-1.03-.18-1.7-.75-2.51-1.38-1.92-2.6-3.96-3.97-6.08-.2,.29-.44,.54-.58,.83-1.24,2.5-2.43,5.02-3.69,7.51-1.48,2.92-.49,6.92,2.3,8.69,1.13,.72,2.4,1.22,3.62,1.8,.99,.47,1.8,.75,2.79-.32,1.01-1.09,3.26-.36,4.21,1.11,.92,1.43,.34,3.5-1.2,4.33-1.35,.73-3.02,.12-3.56-1.59-.42-1.32-1.24-1.83-2.4-2.18-1.02-.31-2.01-.73-3.02-1.09-.08-.03-.18,.01-.59,.05,1.26,2.17,2.39,4.26,3.69,6.25,.27,.41,1.15,.55,1.76,.6,2.26,.18,3.38,1.47,3.08,3.69-.28,2.07-2.12,3.47-4.06,3.09-1.86-.36-3.33-2.66-2.46-4.43,.83-1.67,.19-2.68-.63-3.98-1.14-1.8-2.04-3.76-3.04-5.65-.25-.48-.5-.97-1.07-1.42-.31,2.13-.64,4.26-.89,6.4-.03,.26,.33,.62,.59,.84,.41,.37,.91,.64,1.34,1.01,1.19,1.03,1.4,2.49,.56,3.6-.85,1.12-2.53,1.44-3.78,.71-1.27-.74-1.86-2.23-1.07-3.47,1.24-1.94,1.46-4.09,1.7-6.26,.2-1.8,.42-3.61,.58-5.41,.05-.56-.06-1.14-.1-1.71-.12-.03-.24-.07-.36-.1-.23,.3-.52,.57-.69,.9-2.32,4.45-4.62,8.92-6.95,13.37-.69,1.31-.51,2.31,.68,3.29,1.87,1.55,2.13,2.83,1.12,4.31-1.11,1.63-3.65,2.27-5.37,1.35-1.4-.75-1.86-2.4-1.06-4,.18-.37,.41-.78,.73-1,3.29-2.29,2.92-6.34,4.77-9.31-.08-.1-.17-.2-.25-.3-.73,.23-1.52,.35-2.17,.7-2.48,1.35-4.68,3.07-6.32,5.39-.3,.43-.41,1.21-.24,1.7,.63,1.85,0,3.46-1.72,4.1-1.63,.6-3.61-.41-4.15-2.12-.55-1.74,1.56-4.03,3.55-3.83,.41,.04,.8,.16,1.07,.22,1.55-1.73,3.02-3.38,4.6-5.14-1.61-.02-3.12-.6-4.1,1.36-.63,1.27-2.53,1.59-3.87,.99-1.19-.53-1.75-1.49-1.69-2.79,.07-1.43,.95-2.47,2.42-2.88,1.55-.43,2.7-.09,3.44,1.34,.51,.99,1.14,1.19,2.12,1,2.23-.43,4.52-.68,6.69-1.31,.97-.28,2.03-1.11,2.55-1.98,1.71-2.92,3.18-5.98,4.9-9.28-.69,.1-1.03,.11-1.35,.21-1.64,.53-3.27,1.08-4.9,1.63-1.28,.44-2.56,.62-2.97,2.42-.35,1.51-2.9,1.96-4.34,1.05-1.36-.85-1.72-2.71-.8-4.04,1.07-1.55,3.12-2.05,4.35-.8,.92,.94,1.68,.8,2.68,.42,1.79-.67,3.68-1.11,5.37-1.95,1.37-.68,2.85-1.59,3.69-2.8,2.36-3.41,3.69-7.29,4.16-11.43,.03-.26-.02-.53-.03-.72Zm-92.63,.2c1.62-1.9,3.42-2.36,5.65-1.68,.58,.18,1.69-.35,2.12-.89,1.11-1.41,1.63-3.12,1.53-4.96-.03-.47-.09-.93-.16-1.7,.55,.43,.87,.62,1.1,.88,.51,.61,1.13,.99,1.79,.39,.7-.64,.77-1.53,.09-2.24-.47-.49-1.08-.89-1.7-1.17-.97-.43-2-.78-3.02-1.06-1.18-.32-1.92-1.03-2-2.22-.16-2.54-.41-5.1-.27-7.62,.13-2.38-.22-4.35-2.06-6.06-2.16-2-4.79-2.8-7.51-2.73-2.56,.06-3.97,2.03-4.58,4.43-.2,.8-.32,1.69-.14,2.47,.08,.37,.97,.53,1.46,.83,.31,.19,.59,.44,.84,.71,.66,.72,1.24,1.5,1.93,2.18,4.23,4.16,4.6,9.12,2.93,14.45-.18,.58-.76,1.21-1.32,1.47-1.47,.7-2.18,2.79-1.23,4.42,1.43-1.27,2.94-2.18,4.57,.09Zm45.78-7.42c.25,1.55,.26,2.93-1.2,3.66-1.39,.69-1.61,1.62-.94,2.94,.47,.93,.44,1.86-.55,2.44-1.44,.86-1.8,2-1.51,3.66,.48,2.79-1.84,6-4.66,6.54-1.47,.28-2.54,.95-3.49,2.08-1.22,1.45-2.52,2.95-4.62,1.42-2,2.17-3.69,2.51-6.37,1.45-.44-.18-1.21-.31-1.46-.08-1.34,1.28-2.68,2.45-4.83,2.13,1.12,1.74,2.45,2.89,4.23,3.47,1.77,.58,2.52,.14,2.9-1.67,.48-2.25,.71-2.3,2.72-1.12,1.63,.96,3.28,1.96,5.04,2.58,1.58,.56,2.43-.06,2.94-1.66,.36-1.11,.98-1.25,1.91-.76,.74,.39,1.48,.77,2.21,1.18,1.38,.78,2.56-.07,3.66-.63,.37-.19,.4-1.26,.41-1.93,0-.89,.41-1.1,1.21-1.09,2.03,.02,3.84-.66,5.42-1.92,1.96-1.56,2.23-3.46,.82-5.52-.58-.84-1.26-1.62-1.79-2.49-.69-1.14-.42-1.89,.77-2.49,.48-.24,.97-.46,1.8-.86-1.1-.96-1.99-1.74-2.88-2.51-1.04-.9-.91-1.8,.37-2.31,.69-.27,1.44-.4,2.12-.69,1.45-.6,1.83-1.81,.85-3.02-1.27-1.57-3-2.38-5.1-2.83Zm28.55,1.31c1.65,2.91,1.15,6.05,1.07,9.28,1.1-1.01,2.18-2.04,2.92-3.26,1.31-2.15,.67-4.53-1.37-6-.85-.62-1.66-.71-2.62-.01Zm-6.09-21.55c2.25,1.99,3.73,4.17,4.37,6.95,.89-1.16,1.68-2.26,2.22-3.47,.42-.93,.6-2.07-.46-2.78-1.8-1.2-3.78-1.22-6.13-.7ZM29.57,63.14l.33,.27c.33-.12,.68-.21,.98-.37,1.97-1.11,3.95-2.21,5.89-3.37,.23-.14,.44-.65,.37-.92-.21-.79-.46-1.6-.88-2.3-.34-.58-.95-.71-1.51-.11-1.11,1.18-2.33,2.27-3.32,3.54-.76,.98-1.25,2.17-1.86,3.27Zm87.22-2.38c2.56,1.35,3.41,3.39,3.8,5.8,.67-1.01,1.17-1.99,1.57-3.01,.39-1.01,.83-2.27-.21-2.95-.83-.54-2.06-.57-3.12-.62-.54-.03-1.11,.4-2.03,.76Zm-11.06-18.02c1.71,1.75,3.14,3.22,4.79,4.9,.44-1.19,1-2.3,1.26-3.48,.26-1.16-.4-1.93-1.63-1.88-1.41,.06-2.82,.28-4.43,.46Zm-5.98,.04c.17-1.29,.32-2.37,.46-3.45-1.11,0-2.22-.01-3.33,.02-.24,0-.47,.21-.66,.3,1.09,.97,2.15,1.91,3.52,3.13Zm17.03,47.33c1.46-.42,2.64-1.55,2.51-2.32-.16-.87-1.6-1.63-2.86-1.45,.11,1.22,.23,2.45,.35,3.78Z"/>
      <path d="M91.9,13.88c1.19-1.16,2.31-2.35,2.74-4.08,.11-.46,.77-.79,1.17-1.18,.25,.39,.66,.76,.71,1.17,.12,.91,.04,1.85,.07,2.77,.02,.56,.09,1.11,.14,1.66,.2,.07,.4,.14,.59,.21,.76-1.26,1.54-2.52,2.27-3.8,.29-.51,.37-1.18,.74-1.62,.26-.32,.84-.37,1.27-.55,.02,.44,.12,.89,.03,1.3-.1,.43-.39,.82-.44,1.61,.43-.12,.86-.28,1.3-.35,.59-.1,1.19-.14,1.79-.2,.02,.51,.12,1.04,.04,1.53-.15,.85-.42,1.69-.63,2.53,.12,.1,.25,.19,.37,.29,.75-.67,1.61-1.27,2.23-2.04,.52-.65,.8-1.73,1.78-1.37,.47,.17,.65,1.18,1.06,2.01,.4-.1,1.09-.35,1.8-.42,.59-.06,1.2,.1,1.81,.16-.07,.57-.03,1.18-.23,1.7-.44,1.1-1.01,2.16-1.53,3.23,.14,.13,.27,.25,.41,.38,.39-.35,.82-.67,1.17-1.06,.94-1.06,1.73-2.28,2.79-3.2,.94-.81,2.08-.4,2.9,.4,.71,.68,1.37,1.5,.84,2.65-.21-.07-.32-.08-.38-.14-.48-.42-1.24-1.29-1.36-1.21-.77,.53-1.56,1.17-2.03,1.96-.43,.73,.29,1.09,.96,1.07,.74-.03,1.47-.22,2.21-.33,1.08-.16,1.65,.37,1.19,1.34-.76,1.6-1.06,2.93,.74,4.05,.34,.21,.36,.91,.53,1.39-.12,.08-.24,.15-.36,.23-.42-.39-.85-.75-1.24-1.17-.74-.79-1.39-.9-2.23-.05-.97,.99-2.04,1.91-3.14,2.77-1.82,1.41-3.86,2.07-6.14,1.34-1.88-.61-2.08-1.81-.55-3.12,2.18-1.86,4.68-3.06,7.54-3.36,.98-.1,1.39-.53,1.45-1.27-1.19-.56-2.28-1.11-3.41-1.57-.22-.09-.58,.19-.88,.21-.78,.05-2.03,.35-2.24,.02-.43-.68-.42-1.72-.34-2.59,.07-.74,.48-1.45,.74-2.17-.1-.1-.19-.2-.29-.3-.49,.26-1,.47-1.44,.79-.29,.21-.43,.61-.71,.85-.46,.41-.97,.76-1.46,1.14-.27-.53-.53-1.05-.86-1.7-.3,.33-.69,.8-1.13,1.22-.89,.86-1.76,.75-2.16-.41-.31-.9-.23-1.92-.48-2.85-.14-.54-.53-1.05-.94-1.45-.08-.08-.82,.36-1.11,.69-.54,.63-1,1.34-1.44,2.06-.64,1.05-1.71,1.51-2.72,1.19-.5-.16-.71-1.31-1.01-2.03-.12-.28-.12-.62-.18-.96-.85,.74-1.64,1.42-2.43,2.12-1.43,1.26-2.02,1.14-2.72-.58-.07-.17-.16-.33-.44-.91-.34,.99-.68,1.63-.77,2.3-.1,.73,.05,1.49,.04,2.23-.05,3.08-1.44,5.07-4.33,5.98-.48,.15-1.36,0-1.61-.33-.32-.42-.44-1.31-.21-1.78,.69-1.41,1.47-2.82,2.45-4.03,1.06-1.3,1.43-2.56,.69-4.27-.48,.52-.91,1.03-1.38,1.49-.77,.77-1.62,1-2.65,.42-.41-.23-1.18-.5-1.38-.31-.6,.55-1.28,1.27-1.41,2.02-.22,1.26,.09,2.61-.07,3.89-.35,2.73-2.49,4.32-4.99,3.88-1.45-.26-2.09-1.57-1.29-2.81,.9-1.4,1.78-2.85,2.89-4.09,.93-1.05,.88-2.02,.44-3.29-1.21,1.33-2.3,2.61-3.48,3.82-1.62,1.65-2.92,1.45-4.12-.54-.55-.92-1.11-1.83-1.68-2.73-.06-.1-.21-.15-.55-.4,0,1.68,.08,3.19-.04,4.68-.06,.72-.5,1.42-.76,2.13-.42-.66-.98-1.26-1.22-1.98-.32-.94-.39-1.96-.63-3.24-.37,.53-.52,.88-.78,1.08-.51,.37-1.25,1.03-1.6,.88-.59-.26-1.36-1.07-1.34-1.61,.07-1.51,.51-2.99,.81-4.49,.04-.21,.13-.42,.07-.69-1.58,1.55-3.41,2.92-2.96,5.61,.1,.56-.13,1.34-.51,1.75-.2,.22-1.04-.16-1.59-.27-.68,.74-1.36,1.71-2.25,2.4-.99,.76-1.64,.41-2.51-.99-1.03,.38-2.04,.74-3.04,1.11-.08-.13-.16-.25-.24-.38-.42,.82-.82,1.64-1.26,2.45-.59,1.09-1.43,1.72-2.74,1.34-1.27-.36-2.05-1.14-1.91-2.53,.18-1.7,.43-3.4,.67-5.1,.05-.39,.15-.78,.06-1.23-1.96,1.28-2.93,3.11-3.03,5.38-.06,1.34,.14,2.69,.11,4.04,0,.47-.34,.93-.53,1.4-.36-.3-.85-.53-1.06-.91-.46-.85-.78-1.78-1.28-2.95-.48,1.03-.83,1.85-1.23,2.64-1.1,2.14-2.36,2.26-3.97,.5-2.92-3.19-3.84-7.15-4.42-11.24-.1-.73-.15-1.47-.24-2.5-1.01,.48-1.83,1-2.72,1.27-1.31,.4-2.65,.79-4,.88-.68,.04-1.49-.49-2.07-.97-.32-.27-.28-.96-.41-1.47,.44,.06,.96-.01,1.31,.2,1.08,.62,2.19,.65,3.21,.1,1.3-.69,2.57-1.49,3.73-2.4,1.86-1.47,3.85-2.59,6.2-3.04,.9-.17,1.74-.15,2.02,.91,.29,1.08-.29,1.52-1.32,1.82-3.37,.96-3.55,1.04-2.93,4.54,.62,3.46,1.65,6.85,2.59,10.24,.15,.54,.74,.96,1.13,1.44,.45-.49,1.01-.93,1.33-1.49,.98-1.73,1.13-3.5,1.01-5.57-.28-4.77-.03-9.57,.14-14.35,.03-.97,.53-1.97,1.02-2.85,.28-.5,.98-1.11,1.45-1.07,.44,.03,.94,.8,1.19,1.34,.87,1.87,1.08,3.87,.67,5.87-.59,2.91-1.3,5.8-1.91,8.71-.16,.78-.15,1.59-.22,2.39,.14,.04,.27,.07,.41,.11,.58-.81,1.12-1.64,1.74-2.41,.46-.57,.95-1.29,1.58-1.52,.71-.25,1.66-.19,2.36,.1,.33,.14,.47,1.13,.42,1.71-.14,1.85-.44,3.69-.6,5.54-.03,.32,.3,.68,.46,1.02,.27-.22,.65-.38,.81-.66,.74-1.31,1.47-2.52,1.23-4.27-.42-2.99,.62-4.66,2.74-5.26,1.05-.3,1.99-.17,2.61,.88-.14,.15-.2,.27-.26,.26-2.49-.23-2.6-.13-2.59,2.47,0,.72,.07,1.43,.11,2.15l.48,.13c.37-.74,.76-1.48,1.09-2.24,.16-.38,.11-.91,.36-1.17,.31-.32,.84-.59,1.27-.59,.21,0,.59,.63,.62,1,.08,1.04,.03,2.09,.26,3.17,.97-1.19,2.04-2.23,1.92-3.89-.05-.74-.04-1.51,.14-2.22,.13-.53,.47-1.29,.88-1.41,.47-.14,1.11,.32,2.04,.64,.09-.11,.36-.63,.77-.94,.61-.47,1.29-.99,2.01-1.14,1.42-.31,2.22,.61,1.88,2.03-.31,1.33-.7,2.63-1.14,4.24,1.37-.86,1.82-1.75,1.86-3.06,.1-3.34,.28-6.69,.61-10.02,.11-1.04,.63-2.18,1.3-3,1.01-1.22,1.99-.89,2.3,.64,.59,3.01-.07,5.92-.77,8.82-.12,.49-.26,.97-.48,1.73,.88-.68,1.52-1.26,2.23-1.71,1.53-.97,2.5-.46,2.61,1.32,.12,1.94-.61,3.34-2.59,4.03,.18,.41,.29,.76,.48,1.06,1.21,1.9,1.87,1.97,3.42,.37,.42-.43,.81-.9,1.24-1.33,1.13-1.12,1.72-2.17,.82-3.89-.78-1.47-.64-3.25,.68-4.52,.43-.41,1.4-.63,1.95-.44,.46,.17,.85,1.03,.94,1.63,.09,.6-.09,1.33-.38,1.88-.98,1.81-.31,3.4,.5,5.1,1.25-.66,2.31-1.23,2.74-2.83,.35-1.3,1.31-2.52,2.26-3.54,.32-.35,1.51-.22,2.11,.08,.67,.34,.87,1.15,.27,1.99-.33-.36-.59-.65-.94-1.03-1.19,1-1.3,2.31-1.41,3.62,.11,.09,.22,.18,.33,.27,.85-.89,1.7-1.78,2.77-2.91,.63,.94,1.28,1.93,2.15,3.23,.47-.83,.97-1.51,1.25-2.27,.32-.86,.33-1.85,.71-2.67,.17-.37,.97-.68,1.42-.61,.32,.05,.78,.78,.77,1.19-.05,1.27-.29,2.53-.46,3.8l.39,.11Zm22.9,9.69c-2.24-.13-6.5,2.13-7.18,3.8,2.16,.66,5.93-1.34,7.18-3.8ZM37.82,3.15c-1.13,3.35-1.29,6.77-.86,10.24,.86-3.36,2.05-6.7,.86-10.24Zm27.33,6.87c1.31-1.96,1.72-7.24,.56-8.92-.69,3.14-.44,6.04-.56,8.92Zm10.36,9.68l-.54-.24c-.62,.94-1.31,1.84-1.82,2.83-.19,.36,.04,.93,.08,1.41,.53-.22,1.38-.32,1.53-.7,.41-1.04,.52-2.19,.76-3.3Zm-6.54-8.72c-.12-.11-.23-.21-.35-.32-1.17,1.15-2.33,2.3-3.5,3.45,2.4-.14,3.78-1.4,3.85-3.14Zm13.58,11.88l.36,.25c1.85-.81,2.73-2.47,2.08-4.36-.88,1.48-1.66,2.79-2.44,4.1Zm-6.84-12.29l.46,.02c.23-.72,.55-1.43,.63-2.17,.03-.3-.47-.65-.72-.98-.25,.27-.72,.55-.72,.81,.01,.78,.22,1.55,.35,2.32Z"/>
      <path d="M16.73,94.34c1.59,3.04,3.15,6.1,4.78,9.11,.8,1.47,2.29,2.03,3.81,2.33,1.96,.38,3.96,.55,5.93,.92,1.15,.22,1.29-.67,1.69-1.29,.7-1.07,1.68-1.42,2.89-1.21,1.34,.23,2.36,.89,2.77,2.24,.34,1.11,.1,2.12-.74,2.95-1.26,1.24-3.5,1.07-4.73-.37-1.44-1.68-1.52-1.71-4.02-1.33,1.49,1.66,2.96,3.3,4.53,5.05,1.27-.52,2.52-.23,3.64,.86,1.22,1.18,1.43,2.28,.53,3.58-.98,1.4-2.64,1.87-4.05,1.14-1.38-.71-2.15-2.2-1.48-3.49,.61-1.17,.28-1.97-.52-2.67-1.88-1.64-3.79-3.26-5.78-4.78-.62-.47-1.51-.57-2.57-.94,1,2.82,1.79,5.32,2.79,7.74,.31,.75,1.24,1.22,1.84,1.86,1.21,1.28,1.56,2.85,.93,4.07-.57,1.11-2.03,1.69-3.65,1.44-1.65-.25-3.03-1.4-3.32-2.79-.26-1.25,.37-2.14,1.22-2.94,1.83-1.72,1.93-1.81,.8-4.04-2.19-4.36-4.5-8.67-6.76-12.99-.15-.28-.37-.51-.85-1.16-.13,.92-.32,1.47-.26,1.99,.28,2.78,.53,5.57,1,8.32,.21,1.25,.88,2.42,1.39,3.61,.53,1.26,.21,2.29-.78,3.12-1.05,.87-2.24,.9-3.39,.23-1.08-.64-1.57-1.7-1.12-2.86,.28-.72,.9-1.46,1.57-1.85,1.19-.68,1.38-1.55,1.15-2.76-.32-1.66-.53-3.35-1.12-5.08-.37,.78-.7,1.58-1.12,2.34-1.13,2.03-2.34,4.02-3.42,6.08-.25,.47-.2,1.16-.13,1.72,.08,.72,.46,1.43,.46,2.14,0,1.49-1.14,2.87-2.46,3.21-1.3,.33-2.74-.22-3.57-1.36-.84-1.17-1.03-3.28-.12-4.18,.6-.59,1.57-.82,2.38-1.18,.73-.32,1.79-.4,2.16-.95,1.25-1.83,2.25-3.83,3.35-5.77-.08-.11-.15-.22-.23-.33-1.65,.63-3.33,1.21-4.94,1.93-.31,.14-.39,.8-.56,1.22-.52,1.26-1.3,2.17-2.79,2.1-1.15-.05-2.22-1.11-2.53-2.45-.3-1.28,.31-2.52,1.6-3.27,1.26-.73,2.4-.58,3.47,.3,.34,.28,1.01,.48,1.39,.34,1.43-.53,2.88-1.1,4.19-1.87,3.22-1.89,4.24-5.87,2.54-9.17-1.22-2.35-2.35-4.75-3.53-7.12-.16-.32-.35-.62-.63-1.1-.34,.54-.58,.91-.81,1.29-.85,1.39-1.61,2.84-2.57,4.15-.85,1.17-1.63,2.15-1.36,3.82,.27,1.64-1.35,2.93-2.94,2.75-1.71-.19-2.94-1.92-2.61-3.65,.36-1.88,2.14-3.04,3.94-2.44,.81,.27,1.27,.04,1.64-.56,1.32-2.13,2.68-4.25,3.88-6.46,.31-.57,.25-1.46,.12-2.16-1.19-6.53-1.03-12.97,1.05-19.31,.34-1.05,.99-1.99,1.49-2.98,.17,.07,.35,.13,.52,.2-.08,.36-.15,.71-.23,1.07-.67,3.27-1.38,6.53-1.99,9.81-.08,.45,.2,1.09,.51,1.48,1.32,1.66,3.1,2.64,5.16,3.1,.54,.12,1.12,.13,1.65,.3,1.68,.54,2.96,.14,4.14-1.25,1.12-1.32,2.52-1.22,3.6-.05,1.11,1.2,.93,3.03-.41,4.23-1.2,1.07-2.79,1.08-3.64-.26-.81-1.29-1.83-1.56-3.21-1.61-2.79-.1-5.45-.67-7.73-2.76,.05,.41-.02,.87,.15,1.22,1.74,3.51,4.57,5.95,7.93,7.8,.36,.2,1.1-.18,1.61-.41,1.93-.88,3.82-.33,4.63,1.42,.58,1.26,.44,2.47-.47,3.52-.84,.97-1.95,1.26-3.17,.92-1.38-.38-2.34-1.3-2.41-2.75-.04-1.01-.58-1.39-1.27-1.92-2.28-1.74-4.48-3.58-6.82-5.48,0,.41-.06,.92,0,1.42,.52,3.69,1.84,7.1,3.7,10.31,.92,1.59,2.25,2.7,4,3.3,2.07,.71,4.12,1.48,6.2,2.13,.41,.13,1.08,0,1.42-.28,1.39-1.14,2.44-1.34,3.79-.53,1.27,.76,1.85,2.14,1.45,3.46-.37,1.24-1.44,1.97-2.89,1.97-1.66,0-2.49-.65-3.02-2.32-.1-.32-.31-.75-.58-.84-2.57-.92-5.16-1.77-7.75-2.65l-.37,.36Z"/>
      <path d="M130.6,52.15c0-1.8,.11-3.24-.02-4.66-.2-2.14-.75-2.47-2.79-1.94-.58,.15-1.14,.4-1.71,.6-.81,.29-1.23,.67-1.13,1.71,.18,1.79-1.24,3.2-2.95,3.17-1.59-.03-2.97-1.37-2.9-2.8,.07-1.35,1.56-2.65,3.11-2.31,2.34,.51,3.78-1.06,5.89-1.96-2.38-.93-4.48-1.16-6.62-.78-.38,.07-.82,.64-.95,1.07-.49,1.67-1.78,2.63-3.28,2.3-1.56-.34-2.84-2.51-2.55-4.32,.22-1.37,1.63-2.37,3.14-2.07,.6,.12,1.3,.44,1.66,.9,.61,.79,1.3,.86,2.18,.84,1.9-.05,3.8-.02,5.87-.02-1.2-1.52-2.56-2.92-4.35-3.82-.31-.15-.96,.11-1.32,.37-1.31,.93-2.87,.86-4.07-.27-1.03-.96-1.22-2.42-.45-3.55,.79-1.17,2.35-1.44,3.88-.68,.86,.43,1.65,.89,1.58,2.05-.01,.24,.12,.59,.3,.73,1.98,1.5,3.99,2.97,6.05,4.48-.6-3.24-2.16-6-4.12-8.57-.18-.24-.73-.28-1.11-.27-2.14,.06-3.32-.83-3.4-2.61-.09-1.86,1.25-3.55,2.92-3.66,1.65-.11,3.15,1.42,3.25,3.33,.02,.32,.09,.73-.07,.96-1,1.45,.13,2.34,.73,3.45,.97,1.79,1.8,3.66,2.62,5.52,.35,.79,.55,1.65,1.14,2.49,.28-.85,.69-1.69,.82-2.57,.31-2.16,.51-4.33,.7-6.5,.1-1.17-.28-1.92-1.6-2.3-1.64-.47-2.27-2.04-1.74-3.57,.54-1.58,2.13-2.48,3.63-2.06,1.94,.54,2.77,3.43,1.5,5.1-.32,.42-.73,.91-.76,1.39-.21,3.32-.33,6.64-.48,9.92,.12-.14,.5-.43,.72-.82,1.16-1.96,2.29-3.93,3.42-5.91,.43-.75,.42-1.37-.24-2.11-1.11-1.24-.76-3.2,.59-4.17,1.26-.9,2.8-.51,3.69,.94,.94,1.54,.53,3.27-.86,4.15-.62,.39-1.17,.99-1.59,1.6-1.8,2.65-3.25,5.6-5.4,7.91-1.46,1.57-1.93,2.83-1.44,4.79,.38,1.51,.3,3.06-1.51,4.51Z"/>
      <path d="M16.36,51.93c-.31-.92-.69-1.82-.9-2.77-.12-.52-.1-1.15,.07-1.66,.64-1.92-.02-3.14-1.4-4.66-2.12-2.35-3.61-5.26-5.41-7.9-.42-.62-.96-1.22-1.58-1.62-1.39-.88-1.82-2.61-.88-4.14,.89-1.45,2.42-1.85,3.69-.95,1.36,.98,1.74,2.95,.61,4.16-.68,.73-.68,1.35-.26,2.1,1.33,2.37,2.67,4.73,4.01,7.1,.19-.08,.38-.16,.57-.24-.13-.63-.32-1.26-.39-1.9-.22-2.12-.48-4.25-.56-6.38-.05-1.24,.16-2.35-.85-3.46-1.11-1.22-.28-3.85,1.19-4.6,1.43-.73,3.24-.02,3.95,1.55,.77,1.7,.09,3.4-1.79,4-1.04,.33-1.36,.84-1.39,1.86-.08,3.23,.21,6.38,1.69,9.75,.31-.96,.45-1.58,.71-2.14,1.16-2.42,2.39-4.8,3.52-7.23,.24-.51,.26-1.15,.26-1.73,0-.68-.29-1.39-.19-2.05,.19-1.3,.85-2.37,2.19-2.82,1.13-.37,2.14-.06,2.92,.81,.97,1.09,1.3,2.39,.74,3.77-.53,1.31-1.68,1.73-2.98,1.53-.84-.13-1.29,.16-1.72,.8-1.67,2.48-3.15,5.03-3.73,8.46,.69-.64,1.1-1.04,1.53-1.41,.85-.72,1.68-1.47,2.57-2.13,1.07-.8,2.39-1.2,2.54-2.98,.1-1.2,2.94-1.9,4.26-1.27,1.36,.65,1.84,2.35,1.04,3.69-.88,1.5-3,2.22-4.19,1.16-1.29-1.14-2.17-.58-3.12,.27-1.02,.92-2.01,1.88-3.01,2.83,.06,.12,.11,.24,.17,.35,1.25-.08,2.51-.17,3.76-.23,.74-.03,1.51,.11,2.23,0,.62-.1,1.32-.32,1.77-.73,1.15-1.04,2.5-1.37,3.68-.68,1.22,.71,1.61,1.95,1.11,3.52-.55,1.72-1.65,2.68-3.02,2.62-1.39-.06-2.11-.8-2.65-2.58-.1-.33-.45-.76-.75-.81-2.23-.43-4.4-.2-6.82,.78,2.14,.8,3.55,2.46,5.92,1.93,1.56-.35,3.04,.96,3.11,2.32,.08,1.36-1.23,2.66-2.79,2.78-1.51,.11-2.9-1.08-3.1-2.62-.08-.64-.07-1.67-.41-1.83-1.29-.58-2.7-.92-4.09-1.23-.19-.04-.69,.51-.75,.85-.23,1.22-.36,2.47-.47,3.71-.06,.63-.01,1.26-.01,1.9-.19,.05-.39,.1-.58,.15Z"/>
      <path d="M75.77,38.33c-1.54,.25-2.64,2.72-4.51,.87-2.74,2.56-2.93,2.59-4.99,1.05-1.2,.45-2.27,1.09-3.4,1.22-1.69,.2-2.59-.71-2.19-2.34,.43-1.76,1.12-3.54,2.07-5.08,.89-1.45,2.49-1.27,3.52,.08-2.02,1.35-2.07,3.54-2.63,5.51,.16,.09,.32,.19,.49,.28,.75-1.12,1.55-2.22,2.24-3.38,.31-.51,.31-1.21,.65-1.68,.27-.38,.84-.54,1.27-.8,.15,.44,.44,.89,.43,1.33-.04,1.31-.2,2.62-.14,3.99,1.27-.85,2.32-1.76,2.69-3.25,.14-.59,.16-1.26,.49-1.73,.33-.48,.97-1.03,1.48-1.03,.84,0,1.02,.76,.91,1.55-.13,.88-.19,1.77-.3,2.81,1.58-.45,2.62-.99,2.53-2.59-.02-.27,0-.58,.11-.82,.25-.54,.57-1.05,.85-1.57,.59,.58,1.57,1.09,1.69,1.75,.27,1.48,.12,3.05,.14,4.58,0,.51,0,1.01,0,1.66,2.02-.26,3.4-1.43,4.65-2.83,.35,1.05,.09,1.92-1.04,2.63-.98,.61-2.13,.94-3.12,1.53-.53,.32-1.02,.85-1.33,1.39-1.14,2.06-2.06,4.25-3.33,6.23-.97,1.53-4.73,2.41-6.45,1.82-1.48-.51-1.95-1.76-1.14-3.26,1.34-2.47,3.47-4.1,5.95-5.29,2.25-1.08,2.76-2.02,2.41-4.65Zm-.79,5.24c-2.75,1.12-4.83,2.55-6.21,4.86-.23,.38-.19,.92-.28,1.39,.52,.1,1.05,.29,1.57,.26,.39-.02,.8-.25,1.14-.48,2-1.39,3.07-3.37,3.79-6.03Z"/>
      <path d="M47,37.78c-1.23-1.28-1.15-2.76-.65-4.13,1.29-3.55,3.76-5.95,7.45-6.94,3.65-.98,6.99,1.39,7.16,5.15,.18,3.93-1.13,7.41-3.6,10.45-1.48,1.81-3.59,2.45-5.73,2.9-.51,.11-1.44-.21-1.65-.61-.26-.5-.22-1.6,.14-1.88,1.79-1.42,1.12-3.1,.8-4.81-.3-1.6-.49-3.22-.7-4.83-.05-.41-.11-.88,.04-1.24,.17-.41,.57-.72,.88-1.07,.32,.33,.85,.62,.93,1,.59,2.73,1.08,5.47,1.62,8.21,.09,.44,.24,.86,.46,1.6,2.64-3.29,4.64-6.55,4.51-10.64-.08-2.69-2.03-3.86-4.71-3.12-4.22,1.17-6.95,4.88-6.85,9.31,0,.22-.06,.45-.1,.67Z"/>
      <path d="M106.36,8.3c-.67,.33-1.09,.72-1.36,.63-.32-.11-.71-.63-.7-.96,0-.27,.6-.79,.84-.74,.37,.08,.66,.54,1.22,1.07Z"/>
      <path d="M91.75,4.7c.18,.41,.5,.81,.5,1.22,0,.23-.55,.71-.75,.66-.35-.09-.68-.46-.87-.8-.07-.12,.33-.49,.51-.75,.2-.11,.4-.23,.6-.34Z"/>
      <path d="M39.65,50.63c.38,.82,.82,1.32,.7,1.6-.21,.52-.73,.92-1.12,1.37-.31-.4-.91-.85-.85-1.17,.1-.52,.64-.96,1.27-1.8Z"/>
    </g>
  </g>
</svg>