<?xml version="1.0" encoding="UTF-8"?>
<svg id="_图层_2" data-name="图层 2" xmlns="http://www.w3.org/2000/svg" viewBox="0 0 175.39 59.18">
  <defs>
    <style>
      .cls-1 {
        fill-rule: evenodd;
      }
    </style>
  </defs>
  <g id="_图层_2-2" data-name=" 图层 2">
    <path class="cls-1" d="M172.74,17.97c-1.01-2.22-2.09-2.58-5.01-2.65-2.01-3.8-3.38-4.6-9.19-4.6-5.67-3.8-2.92-3.06-12.25-3.06-3.38-2.26-9.6-5.04-15.32-2.3-1.51-2.07-4.11-3.06-7.66-3.06h-3.83c-2.34,0-3.09,.74-4.6,1.53-2.53-1.69-4.93-3.06-9.19-3.06-2.69,0-6.6,1.33-8.42,2.3-1.97-1.32-5.25-3.06-8.42-3.06-5.15,0-7.64,1-10.72,3.06-1.99-.95-6.26-2.3-9.19-2.3-3.73,0-5.82,1.91-8.1,2.53-1.55,.42-4.68-1-7.99-1h-2.3c-2.9,0-5.11,1.87-6.89,3.06-1.21-.58-1.1-.77-3.06-.77h-2.3c-4.15,0-5.96,.65-8.42,2.3-8.93,0-7.73,.29-13.02,3.83-7.47,0-6.59,2.24-10.84,4.48-2.42,1.27-6.01,6.66-6.01,8.54v.77c0,2.97,4.25,7.63,6.99,9.09,4.37,2.33,2.8,4.7,10.62,4.7l5.83,3.67c1.59,4.96,2.36,7.29,8.72,7.82l-1.7-6.85c5.93,4.18-3.26,6.62,10.89,9.91l-1.51-7.66h1.51s1.64,8.41,1.64,8.41l7.6,1.34-.95-7.43,2.84,8.3,7.25,.92-.97-9.99,2.57,10.69,7.57,.92-.94-9.31,1.73-.02v9.19l8.4,.97c.02-5.31-2.09-10.35,.79-12.46v12.25h8.42v-9.19h.77v9.19h8.42v-11.49h1.53v11.49l7.64-.91,.02-9.05h1.53v2.3l-.86,6.88,7.73-.89,1.67-10.56,1.42-.02-1.65,9.94c13.77-.29,4.53-6.89,10.84-9.17l-1.6,7.65,7.69-1.66,1.8-8.23,1.3-.06-1.78,7.6c14.68-3.3,5.13-6.24,11.74-10.66l-2.3,7.66c10.29-.86,3.06-7.59,18.09-11.78,2.91-.81,6.22-3.51,9.21-5.34,1.76-1.07,4.87-7.4,4.87-9.68,0-.75-1.93-3.43-2.65-5.01Zm-1.18,1.18c-8.58,0-9.38-.84-15.32,2.3l-2.3-2.3c1.78-1.19,4-3.06,6.89-3.06h3.83c3.74,0,5.38,.81,6.89,3.06Zm-12.25-6.89c3.18,0,4.79,.47,6.13,2.3-9.4,0-11.04,3.83-13.79,3.83-.02,0-2.6-1.24-3.83-1.53,.66-2.45,3.82-4.6,6.89-4.6h4.6Zm-9.19-3.83h.77c2.84,0,3.46,.75,4.6,2.3l-9.65,4.55,.48,.74-7.68-2.22c1.09-4.08,6.4-5.36,11.49-5.36Zm-15.32-2.3h4.6c2.07,0,2.11,.37,3.83,.77v1.53l-6.91,4.57-9.17-1.51c.1-4.52,3.13-5.36,7.66-5.36Zm-15.32-2.3h5.36c2.84,0,3.46,.75,4.6,2.3l-.62-.52-3.84,4.59,.61,.66-13.01-.9c.09-4.17,2.93-6.13,6.89-6.13Zm-13.02-1.53h1.53c2.78,0,2.69,.91,5.36,1.53v1.53l-.71-.36-2,3.98-14.9-1.32c1.12-4.18,5.5-5.36,10.72-5.36Zm-18.38-.77h.77c3.66,0,4.76,.87,6.89,2.3-1,2.02-.77-.63-.77,2.3v2.3h-14.55l-.77-5.36c2.89-.67,4.79-1.53,8.42-1.53ZM50.55,3.83h2.3c5.43,0,9.84,.73,9.96,6.13l-13.01,.85-3.84-5.44c1.38-.82,2.44-1.53,4.6-1.53Zm-14.55,2.3h5.36c3.56,0,6.6,1.87,6.89,5.36l-10.72,1.55,.53-.67-5.46-4.48-.44-.99c.93-.36,2.62-.77,3.83-.77Zm-9.96,2.3c5.59,0,6.56,2.16,9.96,3.06v2.3c-4.59,.1-3.34,1.53-6.89,1.53-.5,0-4.54-4.47-9.96-4.6,1.71-1.48,3.67-2.3,6.89-2.3Zm-11.49,3.83h3.83c4.15,0,7.53,1.23,8.42,4.6-2.1,.49-3.11,1.53-4.6,1.53-.16,0-3.7-3.83-12.25-3.83,1.1-1.58,1.9-2.3,4.6-2.3ZM3.83,17.62c2.65-.63,2.62-1.53,5.36-1.53h3.83c2.97,0,7.66,1.02,7.66,3.83,0,3.07-5.44-.77-9.19-.77H3.83v-1.53Zm-2.3,6.13c0-2.96,5.41-3.83,8.42-3.83,3.81,0,6.85,1.48,8.42,3.83l-6.88-.86c-4.26-.54-9.97,5.63-9.97,.86Zm5.36,8.42l-2.9-1.8-.17-2.03c0-2.81,4.68-3.83,7.66-3.83,3.42,0,6.22,.33,7.66,2.3-8.32,0-7.79,2.37-12.25,5.36Zm9.96,5.36c-2.45-1.18-7.66-1.47-7.66-5.36,0-1.61,4.62-3.83,6.89-3.83h2.3c3.29,0,4.15,.89,6.89,1.53-3.94,2.74-7.92,1.56-8.42,7.66Zm12.25,3.06h-3.06c-3.45,0-7.66-1.45-7.66-4.6,0-1.61,4.62-3.83,6.89-3.83h3.06c3.18,0,4.79,.47,6.13,2.3-3.5,.81-5.27,1.91-5.36,6.13Zm14.55,3.06h-6.89c-2.34,0-6.13-1.44-6.13-3.83,0-3.15,4.21-4.6,7.66-4.6h3.83c2.34,0,3.09,.74,4.6,1.53-1.15,1.72-3.06,2.69-3.06,4.6v2.3Zm13.79,2.3h-6.13c-2.63,0-6.89-1.99-6.89-4.6,0-2.12,5.58-3.83,8.42-3.83h2.3c2.78,0,4.27,.64,6.13,1.53-.5,1.88-1.56,6.89-3.83,6.89Zm19.72-.03c-1.31,.83-2.06,1.56-4.4,1.56h-5.36c-2.34,0-6.13-1.44-6.13-3.83v-.77c0-2.39,3.79-3.83,6.13-3.83h3.83c3.29,0,4.15,.89,6.89,1.53l-.96,5.33Zm-12.82-36.64l-2.3-5.45c2.74-.64,3.6-1.53,6.89-1.53h2.3c3.91,0,7.57,1.93,7.66,6.13l-14.55,.86Zm22.97,38.97c-3.02,0-8.42-1.47-8.42-4.6s3.79-3.83,6.89-3.83h3.83c4.3,0,5.93,1.25,7.66,3.83-1.98,2.96-5.05,4.6-9.96,4.6Zm26.81-4.6c0,2.81-4.68,3.83-7.66,3.83h-2.3c-6.61,0-5.7-1.76-6.89-6.89,2.74-.64,3.6-1.53,6.89-1.53h3.83c2.34,0,6.13,1.44,6.13,3.83v.77Zm8.42,2.3h-4.6c-2.27,0-3.33-5.01-3.83-6.89,1.97-.94,4.67-1.53,7.66-1.53h.77c3.33,0,8.42,1.47,8.42,4.6,0,2.12-5.58,3.83-8.42,3.83Zm22.21-6.13c0,2.81-4.68,3.83-7.66,3.83h-5.36v-2.3c0-1.9-1.91-2.88-3.06-4.6,1.8-.89,3.41-1.53,6.13-1.53h2.3c4.59,0,4.57,1.47,7.66,2.3v2.3Zm5.36,.77h-3.83c-.09-4.22-1.86-5.31-5.36-6.13,1.44-1.97,4.24-2.3,7.66-2.3h2.3c2.8,0,6.13,2.11,6.13,4.59,0,1.61-4.62,3.83-6.89,3.83Zm8.42-3.83c-.46-5.55-5.32-4.2-8.42-6.89,2.85-.66,5.72-1.53,9.19-1.53,2.22,0,6.89,1.92,6.89,4.6,0,2.25-4.68,3.76-7.66,3.83Zm9.96-4.59c-.56,0-2.92-5.36-13.02-5.36,1.94-1.69,4.78-2.3,8.42-2.3,2.97,0,7.66,1.02,7.66,3.83,0,1.59-2.24,3.83-3.06,3.83Zm-5.36-9.19l-6.1,.96-.03-1.72c3.3-.77,4.2-2.3,8.42-2.3,3.33,0,8.42,1.47,8.42,4.6s-6.46-2.21-10.72-1.53Z"/>
  </g>
</svg>