<?xml version="1.0" encoding="UTF-8"?>
<svg id="_图层_2" data-name="图层 2" xmlns="http://www.w3.org/2000/svg" viewBox="0 0 156.5 158.43">
  <g id="_图层_2-2" data-name=" 图层 2">
    <g>
      <path d="M51.64,23.19c-1.21,.87-2.28,1.92-3.61,3.05,1.92,1.2,3.52,2.2,5.14,3.21-1.29,1.53-2.45,2.7-3.37,4.04-1.07,1.56-.93,2.34,.67,3.38,1.25,.81,2.68,1.33,4.18,2.05-.49,.55-1.07,1.03-1.42,1.63-.91,1.53-1.79,3.09-2.54,4.7-.45,.96-.12,1.74,1.05,1.99,1.98,.42,3.93,.94,5.92,1.28,1.16,.2,1.82,.54,1.76,1.89-.06,1.29,.11,2.58,.19,3.87,.12,1.89,.64,2.32,2.46,1.68,1.85-.65,3.63-1.49,5.65-2.34,.27,.55,.46,1.01,.7,1.45,.64,1.19,1.18,2.44,1.96,3.53,1.14,1.58,1.98,1.72,3.54,.61,1.75-1.26,3.4-2.67,5.22-4.12,1.29,.89,2.79,2.08,4.43,3.04,2.29,1.34,3.09,1.1,3.83-1.4,.76-2.62,2.02-3.88,4.97-3.6,2.45,.23,4.84-.57,6.86-1.97-.31-1.28-.55-2.37-.83-3.46-.34-1.35-.01-2.13,1.55-2.24,1.17-.08,2.32-.44,3.49-.6,1.42-.19,1.66-1,1.17-2.16-.45-1.07-.98-2.11-1.51-3.24,1.23-.69,2.35-1.31,3.46-1.95,1.42-.81,2.06-1.93,1.14-3.47-1.13-1.9-2.35-3.75-3.48-5.55,.8-1.58,1.77-3.22,2.5-4.97,.68-1.63,.2-2.23-1.58-2.44-1.31-.15-2.62-.33-3.8-.48,.33-2.24,.71-4.17,.87-6.11,.16-1.94-.35-2.4-2.32-2.37-1.61,.02-3.22,.16-4.81,.24,0-1.68,.18-3.21-.04-4.68-.35-2.28-1.34-2.88-3.57-2.23-1.48,.43-2.87,1.16-4.36,1.78-.66-1.78-1.26-3.52-1.96-5.23-.71-1.72-1.63-2.08-3.11-.94-1.27,.97-2.29,2.28-3.41,3.45-.47,.5-.89,1.04-1.35,1.58-.83-1.3-1.46-2.44-2.23-3.47-2.81-3.72-4.58-3.49-6.56,.82-.51,1.11-.91,2.26-1.34,3.33-2.72-.6-5.26-1.16-8.04-1.77-.13,1.74-.27,3.13-.34,4.52-.13,2.31-.11,2.28-2.35,2.31-1.18,.01-2.38,0-3.53,.23-2.26,.46-2.86,1.66-2.07,3.83,.54,1.48,1.01,3,1.73,4.39,.71,1.38,.24,2.11-.87,2.91Zm48.71-.55c.22-.27,.8-.36,1.2-.33,1.22,.07,2.44,.24,3.78,.38-.26,1.92-1.19,3.4-2.5,4.66-.18,.17-.51,.3-.75,.26-1.58-.21-3.16-.46-4.9-.72,1.12-1.51,2.1-2.92,3.17-4.24Zm2.47,20.6c-.71,.21-1.43,.45-2.17,.63-.76,.18-1.53,.3-2.4,.46-.83-1.53-1.66-3.06-2.51-4.65,5.27-.14,6.41,.42,7.08,3.55ZM92.57,6.87c.33,.06,.66,.54,.83,.9,.87,1.9-.39,5.67-2.21,6.71-.99,.57-3.52-.92-3.69-2.2-.05-.38,0-.78,0-1.17-.02-1.91,3.13-4.58,5.08-4.24Zm-11.21,42.71c.31-.11,.66-.15,.96-.28,1.49-.61,2.15-.11,3.27,1.19,1.91,2.22,1.06,3.99,.22,6.01-.06,.15-.19,.27-.4,.55-2.28-.6-3.98-1.92-5.35-3.67-.7-.9,.2-3.4,1.29-3.8ZM69.76,4.62c.46-1.11,1.13-2.14,2.02-3.78,1.41,2.1,2.68,3.72,3.6,5.51,.41,.8,.3,2.77,.08,2.82-1.33,.32-3.01,.76-4.1,.22-2.72-1.35-2.77-1.95-1.61-4.77Zm-15.42,32.38c-1.26-.39-2.37-1.27-3.54-1.93,.72-1.04,1.36-2.14,2.18-3.09,.68-.78,1.4-1.42,2.72-.69,2.14,1.18,2.21,1.06,2.22,2.99,.01,2.26-1.34,3.4-3.58,2.71Zm9.19,10.46c1-.58,1.82-.68,2.77,.02,1.29,.95,1.18,4.42-.22,5.14-.8,.41-1.62,.76-2.45,1.1-2.08,.84-2.38,.64-2.49-1.65-.02-.34,0-.67,0-1.19-.66-2,.97-2.58,2.4-3.41Zm-11.25-31.99c-.46-1.04-.15-1.72,.9-1.83,1.44-.14,2.9-.12,4.34-.02,.37,.03,.81,.53,1.04,.93,.76,1.28,1.45,2.61,2.41,4.37-.58,.27-1.18,.65-1.84,.83-1.18,.32-2.42,.42-3.58,.8-.85,.28-1.24,.06-1.53-.71-.55-1.47-1.1-2.94-1.73-4.37Z"/>
      <path d="M4.74,84.22c2.39,.16,4.89,.31,7.21-.19,7.94-1.7,13.58-6.72,18.06-13.22,6.1-8.86,9.63-18.91,13.33-28.88,.24-.66,.19-1.42,.27-2.14-.14-.05-.28-.09-.42-.14-1.31,1.01-2.61,2.02-3.98,3.08-.16-.34-.3-.49-.29-.63,.03-.45,.07-.9,.17-1.33,1.45-6.38,.81-12.52-2.23-18.35-.73-1.39-.38-2.62,.5-3.57,1.32-1.42,2.88-2.62,4.36-3.9,.34-.29,.75-.5,1.12-.75-.1-.16-.19-.32-.29-.48-2.54-.3-3.67,2.11-5.88,3.59,.79-2.32,1.43-4.19,2.07-6.05-.17-.08-.33-.16-.5-.24-.97,1.79-1.93,3.58-2.9,5.37-.1-.03-.2-.07-.3-.1v-5.18c-.2,0-.39-.02-.59-.02-.25,1.87-.5,3.74-.79,5.96-.89-1.87-1.59-3.35-2.3-4.83-.13,.06-.27,.12-.4,.18,.27,1.94,.51,3.89,.82,5.83,.15,.95-.08,1.36-1.11,1.63-3.63,.97-7.09,2.36-9.35,5.59-2.32,3.31-4.55,6.69-6.79,10.05-.55,.83-1.02,1.72-1.75,2.96-.68-1.95-1.11-3.46-1.73-4.89-.31-.71-.95-1.28-1.44-1.91-.57,.58-1.14,1.15-1.69,1.75-.15,.16-.23,.39-.3,.6-1.81,5.14-3.82,10.22-5.37,15.43-3.28,11-2.96,22,.74,32.87,.26,.78,1.11,1.88,1.74,1.92Zm7.17-5.75c5.14-10.87,13.47-19.04,22.44-26.66-6.57,9.66-13.38,19.11-22.44,26.66Zm6.09-27.37c-1.65-.57-2.11-1.39-1.6-2.8,.1-.26,.22-.52,.28-.8,.34-1.68,1.32-1.9,2.71-1.21,.35,.17,.7,.32,1.19,.54-.35,1.04-.55,1.93-.94,2.73-.33,.69-.17,2.04-1.64,1.54Zm-.96,5.29c-.21-1.38-.37-2.49-.55-3.68,1.97,.49,2.04,.95,.55,3.68Zm5.5-14.48c-.46,1.22-.8,2.1-1.31,3.43-1.14-.66-2.2-1.06-2.91-1.79-.23-.23,.37-1.89,.77-1.97,.98-.19,2.07,.16,3.44,.34Zm-2.6-2.76c.31-.76,.55-1.45,.87-2.11,.66-1.37,2.11-1.7,3.32-.74,.21,.17,.36,.54,.36,.81,0,.32-.19,.64-.31,.95-1.03,2.66-1.65,2.84-4.24,1.08Zm2.12,16.01c-1.05,.84-1.93,1.54-3.02,2.42,.72-3.45,.97-3.66,3.02-2.42Zm-.96-2.7c-.22-.23-.25-.83-.14-1.17,.41-1.21,.92-2.38,1.52-3.88,1.65,.7,3.06,1.31,4.64,1.98-.41,.94-.68,1.73-1.09,2.43-1.14,1.97-3.35,2.26-4.93,.63Zm1.86-6.81c.61-.92,1.26-2.41,1.62-2.35,1.42,.26,2.87,.86,4.05,1.69,.32,.22-.25,1.71-.46,2.89-1.94-.83-3.38-1.44-5.21-2.22Zm3.16-4.25c-.35-.09-.81-.91-.73-1.28,.2-.89,.69-1.72,1.14-2.73,1.21,.62,2.16,1.09,3.1,1.58,1.78,.92,2.18,2.34,.61,3.56-1.49,1.17-2.72-.78-4.12-1.13Zm5.14-3.58c-1.38-.46-2.58-1.46-3.85-2.25,.55-.75,1-2.04,1.66-2.15,1.69-.28,3.88,1.15,4.2,2.4-.68,.71-1.6,2.14-2,2Zm2.64,2.26c.74,.98,1.47,1.83,2.06,2.78,.3,.48,.63,1.5,.48,1.61-.69,.49-1.69,1.19-2.32,.99-2.68-.83-2.76-1.89-.21-5.38Zm-2.89,5.57c.78,.57,1.36,.99,2.14,1.56-1.16,.78-2.1,1.41-3.03,2.04-.16-.14-.31-.28-.47-.41,.42-.98,.84-1.96,1.36-3.19Zm6.34,7.08c-3.34,8.2-7.52,15.91-13.2,22.75-3.1,3.74-7.51,5.21-12.04,6.57,10.04-8.84,17.58-19.68,25.06-30.57,.13,.07,.26,.15,.39,.22-.07,.34-.08,.71-.21,1.03Zm-.06-11.23c-3.27-1.81-3.76-3.13-2.33-6.18,2.95,1.66,3.62,3.43,2.33,6.18Zm-.47-15.06c.13-.02,.27-.04,.4-.07,.15,.87,.3,1.74,.48,2.81-1.89-.71-.8-1.85-.88-2.74Zm-.55,4.31c2.22,.65,2.38,1.02,2.15,4.65-2.72-1.37-3.22-2.41-2.15-4.65Zm-2.2-8.9c1.68,1.02,1.87,3.14,.64,5.5-.5-.2-1.02-.38-1.51-.62-.45-.21-.87-.48-1.52-.86,.83-1.4,1.62-2.71,2.4-4.02Zm.16,7.58c.35,.68-.33,2.75-.68,2.78-1.33,.12-2.71-.34-4.07-.59-.08-.22-.16-.44-.24-.66,.75-1.08,1.31-2.45,2.33-3.1,.44-.28,2.24,.74,2.66,1.56Zm-2.82-7.64c-.23,2.85-1.55,4.04-3.89,3.36,1.09-2.68,2.25-3.66,3.89-3.36Zm-2.31,5.55c-.51,1.05-.96,1.97-1.49,3.05-.93-.47-1.69-.85-2.44-1.23,.93-2.38,1.3-2.56,3.93-1.82Zm-2.8,4.84c.22,.67-.18,2.11-.68,2.31-.85,.34-1.98-.04-2.99-.11l-.3-.63c.64-.9,1.15-1.96,1.98-2.61,.27-.21,1.81,.5,1.99,1.05Zm-2.02-5.52c-.41,1.47-1.25,1.89-2.71,1.33,.49-1.4,1.28-1.93,2.71-1.33Zm-2.26,3.67c-.8,2.91-1.38,3.29-3.95,2.65,1.25-3.17,2.46-4.05,3.95-2.65Zm-2.44,4.87c-.92,3.63-1.37,3.92-4.52,2.8,1.51-3.26,2.3-3.74,4.52-2.8Zm-5.67,5.31c.84-.52,2.12-.31,3.21-.41,.07,.21,.14,.42,.21,.63-.52,.78-.02,2.43-1.78,2.17-1.17-.17-2.28-1.99-1.64-2.38Zm-.73,4.76c.66,4.83,1.29,9.37,1.91,13.9,.16,1.15-.09,2.11-1.55,2.66-.13-.63-.35-1.24-.35-1.84-.03-4.81-.02-9.61-.02-14.72Zm17.52,6.61c-4.25,4.42-8.82,8.58-12.65,13.34-3.82,4.74-6.89,10.08-10.29,15.15-.17-.07-.35-.15-.52-.22,.74-4.23,2.57-8.11,4.61-11.86,2.43-4.47,16.21-16.29,18.85-16.41Zm-20.32-10.82c1.23,6.7,1.14,13.45,.78,20.21-.07,1.4-.14,2.82-.45,4.18-.22,.97-.85,1.85-1.29,2.77-.2-.05-.4-.11-.6-.16-.07-9.02,.69-18.01,1.55-26.99Zm-2.04-3.57c.37,1.57-2.01,37.34-2.55,38.44-3.01-9.12-1.36-33.92,2.55-38.44ZM2.07,70.72v-10.35c.09,0,.17-.02,.26-.03,.17,3.44,.34,6.88,.51,10.32-.26,.02-.51,.04-.77,.06Z"/>
      <path d="M152.69,44.09c-1.28-3.72-2.79-7.35-4.3-10.99-.24-.59-.99-.97-1.51-1.45-.47,.58-1.1,1.09-1.38,1.74-.65,1.52-1.13,3.12-1.79,5-.54-.87-.87-1.44-1.23-2-2.35-3.57-4.66-7.16-7.07-10.68-2.3-3.36-5.8-4.89-9.56-5.86-1.14-.3-1.29-.81-1.13-1.78,.31-1.92,.55-3.85,.82-5.78-.13-.05-.27-.1-.4-.16-.72,1.51-1.44,3.03-2.3,4.85-.31-2.19-.58-4.07-.85-5.95-.19,.01-.38,.03-.57,.04v5.24c-.09,.01-.18,.03-.27,.04-.96-1.77-1.92-3.53-2.88-5.3-.16,.09-.33,.18-.49,.26,.62,1.82,1.25,3.63,1.98,5.77-2.21-1.2-3.24-3.83-6.12-3.21,1.69,1.4,3.28,2.53,4.64,3.89,2.14,2.16,2.14,2.99,.89,5.68-2.19,4.7-3.02,9.61-2.15,14.77,.24,1.41,.42,2.82,.62,4.23-.13,.07-.27,.14-.4,.21-1.3-1.01-2.6-2.02-3.9-3.04-.18,.08-.37,.16-.55,.25,.19,.83,.29,1.68,.57,2.47,.78,2.23,1.64,4.43,2.46,6.65,2.94,7.94,6.25,15.73,11.27,22.59,5.85,8,13.18,13.53,23.83,12.77,1.28-.09,2.21-.41,2.53-1.72,.87-3.6,1.94-7.18,2.51-10.83,1.48-9.51-.16-18.73-3.26-27.73Zm-6.64-2.68c.14,0,.28-.01,.42-.02,.51,9.11,1.01,18.22,1.52,27.34-2.38-2.13-2.55-4.89-2.66-7.63-.25-6.58-.39-13.15,.72-19.68Zm-3.4-.92c.63,.38-.52,2.25-1.67,2.4-1.8,.24-1.19-1.48-1.79-2.22,.07-.2,.14-.4,.21-.6,1.11,.11,2.39-.1,3.25,.42Zm.7,7.67v14.34c-.2,.08-.39,.17-.59,.25-.44-.89-1.3-1.82-1.24-2.67,.28-4,.81-7.98,1.24-11.97,.19,.02,.39,.03,.58,.05Zm-5.12,2.95c-.16,.09-.96-.68-1.2-1.18-.46-.94-.72-1.97-1.11-3.08,.4-.2,.59-.35,.8-.39,.79-.15,2.08-.61,2.28-.32,.68,.96,1.26,2.19,1.28,3.33,0,.56-1.25,1.23-2.05,1.64Zm1.81,1.4c-.2,1.41-.35,2.47-.52,3.74-1.44-2.21-1.4-2.76,.52-3.74Zm-16.98-20.24c-.38-.03-1.18-2.04-.85-2.59,.58-.97,1.87-1.52,3.1-2.42,.73,1.48,1.28,2.61,2.08,4.24-1.69,.35-3.03,.85-4.32,.77Zm6.07,3.77c-.38,.26-.77,.57-1.19,.82-3.21,1.94-3.91,1.6-4.43-2.31,.76-.25,1.44-.48,2.12-.69,2.71-.85,2.84-.77,3.5,2.18Zm-6.12,4.4c.42,.73,.81,1.29,1.07,1.9,.33,.76,1.11,1.63-.07,2.32-1.11,.65-2.16,1.73-3.56,.33-.78-.78-.87-1.34-.06-2.07,.83-.75,1.62-1.53,2.62-2.47Zm2.47,5.18c.53,1.22,.97,2.23,1.4,3.24-.14,.13-.27,.26-.41,.39-.95-.62-1.9-1.25-3.07-2.01,.76-.59,1.29-1.01,2.07-1.61Zm.36-3.75c-.28-.81-1.18-1.73,.19-2.44,1.24-.64,2.48-1.3,3.98-2.08,.54,1.28,.98,2.35,1.5,3.6-1.41,.63-2.7,1.14-3.93,1.78-1.07,.56-1.47-.09-1.75-.86Zm1.91,3.27c1.24-.87,2.68-1.55,4.15-1.91,.33-.08,1.04,1.4,1.73,2.39-1.9,.82-3.33,1.44-5.09,2.2-.31-.99-1.02-2.51-.79-2.67Zm4.2-8.33c2.35-2,3.65-1.31,4.5,2.4-2.63,1.89-3.42,1.47-4.5-2.4Zm5.45,4.74c.39,.05,1.04,1.73,.83,1.96-.7,.74-1.74,1.15-2.87,1.82-.54-1.26-.9-2.12-1.42-3.34,1.31-.21,2.43-.58,3.47-.44Zm-7.59,8.4c.69-1.11,2.46-1.54,3.76-2.27,.72,1.38,1.71,2.71,1.99,4.18,.09,.46-1.72,1.29-2.26,1.66-1.82-.02-4.14-2.53-3.49-3.57Zm7.77,7.68c-1.2-.94-2.12-1.67-3.24-2.55q2.23-1.09,3.24,2.55Zm3.76-19.78c-2.48,1.54-3.22,1.11-4.44-2.68,2.43-.85,3.25-.33,4.44,2.68Zm-2.79-4.79c-2.91,.37-3.15,.2-4.04-2.73,1.56-1.59,2.91-.14,4.04,2.73Zm-3.64-5.25c-.11,.22-.23,.44-.34,.66-.82-.44-1.65-.88-2.47-1.32,1.62-1.21,2.29-.43,2.81,.66Zm-1.01,6.18c-2.67,1.36-2.84,1.34-3.58-.48-.51-1.26-.09-2,1.39-2.4,1.01-.28,1.68,.59,2.19,2.88Zm-2.82-5.68c.48,1.28-.66,1.39-1.32,1.69-1,.45-1.53-.27-2.1-2.69,2.03-.71,2.88-.46,3.42,1Zm-5.76-6.65c.42-.03,.99-.07,1.23,.18,.95,.95,1.79,2,2.9,3.28-2.48,.51-4.32-.88-4.43-2.78-.01-.23,.18-.66,.3-.67Zm-3.97,1.11c.12-.91,.88-1.21,1.51-.26,.7,1.06,1.3,2.18,2.03,3.43-1.17,.55-2.11,.99-3.59,1.68,0-1.86-.14-3.38,.05-4.85Zm-2.05,3.56c.31,.95,1.42,2.04-.5,2.9,.2-1.15,.35-2.02,.5-2.9Zm.94,4.45c1.14,2.02,.89,2.61-1.99,4.65-.63-2.94-.1-4.18,1.99-4.65Zm1.24,4.52c1.51,3.49,1.54,3.23-2.18,6.21-1.57-2.43-.68-4.16,2.18-6.21Zm22.69,46.77c-.6-.14-1.22-.24-1.81-.41-5.9-1.74-9.99-5.7-13.41-10.63-3.7-5.34-6.67-11.05-9.26-16.97-.22-.5-.24-1.09-.17-1.71,7.7,10.32,14.94,20.95,24.91,29.29-.09,.15-.18,.29-.26,.44Zm-22.12-30.44c6.91,4.35,20.03,19.92,22.7,26.91-9.33-7.47-15.99-17.22-22.7-26.91Zm26.71,28.82c-.44-.6-.89-1.19-1.31-1.8-3.49-5.16-6.67-10.57-10.55-15.41-3.17-3.96-7.19-7.25-10.82-10.84-.66-.65-1.3-1.33-1.95-1.99,.11-.12,.21-.25,.32-.37,1.92,1.4,3.92,2.71,5.75,4.22,3.49,2.89,6.96,5.81,10.3,8.86,3.33,3.04,5.53,6.86,6.92,11.15,.48,1.48,1.15,2.91,1.69,4.38,.17,.48,.18,1.01,.27,1.52l-.61,.28Zm3.03-13.22c-.28,2.99-.56,5.99-1.09,8.98-1.99-12.73-.91-25.65-2.9-38.37,.25-.05,.51-.11,.76-.16,.42,1.01,.94,1.99,1.24,3.03,2.56,8.69,2.8,17.57,1.98,26.51Zm1.83,6.52c.21-6.05,.41-11.98,.61-17.6,1.18,2.74,.82,14.99-.61,17.6Z"/>
      <path d="M109.85,87.83c.08,.65,.07,1.22,.24,1.72,.23,.71,.57,1.93,.91,1.94,.98,.04,2.08-.23,2.94-.72,.67-.39,1.05-1.28,1.55-1.97,.58-.81,1.15-1.63,1.72-2.43,1.33,.52,2.03,1.07,1.75,2.57-.17,.92,.17,2.01,.49,2.94,.53,1.52,1.68,1.7,2.84,.52,.49-.49,.93-1.03,1.61-1.8,0,.67-.07,.97,.02,1.21,.16,.43,.34,1.09,.65,1.18,.37,.1,.95-.21,1.29-.52,.45-.41,.68-1.05,1.14-1.46,.61-.54,1.34-.94,2.02-1.4,.15,.14,.3,.27,.45,.41-.33,.92-.88,1.83-.94,2.77-.07,1.1,.09,2.33,.59,3.27,.17,.31,1.68-.06,2.57-.16,.41-.05,.9-.38,1.21-.25,1.37,.56,2.69,1.23,4.13,1.92-.01,1.03-.68,1.51-1.89,1.62-3.6,.34-6.68,1.91-9.37,4.27-1.71,1.5-1.45,2.86,.64,3.62,2.88,1.04,5.44,.21,7.75-1.54,1.39-1.05,2.69-2.23,3.91-3.46,1.07-1.08,1.9-.91,2.83,.12,.45,.5,1,.91,1.51,1.36,.17-.12,.35-.24,.52-.37-.35-.69-.52-1.66-1.08-2-1.8-1.12-1.84-2.39-.76-3.98,.12-.18,.16-.42,.21-.64,.34-1.31-.07-1.82-1.44-1.67-.83,.09-1.65,.37-2.48,.46-.91,.09-2.02-.18-1.52-1.28,.47-1.02,1.57-1.81,2.52-2.51,.12-.09,1.06,.96,1.64,1.46,.11,.1,.28,.12,.62,.25,.43-1.54-.31-2.57-1.26-3.42-1.05-.93-2.42-1.35-3.54-.36-1.26,1.13-2.37,2.5-3.3,3.92-.53,.8-.83,1.39-2.05,.84,.7-1.42,1.43-2.75,1.99-4.14,.24-.6,.35-1.49,.07-1.99-.18-.32-1.2-.31-1.82-.23-1,.13-1.97,.43-2.52,.56-.52-1.12-.69-2.25-1.23-2.47-1.06-.43-1.52,.64-2.11,1.44-.79,1.06-1.88,1.89-2.84,2.83-.17-.12-.33-.23-.5-.35,.22-.91,.5-1.81,.64-2.73,.11-.77,.06-1.57,.08-2.36-.82,.16-1.64,.35-2.47,.48-.47,.08-.96,.07-1.66,.12,.48-1.03,.84-1.61,1.01-2.25,.1-.37-.11-.82-.18-1.23-.41,.1-1.03,.06-1.2,.31-.52,.76-.96,1.61-1.26,2.49-.63,1.84-1.81,3.18-3.38,4.61-.91-2.58,.5-5.16-1.26-7.64-2.16,2.1-2.3,5.54-5.37,6.96,.21-1.66,.37-3.09,.58-4.52,.14-.92,.11-1.64-1.03-1.94-1.23-.33-1.68,.41-1.96,1.3-.28,.91-.25,1.92-.59,2.8-.36,.95-.98,1.8-1.59,2.89-1.07-1.66-1.85-2.86-2.62-4.06-1.34,1.43-2.37,2.54-3.4,3.64-.22-.13-.45-.26-.67-.39,.5-1.48,1.01-2.97,1.6-4.72,.78,.74,1.15,1.09,1.52,1.44l.54-.26c-.3-.73-.41-1.88-.93-2.11-.78-.34-2.24-.42-2.71,.06-1.12,1.17-2.27,2.64-2.61,4.17-.46,2.07-1.84,2.72-3.38,3.59-1.02-2.12-1.88-4.09-.6-6.33,.34-.61,.37-1.4,.48-2.12,.18-1.16-.28-2.19-1.4-2.33-.78-.1-1.9,.33-2.43,.91-1.4,1.57-1.57,3.64-.63,5.38,1.1,2.03,.47,3.35-.94,4.7-.49,.47-.92,.99-1.38,1.48-2.19,2.32-3.06,2.21-4.64-.56-.16-.28-.24-.6-.39-.99,2.48-.84,3.4-2.6,3.2-4.99-.18-2.21-1.42-2.79-3.31-1.55-.86,.56-1.63,1.27-2.74,2.14,.3-.95,.57-1.52,.64-2.11,.4-3.5,.82-7.01,1.06-10.52,.05-.68-.7-1.41-1.07-2.12-.83,.49-1.92,.81-2.42,1.53-.64,.93-1.02,2.17-1.12,3.31-.33,4.09-.57,8.19-.69,12.29-.05,1.6-.72,2.58-2.31,3.6,.54-1.98,1.02-3.58,1.42-5.21,.46-1.88-.64-3.1-2.45-2.59-.87,.25-1.66,.9-2.4,1.46-.51,.39-.89,.95-1.09,1.16-.93-.42-1.65-1.03-2.22-.91-.48,.1-.98,1.01-1.12,1.64-.24,1.08-.27,2.23-.26,3.34,.02,1.89-1.32,3-2.22,4.4-.32-1.38-.32-2.67-.46-3.95-.05-.46-.53-1.28-.69-1.25-.6,.11-1.24,.4-1.66,.83-.3,.31-.21,.97-.42,1.42-.43,.93-.94,1.83-1.41,2.74-.21-.07-.42-.15-.63-.22,0-1.05,0-2.1,0-3.15,.02-2.73,.23-2.91,2.86-2.54,.17,.02,.37-.1,.67-.18-.8-1.48-1.97-1.57-3.23-1.23-2.54,.67-4.1,3.26-3.52,6.46,.31,1.72,.05,3.11-.91,4.43-.45,.62-1.08,1.11-1.63,1.66-.17-.78-.54-1.58-.47-2.34,.18-2.01,.55-4.01,.85-6.01,.21-1.37-.27-2.06-1.75-2.25-1.62-.21-2.55,.64-3.4,1.74-.86,1.11-1.64,2.28-2.46,3.43-.17-.06-.35-.12-.52-.18,.08-.97,.07-1.96,.27-2.91,.75-3.52,1.63-7.01,2.34-10.53,.55-2.77,.24-5.5-1.02-8.07-.75-1.54-1.65-1.7-2.61-.28-.77,1.12-1.56,2.5-1.61,3.8-.26,6-.61,12.04-.2,18.01,.19,2.8-.33,5.07-1.54,7.36-.28,.53-.88,1.06-1.44,1.22-.26,.07-.91-.7-1.14-1.2-1.98-4.22-3.19-8.69-3.47-13.32-.28-4.73-.78-3.98,3.72-5.42,1.2-.38,1.96-.85,1.62-2.19-.33-1.29-1.38-1.37-2.43-1.18-2.83,.5-5.3,1.78-7.53,3.6-1.08,.89-2.2,1.77-3.4,2.48-1.87,1.1-3.82,1.69-5.85,.22-.25-.18-.93-.19-1.03-.04-.2,.32-.35,.97-.16,1.19,.51,.63,1.16,1.52,1.83,1.59,1.61,.17,3.33,.19,4.89-.2,1.54-.38,2.94-1.33,4.61-2.13,.12,1.05,.19,1.87,.3,2.69,.71,5.3,1.84,10.43,5.73,14.49,1.81,1.88,3.27,1.74,4.52-.55,.58-1.05,1.04-2.17,1.69-3.57,.55,1.34,.87,2.42,1.42,3.36,.34,.58,1.03,.95,1.56,1.42,.18-.65,.49-1.3,.52-1.95,.09-2.13-.12-4.28,.15-6.38,.27-2.16,1.62-3.78,3.42-5.04,.16,.52,.09,.93,.04,1.35-.29,2.22-.63,4.44-.85,6.66-.16,1.7,.88,2.58,2.39,2.99,1.48,.41,2.51-.25,3.22-1.51,.44-.78,.78-1.62,1.23-2.4,.17-.3,.49-.62,.81-.71,1.19-.31,2.4-.52,3.78-.8,1.04,1.58,1.79,1.99,3.03,1.01,1.1-.87,1.94-2.07,2.75-2.96,.69,.15,1.67,.62,1.92,.36,.47-.48,.82-1.43,.69-2.08-.69-3.37,1.72-5.04,3.61-7.02-.11,.95-.5,1.82-.65,2.72-.23,1.37-.48,2.79-.34,4.14,.06,.59,1,1.37,1.66,1.52,.52,.12,1.27-.56,1.82-.99,.36-.28,.55-.76,1-1.42,.15,.67,.22,.97,.29,1.28,.34,1.47,.62,2.96,1.06,4.4,.11,.34,.74,.53,1.13,.79,.24-.4,.66-.78,.69-1.19,.11-1.29,.08-2.59,.09-3.88,0-1.05,0-2.11,0-3.16,.17-.03,.35-.05,.52-.08,.84,1.39,1.64,2.79,2.51,4.15,1.22,1.91,2.83,2.12,4.5,.61,.63-.57,1.23-1.16,1.79-1.79,.93-1.06,1.82-2.16,2.91-3.47,.42,1.79,.54,3.03-.65,4.34-1.35,1.48-2.4,3.24-3.49,4.94-.99,1.55-.18,3.21,1.63,3.53,2.35,.4,4.71-.66,5.49-2.94,.58-1.7,.74-3.62,.71-5.44-.04-2.44,.17-3.06,2.55-4.11,2.75,2.82,4.23,.11,5.9-1.65,.83,2.1,.49,3.68-.84,5.3-1.26,1.55-2.23,3.37-3.11,5.18-.27,.55-.04,1.64,.38,2.11,.34,.39,1.4,.49,1.97,.28,3.83-1.39,5.32-3.62,5.31-7.7,0-.84-.17-1.71-.04-2.53,.12-.78,.54-1.51,.96-2.6,.34,.63,.44,.77,.5,.93,.85,2.19,1.57,2.37,3.36,.83,.99-.86,1.98-1.71,3.08-2.67Zm16.12,17.26c2.82-2.43,5.63-4.2,9.23-4.64-1.08,3.01-6.37,5.8-9.23,4.64Zm-86.07-29.75c1.58,1.85,1.29,6.8-.86,12.72-.52-4.26-.28-8.49,.86-12.72Zm35.14-2.17c.97,2.16,.44,8.17-.88,10.69-.66-1.92-.1-9.4,.88-10.69Zm-1.25,16.1c1.54-1.9,2.69-3.63,4.93-4.48-.27,2.48-1.8,3.88-4.93,4.48Zm11.95,10.7c-.16,.43-1.22,.53-1.87,.78-.04-.58-.3-1.27-.07-1.72,.64-1.25,1.49-2.39,2.26-3.57,.22,.09,.44,.17,.66,.26-.3,1.42-.46,2.9-.97,4.24Zm1.26-15.4c-.17-.94-.45-1.88-.46-2.82,0-.37,.6-.74,.93-1.11,.3,.46,.88,.94,.85,1.37-.07,.85-.47,1.67-.74,2.51-.19,.02-.38,.04-.58,.05Zm8.83,15.51c-.14-.09-.29-.17-.43-.26,1-1.69,2.01-3.37,3.01-5.06,.57,2.65-.41,4.32-2.58,5.32Z"/>
      <path d="M150.61,130.83c-2.54-3.22-3.66-6.87-4.16-10.87-.24-1.92-.67-3.96-1.61-5.6-2.26-3.94-6.87-4.95-11.76-2.76-3.13,1.4-6.32,1.95-9.7,1.42-1.11-.17-2.22-.34-3.34-.49-3.32-.44-6.62-.62-9.8,.74-2.33,1-3.04,2.44-2.33,4.85,1.19,4.03,3.46,7.34,6.96,9.66,2.14,1.42,4.49,2.54,6.74,3.8,1.52,.84,1.65,1.27,.51,2.54-2.12,2.36-4.44,4.31-7.97,3.91-.55-.06-1.52,.29-1.65,.67-.16,.48,.21,1.3,.6,1.76,.59,.68,1.41,1.18,2.31,1.9-1.06,.68-1.95,1.25-2.85,1.81-1.86,1.16-3.77,2.24-5.57,3.49-1.3,.9-1.71,2.22-.93,3.71,1.38,2.64,3.27,4.83,5.83,6.42,1.35,.83,2.58,.73,3.66-.4,.97-1.01,1.88-2.09,2.78-3.17,1.18-1.42,2.33-2.88,3.59-4.43,.72,.43,1.24,.76,1.78,1.06,1.1,.6,2.14,.57,3.12-.3,.98-.87,1.11-1.91,.62-3.06-.2-.46-.4-.94-.71-1.34-.56-.73-.61-1.39,.02-2.1,1.34-1.51,2.66-3.05,3.98-4.57,.67-.77,1.29-.71,2.18-.21,2.35,1.3,4.71,2.69,7.22,3.59,3.92,1.41,7.66,.72,10.93-1.98,2-1.65,2.56-3.4,1.65-5.85-.54-1.46-1.16-2.98-2.11-4.19Zm-35.66,24.68c-.83,.96-1.89,1.13-2.81,.23-1.47-1.44-2.83-2.99-4.19-4.53-.68-.77-.58-1.55,.27-2.14,1.98-1.37,3.93-2.8,6-4.02,1.22-.72,3.82,.72,4.24,2.05,.28,.89,.75,1.71,1.25,2.82-1.5,1.76-3.11,3.7-4.76,5.6Zm10.84-6.1c-.5,.25-1.31,.07-1.93-.12-.98-.3-1.93-.71-2.86-1.16-.42-.2-.97-.57-1.04-.95-.34-1.79-1.32-2.92-3.34-3.29,.94-1.99,.37-3.28-1.49-4.12,.42,.02,.94-.11,1.23,.09,1.45,1.03,2.84,2.15,4.26,3.23,1.26,.95,2.55,1.86,3.78,2.85,.61,.49,1.26,1.06,1.58,1.74,.22,.48,.1,1.58-.2,1.73Zm-.97-6.1c-.74,.89-1.52,.61-2.18,0-1.33-1.24-2.58-2.55-3.79-3.75,1.88-1.69,3.9-3.53,6.18-5.58,1.44,1,3.05,2.12,4.8,3.33-1.8,2.15-3.41,4.07-5.01,6.01Zm26.28-4.75c-1.74,2.06-5.98,4.12-10.03,2.47-3.05-1.24-5.95-2.9-8.8-4.56-4.8-2.81-9.46-5.84-14.26-8.64-4.02-2.34-6.91-5.53-8.28-10-.19-.62-.11-1.33-.15-1.99,.22-.06,.45-.12,.67-.18-.33,3.49,1.75,4.8,4.57,5.49,.81,.2,1.57,.62,2.38,.85,1.76,.51,2.8,1.38,2.62,3.46-.12,1.37,.74,2.44,2.12,2.93,1.01,.35,2.1,.55,3.01,1.06,.94,.52,1.72,1.33,2.55,2.03,1.04,.87,1.94,2.04,3.13,2.58,2.51,1.14,5.08,2.06,6.94,4.3,.51,.62,1.54,1.06,2.35,1.11,1.67,.1,3.37-.05,5.04-.22,1.56-.16,2.64-1.03,3.41-2.45,.26-.48,1.06-.87,1.64-.91,.56-.04,1.56,.35,1.64,.71,.13,.59-.15,1.47-.56,1.96Z"/>
      <path d="M48.69,147c-1.78-1.17-3.68-2.17-5.51-3.28-.69-.42-1.33-.93-2.11-1.49,.83-.57,1.54-.87,1.97-1.4,.49-.61,.74-1.42,1.09-2.14-.69-.23-1.41-.74-2.05-.66-2.57,.34-4.45-.93-6.23-2.44-3.07-2.6-2.97-3.15,.72-4.76,.15-.07,.31-.13,.46-.21,5.47-2.74,9.9-6.45,11.62-12.64,.62-2.24,.11-3.81-2.06-4.48-2.32-.71-4.81-1.16-7.23-1.16-3.58,0-7.17,.82-10.73,.65-2.38-.12-4.69-1.43-7.07-2.06-5.82-1.57-10.22,1.29-11.2,7.18-.14,.83-.31,1.66-.4,2.5-.39,3.72-1.54,7.13-3.99,10.04-.43,.51-.74,1.13-1.06,1.72-2.82,5.08-1.6,8.39,3.86,10.46,.37,.14,.75,.25,1.13,.34,4.2,.99,7.86-.43,11.39-2.51,3.9-2.3,3.91-2.28,6.85,1.21,1.42,1.68,2.92,3.25,.96,5.63-.73,.89-.38,2.14,.61,3.03,.99,.89,2.02,.87,3.11,.29,.54-.29,1.06-.63,1.69-1.01,.44,.47,.87,.9,1.26,1.37,1.62,1.95,3.15,3.97,4.85,5.84,1.52,1.67,2.68,1.86,4.41,.42,1.79-1.49,3.44-3.23,4.82-5.11,1.68-2.28,1.28-3.76-1.14-5.35Zm-27.16-8.83c-2.54,1.46-5.38,2.58-8.23,3.24-3.01,.69-5.73-.66-7.89-2.86-.66-.67-1.28-1.62-.22-2.45,.9-.71,2.54-.31,2.99,.67,.71,1.54,1.91,2.34,3.54,2.49,1.56,.15,3.15,.33,4.7,.22,.88-.07,1.98-.49,2.51-1.14,1.67-2.01,3.85-3.07,6.2-3.9,1.81-.64,3.31-1.51,4.18-3.39,.31-.66,1.2-1.13,1.92-1.51,.74-.38,1.59-.54,2.39-.81,2.48-.82,2.91-1.52,3.22-4.11,.09-.77,.77-1.7,1.44-2.13,1.02-.65,2.27-.96,3.44-1.35,3.76-1.26,4.12-1.66,5.09-5.36,0,.69,.16,1.42-.03,2.05-1.2,3.98-3.61,7.09-7.14,9.27-6.01,3.73-11.98,7.54-18.12,11.06Zm5.18-.87c1.67-1.19,3.25-2.3,4.76-3.37,2.29,2.07,4.32,3.9,6.2,5.6-1.23,1.23-2.48,2.63-3.91,3.81-.4,.33-1.64,.3-1.97-.05-1.72-1.84-3.27-3.83-5.07-5.99Zm8.33,10.83c-.6,.36-1.29,.59-1.95,.84-.69,.26-1.38,.59-2.1,.65-.21,.02-.8-.87-.69-1.12,.36-.87,.81-1.82,1.5-2.4,.83-.7,2.05-.93,2.91-1.6,1.51-1.18,2.85-2.6,4.33-3.82,.62-.51,1.44-.78,2.17-1.16,.08,.19,.17,.38,.25,.57-1.56,.54-2.5,1.37-1.82,3.16,.07,.19-.38,.78-.69,.9-1.28,.48-1.9,1.38-2.31,2.67-.18,.56-1,.97-1.6,1.33Zm13.52,3.12c-1.38,1.52-2.73,3.08-4.21,4.51-.91,.88-1.95,.71-2.79-.27-1.61-1.87-3.2-3.75-4.68-5.47,.53-1.38,.95-2.4,1.3-3.44,.31-.92,3.2-2.11,4.17-1.52,2.01,1.22,3.94,2.57,5.86,3.92,.84,.59,1.13,1.4,.34,2.27Z"/>
      <path d="M95.1,116.78c-.01-1.7-.94-2.64-2.85-3.03-.24,1.12-.65,2.18-.66,3.25,0,1.98-1.32,2.44-3.2,3.09,.2-1.5,.48-2.69,.44-3.87-.02-.57-.55-1.43-1.03-1.58-.45-.14-1.36,.32-1.68,.79-.45,.66-.62,1.56-.78,2.38-.38,1.97-1.78,3.13-3.38,4.29-.15-1.36-.04-2.67,.02-3.98,.04-.92,.97-2.26-.48-2.61-1.53-.37-1.65,1.24-1.93,2.23-.57,2.04-1.89,3.46-3.54,4.71,.63-2.48,.55-5.27,3.1-6.92-1.18-1.61-2.99-1.82-4.29-.29-1.72,2.03-2.67,4.41-2.71,7.1-.02,1.36,.71,2.31,2,2.18,1.63-.16,3.21-.75,5.21-1.26,2.35,1.71,2.61,1.66,5.96-1.49,2.29,2.41,3.7-.9,5.71-1.04,.05,2.75-.3,4.86-3.42,5.96-3.03,1.07-5.49,3.3-7.04,6.27-1.17,2.24-.13,4.24,2.38,4.25,3.2,.02,6.33-.38,8.04-3.74,.56-1.1,1.47-2.08,1.77-3.24,.83-3.22,2.49-5.48,5.89-6.23,.5-.11,1.05-.53,1.34-.97,.54-.8,.91-1.72,1.48-2.84-2.28,1.48-4.15,2.69-6.36,4.12,0-2.96,.01-5.26,0-7.55Zm-9.63,17.68c-.48,.36-1.08,.71-1.65,.77-.61,.07-1.48,0-1.83-.38-.25-.27-.01-1.26,.29-1.76,1.7-2.8,4.23-4.57,7.65-5.87-.9,3.12-2.14,5.51-4.45,7.22Z"/>
      <path d="M72.49,112.11c-.26-3.38-3.16-5.92-6.44-6.03-5.35-.19-11.6,5.39-11.88,10.73-.06,1.11,.34,2.24,.53,3.35,.2-.02,.4-.04,.6-.06,.07-.24,.21-.49,.21-.73-.13-5.56,2.75-9.75,7.93-11.52,3.49-1.19,6.18,.27,6.29,3.72,.17,5.06-2.31,9.1-5.52,13.09-.24-.66-.42-1.01-.49-1.38-.68-3.47-1.31-6.96-2.06-10.42-.12-.56-.81-1-1.24-1.5-.36,.54-1.06,1.09-1.04,1.6,.12,2.35,.3,4.72,.74,7.03,.42,2.22,1.21,4.31-.99,6.14-.43,.36-.48,1.73-.14,2.27,.33,.52,1.55,.98,2.12,.77,2.13-.77,4.56-1.4,6.16-2.87,4.07-3.75,5.65-8.73,5.22-14.22Z"/>
      <path d="M124.74,81.39c-.72-.48-1.17-1-1.62-1.01-.31,0-.95,.81-.87,1.08,.13,.46,.68,.95,1.15,1.09,.24,.07,.7-.59,1.33-1.17Z"/>
      <path d="M105.39,78.62c.21,.42,.62,.87,1.04,.99,.24,.07,.65-.5,.99-.78-.34-.37-.68-.75-1.21-1.32-.39,.51-.89,.95-.81,1.11Z"/>
    </g>
  </g>
</svg>