<?xml version="1.0" encoding="UTF-8"?>
<svg id="_图层_2" data-name="图层 2" xmlns="http://www.w3.org/2000/svg" viewBox="0 0 172.18 137.24">
  <defs>
    <style>
    
    </style>
  </defs>
  <g id="_图层_2-2" data-name=" 图层 2">
    <g>
      <path class="cls-1" d="M45.06,30.96c-.64,.9-.99,1.79-1.08,2.89,.33-.23,.54-.42,.4-.78-.2-.51,.1-.75,.51-.87,2-.61,3.94-1.48,6.05-1.71,.25-.03,.51-.03,.8-.24-2.08-.4-3.86-1.26-5.45-2.54-.13-.1-.25-.2-.37-.31-.13-.12-.33-.23-.25-.45,.09-.25,.33-.21,.53-.21,.12,0,.23,0,.35,.01,1.81,.08,3.49-.44,5.26-1.06-.84-.49-1.64-.84-2.46-1.14-1.38-.5-2.61-1.27-3.8-2.12-.23-.16-.53-.32-.44-.63,.1-.36,.48-.31,.77-.32,2.17-.02,4.34-.03,6.51-.05,.22,0,.44,0,.67,0-.01-.29-.22-.28-.35-.34-2.03-.95-3.68-2.37-5-4.17-.18-.25-.52-.5-.37-.84,.14-.33,.54-.07,.91-.2-.51-.36-.94-.69-1.3-1.1-.19-.21-.36-.48-.17-.75,.22-.31,.53-.09,.74,.04,1,.65,1.89,1.43,2.81,2.18-.9-1.64-1.64-3.42-3.78-3.89-.58-.13-1.13-.41-1.62-.77-.35-.25-.68-.54-.61-1.01,.07-.51,.55-.42,.91-.56-.81-.22-1.62-.44-2.43-.68-.33-.1-.64-.26-.96-.4-.19-.09-.41-.18-.35-.44,.06-.27,.3-.22,.51-.26,.15-.02,.31,.09,.46-.06-.08-.28-.34-.27-.54-.35-.9-.39-1.69-.95-2.42-1.6-.14-.12-.24-.28-.33-.44-.14-.25-.23-.52-.04-.78,.19-.27,.48-.24,.76-.21,.36,.04,.64,.24,.94,.43,.95,.6,1.62,1.49,2.42,2.29-.07-.32-.16-.64-.21-.96-.04-.22-.12-.49,.15-.62,.29-.14,.49,.07,.63,.28,.6,.93,1.15,1.9,1.55,2.93,.11,.29,.22,.52,.46,.72,.62,.51,1.21,1.06,1.91,1.68-.21-.84-.41-1.54-.55-2.25-.06-.31-.24-.76,.22-.9,.4-.12,.65,.23,.76,.56,.47,1.41,1.13,2.78,1.07,4.32,0,.24,.15,.38,.25,.55,.53,.83,1.09,1.64,1.5,2.59,.11-.27,0-.51-.06-.75-.23-.97-.51-1.92-.5-2.93,0-.22-.05-.5,.24-.58,.32-.09,.47,.15,.58,.38,.54,1.08,.59,2.28,.65,3.44,.03,.59,.15,.93,.76,1.07,.44,.1,.86,.31,1.43,.52-.29-.62-.54-1.12-.77-1.63-.65-1.41-1.27-2.82-1.79-4.28-.1-.28-.26-.61-.02-.85,.24-.24,.5,.07,.76,.12,.01-.05,.05-.09,.04-.12-.13-.33-.49-.69-.13-1,.38-.32,.73,.05,1.04,.27,.23,.17,.44,.37,.8,.69-.2-.63-.47-.95-.92-1.14-.7-.29-1.41-.58-2.05-1-.33-.21-.65-.44-.9-.75-.15-.19-.23-.41-.07-.64,.15-.21,.37-.19,.56-.11,.38,.14,.75,.31,1.25,.51-.35-.45-.63-.74-1.04-1-1.18-.73-1.87-1.89-2.24-3.21-.12-.44,.21-.53,.54-.36,.4,.2,.65,.58,.91,.93,.92,1.29,1.83,2.59,2.68,3.97,.22-.2,.1-.35,.06-.48-.11-.45-.26-.89-.35-1.34-.06-.3-.23-.71,.16-.86,.42-.17,.53,.27,.66,.54,.42,.85,.69,1.76,.94,2.67,.07,.25,.03,.61,.52,.43,.18-.07,.34,.21,.42,.4,.51,1.26,1.04,2.52,1.1,3.91,.03,.65,.7,.55,1.08,.84-.18-.35-.36-.7-.54-1.06-.72-1.42-1.05-2.95-1.19-4.53-.02-.22-.11-.5,.18-.61,.25-.1,.43,.11,.6,.27,1.31,1.23,2.72,2.37,3.74,3.88,.05,.07,.08,.18,.27,.14-.07-1.31-.22-2.63-.4-3.94-.06-.41-.08-.83-.08-1.24,0-.29-.05-.66,.29-.78,.35-.13,.53,.2,.7,.43,1.16,1.61,2.32,3.23,3.49,4.83,.13,.18,.18,.43,.48,.53-.24-2.08-.06-4.12,.15-6.16,.02-.19-.08-.46,.22-.5,.22-.03,.29,.19,.38,.35,1.17,2.35,2.43,4.67,2.91,7.29,.18,.04,.22-.07,.27-.17,1.01-2.1,2.53-3.8,4.17-5.4,.66-.65,1.33-1.28,2.01-1.91,.16-.15,.33-.37,.6-.24,.25,.12,.23,.38,.24,.61,.07,1.74-.09,3.46-.19,5.19-.01,.28-.04,.55-.06,.83,.08,0,.14,.02,.16,0,1.1-1.71,2.69-2.9,4.35-4.01,.2-.13,.41-.41,.66-.21,.22,.18,.08,.48,0,.72-.58,1.9-.83,3.88-1.74,5.73,.15,.02,.22,.05,.26,.02,1.54-.9,3.15-1.64,4.8-2.31,.36-.15,.35-.26,.22-.68-.28-.89-.93-1.45-1.44-2.15-.55-.76-.79-1.61-.75-2.54,.01-.41,.13-.78,.57-.94,.44-.16,.81-.03,1.14,.29,.43,.42,.6,1.01,.98,1.63,.08-.72,.14-1.3,.21-1.88,.07-.52,.29-.97,.61-1.38,.43-.55,.97-.46,1.19,.2,.32,.92,.2,1.87,.09,2.82-.02,.18-.03,.36-.06,.65,.45-.36,.81-.67,1.19-.96,.56-.42,1.16-.77,1.88-.81,.85-.05,1.24,.51,.94,1.3-.22,.59-.67,.99-1.16,1.35-.22,.16-.45,.31-.74,.5,.55,.24,1.07,.34,1.51,.64,.37,.24,.78,.48,.68,1.02-.1,.52-.55,.64-.97,.75-.87,.24-1.69-.1-2.52-.27-.48-.1-.89-.2-1.17,.33-.05,.09-.19,.2-.27,.19-.83-.08-.9,.63-1.15,1.12-.74,1.44-1.71,2.74-2.51,4.15-.1,.18-.19,.36-.37,.72,1.03-.52,1.92-.92,2.87-1.16,.34-.09,.16-.3,.1-.49-.12-.35-.52-.78-.1-1.05,.37-.24,.69,.22,.99,.45,.55,.43,1.07,.86,1.86,.59,.35-.12,.61,.17,.36,.45-.44,.49-.09,.72,.17,1.03,.26,.32,.52,.64,.86,1.06,.11-1.14,.21-2.18,.31-3.22,.03-.32,.07-.64,.12-.96,.02-.18,0-.4,.25-.44,.22-.04,.32,.14,.42,.3,.53,.89,1.07,1.78,1.5,2.73,.04,.1,.1,.19,.21,.39,.69-1.28,1.48-2.37,2.36-3.4,.16-.18,.27-.49,.58-.4,.27,.08,.32,.38,.37,.62,.22,1.07,.19,2.16,.19,3.24,0,.31,0,.63,.13,1,.55-.72,1.11-1.44,1.66-2.16,.11-.15,.21-.3,.32-.45,.11-.15,.24-.32,.45-.21,.17,.08,.17,.27,.15,.43-.26,2.04,.36,4.11-.28,6.1,.18,.12,.26,.02,.35-.04,1.39-.93,2.9-1.61,4.45-2.22,.75-.3,1.5-.61,2.19-1.04,.17-.11,.37-.28,.56-.11,.21,.19,.09,.44-.02,.64-.38,.71-.77,1.42-1.17,2.12-.12,.22-.25,.43-.42,.73,.63,.03,1.16-.06,1.69-.18,.22-.05,.48-.15,.65,.06,.18,.22,0,.45-.14,.63-1.55,1.96-3.27,3.71-5.65,4.66-.93,.37-1.9,.68-2.74,1.35,1.02-.07,2.03-.1,3.04-.2,1.98-.2,3.94-.56,5.93-.5,.27,0,.6-.08,.74,.24,.13,.29-.09,.53-.25,.75-.7,.96-1.64,1.61-2.67,2.16-.3,.16-.6,.31-1.01,.52,1.64,.47,2.93,1.51,4.54,1.74,.36,.05,.36,.25,.09,.45-.18,.14-.37,.31-.58,.35-1.46,.32-2.84,.98-4.42,.99,.1,.28,.35,.31,.53,.4,1.02,.55,2.01,1.13,2.87,1.93,.16,.15,.39,.32,.31,.58-.09,.3-.4,.28-.64,.29-1.36,.03-2.72,.1-4.27-.1,.53,.63,.97,1.14,1.33,1.71,.13,.22,.39,.07,.58,.04,.62-.12,1.24-.16,1.86-.04,.24,.05,.46,0,.67-.1,1.3-.55,2.54-1.2,3.71-2.01,2.8-1.93,2.68-5.75,1.07-7.68-.58-.7-1.22-1.33-1.9-1.92-.29-.25-.75-.48-.51-.94,.22-.41,.66-.17,1.01-.11,.09,.02,.18,.03,.3,.06,0-.11,.02-.19,.02-.28-.01-.31-.23-.7,.09-.91,.36-.24,.72,.06,1.01,.26,1.69,1.2,3.21,2.6,4.36,4.32,2.44,3.63,5.25,6.85,9.15,8.99,.76,.42,1.52,.88,2.11,1.56,.12,.13,.25,.18,.42,.19,.85,.05,1.7,.08,2.55-.08,.48-.09,.51-.24,.25-.61-.84-1.25-1.25-2.62-1.12-4.13,.18-2.13,2.07-3.85,3.89-3.44,2.04,.46,3.68,2.08,2.97,4.7-.4,1.48-1.27,2.66-2.49,3.57-.48,.35-.37,.5,.1,.69,1.04,.42,2.11,.65,3.23,.72,.35,.02,.51-.09,.5-.46-.05-1.1,.32-2.08,.82-3.04,.52-1.01,1.62-1.67,2.45-1.45,1.05,.28,1.74,1.36,1.59,2.61-.2,1.69-1.17,2.81-2.74,3.49,.24,.46,.67,.7,1.09,.91,1.47,.76,2.97,.77,4.48,.14,.22-.09,.5-.33,.66,0,.13,.26-.16,.45-.35,.61-2.04,1.61-5.55,1.09-6.97-1.06-.18-.27-.33-.38-.66-.36-2.2,.12-4.21-.39-5.96-1.79-.14-.11-.3-.29-.49-.2-1.02,.48-2.12,.37-3.18,.44-.03,.14-.01,.23,.09,.26,2.65,.64,4.49,2.4,6.1,4.44,.62,.79,1.28,1.12,2.24,1.01,2.21-.25,4.02,.62,5.59,2.09,2.38,2.23,3.77,5.05,4.78,8.09,1.75,5.26,2.27,10.69,2.13,16.2-.13,5-.83,9.9-2.8,14.54-.41,.97-.95,1.89-1.45,2.88,2.1,.24,4.17,.39,6.21,.72,5.35,.86,10.75,1.47,16.01,2.86,.4,.11,.8,.23,1.19,.38,.26,.1,.69,.07,.55,.6-.05,.2,.22,.2,.35,.25,.9,.36,1.81,.7,2.71,1.05,.06,.03,.13,.05,.19,.08,.16,.08,.38,.16,.29,.4-.1,.24-.31,.12-.47,.06-.93-.35-1.85-.71-2.78-1.07-.6-.23-1.19-.41-1.78,.17,.59,.46,1.34,.56,1.99,.87,.28,.13,.89,.12,.74,.52-.16,.43-.59-.01-.88-.09-.8-.23-1.6-.47-2.32-.9-.33-.2-.56-.04-.98,.17,.76,.29,1.42,.53,2.07,.78,.17,.06,.35,.13,.52,.19,.16,.06,.35,.12,.29,.32-.08,.25-.28,.17-.46,.1-.9-.31-1.8-.59-2.69-.92-.66-.24-.67-.26-1.44,.22,.85,.34,1.66,.66,2.47,.99,.23,.1,.46,.21,.69,.33,.13,.07,.35,.12,.27,.33-.1,.24-.3,.14-.47,.07-1.01-.39-2.06-.71-3.03-1.19-.71-.35-1.15-.06-1.76,.41,.84,.34,1.6,.64,2.35,.94,.17,.07,.34,.14,.52,.2,.17,.06,.31,.15,.22,.35-.07,.16-.23,.13-.36,.08-.89-.32-1.84-.53-2.66-.99-.7-.39-1.08-.11-1.61,.31,.93,.51,1.79,.97,2.73,1.3,.15,.05,.31,.09,.45,.17,.17,.09,.45,.16,.31,.44-.11,.23-.33,.09-.49,.02-1.06-.45-2.13-.9-3.19-1.36-.4-.17-.76-.21-1.09,.24,.82,.51,1.72,.83,2.58,1.25,.25,.12,.81,.12,.61,.55-.17,.37-.52-.04-.77-.13-.97-.38-1.96-.7-2.84-1.28-.39-.26-.61,.16-.99,.25,.28,.34,.61,.48,.94,.63,.82,.37,1.64,.74,2.46,1.11,.17,.07,.38,.14,.25,.39-.1,.19-.26,.12-.42,.05-1.14-.51-2.3-.96-3.41-1.52-.5-.25-.89-.28-1.41,.1,.83,.4,1.62,.77,2.4,1.15,.17,.08,.49,.14,.38,.4-.13,.32-.39,.09-.59,0-.93-.41-1.86-.82-2.78-1.24-.69-.31-1.06,.35-1.8,.44,.75,.54,1.45,.7,2.06,1.03,.16,.09,.34,.15,.5,.23,.16,.08,.39,.15,.3,.39-.1,.24-.31,.13-.48,.06-.75-.31-1.5-.61-2.23-.95-.63-.3-1.18-.29-1.74,.36,.88,.39,1.74,.76,2.59,1.14,.17,.07,.34,.15,.51,.22,.15,.07,.33,.14,.25,.34-.1,.26-.29,.13-.46,.07-1.05-.42-2.11-.83-3.16-1.25-.24-.1-.5-.24-.67,.05-.18,.31,.09,.46,.31,.58,.36,.2,.74,.37,1.11,.56,.16,.08,.38,.16,.3,.39-.09,.27-.3,.12-.46,.06-.23-.09-.47-.18-.72-.27-.02,.1-.06,.17-.05,.23,.57,2.19-.11,4-1.71,5.52-.42,.4-.99,.74-1.18,1.24-.21,.54,.49,.96,.67,1.51,.1,.33,.27,.64,.29,.99,.02,.39-.11,.7-.53,.76-.44,.06-.56-.28-.6-.6-.08-.58-.27-1.12-.5-1.65-.15-.35-.3-.4-.6-.12-.49,.46-.99,.91-1.58,1.23-2.07,1.13-4.19,1.05-6.14-.15-1.29-.79-2.72-1.15-4.05-1.76-.59-.27-1.11-.21-1.69,.27,.81,.33,1.58,.64,2.35,.97,.19,.08,.55,.09,.43,.41-.12,.34-.39,.08-.58,.01-.89-.31-1.78-.63-2.66-.98-.42-.16-.62,.12-1.05,.35,1.16,.45,2.18,.84,3.2,1.25,.25,.1,.76,.11,.62,.48-.14,.39-.52,.05-.77-.03-1.03-.35-2.04-.74-3.06-1.11-.77-.27-.77-.26-1.51,.31,1.02,.43,2.02,.85,3.01,1.28,.17,.07,.35,.13,.51,.22,.17,.1,.42,.21,.28,.46-.13,.22-.33,.06-.49-.01-1.16-.51-2.32-1.03-3.54-1.4-.32-.1-.65-.28-1.01,.11,1.03,.4,2.01,.78,2.99,1.16,.17,.07,.35,.12,.51,.2,.13,.06,.23,.17,.18,.33-.07,.23-.25,.15-.4,.1-.7-.27-1.41-.54-2.15-.82,0,.31,.2,.37,.33,.48,1.29,1.06,2.09,2.42,2.28,4.07,.42,3.63-.41,6.91-3.02,9.57-2.63,2.69-6.91,3.05-10.38,1.01-2.82-1.67-4.2-4.26-4.77-7.36-.09-.48-.29-.67-.7-.79-.46-.14-.94-.28-1.36-.5-.47-.24-.82-.15-1.25,.24,.89,.38,1.74,.74,2.58,1.1,.18,.08,.47,.11,.35,.4-.13,.3-.36,.08-.53,.01-.95-.36-1.9-.71-2.84-1.11-.38-.16-.65-.1-1.04,.21,.72,.28,1.38,.53,2.03,.78,.13,.05,.27,.07,.39,.14,.21,.11,.59,.18,.46,.49-.14,.35-.45,.07-.65-.01-.93-.36-1.84-.74-2.82-.96-.32-.07-.63-.12-.95,.15,.62,.41,1.34,.56,1.96,.88,.21,.11,.42,.19,.62,.3,.14,.07,.34,.14,.27,.34-.09,.25-.29,.14-.47,.07-.83-.34-1.69-.64-2.5-1.03-.64-.31-1.18-.24-1.85,.21,.97,.35,1.87,.67,2.77,.99,.17,.06,.36,.08,.53,.16,.2,.09,.53,.16,.42,.44-.12,.33-.4,.09-.59,.03-1.23-.39-2.45-.83-3.7-1.17-.42-.11-.76-.11-1.14,.16,.17,.23,.44,.21,.66,.28,1.15,.35,2.3,.69,3.45,1.04,.18,.05,.42,.1,.37,.32-.07,.28-.31,.19-.52,.13-1.55-.47-3.1-.91-4.68-1.26-.22-.05-.43-.2-.7,.12,.95,.36,1.86,.69,2.77,1.05,.36,.14,1.08,.21,.93,.6-.17,.47-.72-.01-1.04-.15-2.01-.83-4.17-1.21-6.2-1.99-.78-.3-1.52-.66-2.21-1.15-.53-.38-1.13-.63-1.77-.75-2.49-.48-4.98-.95-7.47-1.46-.56-.11-.49,.23-.53,.53-.13,1.24-.75,2.17-1.84,2.77-1.22,.67-2.43,.6-3.49-.29-1.39-1.16-2.05-2.66-1.68-4.49,.08-.39-.03-.48-.37-.54-1.07-.19-2.13-.41-3.2-.61-2.32-.43-4.54-1.25-6.81-1.86-4.01-1.08-8.07-1.61-12.22-1.8-8.75-.39-17.26-2.2-25.61-4.76-1.49-.46-2.93-1.11-4.21-1.93-1.85-1.19-3.64-2.51-4.91-4.4-.58-.85-1.54-1.29-2.49-1.67-1.45-.58-2.99-.79-4.5-1.11-.62-.13-1.24-.26-1.72-.69-1.42-1.28-3.18-1.72-4.99-2.08-1.86-.37-3.72-.73-5.57-1.13-.81-.17-1.62-.34-2.33-.83-.41-.28-.95-.07-1.42-.2-.37-.11-1.05-.02-.97-.51,.07-.42,.62,.02,.95,.01,.7-.02,1.44,.43,2.17-.26-.61-.09-1.13-.17-1.65-.26-.34-.06-.69-.11-1.02-.2-.18-.05-.5-.06-.44-.33,.06-.24,.36-.17,.55-.14,.37,.04,.73,.12,1.09,.19,.75,.14,1.49,.29,2.24,.43,.29,.05,.53-.12,.79-.21,.67-.22,1.34-.45,2.01-.85-1.02-.24-2.03-.48-3.05-.72-.22-.05-.57-.05-.52-.33,.07-.37,.41-.18,.64-.12,1.23,.31,2.5,.47,3.69,.94,.47,.19,.82-.17,1.24-.3-1.27-.37-2.63-.37-4.04-.98,.52-.25,.86-.19,1.18-.13,1.29,.24,2.58,.53,3.88,.73,.77,.11,1.44-.36,2.18-.65-.66-.13-1.33-.25-1.99-.38-.5-.1-1-.19-1.49-.33-.24-.07-.68-.07-.61-.39,.07-.27,.49-.14,.74-.09,.84,.16,1.67,.34,2.5,.55,.58,.14,1.19,.11,1.74,.41,.31,.17,.65-.08,1.04-.25-1.3-.41-2.64-.3-3.9-.91,.39-.37,.76-.25,1.08-.17,1.2,.3,2.47,.35,3.63,.84,.25,.11,.48-.07,.75-.28-.82-.21-1.65-.41-2.47-.62-.32-.08-.91-.04-.83-.4,.09-.43,.63-.16,.95-.09,.83,.18,1.68,.36,2.48,.66,1.3,.47,2.41-.14,3.59-.38,0-.06,0-.12,0-.18-1.2-.25-2.41-.49-3.61-.74-.09-.02-.19-.02-.27-.05-.16-.06-.44-.03-.42-.27,.02-.31,.32-.23,.5-.2,1.27,.24,2.53,.54,3.8,.74,.52,.08,1,.47,1.74,.21-.8-.34-1.5-.4-2.17-.57-.47-.12-.95-.2-1.42-.3-.17-.04-.44-.05-.4-.29,.04-.29,.33-.21,.51-.18,.66,.12,1.31,.27,1.96,.42,.86,.19,1.71,.39,2.57,.58,.31,.07,.57-.04,1.01-.26-.98-.25-1.82-.46-2.66-.67-.47-.12-.95-.21-1.42-.33-.13-.03-.28-.1-.26-.27,.02-.17,.18-.2,.32-.18,.25,.03,.51,.06,.75,.12,1.23,.31,2.47,.59,3.68,.97,.71,.23,1.3,.04,2.08-.23-1.63-.55-3.26-.63-4.76-1.34,.36-.35,.67-.23,.93-.15,1.49,.46,3.04,.68,4.51,1.25,.62,.24,1.36-.25,2.04-.54-.95-.19-1.89-.37-2.84-.58-.38-.08-.76-.19-1.13-.32-.13-.04-.36-.1-.27-.32,.07-.18,.26-.16,.42-.12,1.59,.37,3.19,.73,4.78,1.11,.51,.12,.92-.22,1.58-.21-.6-.41-1.12-.41-1.59-.53-.74-.19-1.49-.34-2.22-.52-.17-.04-.43-.09-.4-.31,.03-.25,.31-.18,.46-.14,1.22,.27,2.61,.28,3.59,.92,1.06,.69,1.71-.23,2.56,.07-.05-.41-.27-.41-.43-.45-.92-.23-1.84-.46-2.76-.68-.25-.06-.69-.02-.61-.38,.07-.32,.47-.16,.73-.11,.56,.12,1.12,.28,1.68,.41,.22,.05,.43,.17,.72,.05-.91-1.25-1.97-2.33-3.19-3.24-1.02-.76-2.11-1.41-3.25-1.98-.56-.28-1.1-.6-1.5-1.1-.63-.78-.58-1.86,.23-2.46,.87-.64,1.41-1.36,1.49-2.5,.07-.99,1.1-1.44,2.2-1.1,.78,.24,1.36,.78,1.89,1.36,1.14,1.23,2.38,2.31,3.98,2.93,1.12,.43,2.27,.73,3.54,.95-.16-.52-.47-.83-.75-1.15-1.05-1.18-2.26-2.18-3.53-3.1-.49-.36-.97-.71-1.36-1.18-.73-.88-.48-1.9,.61-2.16,.92-.22,1.41-.7,1.74-1.56,.45-1.2,1.59-1.52,2.74-.88,.5,.28,.83,.72,1.16,1.17,1.49,2.05,3.11,3.97,5.34,5.26,.48,.28,.99,.51,1.5,.72,.99,.41,1.93,.5,2.97-.09,1.49-.85,3.14-1.33,4.82-1.7,.53-.11,.56-.3,.29-.72-.29-.44-.55-.91-.79-1.38-.48-.93-.28-1.84,.17-2.72,.07-.14,.19-.3,.38-.21,.19,.09,.13,.27,.05,.42-.66,1.17-.31,2.22,.34,3.25,.69,1.1,.68,1.1,1.96,.91,.81-.12,.81-.13,.51-.92-.36-.95-.42-1.89,.06-2.82,.1-.2,.14-.61,.47-.44,.3,.15,.05,.45-.05,.67-.43,.98-.31,1.93,.13,2.88,.16,.34,.35,.49,.74,.46,.69-.05,1.38-.07,2.08-.06,.39,0,.49-.13,.39-.49-.04-.15-.03-.32-.03-.48,0-.17,.03-.34,.25-.34,.18,0,.21,.16,.23,.29,.03,.18,.05,.37,.08,.55,.05,.34,.21,.51,.59,.52,1.41,.05,2.8,.25,4.19,.52,.29,.06,.61,.17,.59-.36-.07-2.24-.12-4.48-.18-6.72,0-.03-.05-.07-.11-.15-.35,.4-.68,.8-1.04,1.17-.79,.84-1.69,1.51-2.84,1.76-2.01,.45-3.29-.86-2.77-2.85,.38-1.45,1.32-2.52,2.45-3.44,.26-.21,.55-.4,.96-.71-1,.04-1.84,.07-2.67-.04-.55-.08-1.09-.2-1.6-.44-1.76-.83-1.93-3.12-.32-4.24,1.46-1.02,3.92-.93,5.65,.18,.66,.43,1.2,.97,1.8,1.56-.1-.9-.19-1.81-.3-2.71-.09-.73-.22-1.46-.33-2.19-.07-.48-.09-.95-.77-1.04-.4-.05-.2-.5-.3-.83-.52,.37-1.01,.73-1.52,1.07-1.31,.87-2.7,1.51-4.33,1.43-1.45-.07-1.51-.15-.98-1.43-.17-.13-.31,0-.45,.05-2.12,.85-4.22,.58-6.3-.12-.23-.08-.54-.12-.58-.42-.05-.3,.23-.43,.43-.57,.66-.48,1.27-1.02,1.76-1.66,1.66-2.16,3.78-3.78,6.06-5.22,.16-.1,.31-.2,.44-.33,.15-.15,.25-.36,.18-.56-.08-.22-.32-.14-.49-.14-2.25-.02-4.47-.35-6.7-.55-1.49-.13-1.83,.05-2.27,1.46-.8,2.55-1.1,5.19-1.59,7.8-.15,.79-.32,1.58-.42,2.38-.05,.36-.27,.52-.53,.51-.3-.01-.25-.36-.23-.56,.15-2.03,.27-4.05,.53-6.07,.23-1.79,.45-3.58,.91-5.32,.08-.29,.16-.58,.26-.86,.48-1.37,1.2-1.85,2.64-1.65,2.22,.3,4.43,.67,6.65,.99,.7,.1,1.38,.32,2.21,.29-.56-.59-1.09-1.05-1.66-1.47-.21-.16-.38-.04-.57,.07-.4,.22-.81,.45-1.23,.64-.41,.18-.59-.03-.5-.42,.07-.33,.21-.66,.35-.97,.14-.32,.06-.48-.24-.66-1.39-.84-1.38-.85-2.56,.32-.23,.23-.48,.43-.73,.63-.13,.1-.29,.19-.44,.08-.19-.13-.13-.33-.06-.5,.17-.45,.44-.86,.51-1.39-.96-.04-1.84,.25-2.75,.4-1.16,.19-2.33,.35-3.43,.79-.59,.24-1.02,.59-1.22,1.22-1.06,3.29-2.33,6.53-2.59,10.03-.03,.44-.03,.88-.06,1.31-.01,.18-.04,.42-.27,.43-.27,.01-.22-.25-.22-.42,0-4.15,.23-8.27,1.46-12.27,.03-.11,.08-.22,.11-.33,.33-1.08,1-1.64,2.19-1.74,2.05-.17,4.1-.31,6.16-.28,.18,0,.36,0,.76,0-2.23-1.78-4.57-2.94-7.17-4.06,.34,.49,.59,.81,.8,1.15,.19,.32,.4,.68,.14,1.03-.25,.35-.67,.28-1.03,.24-.29-.04-.56-.19-.85-.3-.07,.29,.16,.52,.18,.79,.02,.31,.06,.61-.23,.82-.3,.22-.6,.15-.91-.02-.53-.3-.84-.78-1.14-1.28-.17-.29-.34-.59-.65-.86,0,.53,.02,1.07,0,1.6-.03,.55-.11,1.1-.82,1.17-.5,.05-.91-.39-1.06-1.09-.13-.6,.03-1.19,.07-1.86-.46,.22-.85,.45-1.27,.6-.49,.18-1.03,.24-1.4-.24-.37-.49-.1-.97,.18-1.4,.39-.59,1.04-.89,1.62-1.37-.71-.23-1.4-.37-1.94-.81-.5-.41-1.13-.88-.85-1.59,.28-.72,1.04-.52,1.65-.44,.81,.1,1.54,.46,2.45,.76-.37-.68-.69-1.25-.99-1.82-.26-.49-.47-1.01-.55-1.56-.04-.29-.09-.61,.21-.82,.32-.23,.66-.17,.98,0,.58,.31,.9,.85,1.2,1.4,.05,.1,.1,.2,.24,.45,.12-.55,.19-.96,.29-1.36,.08-.31,.19-.62,.32-.91,.12-.27,.23-.6,.59-.61,.36,0,.49,.31,.62,.58,.35,.72,.54,1.5,.75,2.44,.36-.7,.59-1.28,1.03-1.73,.23-.24,.49-.52,.81-.17,.31,.35,.38,.78,.17,1.22-.03,.06-.17,.12-.24,.1-.32-.11-.19-.43-.34-.78Zm18.42,5.44l-.04,.02c.48-.48,.87-1.01,.96-1.72,.05-.4-.23-.55-.46-.68-.27-.16-.37,.11-.49,.32-.2,.38-.42,.77-.68,1.12-1,1.4-2.39,2.34-3.78,3.3-.3,.21-.64,.37-.84,.7-.97,1.62-1.55,3.4-2.26,5.28,1.47-.71,2.46-1.86,3.69-2.67l-.02,.03c.22-.39,.42-.81,.89-.98,.16-.18,.35-.35,.49-.55,.11-.16,.43-.31,.11-.56-.35-.17-.07-.36,0-.5,.39-.7,.84-1.38,1.2-2.1,.24-.48,.56-.77,1.07-.88l-.02,.02c.05-.05,.11-.11,.16-.16Zm19.99,75.23c-.12-.76-.77-.38-1.16-.54,.37,.23,.68,.61,1.19,.51,.49,.53,1.14,.5,1.78,.52,.13,0,.38,.09,.34-.19-.03-.2-.25-.24-.39-.14-.35,.23-.64,.12-.96-.07-.25-.15-.53-.14-.8-.09Zm10.01-4.86c-.23,.18-.53,.12-.77,.23-.15,.07-.46-.04-.35,.33,.08,.28,.27,.37,.51,.33,.49-.08,.65-.43,.62-.89,.22,.13,.43,.26,.53,.52,.08,.2,.24,.28,.45,.17,.16-.08,.21-.24,.19-.41-.03-.19-.16-.27-.34-.28-.28,0-.55,0-.83,0Zm-17.35-62.48c.39-.74,.22-1.74-.39-2.11,.21,.71,.41,1.39,.4,2.11,.26,1.33,.22,2.68,.31,4.02,.15-1.19,.05-2.38,.02-3.57,0-.23-.1-.4-.33-.46Zm2.02-6.86c.08,.18,.16,.36,.24,.54,.28,.49,.93,.61,1.17,1.14,1.19,.91,2.46,1.63,4.01,2.09-.1-.24-.13-.35-.19-.45-1.2-2.16-2.83-3.9-5.03-5.06-.96-.51-1.87-1.09-2.69-1.8-.3-.26-.6-.5-.89-.76-.15-.14-.3-.22-.49-.1-.26,.17-.02,.31,.05,.45,.14,.27,.28,.53,.42,.79,.14,.15,.27,.29,.41,.44,.27,.19,.54,.38,.81,.57,.51,.61,1.03,1.21,1.54,1.82,.22,.13,.44,.25,.66,.38l-.02-.04Zm8.13,9.81c-.12-.44-.45-.58-.84-.45-.39,.12-.72,.97-.57,1.32-.07,0-.14-.03-.21-.02-.47,.08-.85,.12-.62-.58,.09-.27-.27-.4-.39-.69-.25-.6-.56-.18-.79-.13-.47,.11-.93,.28-1.36,.49-.45,.22-.82-.17-1.21-.11-.69,.1-1.3,.42-1.93,.94,1.66-.22,3.17-.08,4.65,.39,.67,.21,1.26,.09,1.82-.3,.55-.16,1.12-.26,1.46-.81,.04,.35,.25,.58,.56,.71,.16,.07,.32,.01,.42-.13,.05-.06,.07-.23,.06-.23-.35-.14-.56-.67-1.06-.4ZM30.34,107.62s-.12-.03-.11,.07c.03-.02,.07-.04,.1-.07,.33,.42,.49-.21,.76-.13,.86,.24,1.74,.12,2.61,.12,.14,0,.3,.03,.3,.21,0,.18-.16,.22-.3,.2-.5-.09-.93,.1-1.37,.3,1.88-.2,3.8-.26,5.59-.96-.36,.08-.88-1-1.1,.11,0,.04-.16,.08-.25,.08-.49,0-.96,.07-1.44,.19-.13,.03-.3,.08-.36-.09-.07-.22,.11-.27,.27-.31,.11-.03,.25-.02,.33-.08,.25-.17,.81,.12,.78-.31-.03-.32-.57-.06-.86-.19-.09-.04-.24-.08-.29,.07-.09,.27-.25,.14-.36,.05-.13-.12-.14-.32-.02-.44,.24-.23,.56-.44,.85-.18,.26,.23,.39,.27,.55-.06,.1-.21,.41-.02,.56-.3-1.22-.23-2.4-.89-3.54,.19-.17,.16-.47,.18-.71,.24-.47,.12-.95,.2-1.42,.32-.5,.13-.73,.45-.58,.98Zm50.44-63.36c-.02-.93,.08-1.86,.39-2.71,.28-.75-.15-.9-.61-1.08-.41-.17-1.08,.23-.92,.49,.33,.56,.13,1.41,.94,1.7,.11,.04,.14,.22,.07,.31-.35,.48,.02,.86,.13,1.28,.09,.29,.16,.58,.26,.86,.17,.47,.22,.77-.45,.49-.43-.18-.34,.26-.43,.44-.12,.23-.03,.32,.26,.39,.66,.18,1.26,.07,1.86-.19,.45-.19,.92-.35,1.41-.34,.43,0,.48-.21,.49-.55,.02-1.05,.22-2.06,.54-3.06,.19-.59,.4-1.16,.62-1.79-.36,.07-.61,.28-.7,.48-.25,.54-.37,1.14-1.18,1.01-.59,.8-1.45,1.35-1.99,2.2-.22,.34-.43,.38-.7,.07Zm-23.09-10.75c-1.31,.04-2.63,.15-3.81,.71-1.62,.76-2.97,1.94-4.42,3.17,1.65,.05,3.12-.14,4.51-.78,.23-.11,.57-.1,.44-.59-.08-.28,.47-.5,.84-.33,.16,.07,.21-.03,.28-.1,.71-.71,1.5-1.33,2.15-2.1,.77-.03,2.65-1.06,2.75-1.56-.62,.41-1.22,.78-1.86,1.08-.3,.14-.69,.13-.86,.5ZM89.81,7.75c.13-.19,.27-.38,.4-.57-.22-.53-.58-.58-1.05-.33-.97,.51-1.83,1.15-2.43,2.11-.16,.25-.29,.65-.73,.35-.4-.28-.36-.64-.11-.96,.21-.26,.36-.54,.27-.81-.2-.6-.07-1.18-.08-1.78,0-.3-.04-.61-.24-.97-.26,.5-.39,.91-.43,1.35-.08,.95-.07,1.89,.13,2.83,.09,.41,.18,.87-.31,.97-.45,.1-.39-.42-.48-.69-.3-.92-.58-1.85-1.14-2.67-.16-.23-.29-.67-.62-.52-.27,.12,.13,.41,.14,.65,0,.2,.09,.4,.13,.61,.23,1.13,.66,2.14,1.59,2.88,.34,.27,.44,.61,.17,1,.24,.06,.45,0,.48-.15,.22-.92,.68-.61,1.39-.54,1.06,.12,2.15,.21,3.22,.31,.13,.01,.3,.07,.34-.12,.03-.13-.1-.2-.19-.26-.56-.34-1.14-.62-1.81-.62-.35,0-.69,0-1.04-.02-.19-.02-.35-.12-.39-.34-.02-.15,0-.32,.16-.34,.51-.06,.84-.18,1.11-.76,.21-.45,.89-.7,1.53-.6Zm12.62,100.28v.03c.24-.38,.74-.29,1.17-.57-.59-.12-1.1,.07-1.53-.36-.6-.61-1.15-.41-1.34,.45-.07,.31-.2,.4-.46,.35-.28-.05-.29-.28-.21-.49,.16-.45,.04-.82-.35-1.16,1.28,.08,2.44,.39,3.62,.59,.35,.06,.62,.17,.68,.57,.04,.29,.2,.48,.43,.15,.24-.34,.54-.32,.92-.14-.21-.57-.6-.84-1.01-1.03-.56-.26-1.15-.46-1.73-.69-.94-.36-1-.63-.32-1.33,.09-.09,.23-.16,.2-.4-3.3-.49-6.12,1.15-9.09,2.1,.17,.03,.32,0,.48-.02,1.49-.21,2.98-.39,4.48-.26,.37,.03,.99-.01,.95,.44-.04,.55-.62,.24-.97,.22-.61-.03-1.21-.04-1.8,.13,.86-.19,1.65,.05,2.42,.36,.15,.06,.52-.06,.43,.28-.07,.25-.29,.36-.61,.29-.5-.1-.56-.03-.67,.48,1.64-.25,3.26,.4,4.91,.15l-.59-.16ZM57.11,28.41c.77-.22,1.53-.44,2.34-.66-2.27-.21-4.43-.65-6.49-1.5-.24-.1-.44-.17-.72-.08-1.75,.54-3.48,1.18-5.37,1.21,1.25,1.01,2.6,1.79,4.15,2.12,1.58,.34,3.16,.41,4.6-.53,.58,.03,.94-.53,1.49-.56Zm-1.61,23.09c-.44-.03-.79,.11-1.13,.4-1.34,1.14-2.31,2.62-3.63,3.85,2.42,0,4.43-.92,6.32-2.18-.71,0-1.42-.18-2.3,.16,.56-.54-.69-1.09,.38-1.6-.15,.43-.08,.59,.31,.66,2.14,.4,3.93-.45,5.64-1.57,.16-.1,.23-.33,.34-.51-.01,.36,.22,.29,.42,.22,.45-.15,.89-.31,1.37-.49-.42-.37-.89-.4-1.33-.48-.36-.06-.5,.15-.39,.51-.52-.54-1.13-.85-1.9-.85-.22,0-.43-.08-.43-.35,0-.3,.24-.38,.48-.38,.2,0,.41,.07,.61,.1,.13,.02,.34,.08,.37-.07,.09-.49,.27-.99,.13-1.5-.05-.18-.3-.25-.4-.14-.38,.4-.94,.36-1.38,.6-.12,.06-.18,.13-.18,.25,0,.62-.44,.91-.91,1.2-.59,.36-1.14,.78-1.71,1.16-.36,.24-.62,.54-.69,.98h0Zm4.73-34.39l-.81-.68c-.25-.06-.5-.14-.66-.35-.42-.58-1.02-.93-1.6-1.3-1.4-.89-2.82-1.77-4.22-2.65-.24-.15-.46-.31-.84-.56,.65,1.73,1.26,3.24,1.99,4.71,1.61,3.25,3.96,5.7,7.41,7,.17,.06,.32,.2,.52,.13,.67-.25,1.2-1.07,1.24-1.84,.01-.35-.04-.53-.4-.27-.26,.19-.45,.08-.57-.15-.66-1.36-1.75-2.5-2.05-4.04Zm58.16,28.15c-1.37-2.77-3.28-3.36-5.87-2.43-2.38,.86-3.84,2.72-4.97,4.87-1.41,2.7-2.28,5.59-3.04,8.52-1.07,4.15-1.69,8.38-1.88,12.65-.15,3.34-.13,6.69,.22,10.03,.52,5.01,1.48,9.9,3.49,14.54,.72,1.67,1.68,3.2,3.28,4.18,.57,.35,1.18,.65,1.81,.86,2.06,.68,3.62,.15,5.01-1.73,1.81-2.43,2.81-5.23,3.54-8.14,.61-2.44,1.03-4.92,1.42-7.41,.5-3.17,.78-6.36,.89-9.57,.13-3.86-.14-7.71-.44-11.55-.08-1.02-.2-2.03-.31-3.14-.35,.39-.5,.87-1.03,.88-1.6,.02-2.94-.44-3.78-1.94-.52-.93-.76-1.92-.85-2.96-1.52,.27-2.3-.47-2.14-1.99,.03-.32,.09-.64,.15-.96,.11-.6,.04-1.13-.43-1.59-.38-.37-.51-.87-.46-1.4,.13-1.32,1.44-2.48,2.77-2.56,.98-.06,1.76,.43,2.63,.83Zm-28.97,29.7c-.02,.98,.06,2.18,.11,3.38,.17,3.62,.64,7.16,1.84,10.6,1.01,2.91,2.53,5.42,5.12,7.18,2.01,1.36,4.13,1.76,6.41,.66,1.25-.61,1.3-.71,.86-1.98-.04-.11-.07-.22-.11-.33-1.84-5.72-2.46-11.64-2.71-17.6-.26-6.18,.07-12.34,1.25-18.42,.94-4.85,1.92-9.7,4.37-14.09,.19-.34,.1-.52-.18-.75-1.31-1.09-2.74-1.24-4.27-.57-1.03,.45-1.91,1.12-2.71,1.89-3.6,3.46-5.88,7.72-7.43,12.41-1.86,5.64-2.58,11.47-2.55,17.61Zm44.42,38.97c-.2-.22-.36-.16-.51-.14-2.62,.39-5.25,.28-7.87-.01-.51-.06-1.05-.14-1.42-.49-1.23-1.16-1.33-1.75-.7-3.36,.1-.26,.3-.52,.05-.84-.37-.47-.63-1.08-1.09-1.41-.33-.23-.83,.28-1.29,.29-.02,0-.05,0-.07,.01-1.8,.2-3.59,.18-5.39,.06-2.28-.15-4.44-1.09-6.76-1.03-.76,.02-1.64-.07-2.1,.59-.74,1.08-1.57,2.11-2.21,3.25-.68,1.18-1.58,2.19-2.55,3.06-2.14,1.91-4.89,2.71-7.54,3.66-.69,.25-1.46,.21-2.15,.5-1.48,.61-3.19,.45-4.54,1.55-.42,.34-1.14,.34-1.72,.48-.41,.1-.18,.33-.1,.51,.07,.15,.03,.5,.38,.29,1.66-.98,3.52-1.17,5.36-1.49,.75-.13,1.46-.09,2.18,.16,.23,.08,.48,.14,.46,.43-.03,.35-.34,.34-.59,.32-.57-.05-1.14-.18-1.72-.12-1.57,.17-3.07,.63-4.59,1-.15,.04-.37,.07-.41,.34,.64,.3,1.17,.72,1.41,1.42,.04,.11,.09,.22,.22,.24,1.25,.18,2.46,.7,3.75,.42,.83-.18,1.65-.44,2.47-.68,.71-.21,1.41-.44,2.12-.66,.18-.05,.4-.08,.47,.15,.08,.22-.11,.34-.28,.41-.39,.15-.78,.3-1.18,.41-.88,.24-1.77,.46-2.66,.69,1.12,.34,2.24,.59,3.37,.82,.12,.02,.26-.05,.39-.08,2.75-.76,5.32-1.95,7.82-3.31,.61-.33,1.2-.7,1.81-1.02,.2-.1,.51-.32,.67-.02,.16,.29-.17,.44-.38,.56-1.12,.6-2.23,1.2-3.36,1.78-1.87,.95-3.78,1.8-5.89,2.42,1.62,1.02,3.19,1.88,4.97,2.29,.22,.05,.44,.07,.67-.04,2.32-1.03,4.68-1.95,7.06-2.83,1.52-.56,2.95-1.3,4.38-2.06,.57-.3,.92-.64,1.18-1.22,.36-.8,.87-1.54,1.53-2.12,1.85-1.65,4.03-2.28,6.48-1.89,.49,.08,.6-.02,.4-.47-.23-.53-.48-1.05-.67-1.59-.13-.37-.25-.84,.21-1.04,.48-.21,.72,.23,.85,.59,.22,.61,.37,1.24,.54,1.86,.05,.17,0,.43,.26,.42,.91-.03,1.85,.01,2.73-.23,.59-.16,1.13-.51,1.7-.76,1.32-.59,2.53-1.38,3.84-2.04Zm-10.3-55.14c.61,2.48,1.08,4.94,1.14,7.47,.06,2.5-.09,4.98-.29,7.47-.18,2.3-.39,4.6-.62,6.89-.28,2.71-1.16,5.36-.82,8.14,.11,.96,.02,1.94,.02,2.91,0,.71,.13,1.4,.54,1.97,.52,.72,1.25,1.5,2.13,1.29,1.16-.28,2.33-.73,3.24-1.64,1.51-1.5,2.61-3.36,4.2-4.78,.07-.06,.11-.15,.14-.23,.66-1.89,1.4-3.77,1.97-5.69,.68-2.31,.95-4.7,1.06-7.1,.1-2.3,.27-4.63-.01-6.92-.41-3.32-.9-6.64-1.8-9.86-.61-2.17-1.27-4.34-2.52-6.26-.09-.14-.16-.44-.37-.33-.92,.5-1.46-.16-2.07-.63-.31-.23-.6-.57-1.12-.41,.16,.21,.28,.37,.4,.53,2.1,2.66,2.6,5.54,1.17,8.68-.58,1.28-1.1,1.42-2.08,.44-1.18-1.19-2.51-2.02-4.3-1.94Zm13.61,29.9c-.08,.52-.39,.99,.37,1.07,.18,.02,.3,.15,.23,.35-.06,.18-.22,.24-.39,.23-.68-.07-1.31-.26-1.83-.73-.11-.1-.18-.21-.12-.36,.05-.12,.17-.21,.27-.16,.58,.26,.47-.2,.49-.47,.04-.47-.35-.34-.59-.35-1.24-.07-2.08,.68-2.83,1.51-.85,.94-1.66,1.92-2.45,2.91-.96,1.2-2.13,2.09-3.6,2.59-.66,.22-1.29,.51-1.85,.94-4.03,3.08-3.68,9.13-1.44,11.93,1.94,2.43,4.56,3.46,7.59,3.52,1.32,.02,2.62-.21,3.83-.82,.55-.28,.86-.62,.91-1.36,.22-2.89,1.16-5.46,3.74-7.13,.27-.17,.34-.4,.38-.69,.11-.92-.01-1.81-.32-2.66-.39-1.11-.37-2.22-.19-3.35,.17-1.03,.3-2.06,.07-3.1-.33-1.5-.87-2.86-2.29-3.86Zm-99.83,19.67c-.78,.12-1.56,.24-2.34,.35-1.58,.21-3.17,.4-4.73-.16-.55-.2-1.04-.46-1.01-1.14,.02-.35-.21-.35-.42-.42-.63-.21-1.22-.47-1.38-1.21-.03-.16-.13-.25-.28-.26-1.06-.06-2.07-.35-3.12-.87,.22,1.25,.91,2.06,1.68,2.84,1.94,1.97,4.26,3.31,6.9,4.09,7.21,2.13,14.61,3.17,22.09,3.7,6.18,.44,12.37,.42,18.56,.34,5.92-.07,11.82-.39,17.67-1.29,3.15-.48,6.16-1.4,8.95-2.99,.87-.49,1.67-1.07,2.25-1.91,.13-.19,.39-.45-.13-.5-1.03-.1-2.07-.21-3.1-.31-.31-.03-.61-.01-.82,.26-.55,.72-1.25,.75-2.05,.49-.78-.25-1.54-.59-2.39-.72,.35,.9,.2,1.23-.7,1.49-.35,.1-.72,.16-1.09,.2-.35,.04-.41,.12-.27,.47,.3,.74,0,1.13-.8,1.18-.72,.05-1.42-.1-2.13-.24-.78-.15-1.56-.41-2.39-.31,.19,1.09-.15,1.45-1.25,1.36-.18-.01-.37-.05-.55-.09-1.11-.22-2.07-.77-3.03-1.34-.98-.58-1.96-1.13-3.13-1.24-.2-.02-.4-.09-.59,.17,.39,.19,.76,.36,1.12,.56,.24,.13,.48,.28,.7,.45,.13,.1,.25,.24,.11,.41-.11,.13-.26,.06-.37-.01-.82-.53-1.77-.8-2.61-1.27-.37-.21-.68-.18-1.04-.16-.14,0-.29,.03-.31,.21-.02,.15,.03,.27,.15,.37,.25,.2,.5,.41,.74,.62,.15,.14,.5,.23,.27,.52-.19,.24-.39-.02-.53-.13-.5-.38-.79-.33-1.25,.19-1.37,1.53-3.51,1.03-4.18-.91-.08-.23-.11-.44-.44-.41-.37,.04-.28,.3-.28,.51,.02,.92-.41,1.59-1.19,2.04-1.08,.61-2.21,.92-3.46,.63-1.37-.32-2.22-1.16-2.58-2.51-.05-.18,.04-.49-.26-.49-.33,0-.26,.33-.31,.53-.32,1.48-1.58,2.54-3.1,2.59-1.52,.04-2.44-.79-2.49-2.32-.01-.38-.14-.48-.49-.46-.37,.02-.74,.01-1.11,0-2.84-.03-5.6-.43-8.23-1.57-.23-.1-.45-.05-.68-.01-1.35,.21-2.66,.58-3.95,1.02-1.44,.49-2.87,1.02-4.4,1.21-.81,.1-1.62,.1-2.38-.27-.86-.42-.97-1.08-.31-1.77,.45-.47,1-.73,1.6-.94,.31-.11,.65-.18,.84-.59Zm90.01,24.77c1.34-.44,2.38-1.14,3.2-2.13,2.03-2.43,2.84-5.26,2.49-8.39-.32-2.82-2.56-5.41-5.89-5.08-.28,.03-.56,.04-.83,.02-.57-.05-.72,.18-.62,.73,.18,.96,.21,1,1.16,.61,.09-.03,.16-.09,.25-.12,.14-.05,.28-.05,.37,.09,.11,.16,.05,.32-.07,.44-.19,.18-.42,.27-.67,.35-.95,.28-1.83,0-2.7-.32-.21-.07-.51-.18-.43-.45,.1-.33,.39-.2,.65-.16,.17,.03,.44,.27,.49-.09,.04-.27,.08-.63-.34-.72-.32-.07-.63-.13-.95-.18-3.62-.62-7.43,2.4-7.57,5.99-.15,3.9,2.2,8.34,7.01,9.55,1.38,.35,1.64,.26,2.4-.92,.06-.1,.12-.2,.19-.29,.11-.14,.27-.21,.43-.12,.19,.1,.15,.28,.08,.43-.17,.35-.37,.69-.56,1.05,.29,.06,.48,.02,.72-.15,.92-.67,1.24-1.69,1.66-2.66,.1-.24,.23-.61,.56-.46,.32,.14,.16,.49,.05,.74-.33,.71-.68,1.41-1.08,2.26Zm-39.39-44.62c-.63-2.24-1.02-4.49-1.18-6.77-.29-4.11-.16-8.22,.31-12.31,.73-6.4,2.4-12.55,5.31-18.32,.3-.6,.08-.86-.41-1.04-1.32-.5-2.51-.16-3.53,.73-1.96,1.7-3.47,3.74-4.6,6.08-1.21,2.5-2.13,5.1-2.75,7.82-.44,1.95-.57,3.93-.64,5.91-.12,3.05-.2,6.09,.64,9.08,.51,1.82,1.14,3.66,2.37,5.02,1.29,1.43,2.97,2.53,4.48,3.8ZM3.32,98.67c.38,.3,.68,.34,.97,.4,2.15,.45,4.31,.84,6.44,1.36,1.11,.27,2.18,.29,3.27,0,.67-.17,1.35-.31,2.02-.49,1.63-.44,3.25-.9,4.87-1.36,.22-.06,.5-.15,.59,.15,.08,.25-.18,.34-.38,.41-.59,.19-1.19,.38-1.79,.53-1.84,.47-3.65,1.08-5.67,1.48,1.07,.49,1.73,1.27,2.64,1.69,.33,.16,.61,.17,.98,.04,1.51-.57,3.04-1.09,4.56-1.62,.24-.08,.58-.18,.69,.08,.14,.34-.26,.35-.46,.46-.24,.13-.51,.22-.77,.31-1.03,.35-2.07,.69-3.11,1.04,1.87,.51,3.74,.86,5.37,2.07q-.13-1.01-.53-1.56c-.54-.74-.41-1.4,.45-1.7,.7-.24,1.32-.59,1.95-.96,1.05-.6,2.21-.93,3.38-1.19,.48-.11,.68-.27,.62-.82-.11-1.12,.2-1.67,1.27-2.01,1.91-.61,3.05-1.97,4-3.62,.33-.57,.4-1.02-.07-1.55-.3-.34-.51-.77-.72-1.18-.16-.31-.3-.4-.68-.34-1.69,.27-3.32,.79-4.98,1.2-4.86,1.19-9.71,2.46-14.55,3.73-2.99,.79-5.9,1.86-8.83,2.84-.47,.16-.93,.36-1.53,.6Zm136.76-6.37c1.94-2.19,2.96-4.74,3.68-7.44,.94-3.55,1.17-7.19,1.21-10.84,.02-1.61-.09-3.23-.2-4.84-.26-3.73-.83-7.38-2.4-10.81-.92-2.02-2.16-3.76-4.26-4.72-.18-.08-.36-.28-.57-.11-.23,.19-.02,.39,.04,.56,1.49,4.2,2.06,8.56,2.32,12.97,.23,3.97,.15,7.94-.16,11.9-.24,3.11-.68,6.19-1.54,9.2-.06,.21-.12,.38,.07,.56,.99,.95,1.44,2.18,1.8,3.57Zm27.74,4.54c-.55-.15-.95-.27-1.34-.37-3.47-.88-7.01-1.39-10.54-1.95-.47-.07-.86-.23-.89,.51,0,.29-.27,.58-.45,.84-1.45,2.08-3.43,3.59-5.53,4.95-.74,.48-1.59,.78-2.42,1.22,1.69,.57,2.95,1.64,3.99,2.99,.07,.09,.15,.19,.28,.07,.51-.49,1.23-.6,1.79-1,1.05-.74,2.2-1.24,3.44-1.59,1.18-.33,2.27-.87,3.3-1.54,1.97-1.29,4.01-2.45,6.28-3.17,.68-.21,1.34-.48,2.09-.97ZM75.29,5.93c-2.29,2.14-4.44,4.13-5.84,6.76-1.13,2.13-1.47,4.4-.83,6.77,.08,.31,.11,.63,.58,.63,.45,0,.57-.22,.68-.6,.31-1.08,.31-2.19,.31-3.3,0-.23-.02-.52,.3-.52,.26,0,.29,.29,.3,.48,.02,.44,.03,.88,0,1.31-.04,.76-.13,1.52-.37,2.25-.14,.44,.02,.54,.41,.62,.66,.12,1.05-.27,1.41-.68,1.16-1.3,1.97-2.8,2.32-4.5,.61-2.97,.64-6,.73-9.22Zm9.6,6.13c-.83,.35-1.52,.61-2.19,.93-2.38,1.12-4.73,2.31-6.59,4.25-1.22,1.27-2.09,2.75-2.76,4.36-.13,.32-.09,.52,.2,.69,.32,.19,.31-.17,.43-.28,.37-.35,.69-.74,1.04-1.11,.13-.14,.29-.37,.51-.13,.2,.21,.01,.39-.13,.53-.38,.4-.76,.8-1.1,1.24-.3,.38-.11,.54,.19,.74,.28,.19,.49,.02,.71-.08,2.38-1.08,4.39-2.62,5.86-4.81,.53-.78,1.03-1.58,1.54-2.37,.8-1.23,1.62-2.45,2.29-3.96Zm-17.56,24.79c0-.39,0-.71,0-1.04,0-.25-.05-.45-.33-.54-.31-.1-.42,.13-.53,.32-.15,.26-.3,.52-.39,.81-.25,.81-.47,1.64-.71,2.46-.07,.23-.1,.58-.46,.47-.29-.09-.19-.39-.14-.6,.23-1.06,.58-2.09,.98-3.1,.06-.16,.32-.34,.05-.54-.3-.22-.46,.03-.63,.21-.65,.73-1.17,1.55-1.56,2.44-1.58,3.57-1.95,7.38-2.3,11.2-.03,.36,.13,.41,.41,.22,.43-.28,.82-.6,1.16-.98,2.92-3.24,4.43-7.03,4.44-11.34Zm62.67,20.07c.04-1.19-.21-2.18-.72-3.12-.18-.33-.42-.52-.79-.59-.59-.12-1.16-.3-1.77-.29-.41,0-.65-.25-.81-.56-.17-.33,.22-.4,.36-.58,.37-.45,.89-.73,1.3-1.13,.55-.53,1.11-.5,1.7-.14,.41,.25,.79,.56,1.2,.83,.18,.12,.4,.29,.59-.02,.36-.59-.22-2.06-.87-2.27-1.63-.55-3.18-.2-4.73,.37-.45,.17-.92,.29-1.39,.4-.34,.08-.54-.16-.59-.45-.06-.35,.29-.25,.44-.26,.61-.05,1.02-.36,1.38-.82,.22-.29,.48-.56,.74-.82,.24-.24,.63-.42,.74-.71,.15-.42-.51-.35-.6-.69-.01-.04-.03-.09-.06-.12-.53-.64-1.86-.73-2.45-.16-.28,.27-.54,.57-.91,.74-.17,.07-.35,.32-.53,.04-.14-.21-.14-.43,.09-.61,1.1-.87,2.06-1.93,3.38-2.5,.25-.11,.58-.11,.79-.39-.73-.45-1.5-.41-2.26-.33-1.94,.19-3.31,2.47-2.65,4.29,.76,2.08,1.97,3.84,3.54,5.39,.66,.65,1.15,1.61,1.92,1.95,1.26,.56,2.1,1.45,2.98,2.57Zm-37.15,57.78c-17.27,2.17-34.78,2.22-52.2-.53,.05,.02,.17,.08,.29,.11,4.52,1.18,9.12,1.96,13.77,2.41,3.06,.29,6.11,.5,9.19,.52,1.94,.02,3.88,.1,5.82,.13,5.42,.09,10.8-.3,16.16-1.08,2.45-.36,4.86-.87,6.97-1.56ZM60.6,7.13c-.06,.03-.12,.05-.18,.08,.21,1.97,.38,3.94,.62,5.91,.29,2.35,.8,4.64,2.06,6.7,.25,.42,.53,.81,.88,1.15,.48,.46,.84-.11,1.25-.18,.37-.06,.14-.42,.08-.64-.13-.49-.3-.97-.45-1.45-.07-.23-.26-.54,.09-.65,.32-.09,.4,.25,.48,.48,.19,.57,.38,1.14,.54,1.72,.08,.31,.27,.32,.52,.29,.26-.03,.35-.16,.35-.42,0-1.2-.03-2.39-.45-3.55-.62-1.7-1.45-3.29-2.49-4.77-1.09-1.56-2.2-3.11-3.31-4.66Zm-14.44,14.86c-.02,.06-.03,.12-.05,.18,.2,.14,.4,.3,.62,.43,2.28,1.44,4.78,2.41,7.26,3.41,1.89,.76,3.88,1.18,5.96,1.04,.49-.03,.51-.35,.65-.65,.18-.39-.17-.43-.34-.55-.27-.18-.56-.33-.85-.47-.72-.36-1.45-.71-2.18-1.06-.21-.1-.49-.2-.36-.48,.13-.29,.4-.12,.61-.04,.11,.04,.21,.1,.31,.15,.91,.46,1.82,.9,2.72,1.38,.27,.14,.42,.15,.5-.16,.05-.2,.45-.4,.02-.6-1.75-.82-3.43-1.82-5.35-2.25-3.16-.72-6.34-.08-9.51-.3Zm28.65,27.72c-.06-.4-.11-.8-.19-1.19-.52-2.6-1.18-5.17-1.4-7.83-.1-1.17-.26-2.34-.6-3.47-.25-.83-.61-1.6-1.28-2.18-.16-.14-.33-.37-.6-.2-.27,.18-.12,.41-.03,.62,.29,.71,.48,1.45,.61,2.19,.12,.66,.21,1.32,.3,1.98,.03,.23,.08,.52-.21,.58-.34,.07-.31-.25-.34-.47-.04-.27-.07-.55-.11-.82-.16-1.19-.4-2.36-.85-3.49-.08-.19-.16-.41-.42-.38-.21,.02-.19,.23-.22,.38-.68,2.89-.31,5.68,.89,8.38,1.02,2.3,2.95,3.92,4.45,5.9Zm15.09-21.62c-.05-.08-.06-.13-.09-.15-4.47-2.81-9.17-2.64-13.97-1.04-.27,.09-.34,.33-.34,.55,0,.3,.3,.22,.48,.24,1.1,.15,2.21,.15,3.32,.11,.21,0,.53-.11,.55,.23,.02,.33-.3,.29-.52,.3-1.04,.05-2.07,.05-3.11-.04-.24-.02-.63-.23-.71,.13-.07,.32,.36,.37,.59,.47,1.55,.68,3.18,.9,4.86,.88,2.14-.03,4.19-.61,6.27-1.03,.89-.18,1.8-.31,2.67-.65Zm-28.75,1.43c-.84,.82-1.85,1.2-2.87,1.58-.28,.1-.57,.18-.87,.23-.21,.04-.5,.16-.57-.17-.06-.28,.23-.3,.42-.36,.39-.13,.8-.24,1.19-.37,.79-.27,1.53-.64,2.16-1.2,.24-.21,.41-.44,.27-.78-.16-.39-.48-.2-.72-.16-1.34,.18-2.6,.62-3.83,1.17-1.59,.71-3.22,1.26-4.95,1.48-1.89,.24-3.7,.78-5.45,1.51-.13,.05-.32,.05-.34,.33,2.24,.06,4.4,.6,6.62,.63,3.15,.05,6.1-.52,8.63-2.57,.48-.39,.65-.71,.31-1.32Zm-8.69,13.71c1.06-.96,1.99-1.93,3.07-2.71,1.59-1.15,3.18-2.28,4.77-3.44,1.06-.77,1.94-1.7,2.57-2.85,.25-.45,.14-.84-.16-1.13-.3-.28-.54-.7-1.15-.5-1.39,.46-2.69,1.07-3.9,1.9-3.03,2.1-4.2,5.29-5.2,8.72Zm-18.9,37.54c-1.72-.77-2.82-2.05-4.02-3.22-.37-.35-.8-.63-1.3-.77-.66-.18-1.25,.09-1.33,.74-.15,1.2-.65,2.1-1.64,2.83-.73,.53-.67,1.19,0,1.82,.23,.22,.5,.41,.78,.57,1.03,.61,2.14,1.1,3.12,1.8,.09,.06,.25,.18,.29,.08,.3-.82,.91-.44,1.46-.35,0-.58-.4-1.1-.16-1.6,.35-.72,.99-.05,1.49-.18,.03-.51-.47-.97-.24-1.47,.33-.71,.91,0,1.55-.24Zm24.08-.97c.01-1.62-.35-1.93-1.81-1.62-.11,.02-.22,.07-.34,.08-.57,.05-.89,.32-1.05,.9-.15,.53-.43,1.01-.67,1.51-.1,.2-.2,.5-.48,.38-.33-.13-.19-.43-.09-.66,.19-.42,.4-.83,.61-1.24,.07-.14,.2-.3,.1-.45-.12-.17-.3-.03-.44,0-1.48,.37-2.93,.85-4.32,1.46-1.39,.61-2.77,1.27-3.87,2.37-.34,.34-.26,.46,.15,.57,.62,.18,1.24,.36,1.85,.57,.66,.22,1.2,.29,1.93-.09,2.28-1.18,4.69-2.09,7.28-2.24,.88-.05,.99-.53,1.13-1.14,.04-.16,.03-.32,.04-.39Zm-12.17,9.02c.72-.02,1.1-.53,1.41-1.08,.27-.49-.05-.89-.36-1.24-.23-.25-.51-.46-.8-.66-1.22-.84-2.59-1.33-4.01-1.62-1.92-.39-3.86-.69-5.64-1.59-.31-.16-.62-.3-.87,.02-.23,.3-.33,.66-.09,1.03,.31,.49,.78,.79,1.29,1,1.93,.82,3.83,1.69,5.6,2.83,1.04,.67,2.2,1.17,3.47,1.3ZM87.38,16.85c-2.63,.37-4.95,1.02-6.67,2.97-1.49,1.7-3.26,2.98-5.3,3.92-.19,.09-.59,.03-.49,.43,.08,.34,.37,.35,.66,.35,1.9-.02,3.69-.47,5.38-1.36,2.39-1.27,3.97-3.41,5.71-5.37,.22-.25,.41-.54,.71-.94Zm-49.42,61.35c0-.31,0-.56,0-.81,.01-.32,.22-.65,.49-.53,.9,.4,1.14-.06,1.27-.8,.02-.11,.17-.21,.29-.28,.2-.11,.19-.22,.04-.37-.89-.86-1.48-1.95-2.28-2.87-1.04-1.2-2.13-1.03-2.73,.44-.31,.77-.76,1.25-1.61,1.43-1.1,.24-1.24,.75-.45,1.57,.88,.92,1.99,1.57,2.97,2.37q.52-.83,2.01-.15Zm48.75-40.53c-1.48-2.06-3.22-3.62-5.4-4.69-2.72-1.33-5.94-2.36-6.66-2.09,.68,.53,1.37,1.03,2.01,1.58,.25,.21,.88,.37,.59,.75-.29,.39-.61-.16-.88-.35-.63-.43-1.22-.9-1.82-1.36l-.12,.19c3.09,3.92,7.59,4.98,12.28,5.96Zm-15.43-3.44c1.31,.96,1.76,2.23,2.07,3.57,.09,.4,.21,.78,.47,1.13,1.68,2.35,3.97,4.03,6.27,5.69,.05,.04,.13,.06,.18-.07-.42-1.28-.78-2.62-1.36-3.88-1.29-2.79-3.23-5.03-5.79-6.73-.2-.13-.43-.43-.72-.13-.27,.28-.64,.34-1.12,.41Zm-25.29,3.17c2.2,1.08,4.31,2.2,6.21,3.7,.3,.24,.39,.05,.47-.2,.32-.97,.7-1.91,1.17-2.81,.15-.29,.31-.57,.54-.98-1.71,.6-3.29,.91-4.92,.81-.32-.02-.73,0-.85-.35-.14-.39,.29-.52,.54-.7,1.26-.94,2.44-2,3.8-2.86-2.02,0-3.97-.34-5.92-.65-1-.16-1.42,.36-1.89,1.05,.41,.1,.77,.17,1.12,.28,.36,.1,.69,.27,.98,.49,.42,.32,.78,.69,.64,1.27-.14,.57-.62,.77-1.14,.87-.24,.04-.5,.05-.74,.07Zm91.96,69.59c0,1.32,1.06,2.04,2.34,1.48,1.2-.52,2.35-1.18,3.47-1.85,.72-.43,1.07-1.16,.92-2.02-.16-.89-.79-1.36-1.61-1.63-2.12-.68-4.47,1.47-4.99,3.13-.09,.29-.14,.58-.13,.89ZM72.23,63.5c-.63,.04-.71-.33-.69-.8,.02-.32,0-.65,0-.97,.03-1.48-.11-2.95-.47-4.39-.22-.89-.86-1.33-1.84-1.34-.61,0-.93,.39-1.22,1.29-.58,1.83-.32,3.71-.39,5.57-.01,.35,.24,.41,.5,.44,1.35,.19,2.69,.37,4.1,.21Zm22.24-35.62c.45,.03,.57-.23,.75-.39,.46-.42,.91-.85,1.37-1.26,.15-.13,.33-.32,.53-.1,.19,.21,0,.39-.14,.54-.37,.37-.83,.65-1.14,1.11,2.82-.48,8.19-5.31,8.76-7.83-4.23,1.48-8.21,3.32-10.14,7.93Zm.34-13.23c-3.45,3.62-3.96,7.76-2.64,12.23,.09-.13,.1-.36,.14-.59,.22-1.35,.17-2.71,.1-4.07-.01-.2-.04-.45,.24-.49,.33-.05,.37,.21,.39,.44,.04,.55,.09,1.1,.11,1.65,.02,.81,0,1.63,0,2.51,.41-.65,.88-1.22,1.09-1.98,.4-1.45,.58-2.94,.66-4.44,.09-1.72,.15-3.45-.09-5.27Zm-5.84,8.19c-2.39-1.03-4.64-1.03-6.79,.31-1.94,1.21-4.03,1.91-6.33,1.97-.6,.02-.69,.24-.44,.78,.22,.45,.54,.26,.83,.19,1.36-.37,2.73-.63,4.13-.85,1.23-.19,2.49,.2,3.68-.27,.08-.03,.3,.05,.3,.08,.02,.43,.35,.27,.49,.21,1.48-.59,2.87-1.32,4.12-2.43Zm41.3,14.99c-.04,1.05,.3,1.99,.85,2.88,.18,.29,.38,.43,.73,.22,1.56-.92,2.68-2.18,3.1-3.97,.07-.31,.15-.65-.03-.95-.52-.87-1.25-1.42-2.31-1.36-1.02,.06-1.72,.6-2.09,1.55-.21,.52-.25,1.08-.25,1.63ZM62.3,77.87c-.72-.15-.94,.17-.86,.83,.05,.46-.08,.92-.19,1.36-.23,.9-.24,.91,.72,.89,1.74-.02,3.44,.32,5.15,.51,.86,.1,1.85-.2,2-.64,.16-.46-.34-1.1-1.23-1.58-.08-.04-.16-.09-.25-.13-1.69-.81-3.55-.92-5.34-1.24Zm26.25-44.37c-1.04-.81-1.95-1.49-2.95-2.03-1.37-.74-2.79-1.25-4.42-1.14-1.86,.12-3.68-.17-5.41-.93-.17-.07-.4-.34-.54-.11-.11,.18-.08,.5-.02,.74,.06,.22,.33,.22,.53,.27,1.92,.52,3.79,1.18,5.57,2.06,.41,.2,.81,.48,1.25,.59,1.9,.5,3.85,.59,5.98,.56ZM30.55,105.97c.3-.06,.41-.1,.52-.11,.49-.04,.57-.56,.64-.81,.11-.4-.39-.37-.7-.42-.64-.1-1.29-.09-1.93-.1-.24,0-.5-.06-.5-.35,0-.32,.29-.32,.52-.32,.6,0,1.2,.03,1.8,.07,1.02,.07,2.04,.2,2.97,.61,.49,.22,.94,.4,1.57,.33-1.43-1.32-2.84-2.52-4.68-3.07-.56-.17-1.12-.33-1.58,.25-.17,.21-.45,.2-.71,.16-.39-.06-.78-.11-1.17-.15-1.17-.12-2.3,.09-3.43,.46,.35,.21,.7,.37,1.07,.49,.97,.31,1.91,.68,2.92,.84,.27,.04,.41,.2,.44,.46,.03,.21-.11,.27-.29,.31-.96,.23-1.42,.04-1.97-.82-.08-.12-.18-.24-.33-.19-.23,.09-.09,.24-.06,.4,.14,.69,.62,.85,1.23,.87,.57,.02,1.2-.2,1.64,.38,.17-.23,.31,.18,.37,.06,.39-.77,.81-.66,1.27-.08,.03,.04,.13,.01,.2,.01,.55,0,.58,.24,.18,.71ZM48.09,16.51c1.76,2.62,4.23,4.08,6.97,5.03,1.39,.48,2.82,.84,4.15,1.49,.55,.27,1.1,.53,1.64,.8,0-.11-.01-.16-.05-.18-.1-.06-.2-.11-.31-.16-2.33-1.09-4.29-2.61-5.71-4.78-.1-.15-.24-.3-.39-.38-1.95-.97-4.04-1.49-6.31-1.83Zm25.97,2.25c.29-.27,.47-.55,.59-.87,.08-.19,.13-.39,.32-.52,.9-.61,1.61-1.45,2.42-2.16,.38-.34,.83-.74,1.08-1.26,.78-1.68,1.23-3.46,1.56-5.38-.98,.66-1.87,1.31-2.64,2.1-.99,1.03-1.77,2.2-2.05,3.62-.26,1.37-.68,2.68-1.29,3.93-.07,.14-.19,.27,0,.53Zm32.77,10.04c-.17-.01-.26-.02-.35-.02-2.94,0-5.82,.63-8.75,.74-.45,.02-.9,.19-1.3,.43-.14,.08-.3,.18-.25,.37,.05,.2,.24,.18,.41,.17,.62-.04,1.24-.09,1.86-.1,.24,0,.59-.05,.6,.3,0,.31-.32,.25-.54,.27-.63,.05-1.26,.09-2,.14,3.82,1.57,8.34,.57,10.32-2.29ZM65.46,6.88c-.03,.3-.08,.59-.1,.89-.13,2.26-.26,4.53,.8,6.65,.07,.14,.11,.3,.18,.45,.7,1.48,1.15,3.02,1.09,4.67,0,.17-.07,.41,.15,.49,.14,.05,.35,.05,.47-.02,.22-.13,.01-.33-.02-.49-.14-.66-.19-1.32-.24-1.99-.07-1.12,.27-2.2,.26-3.3-.03-2.72-1.34-5.03-2.59-7.36Zm31.06,26.98c-.03,.07-.06,.14-.08,.21,.8,.44,1.61,.88,2.41,1.32,.19,.1,.52,.16,.4,.46-.14,.36-.42,.14-.64,.04-.85-.41-1.7-.83-2.48-1.38-.15-.11-.29-.15-.42,.01-.18,.22,.05,.26,.16,.35,.68,.52,1.33,1.07,2.03,1.55,2.45,1.68,5.22,1.82,8.07,1.61-2.91-1.98-5.91-3.72-9.47-4.17Zm-3.59,3.04c1.33,2.01,2.47,4,4.37,5.41,1.1,.81,1.05,.85,2.14,.03,.34-.26,.42-.48,.22-.86-.36-.68-.77-1.3-1.28-1.88-1.14-1.31-2.73-2.03-4.05-3.11-.15-.13-.29-.14-.42,.01-.16,.18,.01,.3,.1,.41,.66,.8,1.34,1.58,2.16,2.23,.17,.13,.45,.29,.23,.55-.2,.24-.42,.03-.6-.11-.83-.64-1.5-1.42-2.17-2.22-.15-.18-.24-.46-.73-.46Zm-25.45,28.2c.3,.6,.26,1.09,.32,1.57,.11,.92,.25,1.83,.42,2.74,.12,.6,.88,1.23,1.43,1.25,.56,.02,.92-.32,1.13-.77,.25-.54,.44-1.12,.49-1.72q.11-1.31,1.38-1.37s.05-.03,.12-.07c-.62-.01-1.19-.04-1.75-.18-.2-.05-.36-.14-.32-.37,.03-.19,.21-.23,.38-.23,.31,0,.62,0,.93,0v-.17c-1.45-.13-2.91-.29-4.52-.66Zm1.27-16.45c.4-1.37,.76-2.58,1.12-3.79,.1-.34,.03-.66-.11-1-.9-2.23-1.49-4.51-1.16-6.95,.07-.48,.2-.95,.15-1.48-.68,.48-.1,1.18-.47,1.69-.18-.65-.29-1.29,.02-1.95-.29,.02-.34,.2-.33,.4,.15,2.1-.25,4.14-.6,6.19-.1,.56,.32,1.03,.09,1.58-.16,.37-.13,.77-.1,1.16,.1,1.44,.76,2.7,1.38,4.15ZM56.21,8.79c-.25,2.74,2.27,6.81,4.85,8.02-.03-3.56-2.19-5.92-4.85-8.02Zm41.43,8.25c-.78,.94-1.45,1.67-1.9,2.56-.14,.27-.24,.55-.26,.85-.2,2.26-.41,4.52-1.92,6.4-.17,.21-.09,.36,.15,.48,.24,.12,.33,.02,.41-.18,.55-1.3,1.48-2.33,2.38-3.39,.6-.71,1.08-1.5,1.19-2.46,.17-1.36-.03-2.71-.06-4.28ZM44.41,108.48c-.78-.42-1.64-.59-2.49-.71-1.05-.15-2.12-.16-3.16,.11-.31,.08-.76,.1-.75,.57,0,.54-.36,.7-.75,.86-.53,.22-1.1,.35-1.58,.68-.27,.18-.45,.4-.4,.74,.02,.16,.07,.36,.27,.34,.23-.02,.07-.2,.08-.31,.03-.3,.25-.13,.36-.1,1.07,.28,2.05,.02,3.03-.39,.28-.12,.56-.23,.84-.3,.19-.04,.52-.03,.43,.25-.16,.49,.13,.34,.33,.28,1.29-.4,2.57-.81,3.89-1.22-1.21-.09-2.37,.05-3.52,.34-.15,.04-.32,.06-.48,.06-.15,0-.26-.09-.31-.23-.05-.16,.05-.29,.18-.33,.52-.18,1-.51,1.56-.5,.83,0,1.65-.17,2.5-.12Zm30.8-18.14c-.28,0-.55-.01-.83,0-.44,.02-.75,.22-.8,.69-.05,.5,.24,.69,.68,.77,.56,.1,1.13,.22,1.68,.35,1.44,.34,2.55,1.24,3.73,2.03,.42,.28,.86,.54,1.3,.08,.47-.47,.17-.94-.09-1.38-.08-.14-.2-.26-.32-.36-1.54-1.34-3.3-2.13-5.36-2.19Zm31.68-56.27c-.68-.29-1.28-.63-1.89-.96-.89-.48-1.87-.85-2.84-.77-1.75,.14-3.45,.18-5.12-.41-.19-.07-.48-.17-.52,.22-.04,.3,.05,.53,.38,.52,1.47-.03,2.71,.68,4.01,1.19,1.99,.78,3.98,.43,5.98,.2Zm-41.45,33.55c-.4,.84-.78,1.55-1.35,2.14-.52,.54-1.1,.99-1.88,1.08-.92,.11-1.51-.51-1.35-1.43,.08-.44,.28-.83,.52-1.2,.53-.85,1.21-1.57,1.92-2.27,.14-.14,.36-.24,.38-.55-.9,.45-1.71,.93-2.41,1.56-.81,.73-1.54,1.54-1.85,2.62-.19,.67-.23,1.37,.29,1.89,.52,.53,1.2,.61,1.93,.4,1.57-.44,2.54-1.6,3.49-2.81,.32-.41,.49-.81,.31-1.45Zm22.57-20.73c.28-.27,.35-.51,.45-.75,.52-1.22,.53-2.52,.54-3.81,0-1.62,0-3.23,.47-4.8,.04-.15,.13-.31-.11-.4-.27-.1-.3,.12-.37,.28-.44,1.04-.91,2.07-1.3,3.13-.79,2.12-.42,4.2,.33,6.34Zm5.54-2.47c0-2.42-1.01-4.54-1.65-6.75-.07-.25-.29-.35-.47-.32-.29,.04-.1,.3-.09,.45,0,.25,.06,.5,.09,.75,.24,1.83,.54,3.65,.12,5.5-.07,.33,0,.69,0,1.03,0,.16,.03,.39,.22,.39,.56-.02,1.15,.39,1.59,.18,.39-.18,.13-.85,.19-1.24Zm-30.91,4.91c.51,.27,.96,.46,1.35,.74,.24,.17,.44,.19,.7,.15,.89-.17,1.78-.24,2.68-.28,1.15-.06,1.15-.07,.68-1.18-.07-.16-.05-.52-.32-.4-.55,.25-.52-.16-.58-.45-.08-.4-.35-.67-.64-.36-.47,.48-.79,.32-1.26,.05-.26-.15-.65-.52-.97-.09-.48,.65-1.03,1.23-1.64,1.83Zm16.27,14.15c-.5,.11-.95,.24-1.4,.3-3.7,.52-7.4,.52-11.09-.17-.17-.03-.39-.22-.49,.01-.12,.28,.18,.33,.35,.4,1.11,.5,2.29,.7,3.48,.88,2.7,.4,5.38,.24,8.04-.36,.55-.12,1.1-.29,1.1-1.07Zm6.08,45.31c1.62,.17,2.85,.94,4.22,1.32,.2,.06,.45,.08,.5,.31,.16,.87,.63,.1,.65,.05,.29-.81,.99-.66,1.6-.72,.45-.04,1.13,.02,1.19-.44,.06-.46-.6-.61-1.03-.75-2.32-.74-4.63-.64-7.12,.21Zm-25.27-43.97c-.48-.23-.88-.45-1.17-.81-.56-.71-.41-1.36,.39-1.75,.42-.21,.87-.3,1.34-.32,1.46-.07,2.82,.29,4.14,.92,0-.08,.03-.13,.02-.16-1.04-1.82-4.42-2.72-6.23-1.68-.83,.47-.97,1.21-.94,2.07,.03,.77,.49,1.17,1.11,1.44,.4,.17,.81,.33,1.35,.3Zm2.36-24.56c-1.08,1.44-2.26,2.75-3.81,3.68-.5,.3-.45,.5-.03,.83,.65,.51,1.34,1,1.84,1.63,.22,.28,.34,.22,.57,.22,.31,0,.37-.17,.4-.43,.1-.83,.23-1.65,.33-2.47,.14-1.16,.48-2.29,.7-3.45Zm29.39-13c-.07-.58-.09-1-.18-1.41-.53-2.48-.71-4.94,.28-7.36,.05-.12,.08-.29,.03-.4-.38-.95-.85-1.85-1.43-2.81-.66,2.82,.14,10.55,1.3,11.99Zm-21.03,18.28c-.45,.77-.76,1.6-.92,2.49-.08,.41-.2,.74,.23,1.07,.31,.24,.48,.67,.93,.78,1.08,.26,2.14-.15,3.21-.12,.01,0,.03-.03,.11-.13-1.31-1.23-2.23-2.81-3.56-4.09Zm10.64,5.61c-.42,2.68-.57,5.25-.5,7.84,.85-1.82,1.69-3.63,2.67-5.37,.08-.14,.09-.28-.07-.35-.97-.37-1.39-1.3-2.1-2.13Zm-7.4-11.31c.08,3.37,1.13,6.52,1.71,9.96,.29-.51,.62-.63,.96-.82-.6,.07-.54-.33-.54-.67,.01-2.08-.13-4.14-.68-6.16-.25-.9-.64-1.7-1.44-2.3Zm-8.24,26.01c-.07-.23,.12-.61-.18-.72-.27-.1-.48,.21-.68,.38-.79,.67-1.53,1.4-2.17,2.22-.37,.47-.78,.92-.94,1.52-.08,.32-.19,.65,.09,.91,.28,.26,.61,.15,.91,.04,1.2-.42,3-3.06,2.96-4.35Zm36.5-25.13c.47,0,.73-.21,.6-.45-.44-.78-1-1.61-1.8-1.85-1.84-.56-3.4-1.51-4.84-2.72-.15-.12-.34-.44-.57-.19-.21,.23,.05,.43,.21,.58,1.5,1.38,2.85,2.93,4.68,3.91,.57,.31,1.13,.62,1.72,.73Zm-42.85,6.15c-1.7-.28-3.33-.57-4.96-.82-1.39-.21-2.79-.39-4.18-.56-.18-.02-.49-.18-.56,.18-.06,.32,.44,1.01,.76,1.03,2.63,.13,5.23,.62,7.86,.59,.39,0,.71-.13,1.08-.41Zm2.52,17.58c.75,.03,1.54-.14,2.34-.26,.17-.03,.4,.01,.41-.26,0-.23,.02-.49-.24-.6-1.43-.61-2.9-1.07-4.49-.75-.34,.07-.78,.19-.79,.65,0,.43,.3,.7,.68,.88,.64,.3,1.33,.35,2.09,.34Zm12.9,19.28c.45-.03,.73-.18,.93-.61,.34-.71-.36-.63-.59-.87-.85-.87-1.9-1.35-3.13-1.4-.34-.01-.69-.03-.84,.31-.16,.35-.13,.75,.18,1.02,1.01,.85,2.19,1.35,3.46,1.55Zm-16.54-2.55c.69-.07,1.28-.14,1.88-.18,.25-.02,.45-.04,.54-.32,.25-.77,.47-1.54,.42-2.36-.02-.36-.18-.54-.55-.56-.67-.04-1.33,.08-1.99,.14-.27,.02-.34,.2-.26,.44,.32,.92,.29,1.85-.04,2.84Zm80.07-39.68c.04,.24,.09,.58,.14,.92,.06,.45,.24,.6,.68,.33,.9-.55,1.54-1.31,1.96-2.25,.29-.65,.06-1.33-.55-1.67-.57-.32-1.03,0-1.42,.36-.64,.58-.76,1.39-.81,2.31Zm-60.96,6.81c.5-.6,1.22-.72,1.33-1.31,.13-.68,.35-1.33,.5-2,.05-.21,.14-.39-.08-.55-.61-.47-1.22-.94-1.98-1.52,.13,1.84,.32,3.5,.22,5.39Zm7.62-1.82c.42-.48,.73-.87,1.07-1.23,.36-.39,.57-.78,.46-1.36-.33-1.74,.04-3.38,.8-4.95,.07-.14,.29-.35,.06-.48-.25-.13-.34,.13-.42,.32-.3,.72-.61,1.44-.9,2.17-.68,1.72-1.15,3.49-1.07,5.52Zm-16.27,27.3c.02,.35,0,.65,.05,.94,.07,.48,.33,.82,.81,.91,.47,.09,.79-.18,1.01-.56,.46-.81,.39-1.63-.03-2.43-.2-.38-.53-.59-.96-.53-.42,.06-.71,.35-.8,.76-.07,.31-.06,.64-.09,.91Zm25.32-32.17c.24,1.39,.46,2.77,.23,4.18-.02,.13-.05,.29,.11,.37,.37,.19,.8,.44,1.17,.26,.44-.22,.72-.68,.95-1.14,.02-.05-.06-.16-.12-.23-.88-1.07-1.6-2.24-2.33-3.44Zm-7.59-3.44c-.43-.1-.82-.15-1.18-.28-.86-.32-1.26,.29-1.72,.8-.47,.53,.14,.81,.29,1.19,.07,.19,.22,.35,.31,.54,.11,.24,.22,.3,.46,.11,.78-.63,1.48-1.31,1.85-2.35Zm-18.28,70.25c-1.62-1.21-3.1-1-4.12,.53-.09,.13-.33,.26-.12,.46,.16,.15,.31,.03,.49-.05,.7-.33,1.09-.17,1.28,.58,.05-.47,.32-.52,.59-.61,.35-.11,.79-.21,.91-.57,.19-.59,.5-.6,.97-.33Zm26.51-68.08c.37,1.27,.85,2.47,1.6,3.56,.61,.88,.56,.85,1.35,.18,.5-.43,.37-.63-.06-.97-1.05-.83-2.11-1.65-2.89-2.76Zm-27.78,3.16c-.51,.96-1,1.9-1.59,2.78-.08,.13-.36,.29-.14,.45,.23,.16,.65,.46,.79,.3,.55-.62,1.07-.27,1.73,.01-.46-1.22-.65-2.37-.79-3.54Zm17.31-21.76c.96-.22,1.76-.26,2.56-.13,.2,.03,.46,.07,.4-.27-.11-.66-.24-1.31-.37-1.97-.05-.25-.17-.32-.37-.11-.7,.78-1.41,1.56-2.23,2.47Zm-42.81,13.27c-.19-1.42-.48-2.79-1.46-3.91-.15-.17-.35-.38-.59-.22-.2,.13-.08,.38-.01,.57,.46,1.31,1.15,2.49,2.06,3.56Zm86.53,20.58c.8,1.38,1.17,2.89,1.57,4.52,.39-.74,.8-1.51,.56-2.07-.43-.98-1.13-1.87-2.12-2.45Zm-70.47-15.58c-1.03,.67-1.82,1.33-2.61,2-.13,.11-.34,.26-.06,.42,.37,.23,.76,.43,1.15,.63,.22,.12,.28-.05,.34-.2,.37-.89,.74-1.77,1.18-2.85Zm-31.14,61.39c1.39,.15,2.8,.48,4.05-.49-.19-.3-.26-.8-.88-.66-1.1,.25-2.17,.58-3.17,1.15ZM47.28,36.6c.04-.61-.22-.79-.48-.99-.78-.59-1.71-.61-2.61-.71-.24-.03-.38,.17-.43,.37-.07,.23,.14,.33,.29,.41,.69,.35,1.42,.52,2.19,.48,.37-.02,.73-.06,1.05,.44Zm67.04-2.43c-.36,.09-.35,.37-.25,.65,.23,.67,.46,1.35,.74,2.01,.19,.45,.5,.83,.89,1.13,.19,.14,.41,.23,.61-.01,.17-.21,.07-.37-.08-.55-.69-.81-1.48-1.58-1.47-2.77,0-.21-.1-.47-.44-.45Zm-24.32,3.95c-.46,2.03-.53,4.05,.45,6.12-.05-2.14-.13-4.13-.45-6.12Zm-40.57,4.18c-.11-.03-.17-.07-.23-.07-1.51,.11-3.03,.22-4.54,.35-.13,.01-.27,.07-.38,.14-.18,.12-.32,.24-.08,.48,.28,.27,.44,.71,.93,.23,.19-.19,.55-.23,.83-.3,1.13-.28,2.27-.54,3.47-.82Zm56-19.39c-.93,.06-1.75-.01-1.87,1.08-.02,.15-.23,.27-.34,.42-.4,.56-.95,1.01-1.23,1.66,1.32-.81,2.4-1.88,3.45-3.17Zm6.04,4.7c-.18,.02-.29,.1-.33,.25-.06,.25,.04,.48,.25,.6,.91,.54,1.64,1.27,2.36,2.02,.13,.14,.28,.28,.48,.14,.24-.18,.03-.33-.08-.46-.71-.85-1.45-1.68-2.35-2.34-.11-.08-.23-.15-.33-.22Zm-24.14-9.55c-.18,.16-.46,.32-.4,.54,.29,.95,.38,1.94,.62,2.9,.08,.31,.42,.39,.69,.31,.31-.1,.16-.38,.09-.58-.25-.74-.51-1.48-.78-2.21-.11-.3-.25-.59-.21-.95Zm-30.13,93.3c.68-.41,1.42-.28,2.05-.64,.33-.19,.64-.48,.55-.76-.11-.32-.56-.32-.91-.24-.86,.18-1.4,.71-1.69,1.65Zm-14.83-76.74c.32-1.35,.04-2.63-.32-3.91-.46,1.35-.44,2.67,.32,3.91Zm.37,2.14c.41,1.36,1.39,2.04,2.35,2.72,.08,.06,.17,.06,.25,0,.17-.15,.05-.3-.03-.42-.65-.93-1.39-1.75-2.57-2.3Zm43.11-11.16c.99,.29,1.88,.61,2.91,1.07-.47-.79-.86-1.4-1.07-2.13-.6,.35-1.17,.67-1.84,1.06Zm41.78,18.58c-.03-.28-.17-.47-.54-.36-.26,.08-.54,.12-.8,.22-.37,.15-.97,.19-.97,.62,0,.37,.59,.31,.93,.41,.07,.02,.13,.05,.19,.07,.48,.14,1.2-.42,1.19-.96Zm-44.95,78.36c.07-.01,.16,0,.2-.05,.41-.44,.9-.77,1.37-1.14,.17-.13,.16-.38,.01-.57-.15-.19-.36-.22-.56-.14-.6,.23-1.08,.62-1.39,1.19-.21,.39,0,.6,.37,.7ZM126.35,48.34c1.17-.19,2.2-.34,3.34-.24-1.64-1.37-2-1.41-3.34,.24Zm-54.58,43.28c.59,0,1.01-.09,.98-.6-.04-.71-.66-.64-1.14-.68-.38-.03-.81,.03-.75,.55,.07,.6,.56,.71,.91,.73ZM37.46,38.54c1.24-.32,2.17-1.07,2.95-2.05-1.08,.54-2.27,.92-2.95,2.05Zm51.42,8.1c.52-.25,.92-.45,1.33-.64,.23-.11,.2-.25,.11-.45-.24-.54-.47-1.09-.78-1.84-.13,1.08-.3,1.97-.66,2.93Zm-48.45-11.14c-1.1-.57-2.22-1.11-3.69-1.25,1.22,.84,2.38,1.27,3.69,1.25Zm41.01,7.8c.41-.4,.74-.7,1.05-1.02,.61-.63,.59-.64-.23-.91-.31-.1-.48-.07-.57,.25-.13,.5-.28,1-.25,1.68Zm-38.44-2.9c-.26-1.13-.79-2.11-1.57-2.95,.17,1.17,.92,2.04,1.57,2.95Zm-.96-33.17c-.66-.8-1.28-1.65-2.41-1.81,.54,.95,1.46,1.4,2.41,1.81Zm40.6,113.23c-.97,.13-1.9,.26-2.83,.39,.33,.18,.68,.18,.95,.31,.85,.42,1.43,.18,1.87-.7Zm4.25-85.01c-.24,.22-.79,.24-.69,.56,.12,.4,.44,.87,.87,.97,.24,.05,.54-.43,.48-.71-.07-.31-.3-.65-.66-.82Zm2.11-11.75c-.32,.27-.78,.3-.69,.7,.18,.75,.55,1.41,1.18,1.9-.21-.84-.63-1.61-.5-2.6Zm-2.03,86.33c-1-.46-1.89-.63-2.8-.74-.39-.05-.78,0-1.16,.09-.19,.04-.38,.1-.24,.37,.19,.34,.76,.38,.88,.01,.13-.4,.33-.34,.62-.29,.85,.12,1.63,.56,2.7,.57Zm-.09-65.17q-1.15,1.17,.15,1.85c.08,.04,.16,.06,.34,.12-.17-.68-.32-1.28-.48-1.97Zm-2.77-14.76c.41,.17,.8,.31,1.16,.49,.39,.19,.76,.43,1.14,.64,.16,.09,.28,.11,.37-.11,.1-.23,.03-.35-.17-.43-.6-.24-1.2-.49-1.8-.71-.21-.08-.44-.07-.7,.12Zm-12.4,79.39q.43,.51,1.14,.82c-.22-.49-.23-.51,.23-.71,.22-.1,.26-.25,.23-.43-.03-.22-.22-.2-.38-.21-.49-.02-.88,.21-1.23,.53Zm27.26-5.92c-1.48-.53-1.71-.45-2.75,.85,.9-.28,1.76-.54,2.75-.85ZM73.77,19.25c-.61,.37-1.08,.82-1.38,1.42-.12,.24-.01,.33,.15,.44,.16,.11,.29,.11,.38-.09,.28-.59,.57-1.18,.85-1.77Zm39.83,104.46c.46,.28,.89,.43,1.33,.56,.13,.04,.32,.1,.31-.1-.01-.43,.19-.87-.01-1.44-.14,.34,.09,.91-.47,.67-.46-.2-.73,.07-1.16,.31Zm-25.51-12.8c-.3-.08-.39-.55-.7-.46-.54,.17-1.05,.02-1.57,.01-.52,0-.82,.2-.76,.84,.95-.95,2-.39,3.03-.4Zm52.89-68.86c.01-.1,0-.2-.11-.22-.08-.01-.2,.02-.24,.08-.37,.45-.78,.85-1.25,1.19-.1,.07-.15,.2-.04,.29,.06,.05,.17,.07,.25,.05,.32-.05,1.36-1.11,1.39-1.4Zm-48.57-12.81c-.01-.23-.1-.45-.32-.31-.42,.27-.44,.77-.53,1.22-.02,.12,.07,.26,.18,.24,.44-.06,.38-.51,.54-.79,.07-.12,.09-.26,.13-.37Zm-2.29,1.22c.02,.21-.03,.44,.2,.48,.23,.04,.29-.17,.33-.36,.03-.13,.07-.26,.09-.4,.05-.24,.35-.6,0-.71-.41-.13-.45,.34-.56,.62-.05,.12-.05,.27-.07,.37Zm24.93,.94l-.16,.11c.19,.27,.39,.54,.57,.83,.14,.22,.44,.41,.22,.72-.11,.16-.16,.28,.04,.39,.14,.08,.27,.03,.38-.06,.14-.11,.22-.25,.12-.42-.33-.57-.69-1.12-1.17-1.57Zm-46.77-6.93c-.02-.19-.11-.42-.32-.24-.36,.3-.49,.76-.52,1.23,0,.11,.1,.24,.23,.2,.4-.13,.34-.55,.5-.84,.05-.1,.07-.22,.12-.34Zm-1.74,.45c-.06-.21,.09-.54-.21-.58-.36-.04-.32,.33-.32,.55,0,.31-.33,.83,.11,.88,.45,.06,.3-.54,.42-.86Zm-23.97,10.41c-.3,.07-.64,.08-.86,.34-.16,.19-.59,.38-.42,.59,.23,.28,.51,0,.7-.25,.17-.22,.49-.1,.68-.27,.1-.09,.25-.17,.2-.32-.04-.13-.19-.09-.31-.1Zm57.27,5.1c.16,.45,.18,1.02,.63,1.2,.18,.07,.59-.19,.77-.5-.5-.25-.95-.48-1.4-.7Zm-10.83-9.93c.06,.18-.06,.56,.24,.52,.46-.06,.25-.55,.36-.84,.07-.2,.03-.49-.25-.43-.37,.07-.29,.46-.35,.75Zm-3.02,3.56c-.64-.05-1.27-.1-1.92-.15,.55,.97,1.24,.48,1.92,.15Zm1.36-4.64c-.48-.06-.91,.09-1.4,.26,1.17,.57,1.21,.56,1.4-.26ZM46.74,11.79c-.51-.46-1-.97-1.8-1.03,.45,.62,.77,.8,1.8,1.03Zm90.93,102.59c-.62-.99-1.02-1.14-1.74-.76,.55,.24,1.06,.46,1.74,.76Zm-19.81-75.19c-.19-.23-.36-.55-.72-.63-.18-.04-.32,.15-.3,.3,.05,.39,.38,.56,.7,.67,.17,.06,.29-.09,.32-.34Zm16.15,.81c-.54,.45-1.08,.9-1.62,1.35,.04,.04,.08,.09,.12,.13,.69-.27,1.17-.79,1.5-1.49Zm-50.58-2.34c-.46-.34-.79-.08-1.07,.15-.19,.16,.03,.4,.14,.44,.53,.18,.55-.43,.92-.59Zm44.94,14.76c-.27-.37-.41-.74-.78-.74-.22,0-.51,.16-.57,.52,.43,.07,.83,.14,1.36,.23Zm-31.23,55.1c-.27,.21-.84,.04-.79,.42,.06,.4,.56,.32,.98,.41-.11-.3-.37-.51-.2-.83Zm-3.88-78.09c-.31,.08-.26,.38-.32,.61-.04,.15-.02,.37,.2,.34,.32-.04,.31-.35,.36-.59,.04-.17-.03-.32-.25-.36Zm-53.25,10.8c.06,0,.12,0,.17,0,.11-.67,.22-1.34,.33-2.01-.41,.63-.46,1.32-.5,2.01Zm46.86-5.49c-.54-.09-.83,.11-1.14,.2-.12,.04-.3,.07-.2,.27,.07,.14,.19,.2,.34,.11,.29-.16,.57-.33,1-.58ZM39.44,110.77c-.17-.28-.42-.2-.66-.16-.19,.03-.4,.11-.36,.32,.05,.3,.28,.11,.42,.08,.21-.04,.45-.02,.6-.24ZM79.61,45.16c-.21,.42-.41,.85-.32,1.34,.21-.42,.45-.84,.32-1.34ZM24.83,104.29c0-.41-.16-.67-.49-.79-.15-.05-.27,.15-.25,.25,.06,.39,.4,.42,.74,.54ZM69.57,24.97c0-.17-.01-.36-.21-.37-.23-.02-.29,.18-.29,.37,0,.18,0,.4,.25,.4,.24,0,.23-.23,.26-.4Zm24.91,83.19c.54,.18,.94,.31,1.34,.44q-.68-.64-1.34-.44ZM65.13,26.43c0-.15-.02-.3-.19-.31-.23,0-.3,.17-.31,.36,0,.14,.03,.3,.19,.31,.23,.01,.28-.18,.31-.37Zm30.48,80.48c-.14,0-.28,.03-.28,.2,0,.19,.14,.26,.31,.27,.14,0,.29-.04,.3-.2,.01-.2-.16-.24-.33-.27Zm-57.48-.3c-.34-.23-.61-.39-.97-.34-.02,0-.06,.09-.04,.12,.19,.32,.54,.23,.83,.3,.02,0,.04-.02,.17-.08Zm35.79-17.61s0,.03,0,.04h2.12s0-.03,0-.04h-2.12Z"/>
      <path class="cls-1" d="M73.58,133.38c-.05,2.69-2.71,4.45-5.1,3.37-1.36-.61-2.3-2.37-2.03-3.83,.17-.91,.64-1.6,1.61-1.77,.57-.1,.7-.37,.47-.85-.95-1.99-2.19-3.69-4.38-4.46-.34-.12-.98-.15-.84-.61,.13-.44,.74-.21,1.12-.13,1.16,.25,2.01,1,2.75,1.88,.81,.96,1.38,2.07,1.9,3.21,.12,.26,.18,.46,.59,.31,2.21-.83,3.97,.48,3.93,2.89Zm-4.81-1.16c.11-.28,.04-.47-.29-.54-.47-.09-1.17,.41-1.32,.93-.08,.29-.01,.5,.27,.62,.04,.02,.09,.03,.13,.04,.47,.08,1.19-.54,1.21-1.06Zm1.49-.75c-.06-.25-.2-.39-.44-.36-.28,.04-.54,.14-.54,.49,0,.17,.08,.36,.28,.29,.26-.08,.58-.12,.7-.42Z"/>
      <path class="cls-1" d="M70.57,3.28c0,.86-.94,1.8-1.78,1.8-.84,0-1.54-.82-1.54-1.81,0-.99,.69-1.72,1.61-1.7,1.01,.02,1.72,.73,1.71,1.7Zm-2.26,.45c.84,0,1.22-.34,1.24-1,.02-.52-.33-.55-.68-.56-.59-.03-1.05,.48-1.06,1.12,0,.39,.18,.49,.49,.44Z"/>
      <path class="cls-1" d="M76.23,1.48c0,.94-.84,1.77-1.76,1.76-.71,0-1.42-.69-1.4-1.34,.02-1.02,.72-1.76,1.64-1.76,.88,0,1.52,.57,1.52,1.34Zm-2.33,.09c-.05,.27-.06,.47,.3,.48,.56,.02,1.1-.41,1.11-.92,0-.44-.37-.38-.6-.4-.59-.05-.83,.3-.81,.84Z"/>
      <path class="cls-1" d="M150.15,69.29c.02,.25,.06,.51,.05,.76-.02,.26,.24,.71-.21,.73-.37,.02-.24-.43-.25-.67-.1-1.52-.18-3.04-.42-4.54-.13-.82-.32-1.63-.48-2.44-.04-.21-.23-.5,.08-.59,.31-.09,.32,.26,.38,.46,.56,2.06,.73,4.17,.86,6.29Z"/>
      <path class="cls-1" d="M45.06,46.72c-.16,1.19-.56,2.32-.88,3.47-.18,.67-.37,1.33-.55,2-.05,.18-.08,.4-.33,.34-.25-.06-.18-.3-.14-.47,.37-1.38,.77-2.75,1.14-4.13,.11-.42,.16-.86,.26-1.29,.04-.19,.08-.49,.33-.46,.28,.04,.11,.34,.17,.53Z"/>
      <path class="cls-1" d="M23.72,107.64c.06,.12,.11,.22,.17,.32,.85,1.35,2.18,2.16,3.41,3.09,.13,.1,.26,.19,.39,.28,.12,.09,.2,.21,.11,.35-.09,.14-.23,.17-.36,.07-1.37-.97-2.82-1.85-3.83-3.25-.16-.23-.32-.52,.11-.88Z"/>
      <path class="cls-1" d="M134.95,127.67c-.04,.13-.08,.27-.12,.4-.45,1.27-1.06,2.45-1.87,3.53-.18,.24-.4,.44-.62,.64-.14,.12-.33,.24-.5,.09-.19-.18,0-.35,.12-.47,1.18-1.16,1.92-2.58,2.48-4.11,.06-.16,.07-.4,.32-.38,.17,0,.22,.14,.2,.3Z"/>
      <path class="cls-1" d="M148.22,91.28c1.39,.23,2.77,.46,4.16,.71,.18,.03,.48,0,.42,.32-.05,.27-.29,.14-.46,.12-1.18-.18-2.37-.36-3.55-.55-.23-.04-.45-.1-.67-.17-.15-.05-.36-.1-.3-.3,.05-.2,.25-.16,.41-.13Z"/>
      <path class="cls-1" d="M76.95,7.52c-.05,.66-.09,1.33-.15,1.99-.02,.18-.07,.42-.3,.38-.23-.04-.18-.27-.17-.46,.11-1.21,.14-2.43,.08-3.65-.01-.2-.05-.47,.22-.49,.22-.01,.24,.27,.25,.43,.02,.6,0,1.19,0,1.79,.02,0,.04,0,.06,0Z"/>
      <path class="cls-1" d="M151.07,113.66c-.16,.01-.24-.03-.27-.13-.06-.19,.08-.3,.19-.42,.57-.61,1.08-1.26,1.46-2.01,.15-.31,.25-.64,.39-.96,.05-.13,.14-.25,.31-.19,.12,.05,.17,.18,.13,.29-.37,1.29-1,2.42-2.01,3.33-.06,.06-.17,.07-.2,.08Z"/>
      <path class="cls-1" d="M127.52,36.05c-.01-.95,1.15-2.8,1.95-3.16,.14-.06,.28-.09,.37,.05,.1,.14,0,.26-.11,.35-.99,.8-1.67,1.78-1.77,3.09-.01,.14-.07,.33-.23,.26-.25-.11-.18-.39-.21-.59Z"/>
      <path class="cls-1" d="M144.12,47.83c-.24,0-.4,.03-.45-.13-.07-.22,.12-.27,.27-.32,.95-.36,1.86-.79,2.53-1.6,.09-.1,.22-.18,.36-.06,.13,.11,.12,.25,.01,.36-.77,.85-1.72,1.42-2.71,1.76Z"/>
      <path class="cls-1" d="M48.95,25.44c-.05,.23-.22,.22-.38,.15-.95-.42-1.87-.9-2.67-1.57-.1-.08-.22-.2-.12-.35,.09-.14,.24-.12,.37-.03,.83,.58,1.67,1.15,2.62,1.52,.11,.04,.17,.15,.18,.28Z"/>
      <path class="cls-1" d="M5.03,97.12c-.87-.16-1.79-.34-2.71-.51-.16-.03-.35-.05-.32-.27,.03-.22,.22-.2,.38-.17,.95,.16,1.9,.33,2.84,.5,.15,.03,.34,.09,.27,.31-.06,.2-.24,.17-.46,.15Z"/>
      <path class="cls-1" d="M29.75,112.45c.81,.4,1.72,.58,2.59,.87,.11,.04,.18,.15,.14,.28-.05,.16-.18,.21-.33,.17-.81-.25-1.67-.35-2.43-.76-.16-.08-.34-.18-.28-.42,.04-.13,.16-.15,.3-.14Z"/>
      <path class="cls-1" d="M75.73,137.1c-.59-.03-1.19,0-1.78-.15-.14-.03-.29-.09-.28-.25,.01-.16,.18-.21,.31-.21,1.03,.05,2.05,.12,3.08,.19,.13,0,.27,.08,.24,.27-.03,.15-.16,.15-.27,.15-.44,0-.87,0-1.31,0Z"/>
      <path class="cls-1" d="M150.31,73.96c-.02,.41-.03,.83-.06,1.24-.01,.13-.08,.28-.25,.28-.17,0-.23-.16-.23-.29,.01-.82,.14-1.64,.06-2.47-.01-.11,.07-.22,.22-.21,.14,0,.22,.11,.22,.22,.01,.41,0,.82,0,1.23,.01,0,.02,0,.04,0Z"/>
      <path class="cls-1" d="M113.47,15.59c-.13,.25,.25,.85-.23,.86-.46,0-.2-.59-.26-.92-.06-.38-.06-.78-.09-1.16-.01-.16,.06-.27,.22-.28,.15-.02,.2,.1,.23,.21,.11,.4,.14,.81,.12,1.29Z"/>
      <path class="cls-1" d="M99.43,18.04c0,.19-.02,.58-.05,.97-.01,.14-.07,.29-.24,.28-.18,0-.22-.18-.22-.3,0-.71,0-1.42,.01-2.13,0-.14,.1-.27,.27-.24,.14,.02,.17,.14,.17,.26,.02,.32,.03,.64,.06,1.17Z"/>
      <path class="cls-1" d="M123.08,21.96c0-.25,0-.5,0-.75,0-.13,.03-.28,.22-.28,.19,0,.23,.14,.24,.27,.04,.61,.08,1.23,.11,1.85,0,.14-.04,.29-.21,.29-.17,0-.23-.14-.25-.28-.04-.36-.06-.73-.09-1.09,0,0-.01,0-.02,0Z"/>
      <path class="cls-1" d="M154.82,92.44c.44,.06,.87,.12,1.3,.18,.17,.02,.33,.09,.29,.29-.04,.21-.21,.17-.38,.16-.41-.04-.82-.05-1.23-.1-.23-.03-.62,0-.6-.3,.02-.33,.4-.18,.62-.22Z"/>
      <path class="cls-1" d="M132.11,32.01c.24,.05,.55,.11,.86,.2,.13,.04,.26,.13,.2,.3-.05,.16-.19,.19-.33,.15-.4-.12-.79-.2-1.21-.11-.17,.03-.41,.09-.44-.17-.03-.22,.19-.29,.37-.33,.16-.03,.32-.03,.56-.04Z"/>
      <path class="cls-1" d="M24,76.18c-.06-.04-.15-.07-.2-.14-.29-.36-.52-.76-.66-1.21-.04-.13-.07-.28,.1-.36,.12-.05,.24,.02,.3,.12,.23,.42,.46,.85,.67,1.28,.07,.15,0,.27-.21,.3Z"/>
      <path class="cls-1" d="M125.6,23.53c.28,.14,.8-.2,.82,.22,.02,.44-.52,.32-.83,.3-.31-.02-.88,.17-.88-.22,0-.53,.59-.13,.89-.29Z"/>
      <path class="cls-1" d="M114.96,17.48c-.36-.12-.98,.16-.99-.21,0-.53,.61-.24,.94-.26,.35-.03,.99-.34,1.02,.2,.02,.42-.67,.08-.97,.27Z"/>
      <path class="cls-1" d="M22.43,77.26c-.44-.17-.96-.21-1.39-.49-.1-.06-.19-.15-.14-.28,.06-.17,.22-.15,.35-.11,.41,.12,.83,.26,1.23,.4,.14,.05,.25,.14,.23,.3-.02,.13-.12,.19-.28,.18Z"/>
      <path class="cls-1" d="M113.32,19.09c-.16,.34,.18,1.01-.3,1.02-.38,.01-.16-.65-.19-1-.03-.33-.15-.95,.22-.95,.44,0,.17,.6,.28,.93Z"/>
      <path class="cls-1" d="M104.29,27.57c-.27,0-.47,.02-.5-.19-.02-.16,.14-.24,.27-.27,.41-.08,.81-.16,1.22-.22,.15-.02,.29,.03,.32,.19,.02,.13-.09,.2-.21,.23-.4,.09-.81,.18-1.11,.25Z"/>
      <path class="cls-1" d="M123.2,25.85c.1-.37-.13-.95,.23-.95,.43,0,.32,.57,.27,.9-.04,.3,.17,.87-.26,.85-.46-.01-.06-.58-.25-.81Z"/>
      <path class="cls-1" d="M111.31,17.61c-.2-.04-.78,.23-.78-.24,0-.43,.6-.13,.92-.22,.08-.03,.18,0,.27,.01,.22,.03,.53,.05,.49,.34-.03,.29-.32,.16-.51,.14-.09,0-.18-.02-.4-.04Z"/>
      <path class="cls-1" d="M75.58,135.04c.14,0,.27,0,.41,0,.15,0,.28,.06,.26,.24,0,.14-.12,.18-.24,.2-.32,.03-.64,.06-.96,.08-.15,0-.37,.04-.39-.17-.03-.24,.2-.28,.37-.32,.18-.04,.36-.04,.54-.06,0,0,0,.02,0,.03Z"/>
      <path class="cls-1" d="M121.49,24.52c-.14,0-.27,0-.41,0-.14,0-.3-.03-.32-.19-.02-.21,.14-.25,.31-.26,.29-.02,.59-.06,.88-.06,.17,0,.41,.02,.41,.26,0,.24-.23,.24-.41,.26-.16,.02-.32,0-.48,0,0,0,0,0,0-.01Z"/>
      <path class="cls-1" d="M129.95,134.15c-.24,.03-.41-.04-.38-.18,.08-.41,.46-.52,.78-.68,.13-.07,.28,.05,.25,.22-.08,.38-.41,.51-.64,.64Z"/>
      <path class="cls-1" d="M55.61,28.97c-.35,.11-.7,.34-1.22,.1,1.22-.58,2.32-1.14,3.58-1.27-.26,.26-.5,.53-.87,.61-.56,.04-.92,.6-1.49,.56Z"/>
      <path class="cls-1" d="M75.98,35.27c-.1-.14-.17-.3,.02-.41,.13-.08,.27-.05,.37,.08,.45,.55,.92,1.09,1.35,1.66,.16,.21,.33,.51-.2,.5-.52-.61-1.03-1.21-1.54-1.82Z"/>
      <path class="cls-1" d="M78.4,37.96c0-.58,.3-.25,.44-.11,.42,.41,.81,.85,1.22,1.28-.2,.21-.34,.05-.49-.03-.24-.53-.89-.65-1.17-1.14Z"/>
      <path class="cls-1" d="M74.76,34.25c-.07-.19-.18-.42,.18-.43,.31,0,.63,.09,.71,.4,.07,.3-.11,.51-.47,.47-.14-.15-.28-.3-.42-.45Z"/>
      <path class="cls-1" d="M60.22,17.11c.08,.09,.14,.21,.05,.3-.29,.32-.48,.02-.59-.17-.14-.24-.8-.35-.27-.82,.27,.23,.54,.45,.81,.68Z"/>
      <path class="cls-1" d="M60.46,41.13c-.32,.04-.27-.16-.21-.34,.14-.39,.42-.63,.8-.77,.31,.26,0,.4-.11,.56-.14,.2-.32,.36-.49,.55Z"/>
      <path class="cls-1" d="M89.81,7.75c-.26-.03-.36-.18-.28-.42,.06-.2,.16-.39,.39-.43,.21-.04,.27,.11,.3,.28-.14,.19-.27,.38-.4,.57Z"/>
      <path class="cls-1" d="M102.43,108.04c-.51,.27-.86-.05-1.22-.32,.44-.01,.96-.26,1.22,.35,0,0,0-.03,0-.03Z"/>
      <path class="cls-1" d="M59.59,42.07s-.02,.03-.02,.03c0,0,.02-.03,.02-.03Z"/>
      <polygon class="cls-1" points="55.49 51.5 55.43 51.52 55.49 51.49 55.49 51.5"/>
      <path class="cls-1" d="M63.34,36.54s-.02,.02-.02,.02c0,0,.02-.02,.02-.02Z"/>
      <path class="cls-1" d="M63.47,36.4s-.04,.02-.04,.02,.04-.02,.04-.02Z"/>
      <path class="cls-1" d="M99.42,73.02c.08-1.36,.16-2.71,.24-4.07,0-.14,0-.28,.04-.41,.04-.18,.1-.39,.33-.39,.24,0,.28,.21,.3,.39,.02,.18,.04,.37,.01,.55-.22,1.88-.23,3.77-.28,5.66,0,.25-.03,.51-.06,.76-.02,.23,0,.51-.35,.47-.33-.03-.27-.32-.28-.54,0-.81,0-1.61,0-2.42,.01,0,.02,0,.03,0Z"/>
      <path class="cls-1" d="M100.41,81.75c0,.31,.03,.6-.28,.63-.32,.04-.33-.24-.36-.47-.11-.79-.25-1.59-.33-2.38-.03-.26-.04-.63,.33-.65,.32-.02,.33,.32,.36,.57,.09,.8,.1,1.6,.29,2.31Z"/>
      <path class="cls-1" d="M99.23,121.73c-.29,.05-.42,.01-.48-.14-.06-.16,.03-.29,.15-.35,.86-.39,1.72-.76,2.59-1.12,.15-.06,.33-.05,.41,.15,.05,.12,0,.25-.1,.3-.88,.46-1.75,.92-2.58,1.16Z"/>
      <path class="cls-1" d="M110.99,118.32c-.05,.07-.08,.14-.13,.17-.56,.31-1.08,.7-1.69,.91-.13,.04-.28,.08-.36-.08-.08-.16,.02-.28,.14-.34,.56-.3,1.13-.6,1.71-.88,.18-.08,.29,.04,.34,.22Z"/>
      <path class="cls-1" d="M126.01,72.8c-.1,1.82-.16,3.64-.4,5.44-.05,.4,0,1.12-.49,1.06-.52-.07-.24-.73-.19-1.13,.22-1.83,.39-3.66,.4-5.51,0-.14,0-.28,0-.41,.03-.26-.05-.63,.36-.61,.34,.02,.3,.35,.31,.6,0,.18,0,.37,0,.55Z"/>
      <path class="cls-1" d="M125.06,82.11c-.15,.9-.31,1.83-.47,2.76-.04,.23-.12,.49-.43,.43-.31-.06-.27-.34-.23-.56,.17-.9,.34-1.81,.42-2.73,.02-.26-.02-.66,.35-.65,.39,.02,.34,.42,.36,.74Z"/>
      <path class="cls-1" d="M138.13,96.55c-.05,.71-.14,1.37-.35,2-.07,.21-.18,.49-.46,.4-.31-.09-.19-.37-.14-.59,.16-.6,.33-1.19,.35-1.82,0-.3-.03-.78,.39-.75,.49,.04,.17,.51,.22,.75Z"/>
      <path class="cls-1" d="M136.42,97.91c-.19,.55-.41,1.13-.83,1.6-.14,.16-.34,.28-.54,.1-.17-.16-.06-.35,.06-.49,.33-.42,.57-.89,.76-1.38,.06-.16,.17-.29,.36-.25,.18,.05,.24,.2,.19,.42Z"/>
      <path class="cls-1" d="M23.43,98.28c-.16,0-.35,0-.38-.21-.03-.2,.13-.29,.28-.35,1.17-.43,2.33-.85,3.5-1.27,.18-.06,.38-.1,.48,.12,.08,.17,0,.33-.17,.39-1.19,.43-2.32,1.01-3.57,1.29-.04,.01-.09,0-.14,.01Z"/>
      <path class="cls-1" d="M64.39,16.27c.03,.21-.02,.43-.21,.38-.51-.13-.45-.66-.62-1.03-.07-.16,0-.45,.24-.38,.53,.14,.41,.7,.59,1.03Z"/>
      <path class="cls-1" d="M62.89,22.32c-.14,.39-.4,.26-.65,.1-1.08-.67-2.12-1.4-3.06-2.26-.65-.59-1.26-1.22-1.89-1.83-.15-.15-.32-.32-.12-.53,.21-.22,.37-.04,.52,.11,1.51,1.53,3.11,2.95,4.97,4.06,.13,.07,.22,.17,.21,.35Z"/>
      <path class="cls-1" d="M82.38,27.98c-.27,0-.55,0-.82,0-.17,0-.33-.05-.33-.26,0-.21,.16-.27,.33-.28,.59-.02,1.19-.04,1.78-.04,.16,0,.34,.06,.34,.26,0,.19-.15,.27-.33,.27-.32,0-.64,0-.96,0,0,.01,0,.03,0,.04Z"/>
      <path class="cls-1" d="M79.96,34.28c0,.14-.1,.25-.21,.23-.5-.08-1-.19-1.34-.6-.13-.15-.02-.39,.15-.35,.48,.12,.96,.27,1.36,.6,.03,.02,.03,.08,.04,.12Z"/>
      <path class="cls-1" d="M77.88,41.12c0,.12-.05,.22-.16,.28-.15,.07-.27,.02-.36-.1-.61-.81-1.22-1.62-1.7-2.52-.07-.14-.07-.27,.05-.37,.12-.1,.29-.1,.37,.02,.6,.87,1.19,1.75,1.78,2.63,.01,.02,.01,.04,.02,.07Z"/>
      <path class="cls-1" d="M75.57,37.64c-.02,.21-.12,.35-.26,.3-.43-.13-.66-.46-.75-.88-.04-.16,.06-.36,.26-.29,.42,.15,.52,.58,.75,.86Z"/>
      <path class="cls-1" d="M98.83,25.17c-.09,.35-.37,.45-.66,.53-.18,.05-.33-.09-.3-.27,.05-.32,.33-.41,.6-.48,.17-.05,.3,.04,.36,.22Z"/>
      <path class="cls-1" d="M101.14,31.11c-.26,.01-.54-.01-.48-.23,.17-.63,.82-.29,1.21-.51,.15-.08,.38,.03,.34,.21-.16,.61-.75,.35-1.06,.52Z"/>
      <path class="cls-1" d="M100.61,35.91c.21,.1,.48,.16,.5,.47,.01,.19-.11,.29-.31,.26-.23-.04-.44-.14-.48-.41-.02-.18,.08-.3,.29-.32Z"/>
      <path class="cls-1" d="M68.18,38.86c.32,1.12-.06,2.14-.42,3.17-.27-1.11,.13-2.13,.42-3.17Z"/>
      <path class="cls-1" d="M71.57,49.2c-.11,.15,.25,.5-.17,.49-.57-.01-.21-.48-.29-.73-.06-.17-.09-.35,.24-.31,.48,.05,.18,.36,.23,.55Z"/>
    </g>
  </g>
</svg>