<?xml version="1.0" encoding="UTF-8"?>
<svg id="_图层_2" data-name="图层 2" xmlns="http://www.w3.org/2000/svg" viewBox="0 0 154.26 133.77">
  <g id="_图层_2-2" data-name=" 图层 2">
    <g>
      <path d="M9.05,46.55c.62-.41,1.18-.95,1.65-1.53,.78-.95,1.54-.81,2.39-.15,1.18,.91,2.07,2.08,2.91,3.28,2.41,3.43,5.44,6.25,8.65,8.88,.72,.59,1.44,1.32,2.51,1.29,.93,.33,1.38,.11,1.32-.99-.05-.91-.02-1.8-.65-2.55-.3-1.18-1.23-1.94-2.06-2.65-4.37-3.77-7.41-8.63-10.96-13.06-.34-.43-.59-.95-.34-1.32,.96-1.4,.43-2.96,.61-4.43,.18-1.48-.97-1.77-1.91-2.23-.32-.16-.58-.08-.7,.37-.75,2.77-2.37,5.19-3.31,7.89-.71,2.06-1.28,4.14-1.63,6.29-.07,.42-.19,.95,.18,1.23,.47,.36,.98-.06,1.33-.3Z"/>
      <path d="M152.39,97.03c-5.29-.95-10.61-1.56-15.99-.82-1.11,.15-1.72,.04-1.17-1.26-.06-.75,.64-1.36,.41-2.15-.05-.13-.11-.24-.18-.36,1.58-3.17-.12-6.31-.41-9.46-.16-1.75-.31-3.49,.13-5.23,.61,3.19,.45,6.49,1.76,9.57,1.05-3.84,2.95-7.48,2.06-11.66-.33-1.56-.31-3.18,.09-4.76,.05,1.71,.17,3.41,.57,5.12,.99-3.23,1.16-6.62,1.82-9.92,.04,5.65-.9,11.18-2.25,17.13,0,0,0,0,0,0,2.35-2.38,3.28-5.03,4.49-7.51-.56,3.17-1.99,5.92-4.07,8.32-.74,.85-1.2,1.76-1.53,2.82-.81,2.59-1.73,5.15-2.6,7.73,4.17,.42,7.22-1.45,9.55-4.73,1.91-2.68,2.73-5.76,3.23-8.95,.23-1.64,.22-3.27,0-4.91-1.02-6.44-2.57-12.69-6.34-18.17-.36-.52-.61-1.42-1.33-1.24-.79,.19-.45,1.11-.47,1.71-.12,4.28-1.54,7.97-4.8,10.86-1.1,.97-2.12,2.04-3.2,3.03-3.84,3.49-5.22,7.98-5.37,12.99-.12,.3-.19,.63-.37,.88-2.75,3.9-4.75,8.17-6.22,12.7-.08-.89,0-1.78,.27-2.68-.69-2.36-.44-4.83-1.02-7.23-1.05-4.31-1.5-8.77-2.82-13.01-1.75-5.6-4.44-10.63-9.64-13.99-4.76-3.07-11.43-2.74-15.53,1.16-1.2,1.15-2.21,1.32-3.55,.3-1.89-1.42-4-2.38-6.39-2.63,0,0,0,0,0,0-.13-.52-.24-1.04-.14-1.59,.15-.77-.93-1.76-.09-2.19,.72-.37,1.31,.76,1.85,1.3,3.12,3.09,7.09,1.46,8.6-1.47,.17-.33,.41-.63,.62-.95,.09,.05,.19,.09,.29,.11,3.19,1.25,6.22,.15,9.26-.8,4.09-1.14,7.65-3.21,10.79-6.05,.29-.26,.84-.58,.46-1.04-.37-.45-.81,0-1.12,.24-3.47,2.76-7.36,4.71-11.54,6.15-2.55,.67-5.12,1.02-7.74,.42-.59-.31,0-1.15-.64-1.43-.2-.08-.38-.11-.55-.08-.18,.14-.36,.29-.54,.43-.05,0-.09-.03-.14-.04-.02,.02-.04,.04-.06,.06,0,0,0,.01-.01,.02-.04-.04-.09-.09-.13-.13-2.1-.71-3.3-3.72-2.19-5.73,.66-1.2,1.53-1.61,2.75-.88,1.37,1.56,.65,3.45,.71,5.2,0,.17,0,.38-.05,.57,.06,.14,.13,.29,.22,.43,.47-.02,.8-.19,.76-.74-.13-.52-.08-1.03,.02-1.56,.33-1.69,.22-3.31-.97-4.7-2.09-1.38-4.3-.19-4.67,2.52-.34,2.49,.98,4.83,3.57,6.34-.25,2.8-3.21,4.43-5.71,3.14-1.63-.84-2.71-2.3-4.07-3.45-.07-3.48,.69-6.8,1.9-10.04,1.05-2.81,1.03-2.81-1.56-4.28-1.83-1.04-2.16-.97-3.59,.59-3.07,3.35-4.18,7.57-5.31,11.79-.09,.31-.23,.63,.04,.89-.07,.02-.15,.05-.23,.09-.16,1.6-1.07,2.25-2.63,2.65-2.52,.66-4.68-.26-6.92-1.03-.12-.09-.23-.19-.35-.28-.12-.24-.25-.47-.52-.53,.29-.7-.85-1.37-.12-2.08,.41-.25,.81-.49,1.22-.74,1.26-.77,2.38-1.67,2.7-3.23,0-.26-.04-.54,.28-.68,.87-.56,.9-1.47,.98-2.36-.15-.89,.4-1.66,.42-2.52-1.73-2.05-2.6-2.15-4.71-.46-1.71,1.37-2.81,3.14-3.21,5.32h0c-.5,.86-.42,1.82-.3,2.71,.17,1.36-.4,1.77-1.63,1.61-3.52-.83-4.19-5.43-3.17-7.74,.98-2.21,2.51-3.9,4.38-5.37,.37-.29,.94-.46,1.05-1.32-2.87,1.82-5.08,3.89-6.32,6.86-1.03,2.47-.34,4.64,1.16,6.64,.72,.97,1.79,1.85,2.94,1.8,1.59-.06,2.53,.44,3.14,1.84,.14,.32,.5,.55,.76,.82,2.93,2.91,6.36,3.26,10.1,1.96,.92-.39,.77,.3,.83,.8,.11,.98-.23,2,.17,2.96-.13,.16-.24,.34-.42,.45-1.66,.62-3.23,1.4-4.54,2.62h0c-.31,.22-.64,.41-.93,.66-1.93,1.68-1.93,1.69-3.42-.49-3.46-5.09-9.84-6.66-15.05-2.81-3.8,2.81-6.48,6.56-8.56,10.74-1.47,2.95-2.8,5.97-3.35,9.26-1.2-.75-.71-2.11-1.07-3.15-.65-1.89-1.25-2.23-2.92-1.2-3.18,1.97-5.9,4.44-8.16,7.42q-1.61,2.11-2.88-.15c.39-.63,1.1-.86,1.65-1.29,2.31-1.79,3.78-3.93,3.62-7.05-.18-3.25-1.2-6.05-3.71-8.18-1.82-1.54-3.73-2.98-5.56-4.51-2.19-1.83-3.39-4.18-3.56-7.04-.62-.9,.11-2.07-.6-2.95h0c-1.89-.68-2.16-.52-2.64,1.63,0,0,0,0,0,0-1.1,3.23-2.17,6.47-3.3,9.69-2.26,6.42-1.78,12.41,2.73,17.79-.4,.13-.75,.25-1.23,.1-1.33-.42-2.7-.75-4.07-1.04-2.04-.45-2.53,.06-2.02,2.06,1.37,5.31,3.52,10.28,6.54,14.86,.59,.9,.53,1.2-.56,1.48-1.93,.5-3.95,.7-5.68,1.87-1.49,1.01-1.63,1.51-.16,2.65,.79,.61,.74,.97,.11,1.63-1.21,1.27-2.09,2.78-2.68,4.44-.39,1.1-.08,2.09,1.09,2.26,3.2,.45,6.36,1.26,9.65,1.02,1.52-.11,3.05-.02,4.93-.02-.64,.76-.95,1.13-1.27,1.5-.32,.37-.67,.72-.97,1.1-.83,1.03-.51,2.02,.78,2.27,.51,.1,1.08,0,1.61-.12,6.92-1.48,12.5-5.06,16.7-10.76-1.58-1.66-3.35-2.16-5.58-1.23-1.56,.65-2.87,1.66-4.39,2.37,1.12-1.58,2.64-2.61,4.37-3.39,.38-.17,1-.19,.99-.71-.01-.54-.6-.75-1.04-.91-.45-.16-.95-.17-1.44-.22-1.86-.16-3.68,.27-5.52,.37-1.07,.06-1.76,.74-2.37,1.56-1.3,1.76-3.11,2.98-4.98,4.65,.19-1.46,1.23-1.92,1.71-2.75,.29-.5,.82-.86,1.21-1.32,.3-.35,.98-.67,.71-1.15-.34-.6-1-.13-1.47,0-1.83,.51-3.68,.95-5.44,1.72-.42,.18-.86,.5-1.54,.19,2.91-1.61,6.03-2.25,9.17-3.26-.78-1.06-2.1-1.08-2.75-2.26,1.76,.5,3.5,1.06,5.27,1.47,1.83,.42,3.62-.24,5.88-.32-4.3-3.15-7.95-6.38-11.37-9.87,2.1,.99,3.68,2.68,5.77,4.27-.02-2.97-1.36-5.28-2.14-7.99,.84,.36,1.01,.99,1.27,1.52,1.03,2.11,1.75,4.34,2.4,6.58,.76,2.62,3.21,3.39,5.1,4.73,.72,.52,.64-.47,.61-.86-.11-1.71-.54-3.31-1.65-4.68-.39-.48-.92-.92-.89-1.77,1.03,.29,1.02,1.56,2.11,1.92,.38-2.63,.72-5.23,1.15-7.82,.18-1.07,.5-2.11,.82-3.15,.12-.41,.36-.91,.89-.76,.55,.15,.45,.67,.36,1.1-.16,.74-.33,1.49-.51,2.22-.17,.69-.52,1.45-.1,2.05,.56,.79,1.05-.64,1.84-.09-.07,.8-.87,1.06-1.42,1.46-.87,.63-1.25,1.38-1.27,2.47-.05,2.39-.42,4.76-.3,7.16,.08,1.6,.59,2.87,2.17,3.5,1.14,.46,1.75,1.76,3,2.03,.3,.73,.7,1.43,.52,2.28,.5,3.46,2.16,6.52,3.86,9.43,2.57,4.41,6.23,7.78,11.35,9.16,3.64,.98,7.24,.99,10.68-.74,1.11-.56,2.15-1.29,2.57-2.58-.01-.16-.04-.31-.07-.45,.45-.47,.89-1.14,1.49,.13,1.11,2.33,2.85,4.17,4.59,6.02,3.2,3.38,10.73,4.72,15.02,2.24,2.83-.78,4.55-2.92,6.17-5.14,.7-.96,1.33-.86,1.85,.04,.52,.9,1.23,1.47,2.19,1.79,.48,.16,.96,.32,1.44,.48,.02,.15,.05,.3,.1,.46,.81,1.19,2.12,.17,3.07,.71,1.11,.64,2.31,.58,3.48,.39,5.32-.87,9.17-3.96,12.15-8.27,2.16-3.11,3.83-6.47,4.97-10.09-.06-.79,.09-1.53,.44-2.23,.68-.12,1.2-.66,1.82-.92,1.25-.53,2.43-1.22,3.69-1.73,1.16-.47,1.48-1.23,1.36-2.43-.27-2.76,.35-5.37,1.67-8.1,.32,.77,.04,1.25-.15,1.68-.91,2.07-.83,4.24-.82,6.42,0,1.22,.44,1.25,1.52,.92,2.71-.81,4.81-2.39,6.5-4.6,.66-.86,1.57-1.45,2.64-1.82-1,1.47-2.71,2.32-3.75,4.23,2.75-.77,5.11-1.82,7.72-1.91-2.37,1.22-4.96,1.89-7.32,3.3,2.6,.58,5.27,.2,7.89,.61-1.4,.6-2.84,.84-4.33,.67-1.51-.17-3.01-.41-4.52-.64-.49-.08-.96-.12-1.44,.05-2.31,.81-4.53,1.85-6.75,2.88-.96,.44-1.12,.97-.25,1.66,1.06,.83,2.07,1.53,3.56,1.7,2.49,.28,5.02,.61,7.35,1.74-2.27,.42-4.4-.58-7.02-.64,1.89,1.63,3.88,2.53,5.78,3.72-.72,.41-1.1-.02-1.5-.2-3.12-1.45-5.94-3.38-8.71-5.42-2.08-1.54-2.42-1.45-4.57,.17,1.04,3.1,3.28,5.22,5.82,7.04,5.1,3.66,10.74,6.15,16.83,7.65,2.66,.65,3.13,.25,2.83-2.5-.46-4.22-1.75-8.18-3.97-11.81-.4-.66-.7-1.15,.25-1.68,4.85-2.69,8.45-6.78,12.01-10.91,1.48-1.72,1.3-2.36-.9-2.76ZM60.57,51.85c-.6-.29-.4-1.05-.46-1.63-.03-.27,0-.54,0-.81,.2-2.88,1.46-5.17,3.93-6.7,1.36-.84,2.26-.32,2.12,1.26-.28,2.98-1.52,5.5-3.99,7.3-.47,.34-1.02,.87-1.59,.59ZM14.07,78.55c-.95-5.04-1.9-10.06-1.82-15.21,.73,2.9,.74,5.95,1.69,8.82,.26-1.5,.42-2.98,.44-4.5,.57,.85,.52,1.85,.31,2.69-.07,.28-.13,.55-.17,.83,.01,.24-.03,.48-.11,.72-.39,3.43,.7,6.67,1.58,9.94-.1,.11-.21,.22-.3,.35-.22,.39,.1,.88,0,1.3-.67-1.93-1.48-3.8-2.94-5.42-1.43-1.59-2.26-3.67-2.52-5.91,1.08,2.24,2.03,4.56,3.85,6.4Zm3.05,2.45c.34-2.28,.57-4.56,.87-6.85,.64,2.25,.23,4.44-.17,6.64-.25,.03-.47,.12-.7,.22Zm31.93,42.06c-.24,.48-.67,.22-.98,.04-1.06-.58-1.99-1.33-2.84-2.17-3.11-3.07-5.05-6.77-5.87-11.05-.13-.7-.33-1.45,.04-2.16,.57,.11,.48,.51,.54,.8,1.08,5.39,3.83,9.76,8.05,13.24,.21,.17,.42,.35,.62,.53,.23,.21,.64,.4,.46,.76Zm2.64-1.5c-.38,.59-.99,.04-1.41-.23-3.34-2.14-4.94-5.33-5.46-9.16-.03-.21,.02-.43,.07-.64,.02-.09,.13-.16,.26-.3,.39,.14,.5,.39,.53,.66,.44,3.67,2.32,6.45,5.23,8.63,.35,.26,1.11,.54,.78,1.04Zm-6.38-48.89c-.36-4.75,7.6-10.65,12.6-8.93-6.05,.83-10.06,3.88-12.6,8.93Zm10.3,15.25c-.14-1.26,.09-2.49,.28-3.72,.89-5.62,2.98-10.74,6.4-15.3,.34-.45,.55-1.08,1.7-1.21-.89,1.61-1.64,2.96-2.37,4.32-2.35,4.41-3.82,9.08-4.14,14.09-.04,.65-.18,1.29-.29,1.93-.08,.46-.28,.87-.83,.82-.52-.05-.7-.46-.75-.92Zm5.81,34.24c-.75,.38-.9-.56-1.17-1.02-.47-.79-.83-1.64-1.26-2.46-.23-.42-.51-.82-.77-1.23,0,0,.01,0,.01,0-.47-2-.99-3.98-1.4-5.99-.45-2.19-.19-4.42-.21-6.64,0-.48,.19-.9,.73-.9,.52,0,.74,.42,.78,.88,.04,.48,.05,.98,.03,1.46-.22,5.09,.91,9.89,3.08,14.48,.21,.44,.83,1.08,.19,1.41Zm3.61-40.22c-.02,.41,.08,1.01-.5,1.03-.56,.01-.52-.61-.6-1.01-.42-2.18-.02-4.34,.32-6.47,.62-3.79,1.94-7.33,4.15-10.51,.96,.81-.19,1.46-.16,2.2-2.09,3.84-3.06,7.97-3.19,12.32-.03,.81,.01,1.63-.02,2.44Zm3.94,43.04s0,0,0,0c0,0,.01-.01,.02-.02,0,0,0,0,0,0,0,0,0,0-.01,.01Zm1.61,.67c-.48,.46-.76-.06-1.08-.3-.17-.12-.34-.26-.5-.39,0,0,0,0,0,.01h0s0-.01,0-.01c0,0,0,0,0,0h0s0,0,0,0c0,0,0,0,0,0,0,0,0,0,0,0-.58-1.33-1.5-2.47-2.02-3.85-.8-2.13-1.04-4.31-.9-6.55,.04-.6,0-1.25,.87-1.3,.21,1.09-.1,2.25,.35,3.31,.07,2.53,1.09,4.73,2.41,6.81,.23,.37,.51,.71,.72,1.08,.2,.36,.57,.76,.15,1.17Zm3.03,2.28c-.46,.2-.77-.17-.9-.5-1.27-3.16-2.07-6.35-.65-9.64,.16,0,.33,0,.49,0,0,1.33-.03,2.66,0,3.99,.05,1.76,.6,3.41,1.26,5.02,.15,.36,.39,.87-.2,1.12Zm16.9-59.08c.77-.31,.89,.87,1.18,1.44,2.7,5.32,3.56,11.01,3.4,16.91,0,.33,0,.66-.04,.98-.1,.68-.05,1.67-.96,1.62-.98-.05-.7-1.02-.7-1.7,0-.98,0-1.96,0-2.93,.35-5.05-1.11-9.76-2.71-14.45-.21-.6-.92-1.56-.16-1.87Zm-.76,55.3c-.14,.27-.34,.58-.87,.47-.15-1.21,.55-2.26,.85-3.36,.92-3.41,1.72-6.82,1.83-10.37,.01-.43,.18-.85,.26-1.27,.08-.45,.17-.91,.78-.81,.49,.08,.52,.51,.52,.89-.08,5.06-1.1,9.9-3.36,14.45Zm8.78-10.82c-1.06,4.19-2.91,7.94-6.09,10.94-.24,.23-.55,.68-.96,.35-.46-.37,0-.67,.22-.94,2.87-3.43,4.81-7.31,5.71-11.69,0,0,0,0,0,0,0,0,0-.01,0-.01,0,0,0,0,0,.01,0,0,0,0,.01,0,0,0,0,0-.01-.01,0,0,0,0,.01,.01,.88,.02,1.33,.44,1.1,1.34Zm.28-31.96c-.54,.02-.62-.54-.69-.96-.8-4.83-2.81-9.12-5.8-12.97-.22-.29-.64-.63-.18-.95,.38-.26,.69,.17,.94,.44,2.74,2.93,4.47,6.4,5.56,10.22,.3,1.04,.5,2.11,.71,2.98-.08,.61,.08,1.2-.53,1.23Zm6.36,44.78c-.25,.29-.52,.55-.81,.8-.22,.19-.5,.24-.75,.06-.3-.22-.4-.55-.21-.86,.19-.32,.45-.6,.71-.88,5.11-5.49,7.22-11.98,6.46-19.42-.04-.37-.05-.75-.05-1.13,0-.08,.12-.15,.26-.31,.47,.57,.52,1.21,.58,1.82,.77,7.52-1.23,14.18-6.19,19.92Zm7.06-42.84c-.67-.54-.7-1.38-.86-2.14-.82-3.67-1.61-7.34-3.63-10.6-1.31-2.12-2.92-3.94-5.14-5.13-1.99-1.06-4.06-1.52-6.3-.64,1.51-1.64,3.39-1.43,5.22-.93,2.5,.68,4.45,2.27,6.02,4.29,3.26,4.19,4.47,9.13,5.1,14.26,.04,.3,.09,.67-.4,.88Z"/>
      <path d="M26.25,46.02c1.34,1.87,2.91,3.51,4.91,4.7,.65,.38,1.27,.75,1.89,.08,.55-.6,.42-1.28,0-1.92-2.27-3.32-3.28-7.08-3.92-10.98-.12-.74-.42-1.44-.31-2.22,.07-.53,.26-.96,.79-1.1,.59-.16,1.08,.03,1.34,.62,.49,1.09,.96,2.19,1.46,3.27,.54,1.18,.91,2.48,1.94,3.36,.64,.55,1.29,1.23,2.3,.7,.9-.47,1.32-1.14,1.32-2.21,0-2.14,.12-4.28-.59-6.56,.44,.2,.64,.29,.83,.38,2.15,1.03,3.54,.52,4.47-1.69,.17-.41,.29-.86,.86-.79,1.44,.18,2.48-.52,3.37-1.65,.29,.89,.5,1.67,.81,2.4,.15,.36,.3,.76,.89,.8,2.18,.14,3.48-1.36,2.88-3.49-.17-.6-.26-1.21-.13-1.76,.56-2.49,1.2-4.97,1.84-7.54,.23,.16,.42,.23,.47,.34,.33,.8,.65,1.61,.92,2.43,.62,1.86,2.14,3.19,3.69,3.19,1.82,0,3.31-1.3,3.94-3.27,.19-.61,.06-1.36,.6-1.95,.66,1.1,.47,2.36,1.16,3.32,.46,.64,1.03,1.31,1.83,1.13,.68-.15,1.41-.54,1.71-1.36,.21-.57-.09-1.28,.53-1.89,.71,.86,1.34,1.67,2.02,2.43,1.14,1.28,2.82,1.37,4,.19,1.43-1.43,2.57-3.05,3.46-4.89,.39-.81-.17-1.88,.76-2.5,1.46,2.33,1.44,2.79-.18,4.73-.67,.8-1.28,1.63-1.67,2.59-.32,.79-.6,1.6,.02,2.4,.11,.21,.22,.43,.33,.64-.04,.03-.1,.06-.12,.1-.02,.03-.02,.12,0,.12,.92,.31,2.16,.4,2.71-.02,1.57-1.2,2.79-2.75,3.04-4.91,.1-.83-.49-1.82,.3-2.49,.87-.74,1.85-1.35,2.95-2.13-.18,1.55-.22,2.85,1.15,3.64,1.18,.68,2-.17,2.95-.82,.22,1.25-1.03,1.87-.93,2.93-2.45,2.04-4.39,4.5-5.86,7.32-.89,1.71-.25,3.28,1.3,3.47,1.7,.21,4.87-1.55,5.52-3.16,.6-1.48,1.28-2.97,1.57-4.52,.32-1.7,1.07-2.99,2.44-3.98h0c1.76-1.03,3.52-2.07,5.33-3.13,.75,4.06,2.68,5.7,7.65,2.78-.12,.85,.43,1.42,.64,2.11,.69,2.21,2.16,2.72,3.94,1.28,1.93-1.55,3.83-3.14,5.98-4.91-.3,1.22,.27,1.92,.57,2.72,.35,.92,1.14,1.32,1.96,1.69-.17,.25-.25,.39-.35,.53-2.25,3.14-1.62,5.13,2.07,6.3,.66,.21,.47,.54,.53,.94,.31,2.07,2.18,3.05,3.89,2,2.92-1.8,6.26-1.66,9.55-2.29-.11,.79-.6,1.06-.99,1.42-1.01,.92-1.91,1.9-2.57,3.13-.51,.95-.45,1.7,.13,2.54,.98,1.41,2.2,2.42,4.03,2.56-1.7,2.25-1.13,3.89,2.36,4.31-1.59,.67-2.93,1.26-4.5,1.11-2.61-.24-5.17,.07-7.72,.63-1.13,.25-2.17,.91-2.47,1.9-.29,.96,.62,1.79,1.48,2.31,.58,.35,1,.89,1.78,1.05,1.58,.31,3.07,.05,4.52-.44,1.33-.45,2.61-1.07,3.91-1.61,1.09-.85,2.29-.62,3.55-.48,2.89,.31,5.46,2.39,8.54,1.53,.72-.03,1.48,.03,2-.78-.81-.54-1.5,.08-2.16,.16-2.28,.26-4.16-1-6.26-1.34-.61-.1-1.15-.31-1.27-.79-.15-.65,.57-.82,1.03-1.03,1.67-.79,3.41-1.25,5.28-1.19,.57,.02,1.14-.18,1.26-.78,.11-.54-.47-.63-.83-.81-2.5-.57-5.04-.25-7.56-.24-.62-.14-1.31-.02-1.9-.6,.13-.1,.25-.24,.39-.27,3.25-.84,6.56-1.04,9.89-.68,.61,.07,1.06,.47,1.27,1.11,.09,.28,.38,.39,.67,.31,.28-.08,.51-.3,.47-.58-.17-1.05,.36-2.01,.33-3.02-.02-.9-.4-1.68-1.43-1.91-2.69-.59-5.37-.27-8.05,.03-1.97,.02-3.93,.04-5.9,.05-1.59-.7-1.62-.91-.56-2.11,1.14-1.27,2.7-2.02,3.92-3.18,.69-.66,.78-1.46,.48-2.24-.3-.76-.95-1.14-1.84-1.01-.84,.12-1.72,.14-2.55,.21-1.29,.1-2.58,.84-4.06,.22,.4-.55,.92-.63,1.39-.84,1.65-.72,3.25-1.51,4.55-2.81,.86-.86,.91-1.83,.35-2.8-.64-1.11-1.29-.02-1.86,.15-3.23,.95-6.21,2.52-9.23,3.98-.74,.36-1.49,.62-2.33,.58-.7-.03-1.29-.33-1.58-.95-.26-.57,.22-.94,.54-1.39,1.21-1.69,2.52-3.26,4.38-4.3,.45-.26,.71-.64,.6-1.22-.11-.57-.54-.52-.96-.65-.94-.28-1.63-.19-2.42,.55-.72,.68-1.74,1.13-2.71,1.42-1.67,.51-2.78-.73-2.33-2.47,.16-.62,.45-1.2,.55-1.83,.13-.78-.51-1.16-1.07-1.47-.41-.22-.5,.22-.64,.51-1.25,2.75-3.84,3.86-6.28,5.43-.16-.96-.4-1.84,.18-2.25,.82-.59,.94-1.44,1.37-2.18,.61-1.05,.45-2.35,1.23-3.27,1.11-1.31,.44-2.43-.29-3.74-1.16,1.58-2.12,3.15-3.34,4.5-1.61,1.79-3.19,3.69-5.6,4.53-.46,.16-.85,.5-1.3,.01-.44-.47-.64-.93-.42-1.62,.6-1.87,1.35-3.66,2.64-5.18,.47-.56,1.27-1.12,.45-1.92-.83-.81-2.17-.33-2.43,.16-1,1.89-2.93,2.8-4.17,4.46-1.52,2.05-3.77,3.33-6.41,3.72-.17-1.94,1.18-3.3,1.88-4.9h0c.22-.23,.47-.44,.66-.7,.38-.54,1.19-1.16,.5-1.77-.57-.5-1.31-.04-1.76,.61-1.44,1.39-3.06,2.6-4.22,4.27-.26,.38-.68,.87-1.2,.47-.54-.42-.06-.95,.19-1.28,1.64-2.15,2.98-4.54,5.21-6.19,.76-.06,1.8,.44,2.21-.28,.55-.96-.76-1.33-1.14-2.02-.07-.13-.23-.2-.35-.3h0s0,0,0,0c-1.95-1.38-2.92-1.38-4.48,.23-.9,.93-1.64,2.02-2.44,3.05-1.54,1.97-3.08,3.95-5.37,5.13-.35,.18-.82,.65-1.15,.14-.81-1.27-1.68-2.56-2.22-3.95-.36-.93,.44-1.83,.88-2.69,.64-1.23,.35-3.29-.55-4.25-.5-.53-.95-.72-1.4,.05-1.16,1.95-1.94,3.93-1.32,6.28,.79,3-.92,7.6-3.44,9.43-.71,.51-1.57,.61-2.19-.13-.42-.51-1.44-1.07-.6-1.87,1.41-1.33,1.42-2.96,1.37-4.66-.04-1.33,.19-2.96-1.4-3.39-1.71-.47-2.13,1.21-2.87,2.33-.93,1.42-.74,3.29-1.84,4.65-.6-.42-.42-.96-.42-1.42,.04-2.44,.65-4.8,1.18-7.15,.52-2.31,.75-4.72,2.03-6.8,.26-.43,.37-1.13,1.12-.96,1.69,.39,.95-.67,.66-1.2-.58-1.08-1.7-1.62-2.64-2.36-1.15-.9-1.67-.42-2.29,.56-1.27,1.99-1.72,4.26-2.33,6.47-.96,3.5-.88,7.14-1.35,10.71-.26,2-.96,3.87-1.95,5.63-.29,.52-.68,1.08-1.34,1.07-.72-.02-.99-.81-1.11-1.26-.36-1.34-.98-2.59-1.14-4-.11-.98-.43-2.06-1.63-2.11-1.15-.05-2.02,.49-2.29,1.83-.33,1.63-.86,3.22-1.31,4.83-.09,.31-.18,.71-.58,.64-.38-.07-.39-.46-.38-.8,.04-1.72-.12-3.4-.57-5.09-.37-1.37-.95-1.93-2.38-2.16-.96-.15-.97,.08-.97,.76,0,2.88-.05,5.77,.01,8.65,.02,1.17-.13,2.23-.65,3.29-.21,.42-.34,.78-.87,.79-.51,.01-.83-.31-1.01-.7-.21-.43-.28-.93-.43-1.4-.27-.84-.87-1.29-1.72-1.17-1.07,.16-.6,1.12-.49,1.57,.29,1.18-.29,2.25-.1,3.45-.63-.38-.63-.86-.62-1.36,.04-1.62-.19-3.26,.47-4.82,.39-.94-.13-1.32-.93-1.48-1.42-.28-2.87,.54-3.48,1.96-.24,1.65-.2,3.29-.02,4.94-.09,.41-.39,.96-.23,1.2,1.32,2.01,.07,4.13,.32,6.18,.07,.57-.05,1.32-.76,1.46-.65,.13-.89-.54-1.13-1-.9-1.74-1.78-3.48-3.15-4.93-.62-.66-1.27-1.31-2.24-.9-.9,.38-1.4,1.23-1.54,2.14-.12,.78-.08,1.59,.11,2.41,.31,1.36,.7,2.74,.51,4.2-.47-.1-.55-.45-.69-.72-1.95-3.6-3.33-7.42-4.16-11.42-.14-.67-.45-1.66,.29-2.13,1.44-.91,.2-1.19-.32-1.48-1.53-.86-3.25-.64-4.91-.6-.81,.02-1.04,.7-.99,1.42,.08,1.29,.23,2.56,.65,3.8,1.82,5.45,4.57,10.41,7.92,15.06Zm58.36-12.33c-.23-2.9,1.36-4.53,2.84-6.22-.77,2.01-.59,4.48-2.84,6.22Z"/>
      <path d="M107.65,10.32c.47-.13-.12-.6,.02-1.79,.09-.75,.28-1.54-1.2-2.39-.42-.24-.93,.94-.61,2.09s1.32,2.22,1.78,2.09Z"/>
      <path d="M127.69,21.2c.48,.15,2.12-1.17,2.12-2.21s-.41-1.89-.92-1.89-1.28,2.87-.92,1.89c.1-.26-.78,2.05-.29,2.21Z"/>
    </g>
  </g>
</svg>