<?xml version="1.0" encoding="UTF-8"?>
<svg id="_图层_2" data-name="图层 2" xmlns="http://www.w3.org/2000/svg" viewBox="0 0 103.64 119.71">
  <g id="_图层_2-2" data-name=" 图层 2">
    <g>
      <path d="M101.48,58.83c2.76-4.57,2.98-9.12,.06-13.72-.31-.49-.44-1.28-.31-1.85,1.05-4.68,.29-8.9-3.25-12.29-1.32-1.27-1.87-2.56-2.16-4.38-.71-4.48-3.47-7.56-7.56-9.49-.62-.3-1.33-.81-1.6-1.4-2.21-4.95-5.89-7.76-11.35-8.2-.46-.04-1.04-.24-1.33-.57-3.55-4.17-7.92-5.82-13.34-4.58-.68,.16-1.61-.01-2.21-.38-3.6-2.2-7.32-2.57-11.24-1.05-2.22,.86-4.14,1.17-6.46,1.04-.13,0-.27,0-.4,0-4.32-.19-7.73,1.6-10.55,4.76-.38,.43-1.08,.73-1.66,.79-5.04,.47-8.69,2.96-10.79,7.55-.53,1.17-1.25,1.75-2.35,2.29-4.49,2.2-7.12,5.73-7.39,10.86-.02,.47-.22,1.08-.56,1.37-4.36,3.63-5.9,8.17-4.61,13.71,.12,.53,0,1.26-.28,1.72-2.9,4.63-2.85,9.21,.04,13.82,.25,.4,.42,1.03,.31,1.47-1.44,5.55,.16,10.07,4.44,13.76,.37,.32,.65,.95,.67,1.44,.14,4.82,3.23,9.19,7.75,11.02,.68,.28,1.42,.97,1.68,1.64,1.89,4.83,6.9,8.28,12.26,7.89,.54-.04,1.19-.49,1.52-.95,.57-.81,.93-1.78,1.36-2.66,.29,.08,.43,.08,.54,.15,1.77,1.19,3.54,2.36,5.28,3.59,.24,.17,.4,.56,.46,.87,.34,1.74,.97,3.3,2.34,4.52,.32,.28,.58,.82,.59,1.24,.06,2.03,.03,4.07,.03,6.12-1.93,.28-3.73,.55-5.53,.8-1.81,.26-3.61,.53-5.42,.74-1.15,.13-2.02,.58-2.06,1.83-.04,1.19,.88,1.83,2.46,1.83,2.54,0,5.08,0,7.62,0,.32,0,.64,.09,1.12,.16-.46,.96-.81,1.77-1.21,2.54-.47,.89-.77,1.8,.18,2.52,.97,.73,1.84,.24,2.63-.46,1.53-1.36,3.03-2.75,4.61-4.05,.47-.38,1.16-.67,1.76-.68,2.72-.07,5.44-.1,8.15,.02,.81,.03,1.72,.43,2.37,.94,1.65,1.28,3.18,2.71,4.75,4.08,.75,.66,1.55,.67,2.3,.05,.77-.64,.77-1.44,.26-2.27-.5-.82-.98-1.66-1.68-2.86,.85,0,1.33,0,1.81,0,2.45,0,4.9,0,7.35,0,1.32,0,2.31-.7,2.36-1.65,.06-1-.76-1.82-2.08-2.01-3.3-.47-6.61-.95-9.92-1.35-.68-.08-.94-.29-.93-.96,.01-1.69-.07-3.39,.02-5.08,.03-.58,.36-1.23,.74-1.68,.97-1.13,1.81-2.26,1.97-3.84,.06-.57,.6-1.22,1.09-1.6,.97-.76,2.11-1.32,3.11-2.05,2.19-1.6,2.23-1.64,3.4,.88,.46,.99,1.03,1.35,2.13,1.34,5.42-.06,9.87-3.09,11.93-8.11,.24-.59,.89-1.2,1.5-1.44,4.55-1.81,7.78-6.42,7.86-11.26,0-.44,.32-1,.66-1.29,4.35-3.67,5.86-8.22,4.46-13.75-.11-.43,.08-1.03,.32-1.44Zm-5.26-27.21c3.1,3.12,4.31,6.78,3.19,11.09-.09,.33-.48,.78-.79,.83-4.83,.79-9.68,1.54-14.52,2.25-.36,.05-.94-.09-1.12-.35-1.39-2.06-2.7-4.16-4.12-6.4,2.05-1.04,4.09-2.09,6.15-3.12,3.07-1.54,6.15-3.03,9.2-4.6,.82-.42,1.39-.33,2.02,.3Zm-17.93,26c-2.07-4.29-4.96-8.02-8.85-10.81-2.04-1.46-4.27-2.86-6.63-3.61-2.23-.71-2.63-2.31-3.04-4-.4-1.68-.53-3.43-.67-5.15-.07-.83,0-1.7,.96-2.16,.25-.12,.48-.44,.56-.71,.41-1.37,1.17-1.29,2.34-.85,6.18,2.35,11.34,6.13,15.37,11.31,2.48,3.2,4.25,6.83,5.35,10.8,1.75,6.35,1.86,12.67-.08,18.94-.8,2.6-2.07,5.06-3.13,7.59-.11-.05-.21-.09-.32-.14,.3-2.46,.7-4.9,.88-7.37,.34-4.85-.65-9.49-2.74-13.84Zm-18.91-28.59c-.01,1.39-.55,1.95-1.76,1.94-1.29,0-1.79-.51-1.8-1.89-.02-2.31-.04-4.63,0-6.94,.04-2.65,2.23-4.94,5.02-5.22-.15,.36-.3,.66-.4,.97-.36,1.26-.91,2.52-1,3.8-.16,2.44-.04,4.89-.07,7.34Zm7.37-9.26c.08,.12,.16,.24,.24,.36-1.28,2.53-2.54,5.07-3.86,7.59-.13,.25-.69,.49-.93,.4-.38-.14-.93-.55-.95-.86-.09-1.78-.05-3.56,0-5.34,0-.26,.22-.67,.43-.73,1.68-.51,3.38-.94,5.08-1.4Zm-4.89-.42c.83-2.13,1.48-2.31,3.81-1.05-1.31,.36-2.44,.67-3.81,1.05Zm25.91-.46c1.4,.9,2.91,1.78,3.99,3.01,1.53,1.75,2.53,3.89,2.39,6.33-.03,.5-.38,1.21-.79,1.42-5.01,2.59-10.07,5.09-15.11,7.64-.64,.32-1.06,.3-1.62-.26-1.38-1.36-2.87-2.62-4.83-4.38,1.08-.88,2.16-1.61,3.06-2.51,3.59-3.57,7.15-7.18,10.66-10.82,.72-.74,1.49-.92,2.25-.43Zm-13.76-8.73c.25-.49,1.02-.71,1.39-.95,3.53,.61,6.3,1.91,8.15,4.64,2.38,3.53,1.94,3.01-.69,5.66-3.81,3.85-7.68,7.65-11.49,11.51-.65,.66-1.13,.87-2.02,.31-1.19-.76-2.51-1.34-3.82-1.89-.78-.33-.89-.68-.52-1.41,3-5.95,5.96-11.93,9.01-17.87Zm-14.51-.7c.39-1.11,.52-2.36,.54-3.55,.03-1.47,.9-1.89,2.1-2.05,.57-.07,1.15-.09,1.86-.15,3.32,.12,6.09,1.64,8.36,4.14,.27,.3,.36,1.04,.18,1.41-1.13,2.42-2.33,4.8-3.58,7.16-.15,.28-.81,.52-1.13,.42-1.99-.59-3.96-1.28-5.93-1.95-.12-.04-.29-.09-.34-.19-.88-1.67-2.92-2.83-2.06-5.25Zm-13.62-5.81c3.43-2.44,8.45-2.43,11.91,.04,.29,.2,.63,.63,.6,.91-.2,1.8-.5,3.59-.81,5.72-3.87-2.27-7.55-2.07-11.38-.24-.34-1.97-.67-3.75-.91-5.54-.04-.27,.31-.7,.6-.9Zm-14.42,4.04c2.2-2.44,4.94-3.85,8.29-3.91,.31,0,.62-.02,.94,0,2.31,.14,2.61,.41,3,2.64,.08,.44,.19,.87,.26,1.31,.35,1.96,.66,3.71-.84,5.63-2.67,3.42-2.62,7.33-.64,11.19,.18,.36,.33,.73,.47,1.11,.68,1.8,.66,1.75-1.16,2.4-.75,.27-1.13,.13-1.48-.57-3.02-6.01-6.08-11.99-9.06-18.02-.23-.46-.13-1.4,.2-1.77Zm-7.95,70.16c.1,.38,.17,.77,.26,1.15-.16,.08-.32,.15-.49,.23-1.12-2.69-2.43-5.31-3.31-8.08-1.37-4.33-1.78-8.82-1.17-13.33,.89-6.53,3.28-12.45,7.59-17.51,4.38-5.14,9.76-8.74,16.3-10.55,1.03-.28,1.49-.14,1.58,.98,.28,3.53,.16,7.01-.88,10.45-.43,1.41-1.72,1.48-2.68,1.89-9.32,3.96-14.96,10.98-17.5,20.67-1.24,4.74-.97,9.43,.28,14.11Zm-4.74-61.59c.93-3.45,5.68-6.93,9.83-6.92,.2,.18,.9,.52,1.18,1.08,2.95,5.78,5.82,11.6,8.75,17.39,.44,.87,.41,1.31-.58,1.69-1.28,.5-2.55,1.08-3.7,1.81-.82,.52-1.28,.44-1.92-.22-3.3-3.36-6.63-6.68-9.96-10.01-1.04-1.04-2.15-2-3.1-3.11-.36-.42-.63-1.22-.5-1.73Zm-4.05,3.29c.27-.15,.52-.34,.79-.5,.99-.58,1.78-.6,2.69,.34,4.19,4.35,8.46,8.63,12.7,12.93,.21,.21,.35,.48,.48,.65-1.62,1.51-3.15,2.97-4.74,4.37-.2,.17-.76,.1-1.07-.05-5.15-2.54-10.29-5.09-15.4-7.69-.37-.19-.76-.83-.73-1.23,.26-3.82,1.8-6.91,5.26-8.84Zm-7.07,11.97c.35-.3,1.13-.47,1.5-.28,5.19,2.53,10.34,5.14,15.72,7.84-1,1.43-2.14,2.59-2.71,3.98-1.02,2.49-2.49,3.02-5.08,2.44-3.94-.88-7.98-1.28-11.97-1.95-.34-.06-.8-.52-.89-.88-1.09-4.39-.07-8.17,3.41-11.15ZM3.42,57.43c-2.09-3.1-2.04-8.56,.22-11.5,.27-.36,.92-.7,1.33-.63,4.79,.73,9.56,1.53,14.34,2.32,.07,.01,.12,.12,.1,.1-.73,2.77-1.38,5.39-2.13,7.98-.11,.37-.65,.81-1.04,.87-3.64,.6-7.3,1.09-10.94,1.69-.9,.15-1.4-.12-1.88-.83Zm4.34,14.89c-3.4-2.92-4.7-7-3.51-11.39,.08-.31,.47-.71,.77-.76,3.69-.62,7.38-1.18,11.08-1.75,.21-.03,.43,.06,.53,.07,.22,3.14,.45,6.11,.59,9.08,.02,.4-.29,1.02-.63,1.21-2.39,1.28-4.82,2.5-7.28,3.65-.42,.2-1.21,.17-1.53-.1Zm8.33,12.56c-3.91-1.76-6.22-4.77-6.63-9.08-.05-.56,.33-1.45,.79-1.72,2.16-1.24,4.4-2.33,6.63-3.45,.22-.11,.49-.15,.65-.2,1.09,2.56,2.12,5.06,3.2,7.53,1.09,2.49,1.12,2.49-.77,4.46-.74,.77-1.47,1.56-2.32,2.2-.38,.29-1.14,.45-1.54,.26Zm14.4,6.94c-.33,.52-.5,1.15-.87,1.65-.29,.4-.76,.67-.85,.75-4.55-.15-7.51-2.17-9.56-5.62-.89-1.5-.8-2.08,.46-3.35,.88-.88,1.79-1.74,2.63-2.66,.56-.61,.83-.62,1.42,.08,2.09,2.53,4.26,5,6.48,7.42,.54,.59,.74,1.03,.3,1.73Zm40.56,20.2c0,.09,0,.19,0,.28-2.97,0-5.94,.02-8.9-.03-.27,0-.54-.37-.81-.57-.39-.28-.79-.56-1.34-.63,1.14,1.91,2.27,3.81,3.41,5.72-.09,.08-.19,.17-.28,.25-.87-.75-1.86-1.4-2.58-2.28-1.63-1.99-3.59-2.75-6.16-2.51-2.21,.21-4.46,.15-6.68,.02-1.48-.09-2.53,.45-3.52,1.45-1.15,1.16-2.39,2.22-3.6,3.33-.12-.08-.24-.16-.36-.24,1.14-1.91,2.28-3.82,3.58-5.98-.53,.22-.97,.25-1.1,.47-.68,1.16-1.76,1.01-2.83,1-2.44-.01-4.88,0-7.35-.3,3.54-.53,7.08-1.07,10.88-1.64,0-1.37,0-2.76,0-4.14,0-.82-.26-1.72,.01-2.43,.55-1.45,1.96-.3,2.92-.64,.07-.02,.61,.79,.64,1.24,.1,1.78,.04,3.58,.14,5.36,.02,.3,.44,.71,.77,.86,2.62,1.16,5.28,1,7.9-.02,.33-.13,.73-.57,.75-.88,.09-1.74,.16-3.49,.07-5.22-.05-1.03,.12-1.55,1.26-1.4,.48,.06,1.01-.11,1.46,.02,.35,.09,.87,.48,.88,.74,.03,1.56-.1,3.13-.11,4.69,0,.6,.16,1.2,.25,1.84,3.61,.55,7.16,1.1,10.71,1.64Zm-16.46-4.8c.06,.56,0,1.13,0,2.04h-5.62c0-2.34-.04-4.35,.03-6.36,.02-.48,.37-.98,.66-1.39,.3-.43,.78-.73,1.1-1.15,.89-1.16,1.18-.94,2.26-.03,2.36,1.98,1.29,4.56,1.56,6.9Zm16.92-17.76c-2.18,2.29-4.75,4-7.54,5.4-.69,.35-.81,.78-.83,1.46-.05,3.4-2.53,5.38-5.87,4.74-1.37-.27-2.27-1.08-2.94-2.29-.87-1.59-4.05-1.55-4.97,0-1.18,1.99-3.29,2.88-5.49,2.31-2.07-.54-3.48-2.48-3.4-4.82,.02-.74-.24-1.09-.89-1.42-8.78-4.43-13.83-11.7-15.05-21.3-.92-7.18,.87-13.89,5.33-19.85,3.31-4.43,7.56-7.5,12.63-9.37,1.8-.66,2.42-1.85,2.79-3.32,1.52-5.95,1.41-11.83-1.34-17.45-1.84-3.76-.95-7.98,1.7-10.6,3.66-3.62,10.04-3.28,13.06,.86,.3,.42,.6,.84,.81,1.13-1.28,.95-2.52,1.71-3.58,2.68-1.5,1.37-1.96,3.24-1.97,5.22-.01,2.09-.02,4.19,0,6.28,.01,1.69,.76,2.96,2.41,3.44,.91,.27,1.07,.74,1.03,1.54-.13,3.03,.45,5.93,1.72,8.68,.23,.49,.75,.99,1.25,1.17,3.46,1.27,6.7,2.98,9.44,5.42,1.73,1.55,3.18,3.44,4.61,5.29,3.49,4.52,4.82,9.84,4.89,15.38,.1,7.47-2.62,13.95-7.81,19.4Zm13.36-2.15c-1.38,3.77-4.1,6.01-8.03,6.74-2.37,.44-3.43-.33-3.87-2.69-.06-.33,.09-.8,.32-1.06,1.44-1.63,2.95-3.19,4.39-4.82,.99-1.12,1.91-2.31,3.11-3.78,1.41,1.52,2.75,2.93,4.02,4.4,.21,.25,.2,.85,.07,1.21Zm2.49-2.34c-.35,.14-1.01-.02-1.3-.29-1.37-1.26-2.68-2.59-3.98-3.93-.2-.2-.35-.69-.24-.9,.76-1.55,1.68-3.03,2.38-4.6,.68-1.53,1.14-3.16,1.77-4.93,2.65,1.33,5.16,2.56,7.63,3.86,.32,.17,.59,.78,.58,1.17-.11,4.48-2.95,8.05-6.84,9.62Zm8.7-12.77c-.33,.32-1.2,.43-1.63,.23-2.5-1.15-4.96-2.41-7.41-3.68-.29-.15-.64-.59-.62-.87,.17-3.1,.4-6.19,.64-9.54,2.4,.36,4.76,.72,7.13,1.08,1.06,.16,2.12,.31,3.17,.49,2.05,.36,2.06,.37,2.38,2.46,.6,3.95-.89,7.15-3.65,9.83Zm2.3-13.93c-3.69-.59-7.39-1.1-11.08-1.68-.34-.05-.8-.41-.89-.72-.76-2.55-1.46-5.12-2.16-7.68-.03-.12,0-.26,0-.63,3.29-.54,6.52-1.08,9.76-1.61,1.36-.22,2.72-.43,4.08-.67,1.04-.19,1.7,.12,2.26,1.11,1.92,3.35,1.86,8.39-.18,11.17-.5,.69-.99,.84-1.79,.71Z"/>
      <path d="M52.44,16.17c-.37,.06-.85,.72-.9,1.16-.03,.3,.6,.94,.93,.93,.42,0,.83-.51,1.56-1.03-.76-.54-1.22-1.11-1.59-1.06Z"/>
    </g>
  </g>
</svg>