<?xml version="1.0" encoding="UTF-8"?>
<svg id="_图层_2" data-name="图层 2" xmlns="http://www.w3.org/2000/svg" viewBox="0 0 99.77 68.02">
  <g id="_图层_2-2" data-name=" 图层 2">
    <path d="M76.85,27.7c4.15-5.47,8.66-9.33,14.85-10.69,2.39-.53,5.19-1.57,6.99,.48,1.82,2.08,1,4.91,.14,7.43-1.07,3.14-2.39,6.17-4.63,8.63-1.79,1.97-1.98,3.45-.02,5.54,3.16,3.39,4.84,7.61,5.31,12.22,.42,4.06-1.26,5.63-5.31,4.92-6.15-1.07-11.42-3.83-15.26-8.86-1.66-2.18-2.6-1.92-3.54,.49-.44,1.13-.97,2.4-1.85,3.16-4.39,3.83-5.51,7.81-1.27,12.52,1.4,1.56-.08,2.89-1.06,3.89-1.82,1.83-1.47-1.12-2.24-1.18-5.09-.37-9.64-3.79-15.14-2.21-12.32,3.52-24.1,1.93-35.2-4.51-3.97-2.3-4.04-2.84-1.08-6.32,.35-.42,.74-.82,1.03-1.28,.72-1.12,2.09-2.29,1.16-3.64-.89-1.29-2.28-.13-3.38,.17-5,1.35-9.58,.97-13.06-3.3C-.48,40.56-.97,35.37,1.61,30.14c3.97-8.03,10.6-13.5,18.33-17.66,4.78-2.58,9.62-4.99,14.31-7.81C41.92,.07,50.83-.6,59.73,.4c2.44,.27,4.86,.75,7.28,1.19,2.18,.4,2.56,1.39,.87,2.96-.5,.47-1.02,.92-1.48,1.42-4.33,4.82-4.27,5.28,.7,9.27,3.99,3.2,7.35,6.95,9.75,12.46Zm-53.51,4.7c.11-3.33-2.49-6.14-5.25-6.25-2.71-.11-5.54,2.65-5.59,5.46-.05,2.57,2.91,5.49,5.64,5.38,3.22-.13,4.88-2,5.21-4.59Zm26.79,13.64c4.17-1.68,7.02-5.99,6.86-9.97-.18-4.34-3.11-8.29-7.21-9.32,1.91,6.42,1.31,12.78,.36,19.3Zm12.18,.55c5.05-2.66,7.07-6.27,6.94-10.75-.12-4.34-2.48-7.53-7-9.65,1.6,6.85,1.4,13.21,.06,20.4Zm-25.02-20.27c1.89,6.89,1.62,13.33-.04,20.31,5-2.77,7.44-6.24,6.85-11.49-.46-4.09-2.3-7.11-6.81-8.83Z"/>
  </g>
</svg>