<?xml version="1.0" encoding="UTF-8"?>
<svg id="_图层_2" data-name="图层 2" xmlns="http://www.w3.org/2000/svg" viewBox="0 0 175.39 144.75">
  <g id="_图层_2-2" data-name=" 图层 2">
    <g>
      <path d="M136.78,83.88c-.55-.29-1.21-.43-1.81-.24-.14,.05-.29,.11-.44,.18-.16,.03-.32,.08-.47,.14-.6,.25-1.17,.78-1.32,1.44-.1,.45-.09,.93,.03,1.37,.12,.45,.37,.87,.69,1.21,.15,.16,.32,.28,.5,.39,.39,.22,.83,.35,1.27,.41h.11c.32,.03,.62-.04,.9-.19,.45-.19,.87-.51,1.11-.95,.1-.18,.2-.36,.29-.54,.3-.55,.4-1.21,.24-1.81-.15-.55-.57-1.14-1.08-1.41Z"/>
      <path d="M99.6,19.09c-.55-.29-1.21-.43-1.81-.24-.14,.05-.29,.11-.44,.18-.16,.03-.32,.08-.47,.14-.6,.25-1.17,.78-1.32,1.44-.1,.45-.09,.93,.03,1.37,.12,.45,.37,.87,.69,1.21,.15,.16,.32,.28,.5,.39,.39,.22,.83,.35,1.27,.41h.11c.32,.03,.62-.04,.9-.19,.45-.19,.87-.51,1.11-.95,.1-.18,.2-.36,.29-.54,.3-.55,.4-1.21,.24-1.81-.15-.55-.57-1.14-1.08-1.41Z"/>
      <path d="M88.25,20.49c.54,0,1.05-.47,1.03-1.03-.02-.56-.45-1.03-1.03-1.03-.54,0-1.05,.47-1.03,1.03,.02,.56,.45,1.03,1.03,1.03Z"/>
      <path d="M100.66,126.92c.24-.24,.42-.64,.41-.98-.03-.75-.61-1.39-1.39-1.39-.36,0-.73,.15-.98,.41-.24,.24-.42,.64-.41,.98,.03,.75,.61,1.39,1.39,1.39,.36,0,.73-.15,.98-.41Z"/>
      <path d="M90.55,85.11c-.27,.27-.48,.72-.46,1.11,.04,.85,.69,1.57,1.57,1.57,.4,0,.83-.18,1.11-.46,.27-.27,.48-.72,.46-1.11-.04-.85-.69-1.57-1.57-1.57-.4,0-.83,.18-1.11,.46Z"/>
      <path d="M42.83,60.75c-.03-.6-.48-1.1-1.1-1.1-.58,0-1.13,.51-1.1,1.1,.03,.6,.48,1.1,1.1,1.1,.58,0,1.13-.51,1.1-1.1Z"/>
      <g>
        <path d="M74.37,33.58h1.21v-3.78c0-.1-.01-.18-.03-.23-.02-.06-.05-.1-.09-.14-.04-.03-.09-.06-.14-.07-.06-.01-.12-.02-.18-.02-.1,0-.22,.02-.36,.05-.14,.03-.3,.08-.46,.14-.16,.06-.32,.14-.48,.23-.16,.09-.31,.19-.43,.31-.13,.12-.23,.24-.31,.39-.08,.14-.12,.29-.12,.46,0,.14,.02,.25,.06,.34,.04,.08,.08,.15,.13,.19,.05,.04,.1,.07,.15,.08,.05,.01,.09,.02,.11,.02,.11,0,.2-.02,.27-.06,.07-.04,.14-.08,.19-.12,.06-.04,.11-.08,.16-.12,.05-.04,.11-.06,.18-.06,.05,0,.11,.01,.17,.04,.06,.02,.12,.06,.17,.12,.05,.05,.09,.12,.13,.21,.04,.09,.05,.19,.05,.32,0,.18-.03,.33-.1,.46-.07,.13-.16,.24-.27,.32-.11,.09-.23,.15-.37,.19-.14,.04-.28,.06-.42,.06-.21,0-.4-.04-.58-.11-.17-.07-.32-.17-.44-.3-.12-.13-.21-.28-.27-.45-.06-.17-.09-.36-.09-.55,0-.31,.06-.59,.17-.84,.11-.25,.26-.48,.46-.69,.19-.2,.42-.38,.68-.54,.26-.15,.54-.28,.84-.38,.3-.1,.62-.18,.94-.23,.33-.05,.66-.08,.98-.08,.36,0,.65,.03,.85,.1,.2,.07,.35,.15,.45,.25,.1,.1,.15,.2,.17,.31,.02,.11,.03,.2,.03,.27v3.92h2.45v-3.2c0-.73,.1-1.35,.29-1.87,.19-.51,.44-.93,.74-1.26s.64-.56,1.01-.71c.37-.15,.74-.22,1.11-.22,.25,0,.49,.02,.72,.06,.23,.04,.43,.09,.6,.17,.17,.08,.31,.17,.41,.28,.1,.11,.15,.24,.15,.4,0,.07,0,.13-.03,.19-.02,.06-.05,.11-.08,.16-.04,.05-.08,.09-.12,.12-.05,.03-.09,.04-.14,.04-.08,0-.15-.02-.21-.07-.06-.05-.12-.11-.18-.18-.06-.07-.11-.15-.16-.24-.05-.09-.11-.17-.18-.24-.07-.07-.14-.13-.23-.18-.08-.05-.18-.07-.3-.07-.27,0-.49,.07-.64,.22-.16,.15-.28,.37-.37,.65-.08,.29-.14,.64-.16,1.07-.02,.43-.04,.91-.04,1.46v3.43h1.34v.58h-1.34v4.04c0,.13,.03,.23,.08,.31,.06,.08,.14,.12,.26,.12,.12,0,.24-.02,.35-.07,.11-.04,.2-.09,.28-.13l.11,.25c-.1,.07-.21,.14-.34,.21-.13,.07-.27,.14-.43,.21-.16,.06-.33,.12-.51,.16-.18,.04-.37,.06-.56,.06-.3,0-.55-.04-.73-.12-.19-.08-.33-.19-.43-.32-.1-.13-.17-.28-.2-.44-.03-.16-.05-.33-.05-.5v-3.78h-2.45v3.31c0,.6-.11,1.13-.33,1.58-.22,.45-.52,.82-.9,1.12-.38,.3-.83,.52-1.35,.67-.52,.15-1.07,.22-1.66,.22-.23,0-.44-.02-.65-.06-.21-.04-.39-.09-.55-.16-.16-.07-.29-.15-.38-.24-.1-.09-.14-.19-.14-.3,0-.08,.01-.16,.03-.24,.02-.08,.06-.16,.1-.22,.04-.07,.1-.12,.16-.17,.06-.04,.14-.07,.22-.07,.05,0,.09,.02,.13,.07,.04,.05,.08,.11,.12,.18,.04,.07,.09,.15,.14,.24,.05,.08,.12,.16,.2,.24,.08,.07,.18,.13,.3,.18,.12,.05,.26,.07,.43,.07,.34,0,.63-.06,.88-.19,.25-.12,.45-.3,.61-.53,.16-.23,.28-.5,.36-.81,.08-.31,.12-.65,.12-1.03v-3.9h-1.21v-.58Z"/>
        <path d="M86.8,32.32c-.15,0-.29,.02-.42,.05-.13,.04-.24,.08-.33,.13-.09,.05-.17,.11-.22,.18-.05,.06-.08,.13-.08,.18,0,.07,.03,.11,.1,.14,.07,.03,.15,.06,.23,.1,.08,.04,.16,.09,.23,.16,.07,.07,.1,.17,.1,.32,0,.09-.02,.18-.06,.26-.04,.08-.09,.15-.15,.21-.06,.06-.14,.11-.23,.14-.09,.03-.18,.05-.27,.05-.25,0-.45-.08-.6-.25-.15-.17-.23-.39-.23-.67s.07-.5,.21-.69c.14-.19,.33-.35,.56-.48,.23-.12,.49-.22,.77-.28,.29-.06,.58-.09,.86-.09,.35,0,.68,.04,.99,.11,.31,.08,.59,.2,.83,.36,.24,.16,.43,.37,.58,.62,.14,.25,.22,.56,.22,.92v3.76s0,.08,0,.13c0,.05,.02,.09,.03,.13,.02,.04,.04,.07,.08,.1,.04,.03,.09,.04,.15,.04,.08,0,.15-.03,.22-.09,.07-.06,.13-.12,.18-.18l.17,.14c-.07,.09-.15,.2-.24,.31-.09,.11-.21,.22-.34,.31-.13,.1-.29,.18-.47,.25-.18,.07-.38,.1-.61,.1-.28,0-.53-.08-.74-.25-.22-.17-.36-.42-.43-.77-.14,.19-.29,.35-.44,.48-.15,.13-.31,.23-.47,.31-.16,.08-.32,.14-.48,.17-.16,.04-.32,.05-.49,.05-.21,0-.42-.03-.62-.1-.2-.07-.38-.17-.54-.32-.16-.14-.28-.33-.38-.56-.1-.23-.14-.51-.14-.84,0-.4,.08-.73,.24-.99,.16-.26,.37-.47,.63-.65,.26-.18,.55-.32,.88-.45,.33-.12,.67-.25,1.01-.39,.26-.1,.44-.25,.56-.46,.12-.2,.18-.41,.18-.62,0-.33-.1-.59-.29-.79-.19-.2-.46-.3-.79-.3Zm1.06,2.91c0-.11-.04-.19-.11-.25-.07-.06-.16-.09-.27-.09-.16,0-.3,.04-.44,.11-.14,.07-.26,.18-.37,.31-.11,.14-.19,.31-.25,.51-.06,.2-.09,.44-.09,.7s.02,.47,.06,.64c.04,.17,.09,.3,.15,.4,.06,.1,.14,.17,.22,.21,.08,.04,.17,.06,.27,.06,.12,0,.22-.03,.33-.09,.1-.06,.19-.14,.27-.23,.08-.09,.14-.2,.18-.31,.04-.12,.07-.23,.07-.35v-1.62Z"/>
        <path d="M91.75,32.95c0-.13-.03-.24-.09-.34-.06-.1-.16-.14-.3-.14-.08,0-.14,.01-.19,.04-.05,.03-.11,.06-.17,.11l-.14-.17c.1-.08,.22-.17,.34-.25,.13-.08,.26-.15,.41-.22,.15-.06,.3-.11,.47-.15,.17-.04,.35-.06,.53-.06,.2,0,.37,.03,.51,.09,.14,.06,.26,.14,.36,.22,.1,.09,.17,.18,.22,.27,.05,.1,.08,.18,.09,.24,.09-.12,.19-.24,.32-.34,.12-.1,.25-.19,.4-.26,.14-.07,.3-.13,.46-.17,.16-.04,.33-.06,.5-.06,.35,0,.68,.07,.96,.22,.29,.15,.54,.36,.74,.65,.21,.29,.36,.64,.48,1.07,.11,.43,.17,.92,.17,1.48,0,.65-.07,1.2-.2,1.65-.14,.45-.31,.83-.53,1.11-.22,.29-.47,.5-.75,.63-.28,.13-.57,.2-.86,.2-.24,0-.46-.02-.64-.07-.18-.05-.34-.11-.48-.18-.13-.07-.24-.14-.33-.22-.09-.07-.16-.13-.21-.18v3.24c0,.06,0,.13-.03,.21-.02,.08-.06,.16-.13,.23-.07,.07-.17,.14-.31,.19-.14,.05-.32,.08-.56,.08s-.42-.03-.56-.08c-.14-.06-.24-.12-.31-.2-.07-.08-.12-.16-.13-.23-.02-.08-.03-.14-.03-.19v-8.43Zm2.04,4.23s.02,.1,.05,.19c.03,.09,.08,.18,.15,.27,.07,.09,.15,.18,.26,.25,.1,.07,.23,.11,.38,.11,.19,0,.36-.07,.5-.22,.14-.15,.25-.35,.34-.6,.09-.25,.15-.55,.19-.89,.04-.34,.06-.7,.06-1.09,0-.47-.03-.88-.08-1.2-.05-.33-.13-.59-.22-.79-.1-.2-.21-.35-.35-.44-.14-.09-.29-.14-.46-.14-.1,0-.2,.03-.29,.08-.1,.06-.19,.12-.26,.21-.08,.08-.14,.17-.19,.28-.05,.1-.07,.2-.07,.29v3.7Z"/>
        <path d="M99.17,32.95c0-.13-.03-.24-.09-.34-.06-.1-.16-.14-.3-.14-.08,0-.14,.01-.19,.04-.05,.03-.11,.06-.17,.11l-.14-.17c.1-.08,.22-.17,.34-.25,.13-.08,.26-.15,.41-.22,.15-.06,.3-.11,.47-.15,.17-.04,.35-.06,.53-.06,.2,0,.37,.03,.51,.09,.14,.06,.26,.14,.36,.22,.1,.09,.17,.18,.22,.27,.05,.1,.08,.18,.09,.24,.09-.12,.19-.24,.32-.34,.12-.1,.25-.19,.4-.26,.14-.07,.3-.13,.46-.17,.16-.04,.33-.06,.5-.06,.35,0,.68,.07,.96,.22,.29,.15,.53,.36,.74,.65,.21,.29,.36,.64,.48,1.07,.11,.43,.17,.92,.17,1.48,0,.65-.07,1.2-.2,1.65-.14,.45-.31,.83-.53,1.11-.22,.29-.47,.5-.75,.63-.28,.13-.57,.2-.86,.2-.24,0-.46-.02-.64-.07-.18-.05-.34-.11-.48-.18-.13-.07-.24-.14-.33-.22-.09-.07-.16-.13-.21-.18v3.24c0,.06,0,.13-.03,.21-.02,.08-.06,.16-.13,.23-.07,.07-.17,.14-.31,.19-.14,.05-.32,.08-.56,.08s-.42-.03-.55-.08c-.14-.06-.24-.12-.31-.2-.07-.08-.12-.16-.13-.23-.02-.08-.03-.14-.03-.19v-8.43Zm2.04,4.23s.02,.1,.05,.19c.03,.09,.08,.18,.15,.27,.07,.09,.15,.18,.26,.25,.1,.07,.23,.11,.38,.11,.2,0,.36-.07,.5-.22,.14-.15,.25-.35,.34-.6,.09-.25,.15-.55,.19-.89,.04-.34,.06-.7,.06-1.09,0-.47-.03-.88-.08-1.2-.05-.33-.13-.59-.22-.79-.1-.2-.21-.35-.35-.44-.14-.09-.29-.14-.46-.14-.1,0-.2,.03-.29,.08-.1,.06-.19,.12-.26,.21-.08,.08-.14,.17-.19,.28-.05,.1-.07,.2-.07,.29v3.7Z"/>
        <path d="M111.81,32.82c0,.81-.08,1.59-.24,2.35-.16,.76-.37,1.46-.65,2.13-.28,.66-.61,1.27-.99,1.81-.38,.55-.8,1.02-1.24,1.41-.45,.39-.92,.69-1.42,.91-.5,.22-1,.33-1.51,.33-.39,0-.69-.07-.9-.2-.21-.13-.32-.31-.32-.53,0-.08,.01-.17,.04-.25,.03-.08,.06-.15,.11-.21,.04-.06,.1-.11,.16-.15,.06-.04,.13-.06,.2-.06,.08,0,.15,.04,.21,.13,.06,.08,.11,.18,.18,.28,.06,.1,.14,.19,.23,.28,.09,.08,.21,.13,.37,.13,.2,0,.41-.03,.62-.1,.22-.07,.44-.17,.65-.3,.22-.13,.44-.28,.66-.47,.22-.18,.44-.39,.65-.62-.12-.45-.27-.94-.43-1.47-.16-.53-.33-1.06-.51-1.6-.18-.54-.36-1.05-.55-1.55-.19-.5-.37-.94-.55-1.33-.18-.39-.35-.69-.52-.93-.17-.23-.31-.35-.44-.35-.08,0-.15,.01-.2,.04-.05,.03-.1,.06-.16,.11l-.13-.17c.09-.08,.18-.15,.28-.23,.1-.08,.21-.15,.35-.22,.13-.07,.29-.12,.47-.16,.18-.04,.39-.06,.64-.06,.27,0,.52,.06,.75,.18,.23,.12,.44,.35,.63,.67,.14,.24,.28,.54,.43,.88,.15,.34,.3,.72,.45,1.14,.15,.42,.3,.88,.46,1.37,.15,.49,.31,1,.46,1.54,.27-.58,.5-1.19,.66-1.83,.17-.64,.25-1.31,.25-1.99,0-.24-.02-.45-.05-.62-.03-.17-.07-.32-.11-.44-.04-.12-.08-.23-.11-.31-.03-.09-.05-.16-.05-.23s.03-.12,.08-.17c.05-.05,.12-.08,.19-.11,.08-.03,.15-.05,.23-.06s.14-.02,.2-.02c.12,0,.21,.02,.28,.07,.06,.05,.11,.12,.14,.21,.03,.09,.05,.2,.05,.33,0,.13,0,.27,0,.43Z"/>
      </g>
      <g>
        <path d="M132.09,49.3c.72-.25,1.34-.81,1.48-1.59,.08-.4,.09-.78-.02-1.17-.09-.3-.25-.6-.47-.82-.13-.13-.3-.28-.46-.36-.35-.15-.65-.24-1.03-.19-.32,.04-.64,.17-.87,.4-.21,.16-.38,.33-.52,.58-.19,.35-.28,.67-.31,1.06-.04,.63,.22,1.23,.64,1.68,.37,.39,1.04,.59,1.56,.41Z"/>
        <path d="M131.47,46.92s0,0-.01-.01c.03,.02,.07,.05,.01,.01Z"/>
        <path d="M131.45,46.92s0,0,0,0c0,.01,.01,.02,0,0Z"/>
      </g>
      <path d="M99.05,49.37c.04-.85,.64-1.58,1.47-1.58,.77,0,1.5,.73,1.47,1.58-.04,.85-.64,1.58-1.47,1.58-.77,0-1.5-.73-1.47-1.58Z"/>
      <path d="M92.36,27.1c.24-.86-.57-1.65-1.43-1.43-.37,.1-.66,.32-.77,.69-.14,.44-.08,.91,.26,1.25,.62,.62,1.71,.33,1.94-.51Z"/>
      <path d="M111.29,127.43c-.52,0-1.03,.46-1,1,.02,.54,.44,1,1,1,.52,0,1.03-.46,1-1-.02-.54-.44-1-1-1Z"/>
      <path d="M78.66,127.06c-.52,0-1.03,.46-1,1,.02,.54,.44,1,1,1,.52,0,1.03-.46,1-1-.02-.54-.44-1-1-1Z"/>
      <path d="M124.53,82.28l-.05,.03c-.52,.31-.62,1.04-.19,1.47,.43,.43,1.16,.33,1.47-.19,.01-.02,.02-.03,.03-.05,.2-.34,.15-.84-.14-1.12-.3-.27-.76-.36-1.12-.14Z"/>
      <path d="M102.34,78.79l-.05,.03c-.52,.31-.62,1.04-.19,1.47,.43,.43,1.16,.33,1.47-.19,.01-.02,.02-.03,.03-.05,.2-.34,.15-.84-.14-1.12-.3-.27-.76-.36-1.12-.14Z"/>
      <path d="M53.74,82.18c.02,.51,.41,.94,.94,.94,.49,0,.96-.43,.94-.94-.02-.51-.41-.94-.94-.94-.49,0-.96,.43-.94,.94Z"/>
      <path d="M64.49,83.27c-1.24,.7-1.84,2.39-1.09,3.66,.45,.76,1.24,1.29,2.14,1.3,.71,0,1.39-.26,1.9-.76,1.01-.99,1.18-2.77,.09-3.78-.18-.16-.38-.29-.58-.39-.71-.45-1.68-.48-2.46-.04Z"/>
      <path d="M113.85,12.68c-.65-.5-.72-1.16-1.21-1.75-.42-.51-1.03-.79-1.64-.99-1.04-.35-2.69-.71-3.82-.26-1.06-.62-2.19-1.16-3.37-1.61-.03-.04-.05-.08-.08-.12,.56-.23,1.08-.56,1.54-1,.38-.38,.69-.84,.9-1.33,.23-.54,.18-1.2,.42-1.71,.31-.64,.01-1.51-.74-1.66-1.47-.29-2.97,.6-3.94,1.65-.67,.73-1.53,2.07-1.26,3.15-2-.52-4.07-.86-6.1-1.06,.69-.3,1.3-.78,1.75-1.46,.66-1,1.36-3.69-.1-4.4-1.21-.59-3.1,.92-3.82,1.76-.89,1.04-1.67,2.51-1.25,3.87-.81-.03-1.6-.04-2.37-.03-.77,0-1.56,.04-2.34,.09-.11-.08-.24-.16-.36-.23,.3-.38,.54-.81,.72-1.26,.31-.8,.7-2.5-.06-3.19-.94-.84-2.31,.35-2.85,1.08-.84,1.13-1.43,2.56-1.37,3.98,0,.03,.01,.05,.02,.07-1.5,.24-3,.57-4.47,.99,.49-.77,.81-1.64,.92-2.56,.08-.64,.24-1.68-.45-2.04-.68-.36-1.6,.21-2.09,.66-.78,.71-1.29,1.77-1.53,2.78-.14,.58-.38,1.51-.06,2.08-1.15,.34-2.25,.9-3.29,1.44-2.09,1.09-4.5,2.04-6.24,3.65-.2,.18,.04,.45,.25,.4,2.05-.42,3.92-1.62,5.77-2.54,.36-.18,.72-.35,1.08-.52,.64-.23,1.29-.44,1.94-.65,.11,.44,.42,.88,.72,1.13,.37,.31,.79,.47,1.24,.57,.51,.27,1.11,.42,1.65,.51,.2,.03,.39,.04,.58,.03,.04,.02,.08,.04,.12,.06,.31,.19,.63-.02,.73-.31,.36-.25,.53-.69,.32-1.36-.17-.56-.54-1.3-1.03-1.84,1.36-.32,2.73-.59,4.13-.79,.02,.04,.04,.08,.06,.11,.11,.6,.34,1.21,.5,1.52,.57,1.16,1.82,2.41,3.18,2.54,1.79,.17,1.93-1.73,1.69-3.05-.1-.55-.26-1.09-.48-1.57,.26,0,.53-.02,.79-.03,1.08-.02,2.16,0,3.24,.07,.04,1.1,.53,2.12,1.26,2.99,.64,.77,2.16,2.56,3.35,2.07,1.28-.53,.65-3.17,.26-4.1-.07-.16-.14-.31-.22-.45,.97,.16,1.94,.36,2.9,.59,.38,.09,.75,.19,1.13,.3-.31,1.72,.91,4,2.07,4.87,.72,.55,1.86,.81,2.32-.19,.13-.28,.13-.58,.1-.87,.18-.81,.16-1.61-.02-2.37,.88,.31,1.76,.61,2.64,.91,.04,.05,.07,.1,.11,.14,.1,.15,.21,.29,.3,.43,.35,.54,.74,1.05,1.29,1.39,.93,.57,2.08,.63,3.06,.22,.47-.04,.94-.14,1.4-.32,.19-.07,.3-.35,.11-.5Z"/>
      <path d="M59.82,129.62c.58,.57,.57,1.24,.98,1.88,.35,.55,.92,.91,1.5,1.18,1,.47,2.58,1.03,3.76,.72,.98,.75,2.03,1.41,3.15,2.01,.02,.04,.04,.08,.07,.13-.59,.16-1.14,.42-1.65,.81-.43,.33-.78,.75-1.05,1.22-.29,.51-.33,1.17-.63,1.64-.39,.6-.19,1.5,.54,1.74,1.43,.47,3.02-.24,4.11-1.16,.76-.64,1.77-1.87,1.64-2.97,1.92,.76,3.93,1.35,5.92,1.8-.72,.21-1.39,.62-1.92,1.24-.78,.91-1.8,3.49-.44,4.38,1.13,.73,3.19-.54,4.01-1.29,1.01-.92,1.97-2.29,1.71-3.69,.8,.12,1.58,.23,2.35,.32,.77,.09,1.55,.15,2.34,.19,.1,.1,.22,.19,.33,.27-.34,.34-.63,.73-.87,1.17-.41,.75-1,2.39-.32,3.17,.83,.95,2.34-.07,2.96-.72,.97-1.02,1.73-2.37,1.85-3.79,0-.03,0-.05,0-.07,1.52-.06,3.05-.2,4.56-.44-.58,.71-1.01,1.53-1.23,2.43-.15,.62-.44,1.64,.19,2.08,.63,.44,1.61-.01,2.15-.4,.86-.61,1.5-1.6,1.86-2.57,.21-.56,.56-1.45,.31-2.06,1.18-.2,2.34-.62,3.44-1.03,2.21-.82,4.72-1.47,6.64-2.86,.22-.16,.02-.45-.2-.43-2.08,.17-4.09,1.13-6.04,1.82-.38,.14-.76,.26-1.14,.39-.67,.15-1.33,.28-2,.41-.05-.45-.31-.92-.58-1.21-.33-.36-.73-.56-1.16-.71-.48-.33-1.05-.56-1.58-.71-.19-.05-.39-.09-.57-.1-.04-.03-.08-.05-.11-.08-.29-.22-.63-.05-.76,.22-.39,.2-.61,.62-.49,1.31,.1,.58,.38,1.36,.8,1.95-1.39,.15-2.78,.25-4.19,.28-.01-.04-.03-.08-.04-.12-.03-.61-.19-1.24-.31-1.57-.43-1.23-1.52-2.61-2.84-2.91-1.76-.39-2.12,1.48-2.05,2.82,.03,.56,.12,1.11,.29,1.62-.26-.02-.53-.04-.79-.07-1.08-.11-2.15-.27-3.21-.47,.09-1.1-.26-2.17-.89-3.13-.55-.84-1.84-2.81-3.07-2.47-1.34,.37-1.03,3.07-.76,4.04,.05,.16,.1,.32,.16,.47-.94-.28-1.88-.59-2.81-.94-.36-.14-.72-.28-1.08-.43,.51-1.67-.41-4.08-1.46-5.09-.65-.63-1.75-1.03-2.32-.09-.16,.26-.2,.56-.2,.85-.28,.78-.36,1.58-.27,2.35-.84-.41-1.67-.82-2.51-1.22-.03-.05-.06-.1-.09-.15-.08-.16-.17-.31-.24-.46-.28-.58-.61-1.13-1.11-1.54-.85-.68-1.99-.88-3.01-.59-.47-.02-.95,.03-1.43,.15-.2,.05-.34,.31-.17,.48Z"/>
      <path d="M30.3,90.4c.57,0,1.12-.5,1.1-1.1-.03-.59-.48-1.1-1.1-1.1-.57,0-1.12,.5-1.1,1.1,.03,.59,.48,1.1,1.1,1.1h0Z"/>
      <path d="M155.9,48.69c.22,.13,.4,.15,.65,.18,.34,.04,.79-.23,.93-.53,.09-.19,.16-.33,.16-.54s-.06-.35-.16-.54c-.14-.3-.59-.58-.93-.53-.24,.03-.43,.05-.65,.18-.67,.4-.67,1.4,0,1.8h0Z"/>
      <path d="M.51,83.06c.22,.13,.4,.15,.65,.18,.34,.04,.79-.23,.93-.53,.09-.19,.16-.33,.16-.54s-.06-.35-.16-.54c-.14-.3-.59-.58-.93-.53-.24,.03-.43,.05-.65,.18-.67,.4-.67,1.4,0,1.8H.51Z"/>
      <path d="M13.89,99.69c.11-.31,.09-.75,0-1.05-.12-.44-.37-.77-.72-1.05-.48-.37-1.14-.55-1.74-.36-.5,.16-.93,.46-1.19,.92-.26,.45-.34,1.04-.2,1.54,.14,.51,.48,.91,.92,1.19,.45,.29,1.03,.32,1.54,.2,.34-.09,.63-.27,.88-.51,.25-.25,.42-.54,.51-.88h0Z"/>
      <path d="M173.33,83.06c.53,0,1.08-.23,1.46-.6s.63-.94,.6-1.46c-.02-.53-.2-1.09-.6-1.46-.4-.37-.9-.6-1.46-.6-.53,0-1.08,.23-1.46,.6s-.63,.94-.6,1.46c.02,.53,.2,1.09,.6,1.46,.4,.37,.9,.6,1.46,.6h0Z"/>
      <path d="M164.45,92.13c.5,0,.99-.44,.97-.97-.02-.52-.42-.97-.97-.97-.5,0-.99,.44-.97,.97,.02,.52,.42,.97,.97,.97h0Z"/>
      <path d="M4.53,65.07c.5,0,.99-.44,.97-.97-.02-.52-.42-.97-.97-.97-.5,0-.99,.44-.97,.97,.02,.52,.42,.97,.97,.97h0Z"/>
      <path d="M171.66,65.19c.56,0,1.11-.5,1.08-1.08-.03-.58-.47-1.08-1.08-1.08-.56,0-1.11,.5-1.08,1.08,.03,.58,.47,1.08,1.08,1.08h0Z"/>
      <path d="M30.75,65.86c.35,0,.69-.31,.67-.67-.02-.36-.29-.67-.67-.67-.35,0-.69,.31-.67,.67,.02,.36,.29,.67,.67,.67h0Z"/>
      <path d="M56.08,124.64c.35,0,.69-.31,.67-.67-.02-.36-.29-.67-.67-.67-.35,0-.69,.31-.67,.67,.02,.36,.29,.67,.67,.67h0Z"/>
      <path d="M103.55,132.34c.35,0,.69-.31,.67-.67-.02-.36-.29-.67-.67-.67-.35,0-.69,.31-.67,.67,.02,.36,.29,.67,.67,.67h0Z"/>
      <path d="M116.63,87.17c.35,0,.69-.31,.67-.67-.02-.36-.29-.67-.67-.67-.35,0-.69,.31-.67,.67,.02,.36,.29,.67,.67,.67h0Z"/>
      <path d="M128.22,38.88c.35,0,.69-.31,.67-.67-.02-.36-.29-.67-.67-.67-.35,0-.69,.31-.67,.67,.02,.36,.29,.67,.67,.67h0Z"/>
      <path d="M89.85,120.49c.35,0,.69-.31,.67-.67-.02-.36-.29-.67-.67-.67-.35,0-.69,.31-.67,.67,.02,.36,.29,.67,.67,.67h0Z"/>
      <path d="M99.05,28.61c.35,0,.69-.31,.67-.67-.02-.36-.29-.67-.67-.67-.35,0-.69,.31-.67,.67,.02,.36,.29,.67,.67,.67h0Z"/>
      <path d="M73.57,81.67c.35,0,.69-.31,.67-.67-.02-.36-.29-.67-.67-.67-.35,0-.69,.31-.67,.67,.02,.36,.29,.67,.67,.67h0Z"/>
      <path d="M147.53,93.68c.49,0,.95-.43,.93-.93-.02-.5-.41-.93-.93-.93-.49,0-.95,.43-.93,.93,.02,.5,.41,.93,.93,.93h0Z"/>
      <path d="M140.98,70.29s0,.01,0,.02c.03,.38,.14,.72,.41,1,.24,.24,.65,.43,1,.41,.77-.03,1.41-.62,1.41-1.41,0,0,0-.01,0-.02,0-.36-.16-.74-.41-1s-.65-.43-1-.41c-.36,.02-.74,.14-1,.41-.24,.26-.44,.63-.41,1h0Z"/>
      <path d="M138.12,128.8c-.8-4.47-2.36-9.33-7.35-10.48-.12-.03-.23-.03-.34-.02,.69,.81,1.2,1.91,1.74,2.75,1.01,1.56,1.99,3.09,3.17,4.55,.04,.05-.02,.11-.07,.07-1.46-1.16-2.93-2.39-4.13-3.82-.57-.68-1.3-1.5-1.77-2.38-.04,1.22-.04,2.4,.33,3.49,.16,.84,.48,1.65,1.02,2.32,1.55,1.95,4.22,3.24,6.4,4.29,.56,.27,1.11-.17,1-.77Z"/>
      <path d="M91.19,129.49c-1.66-1.04-3.27-2.07-5.03-2.94-.06-.03-.03-.11,.04-.1,1.9,.46,3.86,.98,5.63,1.81,.85,.4,1.91,.85,2.74,1.48-.5-1.18-1.02-2.31-1.86-3.18-.52-.74-1.19-1.36-2-1.77-2.34-1.17-5.47-1.22-8.01-1.25-.65,0-.98,.65-.62,1.18,2.74,3.91,6.38,7.86,11.65,6.74,.12-.03,.23-.07,.33-.13-1.02-.47-2-1.29-2.88-1.85Z"/>
      <path d="M113.67,80.48c-3.08,.54-6.43,1.6-7.24,5.03-.02,.08-.02,.16-.02,.23,.56-.47,1.32-.82,1.9-1.19,1.08-.69,2.14-1.36,3.14-2.17,.03-.03,.07,.01,.05,.05-.8,1-1.66,2.01-2.64,2.84-.47,.39-1.04,.89-1.65,1.21,.84,.03,1.66,.04,2.41-.22,.58-.1,1.13-.33,1.6-.7,1.35-1.06,2.25-2.9,2.97-4.4,.19-.38-.11-.77-.53-.69Z"/>
      <path d="M119.76,122.54c.1,1.26-.25,2.52-.53,3.76-.47,2.1-.79,4.11-.95,6.26,0,.02-.03,.02-.03,0-.51-1.65-.25-3.47-.06-5.17,.19-1.75,.05-3.41,.05-5.13-.55,.25-.93,.92-1.19,1.71-.98,1.62-1.76,3.4-1.78,5.3-.03,2.72,2.01,4.34,2.68,6.81,.15,.54,.97,.43,.97-.13,.01-1.71,1.61-2.97,2.26-4.44,.46-1.05,.7-2.19,.71-3.34,.01-1.69-.55-4.56-2.12-5.63Z"/>
      <path d="M55.35,17.76c-.32-2.71-2.55-4.04-3.53-6.41-.21-.52-1.01-.3-.95,.25,.21,1.7-1.21,3.15-1.67,4.7-.33,1.1-.41,2.27-.28,3.4,.22,1.79,1.26,4.85,3.19,5.47,.19,.06,.36,.09,.52,.09-.71-1.31-.76-3.05-.79-4.47-.05-2.26-.1-4.51-.19-6.76,0-.02,.02-.02,.03,0,.76,1.56,.85,3.37,1,5.07,.11,1.17,.21,2.35,.46,3.5,.15,.69,.41,1.36,.61,2.04,.24-.36,.39-.85,.49-1.37,.77-1.73,1.31-3.6,1.09-5.49Z"/>
      <path d="M42.98,29.62c-1.39-1.34-2.96-2.57-4.51-3.72-.05-.04,0-.11,.05-.08,1.8,.86,3.44,1.87,5.07,3.01,.86,.61,1.86,1.23,2.66,2-.27-1.11-.59-2.17-1.19-3.07-.37-.77-.9-1.46-1.6-1.97-2.01-1.46-4.93-2-7.31-2.43-.61-.11-1.02,.46-.76,1.01,1.96,4.09,4.75,8.37,9.87,8.15,.15,0,.28-.04,.4-.09-.98-.83-1.78-1.93-2.68-2.8Z"/>
      <g>
        <path d="M128.22,24.47s-.08-.06-.11-.08c0,0,.04,.03,.11,.08Z"/>
        <path d="M151.57,33.28c-3.07-.3-4.21-.71-4.64-.98-.26-.16-.25-.27-.25-.27-1.34-1.64,2.91-2.95,2.91-2.95-.59-.22-.93-.54-1.1-.92-.62-1.39,1.11-3.57,1.96-4.52h0c.26-.3,.44-.47,.44-.47-2.25,1.66-3.15,1.06-3.15,1.06-.34-.06-.63-.07-.88-.05,0,0,0,0,0,0,0,0,0,0,0,0-1.09,.07-1.49,.66-1.49,.66-1.25,.2-1.12-1.17-1.12-1.17-1.73,2.89-2.74,2.18-2.74,2.18-1.16,.13-1.08-1.26-1.08-1.26,.35-1.64-.25-2.11-.25-2.11-2.11-1.34-1.84-4.75-1.84-4.75-.29,2.72-1.02,2.83-1.02,2.83-.3,.14-.52,.31-.7,.49h0s0,0,0,0c-.54,.54-.58,1.12-.58,1.12-1.15,2.03-2.17,.38-2.17,.38,.02,.2,.04,.39,.07,.59,.17,1.98-.55,2.95-.55,2.95-1,1.32-4.52-1.1-5.19-1.59,.97,.8,2.08,4.51,2.08,4.51,.15,.88-.99,.28-1.2,.17,1.44,.8,2.66,2.52,2.66,2.52-.27,2.2-1.95,1.21-1.95,1.21,1.82,2.14,4.08,2.43,5.35,2.39,.38-.39,.79-.76,1.22-1.12-1.7-1.86-3.2-3.95-4.75-5.93-.02-.03,.02-.07,.05-.04,1.8,1.78,3.71,3.53,5.37,5.45,.6-.45,1.21-.87,1.78-1.29-.48-3.16-.72-6.4-.98-9.58,0-.08,.12-.1,.13-.01,.42,2.89,1.01,5.72,1.57,8.58,.04,0,.07,.02,.11,.04,.1,.04,.2,.09,.3,.14,2.03-1.56,3.97-3.28,6.04-4.76,.03-.02,.07,.02,.04,.05-1.43,1.93-3.51,3.49-5.3,5.07,1.2,.58,2.38,1.19,3.65,1.64,1.81,.65,3.67,1.12,5.53,1.6,.02,0,.02,.03,0,.03-3.3-.24-7.03-1.05-10.12-2.42-.66,.6-1.3,1.2-1.93,1.83,1.96,2.02,4.02,3.95,6.11,5.84,.05,.04-.01,.11-.06,.08-2.31-1.65-4.49-3.47-6.59-5.38-.42,.44-.83,.9-1.27,1.34-.07,4.33,2.61,5.67,2.61,5.67-.22-3.76,2.43-.37,3.19,.67h0s0,0,0,0c.12,.17,.2,.28,.2,.28-.34-2.62,6.41,1.25,6.41,1.25-2.15-1.25-2.62-4.3-2.62-4.3-.76-2.49,3.13,.2,3.13,.2-1.55-2.62,2.06-2.53,2.06-2.53,.22-1.33,2.8-1.74,2.8-1.74-4.32-1.71-2.28-2.65-2.28-2.65Z"/>
      </g>
      <g>
        <path d="M149.77,59.19s0-.02-.01-.04c0,0,0,.01,.01,.04Z"/>
        <path d="M152.57,54.8c0-.05-.02-.11-.03-.15,0,0,0,.06,.03,.15Z"/>
        <path d="M168.36,69.22c-.23-.3-.45-.52-.67-.7-.92-.76-1.68-.59-1.68-.59-1.14-.77-.02-1.78-.02-1.78-3.54,1.01-3.82-.31-3.82-.31-1.02-.77,.08-1.82,.08-1.82,1.51-1.05,1.38-1.87,1.38-1.87-.68-2.65,2.09-5.17,2.09-5.17-2.27,1.96-2.93,1.5-2.93,1.5-.34-.11-.65-.14-.92-.13h0s0,0,0,0c-.83,.03-1.3,.46-1.3,.46-2.44,.77-2.01-1.32-2.01-1.32-.13,.17-.26,.34-.38,.52-1.35,1.71-2.65,1.94-2.65,1.94-1.79,.31-2.78-4.26-2.96-5.15,.17,1.37-1.71,5.15-1.71,5.15-.54,.81-1.01-.52-1.08-.76,.55,1.71,.24,4.01,.24,4.01-1.86,1.56-2.46-.49-2.46-.49-.15,2.94,1.3,4.83,2.35,5.79,.29,0,.59,0,.88,.02,0,0,0,0,0,0,.87-2.15,1.76-4.29,2.72-6.4,.02-.05,.11-.01,.09,.04-.72,2.12-1.35,4.25-1.86,6.43,.96,.09,1.92,.24,2.85,.44,.03,0,.05,0,.07,.02,0,0,0,0,0,0,1.87-2.81,4.23-5.4,6.58-7.81,.01-.01,.04,0,.03,.02-1.94,2.59-3.53,5.32-5.18,8.08,2.78,.49,5.44,.67,8.32,.75,.04,0,.05,.06,0,.06-2.89,.73-5.92,.46-8.85,.11-.13-.02-.27-.02-.4-.04,1.72,2.98,3.52,5.88,5.53,8.68,.02,.03-.03,.07-.05,.04-2.43-2.79-4.74-5.72-6.77-8.82-.64-.03-1.28-.06-1.92-.06,.49,2.24,.84,4.5,1.4,6.73,.01,.05-.06,.09-.09,.04-1.29-2.15-2.3-4.34-2.76-6.78-.15,0-.3,0-.44,0-3.54,3.48-2.36,6.68-2.36,6.68,2.64-3.17,2.22,1.53,2.05,2.92h0s0,0,0,0c-.03,.23-.05,.37-.05,.37,1.7-2.35,4.18,5.8,4.18,5.8-.78-2.6,1.13-5.39,1.13-5.39,1.26-2.56,2.35,2.5,2.35,2.5,.73-3.26,3.54-.48,3.54-.48,1.17-.9,3.54,.71,3.54,.71-2.16-4.6,.17-3.82,.17-3.82-2.23-2.53-2.83-3.72-2.97-4.25-.08-.32,0-.4,0-.4,.15-2.31,4.54-.17,4.54-.17-.31-.62-.34-1.13-.19-1.56,.54-1.57,3.56-2.02,4.96-2.14,.43-.04,.71-.05,.71-.05-3.04-.36-3.31-1.51-3.31-1.51Z"/>
      </g>
      <g>
        <path d="M22.19,88.67s0,.03,0,.04c0,0,0-.01,0-.04Z"/>
        <path d="M22.49,78.63c-1.18,2.17-2.51,4.37-3.98,6.33-.02,.03-.07,.01-.06-.03,.8-2.24,1.85-4.46,2.97-6.57-1.32-.36-2.63-.81-3.86-1.13,0,0,0,0-.01,0-1.16,1.32-2.37,2.6-3.49,3.96-1.21,1.48-2.29,3.29-3.77,4.52-.05,.04-.13,0-.11-.06,.59-1.68,1.86-3.12,2.96-4.5,1.12-1.41,2.28-2.83,3.54-4.13-3.13-.73-6.37-1.06-9.46-1.89-.07-.02-.05-.13,.02-.13,3.03-.13,6.29,.54,9.27,1.07,.15,.03,.3,.06,.44,.08-1.17-2.73-2.12-5.57-2.99-8.4-.02-.06,.07-.08,.09-.03,1.12,3.01,2.52,5.79,4.07,8.6,.01,.02,.02,.05,.03,.07,.95,.2,1.89,.41,2.84,.61,.06,.01,.12,.02,.18,.03-.32-2.41-.59-4.77-1.27-7.13-.02-.05,.07-.09,.09-.04,1.13,2.36,2.3,4.86,2.88,7.42,0,0,0,.01,0,.02,.44,.05,.88,.08,1.32,.11,3.45-2.79,2.85-5.85,2.85-5.85-3.14,2.74-1.96-1.88-1.57-3.24h0s0,0,0,0c.06-.22,.11-.36,.11-.36-2.06,2.07-3.23-6.45-3.23-6.45,.36,2.72-1.99,5.19-1.99,5.19-1.66,2.35-1.94-2.87-1.94-2.87-1.24,3.12-3.6-.09-3.6-.09-1.31,.71-3.41-1.27-3.41-1.27,1.42,4.93-.78,3.78-.78,3.78,1.81,2.88,2.22,4.16,2.28,4.71,.03,.33-.07,.4-.07,.4-.52,2.28-4.55-.55-4.55-.55,.21,.66,.16,1.18-.06,1.59-.79,1.48-3.87,1.44-5.28,1.34h0c-.44-.03-.71-.07-.71-.07,2.97,.84,3.05,2.03,3.05,2.03,.18,.33,.36,.59,.55,.81,.8,.91,1.58,.86,1.58,.86,1.01,.95-.27,1.77-.27,1.77,3.69-.44,3.76,.92,3.76,.92,.9,.93-.37,1.8-.37,1.8-1.67,.81-1.68,1.64-1.68,1.64,.26,2.74-2.91,4.81-2.91,4.81,2.57-1.59,3.16-1.02,3.16-1.02,.32,.16,.63,.24,.9,.28h0s0,0,0,0c.83,.11,1.37-.25,1.37-.25,2.55-.37,1.79,1.64,1.79,1.64,.16-.15,.31-.3,.46-.46,1.62-1.49,2.95-1.51,2.95-1.51,1.83-.02,2.09,4.69,2.12,5.6,.05-1.39,2.53-4.86,2.53-4.86,.67-.72,.92,.68,.96,.93-.28-1.79,.41-4.03,.41-4.03,2.11-1.25,2.37,.88,2.37,.88,.77-3.63-1.2-6.01-1.99-6.79-.16-.03-.33-.07-.49-.11Z"/>
        <path d="M18.7,92.6c0,.05,0,.11,0,.16,0,0,0-.06,0-.16Z"/>
      </g>
      <g>
        <path d="M43.33,117.23s-.11-.09-.3-.25h0c-1.11-.96-4.75-4.33-.46-3.72,0,0-1.41-3.5-6.94-3.56-.08,.07-.15,.14-.23,.21,.71,.99,1.09,2.28,1.54,3.4,.65,1.6,1.34,3.19,1.9,4.83,.01,.04-.04,.06-.06,.03-.79-1.43-1.52-2.9-2.34-4.31-.6-1.03-1.4-2.05-1.87-3.17-.03,.03-.06,.05-.09,.08-.58,.58-1.17,1.16-1.76,1.73,.9,3.74,1.45,7.65,1.65,11.49,0,.06-.08,.07-.1,.01-.87-3.55-1.65-7.17-2.29-10.78-.01,.01-.03,.03-.04,.04-.07,.15-.19,.28-.35,.35-.32,.31-.63,.62-.95,.94-2.31,2.33-4.56,5.16-7.23,7.07-.04,.03-.09-.03-.07-.07,1.81-2.62,4.46-4.87,6.62-7.2,.25-.27,.5-.55,.75-.83-3.37-.86-6.68-2.01-10.01-3.01-.04-.01-.02-.07,.02-.06,3.6,.5,7.27,.97,10.79,1.86,.08,.02,.15,.05,.21,.09,.54-.6,1.07-1.21,1.61-1.82,.08-.09,.16-.18,.23-.28-1-.52-1.65-1.3-2.45-2.12-1.07-1.09-2.27-2.03-3.49-2.96-.05-.04,0-.12,.05-.08,1.23,.67,2.45,1.35,3.59,2.17,1,.72,1.98,1.49,3.1,2,.23-.29,.46-.59,.7-.88,.14-1.48-.04-4-2.25-6.2,0,0,.98,2.02-1.57,2.12,0,0-1.86-1.57-2.64-3.29,.11,.24,.69,1.61-.31,1.35,0,0-4.14-1.62-4.97-2.81,.49,.82,2.94,5.07,1.33,6.1,0,0-1.17,.74-3.43,.35-.22-.05-.44-.1-.66-.14,0,0,1.8,1.33-.64,2.45,0,0-.67,0-1.34,.56,0,0,0,0,0,0h0c-.22,.18-.43,.43-.63,.75,0,0-.19,.83-3.34,.9,0,0,3.94,.01,5.27,2.56,0,0,.48,.72,2.39,.48,0,0,1.6,.04,1.34,1.36,0,0,.71,1.23-2.76,2.93,0,0,1.58,0,1.24,1.4,0,0-.71,.4-.89,1.64-.04,.29-.06,.63-.02,1.02,0,0,.6,1.09-1.51,3.51,0,0,.22-.19,.58-.46h0c1.17-.89,3.84-2.66,5.37-1.82,.42,.23,.75,.66,.95,1.35,0,0,1.91-4.76,3.66-3.06,0,0,.12,0,.29,.31,.27,.51,.63,1.86,.68,5.4,0,0,1.27-2.25,2.82,2.86,0,0,.71-2.92,2.25-3.04,0,0,.24-4.14,3.1-2.12,0,0-2.72-4.71,.07-3.6,0,0,3.45,.83,4.68,3.4,0,0-3.81-8.1-.83-7.47Z"/>
        <path d="M23.36,99.61c-.05-.09-.08-.14-.08-.14,.02,.05,.05,.09,.08,.14Z"/>
        <path d="M28.63,101.07s-.02-.04-.02-.04c0,.01,.01,.02,.02,.04Z"/>
      </g>
      <path d="M173.28,93.77c-.16-.05-.6,.2-.74,.28-.38,.21-.7,.33-1,.66-.48,.54-1.14,.82-1.62,1.37-.44,.5-1.06,.84-1.61,1.22-.55,.38-1.09,.69-1.69,.99-.79,.4-1.68,.53-2.52,.69-.35,.07-.64,.26-.92,.48-.14,.11-.32,.19-.47,.3-.05,.04-.34,.31-.43,.3-.16-.04-.16-.58-.16-.7-.01-.29,.18-.67,.05-.94-.4,.3-.89,.45-1.34,.67-.6,.3-.89,.96-1.41,1.34-.18,.13-.3,.27-.47,.41-.16,.13-.16,.09-.31-.05-.16-.15-.38-.35-.46-.56-.05-.15,.03-.3,0-.45-.03-.2-.09-.22-.29-.14-.26,.1-.5,.29-.69,.49-.4,.41-.78,.85-1.17,1.27-.18,.2-.37,.4-.55,.6-.11,.12-.23,.32-.37,.41-.16,.11-.23-.03-.36-.16-.16-.15-.31-.35-.39-.56-.17-.03-.3,.19-.42,.27-.12,.08-.26,.12-.38,.21-.16,.12-.28,.28-.45,.39-.12,.09-.22,.17-.32,.29-.26,.29-.65,.6-.77,.95-.2-.04-.2-.37-.3-.47-.16-.16-.2-.01-.34,.14-.3,.32-.5,.68-.68,1.09-.04,.09-.05,.16-.08,.25-.05,.16-.13,.29-.18,.44-.09,.29-.05,.58-.1,.87-.02,.1-.08,.31-.12,.39-.15,.28-.25,.25-.46,.03-.06-.06-.13-.28-.21-.3-.09-.02-.31,.32-.35,.38-.07,.13-.08,.25-.11,.38-.05,.23-.12,.46-.16,.7-.05,.32-.08,.57-.24,.85-.07,.12-.17,.18-.25,.29-.09,.13-.09,.25-.15,.4-.1,.27-.2,.54-.31,.79-.18,.41-.34,.88-.58,1.25-.3,.47-.69,.84-.93,1.36-.22,.48-.33,1.01-.39,1.53-.01,.12,0,.23,0,.36,0,.18-.07,.31-.11,.48-.06,.21-.1,.42-.1,.65,0,.33,0,.67,.02,1,0,.11,.06,.21,.07,.32,0,.07-.06,.17-.06,.25,0,.66-.18,1.33-.24,1.99-.04,.44-.05,.85-.15,1.28-.11,.46-.23,.93-.31,1.41-.06,.35-.1,.73-.19,1.05-.09,.33-.29,.54-.47,.83-.15,.24-.21,.61-.35,.86-.08,.15-.11,.31-.2,.46-.05,.08-.13,.13-.17,.21-.03,.05-.02,.1,0,.26,1.22-2.03,2.86-3.9,4.35-5.69,.11-2.55,.49-5.12,.73-7.65,0-.06,.1-.06,.1,0-.1,2.32-.1,4.68-.29,7,.6-.71,1.2-1.42,1.8-2.13,0-.01,0-.02,0-.04,.56-3.28,1.55-6.54,2.48-9.74,.02-.06,.11-.04,.09,.03-.72,2.97-1.24,5.99-1.9,8.97,1.15-1.34,2.31-2.67,3.46-4,.2-.23,.4-.47,.6-.7,0-.04,0-.08,0-.12,.67-2.7,1.38-5.39,2.17-8.06,.01-.04,.07-.02,.06,.02-.49,2.44-1.01,4.88-1.52,7.32,.97-1.13,1.94-2.25,2.92-3.36,.49-2.19,1.13-4.33,2.08-6.38,0-.02,.03,0,.03,.01-.43,1.82-.89,3.64-1.31,5.47,.44-.48,.87-.96,1.32-1.44,1.97-2.11,4.13-4.39,6.67-5.81,.03-.02,.06,.02,.04,.05-2.11,2.33-4.5,4.4-6.62,6.74-.24,.26-.47,.53-.71,.8,2-.99,3.97-2.05,5.93-3.14,.07-.04,.14,.07,.07,.11-2.25,1.53-4.6,2.89-7,4.16-.02,.02-.03,.04-.05,.06-.01,.02-.03,.04-.05,.05-1.27,1.45-2.51,2.93-3.75,4.4,3.3-1.36,6.35-3.15,9.63-4.53,.06-.03,.11,.07,.06,.11-2.95,2.37-6.85,3.89-10.38,5.23-1.53,1.8-3.06,3.59-4.59,5.38,4.08-1.18,7.92-2.78,11.93-4.19,.07-.03,.11,.08,.05,.12-3.72,2.29-8.25,3.68-12.5,4.68-.18,.21-.36,.43-.55,.64-.21,.24-.41,.49-.62,.74,0,.02,0,.04,0,.06-.02,.13-.11,.19-.21,.2-.09,.11-.17,.22-.26,.33,3.06-.36,5.94-1.18,8.96-1.74,.03,0,.06,.04,.03,.06-2.88,1.41-6.26,1.92-9.44,2.26-.83,1.07-1.63,2.16-2.44,3.25,.16-.07,.33-.14,.51-.22,.2-.09,.42-.16,.65-.21,.23-.05,.47-.09,.69-.11,.1,0,.21-.02,.32-.03,.28-.03,.55-.08,.81-.15,.11-.03,.23-.06,.34-.09,.34-.08,.69-.14,1.03-.22,.34-.09,.67-.16,1-.26,.2-.06,.39-.1,.58-.17,.06-.02,.12-.03,.17-.04,.06,0,.11-.02,.17-.02,.11,0,.23-.01,.35-.04,.11-.02,.22-.06,.33-.1,.11-.04,.21-.08,.33-.1,.15-.02,.29-.04,.43-.05s.29-.03,.43-.07c.06-.01,.11-.03,.17-.05,.22-.06,.43-.13,.64-.21,.06-.02,.12-.04,.18-.06,.24-.08,.49-.08,.73-.17,.26-.09,.51-.18,.76-.3,.05-.03,.11-.05,.17-.07,.18-.07,.38-.12,.55-.19,.14-.05,.27-.11,.4-.18,.13-.06,.27-.12,.41-.16,.2-.05,.4-.06,.59-.09,.07-.01,.13-.03,.19-.05,.23-.08,.48-.1,.71-.18,.25-.08,.46-.28,.69-.4,.06-.03,.12-.06,.17-.09,.11-.06,.21-.11,.31-.18,.05-.04,.1-.08,.15-.12-.2,.03-.37-.13-.53-.19,.04-.09,.1-.16,.17-.23,.07-.06,.15-.11,.23-.16,.08-.05,.17-.09,.26-.13,.09-.04,.17-.08,.25-.12,.18-.1,.31-.21,.51-.28,.14-.05,.27-.08,.4-.12,.13-.04,.25-.09,.38-.17,.09-.06,.19-.11,.29-.16s.2-.09,.3-.13c.18-.07,.34-.16,.51-.26,.06-.03,.11-.06,.17-.09,.07-.04,.14-.08,.2-.13,.12-.1,.22-.21,.33-.33,.05-.06,.11-.11,.17-.16-.07,0-.44-.09-.47-.13,.06-.12,.18-.19,.25-.3,.08-.14,.13-.23,.23-.36,.03-.04,.06-.08,.08-.13,.06-.1,.12-.22,.19-.32,.03-.04,.05-.09,.06-.14,.03-.09,.05-.19,.09-.27,0,0,0-.02,.01-.03,.02-.03,.04-.05,.06-.07,.04-.04,.08-.08,.12-.13,.02-.02,.04-.05,.05-.07,.04-.08,.08-.18,.12-.27,.01-.02,.02-.05,.03-.07,.01-.02,.02-.04,.04-.06,0,0,0-.01,.01-.02,.03-.04,.06-.09,.09-.14,.03-.05,.06-.11,.08-.16,.02-.06,.03-.11,.02-.17,0-.03-.01-.06-.03-.09-.2,.06-.4,.07-.61,.1,.57-.56,1.1-1.19,1.64-1.78,.11-.12,.23-.24,.34-.37,.07-.08,.11-.16,.15-.25,.02-.04,.04-.09,.06-.13,.02-.05,.04-.09,.07-.14,.03-.04,.16-.26,.22-.42,.03-.08,.05-.16,.02-.19,0,0-.01-.01-.02-.02-.03-.01-.14,.03-.22,.07-.03,.02-.06,.03-.07,.03-.08,.02-.16,.04-.25,.06-.08,.02-.17,.03-.25,.03,0-.19,.22-.48,.31-.65,.11-.22,.24-.42,.37-.62,.02-.03,.04-.07,.05-.1,.04-.1,.05-.2,.08-.31,0-.02,.01-.03,.02-.05,.06-.16,.14-.31,.21-.46,.06-.14,.15-.26,.24-.37,.06-.07,.13-.14,.19-.22,.03-.04,.07-.07,.1-.11,.07-.07,.13-.14,.2-.22,.05-.06,.1-.13,.15-.2,.14-.21,.27-.44,.39-.65,.07-.13,.12-.24,.15-.36,.01-.04,.02-.08,.03-.12,.03-.12,.05-.24,.06-.37,0-.04,0-.09,.01-.14,.02-.23,.02-.47,.02-.71,0-.13,.04-.4-.05-.48-.04,.03-.08,.05-.11,.08-.04,.03-.07,.06-.1,.09-.03,.03-.07,.06-.11,.09-.04,.03-.08,.05-.13,.08-.15,.07-.34,.16-.5,.18,.02-.26,.14-.52,.25-.76,.09-.2,.18-.41,.26-.63,.08-.21,.15-.43,.21-.64,.06-.22,.16-.43,.22-.65,.02-.06,.03-.12,.04-.19,.03-.19,.03-.39,.06-.58,.01-.08,.02-.16,.04-.23,.07-.42,.16-.86,.27-1.26,.16-.59,.37-1.19,.67-1.72,.16-.27,.35-.52,.52-.78,.18-.29,.31-.59,.49-.88,.01-.02,.03-.05,.04-.07,.04-.07,.09-.13,.14-.19,.05-.06,.1-.12,.15-.19,.1-.12,.21-.25,.3-.38,.21-.32,.43-.65,.63-.98,.09-.15,.17-.3,.25-.45,.05-.09,.1-.18,.16-.26,.05-.07,.09-.14,.14-.2,.09-.14,.17-.28,.25-.41,.04-.07,.08-.14,.13-.2,.05-.07,.1-.14,.14-.21,.05-.07,.09-.14,.14-.21,.09-.14,.17-.28,.25-.44,.01-.03,.04-.07,.07-.09,.04-.05,.05-.09-.07-.13Z"/>
      <path d="M29.92,31.85c-.31,2.38-.82,4.75-1.38,7.08,0,.04-.07,.03-.06,0,.18-2.12,.42-4.27,.79-6.38-.64,.67-1.27,1.34-1.91,2.01-.74,3.32-1.48,6.62-2.44,9.88-.01,.04-.07,.02-.06-.02,.43-3.03,1.02-6,1.65-8.98-1.15,1.2-2.3,2.39-3.45,3.59-1.23,3.74-2.41,7.5-3.59,11.26-.01,.04-.07,.02-.06-.02,.82-3.5,1.77-6.94,2.81-10.37-.57,.59-1.13,1.18-1.69,1.76-.9,.93-1.8,1.87-2.69,2.81-.62,2.34-1.39,4.65-2.06,6.98-.01,.05-.1,.04-.1-.01,.27-2,.62-4.01,1.19-5.95-.71,.75-1.42,1.5-2.13,2.25-.61,1.78-1.26,3.87-2.64,5.14-.03,.02-.07,0-.05-.04,.78-1.18,1.08-2.59,1.56-3.91-2.18,2.28-4.4,4.52-6.71,6.65-.05,.04-.11-.02-.07-.07,1.92-2.34,3.96-4.59,6.03-6.81-.89,.41-1.88,.67-2.8,.76-.07,0-.09-.11-.02-.13,1.45-.34,2.48-1.22,3.8-1.83,.06-.03,.11-.03,.16-.03,1.19-1.27,2.39-2.53,3.59-3.8-2.17,.91-4.46,1.87-6.75,2.09-.04,0-.04-.05,0-.06,2.66-.87,5.21-2.26,7.83-3.28,.04-.02,.08-.02,.12-.03,.4-.43,.8-.86,1.2-1.29,1-1.09,2.02-2.17,3.03-3.25-3.68,1.79-7.4,3.37-11.23,4.84-.04,.01-.05-.04-.03-.06,2.05-1.29,4.38-2.05,6.48-3.26,1.91-1.1,3.82-2.44,6.02-2.86,.88-.94,1.75-1.88,2.63-2.82-1.6,.83-3.36,1.41-5.04,1.98-2.39,.81-4.78,1.66-7.2,2.39-.05,.02-.09-.07-.04-.09,4.32-2.11,8.95-3.44,13.27-5.54,.08-.04,.15-.04,.22-.02,.48-.51,.95-1.01,1.43-1.52-3.64,1.11-7.32,2.33-11.06,2.98-.02,0-.03-.03,0-.03,3.78-1.53,7.84-2.51,11.75-3.67,.34-.36,.68-.72,1.01-1.08-.18,.07-.37,.12-.57,.17-.23,.05-.47,.08-.69,.09-.1,0-.21,.01-.32,.02-.28,.03-.56,.07-.82,.13-.12,.03-.23,.06-.34,.08-.34,.07-.69,.12-1.04,.2-.34,.08-.67,.14-1.01,.23-.2,.05-.39,.09-.58,.15-.06,.02-.12,.03-.18,.04-.06,0-.12,.01-.17,.02-.11,0-.23,0-.35,.03-.11,.02-.22,.05-.33,.09-.11,.04-.22,.07-.33,.09-.15,.02-.29,.03-.44,.04-.14,.01-.29,.03-.44,.06-.06,.01-.12,.03-.17,.04-.22,.05-.43,.12-.65,.19-.06,.02-.12,.04-.18,.06-.24,.08-.49,.07-.73,.15-.26,.08-.52,.17-.76,.28-.05,.02-.11,.05-.17,.07-.18,.06-.38,.12-.56,.17-.14,.05-.27,.11-.41,.17-.14,.06-.27,.11-.41,.15-.2,.05-.4,.05-.59,.08-.07,.01-.13,.02-.2,.04-.23,.07-.48,.09-.71,.16-.26,.08-.46,.27-.69,.38-.06,.03-.12,.06-.17,.09-.11,.05-.21,.11-.31,.18-.05,.03-.1,.07-.15,.12h0c.2-.02,.36,.14,.53,.2-.04,.09-.1,.16-.17,.22-.07,.06-.15,.11-.24,.15-.09,.04-.18,.08-.26,.12-.09,.04-.17,.07-.25,.12-.18,.1-.32,.2-.52,.26-.14,.04-.27,.07-.4,.11s-.25,.08-.38,.17c-.1,.06-.19,.11-.29,.15-.1,.04-.2,.08-.31,.12-.19,.06-.35,.15-.52,.24-.06,.03-.11,.06-.17,.09-.08,.04-.14,.08-.2,.12-.12,.09-.23,.21-.34,.32-.05,.05-.11,.11-.17,.16,.07,0,.44,.1,.47,.14-.07,.12-.19,.18-.26,.3-.08,.13-.13,.23-.24,.35-.03,.04-.06,.08-.09,.13-.07,.1-.13,.21-.19,.31-.03,.04-.05,.09-.07,.14-.03,.09-.05,.18-.1,.27,0,0,0,.02-.01,.03-.02,.02-.04,.05-.06,.07-.04,.04-.09,.08-.12,.12-.02,.02-.04,.05-.05,.07-.05,.08-.09,.18-.13,.27-.01,.02-.02,.05-.03,.07-.01,.02-.02,.04-.04,.06,0,0,0,.01-.01,.02-.03,.04-.06,.09-.09,.14-.03,.05-.06,.11-.08,.16-.02,.06-.03,.11-.02,.17,0,.03,.01,.06,.03,.09,.21-.06,.41-.06,.61-.09-.59,.55-1.13,1.16-1.69,1.74-.12,.12-.24,.24-.35,.36-.07,.08-.11,.16-.15,.25-.02,.04-.04,.09-.06,.13s-.04,.09-.07,.14c-.03,.04-.16,.25-.23,.42-.03,.08-.05,.15-.02,.19,0,0,.01,.01,.02,.02,.03,.01,.14-.03,.22-.06,.03-.01,.06-.03,.07-.03,.08-.02,.16-.04,.25-.06,.08-.02,.17-.03,.25-.03,0,.19-.23,.48-.32,.64-.12,.22-.25,.41-.38,.61-.02,.03-.04,.07-.05,.1-.04,.1-.05,.2-.09,.31,0,.02-.01,.03-.02,.05-.06,.16-.15,.3-.22,.45-.07,.14-.15,.26-.25,.37-.06,.07-.13,.14-.2,.21-.03,.03-.07,.07-.1,.1-.07,.07-.14,.14-.21,.22-.05,.06-.1,.13-.15,.2-.15,.2-.28,.43-.4,.64-.07,.12-.12,.24-.16,.36-.01,.04-.02,.08-.03,.12-.03,.12-.05,.24-.07,.37,0,.04-.01,.09-.02,.14-.02,.23-.03,.47-.03,.71,0,.13-.05,.4,.03,.48,.04-.03,.08-.05,.12-.08,.04-.03,.07-.06,.1-.09,.03-.03,.07-.06,.11-.09,.04-.03,.08-.05,.13-.07,.15-.06,.34-.16,.5-.17-.03,.26-.16,.52-.27,.75-.1,.2-.19,.41-.28,.62-.09,.21-.16,.43-.23,.64-.07,.22-.17,.42-.23,.65-.02,.06-.03,.12-.04,.19-.03,.19-.04,.39-.07,.58-.01,.08-.03,.16-.04,.23-.08,.42-.18,.85-.3,1.26-.17,.59-.39,1.18-.72,1.7-.17,.27-.37,.51-.54,.77-.19,.28-.33,.59-.51,.87-.02,.02-.03,.05-.04,.07-.05,.07-.1,.13-.15,.19-.05,.06-.1,.12-.16,.18-.11,.12-.21,.24-.3,.37-.22,.31-.44,.64-.65,.96-.09,.15-.17,.3-.26,.44-.05,.09-.11,.18-.17,.26-.05,.07-.1,.13-.14,.2-.09,.13-.17,.27-.26,.41-.04,.07-.09,.13-.13,.2-.05,.07-.1,.14-.15,.21-.05,.07-.1,.14-.14,.2-.09,.14-.18,.28-.26,.44-.02,.03-.05,.06-.07,.09-.04,.05-.05,.09,.06,.13,.16,.06,.6-.19,.74-.26,.39-.2,.71-.31,1.01-.64,.5-.53,1.16-.8,1.66-1.33,.46-.49,1.08-.81,1.64-1.18,.55-.37,1.11-.66,1.71-.95,.8-.38,1.69-.49,2.54-.63,.35-.06,.64-.25,.93-.45,.15-.11,.33-.19,.48-.29,.06-.04,.35-.31,.44-.29,.16,.04,.15,.58,.15,.71,0,.29-.2,.67-.07,.94,.41-.29,.9-.43,1.35-.64,.61-.29,.91-.93,1.44-1.31,.18-.13,.31-.26,.48-.4,.16-.13,.16-.09,.31,.06,.15,.15,.37,.36,.44,.57,.05,.15-.04,.3-.02,.45,.03,.2,.08,.22,.29,.14,.26-.09,.51-.28,.7-.47,.41-.4,.8-.83,1.2-1.24,.19-.2,.38-.39,.57-.59,.11-.12,.24-.31,.38-.4,.16-.1,.23,.03,.36,.17,.15,.16,.31,.36,.38,.57,.17,.03,.3-.18,.42-.26,.12-.08,.27-.12,.39-.2,.17-.11,.29-.27,.45-.38,.13-.08,.23-.17,.33-.28,.27-.28,.67-.58,.79-.93,.2,.05,.19,.38,.29,.48,.15,.16,.2,.02,.34-.13,.3-.32,.52-.67,.7-1.07,.04-.09,.05-.16,.08-.25,.05-.15,.13-.28,.19-.44,.1-.29,.06-.58,.12-.86,.02-.1,.09-.31,.13-.39,.15-.28,.26-.25,.46-.02,.06,.06,.12,.29,.2,.3,.09,.02,.32-.31,.36-.38,.07-.12,.08-.24,.12-.38,.05-.23,.13-.46,.18-.69,.06-.31,.1-.57,.26-.84,.07-.12,.18-.18,.25-.28,.1-.13,.1-.25,.16-.4,.1-.26,.21-.53,.33-.79,.19-.41,.36-.87,.62-1.24,.32-.46,.71-.83,.96-1.34,.23-.47,.35-1,.43-1.52,.02-.12,0-.23,0-.36,0-.18,.08-.31,.12-.48,.06-.21,.11-.42,.11-.64,0-.32,.01-.67,0-1,0-.11-.06-.21-.06-.32,0-.07,.07-.17,.07-.25,.02-.66,.21-1.32,.28-1.98,.05-.43,.07-.85,.19-1.28,.12-.46,.25-.93,.34-1.4,.07-.35,.11-.73,.21-1.05,.1-.33,.31-.54,.49-.82,.16-.24,.23-.61,.37-.85,.09-.15,.12-.3,.21-.46,.05-.08,.13-.13,.18-.2,.03-.05,.03-.1,.01-.27-1.09,1.15-2.18,2.3-3.27,3.44Z"/>
      <path d="M96.75,79.93c-1.2,.59-2.45,1.09-3.7,1.54-.02,0-.03-.02-.02-.03,1.04-.57,2.11-1.12,3.19-1.6-.51-.09-1.01-.18-1.52-.26-1.77,.68-3.52,1.35-5.33,1.91-.02,0-.03-.02-.01-.03,1.53-.73,3.09-1.37,4.66-2-.91-.16-1.82-.33-2.72-.49-2.11,.59-4.21,1.19-6.32,1.81-.02,0-.03-.03-.01-.03,1.87-.7,3.76-1.32,5.67-1.89-.45-.08-.89-.16-1.34-.24-.71-.13-1.42-.26-2.13-.38-1.27,.43-2.58,.79-3.86,1.2-.03,0-.05-.03-.02-.05,1.01-.49,2.05-.95,3.12-1.28-.57-.1-1.13-.2-1.7-.29-1.01,.26-2.18,.61-3.19,.36-.02,0-.02-.04,0-.04,.79,0,1.53-.3,2.29-.48-1.73-.31-3.45-.64-5.15-1.06-.03,0-.02-.06,.01-.05,1.67,.17,3.34,.42,5.01,.69-.46-.29-.89-.66-1.22-1.06-.03-.03,.02-.08,.05-.05,.6,.57,1.33,.77,2.01,1.19,.03,.02,.05,.04,.06,.07,.96,.16,1.91,.33,2.86,.49-1.09-.73-2.24-1.49-3.05-2.48-.01-.02,.01-.04,.03-.02,1.22,.96,2.65,1.72,3.93,2.61,.02,.02,.04,.03,.05,.05,.32,.05,.65,.11,.97,.16,.81,.13,1.62,.27,2.44,.4-1.96-1.15-3.84-2.39-5.7-3.71-.02-.01,0-.04,.02-.03,1.23,.55,2.3,1.39,3.51,2,1.09,.54,2.31,1.02,3.18,1.9,.7,.12,1.41,.23,2.11,.35-.88-.48-1.69-1.12-2.47-1.72-1.11-.86-2.24-1.7-3.32-2.6-.02-.02,0-.06,.03-.05,2.3,1.35,4.35,3.08,6.65,4.44,.04,.02,.07,.06,.08,.09,.38,.06,.76,.13,1.14,.19-1.63-1.34-3.33-2.67-4.78-4.2,0,0,0-.02,.01-.01,1.87,1.28,3.57,2.85,5.31,4.31,.27,.05,.54,.09,.81,.14-.09-.06-.17-.13-.25-.21-.09-.09-.18-.19-.25-.29-.03-.05-.07-.09-.11-.14-.1-.12-.2-.24-.31-.34-.05-.04-.1-.09-.14-.14-.14-.14-.27-.28-.41-.42-.14-.13-.27-.27-.42-.39-.08-.08-.16-.15-.25-.22-.03-.02-.05-.04-.07-.07-.02-.02-.04-.05-.06-.07-.04-.05-.07-.1-.12-.15-.04-.05-.09-.09-.14-.13-.05-.04-.1-.08-.14-.13-.06-.06-.1-.13-.15-.19-.05-.06-.1-.12-.16-.18-.02-.02-.05-.05-.07-.07-.09-.09-.19-.16-.29-.24-.03-.02-.05-.04-.08-.07-.11-.09-.18-.2-.29-.29-.12-.1-.24-.19-.36-.27-.03-.02-.06-.04-.08-.06-.08-.06-.17-.14-.25-.2-.06-.05-.13-.09-.2-.14-.07-.05-.14-.09-.2-.15-.08-.08-.14-.17-.22-.25-.02-.03-.05-.05-.08-.08-.11-.08-.19-.19-.29-.28-.11-.1-.27-.13-.39-.2-.03-.02-.06-.04-.09-.05-.06-.03-.11-.06-.18-.09-.03-.01-.07-.02-.1-.03h0c.07,.08,.05,.21,.07,.31-.05,0-.11,0-.16-.01-.05-.01-.1-.04-.14-.06-.05-.03-.09-.06-.14-.09-.04-.03-.09-.06-.13-.08-.1-.05-.19-.08-.28-.16-.06-.05-.12-.1-.18-.15-.06-.05-.12-.09-.19-.13-.06-.03-.11-.06-.16-.09-.05-.03-.1-.07-.15-.11-.09-.07-.18-.11-.27-.16-.03-.02-.06-.03-.09-.05-.04-.02-.08-.04-.12-.06-.08-.03-.17-.04-.25-.06-.04,0-.08-.02-.13-.03,.02,.03,.09,.23,.08,.26-.07,0-.14-.03-.22-.03-.09,0-.15,0-.24,0-.03,0-.06,0-.08,0-.07,0-.14,0-.2,0-.03,0-.06,0-.09,.01-.05,.01-.1,.03-.15,.04,0,0-.01,0-.02,0-.02,0-.03,0-.05,0-.03,0-.06-.02-.1-.02-.02,0-.03,0-.05,0-.05,0-.11,.02-.16,.02-.01,0-.03,0-.04,0-.01,0-.03,0-.04,0,0,0,0,0-.01,0-.03,0-.06,0-.09,0-.03,0-.07,0-.1,.01-.03,0-.06,.02-.08,.04-.01,.01-.02,.02-.03,.04,.09,.08,.15,.17,.23,.26-.43-.1-.88-.16-1.32-.24-.09-.02-.18-.04-.28-.05-.06,0-.11,0-.16,0-.03,0-.05,0-.08,.01s-.06,0-.09,0c-.03,0-.17,0-.26,.02-.05,0-.09,.02-.1,.05,0,0,0,0,0,.01,0,.02,.06,.06,.1,.08,.02,.01,.03,.02,.04,.03,.03,.03,.07,.06,.1,.1,.03,.03,.06,.07,.09,.11-.09,.06-.29,.04-.4,.05-.14,.01-.27,.01-.4,0-.02,0-.04,0-.06,0-.06,.01-.11,.04-.17,.06,0,0-.02,0-.03,0-.09,.02-.19,.02-.28,.04-.09,.01-.17,0-.25,0-.05,0-.11-.02-.16-.03-.03,0-.05-.01-.08-.02-.05-.01-.11-.02-.16-.03-.04,0-.09,0-.14-.01-.14,0-.29,0-.42,.01-.08,0-.15,.02-.21,.04-.02,0-.04,.01-.06,.02-.06,.02-.13,.05-.19,.08-.02,.01-.04,.02-.07,.04-.11,.06-.23,.13-.34,.2-.06,.04-.2,.1-.21,.16,.02,.01,.05,.02,.07,.03,.02,0,.05,.01,.07,.02,.02,0,.05,.01,.07,.02,.02,0,.05,.02,.07,.04,.07,.05,.18,.11,.23,.18-.13,.07-.29,.09-.43,.11-.12,.02-.25,.04-.37,.06-.12,.03-.25,.06-.36,.09-.12,.04-.25,.05-.37,.09-.03,.01-.07,.02-.1,.04-.1,.04-.19,.1-.29,.14-.04,.02-.08,.03-.12,.05-.22,.09-.45,.18-.67,.25-.32,.1-.67,.18-1.01,.19-.18,0-.35-.01-.52-.01-.19,0-.37,.03-.56,.03-.02,0-.03,0-.05,0-.04,0-.09,0-.13,0-.04,0-.09-.01-.13-.02-.09-.01-.18-.02-.27-.03-.21,0-.43,0-.65,0-.1,0-.19,.01-.29,.02-.06,0-.11,0-.17,0-.05,0-.09,0-.14,0-.09,0-.18,0-.27,0-.04,0-.09,0-.13,0-.05,0-.1,0-.14,0-.05,0-.09,0-.14,0-.09,0-.18,0-.28,.02-.02,0-.04,0-.06,0-.03,0-.06,0-.04,.07,.02,.09,.27,.22,.35,.26,.21,.12,.36,.23,.61,.27,.4,.07,.72,.29,1.13,.36,.37,.06,.71,.25,1.05,.39,.34,.14,.65,.31,.96,.5,.42,.26,.75,.63,1.07,.98,.14,.15,.31,.22,.5,.29,.09,.04,.19,.09,.28,.13,.03,.01,.25,.07,.27,.11,.03,.09-.22,.25-.28,.29-.13,.09-.37,.11-.45,.26,.26,.1,.48,.29,.71,.43,.32,.19,.71,.13,1.05,.26,.11,.04,.22,.06,.33,.1,.11,.03,.09,.05,.07,.16-.02,.12-.05,.28-.13,.38-.05,.07-.15,.07-.22,.13-.08,.08-.08,.1,.02,.18,.12,.09,.29,.15,.43,.18,.31,.07,.63,.12,.95,.17,.15,.03,.3,.05,.44,.08,.09,.02,.22,.02,.3,.05,.1,.04,.05,.12,.03,.22-.02,.12-.07,.25-.15,.35,.04,.09,.18,.08,.25,.12,.07,.03,.14,.09,.21,.12,.1,.04,.21,.05,.32,.09,.08,.03,.15,.05,.23,.07,.21,.04,.47,.13,.68,.08,.04,.11-.11,.21-.13,.28-.03,.12,.06,.1,.17,.12,.24,.04,.47,.03,.71,0,.05,0,.09-.02,.14-.04,.09-.02,.17-.03,.26-.05,.16-.04,.29-.15,.44-.21,.05-.02,.17-.05,.22-.06,.18-.02,.19,.04,.15,.21-.01,.05-.1,.15-.08,.19,.02,.04,.24,.05,.28,.05,.08,0,.14-.04,.21-.06,.12-.05,.25-.08,.38-.13,.16-.07,.29-.13,.47-.14,.08,0,.14,.03,.21,.03,.09,0,.15-.03,.23-.05,.15-.03,.31-.07,.47-.09,.25-.04,.51-.1,.76-.1,.31,0,.6,.08,.92,.03,.29-.04,.57-.15,.83-.27,.06-.03,.11-.07,.17-.11,.09-.05,.17-.06,.26-.09,.12-.04,.23-.08,.33-.15,.15-.1,.32-.2,.46-.31,.05-.04,.08-.09,.13-.13,.03-.02,.1-.02,.13-.04,.31-.19,.68-.31,1-.48,.22-.11,.41-.23,.65-.31,.25-.08,.5-.17,.75-.27,.18-.08,.37-.17,.55-.22,.18-.05,.34-.02,.53-.03,.16,0,.35-.08,.51-.09,.1,0,.18-.04,.28-.04,.05,0,.1,.02,.15,.02,.03,0,.06-.02,.13-.08-.87-.15-1.73-.3-2.6-.45Z"/>
      <path d="M46.43,100.92c-.34-.34-.8-.43-1.25-.33h-.06c-.52,.13-.96,.7-.93,1.24,.02,.54,.37,1.1,.93,1.22h.06c.44,.11,.93,.03,1.25-.32,.23-.25,.38-.56,.38-.91,0-.33-.14-.67-.38-.91Z"/>
      <path d="M114.96,25.42c-.11-.06-.22-.11-.33-.17-.64-.39-1.39-.67-2.13-.83,.54-.12,1.08-.25,1.62-.39,.8,.1,1.57,.38,2.3,.74,.33,.16,.67,.4,1.03,.62,.37,.35,1,1.23,1.51,.64,.57-.67-.5-1.45-1-1.71-.46-.24-.97-.42-1.48-.54-.3-.07-.61-.12-.91-.14-.03,0-.1,0-.19,0,.63-.23,1.22-.52,1.77-.87,.69,0,1.37,.11,2.01,.39,.22,.11,.44,.24,.66,.36,.03,.02,.06,.04,.09,.06,.33,.24,.95,.98,1.46,.75,.17,.01,.3-.07,.34-.34,.12-.81-1.15-1.2-1.71-1.42-.46-.18-.93-.3-1.39-.34-.21-.04-.41-.06-.62-.06,.45-.35,.88-.75,1.28-1.18,.88,.22,1.56,.8,2.35,1.29,.38,.24,1.38,.6,1.59-.06,.19-.57-1.01-.96-1.39-1.1-.72-.27-1.51-.41-2.28-.42,0,0,0,0,0,0,.23-.25,.47-.49,.71-.73,.23-.09,.46-.16,.7-.21,.98-.14,1.9,.02,2.88,.14,.54,.17,1.07,.35,1.63,.32,1.02-.05,2-1.02,1.32-2.03-.84-1.24-3.08-.66-4.22-.34-1.04,.3-2.11,.76-2.94,1.47,.04-.11,.08-.22,.11-.33,.4-.59,.77-1.2,1.08-1.82,.23-.47,.52-1.2-.02-1.59-.07-.05-.13-.07-.2-.09-.08-.03-.17-.05-.28-.03-.17,.03-.26,.09-.32,.2-.09,.08-.16,.19-.21,.3-.15,.36-.08,.81-.11,1.19-.02,.29-.06,.58-.11,.87-.19,.61-.38,1.23-.62,1.82-.5,.41-.97,.86-1.48,1.25,.02-.05,.03-.1,.05-.14,.9-1.48,1.87-4.02,.2-4.24-.91-.12-.89,.99-.85,1.6,.04,.73,.15,1.44,.03,2.17-.08,.46-.23,.87-.42,1.26-.55,.31-1.12,.57-1.71,.8,.17-.29,.3-.6,.41-.92,.1-.19,.2-.38,.28-.58,.1-.23,.21-.53,.29-.85,.25-.74,.28-1.43-.15-1.84-.02-.03-.04-.05-.07-.08-.2-.19-.38-.25-.54-.22-.66-.05-.79,1.05-.84,1.56-.06,.63-.05,1.26-.17,1.88-.13,.66-.46,1.09-.81,1.61-.62,.19-1.27,.36-1.94,.52,.06-.08,.11-.17,.17-.26,.37-.51,.66-1.09,.95-1.64,.28-.54,.59-1.31,.39-1.92-.05-.31-.19-.59-.47-.78-.75-.52-1.36,.42-1.48,1.05-.13,.65,.02,1.3-.05,1.95-.09,.82-.47,1.45-1.03,1.98-.61,.16-1.21,.33-1.8,.54,.22-.36,.38-.76,.49-1.18,.06-.12,.13-.24,.2-.38,.04-.07,.09-.15,.13-.22,.29-.51,.69-1.15,.5-1.69,.02-.35-.05-.67-.25-.93-.63-.82-1.7-.18-1.87,.66-.13,.66,.17,1.28,.25,1.93,.12,.88-.23,1.53-.62,2.26-.5,.22-.97,.47-1.41,.77,.66-1.08,1.25-2.82,.04-3.34-.45-.2-.7,.01-.75,.38-.09,.26-.07,.6-.01,.86,.25,1.04,.22,1.85-.09,2.74-.6,.55-1.1,1.23-1.45,2.07-.09,.23,.22,.37,.36,.19,.44-.53,.92-.99,1.43-1.38,.56-.03,1.19-.06,1.69,.15,.53,.23,.86,.72,1.33,1.02,.35,.23,1.23,.55,1.34-.13,.11-.66-1.07-.97-1.5-1.1-.26-.08-.52-.14-.78-.19-.42-.21-.85-.31-1.31-.29,.43-.27,.88-.51,1.34-.72,.66,.06,1.31,.09,1.97,.33,.86,.31,1.4,.87,2.08,1.44,.15,.12,.46,.33,.78,.47,.16,.08,.31,.13,.46,.14,.28,.03,.5-.06,.54-.42,.11-.34-.05-.64-.32-.9-.53-.64-1.57-1.13-2.15-1.34-.57-.21-1.17-.32-1.78-.34,.78-.26,1.57-.47,2.38-.66,.06,0,.11,.02,.16,.03,.69,.25,1.37,.53,2.03,.85,.08,.04,.16,.07,.24,.11,.33,.21,.65,.44,.97,.69,.37,.28,1.45,1.46,1.99,.73,.53-.72-.92-1.54-1.35-1.78Z"/>
      <path d="M72.42,24.34c.08-.1,.16-.19,.24-.28,.44-.6,1.03-1.14,1.66-1.57-.55,.09-1.1,.18-1.65,.25-.7,.4-1.31,.94-1.85,1.56-.24,.27-.47,.63-.72,.97-.21,.47-.46,1.52-1.15,1.16-.78-.4-.09-1.53,.28-1.96,.34-.4,.74-.76,1.17-1.06,.25-.18,.52-.34,.79-.47,.02-.01,.09-.04,.18-.06-.67,.02-1.32-.02-1.97-.14-.64,.26-1.23,.62-1.71,1.12-.16,.19-.32,.38-.47,.58-.02,.03-.04,.06-.06,.09-.22,.34-.51,1.26-1.07,1.25-.15,.08-.3,.05-.44-.18-.42-.71,.61-1.55,1.04-1.96,.36-.34,.75-.62,1.16-.84,.18-.12,.36-.22,.55-.29-.55-.16-1.09-.36-1.63-.61-.73,.53-1.14,1.33-1.69,2.09-.26,.36-1.05,1.08-1.5,.54-.39-.46,.58-1.27,.87-1.54,.56-.52,1.24-.95,1.95-1.25,0,0,0,0,0,0-.31-.14-.62-.28-.93-.4-.24,0-.49,.03-.72,.06-.96,.24-1.75,.74-2.62,1.22-.43,.36-.86,.73-1.39,.91-.96,.33-2.24-.19-1.99-1.38,.31-1.46,2.6-1.78,3.78-1.9,1.08-.12,2.24-.1,3.28,.25-.08-.09-.15-.17-.23-.26-.59-.39-1.17-.82-1.69-1.28-.39-.34-.94-.92-.58-1.48,.04-.07,.1-.12,.15-.16,.06-.06,.14-.11,.25-.13,.16-.04,.27-.01,.37,.06,.11,.04,.22,.11,.31,.2,.27,.28,.38,.72,.55,1.06,.13,.26,.28,.52,.43,.77,.41,.49,.82,.99,1.26,1.45,.62,.19,1.22,.43,1.85,.59-.03-.04-.07-.08-.1-.11-1.39-1.04-3.25-3.01-1.78-3.85,.79-.45,1.19,.58,1.39,1.15,.24,.69,.4,1.39,.79,2.02,.25,.4,.54,.72,.87,1.01,.63,.08,1.25,.1,1.89,.09-.26-.21-.51-.44-.73-.7-.16-.13-.32-.27-.48-.43-.18-.18-.39-.41-.59-.67-.51-.59-.8-1.21-.55-1.76,.01-.03,.02-.07,.03-.1,.11-.25,.26-.37,.42-.4,.59-.29,1.13,.68,1.36,1.13,.29,.56,.52,1.15,.87,1.68,.37,.56,.84,.84,1.36,1.18,.64-.06,1.31-.15,2-.25-.09-.06-.17-.12-.25-.18-.53-.33-1.02-.76-1.5-1.16-.47-.39-1.05-.99-1.09-1.63-.07-.31-.04-.62,.14-.9,.5-.76,1.41-.12,1.76,.41,.36,.55,.47,1.21,.78,1.79,.39,.73,.99,1.16,1.7,1.45,.62-.08,1.25-.15,1.87-.18-.34-.25-.64-.56-.9-.9-.1-.08-.21-.18-.33-.28-.07-.05-.14-.1-.2-.15-.46-.36-1.07-.81-1.1-1.38-.15-.31-.21-.64-.12-.95,.27-1,1.51-.81,1.98-.09,.37,.56,.33,1.25,.5,1.88,.22,.86,.79,1.33,1.43,1.86,.54,.02,1.08,.07,1.59,.18-1.02-.75-2.22-2.14-1.3-3.08,.35-.36,.65-.25,.84,.07,.19,.21,.29,.53,.33,.79,.16,1.05,.5,1.79,1.12,2.51,.77,.29,1.48,.72,2.12,1.37,.17,.17-.06,.42-.26,.31-.61-.33-1.23-.56-1.85-.74-.53,.19-1.12,.39-1.51,.78-.4,.41-.52,.99-.84,1.45-.24,.35-.93,.97-1.29,.39-.35-.57,.63-1.31,.97-1.59,.21-.17,.43-.33,.65-.47,.31-.35,.67-.61,1.1-.77-.5-.09-1.01-.14-1.51-.16-.59,.31-1.18,.58-1.7,1.05-.68,.61-.96,1.34-1.38,2.12-.09,.17-.3,.48-.54,.73-.11,.13-.24,.24-.37,.3-.25,.14-.49,.13-.66-.19-.23-.27-.19-.62-.04-.96,.25-.8,1.03-1.64,1.49-2.05,.45-.41,.97-.74,1.52-.98-.82,.06-1.63,.16-2.46,.29-.05,.03-.09,.06-.14,.09-.55,.49-1.07,1.01-1.56,1.56-.06,.06-.12,.13-.18,.19-.23,.32-.44,.66-.64,1.01-.23,.4-.79,1.9-1.57,1.43-.76-.47,.27-1.77,.58-2.16Z"/>
      <path d="M71.78,115.33c.11,.06,.22,.11,.33,.17,.64,.39,1.39,.67,2.13,.83-.54,.12-1.08,.25-1.62,.39-.8-.1-1.57-.38-2.3-.74-.33-.16-.67-.4-1.03-.62-.37-.35-1-1.23-1.51-.64-.57,.67,.5,1.45,1,1.71,.46,.24,.97,.42,1.48,.54,.3,.07,.61,.12,.91,.14,.03,0,.1,0,.19,0-.63,.23-1.22,.52-1.77,.87-.69,0-1.37-.11-2.01-.39-.22-.11-.44-.24-.66-.36-.03-.02-.06-.04-.09-.06-.33-.24-.95-.98-1.46-.75-.17-.01-.3,.07-.34,.34-.12,.81,1.15,1.2,1.71,1.42,.46,.18,.93,.3,1.39,.34,.21,.04,.41,.06,.62,.06-.45,.35-.88,.75-1.28,1.18-.88-.22-1.56-.8-2.35-1.29-.38-.24-1.38-.6-1.59,.06-.19,.57,1.01,.96,1.39,1.1,.72,.27,1.51,.41,2.28,.42,0,0,0,0,0,0-.23,.25-.47,.49-.71,.73-.23,.09-.46,.16-.7,.21-.98,.14-1.9-.02-2.88-.14-.54-.17-1.07-.35-1.63-.32-1.02,.05-2,1.02-1.32,2.03,.84,1.24,3.08,.66,4.22,.34,1.04-.3,2.11-.76,2.94-1.47-.04,.11-.08,.22-.11,.33-.4,.59-.77,1.2-1.08,1.82-.23,.47-.52,1.2,.02,1.59,.07,.05,.13,.07,.2,.09,.08,.03,.17,.05,.28,.03,.16-.03,.26-.09,.32-.2,.09-.08,.16-.19,.21-.3,.15-.36,.08-.81,.11-1.19,.02-.29,.06-.58,.11-.87,.19-.61,.38-1.23,.62-1.82,.5-.41,.97-.86,1.48-1.25-.02,.05-.03,.1-.05,.14-.9,1.48-1.87,4.02-.2,4.24,.91,.12,.89-.99,.85-1.6-.04-.73-.15-1.44-.03-2.17,.08-.46,.23-.87,.42-1.26,.55-.31,1.12-.57,1.71-.8-.17,.29-.3,.6-.41,.92-.1,.19-.2,.38-.28,.58-.1,.23-.21,.53-.29,.85-.25,.74-.28,1.43,.15,1.84,.02,.03,.04,.05,.07,.08,.2,.19,.38,.25,.54,.22,.66,.05,.79-1.05,.84-1.56,.06-.63,.05-1.26,.17-1.88,.13-.66,.46-1.09,.81-1.61,.62-.19,1.27-.36,1.94-.52-.06,.08-.11,.17-.17,.26-.37,.51-.66,1.09-.95,1.64-.28,.54-.59,1.31-.39,1.92,.05,.31,.19,.59,.47,.78,.75,.52,1.36-.42,1.48-1.05,.13-.65-.02-1.3,.05-1.95,.09-.82,.47-1.45,1.03-1.98,.61-.16,1.21-.33,1.8-.54-.22,.36-.38,.76-.49,1.18-.06,.12-.13,.24-.2,.38-.04,.07-.09,.15-.13,.22-.29,.51-.69,1.15-.5,1.69-.02,.35,.05,.67,.25,.93,.63,.82,1.7,.18,1.87-.66,.13-.66-.17-1.28-.25-1.93-.12-.88,.23-1.53,.62-2.26,.5-.22,.97-.47,1.41-.77-.66,1.08-1.25,2.82-.04,3.34,.45,.2,.7-.01,.75-.38,.09-.26,.07-.6,.01-.86-.25-1.04-.22-1.85,.09-2.74,.6-.55,1.1-1.23,1.45-2.07,.09-.23-.22-.37-.36-.19-.44,.53-.92,.99-1.43,1.38-.56,.03-1.19,.06-1.69-.15-.53-.23-.86-.72-1.33-1.02-.35-.23-1.23-.55-1.34,.13-.11,.66,1.07,.97,1.5,1.1,.26,.08,.52,.14,.78,.19,.42,.21,.85,.31,1.31,.29-.43,.27-.88,.51-1.34,.72-.66-.06-1.31-.09-1.97-.33-.86-.31-1.4-.87-2.08-1.44-.15-.12-.46-.33-.78-.47-.16-.08-.31-.13-.46-.14-.28-.03-.5,.06-.54,.42-.11,.34,.05,.64,.32,.9,.53,.64,1.57,1.13,2.15,1.34,.57,.21,1.17,.32,1.78,.34-.78,.26-1.57,.47-2.38,.66-.06,0-.11-.02-.17-.03-.69-.25-1.37-.53-2.03-.85-.08-.04-.16-.07-.24-.11-.33-.21-.65-.44-.97-.69-.37-.28-1.45-1.46-1.99-.73-.53,.72,.92,1.54,1.35,1.78Z"/>
      <path d="M105.44,113.95c-.1,.05-.21,.1-.31,.15-.6,.35-1.29,.59-1.98,.73,.5,.12,1,.25,1.49,.38,.74-.08,1.45-.32,2.14-.65,.31-.14,.63-.36,.96-.56,.35-.32,.95-1.12,1.4-.57,.51,.63-.48,1.33-.95,1.57-.43,.22-.91,.37-1.38,.47-.28,.06-.56,.1-.85,.12-.03,0-.09,0-.17,0,.58,.22,1.12,.5,1.62,.83,.64,.01,1.27-.08,1.86-.33,.21-.1,.41-.21,.61-.32,.03-.02,.06-.04,.09-.06,.31-.21,.89-.89,1.36-.67,.15,0,.28,.07,.31,.32,.1,.75-1.08,1.09-1.6,1.29-.43,.16-.86,.26-1.29,.29-.2,.04-.38,.05-.57,.05,.41,.33,.8,.7,1.17,1.11,.81-.19,1.45-.71,2.19-1.16,.36-.21,1.28-.53,1.47,.08,.16,.53-.95,.87-1.3,1-.67,.24-1.4,.36-2.12,.35,0,0,0,0,0,0,.21,.23,.42,.46,.65,.68,.21,.08,.42,.15,.64,.21,.9,.15,1.76,0,2.67-.08,.5-.15,1-.31,1.51-.27,.94,.07,1.83,.98,1.19,1.89-.79,1.13-2.86,.56-3.9,.24-.96-.29-1.94-.73-2.69-1.4,.03,.1,.07,.2,.1,.31,.36,.55,.69,1.12,.97,1.7,.21,.43,.46,1.12-.05,1.47-.06,.04-.12,.07-.19,.08-.07,.03-.16,.04-.26,.02-.15-.03-.24-.09-.29-.19-.08-.08-.14-.17-.19-.28-.13-.34-.06-.75-.08-1.1-.02-.27-.05-.54-.09-.81-.17-.57-.33-1.14-.55-1.69-.45-.39-.88-.81-1.35-1.18,.02,.04,.03,.09,.04,.13,.8,1.39,1.66,3.74,.11,3.92-.84,.1-.8-.93-.76-1.49,.05-.67,.16-1.33,.06-2.01-.07-.43-.2-.81-.37-1.17-.5-.29-1.03-.54-1.57-.77,.15,.27,.27,.56,.36,.86,.09,.17,.18,.35,.25,.54,.08,.22,.18,.49,.26,.79,.22,.69,.24,1.32-.17,1.7-.02,.02-.04,.05-.06,.07-.18,.17-.35,.22-.5,.19-.61,.03-.71-.99-.75-1.46-.05-.58-.02-1.17-.13-1.74-.11-.61-.41-1.02-.72-1.5-.57-.19-1.17-.35-1.79-.52,.05,.08,.1,.16,.15,.24,.33,.48,.59,1.02,.86,1.53,.25,.5,.53,1.22,.33,1.78-.05,.29-.19,.54-.45,.71-.7,.46-1.25-.41-1.35-.99-.11-.6,.04-1.2-.01-1.8-.07-.76-.41-1.34-.92-1.85-.56-.16-1.12-.33-1.66-.52,.19,.34,.34,.71,.44,1.1,.06,.11,.12,.23,.18,.35,.04,.07,.08,.14,.12,.2,.26,.48,.62,1.08,.43,1.57,.01,.32-.06,.62-.24,.85-.6,.75-1.57,.14-1.72-.64-.11-.61,.17-1.18,.26-1.78,.12-.81-.19-1.42-.54-2.1-.45-.21-.89-.45-1.29-.73,.6,1.01,1.11,2.62-.01,3.09-.42,.18-.64-.02-.69-.37-.08-.24-.06-.56,0-.79,.25-.95,.23-1.7-.04-2.54-.55-.52-1-1.15-1.3-1.94-.08-.21,.21-.33,.34-.17,.4,.5,.84,.93,1.3,1.3,.52,.04,1.1,.08,1.56-.11,.49-.2,.8-.65,1.24-.93,.33-.21,1.14-.49,1.23,.14,.09,.61-1.01,.88-1.41,1-.24,.07-.48,.12-.72,.16-.39,.19-.79,.27-1.21,.25,.39,.26,.8,.49,1.23,.69,.61-.05,1.22-.06,1.82-.27,.8-.27,1.31-.78,1.94-1.3,.14-.11,.43-.3,.73-.43,.15-.07,.29-.12,.43-.12,.26-.03,.46,.06,.49,.4,.1,.31-.06,.59-.31,.83-.5,.59-1.47,1.01-2.01,1.2-.53,.18-1.09,.28-1.65,.28,.71,.25,1.45,.46,2.19,.65,.05,0,.1-.02,.15-.03,.64-.22,1.28-.47,1.89-.75,.07-.03,.15-.07,.22-.1,.31-.19,.61-.4,.91-.62,.34-.25,1.37-1.32,1.85-.64,.48,.67-.87,1.41-1.28,1.63Z"/>
      <path d="M143.82,99.83c-1.52-2.63-4.49-4.41-7.47-4.74-3.32-.37-6.16,1.15-8.61,3.2-.04-.34-.09-.68-.13-1.02-.12-.92-.18-1.88-.29-2.84,.01-.05,.02-.1,.03-.15-.04-.34-.07-.67-.1-1.01-.04-.44-.06-.89-.09-1.33,0-.06-.01-.13-.02-.19-.02-.34-.04-.62-.04-.88-.03-.47-.03-.96,.18-1.36,.08-.87-.04-1.74-.69-2.38-1.27-1.25-3.21-.73-4.59,.03-2.9,1.6-5.26,4.83-5.45,8.22,0,0,0,.01,0,.02,0,.12,0,.23,0,.35,.04,.36,.05,.71,.09,1.05,.05,.35,.13,.7,.22,1.05,.03,.09,.07,.18,.11,.27,.34,.7,.23,.89-.14,1.56-.34,.61-.69,1.22-1.06,1.82-.71,1.15-1.36,2.34-2.26,3.36-.27,.31-.56,.6-.87,.87-.01,.01-.03,.02-.05,.03-.03,0-.05-.02-.06-.05-.19-.28-.2-.59-.19-.91,.01-.37,.03-.74,.05-1.11,.04-.74,.1-1.48,.16-2.21,.1-1.13,.21-2.26,.31-3.38,.19-2.23,.37-4.79,.18-7.02-.1-1.24-.68-2.74-2.1-2.87-1.65-.15-2.8,1.83-3.64,2.95-1.27,1.69-2.36,3.47-3.3,5.36-.5,.99-.96,1.99-1.42,2.99-.03,.06-.05,.12-.08,.18,0-.25,0-.49,.02-.75,.09-1.42,.22-2.83,.37-4.24,.16-1.43,.19-2.82,.21-4.26,.03-1.59,.24-3.38-.3-4.89-.63-1.78-3.38-2.54-4.36-.57-1.36,2.74-1.04,6.85-.41,9.78,.22,1.04,.5,2.07,.81,3.08-.9,1.35-1.73,2.74-2.8,3.99-.4,.46-1.21,1.65-1.82,1.22-.58-.4-.14-2.29-.07-2.88,.21-1.89,.18-3.78,.16-5.68-.01-1.69,.28-3.82-1.25-4.91-.28-.2-.75-.19-1.04,0-1.19,.78-1.22,2.04-1.32,3.36-.06,.8-.1,1.62-.13,2.44-.53,1.03-1.18,1.98-1.95,2.66-1.73,1.52-3.08,.28-3.98-1.3,.62-1.65,1.18-3.33,1.47-5.01,.23-1.34,.15-4.57-1.95-4.38-1.98,.17-2.73,3.28-2.75,4.85-.02,1.44,.36,3.07,1,4.53-.11,.23-.21,.45-.31,.67-.93,2.14-1.87,4.29-2.84,6.42-.03,.07-.18,.35-.34,.67-.18-1.03-.3-2.07-.47-3.1-.41-2.44-.89-4.86-1.17-7.32-.28-2.44-.49-4.93-1.01-7.34-.55-2.54-4.49-1.94-4.48,.61,.02,2.4,.41,4.79,.87,7.16-1.75,3.45-4.36,9.09-5.23,8.66-.57-.28-.57-2.21-.61-2.76-.06-1.02-.05-2.05-.04-3.06,.02-2.09,.5-4.54-.43-6.47-.43-.88-1.7-.75-2.16,0-.65,1.06-.71,2.3-.74,3.52-1.13,2.65-2.95,4.8-5.04,6.74-.06-3.31-.1-6.63,.02-9.93,1.85-3.22-2.57-6.9-5.87-4.69-1.03,.69-1.84,1.74-2.48,2.92-.33-.26-.63-.51-.88-.7-1.72-1.33-3.56-2.34-5.79-2.12-1.81,.18-3.56,1.03-4.79,2.37-2.75,3.01-2.12,7.75,.79,10.39,.03,.03,.07-.01,.04-.04-1.89-2.32-2.69-5.75-1.23-8.5,1.32-2.49,4.42-3.94,7.15-3.08,1.31,.41,2.7,1.63,4.15,2.83-.47,1.09-.83,2.22-1.08,3.23-.64,2.54-.85,5.64,1.54,7.36,2.26,1.63,4.71,.35,6.1-1.71,.15-.22,.29-.45,.42-.69-.07,1.41-.16,2.82-.23,4.24-.29,.24-.59,.48-.88,.72-3.14,2.54-7.41,6.13-7.86,10.44-.41,3.95,3.55,6.44,7.02,4.73,3.84-1.9,3.97-6.45,3.97-10.19,0-1.75-.03-3.51-.06-5.26,1.76-2.06,3.55-4.15,4.9-6.48-.04,1.06-.06,2.11,.02,3.16,.16,2.19,.63,5.75,3.4,6.04,2.75,.28,3.97-2.46,4.9-4.53,.55-1.24,1.11-2.48,1.67-3.71,.54,2.81,1.03,5.67,1.99,8.37,.67,1.87,3.09,3.97,4.92,2,.73-.78,.96-2.2,1.3-3.17,.58-1.63,1.16-3.26,1.77-4.88,.15-.4,.31-.81,.46-1.21,.02,.02,.04,.05,.05,.07,1.53,1.88,3.9,2.16,5.8,.62,.35-.28,.65-.59,.93-.92,.1,2.04,.51,4.3,1.73,5.85,2.59,3.3,5.57-1.46,7.18-4.85,.42,1.41,.66,2.9,1.2,4.24,.43,1.06,2.11,1.02,2.11-.29,0-1.14,.89-2.64,1.34-3.67,.47-1.1,1-2.17,1.57-3.22,1.09-2.02,2.34-3.98,3.92-5.65,.19-.2,.38-.4,.58-.59,.4-.46,.54-.5,.43-.11,.16,.26-.43,1.51-.5,1.77-.35,1.16-.65,2.34-1.01,3.5-.71,2.28-1.01,4.78-1.1,7.17-.07,2.01-.37,4.82,.99,6.48,.84,1.03,2.11,1.36,3.3,1.12,1.56-.33,2.67-2.59,3.28-3.85,.56-1.15,1.03-2.35,1.43-3.56,.2-.61,.38-1.22,.55-1.84,.07-.25,.44-1.1,.35-1.34-.08-.21-.14-.43-.16-.67,0-.02,.02-.01,.02,0,.03,.08,.08,.15,.11,.23,1.83,3.77,7.9,.47,8.48-2.65,.02-.1,.04-.2,.05-.3,0,0,.01,0,.02,0,.13,.53,.04,1.06,.02,1.59-.02,.49-.03,.97-.18,1.45,0,.03,0,.06,0,.08-2.58,2.46-4.9,5.25-6.88,8.2-1.75,2.6-3.25,5.98-1.19,8.86,1.7,2.37,5.03,2.06,7.04,.27,3.04-2.7,2.94-8.33,3.01-12.04,.03-1.49-.07-2.95-.21-4.41,.08-.07,.15-.14,.23-.21,1.95-1.73,4.24-3.32,6.95-3.31,2.37,0,4.79,1.12,6.09,3.14,1.48,2.3,1.74,6.01-1.18,7.33-3.13,1.41-6.14-3.02-3.06-4.98,.26-.17,.03-.56-.24-.42-2.16,1.09-3,3.78-1.44,5.8,1.68,2.18,5.03,2.34,7.1,.69,2.63-2.1,3.01-5.92,1.38-8.75Zm-87.76,6.99c-.09,2.29,.1,4.9-.79,7.06-.51,1.23-2.88,3.44-4.21,1.84-1.36-1.64,1.21-4.78,2.1-6.02,.9-1.25,1.91-2.42,2.93-3.57-.01,.23-.02,.47-.03,.7Zm-.35-11.45c-.37,1.03-1.19,3.5-2.51,3.76-2.27,.44-.94-4.21-.26-6.2,1.13,.51,2.27,.66,3.43,.11-.17,.79-.38,1.57-.66,2.34Zm1.31-5.37c-.16,.14-.28,.34-.3,.61,0,.03,0,.06,0,.1-.04,.06-.07,.11-.1,.15-.86,1.04-1.98,1.1-3.11,.7,.41-.88,.92-1.66,1.75-2.25,.19-.13,.85-.67,1.07-.67,.86,0,.89,.73,.7,1.37Zm26.56,4.29c-.34-1.07-.52-2.21-.28-3.32,.09-.42,.39-1.68,.83-1.78,.44-.1,.47,1.18,.47,1.35-.02,1.28-.47,2.53-1.02,3.75Zm41.81-1.32c-.39,.99-.97,1.92-1.53,2.83-.31,.51-1,1.88-1.81,1.63-.47-.14-.35-.63-.37-1.1-.08-1.74,.76-3.28,1.73-4.66,.46-.65,.96-1.31,1.55-1.85,.59-.54,.63-.73,1.18-.17,.01,.01,.02,.03,.04,.04-.27,1.1-.38,2.22-.8,3.27Zm.08,14.51c-.24,2.45-.34,5.43-1.96,7.44-1.88,2.32-4.92,1.25-4.86-1.75,.06-2.7,2.57-5.37,4.2-7.31,.99-1.18,2.04-2.31,3.13-3.4-.17,1.67-.36,3.35-.52,5.03Z"/>
      <g>
        <path d="M39.05,74.45c-.12,.07-.24,.16-.35,.26-.11,.07-.22,.14-.3,.24-.27,.3-.4,.62-.46,1-.07,.25-.11,.51-.11,.77,0,.02,0,.05,0,.07,0,.05,0,.1,0,.15,0,.38,.13,.74,.34,1.04,.37,.66,1.02,1.14,1.83,1.15,.91,0,1.76-.58,2.11-1.41,.29-.56,.36-1.23,.15-1.84-.44-1.26-1.92-2.18-3.2-1.43Z"/>
        <path d="M65.92,108.81c-.41,0-.8,.36-.78,.78,.02,.43,.34,.78,.78,.78,.41,0,.8-.36,.78-.78-.02-.43-.34-.78-.78-.78Z"/>
        <path d="M50.6,68.28c.06-1.97,.09-3.94,.13-5.91,.06-2.96,.11-5.92,.12-8.88,.01-2.66,.29-5.54-.12-8.2,2.65-.07,5.26-.7,7.43-2.15,3.64-2.43,4.54-7.77,1.42-10.96-1.17-1.27-2.89-1.52-4.49-.67-2.13,1.14-2.7,3.35-2.35,5.6,.05,.31,.48,.2,.5-.07,.17-1.87,1.06-4.53,3.37-4.38,2.14,.14,2.65,2.42,2.25,4.17-.74,3.24-3.47,5.47-6.61,6.2-.94,.22-1.89,.33-2.85,.39-.27-.05-.56-.04-.82,.03-3.69,.08-7.45-.6-11.03,.25-5.26,.51-10.23,7.34-7.8,12.31,1.37,2.78,3.9,4.38,6.87,2.75,1.71-.94,2.78-2.53,3.31-4.31,.32-.8,.47-1.66,.4-2.53,0-.14,0-.27,0-.41,0-.08-.04-.15-.09-.2-.4-2.08-1.95-3.97-4.27-3.55-2.17,.4-3.38,2.92-2.04,4.75,.09,.12,.29,.05,.25-.1-.4-1.64,.33-3.74,2.35-3.61,1.82,.11,2.58,2.1,2.55,3.67-.01,.66-.21,1.33-.54,1.93-.56,.78-1.29,1.46-2.12,2.01-1.11,.49-2.39,.37-3.43-.83-2.04-2.35-.88-6.38,1.21-8.26,1.92-1.71,4.64-2.15,7.12-2.22,1.99-.06,4.05,.14,6.1,.21-.35,2.57-.09,5.31-.1,7.87,0,3.07-.02,6.13-.06,9.19-.03,2.4-.07,4.8-.12,7.19-.48,3.37-.63,7.56,.72,8.59,.38,.61,.98,.76,1.89,.07,1.47-1.12,1.3-3.71,1.19-5.31-.1-1.44-.12-3.08-.36-4.63Z"/>
        <path d="M79.01,46.95c.13,.31,.31,.61,.55,.85,.13,.13,.41,.36,.58,.44l.61,.26c.23,.03,.45,.06,.68,.09,.23-.03,.45-.06,.68-.09,.33-.08,.62-.23,.87-.46,.19-.11,.34-.27,.46-.46,.16-.16,.27-.35,.33-.56,.12-.2,.17-.41,.17-.65,.04-.16,.05-.31,.04-.47,0-.03,0-.06,0-.09,0-.27-.04-.5-.11-.72-.16-.7-.64-1.27-1.26-1.67-.2-.08-.4-.17-.6-.25-.33-.1-.67-.12-1-.04-.23,0-.44,.06-.63,.17-.31,.1-.58,.27-.81,.52-.17,.19-.34,.4-.47,.62-.09,.16-.23,.47-.27,.65-.1,.36-.09,.71-.04,1.07,.05,.4,.06,.42,.21,.79Z"/>
        <path d="M146.06,49.37c-.73-1.87-2.74-3.08-4.69-2.15-2.87,1.36-2.87,4.7-1.93,7.26,.11,.3,.62,.28,.59-.08-.09-1.47-.18-3.38,.54-4.7,.98-1.8,3.43-2.3,4.53-.36,1.8,3.17-.93,6.14-2.89,8.41-2.05,2.36-4.29,4.54-6.45,6.8,0,0-.02,.02-.03,.03-.96-1.32-2.09-2.51-3.31-3.42-1.28-.95-2.85-1.6-3.57-3.12-.44-.92-.37-2.18,.54-2.83,.7-.5,1.79-.43,2.59-.32,.34,.04,.43-.47,.17-.62-1.73-1.01-4.26-.64-5.27,1.23-.2,.38-.34,.75-.41,1.13-.01,.08-.03,.16-.03,.25,0,.09,0,.17,0,.26,0,.25,0,.49,0,.72,.03,.22,.06,.45,.07,.67,0,.02,0,.05,.01,.07,0,0,0,.02,0,.02,.12,1.65-.13,3.3-.47,4.96-.53,2.61-2.75,9.57-3.12,10.36-.38,.81-.79,1.78-1.52,2.33-.38,.28-.74,.38-1.06,.33-.5,.11-.97-.21-1.42-.62-.93-.85-1.5-2.23-1.94-3.39-.46-1.2-.73-2.83-1.72-3.75-.13-.12-.27-.21-.43-.3,1.09-.6,2.07-1.22,2.92-2.25,1.51-1.82,2.44-5.47,.29-7.22-2.54-2.07-5.26,.16-7.05,2.98-.02-1.46-.02-2.91,.06-4.36,4.25-2.91,8.34-6.6,11.17-10.94,1.37-2.1,2.32-4.57,2.54-7.08,.22-2.59-.77-5.32-3.49-6.08-2.64-.74-5.34,1-6.98,2.95-.1,.12-.2,.24-.3,.37-2.57,3.34-4.36,7.36-5.27,11.46-.03,.11-.05,.23-.07,.34-.26,.9-.47,1.8-.64,2.61-.29,1.36-.65,2.9-.81,4.42-.34,2.02-.44,4.06-.43,6.1,0,.02-.02,.03-.03,.05v1.8s-3.56,8.08-6.05,9.5c-.23,.25-.19,.35-.04-.55,.07-.45,.16-.9,.23-1.36,.36-2.32,.7-4.65,1.08-6.97,.36-2.23,.77-4.47,1.02-6.71,.15-1.37-.18-3.01-1.54-3.46-2.5-2.12-4.92,1.42-6.19,3.4-1.56,2.44-2.62,5.15-3.85,7.78,.25-1.6,.14-3.26,.04-4.87-.11-1.67-.23-3.34-.27-5.02-.05-1.66,.49-3.71-.58-5.12-.65-.86-1.84-.97-2.48,0-.94,1.45-.35,3.17-.25,4.8,.11,1.77,.1,3.56,.12,5.33,0,.16,0,.32,0,.48-.78,1.53-1.37,3.15-2.31,4.59-.52,.79-1.16,1.58-1.79,2.29-.36,.41-.69,.78-1.22,.98-.49,.19-.28,.1-.32,0-.26-.64-.2-2.07-.15-2.75,.07-1.1,.25-2.2,.42-3.29,.26-1.71,.5-3.44,.9-5.12,.05-.05,.09-.11,.13-.16,.04-.15,.09-.31,.13-.48,.21-.87,.14-1.68-.16-2.48-.15-.31-.34-.61-.58-.89-.32-.38-.73-.67-1.19-.88-2.21-.68-4.5,.79-5.79,2.52-1.34,1.79-3.44,6.2-3.16,9.39-.44,1.5-.99,2.95-1.54,4.46-.76,2.08-1.62,4.17-2.98,5.95-.41,.54-1.44,2-2.22,1.54-.8-.47-.49-2.57-.48-3.31,.05-2.54-.02-5.07-.03-7.6,0-1.61,.52-3.73-.99-4.85-1.52-1.13-3.14,.06-4.06,1.32-.92,1.25-1.69,2.58-2.37,3.95,.14-1.77,.37-3.52,.68-5.26,1.96-1.33,3.91-2.65,5.74-4.18,3.61-3.03,8.16-7.24,7.53-12.45-.52-4.25-5.27-7.42-9.01-4.42-2.01,1.61-3.21,4.34-4.17,6.66-1.1,2.68-1.93,5.49-2.68,8.28-.69,2.55-1.2,5.16-1.57,7.78-1.65,1.92-2.63,4.19-1.54,6.81,.03,.08,.19,.09,.18-.02-.2-1.67,.25-3.13,1.07-4.39,0,.07-.02,.13-.02,.2-.35,3.45-.51,7.04,.33,10.42,.5,1.99,3.29,1.43,3.42-.46,.17-2.46,1.05-4.72,2.13-6.93,.53-1.09,1.12-2.15,1.77-3.17,.21-.34,.54-.7,.78-1.07-.19,2.51-.67,4.96-.76,7.49-.09,2.22-.42,4.93,.83,6.9,1.04,1.63,2.91,2.41,4.75,1.72,1.72-.65,3.03-2.45,3.79-4.05,1.31-2.78,1.95-5.78,2.46-8.79,.45,.46,1.05,.81,1.85,1,1.1,.26,1.95,.02,2.64-.48-.32,2.03-.21,4.12,2.08,4.7,2.43,.62,4.47-1.95,5.54-3.76,.73-1.24,1.51-2.69,2.12-4.18,.04,.28,.09,.57,.15,.84,.23,1.02,.43,1.99,.58,3.02,.1,.67,.18,.91,.69,1.4,.28,.27,.67,.23,.91,0,0,0,0,0,.01,0,.42-.47,.59-1.02,.67-1.61,.9-2.25,2.01-4.44,3.21-6.54,.6-1.04,1.23-2.08,1.9-3.08,.09-.13,2-2.44,2.87-2.88-.15,.47-.21,.98-.31,1.46-.34,1.63-.67,3.24-.9,4.88-.41,2.98-.65,6.19-.4,9.19,.12,1.41,1.07,5.01,3.18,4.2,1.01-.39,1.75-1.44,2.24-2.59,.99-1.57,1.78-3.38,2.56-5.03,.41-.87,.88-1.76,1.33-2.66,.01,.35,.03,.69,.04,1.04,.08,1.77,.22,3.54,.26,5.31,.05,1.73-.15,3.55,.63,5.14,.48,.96,2.15,1.01,2.61,0,.67-1.46,.52-2.94,.52-4.51,0-.66,0-1.33,.02-1.99,.4,.04,.79-.02,1.16-.13,.28,.13,.52,.38,.72,.82,.34,.77,.41,1.57,.56,2.38,.26,1.44,.69,2.83,1.49,4.06,1.6,2.47,5.14,4.81,7.82,2.41,1.17-1.05,1.63-2.6,2-4.06,.44-1.74,1.08-3.43,1.42-5.2,.53-2.77,1.31-5.51,1.61-8.31,.03-.19,.06-.38,.09-.58,.29,.46,.58,.91,.86,1.34,1.13,1.73,2.6,3.23,3.81,4.9-.97,.92-1.92,1.86-2.75,2.9-1.52,1.9-2.55,4.37-1.75,6.79,.28,.83,.46,1.69,1.11,2.33,.83,.81,2.09,1.14,3.23,1.12,5.94-.08,7.53-7.6,5.72-12.07-.3-.74-.66-1.48-1.08-2.22,.82-.84,1.61-1.7,2.36-2.61,1.94-2.35,4.66-4.71,5.91-7.53,.92-2.07,1.67-4.81,.81-7.02Zm-34.87,6.85c.02-.06,.04-.13,.06-.19,.75-4.55,2.8-11,2.8-11v.02c.2-.64,.41-1.28,.66-1.91,.54-1.39,1.25-2.71,2.09-3.93,.46-.66,1.13-1.59,1.92-2.23,.58-.55,1.31-.88,2.17-.8,1.16,.11,1.97,.94,2.36,1.97,.55,1.44,.47,2.75-.1,4.19-1.23,3.11-3.51,5.81-5.65,8.33-1.78,2.08-3.7,4.04-5.74,5.87-.11,.1-.66,.47-.67,.6,.03-.31,.06-.61,.1-.91Zm-47.78-11.51c.94-1.9,2.28-4.44,4.77-3.35,2.5,1.08,2.61,4.11,1.74,6.33-.9,2.29-2.71,4.09-4.44,5.77-1.87,1.82-3.85,3.51-5.98,5.03-.06,.04-.12,.08-.17,.12,.94-4.67,1.98-9.63,4.09-13.9Zm17.78,15.86c-.97,2.91-2.5,6.02-4.26,4.32-.95-.92-.48-2.3,.12-3.45,.37-1.18,1-2.35,1.55-3.31,.17-.29,.35-.61,.57-.9,.21-.37,.48-.7,.81-.94,.13-.09,.3-.2,.49-.27,.06-.04,.13-.08,.21-.11,.16-.07,.46-.14,.69-.11,.33-.07,.65,.02,.9,.41,.44,.68-.12,1.69-.35,2.35-.24,.67-.44,1.36-.73,2.01Zm30.94,5.71c-.3,.23-.71,.4-1.11,.57,.02-.79,.02-1.57,.01-2.36,.47-.68,.96-1.33,1.52-1.95,.62-.68,1.35-1.5,2.19-1.9,1.59-.75,1.83,.29,1.21,1.44-.88,1.63-2.34,3.09-3.83,4.19Zm20.39,10.83c-.56,.07-.98-.14-1.51-.3-.87-.27-1.19-.3-1.13-1.36,.11-1.75,1.51-3.29,2.66-4.49,.4-.41,.8-.82,1.21-1.22,.04,.07,.08,.15,.11,.22,.93,2,2.13,6.69-1.34,7.15Z"/>
        <path d="M88.36,109.05c-.21-.02-.42,.02-.63,.1-.35,.05-.68,.21-.99,.48-.77,.66-1.06,1.83-.8,2.79,.39,1.42,1.8,2.36,3.21,1.56,2.06-1.16,1.8-4.71-.79-4.94Zm-1.52,2.92s0,0,0,0c0,0,0,0,0,0,0,0,0,0,0,0Z"/>
      </g>
    </g>
  </g>
</svg>