<?xml version="1.0" encoding="UTF-8"?>
<svg id="_图层_2" data-name="图层 2" xmlns="http://www.w3.org/2000/svg" viewBox="0 0 74.44 83.91">
  <defs>
    <style>
      
    </style>
  </defs>
  <g id="_图层_2-2" data-name=" 图层 2">
    <g>
      <path class="cls-1" d="M74.27,77.3c-.31-3.17-.54-6.34-.81-9.52-.43-5.17-.85-10.35-1.27-15.52-.41-5.06-.81-10.12-1.21-15.18-.4-4.99-.78-9.97-1.21-14.96-.16-1.82-1.02-3.32-2.75-4.01-1.47-.59-3.07-.86-4.64-1.28,.02,1.72,.04,3.23,.07,4.86,1.08-.02,2.03,.02,2.97-.06,.7-.06,.95,.17,1.01,.85,.48,6.01,1,12.01,1.48,18.02,.47,5.78,.9,11.56,1.37,17.34,.53,6.5,1.07,12.99,1.63,19.49,.08,.97-.28,1.26-1.2,1.26-1.9,0-3.79,.1-5.69,.17-6.03,.23-12.05,.47-18.08,.71-6.33,.25-12.66,.49-18.99,.73-2.22,.08-4.44,.14-6.72,.21,.58-19.08,1.15-38.04,1.72-57.11,3.52-.13,6.99-.27,10.58-.41-.03-1.13-.06-2.17-.09-3.23-.75-.02-1.39-.08-2.02-.06-3.11,.1-6.21,.25-9.32,.31-.68,.01-1.37-.25-2.06-.38,.02-.09,.04-.18,.06-.27,4.4-.25,8.8-.5,13.26-.75-.07-1.18-.14-2.19-.21-3.27-.38-.01-.72-.05-1.05-.03-6.28,.34-12.57,.68-18.85,1.05-2.23,.13-3.94,1.66-4.29,3.87-.55,3.52-1.01,7.05-1.52,10.58-.62,4.31-1.23,8.63-1.85,12.94-.72,4.99-1.45,9.98-2.18,14.96-.74,5.1-1.45,10.21-2.23,15.3-.37,2.41,.71,4.4,3.03,5.17,3.05,1.01,6.13,1.92,9.17,2.95,3.29,1.11,6.6,1.88,10.12,1.69,7.2-.37,14.4-.61,21.6-.89,8.75-.34,17.51-.66,26.26-1.01,2.62-.1,4.12-1.94,3.86-4.54Zm-59.34,1.36c-.89-.77-1.78-1.53-2.66-2.3-.51-.45-.96-1.03-1.55-1.32-.7-.35-1.54-.65-2.29-.61-1.46,.08-2.9,.41-4.64,.69,.29-.47,.39-.73,.57-.92,.85-.86,1.7-1.74,2.61-2.54,1.12-1,1.79-2.18,1.96-3.71,.91-7.83,1.88-15.66,2.83-23.48,.74-6.05,1.49-12.1,2.24-18.16,.04,0,.08,0,.11,0-.04,1.36-.06,2.72-.13,4.08-.68,12.73-1.39,25.46-2.01,38.2-.06,1.2,.27,2.47,.67,3.62,.74,2.13,1.67,4.19,2.52,6.27-.08,.06-.16,.12-.24,.19Z"/>
      <path class="cls-1" d="M24.57,13.31c.1-1.1,.14-2.12,.3-3.13,.32-2.06,.87-4.03,2.82-5.21,2.15-1.31,6.62-1.06,8.7,.48-2.18,3.89-1.98,8.14-1.86,12.39,.07,2.57,.01,5.14-.02,7.71,0,.65-.29,1-1.03,1.22-2.11,.61-3.18,2.96-2.44,5.02,.73,2.01,3.01,3.05,5.02,2.28,2.12-.81,3.04-2.97,2.25-5.12-.17-.45-.12-1-.09-1.5,.15-2.26,.45-4.51,.48-6.77,.04-2.61-.26-5.23-.18-7.84,.05-1.56,.53-3.1,.81-4.66,.17,0,.35-.01,.52-.02,.52,1.16,1,2.34,1.57,3.48,.15,.29,.54,.65,.82,.66,1.09,.01,2.18-.11,3.26-.18-.04-1.61-1.03-4.01-2.76-6.67,4.92-1.23,9.89,.75,11.87,5.56,1.8,4.36,1.95,8.91,1.19,13.52-.11,.68-.5,.96-1.14,1.15-2.2,.64-3.31,2.76-2.63,4.89,.67,2.07,2.84,3.19,4.9,2.51,2.1-.69,3.16-2.88,2.48-5.03-.13-.4-.17-.89-.07-1.29,1.51-5.71,1.26-11.38-.86-16.85-2.93-7.59-11.12-10.91-18.52-7.75-.26,.11-.68,.11-.9-.03C36.56,.62,33.81,.13,30.91,.14c-8.16,.04-10.73,7.39-10.06,13.4,1.23-.08,2.47-.16,3.73-.24Z"/>
      <path class="cls-1" d="M53.69,15.73c-.03-.72-.32-1.01-1.02-1.04-2.15-.09-4.29-.3-6.44-.3-1.83,0-3.67,.21-5.6,.34,.08,1.16,.14,2.2,.22,3.29,4.41-.04,8.74-1.02,13.15,.46-.12-1.05-.28-1.89-.31-2.75Z"/>
      <path class="cls-1" d="M53.87,22.06c.04-1.16,.07-2.18,.1-3.34-4.39,.17-8.66,.33-13.04,.5,.05,1.14,.09,2.21,.13,3.35,4.35-.17,8.57-.34,12.81-.51Z"/>
    </g>
  </g>
</svg>