<?xml version="1.0" encoding="UTF-8"?>
<svg id="_图层_2" data-name="图层 2" xmlns="http://www.w3.org/2000/svg" viewBox="0 0 120.24 120.24">
  <defs>
    <style>
      .cls-1 {
        fill-rule: evenodd;
      }
    </style>
  </defs>
  <g id="_图层_2-2" data-name=" 图层 2">
    <g>
      <path class="cls-1" d="M35.77,55.15l-22.37-.12-8.43,.7,7.94,8.85c-1.68,3.18-7.87,7.38-7.95,10.54l74.53,.39h35.77c-.25-2.95-6.46-7.11-6.46-9.94,0-2.51,5.62-6.28,6.46-9.79l-79.5-.64Zm-26.83,17.89c1.07-1.59,6.46-6.64,6.46-8.45,0-3.24-5.24-4.75-5.96-7.45,1.95,.16,7.45,5.68,7.45,6.96,0,2.03-5.75,9.96-7.95,8.94Zm15.9-2.48h-.99v-4.47h-2.48v4.47h-1.49v-10.43h1.49v4.47h2.48v-4.47h.99v10.43Zm6.96-1.99c0,1.16-.82,1.99-1.99,1.99h-.99c-1.53,0-1.99-1.46-1.99-2.98v-5.47c0-1.16,.82-1.99,1.99-1.99h.99c1.16,0,1.99,.82,1.99,1.99v6.46Zm5.47,1.99h-3.48v-10.43h1.49v8.94h1.99v1.49Zm2.98,0h-1.49v-10.43h1.49v10.43Zm6.96-2.98c0,1.34-.24,1.37-.5,2.48-1.11,.26-1.14,.5-2.48,.5h-1.99v-10.43h1.99c1.34,0,1.37,.24,2.48,.5,.26,1.11,.5,1.14,.5,2.48v4.47Zm6.46,2.98h-.99v-4.47h-2.48v4.47h-1.49v-7.95c0-1.16,1.33-2.48,2.48-2.48h.5c1.16,0,1.99,.82,1.99,1.99v8.45Zm6.96-7.95c0,2.99-1.99,2.65-1.99,4.47v3.48h-1.49v-4.97c-1.11-.3-1.49-.12-1.49-1.49v-3.97h.99v2.98c0,1.14,.35,1.49,1.49,1.49,.7,0,.99-.68,.99-1.49v-2.98h1.49v2.48Zm5.96-.99c.28,3.33,3.48,4.68,3.48,6.46,0,1.16-.65,2.48-1.99,2.48h-.99c-1.77,0-1.95-1.7-1.99-3.48h1.49v1.99h1.99c-.25-2.99-3.48-4.55-3.48-6.46v-.5c0-1.16,.82-1.99,1.99-1.99h.99c1.77,0,1.95,1.7,1.99,3.48h-1.49v-1.99h-1.99Zm8.45,0h-1.99v2.98h1.99v1.49h-1.99v3.48h1.99v.99h-3.48v-10.43h3.48v1.49Zm6.96,8.94h-1.49v-4.47h-1.99v4.47h-1.49v-7.45c0-1.53,.46-2.98,1.99-2.98h.99c1.16,0,1.99,.82,1.99,1.99v8.45Zm6.46-6.96h-.99c-.12-1.4,.01-1.99-1.49-1.99-.07,0-.98,.49-.99,.5,.7,2.61,3.48,3.5,3.48,6.46,0,1.16-.82,1.99-1.99,1.99h-.5c-1.79,0-2.44-1.56-2.48-3.48h1.49c.12,1.4-.01,1.99,1.49,1.99,.07,0,.98-.49,.99-.5-.62-2.34-3.97-4.04-3.97-6.46,0-.53,1.45-1.99,2.48-1.99h.5c1.16,0,1.99,.82,1.99,1.99v1.49Zm6.96,3.97c0,1.34-.24,1.37-.5,2.48-1.11,.26-1.14,.5-2.48,.5-1.16,0-1.99-.82-1.99-1.99v-6.46c0-1.16,.82-1.99,1.99-1.99,1.34,0,1.37,.24,2.48,.5,.26,1.11,.5,1.14,.5,2.48v4.47Zm6.96,2.98h-1.49v-7.45c0-1.65-.89-1.46-2.48-1.49v8.94h-1.49v-7.95c0-1.16,1.33-2.48,2.48-2.48h.5c1.16,0,2.48,1.33,2.48,2.48v7.95Zm3.48-5.96c0,1.39,4.9,6.22,3.97,8.45-.92-.61-4.97-6.76-4.97-7.95v-.99c0-2.8,3.62-5.91,5.96-6.46-.74,2.78-4.97,3.33-4.97,6.96Z"/>
      <path class="cls-1" d="M120.24,60.12c0-1.43-1.74-2.62-2.48-3.48,.53-1,1.99-2.93,1.99-3.97,0-1.65-1.86-2.39-2.98-2.98,.47-2,1.49-2.32,1.49-3.48v-.99c0-2.29-2.98-1.43-2.98-2.98,0-2.15,.99-2,.99-3.48,0-1.68-2.68-2.61-3.74-3.46l.28-4.56-4.13-1.44,.69-4.01-1.09-1.31-3.95-.62v-4.47c-.93-.22-4.31-.35-4.78-1.18-.88-1.55,.55-4.29-2.17-4.29h-3.48c-.24-1.01-.86-4.66-2-4.56l-3.94,.57-2.02-4.06-4.96,.59c-.66-1.24-.88-2.98-2.48-2.98h-.5c-2.15,0-2,.99-3.48,.99-.86,0-1.79-2.98-2.98-2.98-2.67,0-2.35,1.49-3.97,1.49-1.79,0-2.42-2.48-3.48-2.48-2.13,0-2.17,1.99-3.97,1.99s-1.85-1.99-3.97-1.99c-1.06,0-1.69,2.48-3.48,2.48-1.53,0-1.65-1.49-3.48-1.49-2.2,0-2.04,2.98-3.48,2.98s-1.33-.99-3.48-.99l-1.37,.07-1.61,3.41c-2.09-.17-2.63-.99-4.47-.99-.84,0-2.06,3.17-2.5,4.06l-3.96-.58c-3.26-.55,2.71,4.47-6.46,4.47-2.15,4.48,1.09,4.97-4.97,4.97-.6,.9-.99,.87-.99,1.99l-.03,2.87-4.44,1.1v4.97c-.93,.22-4.13,.98-4.09,2l.61,4.46c-1.13,.26-3.97,1.34-3.97,2.48,0,2.15,.99,2,.99,3.48,0,1.99-2.98,1.85-2.98,3.48,0,1.99,1.02,2.47,1.49,4.47-.78,.42-2.98,1.48-2.98,2.48,0,2.26,1.06,2.59,1.99,3.97-.71,1.33-2.48,3.08-2.48,3.97,0,1.26,1.69,2.29,2.48,3.48-.53,1-1.99,2.93-1.99,3.97,0,1.77,1.8,1.72,2.98,3.48-.42,.79-1.49,2.24-1.49,2.98v.5c0,2.21,2.98,2.38,2.98,3.48,0,2.15-.99,2-.99,3.48,0,2.06,2.51,2.28,3.97,2.98-.13,1.55-.5,1.76-.5,3.48v.5c0,1.85,2.37,1.71,3.97,2.48l.1,4.37,.92,.97,3.46,.62v2.98c0,1.11,.39,1.09,.99,1.99,8.13,0,1.26,4.97,5.96,4.97l3.19,.15,2.32,4.56,.46-.22,3.97-.51c.1,1.22,.98,3.97,1.99,3.97,1.84,0,2.38-.82,4.47-.99,.27,1.14,1.35,3.48,2.48,3.48,2.15,0,2-.99,3.48-.99,2.34,0,1.64,2.98,4.47,2.98,.07,0,2.68-1.78,2.98-1.99,.77,.51,3.12,2.98,3.48,2.98,1.13,0,3.09-1.89,3.97-2.48,.47,.31,3.19,2.48,3.48,2.48,1.29,0,2.72-2.14,3.96-2.96l3.49,1.96c1.6-.84,3.01-2.98,3.48-2.98,2.15,0,2,.99,3.48,.99,1.7,0,2.64-2.01,2.98-3.48,2.09,.17,2.63,.99,4.47,.99,1.68,0,1.09-3.97,3.48-3.97h3.94s1.03-3.97,1.03-3.97h3.48c4.71,0-2.17-4.97,5.86-5.07l1.09-.89c0-5.82-.36-3.84,4.47-4.97,.32-1.33,.5-.94,.5-1.99,0-2.23-1.6-2.49,.55-3.4,1.25-.53,2.93-.02,2.93-2.06v-.5c0-1.71-.37-1.92-.5-3.48,1.13-.26,3.97-1.34,3.97-2.48,0-2.15-.99-2-.99-3.48,0-2.12,2.98-1.51,2.98-3.97v-.5c0-.74-1.07-2.19-1.49-2.98,.84-1.26,2.98-2.22,2.98-2.98,0-1.88-1.21-3-1.99-4.47,.8-1.19,2.48-2.21,2.48-3.48Zm-1.49,7.45c-.58,.39-2.98,2.28-2.98,2.98,0,1.99,1.02,2.47,1.49,4.47-.85,.45-3.48,1.95-3.48,2.98,0,1.36,.99,1.62,.99,2.98,0,1.46-2.28,2.18-3.57,2.99l.59,4.96c-1.98,.04-3.97,.58-3.97,2.48l-.1,3.18-4.37,1.79c0,4.68,.78,4.47-4.22,4.38l-1.25,4.56h-2.98c-1.19,0-1.46,.81-2.48,1.49,0,4.84-1.11,2.48-4.47,2.48-1.28,0-2,2.97-2.5,4.07l-4.98-.6-1.96,3.49c-1.02-.24-3.46-1.49-3.48-1.49-2.35,0-2.68,2.98-3.97,2.98-1.53,0-1.65-1.49-3.48-1.49s-2.42,2.48-3.48,2.48c-1.8,0-1.85-1.99-3.97-1.99-1.86,0-2.74,1.99-3.48,1.99-2.03,0-1.23-2.48-3.97-2.48-1.53,0-1.65,1.49-3.48,1.49-1.16,0-1.65-2.98-3.48-2.98-1.06,0-2.41,1.13-3.97,1.49-.38-.72-1.54-3.62-2.5-3.59l-4.46,.61c-.4-.84-1.33-4.17-2.5-4.06l-3.96,.58c-.21-2.55-.7-4.47-3.48-4.47l-2.13-.13-1.84-4.34c-4.75,0-3.97,.21-4.07-4.37l-.91-.97-3.46-.62v-3.48c0-2.06-2.51-2.28-4.06-3l.58-3.96c.16-.93-2.78-2.11-3.62-2.53l1.37-4.22-3.71-2.7c.36-1.57,1.49-2.92,1.49-3.97,0-1.39-2.07-2.87-2.98-3.48,.57-1.07,1.99-2.68,1.99-3.48v-.5c0-1.97-1.99-1.5-1.99-3.48s1.99-1.5,1.99-3.48v-.5c0-.88-1.51-2.76-1.99-3.48,.69-.94,2.98-2.17,2.98-2.98,0-1.55-.91-2.88-1.61-4.12l3.6-3.33-.91-4.3,3.49-1.67-.59-4.96c1.79-.15,3.97-.59,3.97-2.48l.04-3.37,4.44-1.6c0-4.68-.78-4.47,3.97-4.47,.72-1.08,1.49-1.65,1.49-3.48v-1.49h3.48c1.11,0,1.09-.39,1.99-.99,0-4.16,1.07-2.98,5.51-2.96l1.46-3.59,4.9,.55,2.05-3.44c1.57,.36,2.92,1.49,3.97,1.49,.73,0,2.75-2.98,3.48-2.98,1.46,0,2.52,1.49,3.97,1.49,.75,0,2.24-2.48,2.98-2.48,2.13,0,2.17,1.99,3.97,1.99,1.36,0,2.79-1.99,3.48-1.99,1.79,0,2.42,2.48,3.48,2.48,1.18,0,3.18-1.45,3.97-1.99,.89,.65,2.66,3.48,3.48,3.48s2.79-1.13,3.76-1.67l2.21,3.75,4.94-.58,1.5,3.47c10.29,0,2.78,3.97,7.45,3.97h3.57s.5,3.88,.5,3.88l.89,1.09c4.75,0,3.97-.21,3.97,4.47,4.66,2.47,4.47-1.31,4.41,6.12l4.12,1.34-.67,3.95c-.17,1.5,2.43,2.24,3.56,2.5,0,3.13-.99,3.04-.99,4.47,0,.83,2.66,2.26,3.48,3.48-.36,.69-1.49,2.66-1.49,3.48,0,1.65,1.86,2.39,2.98,2.98-.6,2.56-1.99,2.51-1.99,3.97v.5c0,1.26,1.69,2.29,2.48,3.48-.8,1.19-2.48,2.21-2.48,3.48v.5c0,.8,1.42,2.41,1.99,3.48Z"/>
      <path class="cls-1" d="M68.57,34.78c-1.34,0-1.37,.24-2.35,.57l1.35-3.55h-3.97v-2.48c0-2.49-1.97-4.93-3.97-5.47-.43,1.83-2.05,6.13-3.15,7.28-1.43,1.5-3.1-.25-2.69,2.45,.37,2.38,1.27,1.47,1.86,3.69-1.18-.62-3.38-1.99-4.97-1.99l-2.81,.16,2.81,5.3c-.34,.61-.5,.53-.5,1.49s1.61,1.07,2.55,1.51l-.56,1.97c1.39,.93,2.1,1.49,4.47,1.49h2.48v3.97c0,1.4,.22,.92,.99,1.49,.84-.58,.99-.07,.99-1.49v-.5c0-1.71-.37-1.92-.45-3.21l8.61-1.92-1.44-2.07,2.64-2.84-.98-.7,2.55-5.16h-3.48Zm-2.6,5.81l-.49-.32,.52,1.98-1.11,1.88,1.19,.09v.99h-5.47v-1.99c0-1.42-.16-.91-.99-1.49-.65,1.31-.5-.41-.5,1.49v2.48h-1.99c-1.34,0-1.37-.24-2.48-.5v-1.49c0-1.37-.38-1.19-1.49-1.49l.59-1.46-3.4-3.75c2.97,.36,5.78,3.22,6.79,3.22,1.16,0,1.99-.82,1.99-1.99,0-.04-2.6-3.75-2.98-4.47l1.95-1.21,2.48-5.96,.54,.22c1.08,4.64-1.27,6.96,3.48,6.96-1.12,2.12-2.98,3.08-2.98,5.47,0,.7,.68,.99,1.49,.99,2.02,0,3.51-3.29,6.46-3.97l-3.6,4.32Z"/>
      <path class="cls-1" d="M75.4,53.14l.62-2.96c4.26,2.04,9.94-2.19,9.94-5.96v-2.98c0-3.19-3.71-7.2-3.97-10.43-4.25,.09-10.43,7.34-10.43,11.92v.5c0,3.24,1.61,4.41,2.92,6.45l-.44,3.49,1.37-.02Zm-2.36-9.42v-.99c0-4.1,4.69-9.18,7.95-9.94,.55,2.38,3.48,6.78,3.48,8.94v2.48c0,3.09-4.05,4.97-7.95,4.97,2.58-5.38,4.01-.9,4.97-4.47h-1.49c-.96,0-.88,.16-1.49,.5l-.35-.37,4.09-3.81-2.27,.13c.28-1.03,.52-1.06,.52-2.4v-1.49c-1.84,.49-2.32,3.45-2.48,5.47h-.99l-1.45-2.86-.58,.39,1.79,5.37-2.83-3.19-.62,.36,1.21,3.91,1.09,.89-1.09,.1v-.99c-1.01-.74-1.49-1.14-1.49-2.98Z"/>
      <path class="cls-1" d="M48.69,42.23c0-3.96-6.55-11.34-10.43-11.43-.32,3.79-3.97,6.43-3.97,10.93v2.48c0,3.94,5.74,7.98,9.83,6l1.22,3.57,.73-.15-.35-4.45c-.04-.59,2.98-2.39,2.98-5.47v-1.49Zm-1.99,2.48c-.38,1.64-.53,2.45-2.06,2.94l2.06-2.94-.4-2.28-2.58,3.27c-1.14-2.46,3.54-5.02,.15-5.9l-1.64,2.92c-.42-1.79-.62-4.97-2.48-5.47v1.49c0,1.34,.24,1.37,.52,2.4l-2.01-.41,.29,1.13,3.58,2.85-.39,.49c-.61-.34-.53-.5-1.49-.5h-1.49c.49,1.83,1.72,1.8,3.84,2.05l1.13,2.42c-4.21,0-7.95-1.46-7.95-5.47v-1.99c0-2.55,2.88-6.39,3.48-8.94,2.95,.69,10.16,7.65,7.45,11.92Z"/>
      <path class="cls-1" d="M63.6,84.96c0-2.39,1.75-1.61,1.96-4.56l-4.62,1.33-2.38-3.06-.42,.33v2.98c0,2.91-3.06,.63-4.97,3.48,1.71,.82,4.47,.2,4.47,2.48v4.47l.48,.32,3.01-4.85,4.46,.56c-.24-2.87-1.99-2.35-1.99-3.48Z"/>
      <path class="cls-1" d="M75.57,81.97l-.54-3.47-.79,.12-1.66,2.89-3.26-.32,2.22,2.78-1.48,3.48c2.93-.24,1.04-.99,2.98-.99s1.5,1.82,4.17,2.43l-1.02-4.23,2.32-2.67h-2.94Z"/>
      <path class="cls-1" d="M47.3,81.44l-1.1-2.94-.89,.02-.65,3.45-3.24,.35,2.78,2.15-1.18,4.42,.46,.32,3.16-3.15,3.53,1.39c-.33-1.43-1.49-2.88-1.49-2.98,0-.8,1.42-2.41,1.98-3.52l-3.37,.5Z"/>
      <path class="cls-1" d="M51.18,97.38h-.99c-.81,0-1.58,.6-1.99,.99,0,3.69-.99,3.27-.99,5.47v.5c0,1.16,.82,1.99,1.99,1.99h.5c1.92,0,4.36-8.94,1.49-8.94Zm-1.48,7.92l-1.5-.47c.05-2.2-.16-2.31,1.99-2.48v1.49c0,1.9,.15,.18-.49,1.46Zm1.01-3.94c-1.13-.3-1.51-.12-1.51-1.5,0-1.5,.58-1.37,2.11-1.47l-.59,2.96Z"/>
      <path class="cls-1" d="M46.47,96.51l-1.75,2.86c-1.84-1.35-.24-1.57,0-4.47h-.99c-.4,1.73-2.48,6.45-2.48,7.45,0,1.91,1.68,1.86,3.07,2.52l3.39-8.48-1.23,.12Zm-2.72,6.84l-1.61-.53,.63-2.57,1.94,.6-.95,2.5Z"/>
      <path class="cls-1" d="M81.98,28.82c2.52-.28,2.16-2.48,3.48-2.48,.44,0,.99,.55,.99,.99,0,.07-1.78,2.68-1.99,2.98,1.57,.65,5.76-4.51,5.96-6.96-2.3,.61-1.64,2.48-2.98,2.48-.44,0-.99-.55-.99-.99,0-.07,1.78-2.68,1.99-2.98-1.64-.68-5.89,4.84-6.46,6.96Z"/>
      <path class="cls-1" d="M70.55,23.35l.92-.02,1.06-3.45c3.31,.28,1.07,1.04,.99,4.47h.99c.56-2.38,1.99-4.91,1.99-7.45,0-1.16-.82-1.99-1.99-1.99-2.1,0-3.79,6.27-3.97,8.45Zm4.97-6.96c-.04,1.59,.16,2.48-1.49,2.48-.07,0-.98-.49-.99-.5,.86-1.73,.19-1.8,2.48-1.99Z"/>
      <path class="cls-1" d="M95.89,46.7c3.04-.25,4.18-2.5,4.42,.84l-3.43,1.15c1.25,1.7,8.45-1.13,8.45-2.98,0-1.16-.82-1.99-1.99-1.99-2.36,0-6.93,1.04-7.45,2.98Zm5.47,0c0-2.03,.53-1.94,2.48-1.99-.18,2.15-.28,1.94-2.48,1.99Z"/>
      <path class="cls-1" d="M32.79,87.94c0-1.16-.82-1.99-1.99-1.99h-.5c-1.25,0-5.47,4.11-5.47,5.47,0,.41,1.58,1.99,1.99,1.99,1.52,0,5.96-4.01,5.96-5.47Zm-1.49-.99v1.99l-4.97,2.98c.18-2.16,2.81-4.79,4.97-4.97Z"/>
      <path class="cls-1" d="M93.91,41.24c0,1.16,.65,2.48,1.99,2.48h.5c1.55,0,6.46-2.33,6.46-3.48s-.56-2.98-1.49-2.98c-1.1,0-7.45,3.27-7.45,3.97Zm7.95-1.49c0,.74-4.47,2.98-5.47,2.98-.88,0-.82-.75-.99-1.49,1.63-.38,6.46-3.76,6.46-1.49Z"/>
      <path class="cls-1" d="M17.39,39.75c0,2.1,6.29,5.24,8.11,4.18l-3.64-1.69c.18-.75,.11-1.49,.99-1.49,1.3,0,1.29,.81,3.48,.99v-.99c-2.04-.47-5.69-2.98-6.96-2.98-1.16,0-1.99,.82-1.99,1.99Zm3.97,.5c0,.07-.49,.98-.5,.99-2.27-.53-1.78-.1-1.99-1.99,1.1,.02,2.48-.15,2.48,.99Z"/>
      <path class="cls-1" d="M45.69,23.09l-2.96-7.19h-.99c.08,3.63,2.08,5.86,3.48,7.95l1.49,.5c.24-.5,.99-2.33,.99-2.98,0-1.84-1.54-5.88-2.98-6.46l-.06,.87,1.91,6.98-.88,.33Z"/>
      <path class="cls-1" d="M57.14,14.91v4.47c0,1.16,.82,1.99,1.99,1.99h.5c1.16,0,1.99-.82,1.99-1.99v-2.98h-1.99v1.49h.99c-.05,2.2,.16,2.31-1.99,2.48v-6.46l1.29,.09,1.19,1.9s.5-.93,.5-.99c0-1.16-.82-1.99-1.99-1.99h-.5c-1.16,0-1.99,.82-1.99,1.99Z"/>
      <path class="cls-1" d="M89.17,85.2l2.58,2.9-1.32,1.34c-.36-.54-1.79-2.48-2.48-2.48-1.12,0,.23-.19-.99,.5,.61,.91,5.41,5.47,6.46,5.47,1.16,0,1.99-.82,1.99-1.99v-.5c0-1.53-4.58-5.1-6.23-5.23Zm4.24,6.72c-.32,0-1.43-1.12-2.09-1.6l1.49-1.49c.48,.66,1.6,1.78,1.6,2.09,0,.44-.55,.99-.99,.99Z"/>
      <path class="cls-1" d="M41.74,93.91c-.38,.72-1.16,2.98-1.99,2.98-3.51,0,.89-2.32-.36-4.69l-4.24,7.1c.71,1.17,.56,2.06,2.11,2.06h.5c1.38,0,5.79-6.14,3.97-7.45Zm-3.61,6.39c-.62-.11-1.36-.04-1.36-.92,0-1.14,.17-.58,.52-2.05l2.1,.63-1.25,2.34Z"/>
      <path class="cls-1" d="M85.96,98.87v-.99c0-.96-2.71-5.47-4.47-5.47-.96,0-1.99,.89-1.99,1.49,0,2.1,2.96,6.96,4.97,6.96,.6,0,1.49-1.03,1.49-1.99Zm-4.47-5.47c1.11,0,3.33,4.22,3.48,5.96-2.5-.21-5.78-5.96-3.48-5.96Z"/>
      <path class="cls-1" d="M67.57,22.36c1.4,0,1.92-1.14,2.37-2l.61-5.45c-.52-.77-.66-1.49-1.99-1.49h-1.89s-1.25,8.42-1.25,8.42c1.49,.34,1.09,.52,2.14,.52Zm-.51-3.98l.51-3.97c1.4,.12,1.99-.01,1.99,1.49,0,2.32-.99,1.56-.99,4.97h-1.99c.3-1.3,.26-1,.49-2.49Z"/>
      <path class="cls-1" d="M33.79,21.36c0,1.21,2.88,6.46,4.47,6.46h.5c1.16,0,1.99-.82,1.99-1.99s-1.02-1.47-1.7-3.78l-1.78,1.8h1.49c.32,1.33,.5,.94,.5,1.99,0,1.12,.19-.23-.5,.99-1.57-1.05-3.42-3.39-3.48-5.96h1.49l.04,1.09,1.45-.59c-.52-.77-.66-1.49-1.99-1.49h-.5c-.96,0-1.99,.89-1.99,1.49Z"/>
      <path class="cls-1" d="M92.41,26.33c-1.15,0-5.47,4.57-5.47,4.97,0,1.16,.65,2.48,1.99,2.48h.5c1.15,0,5.47-4.57,5.47-4.97,0-1.16-.65-2.48-1.99-2.48h-.5Zm.99,1.99c0,1.99-3.01,3.81-4.97,3.97,.13-1.6,2.6-4.97,3.97-4.97,.44,0,.99,.55,.99,.99Z"/>
      <path class="cls-1" d="M27.82,80.99c-1.52,.13-6.96,3.8-6.96,4.97s1.03,2.48,1.99,2.48c2.03,0,4.5-3.32,6.96-3.97l-.19-1.3-7.01,4.22-.26-.43c.29-3.49,4.65-2.9,5.47-5.96Z"/>
      <path class="cls-1" d="M53.16,22.36c-.04-1.69-1.82-7.95,0-7.95,2.55,0-.14,6.62,2.98,7.45,0-2.31-.3-8.45-2.48-8.45h-.99c-1.14,0-1.49,.35-1.49,1.49l-.2,.53,1.19,6.92h.99Z"/>
      <path class="cls-1" d="M78.01,103.35h.99c1.14,0,1.49-.35,1.49-1.49v-.5c0-1.78-1.91-4.48-2.48-6.96h-.99c.06,2.55,3.77,7.95,1.49,7.95-1.85,0-1.5-5.67-4.47-6.46,.39,1.67,2.34,7.45,3.97,7.45Z"/>
      <path class="cls-1" d="M24.35,46.7l-.03-.89-8.91-2.59v.99c2.14,.5,3.24,.3,3.47,2.54l-4.46-.56,.05,.82,8.89,2.65-.02-.92-3.45-1.06c.28-3.31,1.04-1.07,4.47-.99Z"/>
      <path class="cls-1" d="M29.81,27.33c2.8,0,4.76-.03,4.94,2.59l-2.46-.6c.23,.85,.58,1.99,1.49,1.99,1.03,0,2.48-1.45,2.48-1.99,0-.84-.66-1.86-.99-2.48-2.8,0-4.76,.03-4.97-2.48h1.49l.04,1.09,1.46-.59c-.52-.77-.66-1.49-1.99-1.49h-.5c-1.16,0-1.99,.82-1.99,1.99s.39,1.09,.99,1.99Z"/>
      <path class="cls-1" d="M43.23,61.11v8.45c1.59-.04,2.48,.16,2.48-1.49v-5.47c0-1.65-.89-1.46-2.48-1.49Z"/>
      <path class="cls-1" d="M29.31,37.26c-.36-1.33-4.96-4.97-6.46-4.97-1.16,0-1.99,.82-1.99,1.99v.5c0,1.64,5.18,4.82,6.96,4.97v-.99c-1.94-.52-5.72-2.76-5.96-4.97l.26-.46,7.19,3.93Z"/>
      <path class="cls-1" d="M31.1,34.98l-2.78-2.19c.18-.75,.11-1.49,.99-1.49,1.82,0,1.07,1.35,3.48,1.99-.46-1.74-1.41-2.81-3.48-2.98-.18-2.15-1.33-3.3-3.74-3.25l2.8,3.2-.78,1.3-3.25-2.74c-.61,1.48,3.99,6.25,6.75,6.17Z"/>
      <path class="cls-1" d="M25.07,78.11l-1.22,2.38s.93,.5,.99,.5c.6,0,1.49-1.03,1.49-1.99,0-1.16-.82-1.99-1.99-1.99h-.5c-2.34,0-2.41,4.97-3.97,4.97-.44,0-.99-.55-.99-.99,0-.91,.76-.8,1.49-.99-.25-.44-.32-.99-.99-.99-.6,0-1.49,1.03-1.49,1.99,0,1.16,.82,1.99,1.99,1.99h.5c2.75,0,.91-4.58,4.69-4.86Z"/>
      <path class="cls-1" d="M101.85,81.48c0-1.14-.35-1.49-1.49-1.49h-2.48c-1.19,0-2.98,1.07-2.98-.5,0-1.44,1.63-.7,2.48-.5-.3-1.11-.12-1.49-1.49-1.49h-.5c-1.52,0-1.44,.89-1.99,1.99l1,2.07,6.45-.58v1.49h-2.48c.3,1.11,.12,1.49,1.49,1.49,1.16,0,1.99-.82,1.99-1.99v-.5Z"/>
      <path class="cls-1" d="M72.04,104.84c0-2.81-.99-2.72-.99-5.96-.55-.37-1.67-1.49-1.99-1.49-1.79,0-2.44,1.56-2.48,3.48h1.49v-1.99c2.76,.23,2.48,3.36,2.48,6.46h-1.49v-1.49h-1.49c.29,1.26,.42,2.48,1.99,2.48h.5c.96,0,1.99-.89,1.99-1.49Z"/>
      <path class="cls-1" d="M90.38,93.13l-5.42-1.21c.67-2.51,.45-1.2,2.98-.99-.3-1.11-.12-1.49-1.49-1.49h-.99c-1.14,0-1.49,.35-1.49,1.49v.5c0,1.11,.39,1.09,.99,1.99,2.5,0,4.71,.13,4.86,2.71l-2.38-1.22c-.41,1-.29,1.99,1.49,1.99h.5c1.14,0,1.49-.35,1.49-1.49,0-1.34-.24-1.37-.55-2.27Z"/>
      <path class="cls-1" d="M91.42,63.1v4.47c0,1.65,.89,1.46,2.48,1.49v-7.45c-1.59,.04-2.48-.16-2.48,1.49Z"/>
      <polygon class="cls-1" points="63.1 106.33 63.1 107.32 66.16 107.31 65.58 98.38 62.6 98.38 62.6 99.37 64.59 99.37 64.59 102.35 62.6 102.35 62.6 103.35 64.59 103.35 64.59 106.33 63.1 106.33"/>
      <path class="cls-1" d="M79.99,16.89h-.99c-.32,1.36-.99,2.02-.99,2.98,0,1.27,.12,1.2,.43,1.96l-1.43,4h.99c.92-3.94,7.11-5.66,4.08-7.91l-1.1,2.94-2.13-.05,1.14-3.93Z"/>
      <path class="cls-1" d="M106.33,50.18v-.99c-5.01,.11-3.09,2.54-8.45,2.98l.02,1.12,3.96-.62c.9,.6,.87,.99,1.99,.99h.5c1.34,0,1.37-.24,2.48-.5v-.99c-1.56,.03-3.97,1.14-3.97-.5,0-1.04,2.46-1.25,3.48-1.49Z"/>
      <path class="cls-1" d="M59.62,98.38h-1.49v1.49h1.49v7.95c1.11-.3,1.49-.12,1.49-1.49v-6.46c0-1.14-.35-1.49-1.49-1.49Z"/>
      <path class="cls-1" d="M56.64,98.38h-2.48v.99h1.49l-.02,2.37-2.6,.92,2.12,.68v2.48h-1.99v1.49h1.49c2.3,0,1.99-6.51,1.99-8.94Z"/>
      <rect x="28.32" y="61.61" width="1.99" height="7.45"/>
      <path class="cls-1" d="M97.88,86.95c0,.3-.69,1.03-.99,1.49,1.6,.66,2.04-.56,2.43-2.4l-7.41-4.57-1.11,2.43c1.84-.4,1.45-.93,2.12-.93,.42,0,1.49,1.07,1.49,1.49,0,1.14-.17,.58-.39,2.16l1.88-1.17c.63,.33,1.99,.68,1.99,1.49Z"/>
      <path class="cls-1" d="M97.38,30.31c-1.01,.27-7.45,4.85-7.45,5.47,0,1.02,1.53,1.73,2.66,1.88l-1.17-1.88c1.79-1.2,5.68-2.9,5.96-5.47Z"/>
      <path class="cls-1" d="M13.96,49.2l-.65,3.45,1.1,.02,.03-1.14,7.92,1.64v-1.49c-1.22-.1-2.06-.27-3.48-.49l-3.97-.51v-1.49h-.95Z"/>
      <path class="cls-1" d="M35.28,88.94c-1.65,.44-6.07,5.5-6.46,6.96,2.41-.26,5.88-4.77,6.46-6.96Z"/>
      <path class="cls-1" d="M33.88,98.84l-.48-1.37,4.36-6.54c-1.76,.47-4.55,4.39-4.97,5.96l-1.97-.21-.21,.48,2.93,2.06,.34-.38Z"/>
      <path class="cls-1" d="M92.41,39.75c2.11-.49,7.44-3.56,7.95-5.47-2.05,.48-7.45,3.6-7.95,5.47Z"/>
      <path class="cls-1" d="M47.7,13.91c.05,2.36,1.12,8.27,2.98,8.94l-1.99-8.94h-.99Z"/>
      <path class="cls-1" d="M42.26,25.91l.97-.57-3.97-7.95c-1.56,0,2.67,7.11,3.01,8.52Z"/>
      <path class="cls-1" d="M50.18,63.1v1.49h2.48v-1.49c0-1.11-.39-1.09-.99-1.99-.77,.52-1.49,.66-1.49,1.99Z"/>
      <path class="cls-1" d="M58.13,110.8h-3.48v1.49h4.97c-.3-1.11-.12-1.49-1.49-1.49Z"/>
      <path class="cls-1" d="M62.11,112.29h3.48c1.37,0,1.19-.38,1.49-1.49h-3.48c-1.17,0-1.46,.34-1.49,1.49Z"/>
      <path class="cls-1" d="M58.13,7.95h-3.48c-1.17,0-1.46,.34-1.49,1.49h3.48c1.37,0,1.19-.38,1.49-1.49Z"/>
      <path class="cls-1" d="M12.42,80.99c.43,1.84,1.13,3.98,2.98,4.47l-1.49-4.47h-1.49Z"/>
      <rect x="78.5" y="61.61" width="1.99" height="2.98"/>
      <path class="cls-1" d="M105.33,83.47c0,1.12-.19-.23,.5,.99,1.26-.92,2.32-2.95,2.48-4.97-1.3,.35-2.98,3.9-2.98,3.97Z"/>
      <path class="cls-1" d="M14.91,36.77c0-1.12,.19,.23-.5-.99-1.26,.92-2.32,2.95-2.48,4.97,1.3-.35,2.98-3.9,2.98-3.97Z"/>
      <path class="cls-1" d="M76.98,108.23c1.3,1.82,2.26,.23,5-.41l-.09-1.25-4.91,1.66Z"/>
      <path class="cls-1" d="M32.79,103.84v.99l3.89,1.9,.58-.41c-.96-1.43-2.26-2.3-4.47-2.48Z"/>
      <path class="cls-1" d="M96.39,96.39l.5,.5c1.39-.93,2.99-2.14,3.48-3.97-2,.17-3.1,2.17-3.97,3.48Z"/>
      <polygon class="cls-1" points="11.92 43.23 10.63 43.28 9.44 47.7 10.74 47.65 11.92 43.23"/>
      <path class="cls-1" d="M23.77,23.93l-.41-.58c-1.39,.93-2.99,2.14-3.48,3.97,2-.17,3.1-2.17,3.89-3.4Z"/>
      <path class="cls-1" d="M43.23,11.92c-1.27-1.73-2.23-.14-4.97,.5l.09,1.25,4.88-1.75Z"/>
      <path class="cls-1" d="M110.3,46.7c0-3.39-.77-2.31-.99-4.97l-1.17,.05,1.26,4.9,.91,.02Z"/>
      <path class="cls-1" d="M46.7,109.8c.74,1.01,1.14,1.49,2.98,1.49h1.99v-.99c-1.55-.13-1.76-.5-3.48-.5h-1.49Z"/>
      <path class="cls-1" d="M35.77,14.41c-1.99,.17-3.58,1.27-4.47,2.48,0,0,.93,.5,.99,.5,.36,0,3.13-1.67,3.48-2.98Z"/>
      <path class="cls-1" d="M83.51,13.44l-.58,.94c1.35,.72,2.9,1.88,4.51,2.01-.52-1.94-2.21-2.05-3.93-2.95Z"/>
      <path class="cls-1" d="M70.06,111.3c2.32-.05,3.98-.14,4.42-2.18l-4.42,1.18v1Z"/>
      <path class="cls-1" d="M90.92,101.85c1.5-.4,3.55-1.89,3.97-3.48-2.15,.18-3.49,1.67-3.97,3.48Z"/>
      <path class="cls-1" d="M29.31,18.38c-1.5,.4-3.55,1.89-3.97,3.48,2.15-.18,3.49-1.67,3.97-3.48Z"/>
      <path class="cls-1" d="M16.4,87.45c.28,3.32,1.32,1.99,1.99,4.47h.99c-.18-2.13-1.61-3.55-2.98-4.47Z"/>
      <path class="cls-1" d="M107.82,39.25c-.43-1.84-1.13-3.98-2.98-4.47,.43,1.84,1.13,3.98,2.98,4.47Z"/>
      <polygon class="cls-1" points="39.75 107.32 39.75 108.31 44.22 109.8 44.19 108.43 39.75 107.32"/>
      <path class="cls-1" d="M18.8,29.89l-.71-.77-2.97,4.48c2.25-.34,2.86-2.1,3.67-3.71Z"/>
      <path class="cls-1" d="M84.47,105.83c1.92-.16,3.76-1.03,3.97-2.98-1.55,.41-3.55,1.39-3.97,2.98Z"/>
      <path class="cls-1" d="M20.87,93.91c.48,1.81,1.83,3.3,3.97,3.48-.86-1.29-2.05-3.27-3.97-3.48Z"/>
      <path class="cls-1" d="M99.37,26.33c-.49-1.83-2.09-3.04-3.4-3.89l-.5,.5c.85,1.31,2.06,2.91,3.89,3.4Z"/>
      <polygon class="cls-1" points="50.18 9.94 50.13 8.75 45.71 9.93 45.74 11.04 50.18 9.94"/>
      <path class="cls-1" d="M93.91,20.87l-.15-.79-3.74-2.6-.5,.5c.7,1.08,2.58,2.75,4.39,2.9Z"/>
      <path class="cls-1" d="M103.84,32.79c-.17-2.05-1.24-4.01-2.98-4.47,.15,1.81,1.82,3.69,2.98,4.47Z"/>
      <rect x="60.62" y="7.95" width="4.97" height=".99"/>
      <path class="cls-1" d="M80.49,12.92l-.03-.91-4.44-1.57c.5,1.88,2.29,2.3,4.47,2.48Z"/>
      <polygon class="cls-1" points="73.53 9.47 68.57 8.94 68.57 9.94 73.53 10.43 73.53 9.47"/>
      <path class="cls-1" d="M101.36,90.43l.79,.69,2.69-4.67c-1.97,.53-2.58,2.28-3.48,3.97Z"/>
      <path class="cls-1" d="M26.33,99.37c1.07,1.6,1.99,2.77,4.47,2.98-.92-1.37-2.34-2.8-4.47-2.98Z"/>
    </g>
  </g>
</svg>