<?xml version="1.0" encoding="UTF-8"?>
<svg id="_图层_2" data-name="图层 2" xmlns="http://www.w3.org/2000/svg" viewBox="0 0 175.15 46">
  <defs>
    <style>
      
    </style>
  </defs>
  <g id="_图层_2-2" data-name=" 图层 2">
    <g>
      <path class="cls-1" d="M174.9,11.95c-.73-.97-1.72-1.74-2.61-2.59-.54,.61-1.16,1.18-1.61,1.85-2.85,4.24-5.66,8.5-8.5,12.74-.12,.17-.47,.19-1,.39,.2-.96,.29-1.64,.48-2.29,.94-3.21,1.91-6.4,2.85-9.61,.49-1.69-.62-2.46-1.93-2.94-1.37-.5-1.93,.32-2.28,1.54-1.03,3.58-2.02,7.17-3.25,10.69-.42,1.2-1.5,2.18-2.28,3.26-.25-.15-.51-.29-.76-.44,.18-.8,.28-1.63,.56-2.4,.92-2.48,1.88-4.94,2.86-7.4,.58-1.46,.92-2.84-.64-3.95-1.77-1.26-2.32,.51-3.2,.96-2.12-.63-4.97-1.93-6.24-1.03-4.08,2.9-7.34,6.81-7.33,12.29,0,1.71-.66,2.17-2.26,2.25,0-.55-.11-1.03,.02-1.43,1.4-4.69,2.83-9.37,4.25-14.05,.54-1.78,1.14-3.55,1.65-5.35,.47-1.65-.51-2.5-1.89-2.96-1.53-.52-1.59,.82-1.91,1.7-1.15,3.12-2.25,6.26-3.41,9.48-.97-.53-1.78-.97-2.58-1.43-1.6-.91-3.11-.91-4.47,.45-2.81,2.82-4.71,6.1-5.53,10.06-.23,1.14-1.13,2.15-1.72,3.22l-1.03-.51c1.29-3.54,2.54-7.09,3.9-10.61,1.15-2.99,.75-3.76-2.52-4.32-1.64,1.65-1.35,4.66-4.31,6.21,.57-1.47,.9-2.32,1.22-3.18,.53-1.4,.76-2.79-.77-3.72-1.53-.93-2.83-.35-3.94,.85-.99,1.06-1.97,2.12-2.56,2.76-1.02-1.01-1.79-1.94-2.75-2.62-.22-.16-1.34,.43-1.56,.89-1.79,3.88-3.52,7.79-5.16,11.73-.72,1.73-.11,3.18,1.39,4.29,1.14,.84,2.03,1.02,2.75-.53,.88-1.9,1.83-3.78,2.85-5.61,1.29-2.31,2.67-4.57,4.01-6.85-.31,5.12,1.71,6.27,4.76,5.7-.9,2.72-1.52,5.34,1.34,7.34,2.04,1.42,3.61,.53,5.02-.85,4.88,3.56,6.19-1.64,8.88-3.54,.21,.63,.35,1.08,.51,1.51,1.2,3.23,3.43,4.14,6.52,2.74,.39-.18,1.01-.16,1.41,.01,2.14,.93,3.9,.7,5.23-1.4,.73-1.14,1.59-2.2,2.53-3.47,1.71,5.98,4.08,6.95,7.6,3.44,3,3.27,3.16,3.25,9.02-2.15-1.54,5.04-2.79,9.49-4.25,13.87-1.47,4.39-3.95,5.45-8.12,3.27-2.86-1.5-5.45-3.52-8.16-5.31-.14,.12-.28,.23-.42,.35,3.13,2.85,6.04,6,9.44,8.47,4.96,3.62,8.41,2.64,10.53-3.07,3.3-8.88,6.15-17.93,9.17-26.92,.19-.58,.47-1.44,.2-1.8Zm-47.56,12.96c-.48-4.64,5-11.98,8.43-11.51-.4,2.91-5.55,10.05-8.43,11.51Zm24.16-9.98c-1.8,2.81-3.67,5.58-5.57,8.32-.63,.91-1.45,1.7-2.19,2.54-.28-.11-.56-.22-.85-.33,.3-1.49,.21-3.22,.97-4.42,1.72-2.72,3.79-5.24,5.87-7.71,.38-.45,1.47-.29,2.23-.41-.15,.68-.13,1.46-.48,2.01Z"/>
      <path class="cls-1" d="M71.01,25.17c.22-.77,.25-1.68,.69-2.29,2.41-3.35,3.91-7.06,4.37-11.14,.18-1.6-.68-2.74-2.27-3.42-1.58-.67-2.53,.09-3.41,1.15-.88,1.07-1.7,2.19-2.55,3.29-.17-.54-.07-.91,.03-1.27,.79-2.76,1.63-5.51,2.37-8.28,.43-1.62-.52-2.48-1.93-2.95-1.75-.58-1.71,.96-1.99,1.86-1.83,5.78-3.63,11.56-5.32,17.38-.92,3.15-3.18,4.92-5.97,6.07-2.66,1.09-4.01,0-3.51-2.81,.67-3.81,2.75-6.88,5.74-9.32,.48-.39,1.13-.57,2.21-1.1-.35,1.71-.57,2.83-.8,3.95,.27,.14,.54,.27,.81,.41,.64-.99,1.66-1.93,1.8-2.99,.13-.93-.48-2.64-1.16-2.88-1.57-.55-3.8-1.13-5.01-.42-4.01,2.35-6.23,6.3-6.84,10.85-.27,1.96-1.14,2.76-3.04,3.67,.24-1.21,.3-2.06,.58-2.83,.91-2.48,1.89-4.94,2.89-7.38,.61-1.48,.87-2.87-.67-3.94-1.72-1.2-2.38,.36-3.17,1.45-.44-.31-.75-.54-1.08-.74-3.07-1.89-5-1.77-7.32,.95-1.74,2.05-3.4,4.3-4.53,6.72-.68,1.46-.82,3.65-.22,5.11,.7,1.71,.49,2.84-.39,4.2-1.57,2.42-3.07,4.88-4.6,7.33l-.73-.28c.04-.8-.02-1.62,.15-2.4,.58-2.65,1.05-5.35,1.91-7.92,2.04-6.11,4.18-12.2,6.48-18.22,.76-1.99,.37-3.1-1.46-3.89-2.23-.97-2.3,1.05-2.7,2.16-2.4,6.73-4.81,13.46-6.92,20.28-.86,2.78-1.16,5.77-1.38,8.7-.16,2.11,1.26,3.49,3.24,4.03,1.83,.49,3-.74,3.77-2.12,1.65-2.95,3.14-6,4.79-9.18,4.23,1.68,4.92-2.87,7.18-4.98,2.6,6.34,4.29,6.87,7.56,3.11,2.01,.91,3.82,2.29,5.7,2.41,1.89,.12,3.85-1.03,5.21-1.45,1.91,.42,3.85,1.48,4.91,.91,1.22-.66,1.65-2.77,2.51-4.43,.76,1.2,1.33,2.21,2,3.15,1.08,1.5,2.52,2.33,4.42,1.92,2.19-.47,5.44-5.03,5.33-7.74-1.92,1.71-3.63,3.34-5.48,4.8-.53,.42-1.45,.34-2.19,.49Zm-28.36-10.08c-1.75,2.75-3.6,5.44-5.46,8.11-.64,.91-1.43,1.72-2.15,2.58-.26-.11-.51-.22-.77-.32,.05-.96-.13-2.01,.17-2.88,1.28-3.66,3.38-6.81,6.46-9.21,.54-.43,1.5-.33,2.26-.47-.16,.74-.13,1.6-.52,2.19Zm25.85,5.55c-.31-.15-.63-.3-.94-.45,1.27-2.6,2.54-5.2,3.82-7.79,.26,.12,.52,.24,.77,.37l-3.65,7.88Z"/>
      <path class="cls-1" d="M20.97,20.53c-1.02-1.14-2.34-2.02-3.6-3.09,.94-.62,1.95-1.2,2.87-1.9,1.79-1.36,3.67-2.64,5.24-4.23,2.32-2.36,2.07-4.28-.23-6.65-1.89-1.95-4.16-1.77-6.5-1.58-1.64,.13-3.29,.24-4.83,.35-1.02,.73-2,1.58-3.11,2.19C6.51,8,2.75,10.92,.63,15.52c-1.07,2.32-.37,4.05,2.07,5.04,.73-4.25,3.64-6.68,6.48-9.18-.84,2.54-1.9,4.95-2.9,7.37-1.6,3.86-3.56,7.71-.68,11.92-1.03,.33-1.81,.58-2.58,.83,.8,2.52,2.14,3.48,4.13,2.41,4.57-2.47,9.07-5.09,13.41-7.95,2.11-1.39,2.12-3.53,.41-5.43Zm-5.41-10.62l8.91-3.15c-2.3,4.62-6.95,6.12-11.15,8.23,.75-1.69,1.48-3.39,2.24-5.08Zm-6.71,19.26c-.6-4.2,.36-6.04,3.84-7.12,2.08-.65,4.27-.94,6.41-1.39,.19,.43,.39,.87,.58,1.3-2.81,3.45-6.99,4.96-10.83,7.21Z"/>
      <path class="cls-1" d="M99.92,14.23c-1.81,.81-3.69,1.46-5.72,2.25,1.05-4.14,2.75-7.07,7.27-7.73,4.52-.66,8.96-1.9,13.44-2.84,1.41-.3,2.05-1.01,1.7-2.46-.33-1.34-1.16-1.65-2.46-1.36-4.47,1-8.94,1.99-13.43,2.88-4.73,.93-8.82,3.15-12.6,6.03-2.19,1.67-2.22,3.72-.21,5.55,.77-.88,1.55-1.77,2.33-2.67-.37,3.18-1.42,5.72-4.53,6.86-.76,.28-1.2,1.45-1.79,2.21,.9,.54,1.8,1.08,2.88,1.72-1.1,6.19-.03,8.71,3.66,7.67-1.56-3.44,.08-6.54,1.2-9.63,.42-1.15,1.49-2.37,2.58-2.9,3.09-1.5,6.35-2.66,9.6-3.97-.82-1.87-2-2.47-3.91-1.61Z"/>
      <path class="cls-1" d="M125.43,7.84c1.16,.34,3.64-2.17,3.27-3.55-.24-.92-1.52-2.15-2.39-2.2-2.46-.13-1.72,2.4-2.9,4.06,.7,.61,1.26,1.47,2.02,1.69Z"/>
    </g>
  </g>
</svg>