<?xml version="1.0" encoding="UTF-8"?>
<svg id="_图层_2" data-name="图层 2" xmlns="http://www.w3.org/2000/svg" viewBox="0 0 81.62 57.48">
  <g id="_图层_2-2" data-name=" 图层 2">
    <g>
      <path d="M72.71,26.52c-.26,1.02-.5,1.99-.76,3.02-.02,.07,.03,.15,.1,.16,1.19,.18,2.36,.36,3.61,.55,.07,0,.13-.03,.15-.09,.78-2.97,1.57-5.92,2.31-8.88,.22-.9,.27-1.85,.06-2.75-.6-2.56-2.32-4.06-4.92-4.74-6.28-1.65-12.56-3.32-18.83-5C43.77,5.94,33.13,3.05,22.48,.22c-3.42-.91-6.95,1.11-7.88,4.52-1.32,4.82-2.6,9.64-3.89,14.46-.34,1.25-.66,2.5-1,3.79-.02,.08,.04,.16,.12,.16h3.74c.06,0,.11-.04,.12-.1,1.04-3.86,2.07-7.69,3.09-11.51,.02-.06,.07-.1,.13-.09,4.74,.39,8.04-1.57,9.97-5.9,.02-.06,.09-.09,.15-.07,13.28,3.56,26.54,7.11,39.83,10.67,.06,.02,.1,.07,.09,.14-.48,4.72,1.41,8.09,5.67,10.1,.05,.03,.08,.09,.07,.14Z"/>
      <path d="M42.86,12.66c-7.81,.02-13.98,6.49-13.49,14.39,.48,7.84,8.02,13.73,15.76,12.4,6.78-1.16,11.34-7.07,11.23-13.73-.12-7.09-6.22-13.08-13.51-13.07Zm5.07,10.71c-.03,.06-.1,.08-.17,.05-1.12-.5-2.17-1.01-3.25-1.43-.37-.15-.85-.16-1.25-.08-.68,.12-.91,.72-.45,1.24,.47,.53,1.05,.97,1.61,1.43,.58,.47,1.22,.88,1.79,1.37,1.32,1.12,1.82,2.54,1.33,4.23-.5,1.71-1.69,2.68-3.4,3.03-.6,.13-1.23,.16-1.94,.25-.2,.69-.41,1.37-.64,2.16-.85-.23-1.65-.45-2.52-.68,.16-.69,.31-1.34,.46-1.96-1.21-.68-2.36-1.32-3.59-2.01-.06-.03-.08-.12-.05-.18,.53-.97,.99-1.83,1.4-2.59,.03-.06,.11-.08,.17-.05,1.28,.62,2.47,1.27,3.72,1.76,.69,.27,1.66,.54,2.09-.4,.43-.94-.49-1.37-1.07-1.85-1.43-1.18-3.21-2.05-3.82-3.94-.41-1.27,0-2.69,.95-3.63,1.26-1.25,2.53-1.24,4.18-1.57,.15-.5,.33-1.13,.55-1.87,.84,.22,1.64,.44,2.54,.67-.15,.61-.29,1.17-.44,1.76,1,.52,2.02,1.04,3.11,1.6,.06,.03,.09,.12,.06,.18-.51,.94-.96,1.76-1.36,2.5Z"/>
      <path d="M3.94,36.53c2.69,1.21,5.57,1.6,8.5,1.6l.05,.26c2.34-.41,4.7-.72,7.01-1.25,1.79-.41,3.46-1.23,4.73-2.67,1.15-1.3,.91-3.31-.39-4.45-.81-.71-1.75-1.33-2.73-1.73-5.17-2.09-10.46-2.05-15.76-.55-1.72,.49-3.34,1.28-4.55,2.69-1,1.16-.92,3.12,.2,4.16,.85,.79,1.88,1.46,2.94,1.94Z"/>
      <path d="M64.88,33.5c-2.19,.32-4.29,.93-6.16,2.15-2.58,1.69-2.53,4.83,.08,6.48,3.11,1.96,6.62,2.3,10.18,2.46,2.61,.03,5.19-.26,7.61-1.2,1.36-.53,2.69-1.29,3.82-2.22,1.41-1.15,1.48-3.25,.14-4.5-.88-.82-1.95-1.53-3.05-1.99-4.07-1.69-8.32-1.82-12.63-1.19Z"/>
      <path d="M28.78,42.83c7.99,2.14,15.95,4.27,23.97,6.42,.08,.02,.16-.04,.16-.12v-3.77c0-.06-.04-.11-.1-.12-8.01-2.14-15.97-4.27-23.97-6.41-.08-.02-.16,.04-.16,.12v3.76c0,.06,.04,.11,.1,.12Z"/>
      <path d="M12.55,40.52c-4.41,0-8.64-.73-12.37-3.27-.56,2.3,.38,3.87,2.27,4.97,.42,.25,.86,.48,1.3,.68,2.23,1.01,4.61,1.38,7.03,1.56,3.85,.29,7.58-.15,11.09-1.82,2.22-1.06,3.71-2.62,3.09-5.43-3.77,2.58-8,3.32-12.42,3.32Z"/>
      <path d="M12.57,46.98c-4.43,0-8.67-.75-12.4-3.28-.63,2.77,.84,4.29,3.01,5.38,.35,.18,.71,.34,1.08,.48,3.78,1.48,7.71,1.73,11.69,1.23,2.51-.31,4.93-.94,7.09-2.37,1.73-1.14,2.35-2.7,1.95-4.78-3.77,2.58-7.99,3.34-12.41,3.33Z"/>
      <path d="M59.67,49.07c.29,.15,.59,.29,.89,.42,3.02,1.22,6.19,1.62,9.42,1.51,3.03-.11,5.99-.61,8.71-2.05,2.47-1.3,3.13-2.55,2.8-5.07-8.3,4.26-16.57,4.29-24.87-.04-.57,2.6,.89,4.12,3.06,5.23Z"/>
      <path d="M56.6,50.3c-.43,1.98,.33,3.57,2.13,4.69,.5,.31,1.01,.66,1.56,.82,1.84,.53,3.68,1.19,5.57,1.43,4.31,.54,8.57,.25,12.56-1.7,2.18-1.06,3.66-2.58,3.05-5.21-8.31,4.3-16.58,4.3-24.87-.03Z"/>
      <path d="M.13,50.33c-.58,2.6,.87,4.12,3.05,5.21,.03,.01,.06,.03,.09,.04,3.98,1.88,8.19,2.13,12.48,1.69,2.36-.24,4.63-.83,6.71-2.03,2.24-1.29,2.87-2.57,2.55-4.94-8.28,4.32-16.55,4.31-24.88,.03Z"/>
    </g>
  </g>
</svg>