<?xml version="1.0" encoding="UTF-8"?>
<svg id="_图层_2" data-name="图层 2" xmlns="http://www.w3.org/2000/svg" viewBox="0 0 128.89 81.74">
  <defs>
    <style>
     
    </style>
  </defs>
  <g id="_图层_2-2" data-name=" 图层 2">
    <g>
      <path class="cls-1" d="M128.18,25.42c-2.72-2.77-5.37-5.6-8.05-8.4-5.24-5.46-10.49-10.92-15.72-16.39-.46-.48-.89-.56-1.54-.44-9.8,1.66-19.61,3.27-29.41,4.92-7.03,1.18-14.05,2.41-21.08,3.59-9.28,1.56-18.56,3.09-27.84,4.64-7.56,1.27-15.11,2.57-22.67,3.82-1.77,.29-1.88,.35-1.59,2.12,1.12,6.75,2.26,13.49,3.38,20.24,1.11,6.65,2.2,13.3,3.32,19.95,.87,5.22,1.75,10.43,2.66,15.64,.13,.73,.02,1.84,.84,1.61,1.89-.32,3.23-.53,4.57-.77,.62-.11,.92-.45,.81-1.13-.12-.71-.57-.82-1.17-.73-.72,.11-1.45,.16-2.15,.35-.9,.25-1.2-.06-1.33-.94-.34-2.35-.77-4.69-1.16-7.03-2.58-15.35-5.16-30.71-7.77-46.05-.19-1.15,.28-1.57,1.33-1.75,9.38-1.56,18.75-3.15,28.12-4.71,12.34-2.06,24.69-4.09,37.03-6.16,10.81-1.81,21.61-3.63,32.4-5.54,1.48-.26,2.4,.01,3.43,1.09,7.12,7.5,14.29,14.95,21.49,22.37,.76,.79,.71,1.38,.29,2.27-3.91,8.35-7.72,16.75-11.69,25.07-.6,1.26-1.25,3.27-2.25,4.23-.63,.6-1.28,.65-2.55,.95-.38,.09-.63,.28-.5,.7,.11,.35,0,1.05,.48,.99,1.1-.13,4-.78,4.42-1.69,4.73-10.21,9.45-20.42,14.21-30.62,.4-.86,.42-1.46-.3-2.18Z"/>
      <path class="cls-1" d="M116.61,33.75c2.66-.02,5.07-2.56,5.1-5.37,.03-2.91-2.34-5.34-5.21-5.36-3.1-.02-5.54,2.46-5.47,5.56,.07,2.91,2.53,5.18,5.58,5.16Zm-.26-8.96c1.9-.05,3.62,1.65,3.63,3.59,.01,1.88-1.61,3.56-3.47,3.6-1.97,.05-3.76-1.72-3.73-3.67,.03-1.88,1.65-3.47,3.57-3.52Z"/>
      <path class="cls-1" d="M31.6,51.7c1.88-.5,3.78-1.33,5.38-2.43,2.25-1.55,3.14-3.93,2.64-6.68-.5-2.72-2.19-4.38-4.84-5.09-.29-.08-.58-.19-.48-.16,.86-1.48,2.04-2.81,2.42-4.34,.83-3.27-1.51-6.18-5.28-6.74-4.65-.69-9.02,.74-13.54,1.95,1.41,8.38,2.79,16.6,4.17,24.85,.63,0,1.13,.06,1.61-.01,2.65-.41,5.34-.67,7.92-1.36Zm1.98-8.11c.18,1.42-.23,2.69-1.53,3.28-1.5,.68-3.14,1.04-4.91,1.6-.44-2.66-.82-4.94-1.27-7.62,1.92,0,3.64-.16,5.31,.05,1.4,.18,2.21,1.24,2.39,2.69Zm-4.82-13.07c1.15,.02,2.04,.75,2.33,1.95,.31,1.28,.01,2.48-1.19,3.07-1.39,.68-2.91,1.09-4.56,1.68-.19-.85-.31-1.27-.38-1.7-.24-1.41-.46-2.82-.75-4.61,1.57-.15,3.06-.42,4.55-.4Z"/>
      <path class="cls-1" d="M93.19,22.39c-.95,.12-1.47,.53-1.85,1.43-.96,2.3-2.03,4.55-3.24,7.22-.94-5.55-1.81-10.66-2.7-15.87-1.96,.34-3.76,.65-5.7,.99,1.5,8.93,2.97,17.72,4.47,26.65,2.02-.35,3.84-.66,5.51-.94,.32-2.69-1.79-5.17,.48-7.69,1.68,2,3.26,3.91,4.88,5.79,.3,.35,.79,.85,1.13,.8,2.13-.28,4.24-.69,6.62-1.1-3.24-3.36-6.27-6.49-9.31-9.64,1.75-2.83,3.44-5.56,5.29-8.54-2.07,.34-3.82,.68-5.58,.91Z"/>
      <path class="cls-1" d="M59.55,28.44c-4.08-.87-7.71,.45-11.19,2.68,.6,1.22,1.13,2.31,1.5,3.07,2.12-.65,4-1.42,5.96-1.78,1.65-.3,2.42,.45,2.7,2.05-.66,.16-1.36,.23-1.98,.5-1.76,.77-3.65,1.38-5.19,2.48-2.47,1.76-3.05,4.88-1.77,7.47,1.25,2.53,3.97,3.81,6.93,2.88,1.61-.5,3.04-1.59,4.6-2.43,.1,.22,.31,.66,.58,1.24,1.72-.3,3.31-.58,4.87-.86-.69-3.95-1.29-7.77-2.05-11.56-.56-2.8-1.98-5.1-4.97-5.74Zm-3.3,15.14c-1.18-.24-1.98-1.5-1.52-2.75,.25-.68,.84-1.38,1.46-1.73,.92-.52,2-.75,3.3-1.21,.13,1.29,.35,2.22,.29,3.13-.1,1.66-1.9,2.9-3.54,2.56Z"/>
      <path class="cls-1" d="M66.29,51.44c.45,2.77,.88,5.41,1.35,8.26-4.9-2.5-10.07,.89-10.24,6.14-.04,1.23,.06,2.51,.37,3.69,.75,2.92,2.37,5.22,5.49,5.87,2.94,.62,5.26-.5,6.9-3.18,.27,.71,.49,1.3,.75,2.01,1.42-.26,2.8-.52,4.16-.77-1.31-7.72-2.59-15.21-3.89-22.85-1.68,.28-3.22,.55-4.88,.83Zm.71,19.72c-1.29,.48-2.41-.21-3.51-1.21-1.76-1.6-1.78-3.67-.86-5.61,.53-1.13,1.87-2,3.11-1.93,1.31,.08,2.28,.84,2.63,2.08,.34,1.18,.54,2.43,.61,3.66,.09,1.42-.6,2.49-1.98,3Z"/>
      <path class="cls-1" d="M99.17,54.53c-.17,3.1-.46,6.2-.72,9.64-.32-.51-.48-.73-.6-.97-1.29-2.63-2.55-5.29-3.89-7.89-.22-.43-.83-.97-1.22-.93-1.52,.13-3.01,.46-4.76,.76,2.77,4.55,5.34,8.86,8.01,13.11,.63,1.01,.68,1.89-.06,2.71-.91,1.02-1.95,1.92-3.07,3.01,.46,1.07,1.01,2.32,1.57,3.63,3.42-1.11,5.4-3.46,6.3-6.61,.96-3.39,1.65-6.86,2.36-10.31,.55-2.7,.96-5.42,1.47-8.32-1.51,.24-2.77,.5-4.05,.63-.99,.1-1.29,.56-1.34,1.53Z"/>
      <path class="cls-1" d="M37.86,66.7c-2.65,.41-5.18,.81-7.81,1.22-.29-1.73-.54-3.27-.81-4.88,2.86-.5,5.52-.97,8.31-1.47-.23-1.41-.44-2.66-.66-4.02-4.51,.76-8.84,1.49-13.31,2.25,1.23,7.32,2.44,14.49,3.66,21.77,1.74-.3,3.28-.57,4.92-.86-.49-3.02-.95-5.83-1.41-8.7,2.69-.47,5.17-.91,7.79-1.37-.23-1.35-.45-2.59-.68-3.94Z"/>
      <path class="cls-1" d="M84.14,55.93c-3.35-.53-6.34,.54-9.17,2.41,.49,1.04,.93,1.96,1.37,2.89,4.68-2.45,6.58-2.48,7.41-.06-.53,.13-1.08,.18-1.55,.4-1.66,.75-3.44,1.35-4.89,2.4-1.89,1.35-2.3,3.96-1.37,6.07,.9,2.04,3.01,3.3,5.39,2.75,1.6-.37,3.06-1.33,4.64-2.06,.04,.07,.24,.45,.48,.91,1.4-.25,2.79-.49,4.17-.74-.63-3.5-1.17-6.83-1.84-10.13-.52-2.53-1.95-4.41-4.63-4.84Zm-1.46,13.05c-.66,.06-1.76-.29-1.96-.76-.29-.66-.07-1.66,.2-2.41,.14-.41,.81-.7,1.3-.9,.67-.27,1.4-.4,2.3-.65,.13,1,.36,1.73,.3,2.45-.1,1.27-.88,2.17-2.13,2.28Z"/>
      <path class="cls-1" d="M67.52,30.07c-2.1,3.9-1.13,9.55,2.12,12.31,3.22,2.73,9.54,2.78,13.15,.05-.44-1.26-.88-2.54-1.33-3.82-5.1,1.82-7.96,.94-8.92-2.67-.41-1.54-.41-3.06,.5-4.45,1.59-2.45,4.17-2.29,6.72-2.31v-4.1c-4.27-1.26-10.17,1.15-12.24,5Z"/>
      <path class="cls-1" d="M38.23,23.09c1.51,9,2.99,17.79,4.49,26.68,2-.35,3.79-.65,5.71-.99-1.5-8.91-2.97-17.69-4.47-26.62-1.95,.32-3.74,.61-5.73,.93Z"/>
      <path class="cls-1" d="M43.97,65.34c-.29-1.06-.49-1.81-.72-2.69-1.37,.23-2.67,.45-4.11,.69,.93,5.37,1.83,10.53,2.74,15.78,1.71-.29,3.21-.55,4.84-.83-.08-.58-.14-1.07-.22-1.54-.35-2.16-.75-4.31-1.05-6.47-.35-2.47,.63-3.75,3.08-4.19,.33-.06,.66-.13,1.06-.21-.26-1.53-.5-2.96-.75-4.41-2.66,.01-3.97,1.51-4.86,3.87Z"/>
      <path class="cls-1" d="M49.85,61.55c.89,5.3,1.75,10.46,2.64,15.77,1.68-.29,3.22-.55,4.93-.84-.91-5.41-1.79-10.56-2.67-15.78-1.76,.31-3.26,.57-4.89,.86Z"/>
      <path class="cls-1" d="M54.18,56.75c.02-1.48-1.02-2.53-2.52-2.53-1.62,0-2.75,1.04-2.72,2.52,.03,1.44,1.01,2.44,2.44,2.47,1.62,.03,2.78-.98,2.8-2.45Z"/>
    </g>
  </g>
</svg>