<?xml version="1.0" encoding="UTF-8"?>
<svg id="_图层_2" data-name="图层 2" xmlns="http://www.w3.org/2000/svg" viewBox="0 0 135.67 107.35">
  <g id="_图层_2-2" data-name=" 图层 2">
    <path d="M134.68,51.27c-.25-.34-.55-.66-.87-.94,.29-1.44,.33-2.95,.25-4.36-.18-3.29-.87-6.45-1.8-9.51,.05,.05,.12,.09,.17,.14-.12-.39-.33-.74-.46-1.13-.53-1.58-1.16-3.09-1.88-4.56-.32-.65-.59-1.32-.94-1.95-1.14-2.03-2.41-3.98-3.9-5.73-4.23-4.97-9.85-8.57-16.11-10.58,.36-1.32,.45-2.68,.12-3.96,.01,0,.02,0,.03,0-.15-.58-.38-1.15-.71-1.67,0,0-.01,0-.02,0-.03-.05-.03-.1-.06-.15-.54-.82-1.31-1.48-2.16-2,0,0,.02,0,.02-.01-.02-.01-.05-.02-.08-.03-.09-.06-.2-.08-.3-.13-.52-.28-1.05-.55-1.62-.73-.05,.03-.11,.04-.16,.07-.32-.1-.61-.29-.94-.35-2.09-.41-4.25-.22-6.35,.15-1.33,.23-2.57,.74-3.86,1.12-.03-.07-.03-.14-.06-.2-.61,.18-1.21,.37-1.8,.58,.03,.05,.03,.1,.06,.15-2.97,1.04-5.83,2.34-8.43,4.07,0-.02,0-.03,0-.05-.11,.07-.21,.15-.31,.22-.07,.05-.14,.1-.21,.15-.4,.27-.8,.54-1.18,.83,0,.06,0,.12,0,.17-3.71,2.79-6.96,6.15-9.27,10.08-.1,.16-.15,.33-.24,.5-9.87-6.33-22.28-9.12-30.66-17.18-1.54-1.47-2.99-3.16-5.03-3.89-1.76-.63-3.83-.42-5.4,.56-1.57,.98-2.6,2.72-2.64,4.51-.04,1.78,.83,3.45,1.3,5.17,.87,3.19,.37,6.59-.66,9.73-1.03,3.14-2.57,6.11-3.85,9.18-.52,1.25-.87,2.57-1.03,3.9-4.5,2.17-8.64,4.81-12.48,8.52-.21,.22-.39,.5-.6,.72-.08,.04-.14,.13-.22,.17-.93,1.03-1.83,2.11-2.7,3.23,.04,0,.07-.02,.11-.03-2.05,2.66-3.77,5.57-5.12,8.64-.06,.02-.12,.06-.18,.08-.32,.74-.62,1.49-.89,2.25,.06,0,.11-.03,.17-.03C.72,59.77,0,62.63,0,65.55c0,1.17,.14,2.38,.4,3.57,0,0,0,0-.01,0,.16,.71,.36,1.4,.62,2.07,.03-.01,.06-.03,.08-.04,.92,2.4,2.47,4.43,4.9,5.32-.02,.01-.04,.03-.06,.04,.12,.04,.23,.09,.35,.13,.81,.25,1.64,.33,2.48,.31,.07,0,.14,.03,.22,.03,.02-.02,.03-.04,.05-.05,.79-.04,1.58-.18,2.36-.4,.15,.25,.31,.45,.47,.69,.82,1.29,1.63,2.67,2.47,3.84,.03-.02,.05-.05,.08-.07,10.74,14.84,22.98,19.59,37.46,22.07,1.01,.17,1.97,.64,3,.85,.59,.78,1.52,1.47,2.27,2.09,1,.82,2.3,1.61,3.74,1.29,.96-.21,1.77-.91,2.23-1.7s.6-1.66,.63-2.5c.02-.49-.01-.99-.1-1.47,1.37-1.14,2.54-2.53,3.55-3.91,2.33-3.2,4.09-6.63,5.55-10.14,.01,.08,.04,.16,.05,.25,.19-.45,.25-.92,.42-1.38,.7-1.83,1.26-3.68,1.71-5.55,.2-.83,.45-1.65,.6-2.49,.48-2.68,.77-5.37,.71-8.04-.08-3.51-.8-6.92-1.82-10.23,.32,.23,.63,.48,.97,.68,.01-.02,.02-.05,.03-.07,1.92,1.15,4.06,1.75,6.17,1.15,0,.02,0,.04-.02,.05,.1-.03,.2-.05,.31-.08,.74-.25,1.4-.63,1.99-1.1,.02-.09,0-.19,.02-.28,.46-.39,.91-.74,1.28-1.23,.26,.1,.49,.16,.74,.25,1.25,.46,2.55,.99,3.74,1.35,0-.03,0-.06,.01-.09,15.26,4.64,26.03,1.8,37.07-3.67,.77-.38,1.67-.54,2.47-.91,.82,.23,1.82,.24,2.66,.28,1.12,.06,2.41-.06,3.2-.98,.53-.62,.69-1.48,.57-2.23-.12-.75-.5-1.4-.94-1.98ZM40.69,21.79c2.99-1.19,6.42-.62,9.55,.16,6.24,1.55,12.21,3.99,17.83,7.01-.57,1.6-.93,3.32-1.28,5.06-.76-.46-1.52-.92-2.32-1.31-1.42-.69-2.97-1.07-4.46-1.6,.02-.08,.07-.15,.09-.23-.7-.25-1.41-.48-2.13-.7-.01,.06-.05,.12-.06,.18-3.57-1.08-7.23-1.83-10.98-2,0-.02,.02-.03,.03-.05-.15,0-.3,0-.45,0-.11,0-.21,0-.32,0-.58-.02-1.16-.04-1.74-.03-.04,.06-.09,.11-.13,.16-3.49,.04-6.93,.52-10.31,1.34,.4-1.11,.87-2.19,1.47-3.22,1.19-2.04,2.94-3.85,5.2-4.75Z"/>
  </g>
</svg>