<?xml version="1.0" encoding="UTF-8"?>
<svg id="_图层_2" data-name="图层 2" xmlns="http://www.w3.org/2000/svg" viewBox="0 0 125.1 132.06">
  <defs>
    <style>
      .cls-1 {
        fill-rule: evenodd;
      }
    </style>
  </defs>
  <g id="_图层_2-2" data-name=" 图层 2">
    <g>
      <path class="cls-1" d="M2.68,62.81c3.27,0,5.81-1.61,9.66-1.61,7.58,0,9.11,8.34,9.66,15.03l3.76,5.91c3.55,2.6,4.35,6,10.4,8.38,2.79,1.1,11.98,3.43,15.36,3.43h16.64c6.07,0,13.58-1.52,18.68-2.79,3.08-.77,5.49-1.43,8.24-2.5,3.54-1.38,4.52-3.82,6.9-4.37,2.63-3.59,5.37-2.08,5.37-9.66-6.86-7.89-12.8-10.16-20.08-20.19-3.69-5.08-4.77-6.38-10.42-9.44-2.92-1.58-11.17-5.27-15.13-5.27-9.62,0-22.07,7.52-25.77,7.52h-2.15c-9.53,0-5.94-10.74-12.88-10.74h-1.07c-1.52,0-3.22,2.24-3.22,3.76,0,1.23,.18,.62,.54,2.15-1.43,.38-3.22,1.51-3.22,3.22v.54c0,5.66,9.49,2.15,13.42,7.52-1.87,.44-1.81,1.07-3.76,1.07H15.57c-6.31,0-7.08-5.37-9.66-5.37h-.54c-2.17,0-3.76,1.17-3.76,3.22,0,1.64,.52,2.17,1.07,3.22-1,1.49-2.15,1.86-2.15,4.29,0,1.11,1.57,2.68,2.15,2.68Zm18.79,2.68l2.15,2.15c-2.65-.71-1.32-.58-2.15-2.15Zm2.54-16.41l2.59-2.08-.42-.59-5.17,2.1,1.76-2.71-5.95,2.38-.23-.5,4.52-2.23-.3-.72-5.18,1.67-.42-.75,3.83-2.58-.27-4.43c.65-.25,1.84-.54,2.68-.54,3.05,0,2.63,10.54,11.27,10.74l-4.69,2.96-4.05-2.73Zm-6.22,8.63l3.68-1.34c7.08,0,19.5-2.07,23.76-1.21,6.67,1.35,12.21,6.13,12.21,13.56v1.61c0,5.86-8.29,7.68-8.59,11.27,5.66-.47,12.88-8.53,12.88-15.57v-.54c0-2.39-2.2-5.46-3.27-7.03l3.61-3.34-.51-.63-4.62,3.01-.39-.5,4.11-2.78-.14-1.36-4.16,1.9,.97-2.34-4.77,2.3,2.55-2.86-.39-.38-5.3,2.25,2.97-2.93-.38-.43-5.85,2.79,1.94-2.42-.43-.43-5.27,2.85c3.02-4.51-2.26-.47-4.3,0l1.02-2.26-4.77,2.26-.07-1.22-5.3,2.3c2.8-3.82,24.21-12.35,32.21-12.35,14.32,0,25.23,13.19,31.14,22.01,1.25,.84,12.88,10.74,12.88,11.81v1.07c0,2.57-1.71,4.28-3.34,4.66l-2.49-5.99-.63,.25,.44-2.87-2.06,1.27-.51-1.62h1.61l-.05-1.72-3.18,1.18,1.06-2.2-3.81,1.05,2.51-2.29-.46-.61-3.76,1.75,2.32-3.06h-1.07l-2.86,1.46,2.02-2.33-.33-.42-3.13,1.29,1.05-2.25-2.45,.41-4.63-3.99-.4,.47c1.98,7.43,18.25,13.68,18.25,19.33v.54c0,8.21-25.65,11.27-35.43,11.27h-5.37l-.07-1.31-3.75,1.29,.53-2.27-4.12,1.81,.9-2.35-4.27,1.71,2.55-2.86-.42-.43-5.9,2.73,2.72-3.21-6.46,2.67,3.46-2.33-.26-.56-6.28,1.68-.19-.56,2.25-.84v-1.07c-3.38,0-3.29,1.07-4.83,1.07-.79,0-.79-.66-.98-.86l3.66-2.36c-2.83,.06-3.16,1.07-5.37,1.07-.79,0-.79-.66-.92-.74l3.9-1.85-.32-.73-5.34,1.17v-1.07h2.15v-1.07l-3.84-.28,3.3-.79v-1.61c-1.2,.28-1.23,.54-2.68,.54h-1.07c-1.51,0-.99-.23-1.61-1.07h3.76v-1.07h-2.15c-2.36,0-2.43-.64-3.21-2.19l4.27,1.15,.33-.64-5.15-3.16h2.68l-.22-.7-3.03-2.34,2.94,.75,9.43,7.12,4.83,.54h2.15c3.9,0,7.97-2.68,7.93-6.64l-4.04,1.92-2.74,2.58-.11-2.2-3.31,3.16-.48-.49,2.55-2.87-.55-.59-2.99,1.91,2.41-3.01-.39-.41-3.09,1.8-2.23,1.55,1.15-1.55h1.07l.54-1.61h-1.61c-1.04,1.56-1.11,1.66-3.35,1.98l2.27-1.98h1.07l-.17-1.41-4.84,2.33,2.71-3.29-.48-.47-4.37,2.13,2.68-2.68-.47-.56-3.9,1.56,2.64-2.75-.35-.43-3.59,1.93-.35-.44,2.51-2.29-.24-.51-3.82,1.22,2.37-2.41h-2.15l-1.61,1.07c.64-1.76-.7-.39,1.61-1.61h-3.22l1.59-2.21-3.82,1.04,1.63-2.24-3.83,1.2,1.29-2.35Zm38.57,2.95v-1.07c1.81,1.21,3.76,4.03,3.76,6.98,0,1.98-.27,2.61-1.07,3.76v-2.68c0-2.63-1.16-5.86-2.68-6.98Zm-53.69-1.07c0-2.04,2.07-2.29,3.76-2.68v-1.61c-1.53-.36-3.22-.83-3.22-2.68,0-.65,1.11-1.61,2.15-1.61,2.64,0,2.31,5.37,9.13,5.37h1.61c-.57,2.44-.58,3.16-3.22,3.22l.6-2.13-2.73,1.62-.02-1.64h-1.07l-1.4,2.31-.21-1.77h-1.07c-.6,2.57-1.43,2.98-4.29,3.22v-1.61Z"/>
      <path class="cls-1" d="M67.64,81.06c0,3.5-4.22,5.46-.69,6.36l2.3-4.21c.14-1.68,.54-1.91,.54-3.76v-2.68c0-2.94-2.68-4.58-2.68-7.52v-1.07c0-1.7,1.32-1.83,2.65-2.16l-.41,1.81,3.73-1.77-1.02,3.38,3.23-1.73-1.17,2.72,3.25-1.15-.97,3.42,2.62-1.82-.57,2.8,2.75-1.14-1.04,2.84,2.57-1.82-.49,2.37,2.49-1.07,1.15,.3c-1.12,1.53-5.06,2.68-7.52,2.68-3.66,0-3.13-3.59-4.83-4.83-.48,.27-1.07,.35-1.07,1.07,0,4.64,7.24,5.33,4.83,9.13l1.61,1.61c.28-1.2,.54-1.23,.54-2.68s-.26-1.48-.4-2.29l11.14-3.61c-.26-3.13-1.95-1.86-4.85-3.21-1.27-.59-3.78-2.23-4.92-3.13-2.42-1.92-6.28-6.01-10.1-6.01-2.39,0-5.37,1.94-5.37,4.29,0,4.72,2.68,4.62,2.68,9.13v3.76Z"/>
      <path class="cls-1" d="M58.52,15.57l1.37-.18,1.85-1.96c.32,1.22,.52,2.15,2.15,2.15l1.47-.06,1.22-2.62c.65-.97,1.07-.94,1.07-2.15V0h-2.15V10.2c0,1.75-.47,.41-1.07,2.68-3.39-.91-2.15-8.22-2.15-12.35l-2.15-.54V9.66c0,1.95-.64,1.88-1.26,3.89l-1.96-2.82c0-4.1,1.34-10.45-2.15-10.74V9.66c0,1.84,1.87,5.91,3.76,5.91Z"/>
      <path class="cls-1" d="M24.84,30.77l3.61-3.92c0-2.41-.29-3.64-1.73-4.71-3.82-2.85-.94,.63-3.1-3.88-1.2-.8-1.89-2.15-3.22-2.15h-1.61c-.94,0-3.76,1.92-3.76,2.68,0,1.54,8.22,10.84,9.81,11.98Zm-7.13-11.44c0-.65,1.11-1.61,2.15-1.61,.58,0,2.15,1.57,2.15,2.68v1.61l-1.62,.51c-.67-.43-2.67-2.59-2.67-3.19Zm4.29,5.37c0-.46,1.15-1.61,1.61-1.61,1.16,0,3.22,2.16,3.22,2.68,0,1.1-1.66,1.87-2.68,2.15-.58-2.19-2.15-2.36-2.15-3.22Z"/>
      <path class="cls-1" d="M104.15,98.24c-2.43,.05-5.37,1.59-5.37,3.76,0,1.52,10.55,10.2,10.74,10.2,1.6,0,3.76-3.52,3.76-4.83,0-1.8-1.82-3.01-2.68-4.29l-6.44-4.83Zm5.37,11.27l-8.35-7.25-.24-.8c2.11-.62,1.11-1.07,2.68-1.07,.66,0,7.52,5.99,7.52,7.52,0,.74-1.12,1.28-1.61,1.61Z"/>
      <path class="cls-1" d="M105.76,93.95c0,1.45,.26,1.48,.54,2.68l6.98,4.29,4.22,2.08,1.15-1.55c-.96-.51-5.37-2.78-5.37-3.76,0-1.44,.77-1.59,1.61-2.15,1.01,.53,4.5,2.68,5.37,2.68,.98,0,.86-.82,1.07-1.61-2.7-.72-10.37-6.44-11.81-6.44-2.51,0-3.76,1.25-3.76,3.76Zm5.76,2.62c-1.45-.07-4.15-1.27-4.15-2.62,0-.46,1.15-1.61,1.61-1.61,1.56,0,1.96,1.13,3.76,1.61l-1.22,2.62Z"/>
      <path class="cls-1" d="M24.7,99.32c-.8-1.5-.86-2.15-3.22-2.15h-1.07c-1.33,0-10.2,7.63-10.2,8.05,0,3.55,4.9-1.39,5.71-2.98l2.24,2.87-5.09,4.54,.46,.82,3.12-.96,8.05-7.52v-2.68Zm-5.1,4.6l-1.88-2.99c2.6-.69,1.79-2.15,3.76-2.15,.74,0,1.28,1.12,1.61,1.61l-3.49,3.53Z"/>
      <path class="cls-1" d="M6.7,101.39l14-7.89-2.45-1.17-4.7,2.92c-.63-2.09-1.21-1.66-1.21-2.39,0-1.12,2.86-2.21,3.76-2.68l1.73-.57-.65-2.12-6.44,3.22-7.1,3.79,.74,2.27,6.24-3.33,1.18,3.17c-2.29,.53-5.15,1.63-5.11,4.76Z"/>
      <path class="cls-1" d="M96.6,112.16l-1.05,.58-1.34,2.57,2.44-.33c.43,.76,1.59,2.33,1.59,3.13v1.61h-1.61c-1.38,0-5.91-7.14-5.91-8.05,0-1.24,.37-1.61,1.61-1.61,2.27,0,.28,.74,2.68,1.61l1.07-.54c-.38-1.43-1.51-3.22-3.22-3.22h-.54c-1.45,0-1.48,.26-2.68,.54-.56,1.05-1.07,1.58-1.07,3.22,0,1.97,5.5,9.21,6.98,10.2h2.15c1.55-.41,2.68-1.38,2.68-3.22,0-2.06-2.46-5.58-3.79-6.49Z"/>
      <path class="cls-1" d="M39.4,111.24l-2.36,4.72h-1.61c-3.91,0,1.07-5.17,1.07-5.91,0-1.51-.23-.99-1.18-1.72l-.97,1.18-5.37,9.13-1.07,3.76c2.83-.24,3.74-2.98,4.29-5.37,1.36,.32,2.68,.45,2.68,2.15,0,2.27-5.14,5.52-.54,5.9l2.69-6.98,4.29-5.37-1.94-1.5Z"/>
      <path class="cls-1" d="M55.3,115.96h-.54c-1.45,0-1.48,.26-2.68,.54l-2.51,12.29c.32,.29,1.17,1.29,1.43,1.67,.97,.65,.94,1.07,2.15,1.07h.54c3.05,0,3.76-3.61,3.76-6.98v-1.61h-3.22v1.61h1.07v2.68c0,1.26-.89,2.15-2.15,2.15-1.9,0-1.17-11.27,1.61-11.27,1.24,0,1.61,.37,1.61,1.61v1.61h1.61v-3.22c-.61-.92-1.17-2.15-2.68-2.15Z"/>
      <path class="cls-1" d="M70.32,115.96l1.25,10.18c0,1.43-.55,1.35-.71,3.24l-1.56,.09-2.19-12.97h-1.61c0,4.62,.96,15.03,4.83,15.03h.54c1.65,0,2.68-3.36,2.68-4.83l.19-.56-1.26-10.17h-2.15Z"/>
      <path class="cls-1" d="M31.67,106.3l-2.15-2.15h-2.68l-6.98,7.52-1.66,2.71,.58,1.05c2.95-.79,7.72-9.66,9.13-9.66,1.04,0,2.15,.96,2.15,1.61,0,.98-7.07,9.48-8.05,10.2,.27,.48,.35,1.07,1.07,1.07,1.91,0,1.86-1.95,3.76-3.22l4.93-6.36-.1-2.77Z"/>
      <path class="cls-1" d="M35.43,13.96l4.83,2.15v1.07c0,.88-.32,1.61-1.07,1.61-1.63,0-1.82-.93-2.15-2.15h-1.61l-.57,1.09,1.1,2.13c1.05,.56,1.58,1.07,3.22,1.07,1.52,0,3.22-2.24,3.22-3.76,0-2.72-6.33-5.91-8.59-6.44,.06-2.65,.03-2.63,2.62-2.66l.62,2.19,2.13-.6c-.44-1.91-1.53-3.76-3.76-3.76-2.06,0-3.76,1.55-3.76,3.22,0,3.12,1.95,3.26,3.76,4.83Z"/>
      <path class="cls-1" d="M102,23.08c0,1.98,.47,3.76-1.61,3.76-.88,0-1.61-.32-1.61-1.07,0-1.2,.62-1.62,1.07-2.15l-.54-1.61c-1.55,.41-2.68,1.38-2.68,3.22,0,2.51,1.25,3.76,3.76,3.76h.54c1.29,0,1.58-.87,2.68-1.61,0-2.13-.07-9.66,2.15-9.66,.88,0,1.61,.32,1.61,1.07,0,1.78-1.07,1.12-1.07,2.15,0,2.05-.16,.2,.54,1.61,1.82-.49,2.68-1.48,2.68-3.76,0-1.67-1.7-3.22-3.76-3.22-4.19,0-3.76,3.35-3.76,7.52Z"/>
      <path class="cls-1" d="M83.58,19.5l2.84-6.06,2.79,1.09-2.15,7.16,2.06-1.29,5.37-12.88-1.47-.72-2.81,6.07-2.89-1.13,2.34-6.9c-2.99,.25-2.43,2.32-3.76,4.83l-3.76,9.13,1.44,.71Z"/>
      <path class="cls-1" d="M83.75,112.2l-3.76,2.68,3.22,10.2,1.07,3.22c4.02-.33,.75-3.23,0-6.44-.69-.99-2.68-4.57-2.68-5.91,0-.46,1.15-1.61,1.61-1.61,2.01,0,2.85,4.18,3.76,5.91l2.15,5.91c3.9-.32,1.33-1.24,1.07-4.29-2.54-2.92-2.35-8.57-6.44-9.66Z"/>
      <path class="cls-1" d="M44.02,113.81c-.92,.61-2.15,1.17-2.15,2.68,0,3.44,2.15,5.74,2.15,8.59,0,.88-.32,1.61-1.07,1.61-3.46,0,.28-5.63-3.76-3.76,0,4.62-.17,3.99,2.68,5.91h2.15c.81-1.2,2.15-1.89,2.15-3.22,0-3.44-2.15-5.74-2.15-8.59,0-.88,.32-1.61,1.07-1.61,3.73,0-.63,3.27,3.25,4.3l.51-3.23-2.15-2.68h-2.68Z"/>
      <path class="cls-1" d="M76.77,17.18l3.77-.47c.27-1.27,.53-1.3,.53-2.75,0-3-2.68-5.92-2.68-8.59,0-.75,.73-1.07,1.61-1.07,4.13,0-1.31,3.38,3.22,3.76V3.76c-.83-.56-1.95-1.61-3.22-1.61-2.17,0-3.76,1.17-3.76,3.22,0,1.43,2.59,7.4,3.22,8.59-.33,.49-.87,1.61-1.61,1.61-1.24,0-1.61-.37-1.61-1.61v-2.15c-1.52,.13-2.15-.01-2.15,1.61,0,2.28,.87,3.27,2.68,3.76Z"/>
      <path class="cls-1" d="M31.14,24.7h1.61l3.23-3.25-1.62-.51-2,1.53-2.29-4.19,2.75-1.69-1.15-1.55c-.68,.36-1.78,1.07-2.68,1.07-.68,0-2.2-3.04-2.69-3.78l2.76-1.08-.6-2.13c-1.23,.33-4.3,1.7-4.3,3.22,0,1.26,1.11,1.59,1.61,3.76l5.37,8.59Z"/>
      <path class="cls-1" d="M91.26,48.32c2.61-.22,11.08-5.1,13.41-6.45,2.52-1.46,11.57-5.61,11.82-8.58-1.74,.41-10.73,5.73-12.88,6.99-2.46,1.44-11.73,5.69-12.36,8.04Z"/>
      <path class="cls-1" d="M107.37,46.71c-3.1,1.4-12.07,4.44-12.89,7.51l26.31-11.27c-.75-2.81-3.68-.45-6.37,.61-2.27,.9-4.79,2.13-7.05,3.15Z"/>
      <path class="cls-1" d="M90.73,22.55c0,.72,3.02,2.68,3.22,2.68,1.51,0,.99-.23,1.61-1.07-.9-1.22-2.15-1.33-2.15-2.15,0-1.56,1.13-1.96,1.61-3.76,1.47,.34,2.18,1.07,3.22,1.07,.98,0,.86-.82,1-1.47l-2.76-1.31,2.4-4.37,3.04,1.72,1.17-1.58-4.85-2.11-6.98,10.2c-.34,1.44-.54,1.01-.54,2.15Z"/>
      <path class="cls-1" d="M118.64,86.43c-.31-3.76-3.21-4.61-6.44-5.37l-1.88,1.34,6.48,2.85-.19,.75-1.61,1.61-5.93-1.99-.09,1.88c.94,.45,3.6,1.61,4.83,1.61h2.15c1.2,0,1.18-.42,2.12-1.01l6.37,2.04,.65-1.61-6.46-2.11Z"/>
      <path class="cls-1" d="M13.38,84.9l2.72,.99v-2.15c-1.49-2.15-.13-2.96-3.22-3.22l-1.61,2.68-10.74,3.76c.32,3.87,4.89,.33,8.59-.54l4.26-1.53Z"/>
      <path class="cls-1" d="M43.48,10.74c.65,1.65,1.99,5.53,2.15,7.51,3.64-.3,1.39-2.86,.46-5.83-.6-1.92-1.89-5.94-2.07-8.13h1.61c-.3-3.55-2.41-1.35-5.91-.54v1.61c3.9,.09,2.39,1.94,3.75,5.38Z"/>
      <path class="cls-1" d="M100.39,60.13c3.3-.27,20.39-7.07,20.94-9.13-3.69,.08-20.32,6.81-20.94,9.13Z"/>
      <path class="cls-1" d="M87.51,95.02c-1.4-.65-7.62,1.63-10.31,2.04-3.82,.57-10.82-1.04-11.7,2.26,6.47,0,19.5-.54,22.01-4.29Z"/>
      <path class="cls-1" d="M105.22,65.5c1.54-.13,8.22-1.79,9.97-2.38,2.38-.8,8.18-1.15,8.82-3.53h-2.15c-.43,0-7.62,1.9-9.02,2.25-2.14,.53-7.33,.98-7.62,3.65Z"/>
      <polygon class="cls-1" points="76.77 114.89 74.53 114.91 78.47 130.13 80.53 128.84 77.84 119.18 76.77 114.89"/>
      <path class="cls-1" d="M73.34,28.78c.66-3.35,1.82-6.82,1.82-9.99-2.68,.72-4.55,14.21-5.37,17.72,2.76-.3,3.03-5.09,3.55-7.72Z"/>
      <path class="cls-1" d="M19.33,75.7L0,78.38v1.69s5.91-.61,5.91-.61c3.08-1.95,12.4,.05,13.42-3.76Z"/>
      <path class="cls-1" d="M72.49,9.14c.28-3.1,1.06-4.86,1.06-8.61l-.42-.42-1.73,2.56-1.61,10.2v3.22c2.84-.31,2.42-3.83,2.7-6.96Z"/>
      <path class="cls-1" d="M93.85,27.22l-.44-.38c-2.34,.19-5.74,4.63-7.08,6.34-1.43,1.83-6.26,6.13-4.19,7.62l11.71-13.58Z"/>
      <path class="cls-1" d="M76.23,38.65c2.14-.57,7.44-12.92,7.52-16.11-2.14,.57-7.44,12.92-7.52,16.11Z"/>
      <path class="cls-1" d="M57.98,34.36l-3.76-16.11h-1.61c0,3.1,1.28,5.76,1.94,8.8,.59,2.75,.46,7.06,3.43,7.31Z"/>
      <path class="cls-1" d="M63.35,34.9h1.61V18.79c0-1.49-.41-1.29-1.61-1.61v17.72Z"/>
      <path class="cls-1" d="M99.85,33.28c-2.24,.6-13.45,8.84-13.96,10.74,2.8-.23,13.74-8.17,13.96-10.74Z"/>
      <path class="cls-1" d="M2.15,72.47c3.72,0,14.81,.15,15.56-2.77l-15.56,1.21v1.56Z"/>
      <rect x="61.2" y="116.5" width="1.61" height="15.57"/>
      <path class="cls-1" d="M124.55,69.79h-12.88c-1.27,0-1.58,.37-1.61,1.61h14.49v-1.61Z"/>
      <path class="cls-1" d="M50.46,32.75c0-3.28-1.36-10.42-4.3-10.74,.67,2.88,1.77,10.06,4.3,10.74Z"/>
      <path class="cls-1" d="M51,37.58c-4.39,0-12.33,2.6-13.96,4.83l13.96-3.76v-1.07Z"/>
      <path class="cls-1" d="M21.47,33.28c-.56-2.1-7.15-6.77-9.66-6.98,.61,2.29,6.72,6.91,9.66,6.98Z"/>
      <path class="cls-1" d="M51.54,102.54l-1.07,7.52h1.61c.21-2.52,1.07-2.65,1.07-5.37v-5.37h-1.61v3.22Z"/>
      <path class="cls-1" d="M110.59,76.77l1.61,.54,9.66,1.07c-1.33-1.82-10.47-4.61-11.27-1.61Z"/>
      <path class="cls-1" d="M58.52,102c-.33,.59-.65,.63-.54,1.61l.54,5.91v1.61c0,2.05-.16,.2,.54,1.61,.9-.63,1.07-.08,1.07-1.61l.14-2.7-.68-4.81c-.22-1.57-.05-.86-1.07-1.61Z"/>
      <path class="cls-1" d="M47.78,98.78c-3.04,.33-3.22,5.78-3.22,9.13,2.05-.74,3.16-6.51,3.22-9.13Z"/>
      <path class="cls-1" d="M16.64,63.89h-4.29c-1.84,0-2.09,.36-3.76,.54v1.61l3.24,.12,4.81-.66v-1.61Z"/>
      <path class="cls-1" d="M6.44,31.67v1.07l8.59,4.29c-.26-3.06-5.36-5.3-8.59-5.37Z"/>
      <path class="cls-1" d="M66.69,108.96l-.66-4.81h-1.69s.73,5.89,.73,5.89l-.12,1.09c0,1.49,.41,1.29,1.61,1.61l.12-3.78Z"/>
      <path class="cls-1" d="M106.83,30.6c2.02-1.07,7.24-3.95,7.3-6.75l-7.71,5.33,.41,1.42Z"/>
      <path class="cls-1" d="M77.87,99.98v1.58s4.27-.63,4.27-.63c2.22-.38,3.19-.64,4.22-2.53l-8.5,1.58Z"/>
      <path class="cls-1" d="M37.28,105.63c1.61-.22,6.97-7.54,3.6-8.43l-3.6,8.43Z"/>
      <path class="cls-1" d="M72.47,111.66v-6.98h-1.61v5.37c0,1.49,.41,1.29,1.61,1.61Z"/>
      <path class="cls-1" d="M27.38,34.36c.5,2.14,2.39,5.17,4.83,5.37-.5-2.14-2.39-5.17-4.83-5.37Z"/>
      <path class="cls-1" d="M30.6,91.8c0-.48-.6-1.07-1.07-1.07-1.32,0-3.95,3.54-4.29,4.83,1.65-.14,5.37-3.31,5.37-3.76Z"/>
      <path class="cls-1" d="M38.12,39.19c2.23-.19,5.65-.86,5.91-3.22-2.39,.2-5.63,.74-5.91,3.22Z"/>
      <path class="cls-1" d="M35.43,95.56c-2.3,.25-4.1,3.03-4.29,5.37,1.88-.5,4.12-3.25,4.29-5.37Z"/>
      <path class="cls-1" d="M43.48,30.06c0-2.15-.91-3.82-2.84-4.25l1.92,6.35,.92,.05v-2.15Z"/>
      <path class="cls-1" d="M78.92,110.05v-1.61c0-1.85-.4-2.08-.54-3.76h-1.61c.14,1.68,.54,1.91,.54,3.76v1.61h1.61Z"/>
      <path class="cls-1" d="M83.04,103.12l1.23,5.33,1.63-.54c-.51-2.19-.66-4.29-2.86-4.79Z"/>
      <path class="cls-1" d="M10.74,40.8c-1.26-1.87-1.76-2.15-4.83-2.15v1.61c3.46,.08,2.62,1.56,4.83,.54Z"/>
      <path class="cls-1" d="M34.36,29.53c.19,2.25,.93,4.58,3.22,4.83-.18-2.22-1.34-4.33-3.22-4.83Z"/>
      <path class="cls-1" d="M25.23,85.9c-2.68,.06-3.71,.51-4.29,2.68l4.29-1.07v-1.61Z"/>
      <path class="cls-1" d="M89.62,100.29l-1.58,.61c.91,1.73,1.02,3.01,3.23,3.25-.27-3.21-.85-.92-1.65-3.86Z"/>
      <polygon class="cls-1" points="96.1 91.8 96.1 90.73 90.18 93.44 91.8 93.95 96.1 91.8"/>
      <path class="cls-1" d="M19.33,81.06c-1.49,0-1.29,.41-1.61,1.61h3.22l.64-1.57-2.25-.04Z"/>
      <path class="cls-1" d="M97.36,99.2l-1.26-1.49-1.18-.97-.97-.11v1.07c1.09,1.63,.68,1.55,3.41,1.49Z"/>
      <path class="cls-1" d="M98.24,93.41l1.61,1.61h1.07c-.18-2.13-1.32-3.24-2.68-1.61Z"/>
      <path class="cls-1" d="M104.69,90.19s.54-1,.54-1.07c0-1.24-1.5-1.05-2.68-1.07,.6,2.24,.24,1.14,2.15,2.15Z"/>
      <path class="cls-1" d="M107.37,84.82c-.52-1.94-.05-1.44-2.15-1.61,.94,1.8-.99,1.35,2.15,1.61Z"/>
    </g>
  </g>
</svg>