<?xml version="1.0" encoding="UTF-8"?>
<svg id="_图层_2" data-name="图层 2" xmlns="http://www.w3.org/2000/svg" viewBox="0 0 121.98 121.49">
  <g id="_图层_2-2" data-name=" 图层 2">
    <g>
      <path d="M53.74,99.02c.28-3.83,.53-7.65,1.64-11.37,.34-1.13,.34-2.36,.49-3.54-.13-.04-.27-.07-.4-.11-.64,.66-1.24,1.36-1.93,1.96-1.32,1.15-2.61,2.16-3.6,3.8-1.67,2.77-4.37,4.74-7.47,5.97-2.06,.81-3.97,.41-5.25-1.12,.98-.48,1.96-.9,2.89-1.42,3.29-1.84,6.36-3.97,9.02-6.69,3.5-3.58,5.88-7.59,5.69-12.75-.18-5.04-3.68-8.17-8.51-7.5-3.14,.44-5.82,1.91-8.13,3.99-5.89,5.29-9.29,11.85-9.82,19.82-.02,.28-.29,.73-.53,.79-2.2,.59-5.56-1.42-6.12-3.69-.13-.5,.09-1.09,.15-1.64,.53,.13,1.05,.28,1.58,.37,.47,.08,.98,.18,1.43,.07,.18-.04,.43-.75,.31-.92-.27-.37-.78-.87-1.13-.82-.92,.12-1.92,.34-2.69,.82-1.42,.89-1.9,2.45-2.19,4.01-.51,2.66,.73,6.06,3.75,7.26,1.8,.71,3.61,.78,5.49,.72,.45-.02,1.07,.16,1.33,.48,3.48,4.19,9.68,4.77,13.93,2.64,1.7-.85,3.19-2.12,4.71-3.16,.05,2.75-2.87,6.96-6.57,8.27-2.85,1.01-6.41,.3-7.81-1.65,.04-.09,.08-.19,.12-.28,.1-.23,.29-.49,.25-.7-.03-.15-.5-.38-.57-.32-.19,.16-.33,.43-.41,.69-.2,.67-.34,1.37-.55,2.04-1.01,3.15-.01,6.21,2.67,8.11,5.12,3.63,12.75,1.8,15.89-3.84,1.78-3.19,2.08-6.74,2.35-10.28Zm-18.11-10.16c-.09-3.85,.93-7.36,2.78-10.63,1.96-3.47,4.63-6.31,8.01-8.45,.75-.47,1.57-.88,2.42-1.14,1.38-.44,2.49,.4,2.51,1.84,0,.58-.08,1.21-.29,1.75-2.89,7.46-7.87,13.05-15.05,16.63-.06,.03-.14,0-.38,0Z"/>
      <path d="M21.01,49.43c.04-1.17-.8-2.23-1.91-2.17-.49,.03-.95,.55-1.43,.84,.22,.33,.4,.7,.67,.99,.32,.35,.72,.64,1.08,.95-.5,.27-.97,.6-1.5,.78-.28,.09-.66-.05-.98-.14-1.56-.46-2.82-2.2-2.87-4.15-.1-4.16,2.15-7.05,5.38-9.24,3.6-2.44,7.76-3.16,12.02-3.24,2.42-.04,4.84,.23,7.79,.38,.6-.05,1.73-.07,2.83-.28,1.09-.21,2.18-.52,3.2-.94,3.34-1.38,5.36-4.57,5.07-7.67-.46-4.95-5.36-8.65-10.08-8.36-.6,.04-1.24,.29-1.77,.6-.68,.4-.8,1.42-.32,1.97,.58,.67,1.2,.43,1.77-.02,.32-.25,.53-.67,.87-.86,.35-.19,.87-.34,1.21-.22,.27,.09,.57,.65,.53,.96-.12,.95-.22,1.96-.63,2.8-1.74,3.5-4.75,5.43-8.47,6.12-3.15,.58-6.36,.85-9.55,1.18-5.32,.54-10.41,1.81-15.16,4.34C2.59,37.31-.77,43.64,.15,50.37c.69,5,5.15,9.21,9.94,9.38,6.27,.22,10.72-3.98,10.92-10.32Z"/>
      <path d="M19.07,83.12c4.85-.34,10.26-3.82,11.84-9.04,1.52-5.03,1.57-10.15,1.01-15.3-.65-5.94-1.37-11.87-1.01-17.85,.1-1.65,.19-3.34,1-4.85,.54,.1,.92,.2,1.3,.22,.04,0,.22-.58,.13-.68-.3-.3-.7-.68-1.06-.68-.6,0-1.3,.13-1.78,.47-.75,.53-1.43,1.2-2,1.93-2.54,3.25-3.33,7.13-3.68,11.09-.45,5.12-.67,10.26-1.15,15.38-.22,2.36-.72,4.73-2.07,6.78-1.49,2.25-3.79,2.58-5.39,1.49-2.01-1.37-2.4-4.89-.9-6.87,.47-.63,.87-.5,1.19,.08,.27,.48,.39,1.06,.69,1.52,.17,.25,.7,.56,.84,.47,.3-.18,.61-.61,.62-.93,0-1.05-.64-1.74-1.58-2.09-1.85-.68-3.69-.63-5.35,.5-2.22,1.51-3.26,3.78-3.53,6.35-.41,3.84,.24,7.41,3.44,10.01,2.16,1.76,4.73,2.21,7.47,2.02Z"/>
      <path d="M115.09,75.84c-1.02-2.99-2.27-5.89-3.37-8.86-1.45-3.95-1.97-8.03-1.6-12.22,.11-1.25,.23-1.3,1.4-.99,.24,.06,.59,0,.79-.16,.16-.12,.27-.62,.21-.66-.34-.24-.74-.52-1.14-.56-2.22-.22-3.88,.71-5.04,2.69-.38-.51-.68-.97-1.04-1.4-1.45-1.75-2.92-1.9-4.61-.41-1.97,1.73-2.87,4.03-3.41,6.52-.68,3.15-.78,6.31,.04,9.43,.57,2.18,2.32,3.5,4.45,3.64,1.88,.12,3.44-.92,4.35-3.04,.37-.86,.53-1.8,.79-2.7,.02,0,.13,.02,.14,.07,1.24,4.13,2.2,8.3,1.87,12.66-.13,1.71-.94,2.97-2.62,3.54-1.34,.46-2.51,.12-3.46-.9-1.24-1.34-1.78-2.93-1.46-4.74,.1-.57,.54-.7,.98-.23,.18,.19,.26,.48,.45,.63,.2,.15,.54,.31,.72,.24,.19-.09,.43-.56,.35-.66-.26-.35-.61-.83-.98-.88-1.4-.2-2.69,.21-3.71,1.18-2.48,2.35-3.18,7.57-1.47,10.53,1.3,2.24,3.2,3.61,5.7,4.36,5.76,1.74,11.56-1.05,12.68-7.73,.54-3.21,0-6.33-1.02-9.35Zm-10.64-10.9c-.26,.67-1.11,1.39-1.81,1.53-.91,.18-1.51-.67-1.75-1.57-.85-3.18-.3-6.2,1.19-9.05,.61-1.17,1.74-1.08,2.21,.22,.54,1.5,.76,3.11,1.11,4.61-.32,1.54-.45,2.97-.95,4.26Z"/>
      <path d="M87.25,85.77c1.04-1.23,2.58-2.05,3.96-2.96,.23-.15,.96,.05,1.14,.31,.22,.33,.23,.92,.1,1.33-.08,.26-.56,.44-.89,.57-.68,.25-1,.76-.78,1.39,.15,.42,.64,1.02,.97,1.01,.49,0,1.04-.41,1.43-.78,.22-.21,.24-.69,.26-1.06,.22-3.5-2.33-5.86-5.82-5.53-2.97,.28-5.35,1.67-7.53,3.58-2.8,2.45-5.54,4.99-8.49,7.25-2.55,1.95-5.51,2.92-8.81,2.33-2.02-.36-3.67-2.01-3.54-3.69,.03-.34,.23-.66,.36-.99,.28,.2,.56,.39,.85,.59,.26,.17,.57,.53,.77,.48,.4-.11,.94-.36,1.08-.69,.31-.73-.11-1.29-.8-1.61-1.31-.59-2.94,.11-3.42,1.62-.43,1.34-.63,2.74-.93,4.12,.18,3.53,1.35,6.37,4.51,8.19,2.79,1.6,5.74,1.67,8.76,.99,4.12-.93,6.98-3.64,9.44-6.89,2.43-3.21,4.79-6.48,7.38-9.55Z"/>
      <path d="M97.29,52.69c-.18-.04-.52,0-.58,.12-.55,1.03-1.4,.73-2.14,.44-1.37-.53-2.43-1.47-2.95-2.89-.47-1.3-.85-2.63-1.3-3.93-.55-1.59-1.52-2.78-3.18-3.33-.49-.16-.95-.4-1.47-.62,.17-.24,.28-.42,.41-.58,.09-.11,.2-.22,.31-.31,1.77-1.44,3.08-3.22,4.02-5.3,.36-.81,.8-1.61,1.33-2.33,.84-1.13,1.93-1.83,3.44-1.66,.33,.04,.91,0,.97-.17,.12-.33,.08-.81-.07-1.16-.47-1.15-2.24-1.95-3.82-1.81-2.38,.2-4.16,1.35-5.31,3.43-.7,1.27-1.32,2.59-1.96,3.9-.56,1.15-1.1,2.32-1.65,3.49-.1-.02-.2-.04-.3-.06,0-1.41-.03-2.82,0-4.23,.09-3.58,.22-7.16,.31-10.75,.01-.41-.14-.83-.22-1.25-.12,.01-.24,.02-.35,.03-.1,.42-.21,.84-.3,1.27-.32,1.49-.98,2.76-2.4,3.45-.88,.43-1.11,1.09-1.11,1.99,0,1.72,0,3.44-.12,5.15-.32,4.39-.71,8.78-1.05,13.16-.07,.96-.14,1.95,0,2.89,.28,1.86,1.93,3.26,3.57,3.56,1.2,.22,1.73-.32,1.53-1.46-.45-2.57-.08-5.09,.42-7.66,.34,.36,.64,.73,.8,1.15,.87,2.3,1.77,4.59,2.54,6.92,1.3,3.94,5.71,5.32,8.83,2.53,.95-.85,1.35-2.32,1.97-3.52,.05-.1-.08-.44-.17-.45Z"/>
      <path d="M43.01,59.63c.45,3.73,2.53,5.57,5.63,5.4,1.62-.09,3.21-.95,4.77-1.56,.28-.11,.46-.66,.53-1.03,.03-.15-.34-.48-.57-.54-.23-.06-.6,.04-.78,.22-.75,.73-1.38,.78-2.21,.05-.98-.86-1.51-2.01-1.47-3.27,.06-2.1,.26-4.21,.48-6.3,.22-2.1,.64-4.19,.77-6.3,.07-1.17-.45-2.32-1.58-2.9-2-1.02-4.34-.31-5.64,1.53-1.48,2.08-2.16,4.48-2.8,6.89-.36,1.35-.69,2.7-1.03,4.05-.15-.03-.3-.05-.45-.08,.49-3.91,.88-7.84,1.51-11.73,.39-2.43-.12-4.57-1.63-6.39-.73-.88-1.88-1.44-2.9-2.02-.19-.11-.71,.38-1.08,.59,.29,.21,.57,.59,.87,.6,.92,.02,1.05,.43,.86,1.23-.5,2.1-1.03,4.21-1.41,6.33-.78,4.31-1.08,8.66-.57,13.03,.23,1.97,1.05,3.48,3.06,4.13,1.11,.36,1.81,.02,2.04-1.13,.28-1.43,.41-2.89,.81-4.28,.94-3.33,1.97-6.63,3.05-9.92,.14-.42,.75-.69,1.14-1.03,.18,.52,.54,1.05,.49,1.55-.09,1.07-.38,2.13-.61,3.18-.72,3.2-1.64,6.37-1.24,9.71Z"/>
      <path d="M97.2,29.53c.42,1.99,0,3.83-.87,5.59-.92,1.85-1.51,2.06-3.01,1.18-.04-.02-.13,.04-.46,.17,.28,.32,.45,.71,.72,.79,1.93,.61,4.15-.29,5.24-2.08,.23-.38,.42-.78,.73-1.34,1.42,1.2,2.85,2.19,4,3.44,1.17,1.27,2.27,2.7,3.02,4.24,.89,1.84,.76,3.81-.83,5.37-.94,.92-2.1,1.24-3.39,.78-1-.35-1.58-1.08-1.69-2.14-.14-1.3,.15-2.48,1.31-3.24,.36-.24,.9-.22,1.35-.32,.04,.1,.09,.2,.13,.3-.21,.34-.45,.66-.62,1.02-.07,.16-.05,.53,.05,.58,.19,.09,.55,.13,.67,.01,.23-.21,.4-.53,.48-.84,.42-1.66-.45-3.68-1.96-4.67-2.1-1.37-4.82-1.07-6.77,.79-2.04,1.93-2.21,4.33-1.51,6.83,.74,2.65,2.56,4.36,5.24,5,4.29,1.02,9.05-1.54,10.86-5.76,1.74-4.04,.2-8.74-3.73-11.34-1.6-1.06-3.11-2.19-4.13-3.86-.97-1.58-.93-3.18-.1-4.78,.36-.69,.92-.97,1.65-.44,.24,.17,.46,.41,.73,.51,.28,.1,.62,.08,.93,.11-.02-.34,.09-.85-.09-1-.37-.3-.91-.57-1.36-.54-1,.05-2.01,.21-2.97,.48-2.42,.68-4.07,3.03-3.62,5.17Z"/>
      <path d="M77.18,23.23c-2.3,.95-4.61,.49-6.92,.09-2.86-.5-5.69-1.18-8.56-1.53-3.23-.39-6.15,.44-8.37,3.02-2.99,3.48-2.14,8.8,1.78,10.7,1.79,.87,3.74,1.16,5.67,.61,.75-.21,1.42-.9,1.99-1.5,.21-.22,.09-.82,0-1.23-.03-.14-.59-.32-.61-.28-.21,.31-.45,.65-.49,1-.1,.9-.55,.89-1.13,.48-.32-.23-.63-.55-.79-.91-1.43-3.23,.37-5.65,3.88-5.87,2.47-.15,4.97,.2,7.64,.33,2.45-.02,5.04-.22,7.46-1.35,1.51-.71,2.59-1.84,2.62-3.6,.04-1.93-.4-3.72-2.14-4.9-.24-.17-.57-.42-.79-.36-.46,.11-1.01,.31-1.28,.66-.2,.26-.02,.81,0,1.23,.39-.12,.77-.27,1.16-.37,.36-.09,1-.26,1.06-.15,.23,.4,.45,.98,.33,1.37-.4,1.22-1.31,2.04-2.5,2.54Z"/>
      <path d="M67.51,83.51c2.71-.35,4.83-1.72,6.32-3.98,2.04-3.1,2.86-6.54,2.53-10.22-.15-1.68-.52-3.35-1.82-4.56-.75-.7-1.65-1.12-2.76-.78-1.07,.32-1.4,1.12-1.55,2.1-.35,2.27,.01,4.37,1.29,6.31,.37,.57,.86,1.27,.81,1.87-.14,1.66-.47,3.32-.87,4.94-.18,.73-.62,1.44-1.11,2.02-.56,.66-1.34,.41-1.6-.43-.11-.35-.15-.73-.15-1.09,.05-2.54,.17-5.08,.17-7.61,0-2.68-.06-5.37-.25-8.05-.19-2.68-1.85-4.2-4.24-3.74-1.25,.24-2.38,1.13-3.54,1.77-.15,.08-.16,.43-.29,.82,1.52-.42,1.74-.35,2.44,.86,.24,.42,.42,.87,.57,1.33,.97,2.94,.64,5.97,.51,8.98-.1,2.53-.46,5.08,.42,7.54,.55,1.54,1.5,2.13,3.11,1.92Z"/>
      <path d="M92.07,79.57c1.1,.96,2.7,1.12,3.98,.41,1.44-.79,2.25-2.04,2.42-3.67,.02-.19-.2-.4-.47-.9-.15,.58-.18,.85-.29,1.09-.13,.27-.33,.69-.52,.7-.26,.02-.62-.23-.8-.46-.19-.25-.28-.62-.29-.94-.11-2.56-.21-5.12-.28-7.69-.03-1.23,.13-2.47,0-3.68-.13-1.2-.77-2.2-2.03-2.58-1.27-.38-2.42-.02-3.23,.98-.62,.76-1.06,1.69-1.53,2.57-.22,.4-.32,.86-.48,1.3-.09-.02-.19-.03-.28-.05,.05-2.87-.57-5.75,.45-8.67-.27,.03-.5,0-.53,.07-.52,1.25-1.77,1.48-2.81,1.76-1.79,.49-2.5,1.6-2.53,3.32-.01,.86-.13,1.75,.06,2.56,.75,3.22,1.54,6.44,2.46,9.62,.44,1.52,2.1,1.87,3.15,.65,.51-.59,.78-1.61,.76-2.42-.09-2.69-.23-5.37,.54-7.99,.11-.37,.37-.7,.56-1.05,.12,.03,.24,.06,.36,.08,.04,.37,.13,.74,.12,1.11-.09,3.39-.24,6.78-.28,10.17-.02,1.41,.39,2.74,1.5,3.71Z"/>
      <path d="M77.56,56.61c-.39,.31-.77,.61-1.37,1.09-.18-.6-.43-1.02-.42-1.42,.08-2.04,.18-4.09,.36-6.12,.26-2.81,.62-5.6,.89-8.41,.09-.99-.45-1.69-1.32-2.15-1.81-.94-4.27-.24-5.48,1.66-.73,1.15-1.31,2.38-2.12,3.88,.05-.94,.05-1.55,.12-2.17,.17-1.52,.41-3.03,.53-4.55,.03-.34-.25-.96-.49-1.03-1.65-.44-4.34,1.62-4.32,3.34,.03,2.05,.15,4.1,.32,6.14,.09,1.03,.33,2.06,.57,3.07,.08,.31,.36,.7,.65,.81,.95,.36,2.64-.84,2.88-1.83,.48-1.94,1.02-3.88,1.62-5.78,.15-.46,.66-.81,1-1.21,.12,.05,.23,.1,.35,.16-.04,.49-.04,.98-.13,1.46-.61,3.53-1.36,7.03-1.81,10.58-.22,1.74-.1,3.62,1.69,4.8,1.55,1.02,3.13,.9,4.67,.1,.92-.48,1.8-1.13,1.81-2.44Z"/>
      <path d="M56.05,58.01c.84-.39,1.52-1.16,2.22-1.81,.36-.33,.59-.79,.92-1.25,2.05,3.9,5.33,3.03,7.05,1.24,.65-.67,.65-1.25-.28-1.87-.15,.47-.26,.84-.47,1.52-2.26-2.44-2.21-5.32-2.34-8.1-.13-2.8-.03-5.62-.03-8.42l-.35-.23c-.59,.39-1.24,.71-1.74,1.19-.52,.49-.89,1.14-1.32,1.71-1.94-1.18-3.37-1.15-4.96,.2-.56,.48-1.06,1.06-1.45,1.68-2.16,3.42-2.63,7.24-2.38,11.16,.17,2.68,2.7,4.12,5.13,2.99Zm.33-13.98c.74-1.03,1.49-.9,1.89,.32,.29,.87,.37,1.81,.47,2.32-.19,2.28-.26,4.17-1.35,5.79-.8,1.19-1.84,1.33-2.67,.36-.24-.27-.34-.72-.39-1.09-.32-2.83,.4-5.4,2.04-7.7Z"/>
      <path d="M70.91,105.91c-.65,.13-1.32,.17-1.97,.29-2.14,.4-4.28,.81-6.71,1.27,.36,.31,.48,.48,.56,.46,1.17-.2,1.35,.6,1.5,1.44,.37,1.98,.81,3.95,1.08,5.94,.16,1.17,.86,2.43-.49,3.61,.52,0,.78,.04,1.02,0,1.94-.36,3.88-.73,5.82-1.1,3.23-.61,5.36-2.88,5.47-6.16,.14-3.95-2.27-6.53-6.29-5.76Zm-1.24,11.38c-.25,.03-.75-.41-.81-.7-.51-2.51-.95-5.04-1.4-7.56-.08-.44-.12-.88-.2-1.4,4.29-1.84,6.77,.78,6.81,4.8,.03,2.94-1.49,4.55-4.4,4.86Z"/>
      <path d="M40.69,10.22c.27,.43,.56,.98,.52,1.45-.09,1.18,.03,1.42,1.24,1.58,.38,.05,.76,.15,1.23,.25-.21,.43-.35,.72-.56,1.15,.52,.07,.95,.15,1.37,.18,1.01,.06,2.02,.05,3.01,.17,.34,.04,.64,.38,.97,.58-.25,.28-.48,.58-.75,.84-.17,.16-.39,.27-.71,.48,1.54,1.38,3.48,.86,5.11,1.52-.42-.77-.86-1.48-1.45-2.01-1.83-1.63-3.73-3.19-5.58-4.79-.24-.21-.4-.53-.59-.8,.16-.13,.32-.27,.47-.4,2.83,2.51,5.66,5.03,8.48,7.54,.09-.81,.26-1.84,.29-2.86,.01-.48-.27-.97-.42-1.46-.35,.24-.69,.5-1.05,.73-.32,.2-.71,.58-.98,.51-.29-.07-.61-.54-.68-.89-.12-.65,.04-1.37-.12-2-.23-.91-.59-1.8-1.02-2.63-.08-.17-.87-.23-1.06-.05-1.18,1.09-1.67,1.01-2.43-.46-.25-.48-.56-.99-.98-1.31-.56-.43-1.18-.46-1.21,.51-.04,1.02-.56,.85-1.2,.58-.64-.28-1.29-.62-1.97-.72-.39-.06-.91,.23-1.22,.52-.11,.1,.16,.73,.38,1.03,.23,.32,.7,.48,.9,.81Z"/>
      <path d="M60.54,85.8c.81,.14,1.59,.41,2.4,.54,.42,.07,.89,.05,1.3-.06,.2-.06,.32-.43,.48-.65-.25-.06-.54-.23-.74-.16-.88,.34-1.37-.11-1.7-.81-.21-.43-.42-.91-.43-1.37-.03-1.97,.06-3.94,.03-5.91-.03-1.55-.04-3.12-.31-4.65-.31-1.76-2.41-3.23-3.63-3,.2,1.08,.56,2.07,.51,3.03-.06,1.09-.47,2.17-.77,3.24-.34,1.22-.87,2.4-1.07,3.64-.56,3.32,.08,5.48,3.95,6.16Z"/>
      <path d="M59.17,108.6c-.08-1.48-.07-1.68-.79-2.27-.22,2.49-.62,4.91-2.03,7.01,.42-1.89,.85-3.77,1.34-5.96-1.03,.86-1.79,1.45-2.5,2.09-.51,.45-.57,.89,.24,1.1,.2,.05,.4,.14,.88,.32-.71,.8-1.29,1.49-1.9,2.14-1.18,1.25-1.19,1.27-.36,2.67,.05,.08,0,.21,0,.12-1.11,1.16-3.2,1.33-2.67,3.57,.01,.06-.03,.14-.07,.21q-.81,1.56,.81,1.74s.07,.01,.11,.02c2,.35,2.55,.1,3.35-1.75,.38-.87,.8-.92,1.54-.47,.92,.57,1.7,.29,1.89-.78,.14-.81,.03-1.69-.1-2.51-.16-.96-.48-1.89-.72-2.82,1.89-.56,2.07-.89,1.57-2.02-.33-.75-.55-1.59-.59-2.4Z"/>
      <path d="M90.71,110.25c-1.41,.32-2.08-.8-2.91-1.53-2.19-1.91-4.36-3.85-6.5-5.83-.66-.62-1.26-.36-1.82-.04-.27,.15-.51,.61-.5,.93,.12,2.95,.31,5.89,.45,8.84,.06,1.18,.47,2.44-.76,3.48,.5,.11,.95,.13,1.33-.01,.66-.25,1.29-.58,1.91-.93,.38-.22,.7-.54,1.05-.81-.44-.05-.88-.09-1.32-.15-.07,0-.13-.06-.19-.09-.66-2.53-.61-2.6,2.44-3.88,.81-.34,1.66,.22,2.49,1.68-.14,.1-.31,.19-.43,.32-.18,.19-.34,.42-.5,.63,.29,.08,.65,.3,.86,.21,1.62-.72,3.21-1.49,5.18-2.43-.42-.21-.63-.42-.79-.38Zm-9.71,.07v-3.66c.93,.82,1.73,1.54,2.68,2.38-.93,.45-1.71,.82-2.68,1.29Z"/>
      <path d="M77.69,72.49c-.2,1.49-.53,3.07-.26,4.5,.57,2.93,4.58,4.28,6.75,2.42,.26-.22,.4-.59,.54-.92,.02-.05-.3-.35-.34-.33-.27,.16-.56,.33-.74,.58-.57,.79-1.07,.49-1.28-.18-.29-.91-.52-1.88-.51-2.83,.01-2.16,.21-4.31,.28-6.47,.07-2.33-1.46-4.3-3.71-4.81-.3-.07-.63,.04-.95,.07-.06,.08-.12,.17-.19,.25,2.04,.7,1.47,2.23,1.27,3.56-.2,1.4-.66,2.75-.86,4.15Z"/>
      <path d="M113.2,62.11c-.78,.08-.98,.54-.51,1.15,.58,.75,.61,1.53,.5,2.43-.07,.57,.15,1.18,.25,1.77,.89-1.93,1.01-3.96,2.08-5.66,.1,.03,.21,.06,.31,.09-.44,1.61-.88,3.21-1.36,5,.94-.46,1.58-.75,2.2-1.09,.52-.28,.74-.66,.14-1.11-.99-.76-.99-.78,.08-1.59,1.48-1.11,1.64-1.77,.68-3.21,.49-.46,1-.93,1.51-1.41,.58-.54,.84-1.09,.35-1.87-.15-.24-.03-.69,.06-1.03,.29-1.11-.17-1.65-1.29-1.47-.18,.03-.37,.06-.54,.04-1.65-.18-2.16,.17-2.3,1.82-.08,.93-.38,1.11-1.2,.68-.36-.19-.95-.38-1.19-.21-.27,.18-.44,.82-.35,1.17,.3,1.11,.73,2.18,1.15,3.25,.25,.65,.4,1.15-.57,1.25Z"/>
      <path d="M97.59,104.93c-.77,.53-1.09,.02-1.54-.47-1.54-1.64-2.22-3.54-2.18-5.79,.03-1.43-.18-2.86-.28-4.29-1.61,.13-1.92,.53-1.73,1.89,.21,1.57,.34,3.15,.53,4.91-1.34-.58-2.48-1.1-3.65-1.56-2.13-.83-3.19-.47-4.44,1.43-.12,.18-.18,.48-.12,.68,.03,.1,.44,.22,.58,.15,1.08-.59,2.03-.05,2.98,.31,2.07,.79,4.28,1.31,5.52,3.5,.56,.99,1.04,1.78,.06,2.84,2.26-.4,3.51-2.24,5.29-3.35-.37-.21-.81-.39-1.01-.24Z"/>
      <path d="M55.31,11.13c.4,1.16,.76,2.34,1.17,3.49,.28,.8,.51,1.56-.52,2.06,.81,.41,3.54-.42,4.06-1.19-2.16-.13-1.44-2.12-2.24-3.18,1.21-.38,2.29-.71,3.47-1.08,.14,1.39,1.52,2.55,0,3.87l.22,.24c1.25-.41,2.49-.82,3.83-1.26-.56-.42-1.17-.64-1.35-1.05-.53-1.19-.94-2.43-1.28-3.69-.28-1.03-1.22-2.13,.22-3.16-.08-.07-.17-.14-.25-.21-1.29,.43-2.58,.85-3.87,1.28-.04,.1-.09,.2-.13,.31,2.16,0,1.66,1.7,2.25,2.81-1,.35-1.84,.66-2.69,.92-.21,.06-.56,.03-.7-.11-.74-.71-.7-2.4,0-3.23-1.41-.05-2.62,.67-4.05,1.06,1.46,.95,1.48,.95,1.88,2.12Z"/>
      <path d="M68.99,13.31c-.3-.15-.6-.31-.86-.44,.03-1.17,.31-2,1.66-1.86,.25,.03,.51-.08,.76-.15,.94-.23,1.19,.48,1.33,1.11,.08,.35-.2,.77-.4,1.44,1.17-.09,2.5-.19,3.74-.28-.55-.75-1.09-1.36-1.47-2.05-.97-1.8-1.84-3.65-2.81-5.45-.18-.32-.64-.63-.99-.66-.23-.02-.61,.44-.74,.76-.37,.93-.63,1.91-.98,2.85-.64,1.72-.73,3.68-2.17,5.23,.97-.08,1.95-.16,2.92-.24,0-.09,.01-.18,.02-.27Zm.68-5.8c.53,1,.91,1.73,1.37,2.6-.66,.08-1.1,.14-1.54,.18-.18,.01-.36-.05-.68-.1,.26-.84,.51-1.61,.84-2.68Z"/>
      <path d="M83.46,14.57c1.28,.52,2.56,1.04,3.83,1.56-1.38-1.77,.45-2.91,.38-4.45,1.2,1.03,2.41,1.38,3.58,.75,.64-.34,1.18-1.14,1.4-1.84,.13-.42-.32-1.34-.75-1.55-1.71-.85-3.52-1.52-5.14-2.19,0,.82,.15,1.48-.03,2.03-.45,1.38-1.03,2.72-1.59,4.06-.31,.74-.42,1.74-1.69,1.63Zm5.78-6.08c1.39,.62,1.69,1.26,1.21,2.35-.48,1.07-1.08,1.24-2.49,.6,.45-1.02,.86-1.99,1.28-2.95Z"/>
      <path d="M79.85,13.97c-.24-.52-.67-1.01-.62-1.44,.2-1.77,.53-3.53,.85-5.29,.08-.46,.07-1.26,.84-.99,.46,.16,.99,.73,1.09,1.2,.26,1.14-.31,1.7-1.94,2.24,1.32,1.23,3.74,.11,4.02-1.31,.19-.96,.1-1.86-.87-2.14-1.86-.52-3.78-.82-5.52-1.19,.16,.68,.4,1.15,.34,1.59-.21,1.59-.51,3.16-.79,4.74-.14,.77-.17,1.63-1.37,1.67,.04,.09,.08,.18,.12,.27,1.33,.23,2.67,.45,3.86,.65Z"/>
      <path d="M92.29,18.44c-.03,.08-.07,.17-.1,.25,1.17,.75,2.34,1.49,3.5,2.24-.03-.6-.44-1.12-.32-1.33,.63-1.06,.95-2.37,2.27-2.93,1.33-.57,2.63-1.2,3.97-1.82-.8-.79-.8-.8-1.64-.38-.99,.49-1.97,1-3.09,1.57,.06-1.14,.16-2.07,.16-2.99,0-1.66-.8-2.36-2.59-2.3,1.18,2.27,.68,5.76-1.14,7.86-.34-.06-.68-.12-1.02-.18Z"/>
      <path d="M57.42,63.67c-.46,.57-.61,1.39-.79,1.85,.07,.61,.06,.92,.15,1.19,.32,.91,.79,1.71,1.9,1.79,.95,.07,1.82-.59,2.02-1.71,.15-.85,.21-1.82-.06-2.62-.19-.58-.92-1.26-1.5-1.37-.52-.1-1.33,.39-1.72,.87Z"/>
      <path d="M79.96,63.11c1.06,0,1.53-.71,1.82-1.54,.38-1.1,.28-2.2-.3-3.24-.66-1.19-2.19-1.36-2.92-.23-.43,.67-.64,1.48-.85,2,.1,.66,.1,1.05,.23,1.39,.35,.92,.91,1.61,2.03,1.62Z"/>
      <path d="M28.17,100.62c-1.71-2.16-4.8-2.6-7.22-1.54,1.1,.91,2.18,1.87,3.34,2.73,1.53,1.13,3.51,.94,5.06-.45-1.86-.07-3.7,.21-5.26-1.05,1.29,.1,2.59,.2,4.09,.32Z"/>
      <path d="M119.26,66.76c-2.39,.16-3.25,.85-3.99,3.42,.76-.68,1.33-1.22,1.93-1.71,.96-.77,1.43-.92,2.03-.75-.84,.69-1.71,1.4-2.75,2.26,2.65,.06,4.5-1.2,5.5-3.5-.89,.1-1.81,.22-2.72,.28Z"/>
      <path d="M85.8,29.07c.85-.77,1.74-1.58,2.62-2.38,.1,.1,.21,.2,.31,.3-.78,.92-1.56,1.85-2.35,2.77,2.2-.98,4.19-2.14,4.91-4.66-3.46,.95-5.85,2.56-5.49,3.97Z"/>
      <path d="M89.19,20.5c-1.43,.65-2.21,1.96-2.21,3.4,.3-.39,.62-.81,.94-1.23,.07,.05,.14,.11,.21,.16-.37,.74-.74,1.49-1.14,2.3,2.58-.7,1.57-2.93,2.2-4.63Z"/>
      <path d="M45.03,118.02c1.62-.08,2.77-.89,3.86-2.29-.82,.44-1.44,.76-2.05,1.09-.05-.09-.1-.17-.14-.26,.73-.49,1.45-.98,2.24-1.51-1.45-.78-2.35,.3-3.91,2.98Z"/>
      <path d="M52.7,2.37c-.09-.02-.19-.04-.28-.06-.38,1.72-.76,3.44-1.21,5.43-.3-.6-.46-.9-.61-1.2-.02,.01-.04,.03-.05,.04,.26,.91,.51,1.82,.71,2.52,.46-2.14,.95-4.44,1.45-6.74Z"/>
      <path d="M16.47,95.14c-.01,.26,.53,.78,.82,.77,.35-.01,.69-.45,1.34-.92-.69-.42-1.09-.85-1.42-.8-.31,.05-.72,.6-.74,.95Z"/>
      <path d="M110.88,94.68c-.36,.1-.84,.56-.84,.88,0,.29,.5,.76,.86,.84,.23,.05,.59-.44,1.11-.86-.52-.42-.9-.92-1.12-.86Z"/>
      <path d="M53.49,1.61c.3,.02,.63-.39,1.21-.8C54.06,.4,53.7,0,53.34,0c-.25,0-.68,.58-.67,.89,0,.26,.52,.7,.82,.71Z"/>
      <path d="M115.42,95.92c.01,.25,.49,.67,.76,.67,.29,0,.57-.41,1.05-.79-.52-.32-.86-.7-1.14-.66-.27,.04-.68,.51-.66,.78Z"/>
      <path d="M48.33,3.84c.27,0,.55-.29,1.03-.59-.46-.35-.74-.72-.98-.69-.25,.03-.57,.41-.63,.69-.04,.16,.37,.59,.58,.59Z"/>
    </g>
  </g>
</svg>