<?xml version="1.0" encoding="UTF-8"?>
<svg id="_图层_2" data-name="图层 2" xmlns="http://www.w3.org/2000/svg" viewBox="0 0 89.05 108.57">
  <defs>
    <style>
      .cls-1 {
        fill-rule: evenodd;
      }
    </style>
  </defs>
  <g id="_图层_2-2" data-name=" 图层 2">
    <path class="cls-1" d="M86.7,47.18c.74-2.92-.72-4.37-2.1-6.74,1.19-7.54-3.67-7.12-6.9-10.98,2.46-.41,1.94,.63,3.53,.84,.53-2.35,.12-4.48-2.04-5.73-1.98-5.33-1.53-7.08-8.12-6.87-2.13-3.24-1.2-3.26-5.14-4.65-2.25-2.5-1.94-4.42-6.08-5.1-3-3.36-2.68-4.07-7.68-3.48-6.03-5.24-4.53-1.08-8.86-3.03-4.36-1.96-4.87-1.99-9.11,.32-5.64-.44-4.9-2.11-9.75,2.44-4.93,.27-5.97-.67-8.16,4.41-6.01,1.48-6.28,2.42-8.04,8.03-4.53,2.97-5.15,3.82-4.48,9.47-3.12,3.62-3.92,5.93-2.05,10.57-1.64,3.25-2.3,3.64-1.14,7.49,1.32,4.39-.17,4.01,.13,8.6,.24,3.62,2.5,4.16,2.46,7.66-.05,4.66,.47,4.27,3.39,6.73,.82,5.95-.29,7.05,6.56,8.79l.81,2.29c-1.16,2.19-4.91,4.51-4.35,7.28l1.11-.21c-.79,1.86-3.33,2.04-2.34,4.24l2.05,.45c-1.34,1.53-4.14,2.68-3.16,5.61l2.49,.26-1.79,2,.5,1.65c1.59,.78,2.43,.3,4.05,.17l-1.05,1.3,.45,1.89,4.89,.5,1.71-.27-1.45,2.04,.88,.98,1.31,.04h1.4c1.38,0,2.22-.39,3.44-1.01l-.24,2c1.9,.15,4.45-.85,6.18-1.66l.1,1.66c1.52,.09,2.46-.62,3.56-1.64l1.24,.68c1.74-.47,2.38-1.24,3.17-2.82h.7c3,.73,2.41,3.51,4.78,5.19l.77-.73,.04-.96,.06-.72-1.04-3.06c2.45,.41,4.91,4.61,7.94,5.12l.21-1.51-3.4-3.3,.34-1.07,4.94,.61c-2.54-4.82-6.39-1.7-9.78-6.17,.85-3.13,3.26-6.27,5.58-8.07l2.05-.07,.86-.89c1.22-.16,1.48-.47,2.71-.44l1.31,.1c2.25,2.3,7.8,3.49,7.16,7.96l-.43,2.43c.3,1.4,.24,2.1,1.71,2.39l.09-1.97,.94-.81c3.97,.5,3.79,5.3,7.52,5.84l-1.21-2.62-.06-1.23,1.55-.7,4.08,1.91,1.38-.06c-.5-2.89-2.1-1.82-3.44-3.37l2.74,.23c-.53-2.62-9.38-3.6-11.81-6.57l1.78,.02c5.19-3.19,4.63-11.43,6.6-13.66,1.23-.62,5.63-5.32,6.17-6.4,3.27-1.21,4.13-4.23,6.31-6.6,.14-.95,.44-1.51,.44-2.35,0-.69-.2-1.12-.35-1.75l.98-.22,.07-3.97,.68-1.07c.06-1.56-1.76-5.91-2.35-7.65Zm-9.78-21.24l1.3-1.2c1.52,.93,2.94,1.99,2.81,3.92l-.05,1.02-2.28-1.55-1.81,.16-.07-1.38,.08-.98Zm-2.31,2.29l1.32-2.41c.03,.96-.13,.79-.13,1.79,0,3.69,8.26,5.03,8.03,10.82l-.04,1.31-1.97,1.29-.79-.15h-.7c-2.44-.59-3.61-2.14-4.19-4.54v-1.4c0-1.37-.17-.7,.41-1.75l-1.97-3.4,.16-.79-.15-.78Zm-1.66-5.49l-.18,1.15-.91-.94,1.09-.2Zm2.08,22.76c1.62,2.18,3.54,4.47,6.36,5.16h1.4c1.62-.44,2.58-2.36,3.78-2.73l.07,1.69c-.61,1.21-1.74,1.9-2.89,3.05l-1.34,.12-1.73-1.12-.99,.79c-1.81-.23-2.57-1.13-2.93-2.81l-.94,.75-1.6-2.05,.16-1.46-1.29-.11-.9-1.64,.11-1.1-.95-1.15-.12-1.29c-.03-1.12-.06-.55,.32-1.36l-.41-2.82c1.27,.3,2.22,5.88,3.86,8.09ZM17.47,99.22l-.02-1.11c2.19-3.76,6.59-8.18,10.27-10.38l2.33,.97,1.71,.1-3.11,3.06c-2.48,1.64-5.67,6.22-9.05,8.76l-1.43-.38-.71-1.02Zm-.33-26.22l.02,.7-.14,1.27-2.58,2.19c-.28-2.53,1.71-6.22,3.81-7.56l-1.19,2.66,.09,.74Zm.03-8.76c-.17,.64-.38,1.07-.38,1.78l-.1,.74,.69,1.81-1.95-.89-.12-1.38,1.42-1.79-1.65-1.37-.04-1.31-.21-.85,1.86-2.26c-.09,.82-.26,.82-.26,1.72l-.1,2.14,.83,1.67Zm-3.87-3.75l-1.93-2.74,.19-.81c0-1.04,.5-1.9,1.14-2.7l1.31-.1,2.79,.02,3.14-.35,3.76-.62-.33,1.3-1.71-.05-1.02,.42c-4.53,.1-5.53,2.76-7.33,5.65ZM37.16,22.31l-1.18-.38-2.16,1.46-4.12-10.44c.46-1.9,1.01-2.29,2.41-3.17h1.11s2.39,1.41,2.39,1.41l.04,1.41-.02,.7,1.52,9.01Zm30.33,20.3l-1.09,.75-1.34-.08-.7-.74-.1-.96,.11-.96c1.03-1.03,1.98-1.52,3.37-1.4l-1.24,2.29,1,1.1Zm-4.28-11.63l3.29-3.74,1.34,2.78-.08,.73-.04,.96-.98,.87-3.53-1.61Zm3.15-5.46l-.04,.96-4.09,4.51-2.42-1.42-1.94-.09,6.28-6.52,1.81,.5,.47,1.34-.07,.72Zm-3.18-2.88l-5.72,6.26c-1.18-1.65-1.26-1.86-3.61-2.05,.35-1.75,4.6-6.77,6.22-7.27h.7l1.31,.04,1.2,1.66-.11,1.36Zm-8,6.31l-1.03,.07-.99-.07c-.08-1.18,.83-1.02,1.98-.93l.04,.93Zm-1.91-3.54c-1.73-1.21-.96-1.72-3.64-2.08,1.46-2.73,3.04-6.84,5.91-7.59h.7c1.67,0,1.44,.49,2.35,1.49l.3,1.9-5.62,6.28Zm-11.77,2.93l.07-.73v-1.75l.44-3.08,1.29-.48,1.36,.48-.29,2.38-.51,3.62-1.93,.22-.42-.67Zm6.29-4.52l.08,1.34c.04,1.27-.55,2.54-.77,3.78l-2.7-.4,.32-3.03,1.03-2.05,1.42-.04,.63,.4Zm-1.95,25.42l-12.99,8.4h-1.09c-1.12-.81-2.17-1.1-2.06-2.8l.04-.96,1.09-1.04c4.44-.64,11.38-5.86,14.55-6.28l-.42,1.67,.87,1.01Zm-4.62-21.28v1.4l-1.4,.35-1.85-5.24c.87-1.4,1.29-2.09,3.02-1.51l.28,1.51-.05,3.5Zm-1.79,1.79l-.31,.66-.57,.3-1.52-1.7-2.17-3.08,.11-1.37,.95-.85,1.02,.11,2.49,5.93Zm-2.75-.39l1.35,1.97-1.23,1.47-1.17-.99-4.28-4.09,.48-1.79,.99-.41c2.59,.68,1.91,2.46,3.86,3.85Zm-1.4,2.79l1.12,1.03-.95,1.65-3.32-1.63-3.83-2.03-.04-1.49,.48-.94,.93-.43,1.33,.05,4.28,3.8Zm-6.95-.38l3.46,1.78,3.48,2.13-.83,1.97-3-.61c-1.87-1.3-4.04-1.03-5.62-3.11v-.76s1.15-1.29,1.15-1.29l1.35-.11Zm-1.78,4.22l4.54,1.4,3.1,1.01-.4,3.12-1.3,.07h-.7s-3.14-.36-3.14-.36l-3.04-.82-1.06-1.01-.1-.96c-.09-1.63,.78-2.12,2.11-2.45Zm-2.04,6c.9-.33,.66-.41,1.69-.41,1.1,0,.9,.24,2.09,.35l5.53,.73-.2,3.01-1.14,.11-2.1-.02-2.78,.41-2.46-.06-1.01-.79-.04-1.31-.07-.72,.48-1.31Zm1.34,4.83h8s-.42,1.76-.42,1.76l.8,1.38-8.03,1.05c-.46,.07-.93-.04-1.36-.06l-.75-1.31-.02-1.11c.56-.97,.6-1.57,1.78-1.72Zm2.11,4.99l5.29-.86,.28,.41-6.98,2.44-1.34,.29c.24-1.21,1.54-2.06,2.75-2.29Zm2.87,13.22l-6.23,4.35-.84-.21-.35,.02-1.31-.1-1.09-1.05-.04-.96v-.7c.71-2.91,5.09-4.75,7.62-5.18,.26,3.33,.69,1.93,2.25,3.83Zm.51,.68c.37,3.32,1.06,3.12,3.29,4.51-.82,1.15-4.96,4.54-6.34,4.54h-.7c-1.52-.37-2.44-1.06-2.44-2.79,0-2.39,4.34-4.91,6.2-6.26Zm2.5-3.84l-.95-.8-.09-1.33,.1-.96c1.43-1.45,11.39-8.15,12.77-8.41l.11,1.25,1.3,1c-2.04,1.63-11.49,9.03-13.25,9.24Zm1.05,1.69c1.13-1.94,10.38-9.26,12.19-9.69l.07,1.34,1.23,2.28-10.54,9.38-1.43-.18-1.57-1.98,.06-1.15Zm3.97,3.62l10.38-9.23c1.08,1.88-.23,.88,1.83,2.81l1.63,.14c-.98,1.51-9.87,10.78-11.14,11.08-1.66-.4-2.39-1.13-2.79-2.79l-.02-.7,.11-1.3Zm8.69-38.21c.23-1.35,1-3.89,2.73-3.78l.96,.04,.7,.74,.12,1.34-.76,1.31-3.75,.35Zm6.22-14.26l-.04,.96c-2.12,2.09-3.37,5.12-4.84,7.48l-1.05-.76-2.03-.44,.28-1.66c.62-2.56,1.18-7.3,4.19-8.03h1.4c1.09,.3,2.18,1.14,2.09,2.44Zm-5.67-2.31c-1.09,2.2-2.35,4.72-2.36,7.2l-.41,.28-.21,1.79-1.77-.78-1.35,.47-.1-1.42v-4.54s.47-3.75,.47-3.75c.88-.91,1.25-1.49,2.69-1.49,1.29,0,1.47,.41,2.44,1.05l.61,1.18Zm-6.9,2.66v4.89l-.02,1.34-1.72,.07-1.99,.74-1.18-8.07,.03-2.1,.04-1.37,1.59-1.23,.81,.15h.7l2.43,1.38c.17,2.17-.68,2.22-.68,4.21Zm-10.69,2.31c.56,1.7,2.24,5.2,2.25,6.7-1.79,.18-2.04,.48-2.96,1.75l-6.86-8.54-.26-1.18,.02-.35v-.7c.51-1.87,1.51-2.37,3.14-2.79h.7c2.74,0,3.31,3.12,3.97,5.11Zm-1.5,8.89c-2.44,1.88-1.11,.76-2.94,3.05l-8.99-7.21,.02-1.46,.02-.7c.51-2.09,1.93-2.72,3.87-2.82,1.46,.85,7.6,7.7,8.03,9.14Zm-11.64-3.13c2.92,2.93,5.14,4.82,8.41,7.17l-1.89,2.42,.18,1.49-11.08-4.56-.49-1.29,.07-.72v-1.05c.4-1.66,2.19-3.6,3.84-3.49l.96,.04Zm-4.1,7.64l10.94,4.4-1.7,2.46,.18,.82c0,1,.16,.83,.26,1.72-3.8-1.8-12.83-.07-12.83-5.56,0-2.04,1.52-3.42,3.14-3.84Zm-1.4,8.38h.7c3.14,0,7.03,1.43,10.1,1.84l-.77,1.61,.1,.74v.7l.74,1.99-1.44,.11h-.7s-2.78-.42-2.78-.42l-5.6,.06-1.31-.04-1.64-2.67,.15-.79v-.7c.4-1.64,1.01-2.07,2.44-2.44Zm-2.21,9.72l1.25-2.35,1.31-.04,6.3-.06,2.78,.41,.7-.02,1.35,.1-.66,1.32v1.05l-.13,.77,1.1,2.25-4.47,.82-3.14,.39-3.15-.05h-.7c-1.76-.43-1.5-.65-2.44-2.09l-.12-2.5Zm9.55,9.84v-.7l1.4-2.1,6.28-1.05c-.21,.86-.35,1.1-.35,2.09v1.05c.3,1.25,.89,1.72,1.81,2.44-1.36,1.07-5.89,2.56-7.65,2.35-1.09-1.08-1.49-1.76-1.49-3.4v-.7Zm2.35,18.54c-.15,1.27-.61,1.08-.61,2.41,0,1.15-.13,.69,.29,1.63-1.3,1.04-3.12,2.31-4.48,3.26-1.53,1.08-2.59,2.74-4.07,3.78-2.25-3.04,6.75-9.57,8.87-11.08Zm.09,4.76l2.09,.79,2.06,.1c-.37,.57-5.47,4.36-6.38,5.02-2.38,1.72-4.05,3.8-6.16,5.43l-1.01-.85-.07-1.34c3.27-4.36,5.13-5.81,9.46-9.15Zm4.87,1.55l-.4,1.68,.67,2.02c-4.23,3.32-6.72,5.73-10.47,9.47l-.96,.04c-1.08,.07-.48,0-1.26-.22l-.16-1.56c1.99-3.42,9.01-9.61,12.59-11.44Zm-4.52,17.06c.73-2.65,5.48-6.1,6.98-8.38,1.42-.94,2.57-3.17,4.16-3.4-.4,.81-.32,.26-.32,1.31,0,1.27,.39,1.51,1.14,2.47l-1.49,1.72c-2.47,1.63-5.66,6.74-9.08,7.68h-1.4v-1.4Zm10.82-19.9l-.7,.02-1.31-.1-1.44-1.4-.04-1.31v-1.05c.57-2.36,3.8-4.83,5.85-5.91,.65,3.05,.67,2.28,2.62,4.11l1.41,.27-5.03,5.33-1.36,.04Zm1.75,1.4c.41-1.71,3.63-4.49,5.01-6.23,1.03,1.43,.93,2.58,3.02,3.08h.7l.7-.02,1.37,.11c-1.38,2.13-4.62,6.54-7.3,6.54l-.86,.22-2.59-2.05-.04-.96v-.7Zm9.06-8.7l-.17-1.25,9.61-10.71c.97,1.57,1.2,2.34,3.43,2.56-.2,1.08-3.45,4.75-4.35,6-1.33,1.84-2.8,5.46-5.37,5.46h-.7c-1.7-.41-1.63-.62-2.46-2.07Zm6.3-26.57v-1.05l.24-1.6,2.55-.2c3.05-.18,7.09,2.44,9,4.68,1.7,1.98,3.22,7.57,3.22,10.05v2.44h-1.4c-6.07,0-13.62-8.3-13.62-14.32Zm15.71,18.16l1.07,1.43-.37,.31-.72,.48-1.58-.92,1.21-3.37-.03,1.4,.42,.67Zm3.14-3.14c.7,0,1.13-.2,1.73-.35l1.76,2.44-1.49,1.3-1.3,.11-1.31-.05-1.48-2.06,.09-2.07c.92,.49,.93,.67,2.01,.67Zm-1.89-4.97l1.32-2.41,1.1,2.63,2.73,1.12-1.59,1.8-1.32,.09-.96-.06-1.05-1.09-.1-1.31-.13-.78Zm10.71,3.89c-1.04,1.7-.51,1.99-2.53,2.48h-1.4l-1.3-1.49-.11-1.3c-.03-1.08,.28-1.51,1.06-2.16,.68,1.1,.94,1.79,2.44,2.15h1.4l.44,.31Zm-4.22,8.41c-.77,.61-1.4,1.05-2.5,1.05-1.63,0-2.43-.78-3.17-2.07l.1-1.29,3.35-.69c.74,1.86,.64,1.75,2.22,3Zm-9.78-1.03h2.38s.64,.02,.64,.02l1.47,2.44-1.68,1.16-1.13-.14c-1.56,.12-1.77-2.33-1.69-3.48Zm1.34,4.53l3.11-.29,.11,1.61,.95,.97-2.42,1.21h-1.05l-1-1.13-.04-.96-.07-.73,.42-.67Zm4.41,1.02l-.72-2.65c1.07,.09,.89,.23,1.89,.23,1.08,0,1.08-.18,1.99-.66l.53,1.26,1.26,.68c-.97,.78-2.16,1.22-3.43,1.18l-1.53-.04Zm4.76-5.6l-1.4-1.44c-.03-.27-.16-.52-.08-.96l.15-1.18,2.64-.22c.96-.05,.4-.11,1.34-.29,.23,1.27,.52,1.27,1.4,1.92l-2.62,2.35-1.43-.18Zm3.06-8.34l-1.31-.04c-1.09-1.13-1.32-1.15-1.51-2.79l1.04-1.45,1.18,1.04,2.71,.51,.34,.28-2.44,2.44Zm1.09,1.08l2.67,1.52,1.75-.8c-.22,1.79-1.33,2.64-3.09,3.12l-.94-.48-.44-1.3,.06-2.07Zm4.01,.51l-1.29-.18-.94-.46-.5-1.27,.07-1.42,1.04-.77,1.01,.82,2.77-1.02,.07,1.67-2.23,2.64Zm-11.1-9.91c.32,3.08,1.12,2.79,3.26,4.13l-1.73,1.17-.78-.13-.96-.04c-.79-.84-1.13-1.19-1.13-2.4,0-1,.16-.83,.26-1.72-.97,.46-.45,.32-1.66,.32h-1.05l-1.7-.69-.08-1.43,1.74-2.33-1.36-.1-2.07-1.01,.07-1.68c.93-.94,1.8-1.41,2.99-1.43l.07,1.34,1.2,2.25,.2,1.24c.41,1.74,.96,2.19,2.72,2.5Zm-2.06-17.12c-.76,1.09-1.37,1.2-1.37,2.75,0,1,.15,.82,.29,1.69-1.47-.01-1.9-.52-2.76-1.66v-.76c1.35-1.8,.78-1.03,2.44-2.09l1.4,.07ZM9.45,68.84l-.03-4.17c-1.89-.29-2.25-1.61-3.12-3.16l-.09-1.79,.53-2.8c-2.19-1.59-2.83-3.12-2.86-5.91l-.02-1.76,1.38-2.75-1.73-2.79-.11-2.91,2.22-3.07-1.08-2.05,.02-2.12v-.35s-.14-2.21-.14-2.21l2.48-3.38,.59-5.81,.72-1.37,3.31-1.26-.03-2.76,1.62-2.92c2.42-.96,2.13-1.65,5.31-2.02,2.09-4.93,2.86-4.47,8.09-4.48l3.51-2.59,4.89,.91,1.82-1.71c3.88-.42,4.2-.61,7.63,1.61l3.16-.3c2.34,1.32,1.95,.96,3.53,3.06,6.75,.34,2.22-.21,6.92,2.91l1.42-.04c2.18,1.23,2.54,.83,3.83,3.14l.05,1.76,1.71-.02c2.06,1.16,2.27,1.03,3.58,3.21l-1.5,1.71-1.71-.05c-.33-2.16-.51-1.88-1.85-3.42l-1.65-.09v-1.4s-3.5-2.76-3.5-2.76l-1.82,.08c-1.84-2.59-2.94-3.32-6.31-3.13l-.62-.76-2.79-1.75h-1.4c-1.37,0-.7-.17-1.72,.36l-3.17-1.41h-1.4l-.76-.12-3.08,1.58c-1.05-.58-.38-.41-1.75-.41h-2.09l-.84-.22-3.09,2.27-1.31,.04h-2.44c-2.18,.53-3,2.03-3.72,3.96-3.62,1.22-5.99,2.55-6.49,6.77-1.95,1.54-3.03,1.31-3.75,4.28v.7l.02,2.1-.1,1.31c-1.49,1.52-2.7,3.04-2.7,5.33v.35c0,1.29,.34,2.18,.95,3.25l-1.65,4.09v1.4c0,1.36,.3,2.08,1.02,3.1l-.33,2.48c0,4.95-.5,3.5,2.12,6.95-.15,1.24-.38,1.13-.38,2.47v2.09c.41,1.7,1.19,2.05,2.35,3.23,.79,6.71,2.15,4.07,3.23,6.89v2.09c-2.91-.26-3.61-1.15-4.9-3.47Zm8.38,6.88l2.74,1.36c-.54,.47-6.74,4.9-6.83,4.92-1.34-1.85,2.69-5.18,4.1-6.28Zm-7.2,8.92c-.06-1.46,.84-2.83,1.93-3.58l.05,1.37-.05,1.46-1.94,.75Zm-.95,4.55c-.41-1.29,.72-2.82,1.69-3.58l-.08,3.37-1.61,.22Zm-1.05,5.24c-.42-1.33,1.36-3.48,2.62-4.2l-.83,1.6,.08,.74c0,.79,.18,1.39,.29,2.07l-.99,.03c-1.11,.04-.44,.02-1.17-.23Zm2.56,4.47l-1.51-.28c-.5-1.69,.77-2.52,2.12-3.23l.17,1.99,.91,.9c-.55,.4-.8,.68-1.69,.63Zm4.89,3.44l-2.64-.22-.18-1.21c.69-.9,1.41-1.81,2.44-2.01l.1,1.28,.98,.76,2.06,.46-2.76,.94Zm3.84,2.79l-1.34-.06c.02-1.56,1-1.77,2.03-2.44,.95,.53,1.66,.76,2.79,.76h.35l1.37,.04c-1.15,.9-3.68,1.74-5.21,1.71Zm5.94,1.05l-.99-.06c.01-1.51,.45-1.68,1.46-2.67,.77,.54,.54,.64,1.63,.64s1.18-.16,2.06-.26c-.7,1.08-2.77,2.41-4.16,2.35Zm3.23-2.69l-.82-.08-.95-.79-.09-.98c-.1-1.91,4.4-5.17,5.6-6.98l1.85-1.95,4.02,.62c-.39,1.98-4.29,5.06-5.53,6.92l-4.1,3.25Zm1.95,2.26l.3-1.68,1.14,.36,1.07-.31c-.31,1.08-1.26,1.65-2.51,1.64Zm2.61-2.53l-1.49-.68,1.72-1.6c1.97-1.29,4.82-6.28,6.25-7.3l.04,1.37v1.05c-.51,2.11-2.36,3.52-3.49,5.24l-3.03,1.93Zm1.47,2.04l.18-1.83,1.04,.31,.68-.36v.35l-1.9,1.53Zm2.25-2.93l-.67-.06,.32-.64c1.38-.92,3.31-3.2,3.9-4.85l1.24-.13,1.14-.95c-.52,1.88-3.93,6.39-5.94,6.63Zm8.38-12.57h-2.09c-1.47-.36-2.9-1.43-2.81-3.14l.15-.92,5.37-6.03c.37,1.74,1.19,2.65,2.88,3.11h.7l.35-.02,1.37,.11c-.99,1.89-3.95,6.42-5.91,6.89Zm7.33-10.82h-.7c-1.83,0-1.91-.33-3.1-1.48l-.04-.96v-.7c.41-1.71,6.99-9.92,8.48-11.78l2.35,1.66h2.44c-.6,2.64-7.01,12.68-9.43,13.27Zm9.24,7.57l.26-2.25,2.11-.69-1.03,4.09-1.34-1.15Zm3.59,1.76l-1.57,.04,1.55-5.99,2.51-.91,.05,1.02c.13,1.96-1.16,4.49-2.53,5.85Zm3.14,.35l-1.19,.04,1.75-7.82,3.62-2.23c-.27,2.47-2.5,7.85-4.19,10.01Zm1.84-11.08l-1-.79-.06-.96,.07-.97,2.85-.25,1.61,1.32-.33,.6-3.14,1.05Zm3.9-3.2l.64-1.69h.7l.35-.02,1.37,.11c-.79,1.13-1.51,1.68-3.05,1.6Zm3.12-2.99l-.74-.09h-.7c-1.5-.36-1.78-.53-2.04-2.04l1.69-.06c.86-.01,.47,0,1.05-.41l.93,1.57,1.13,.33-1.32,.7Zm1.45-1.93l-.71-.69,.71-2.95,2.74-.42,1.1,.91,1.28,.15c-1.05,2.02-2.83,3.27-5.12,3Zm5.88-4.42h-.76s-1.54-1.79-1.54-1.79l.82-2.79,1.05,.76,2.08-.37c.13,1.67-.32,3.19-1.65,4.19Zm2.07-5.27l-.67,.38-1.56-.16-.22-.91,.46-2.06,1.3,.42,1.23-.88,.16,1.13c.03,1.01-.27,1.22-.71,2.1Z"/>
  </g>
</svg>