<?xml version="1.0" encoding="UTF-8"?>
<svg id="_图层_2" data-name="图层 2" xmlns="http://www.w3.org/2000/svg" viewBox="0 0 123.47 134.82">
  <g id="_图层_2-2" data-name=" 图层 2">
    <g>
      <path d="M70.07,13.56c.31-.59,.54-.97,.71-1.38,.4-.97,.14-1.75-.75-2.31-.76-.48-1.62-.59-2.5-.64-2.12-.12-4.1,.43-6.04,1.18-5.23,2.02-9.45,5.38-12.89,9.76-3.42,4.35-5.71,9.26-7.15,14.58-.04,.14-.05,.29-.08,.49,.16,0,.31,.03,.44,0,1.69-.43,3.29-1.11,4.8-1.99,.38-.22,.59-.5,.68-.97,.5-2.43,1.39-4.71,2.69-6.81,1.07-1.73,2.37-3.25,4.29-4.09,1.2-.53,2.46-.79,3.76-.44,1.42,.38,2.2,1.65,1.97,3.09-.09,.56-.36,.95-.92,1.09-.46,.12-.84-.07-1.11-.42-.33-.42-.33-.89-.07-1.35,.1-.18,.22-.34,.32-.5-.35-.55-.79-.41-1.11-.14-.56,.48-1.13,1-1.56,1.6-1.41,1.96-2.41,4.13-3.29,6.37-.51,1.32-.84,2.69-.9,4.1-.03,.77,.03,1.57,.22,2.31,.36,1.39,1.38,1.63,2.39,.59,.45-.47,.87-1.01,1.18-1.58,.93-1.71,1.85-3.43,2.66-5.2,.96-2.09,1.81-4.24,2.7-6.36,.17-.41,.31-.85,.43-1.28,.15-.55,.34-1.1-.15-1.69,.33-.22,.57-.45,.86-.55,1.83-.65,3.47,.53,3.54,2.6,.02,.67-.12,1.37-.28,2.03-.48,1.99-1.37,3.83-2.25,5.67-.66,1.38-1.37,2.73-2.01,4.12-.28,.62-.47,1.29-.63,1.95-.05,.21,.05,.55,.21,.7,.25,.24,.58,.1,.81-.11,.39-.37,.79-.74,1.13-1.16,2.38-3,4.31-6.27,5.59-9.89,.47-1.32,.91-2.66,1.32-4,.13-.43,.1-.91,.08-1.4,.58-.83,1.47-.84,2.37-.64,1.37,.31,1.72,1.42,1.88,2.77,.44-.46,.77-.84,1.14-1.18,.87-.8,1.83-1.44,3.06-1.56,1.56-.16,3.49,.79,4.25,2.18,.75,1.36,.95,2.81,.78,4.34-.32,2.75-1.21,5.31-2.61,7.68-.6,1.02-1.41,1.93-2.12,2.89-.08,.11-.17,.21-.33,.43,1.43-.38,2.45-1.16,3.34-2.09,2.61-2.73,4.76-5.77,6.03-9.37,.48-1.36,.94-2.72,1.36-4.09,.13-.43,.09-.92,.15-1.6,.56-.65,1.48-.62,2.39-.36,1.27,.36,1.64,1.37,1.69,2.75,.44-.44,.78-.79,1.14-1.13,.77-.73,1.62-1.37,2.68-1.56,1.87-.34,4.33,.61,5.12,3,.54,1.62,.5,3.25,.15,4.88-.68,3.14-1.92,6.04-3.97,8.55-.22,.27-.46,.53-.81,.94,1.05-.18,1.74-.69,2.4-1.22,1.48-1.2,2.61-2.71,3.74-4.23,2.16-2.9,3.4-6.25,4.56-9.62,.19-.55,.42-1.15-.07-1.66,1.27-1.29,3.44-.87,4.06,.72,.36,.93,.33,1.88,.13,2.83-.42,1.98-1.27,3.8-2.13,5.61-.78,1.65-1.6,3.29-2.37,4.94-.24,.51-.37,1.07-.54,1.61-.11,.32-.06,.65,.25,.77,.21,.08,.57,.06,.73-.08,.5-.42,.99-.88,1.38-1.4,3.14-4.09,5.38-8.63,6.65-13.63,.12-.47,.08-.99,.13-1.64,.48-.59,1.38-.85,2.36-.56,.99,.29,1.68,1.13,1.77,2.16,.1,1.1-.22,2.14-.53,3.17-1.02,3.45-2.49,6.74-3.88,10.05-.43,1.02-.87,2.04-1.31,3.05-.13,.32-.25,.65-.44,1.16,.94-.64,1.56-1.32,2.15-2.02,2.59-3.1,4.79-6.44,6.33-10.19,.06-.14,.11-.34,.21-.38,.23-.09,.51-.16,.75-.12,.13,.03,.29,.3,.3,.47,.02,.26-.04,.54-.15,.78-1.94,4.29-4.34,8.28-7.71,11.62-.78,.78-1.69,1.43-2.57,2.1-.34,.26-.6,.54-.76,.96-.73,1.96-1.49,3.92-2.26,5.87-.73,1.86-2.7,3.19-4.69,3.23-1.1,.02-2.15-.04-3.1-.69-1.69-1.17-1.91-3.01-.4-4.39,.74-.68,1.65-1.18,2.51-1.72,.81-.51,1.67-.94,2.5-1.42,.59-.34,.95-.82,1.18-1.5,.54-1.62,1.2-3.19,1.81-4.79,.04-.11,.08-.21,.19-.54-.29,.24-.44,.34-.56,.47-.77,.85-1.56,1.67-2.7,2.01-1.31,.39-2.4-.14-2.88-1.43-.41-1.09-.45-2.22-.31-3.36,.02-.14,.04-.29,.08-.58-.23,.2-.35,.3-.46,.41-.89,.97-1.72,2.01-2.68,2.91-1.64,1.52-3.63,2.31-5.87,2.37-.99,.02-1.98-.02-2.97-.08-1.89-.12-3-1.38-2.78-3.12,.08-.68,.32-1.03,.83-1.14,.46-.1,.91-.05,1.23,.35,.33,.41,.31,.96-.03,1.51-.08,.12-.17,.23-.26,.34,.56,.42,.77,.46,1.27,.04,.46-.38,.92-.79,1.26-1.28,2.08-3.01,3.7-6.23,4.27-9.89,.17-1.06,.22-2.15-.1-3.21-.31-1.02-1.07-1.34-2.02-.85-.94,.49-1.56,1.29-2.15,2.13-.98,1.4-1.76,2.9-2.41,4.5-1.77,4.35-3.67,8.66-5.49,12.99-.81,1.93-1.58,3.88-2.31,5.84-.33,.88-.7,1.78-.47,2.78,.08,.37-.2,.6-.51,.76-.76,.39-1.87,.09-2.4-.66-.58-.83-.73-1.75-.55-2.74,.39-2.16,1.1-4.23,1.85-6.28,.64-1.74,1.33-3.46,1.99-5.2,.08-.22,.14-.44,.09-.78-.22,.2-.45,.39-.65,.62-2.04,2.27-4.55,3.46-7.63,3.36-.78-.02-1.56-.02-2.34-.1-.85-.09-1.64-.34-2.18-1.09-.51-.7-.63-1.47-.45-2.29,.15-.67,.66-1.01,1.32-.9,.61,.1,.97,.56,.87,1.24-.05,.36-.26,.7-.39,1.07,.53,.35,.76,.38,1.28-.11,.56-.53,1.15-1.09,1.54-1.74,.86-1.44,1.63-2.93,2.39-4.42,.89-1.75,1.42-3.63,1.58-5.58,.07-.82,.02-1.68-.15-2.49-.23-1.11-1.16-1.46-2.13-.85-.45,.28-.88,.63-1.22,1.04-1.38,1.64-2.4,3.47-3.22,5.47-1.95,4.8-4.05,9.53-6.04,14.32-.77,1.85-1.42,3.75-2.1,5.63-.15,.41-.21,.88-.21,1.32,0,1.1-.67,1.62-1.72,1.27-.99-.32-1.68-1.17-1.69-2.3,0-.8,.05-1.64,.28-2.39,.8-2.57,1.68-5.11,2.54-7.66,.25-.73,.54-1.44,.7-2.25-.16,.14-.31,.29-.47,.43-.64,.58-1.23,1.24-1.94,1.71-1.6,1.07-3.25,.45-3.81-1.4-.19-.62-.25-1.28-.4-2.1-.29,.43-.5,.74-.71,1.05-.55,.83-1.19,1.58-2,2.17-2.18,1.56-5.5,.57-6.45-1.95-.31-.82-.46-1.71-.7-2.63-1.82,1.02-3.79,1.69-5.92,2.16-.07,.55-.16,1.1-.2,1.66-.19,2.59,.02,5.15,.78,7.64,.05,.17,.1,.35,.14,.52,.19,.74,.06,1.19-.61,1.49-1.54,.71-3.13,.74-4.72,.11-.42-.17-.65-.53-.79-.93-.58-1.68-.96-3.4-.98-5.18-.01-1.14,.03-2.28,.05-3.42,0-.33,0-.65,0-1.04-2.5-.11-4.94-.21-7.4-.32-.48,.84-.95,1.72-1.46,2.56-1.72,2.81-3.95,5.12-6.85,6.72-1.51,.84-3.14,1.32-4.9,1.3-3.16-.03-5.27-2.51-4.74-5.61,.54-3.18,2.43-5.34,5.24-6.75,1.91-.96,3.96-1.34,6.11-1.04,.44,.06,.89,.08,1.36,.12,1.38-3.52,1.67-7.24,2.39-10.89-1.45-1.48-2.85-3-4.35-4.42-1.25-1.19-2.77-1.87-4.55-1.86-2.48,.02-4.44,1.57-4.99,3.98-.1,.43-.15,.88-.17,1.33-.03,.55-.29,.89-.81,1.06-.73,.24-1.47,.27-2.2,.04-.81-.26-1.02-.64-.91-1.49,.33-2.36,1.67-4.01,3.67-5.15,2.26-1.29,4.68-1.78,7.28-1.21,1.57,.35,2.91,1.11,4.04,2.22,.86,.83,1.67,1.72,2.51,2.58,.27,.28,.55,.54,.86,.84,.47-1.21,.85-2.38,1.36-3.47,1.1-2.35,2.72-4.23,5.15-5.29,1.95-.85,3.87-.86,5.8,.16,1.47,.78,1.99,2.03,1.88,3.57-.06,.76-.27,1.54-.54,2.26-1.1,2.95-3.04,5.13-6.04,6.26-.61,.23-1.26,.35-1.96,.54-.69,3.31-1.15,6.7-2.49,9.86,1.43,.36,5.56,.54,7,.3,.1-.59,.2-1.2,.32-1.81,.94-4.8,3.07-9.06,6.09-12.87,4.59-5.78,10.37-9.91,17.38-12.26,3.52-1.18,7.14-1.85,10.87-1.66,1.03,.05,2.06,.33,3.08,.54,.29,.06,.55,.22,.82,.36,1.63,.89,1.49,2.39,.65,3.49-.74,.98-1.78,1.6-3.05,1.71-.27,.02-.56-.05-.99-.09ZM21.3,36.56c-2.91-.5-5.53-.1-7.82,1.7-1.75,1.38-2.85,3.11-2.7,5.47,.13,1.96,1.85,2.76,3.27,2.2,.91-.36,1.69-.89,2.4-1.55,1.33-1.23,2.4-2.67,3.3-4.23,.64-1.11,1.25-2.24,1.54-3.6Zm9.45-12.3c.56-.16,.94-.24,1.3-.37,2.93-1.14,4.49-3.42,5.31-6.33,.18-.62,.08-1.18-.17-1.73-.34-.75-.98-1.05-1.76-.81-.39,.12-.79,.3-1.13,.53-.89,.61-1.45,1.49-1.88,2.45-.68,1.51-1.07,3.1-1.4,4.71-.1,.46-.16,.92-.27,1.56Zm76.38,21.8l-.14-.12c-.69,.35-1.39,.69-2.07,1.07-.6,.34-1.2,.68-1.73,1.1-.34,.26-.61,.65-.82,1.03-.26,.5-.04,1.13,.46,1.59,.47,.43,.95,.57,1.46,.24,.44-.28,.91-.65,1.14-1.09,.63-1.24,1.14-2.54,1.7-3.82Z"/>
      <path d="M59.62,65.28c.78-.61,1.58-.65,2.4-.28,1.2,.54,1.1,1.66,1.11,2.8,.46-.22,.65-.6,.94-.86,.55-.5,1.09-1.02,1.67-1.5,.27-.22,.61-.38,.95-.51,1.22-.46,2.3,.07,2.7,1.32,.35,1.09,.27,2.2,.1,3.29-.31,1.97-1.17,3.76-1.96,5.57-.38,.88-.72,1.77-1.07,2.66-.07,.19-.12,.41-.12,.61,0,.53,.43,.8,.84,.45,.56-.48,1.1-1.02,1.53-1.62,1.67-2.32,3.08-4.77,4.08-7.46,1.24-3.34,2.6-6.64,3.89-9.96,.33-.84,.63-1.69,.88-2.55,.17-.58,.23-1.2,.37-1.99,.6-.48,1.42-.48,2.26-.07,.78,.38,.95,1.08,.97,1.88,.02,.98-.22,1.91-.56,2.8-1.07,2.79-2.18,5.57-3.28,8.35-.14,.36-.29,.71-.31,1.16,.35-.29,.72-.56,1.05-.87,1.42-1.33,2.86-2.65,4.24-4.02,.54-.54,.93-1.22,1.42-1.88,1.15,.06,2.19,1.45,1.8,2.68-.19,.6-.57,1.19-1.01,1.66-.89,.95-2.01,1.61-3.16,2.19-.88,.45-1.76,.89-2.69,1.35,.22,.43,.41,.82,.62,1.22,1.38,2.62,2.74,5.26,4.17,7.86,.78,1.42,1.73,2.73,2.91,3.87,1.04,1.01,1.19,1.11,2.71,1.55-.05,.29-.06,.61-.17,.89-.83,1.92-3.29,2.39-4.9,.94-1.09-.98-1.84-2.21-2.46-3.51-1.16-2.41-1.88-4.99-2.73-7.52-.36-1.08-.71-2.16-1.12-3.22-.17-.43-.47-.8-.71-1.21-.82,.26-1.36,.61-1.64,1.38-.68,1.88-1.45,3.74-2.14,5.62-.15,.41-.18,.88-.19,1.32-.02,.82-.6,1.31-1.39,1.08-.57-.16-1.05-.51-1.25-1.08-.15-.44-.19-.93-.24-1.4-.03-.25,0-.51,0-.93-.59,.69-1.06,1.3-1.59,1.84-.41,.43-.86,.83-1.36,1.15-1.23,.79-2.44,.36-2.96-1.01-.51-1.32-.38-2.64-.08-3.97,.43-1.88,1.2-3.63,1.97-5.39,.38-.85,.69-1.72,1.02-2.58,.12-.3,.15-.65-.19-.77-.24-.08-.65-.05-.82,.1-.67,.59-1.3,1.24-1.9,1.89-1.98,2.15-3.17,4.78-4.34,7.41-.57,1.28-1.28,2.51-1.08,4.02,.07,.48-.38,.64-.77,.74-.6,.15-1.37-.17-1.69-.78-.23-.44-.35-.95-.45-1.44-.07-.32-.01-.66-.01-1.12-.2,.2-.34,.32-.46,.45-.63,.68-1.24,1.37-1.88,2.04-.2,.21-.47,.38-.73,.51-1.28,.68-2.48,.21-2.93-1.17-.17-.52-.23-1.08-.37-1.76-.26,.38-.48,.69-.69,1-.46,.67-.99,1.28-1.7,1.71-1.79,1.08-4.28,.32-5.07-1.62-.32-.78-.45-1.64-.69-2.53-.3,.44-.57,.91-.91,1.31-.73,.87-1.47,1.72-2.24,2.56-.22,.23-.52,.41-.81,.55-1.12,.55-2.06,.21-2.61-.9-.68-1.37-.54-2.79-.22-4.21,.44-1.94,1.23-3.75,2.05-5.55,.35-.76,.64-1.55,.93-2.33,.11-.3,.22-.66-.16-.88-.33-.19-.66-.07-.92,.15-.5,.43-1,.86-1.44,1.35-2.73,3.02-4.34,6.65-5.53,10.48-.1,.34-.11,.71-.11,1.06,0,.87-.62,1.35-1.46,1.08-.57-.18-.98-.55-1.22-1.12-.32-.76-.24-1.52-.07-2.29,.58-2.58,1.54-5.04,2.5-7.49,1.05-2.68,2.11-5.35,3.16-8.02,.07-.19,.12-.38,.21-.65-.57-.15-1.08-.3-1.6-.41-3.01-.67-6.02-1.36-9.04-1.99-.9-.19-1.84-.26-2.77-.26-1.89-.01-3.33,.86-4.32,2.45-1.08,1.72-.49,4.49,2.04,4.88,.37,.06,.77,0,1.22,0-.03,.25,0,.48-.09,.62-.89,1.4-2,2.55-3.7,2.92-2.26,.49-4.37-1.15-4.34-3.46,.05-3.52,1.69-6.17,4.66-8,1.81-1.11,3.79-1.35,5.88-1.18,4.11,.33,8.08,1.38,12.1,2.19,.23,.05,.47,.07,.79,.11,.35-1.21,1-2.31,.81-3.65,.8-.62,1.65-.61,2.5-.14,.81,.45,.98,1.26,.91,2.09-.06,.71-.24,1.41-.39,2.21,1.65-.02,3.23-.15,4.64-1.09,.66-.44,.92-1.08,.76-1.95,.3-.03,.56-.09,.81-.07,1.47,.11,2.74,1.45,2.79,2.93,.07,2.18-1.26,3.53-3.57,3.62-1.7,.06-3.34-.33-4.98-.66-.44-.09-.87-.18-1.34-.28-.69,1.68-1.36,3.31-2.03,4.93,.04,.04,.08,.07,.12,.11,.3-.29,.59-.58,.89-.87,.59-.56,1.22-1.07,2.02-1.31,1.06-.33,1.94,.02,2.38,1.03,.22,.51,.34,1.09,.37,1.64,.12,1.8-.36,3.5-1.04,5.15-.61,1.46-1.26,2.91-1.87,4.37-.16,.38-.27,.8-.32,1.21-.02,.2,.09,.51,.24,.6,.15,.09,.51,.06,.64-.06,.52-.49,1.03-1,1.45-1.58,1.6-2.18,2.93-4.52,3.94-7.04,.62-1.55,1.57-2.9,2.84-4,1.38-1.2,2.96-1.83,4.81-1.3,1.12,.32,1.72,1.51,1.41,2.63-.16,.58-.59,.86-1.13,.72-.52-.13-.82-.64-.66-1.19,.07-.25,.21-.48,.31-.72-.38-.35-.73-.17-.99,.06-.44,.4-.88,.82-1.21,1.31-1.42,2.1-2.52,4.36-3.11,6.83-.2,.86-.19,1.78-.23,2.67-.01,.32,.08,.66,.19,.96,.36,1,1.11,1.21,1.84,.43,.57-.61,1.07-1.3,1.46-2.04,1.59-2.96,2.95-6.02,4.12-9.17,.25-.68,.44-1.37,.18-2.07,1.28-1.05,2.91-.57,3.38,.93,.21,.69,.24,1.38,.02,2.03-.49,1.44-1.01,2.88-1.6,4.28-.55,1.29-1.24,2.53-1.83,3.8-.26,.57-.42,1.18-.64,1.77-.1,.28-.14,.54,.11,.73,.32,.25,.6,.03,.8-.17,.44-.45,.87-.91,1.25-1.41,1.74-2.31,3.14-4.81,4.18-7.52,.34-.89,.67-1.79,1-2.69,.22-.59,.39-1.19,.07-1.83Z"/>
      <path d="M48.02,100.5c-.82,1.15-1.52,2.18-2.28,3.17-1.7,2.22-3.58,4.27-5.98,5.78-1.13,.71-2.32,1.25-3.67,1.36-1.99,.16-3.51-.62-4.54-2.31-.59-.96-.8-2.05-.87-3.17-.13-2.08,.41-4.03,1.11-5.96,1.34-3.67,3.26-7.01,5.95-9.86,1.47-1.56,3.19-2.79,5.32-3.38,3.48-.97,6.78,1.89,7.27,4.75,.17,1.02,.05,1.95-.34,2.88-.27,.63-.74,.91-1.35,.8-.76-.14-1.51-.36-2.22-.66-.58-.24-.62-.55-.23-1.06,.47-.61,.75-1.27,.92-2.02,.19-.82,.02-1.55-.36-2.24-.49-.89-1.35-1.17-2.3-.77-1.03,.43-1.79,1.22-2.45,2.07-.82,1.07-1.6,2.18-2.25,3.35-1.63,2.91-2.96,5.95-3.79,9.19-.31,1.2-.41,2.41-.28,3.64,.13,1.33,.79,2.18,1.82,2.39,.62,.12,1.22,0,1.73-.32,.79-.48,1.57-1,2.26-1.61,2.49-2.21,4.34-4.93,6.08-7.74,.25-.41,.53-.81,.72-1.24,.31-.7,.85-1.09,1.57-1.21,.88-.14,1.78-.28,2.67-.26,1.1,.03,1.33,.3,1.2,1.39-.24,2.02-.53,4.03-.84,6.03-.14,.88-.39,1.75-.58,2.63-.04,.17-.04,.34-.07,.61,1.33-.26,2.58-.51,3.82-.76,.33-1.21,.58-2.41,.98-3.56,.67-1.92,1.44-3.81,2.16-5.71,.25-.66,.58-1.31,.32-2.07-.04-.12,.25-.46,.46-.55,1.33-.6,2.85,.31,2.96,1.76,.07,.9,.01,1.81-.35,2.65-.73,1.71-1.47,3.4-2.22,5.1-.48,1.09-1.01,2.17-1.47,3.27-.28,.66-.21,1.14,.08,1.23,.5,.14,.78-.24,1.04-.55,.52-.61,1.05-1.23,1.5-1.91,1.23-1.85,2.34-3.76,3.25-5.79,.56-1.23,1.06-2.47,1.4-3.77,.13-.5,.12-1.04,.2-1.76,.63-.91,2.8-.3,3.14,.84,.2,.67,.29,1.34,.16,2.03-.35,1.87-1.17,3.58-1.93,5.3-.57,1.29-1.11,2.58-1.64,3.89-.15,.38-.24,.81-.26,1.22-.03,.58,.29,.88,.87,.92,.7,.04,1.2-.34,1.62-.82,.78-.89,1.33-1.92,1.79-3,1.11-2.6,1.81-5.32,2.3-8.09,.1-.55,.08-1.14,.06-1.7-.02-.45,.19-.66,.56-.81,1.27-.52,2.53,.22,2.66,1.64,.07,.8,.08,1.63-.07,2.42-.61,3.2-1.9,6.11-3.96,8.65-.7,.87-1.51,1.61-2.45,2.23-1.11,.73-2.32,.95-3.61,.82-1.34-.14-2.26-1.14-2.35-2.53-.04-.65,0-1.3,0-2.12-.22,.28-.36,.45-.49,.63-.84,1.2-1.66,2.43-2.85,3.33-.26,.2-.54,.38-.84,.5-1.18,.48-2.24-.01-2.65-1.21-.11-.33-.19-.68-.32-1.14-1.43,.28-2.83,.56-4.3,.85-.3,.9-.6,1.8-.92,2.7-1.02,2.8-2.3,5.47-4.12,7.85-2.37,3.09-5.35,5.29-9.17,6.27-.94,.24-1.9,.31-2.85,.09-2.04-.46-3.19-1.89-3.39-3.91-.15-1.51,.24-2.91,.97-4.22,1.15-2.06,2.9-3.48,4.87-4.68,2.52-1.53,5.23-2.69,8.04-3.56,.79-.25,1.19-.66,1.36-1.42,.43-1.99,.89-3.97,1.32-5.95,.05-.22,.05-.46,.09-.84Zm-2.29,9.66c-.06-.05-.12-.1-.18-.15-.14,.04-.28,.08-.41,.12-2.2,.71-4.33,1.59-6.36,2.7-1.77,.97-3.43,2.09-4.69,3.71-.94,1.21-1.53,2.56-1.48,4.14,.06,1.82,1.04,2.57,2.77,2.09,.06-.02,.12-.03,.17-.05,2.05-.66,3.74-1.87,5.19-3.42,1.62-1.72,2.76-3.77,3.73-5.9,.48-1.05,.84-2.16,1.26-3.24Z"/>
      <path d="M81.64,106.47c-.85,.91-1.55,1.73-2.32,2.47-.38,.36-.87,.66-1.37,.81-1.13,.34-2.01-.17-2.38-1.3-.35-1.05-.32-2.13-.14-3.2,.35-2.02,1.1-3.91,1.85-5.81,.42-1.06,.84-2.12,1.23-3.18,.34-.92,.32-.93,.15-1.82,1.3-1.02,2.97-.47,3.38,1.09,.21,.82,.14,1.63-.14,2.38-.59,1.6-1.23,3.18-1.91,4.74-.55,1.26-1.19,2.49-1.77,3.74-.15,.32-.27,.67-.32,1.02-.03,.2,.04,.51,.19,.62,.13,.09,.45,.03,.62-.07,.25-.15,.46-.38,.65-.61,2.03-2.48,3.63-5.21,4.81-8.18,.38-.95,.72-1.91,1.08-2.86,.23-.6,.31-1.21,.07-1.86,.69-.62,1.48-.66,2.27-.35,1.28,.5,1.25,1.68,1.27,2.86,.69-.67,1.3-1.32,1.97-1.89,.45-.38,.97-.72,1.51-.96,1.17-.51,2.2-.02,2.69,1.17,.33,.8,.38,1.65,.26,2.47-.16,1.09-.36,2.19-.74,3.22-.63,1.74-1.43,3.42-2.13,5.14-.19,.46-.3,.97-.33,1.47-.03,.49,.36,.69,.78,.43,.3-.19,.58-.44,.8-.71,1.77-2.21,3.25-4.59,4.32-7.22,.73-1.8,1.71-3.43,3.18-4.74,1.15-1.02,2.48-1.56,4.03-1.46,1.61,.11,2.59,1.39,2.19,2.83-.19,.69-.9,.95-1.48,.54-.33-.23-.35-.56-.3-.88,.04-.29,.17-.56,.26-.86-.29-.3-.61-.2-.88,0-.27,.19-.54,.4-.73,.66-1.88,2.46-3.22,5.19-3.81,8.24-.18,.93-.21,1.91,.08,2.85,.35,1.11,1.17,1.34,1.92,.47,.63-.75,1.21-1.58,1.66-2.45,1.49-2.87,2.91-5.78,3.8-8.91,.15-.54,.21-1.11,.22-1.68,0-.37,.16-.56,.45-.69,1.42-.68,2.99,.26,2.99,1.85,0,.68-.13,1.37-.31,2.03-.83,2.98-2.08,5.8-3.28,8.64-.44,1.04-.88,2.08-1.2,3.22,.28-.22,.58-.43,.84-.68,.28-.27,.53-.57,.78-.87,2.03-2.47,3.76-5.11,5.02-8.06,.06-.14,.1-.29,.18-.41,.18-.26,.47-.34,.7-.17,.15,.11,.29,.41,.25,.59-.08,.37-.26,.73-.43,1.08-1.57,3.33-3.51,6.41-6.15,9.01-.55,.54-1.17,1.03-1.81,1.48-.41,.29-.7,.61-.88,1.09-.56,1.52-1.16,3.02-1.73,4.53-1.09,2.9-4.86,3.4-6.61,2.05-.91-.7-1.56-2.35-.26-3.4,.87-.71,1.86-1.3,2.84-1.87,1.99-1.14,2-1.12,2.77-3.25,.2-.56,.4-1.11,.66-1.83-1.01,.54-1.89,1.03-2.95,.78-1.03-.24-1.92-.67-2.5-1.6-.55-.89-.71-1.89-.77-2.97-.4,.13-.51,.47-.67,.73-.69,1.1-1.51,2.09-2.46,2.97-.49,.46-1.01,.83-1.71,.92-.66,.08-1.18-.1-1.58-.62-.56-.72-.74-1.56-.76-2.44-.05-1.68,.43-3.26,1.04-4.8,.54-1.39,1.19-2.75,1.77-4.13,.2-.47,.37-.95,.47-1.45,.12-.58-.23-.85-.79-.65-.19,.07-.38,.19-.52,.34-.55,.55-1.1,1.1-1.62,1.67-2.12,2.32-3.34,5.16-4.6,7.98-.28,.63-.54,1.27-.73,1.93-.12,.41-.11,.87-.09,1.31,.02,.51-.07,.69-.57,.87-.72,.25-1.52-.05-1.93-.75-.45-.78-.6-1.61-.35-2.6Zm19.49,7.94c-1.14,.64-2.1,1.15-3.03,1.73-.31,.19-.59,.51-.78,.84-.29,.5-.14,1.08,.3,1.46,.42,.36,1.01,.38,1.49,.01,.19-.14,.38-.31,.5-.51,.67-1.03,1.03-2.19,1.53-3.52Z"/>
      <path d="M102.18,7.08c1.38-1.48,4.44-2.14,6.13-1.07,1.15,.73,1.81,1.7,1.79,3.1-.01,.71-.31,1.27-.79,1.75-.77,.78-1.74,1.27-2.72,1.72-1.91,.89-3.93,1.29-6.01,1.32-1.37,.02-2.74-.15-4.07-.59-2.75-.92-4.08-2.44-4.52-5.34-.72,.84-1.39,1.63-2.06,2.41-.2,.23-.38,.48-.62,.65-.2,.14-.52,.29-.71,.23-.19-.07-.35-.39-.39-.63-.14-.81,.12-1.56,.56-2.22,.8-1.19,1.85-1.95,3.33-1.71,.47-.67,.88-1.38,1.4-1.97,1.28-1.44,3.02-2.12,4.77-2.78,2.97-1.12,6.03-1.73,9.2-1.9,2.24-.12,4.43,0,6.57,.65,2.53,.77,4.6,2.19,5.82,4.61,1.38,2.72,.99,5.27-.84,7.63-1.31,1.68-3.1,2.71-5.05,3.47-1.93,.76-3.96,1.16-6,1.5-3.31,.56-6.64,.95-9.99,1.11-2.66,.12-5.33,.06-8,.02-1.83-.03-3.66-.1-5.47-.26-6.08-.53-12.05-1.61-17.84-3.58-.62-.21-1.22-.49-1.83-.75-.16-.07-.3-.18-.5-.31,.32-.29,.64-.2,.95-.16,1.66,.26,3.31,.56,4.97,.78,3.14,.43,6.29,.89,9.44,1.21,2.56,.26,5.14,.37,7.71,.47,3.06,.12,6.1-.06,9.15-.26,4.19-.28,8.34-.83,12.46-1.64,1.97-.39,3.92-.91,5.63-2.02,.6-.39,1.17-.85,1.66-1.36,1.6-1.66,1.57-3.67,.01-5.38-1.32-1.45-3.03-2.09-4.91-2.4-2.12-.34-4.25-.23-6.36,.05-2.24,.29-4.42,.83-6.5,1.7-.93,.39-1.85,.87-2.68,1.44-1.21,.83-1.26,2.04-.24,3.13,.82,.87,1.88,1.25,3.01,1.49,3.09,.67,6.01,.18,8.78-1.31,.21-.11,.41-.26,.58-.42,.4-.37,.46-.71,.25-1.21-.38-.87-1.07-1.35-1.99-1.5-.93-.15-1.85-.04-2.77,.11-.44,.07-.87,.14-1.31,.21Z"/>
      <path d="M69.1,117.68c.17,.84,.29,1.52,.45,2.18,.05,.21,.2,.4,.31,.59,.05,.07,.13,.12,.19,.19,.61,.68,.57,1.69-.1,2.25-.65,.56-1.7,.42-2.24-.3-.53-.71-.38-1.7,.35-2.22,.17-.12,.35-.21,.56-.32-.09-.43-.15-.84-.26-1.24-.28-1.04-.8-1.75-1.97-2.06-3.1-.81-6.16-1.75-9.24-2.65-.36-.11-.72-.24-1.08-.37,0-.07,0-.14,0-.21,.2-.04,.4-.14,.59-.13,1.46,.12,2.93,.2,4.38,.4,3.63,.52,7.17,1.42,10.63,2.62,.53,.18,1.04,.23,1.58,.11,.84-.2,1.69-.39,2.53-.59,.02-.26,.03-.44,.06-.61,.11-.82,.81-1.39,1.63-1.34,.88,.06,1.45,.71,1.43,1.63-.02,.81-.67,1.38-1.56,1.37-.12,0-.26,.03-.36-.02-.91-.47-1.64,.17-2.66,.35,.39,.19,.59,.3,.79,.39,.91,.39,1.83,.75,2.72,1.17,.4,.19,.78,.25,1.21,.21,1.4-.16,2.78-.42,4.07-.96,.03-1.19,.39-1.73,1.24-1.95,.56-.14,1.2,.11,1.57,.61,.41,.55,.43,1.17,.06,1.75-.35,.55-.95,.89-1.53,.65-.63-.26-1.15-.06-1.72,.11-.79,.24-1.61,.42-2.58,.67,.77,.42,1.46,.72,2.06,1.14,.89,.61,1.8,.85,2.86,.58,1.01-.26,2.04-.46,3.05-.69,.06-.37,.1-.66,.17-.94,.15-.6,.65-1,1.29-1.06,.56-.05,1.15,.29,1.4,.8,.3,.63,.21,1.25-.19,1.78-.39,.51-1.02,.61-1.56,.4-.51-.19-.92-.08-1.39,.04-.88,.23-1.78,.43-2.78,.67,.3,.23,.53,.41,.77,.57,.82,.56,1.63,1.12,2.47,1.65,.26,.16,.61,.3,.91,.28,.8-.05,1.59-.19,2.25-.28,.23-.59,.33-1.07,.59-1.43,.16-.23,.54-.35,.85-.44,.58-.18,1.08,.06,1.44,.49,.42,.49,.52,1.07,.21,1.67-.27,.52-.67,.84-1.29,.81-.18,0-.36,0-.54-.03-1.09-.24-1.35-.22-2.64,.25,.53,.48,1.09,.87,1.51,1.38,.71,.86,1.61,1.03,2.64,.93,.42-.04,.84,0,1.32,0,.05-.18,.08-.34,.13-.5,.2-.58,.54-.99,1.21-1.02,.61-.03,1.14,.09,1.47,.66,.31,.52,.25,1.3-.12,1.79-.41,.53-1.26,.76-1.86,.36-.47-.31-.9-.35-1.42-.3-.38,.04-.77,0-1.34,0,1.18,1.52,2.26,2.92,2.65,4.72-1.84-1.6-3.55-3.33-5.57-4.83,.05,.8,.08,1.49,.14,2.17,.02,.22,.15,.44,.22,.66,.1,.28,.25,.55,.29,.84,.11,.86-.34,1.54-1.09,1.72-.76,.18-1.6-.3-1.86-1.06-.27-.8,.06-1.61,.82-1.96,.19-.09,.39-.13,.6-.2,.15-1.02-.12-1.98-.35-2.93-.04-.15-.19-.31-.33-.41-.66-.47-1.33-.91-2.07-1.41-.16,.65-.32,1.21-.41,1.79-.04,.24,.09,.52,.16,.77,.2,.68,.03,1.3-.47,1.69-.58,.45-1.27,.46-1.92,.03-.56-.37-.8-1-.64-1.64,.16-.65,.65-1.06,1.34-1.11,.18-.01,.36,0,.54,0,.42-.74,.23-1.48,.27-2.27-1.47-.88-2.93-1.74-4.46-2.66-.13,1.1-.26,2.09-.34,3.09-.02,.22,.17,.44,.24,.67,.32,1.15-.42,2.07-1.59,1.98-.74-.06-1.18-.5-1.27-1.27-.09-.81,.33-1.51,1.02-1.69,.2-.05,.41-.05,.65-.07,.29-1.08,.13-2.16,.17-3.33-1.75-.88-3.51-1.75-5.4-2.7,.08,.91,.14,1.65,.2,2.4,.02,.2,.06,.41,.02,.61-.1,.5-.05,.91,.28,1.34,.37,.49,.28,1.35-.08,1.76-.39,.45-1.26,.65-1.83,.42-.6-.24-1.01-.93-.94-1.59,.06-.56,.4-.93,.87-1.18,.21-.11,.45-.15,.7-.22,.17-1.29-.03-2.52-.38-3.73-.05-.17-.22-.37-.39-.44-1.43-.6-2.86-1.18-4.37-1.79Z"/>
      <path d="M27.07,64.43c.01,1.49-.39,2.91-.85,4.29-1.23,3.68-2.57,7.33-3.81,11.01-.75,2.21-1.41,4.44-2.09,6.67-.12,.39-.14,.83-.14,1.24,0,.42-.22,.67-.55,.86-.85,.48-2.12,.14-2.6-.72-.34-.62-.48-1.27-.36-1.99,.48-2.99,1.4-5.87,2.32-8.74,1.21-3.76,2.47-7.51,3.66-11.28,.3-.95,.66-1.92,.53-2.97-.02-.16,.2-.43,.38-.51,.74-.31,1.53-.32,2.3-.15,.79,.17,1.18,.73,1.22,1.56,0,.24,0,.48,0,.72Z"/>
      <path d="M87.84,68.56c-.38,.74-.7,1.37-1.02,2.01-.1,.19-.15,.44-.31,.54-.2,.12-.5,.19-.72,.14-.31-.07-.38-.35-.24-.65,.25-.55,.49-1.09,.75-1.63,.12-.24,.25-.48,.38-.71,.34-.63,.42-1.21,.09-1.93-.43-.95-.41-1.98,.09-2.95,.65-1.26,1.67-1.33,2.65-1.1,.52,.12,.79,.59,.76,1.09-.04,.58-.2,1.17-.36,1.73-.1,.34-.3,.65-.47,.99,1.97,2.58,3.44,5.34,3.2,8.85,.23-.24,.41-.37,.52-.55,.72-1.14,1.46-2.27,2.13-3.43,.22-.37,.41-.58,.83-.42,.32,.12,.43,.48,.22,.93-.41,.83-.82,1.67-1.32,2.45-1.05,1.61-2.18,3.15-3.57,4.49-1.06,1.02-2.28,1.75-3.66,2.21-1.84,.61-3.23-.17-3.65-2.06-.25-1.13-.27-2.28,.56-3.23,.31-.35,.7-.67,1.13-.85,.31-.13,.76-.09,1.1,.03,.45,.16,.61,.68,.46,1.13-.17,.5-.62,.78-1.13,.65-.22-.06-.41-.21-.67-.35-.55,.75-.63,1.59-.37,2.44,.35,1.15,1.3,1.43,2.24,.69,1.06-.85,1.58-2.02,1.74-3.33,.3-2.47-.26-4.8-1.35-7.16Z"/>
      <path d="M116.14,60.65c.25,1.14-.18,2.04-.59,2.93-.87,1.89-2.01,3.59-3.46,5.1-2.13,2.22-4.56,3.95-7.46,5.01-1.48,.54-3.01,.81-4.59,.71-.47-.03-1.07,.03-1.25-.5-.2-.6,.42-.8,.79-1.04,1.29-.82,2.61-1.59,3.9-2.41,2.29-1.44,4.34-3.19,6.33-5.01,1.59-1.45,3.23-2.85,4.87-4.25,.38-.32,.82-.59,1.45-.55Z"/>
      <path d="M75.93,11.32c.51-1.59,.19-2.52-1.14-3.59-1.71-1.38-3.7-1.97-5.85-1.99-3.57-.04-7.03,.65-10.42,1.73-4.7,1.49-9.05,3.66-13.06,6.52-.49,.35-1.01,.65-1.52,.96-.12,.07-.26,.11-.45,.18-.1-.43,.17-.65,.37-.89,1-1.25,2.23-2.26,3.5-3.21,4.79-3.6,10.17-5.81,16.08-6.77,2.05-.33,4.1-.55,6.18-.32,2.32,.26,4.43,1.04,6.08,2.79,.66,.7,1.22,1.49,1.39,2.47,.17,.98-.23,1.76-1.16,2.12Z"/>
      <path d="M24.86,102.68c-2.09-.03-3.91-.52-5.66-1.26-2.35-.99-4.45-2.38-6.26-4.15-.91-.89-1.66-1.96-2.44-2.98-.23-.29-.49-.71-.22-1.06,.3-.4,.78-.24,1.15-.06,1.62,.77,3.26,1.51,4.83,2.38,2.76,1.52,5.56,2.93,8.46,4.16,.83,.35,1.62,.77,2.43,1.17,.16,.08,.32,.16,.47,.27,.46,.35,.45,.68-.05,.96-.21,.12-.43,.21-.66,.27-.26,.08-.52,.14-.79,.17-.47,.06-.95,.1-1.26,.13Z"/>
      <path d="M100.36,76.96c.22-.54,.63-.63,1.05-.71,1.71-.33,3.36,.02,4.92,.64,4.05,1.58,7.02,4.39,8.89,8.31,.31,.64,.48,1.35,.61,2.05,.14,.74-.25,1.02-.95,.72-1.03-.44-1.86-1.19-2.68-1.94-1.28-1.17-2.53-2.37-3.84-3.51-1.97-1.72-4.17-3.11-6.48-4.33-.57-.31-1.18-.58-1.53-1.23Z"/>
      <path d="M13.29,116.73c0-.28-.04-.56,0-.83,.27-1.65,1.17-3.01,2.14-4.29,2.29-3.03,5.23-5.23,8.76-6.64,1.23-.49,2.51-.79,3.85-.76,.18,0,.37,0,.54,.04,.46,.12,.59,.44,.29,.8-.29,.34-.61,.67-.97,.93-1.32,.98-2.66,1.94-4,2.9-2.74,1.95-5.3,4.11-7.8,6.34-.49,.44-1,.86-1.54,1.23-.3,.21-.68,.3-1.02,.45-.08-.05-.17-.11-.25-.16Z"/>
      <path d="M53.4,113.18c-.06,.28-.11,.57-.18,.85-.65,2.54-1.93,4.76-3.56,6.79-2.08,2.61-4.6,4.71-7.61,6.19-1.79,.88-3.69,1.44-5.71,1.41-2.38-.04-4.46-.85-6.09-2.64-.93-1.03-1.55-2.2-1.44-3.65,0-.08,.05-.15,.13-.4,.23,.42,.41,.71,.55,1.01,1.01,2.27,3.96,4.23,7.32,3.85,2.22-.25,4.2-1.13,6.07-2.31,3.43-2.16,6.15-5.02,8.42-8.35,.54-.79,1.04-1.61,1.57-2.41,.09-.14,.21-.27,.31-.41,.07,.02,.14,.04,.2,.06Z"/>
      <path d="M7.74,47.43c.29,.11,.59,.2,.86,.34,.69,.36,1.37,.74,2.06,1.11,3.59,1.91,6.97,1.43,10.2-.88,1.54-1.11,2.8-2.51,4.07-3.92,.49-.54,.94-1.15,1.76-1.56-.05,.35-.04,.58-.12,.77-1.48,3.55-3.75,6.41-7.37,7.94-3.46,1.47-6.68,.84-9.63-1.41-.78-.6-1.5-1.28-1.93-2.19,.04-.07,.07-.14,.11-.21Z"/>
      <path d="M98.89,52.31c.25,.13,.5,.24,.74,.38,1.21,.74,2.51,1.27,3.88,1.63,2.57,.66,4.63-.15,6.34-2.11,.92-1.06,1.53-2.28,2.09-3.54,.23-.52,.47-1.04,.72-1.54,.12-.25,.29-.48,.56-.89,.27,.99,.24,1.76,.11,2.51-.32,1.95-1.05,3.75-2.35,5.26-1.35,1.56-3.08,2.49-5.16,2.58-1.73,.07-3.29-.56-4.73-1.48-.84-.54-1.62-1.14-2.13-2.02-.1-.17-.15-.38-.22-.57,.05-.07,.1-.13,.15-.2Z"/>
      <path d="M11.37,57.18c-.18,.37-.26,.58-.38,.77-.94,1.53-1.87,3.07-2.25,4.86-.5,2.39-.23,4.65,1.23,6.67,.31,.43,.74,.78,1.12,1.16,.2,.2,.41,.4,.67,.64-.45,.35-.87,.29-1.26,.21-1.43-.28-2.39-1.21-3.13-2.37-2.1-3.3-1.46-8.07,1.4-10.71,.67-.62,1.45-1.04,2.61-1.22Z"/>
      <path d="M115.39,72.89c1.11,.2,2.44,.39,3.75,.69,.53,.12,1.04,.45,1.51,.77,.6,.41,.62,.9,.02,1.29-.54,.35-1.16,.67-1.78,.8-2.36,.51-4.7,.4-7-.35-.45-.15-.9-.36-1.29-.62-.69-.46-.69-1.17,.04-1.57,.54-.3,1.16-.52,1.76-.64,.91-.18,1.84-.24,3.01-.38Z"/>
      <path d="M14.9,102.75c.57-.02,1.51,.09,2.4,.49,.8,.37,.89,.78,.3,1.44-.6,.66-1.39,1.04-2.22,1.3-1.92,.61-3.87,.76-5.83,.26-.51-.13-1.02-.36-1.45-.66-.51-.35-.54-.92-.03-1.27,.5-.36,1.08-.64,1.67-.83,1.54-.5,3.14-.72,5.17-.73Z"/>
      <path d="M5.24,21.91c-.28-1.01-.11-1.77,.17-2.49,1.3-3.37,3.85-5.23,7.3-5.95,1.98-.41,3.94-.2,5.81,.56,.57,.23,1.17,.46,1.52,1.13-.78,.23-1.51,.06-2.23,0-1.8-.16-3.58-.1-5.33,.4-2.61,.74-4.55,2.31-6,4.55-.24,.38-.45,.78-.69,1.16-.12,.19-.29,.35-.55,.66Z"/>
      <path d="M81.08,87.42c1.07-.17,1.88,.3,2.47,1.19,.33,.49,.39,1.05,.14,1.62-.31,.68-.58,1.37-.86,2.06-.12,.29-.35,.4-.65,.36-1.76-.23-3.06-1.73-1.98-3.53,.3-.51,.55-1.05,.89-1.69Z"/>
      <path d="M61.91,87.44c.82-.17,1.46,.1,2.02,.6,.78,.71,.94,1.46,.52,2.42-.3,.68-.62,1.35-.95,2.05-1.3,.31-2.77-.68-2.88-2.02-.03-.31,.09-.65,.22-.94,.32-.7,.7-1.38,1.07-2.12Z"/>
      <path d="M6.37,24.66c.23,.65-.01,1.16-.35,1.57-1.24,1.5-2.85,2.23-4.83,2.07-.15-.01-.3-.04-.44-.08-.31-.1-.67-.15-.74-.55-.07-.4,.21-.62,.5-.77,1.07-.54,2.13-1.09,3.23-1.56,.68-.29,1.4-.48,2.11-.69,.13-.04,.29,.01,.52,.03Z"/>
      <path d="M106.38,114.35c.1,.17,.15,.22,.15,.27-.15,3.3-2.57,6.79-6.03,7.34-1.63,.26-3.1-.15-4.32-1.28-.32-.29-.62-.63-.66-1.24,.23,.13,.39,.19,.5,.3,1.64,1.55,4.13,1.78,6.23,.46,1.73-1.09,2.74-2.72,3.52-4.54,.18-.42,.39-.83,.61-1.32Z"/>
      <path d="M11.06,30.57c-.3-.06-.62-.09-.92-.19-1.71-.57-3.18-2.66-3.12-4.43,0-.25,.09-.65,.23-.7,.23-.08,.61-.01,.81,.15,1.33,1.06,2.45,2.3,3.01,3.94,.17,.49,.16,.49,0,1.22Z"/>
      <path d="M6.56,29.44c0,.87-.3,1.64-.7,2.38-.07,.13-.16,.25-.26,.36-.27,.28-.58,.66-.97,.47-.26-.13-.5-.53-.54-.84-.22-1.46,.14-2.78,1.19-3.85,.53-.54,.96-.4,1.15,.33,.09,.37,.09,.77,.13,1.15Z"/>
      <path d="M87.29,5.6c.61,.1,1.24,.15,1.83,.32,.72,.21,.78,.68,.22,1.16-.98,.83-3.15,.85-4.11,.03-.44-.38-.42-.82,.14-1.03,.6-.23,1.25-.32,1.92-.48Z"/>
      <path d="M92.13,5.31c0,.63-.15,.8-.63,.76-.26-.02-.56-.07-.77-.21-1.03-.69-1.63-1.64-1.65-2.91,0-.36,.02-.8,.44-.87,.26-.04,.63,.13,.85,.32,.71,.61,1.22,1.39,1.59,2.25,.1,.24,.14,.51,.17,.66Z"/>
    </g>
  </g>
</svg>