<?xml version="1.0" encoding="UTF-8"?>
<svg id="_图层_2" data-name="图层 2" xmlns="http://www.w3.org/2000/svg" viewBox="0 0 147.74 121.53">
  <g id="_图层_2-2" data-name=" 图层 2">
    <g>
      <path d="M144.52,34.98c.92-.79,2.1-1.35,2.83-2.27,.82-1.03,.31-1.72-1.07-1.73-.86-.01-1.71,0-2.64,0,1.17-2.43,4.51-3.76,3.13-7.06-1.2,.76-2.37,1.5-3.54,2.24-.15-.17-.29-.34-.44-.51,.38-.56,.76-1.12,1.16-1.67,.86-1.19,1.78-2.35,2.57-3.58,.22-.34,.28-1.06,.05-1.32-.2-.25-.92-.25-1.34-.13-.91,.25-1.76,.71-2.67,.97-.47,.13-1.01,.02-1.81,.02,1.25-1.45,2.24-2.47,3.07-3.61,.37-.5,.42-1.23,.61-1.85-.83-.14-1.66-.38-2.5-.4-.6-.01-1.2,.26-1.8,.41-.09-.13-.18-.25-.27-.38,.73-1.06,1.58-2.07,2.16-3.2,.34-.66,.61-1.72,.3-2.25-.58-.98-1.54-.26-2.34,.06-.7,.28-1.41,.64-2.15,.7-.72,.06-1.47-.2-2.61-.39,.93-.26,1.78-.26,2.18-.68,.28-.29-.04-1.14-.08-1.61,.34,.05,.95,.32,1.18,.14,.38-.3,.51-.9,.73-1.34-2.69-1.06-4.1,1.48-6.55,1.77,.57-1.04,1.07-1.76,1.34-2.55,.12-.36-.11-.91-.35-1.27-.1-.15-.63-.12-.94-.05-1.46,.32-2.74,.96-3.82,1.99-.41,.39-.95,.64-1.44,.96-.15-.1-.31-.2-.46-.3,.52-1.21,1.08-2.41,1.56-3.64,.16-.42,.12-.91,.17-1.37-.52,.01-1.17-.17-1.54,.07-1.32,.85-2.55,1.85-4.18,3.06,.26-1.19,.4-2.18,.7-3.13,.29-.94,.08-1.24-.92-1.03-1.5,.32-2.73,.96-3.59,2.31-.47,.75-1.24,1.32-2.17,2.27,.05-.78-.02-1.17,.11-1.48,.43-1.04,1.02-2.32-.18-2.91-.5-.24-1.85,.8-2.57,1.5-.91,.89-1.57,2.02-2.34,3.05-.14-.07-.29-.14-.43-.21,.12-.56,.3-1.11,.33-1.67,.05-.8-.01-1.6-.03-2.4-.73,.49-1.59,.87-2.16,1.5-.5,.55-.67,1.38-1.03,2.06-.27,.5-.61,.96-1.11,1.75-.19-1.35-.32-2.31-.45-3.28l-.67-.14c-.94,1.82-1.88,3.65-2.82,5.47-.12-.03-.25-.07-.37-.1-.09-.95-.19-1.91-.28-2.86-.2-.09-.39-.18-.59-.27-.29,.42-.57,.84-.59,.87-.86-.51-1.68-1.28-2.6-1.42-.52-.08-1.75,.9-1.72,1.33,.07,.97,.73,1.9,1.15,2.84,.14-.05,.28-.11,.43-.16-.14,1.46-.27,2.93-.43,4.64-.29-.84-.49-1.41-.68-1.98-.24,0-.47,0-.71,0-.23,1.46-.47,2.91-.7,4.35-.33-.29-.64-.56-.96-.83-.17,.02-.34,.05-.51,.07-.06,1.15-.11,2.31-.17,3.51-.44-.38-.81-.71-1.35-1.19-.18,1.79-.34,3.31-.49,4.83-.15-.09-.31-.19-.46-.28-.71,.23-1.88,.28-2.06,.73-.67,1.61-1.65,1.21-2.71,.68-2.94-1.48-6.01-2.43-9.32-2.71-1.6-.14-3.17-.62-4.77-.91-.49-.09-1-.1-1.49-.06-3.3,.3-6.59,.81-9.9,.89-4.33,.11-8.11,1.28-11.56,3.92-2.51,1.92-5.35,3.43-8.04,5.13-1.12,.71-2.38,1.29-3.3,2.21-1.87,1.88-3.55,3.95-5.37,6-1.08-.96-2.25-1.48-3.42-.13-.96,1.1-.68,1.95,1.18,3.47-1.06,1.19-2.07,2.44-3.22,3.55-.36,.35-1.05,1.57-1.66,.07-.02-.05-.34-.08-.41,0-1.03,1.09-1.31-.04-1.59-.59-1.06-2.08-.96-4.31-.43-6.46,.78-3.15,1.51-6.36,2.81-9.32,1.33-3.04,3.33-5.8,5-8.7,1.12-1.95,2.55-3.83,3.21-5.93,1.6-5.11-1.86-9.83-7.25-10.27-1.4-.12-2.81-.13-4.22-.22-3.59-.22-6.09,1.49-8.05,4.24-.67,.94-1.44,1.81-2.19,2.7-1.46,1.73-3.15,3.31-4.36,5.19-1.02,1.6-1.68,3.49-2.11,5.34-.22,.94,.44,2.07,.7,3.11,1.4-.44,1.1-1.65,1.12-2.6,.09-4.03,4.09-6.14,6.95-6.47,2.07-.24,3.74,1.06,3.53,2.83-.25,2.17-.67,4.27-2.03,6.19-2.74,3.87-5.27,7.89-7.84,11.87-.73,1.13-.19,2.01,1.17,1.9,.75-.06,1.46-.5,2.7-.96-2.31,3.14-4.35,5.92-6.42,8.68-1.16,1.54-2.59,2.93-3.52,4.59-1.06,1.9-1.68,4.02-2.52,6.04-.21,.5-.73,.94-.77,1.44-.2,2.23-.31,4.47-.39,6.7-.05,1.47-.35,3.08,.12,4.4,1.48,4.14,3.26,8.18,4.96,12.25,.29,.7,.65,1.49,1.23,1.95,3.38,2.69,6.04,6.23,10.18,8.03,1.27,.55,2.37,1.49,3.63,2.08,3.13,1.47,6.22,3.06,9.48,4.18,2.95,1.01,6.11,1.46,9.17,2.18,.49,.11,1,.24,1.41,.51,1.69,1.08,3.37,2.18,5.02,3.32,1.42,.99,2.04,2.42,1.58,4.04-.67,2.38-1.45,4.74-2.37,7.04-1.12,2.78-3.35,3.8-6.36,3.26-.89-.16-1.84-.02-2.77-.02,0,.19,0,.39,0,.58,.75,.13,1.5,.25,2.67,.45-2.3,.63-4.62-.27-6.32,1.96,3.14-.26,5.94-.49,8.64-.71,.1,.69,.19,1.28,.3,2.01,3.16-2.81,5.13-2.51,7.82-1.83-.54-.67-1.19-1.25-1.93-1.63-.77-.4-1.13-.75-.73-1.66,.51-1.16,.86-2.38,1.3-3.57,1.1-2.96,2.61-5.43,5.87-6.79,2.49-1.03,4.81-2.63,6.92-4.32,2.56-2.06,3.3-2.38,5.98-.33,2.87,2.2,5.51,4.69,8.3,7,2.24,1.86,3.32,4.21,3.48,7.05,.11,2.03-.12,2.32-2.2,2.19-.75-.04-5.5,1.76-5.97,2.32-.22,.26-.3,.62-.44,.93,2.76-.36,5.4-.7,8.09-1.04v2.35c1.45-1.11,2.46-2.25,3.74-2.75,1.27-.51,2.81-.38,4.23-.53,.07-.12,.14-.25,.21-.37-1.12-.46-2.28-.85-3.36-1.39-.73-.37-1.69-.81-1.96-1.46-.63-1.51-.91-3.16-1.31-4.76-.8-3.2,.29-5.77,2.93-7.76,1.9-1.44,3.7-3.05,5.31-4.79,.91-.98,1.62-1.24,2.68-.53,2.83,1.89,5.61,3.85,8.46,5.7,2.24,1.46,4.52,2.86,6.85,4.16,.52,.29,1.36,.02,2.06,0-.22-.68-.38-1.38-.67-2.03-.34-.76-.79-1.47-1.2-2.2,.16-.1,.31-.2,.47-.3,.78,.5,1.53,1.08,2.36,1.49,.59,.29,1.29,.38,1.94,.56-.2-.67-.29-1.41-.64-2-.67-1.14-1.48-2.19-2.23-3.28,.14-.11,.28-.22,.42-.33,.5,.32,.97,.73,1.52,.93,.78,.28,1.61,.41,2.43,.6-.25-.73-.4-1.52-.78-2.19-.59-1.04-1.35-1.99-2.27-3.33,1.75,.56,2.95,.94,4.16,1.33,.12-.18,.24-.35,.35-.53-1.06-1.52-2.13-3.04-3.43-4.9,1.47,.33,2.49,.56,3.52,.78,.11-.13,.23-.26,.34-.4-.41-.66-.83-1.32-1.23-1.98-.43-.71-.86-1.42-1.28-2.13,.12-.09,.24-.19,.36-.28,.84,.36,1.69,.73,2.53,1.09,.1-.12,.19-.23,.29-.35-.88-1.48-1.77-2.97-2.73-4.59,1.1,.3,1.86,.51,2.62,.72,.05-.15,.11-.3,.16-.45-.98-1.34-1.95-2.69-3.13-4.3,1.01,.17,1.63,.27,2.26,.38,.07-3.28,.76-4.17,3.89-4.8,1.31-.26,2.67-.34,4.01-.38,1.8-.04,3.6,.1,5.4,.02,.49-.02,.96-.55,1.44-.85-.45-.48-.84-1.04-1.37-1.41-.39-.27-.97-.28-1.61-.44,.72-1.25,1.63-1.32,2.68-1.25,.94,.06,1.91,.05,2.83-.14,1.21-.25,1.44-1.08,.53-1.89-.62-.56-1.41-.94-2.19-1.44,1.68-.53,3.28-.98,4.82-1.57,.4-.15,.9-.81,.84-1.16-.06-.38-.66-.83-1.12-.96-.59-.16-1.26-.04-1.89-.04,.63-.68,1.38-.97,2.11-1.29,1.12-.48,2.28-.89,3.32-1.51,.55-.33,.87-1.03,1.29-1.56-.68-.23-1.36-.45-2.04-.69-.08-.03-.12-.14-.36-.46,1.56-.62,3.06-1.18,4.53-1.81,.96-.42,1.94-1.11,1.43-2.2-.19-.41-1.5-.31-2.3-.46-.08-.01-.15-.11-.33-.25,1.87-1.48,4.51-2.12,5.43-4.77-.57-.34-1.11-.67-1.55-.93,1.04-1.08,2.12-2.08,3.04-3.21,.8-.98,.09-1.49-.86-1.72-.67-.16-1.36-.21-2.04-.31-.04-.15-.08-.29-.12-.44,1.19-.86,2.45-1.64,3.53-2.61,.44-.39,.49-1.18,.72-1.79-.66,0-1.32-.05-1.98,0-.49,.04-.96,.28-1.44,.29-.1,0-.39-.71-.28-.96,.23-.52,.59-1.03,1.03-1.41Zm-53.34-8.29c1.83,1,1.35,2.91,.83,4.46-.64,1.92-1.45,3.81-2.44,5.58-.97,1.72-2.53,2.79-4.96,2.48,.04,.72,0,1.27,.11,1.79,.27,1.35,1.11,1.84,2.32,1.14,1.34-.77,2.49-1.86,3.79-2.72,2.88-1.89,5.79-3.74,8.71-5.57,.5-.31,1.11-.45,1.68-.66,.13,.14,.26,.27,.39,.41-1.02,1.12-1.92,2.39-3.09,3.34-2.37,1.93-4.86,3.73-7.35,5.52-1.31,.94-2.68,1.83-4.12,2.55-2.8,1.4-5.82-.19-5.74-3.26,.13-5.11,1.56-9.88,5.42-13.61,1.21-1.17,2.7-2.42,4.46-1.45Zm-22.83,2.85c.6-1.47,1.29-2.91,2.1-4.28,.18-.3,1.09-.46,1.46-.29,.38,.18,.51,.86,.97,1.72-.81,1.2-1.62,2.51-2.57,3.72-.22,.29-.99,.44-1.33,.29-.34-.15-.74-.88-.63-1.17Zm-.9,3.13c.73-.92,1.74-1.16,2.69-.15-2.8,4.78-4.21,9.91-5.31,15.13,.22,.1,.44,.2,.66,.3,.4-.54,.92-1.04,1.19-1.64,1.8-3.95,3.56-7.93,5.32-11.9,.45-1,.74-2.09,1.3-3.03,.86-1.42,2.13-1.69,3.52-.94-3.29,4.6-3.16,9.83-3.13,15.22,3.6-2.15,7.02-11.22,6.59-17.06,1.41-.34,2.23,.15,2.22,1.64,0,1.35-.24,2.74-.61,4.05-1.33,4.77-3.53,9.15-6.73,13-.6,.72-2.13,1.67-2.48,1.43-.9-.6-1.54-1.74-1.98-2.78-.34-.82-.21-1.82-.31-3.08-1.23,2.47-2.24,4.6-3.35,6.7-.61,1.15-1.3,1.91-2.69,.59-.7-.67-2.39-.34-2.34-1.86,.04-1.08,.32-2.17,.64-3.21,.95-3.11,1.92-6.21,3-9.27,.4-1.12,1.04-2.2,1.78-3.14Zm-4.85,7.61c-1.92,6.59-3.8,13.21-5.92,19.74-.54,1.66-1.73,3.22-2.94,4.55-1.78,1.96-4.36,1.62-5.58-.67-.35-.65-.26-1.84,.13-2.5,.99-1.7,2.19-3.3,3.45-4.82,.81-.97,1.78-1.87,2.84-2.56,1.79-1.17,2.41-2.92,2.86-4.8-2.19,2.41-4.23,5.14-7.63,5.7-1.66,.27-3.52-.55-5.28-.88-.02-.15-.05-.31-.07-.46,1.12-.65,2.22-1.32,3.37-1.92,.21-.11,.65,0,.89,.15,1.63,.99,3.14,.49,4.31-.63,3.65-3.5,6.19-7.6,6.9-12.67,.07-.54,.89-1.12,1.5-1.37,.21-.09,1.03,.69,1.21,1.19,.21,.58,.15,1.33-.03,1.95Zm-17.55-2.65c1.56-4.62,3.83-8.92,7.37-12.46,1.73-1.73,3.74-3.02,6.3-3.19,2.28-.16,3.74,.93,3.91,3.15,.37,4.72-1.28,8.87-4.18,12.56-1.1,1.39-2.33,1.06-3.68-.77,3.87-2.15,5.58-5.58,5.77-9.75,.04-.88-.53-2.32-1.19-2.58-.82-.31-2.29,.04-3.03,.63-3.07,2.46-4.82,5.9-6.52,9.32-1.83,3.69-3.14,7.52-3.16,11.7,0,.43-.53,1.04-.98,1.25-.85,.39-1.81,.53-2.72,.78-.21-.11-.41-.23-.62-.34,.89-3.43,1.59-6.93,2.72-10.29Zm-9.81,4.65c.87-.95,2.03-1.32,3.37-.85,1.8,.64,2.65,1.56,2.88,3.32-4.42-.9-4.92-.46-6.7,5.74-.54,0-1.14,.01-1.73,0-.55-.02-1.1-.07-1.92-.13,.99-3.01,2.02-5.81,4.11-8.09Zm-15.3,41.94c-.23,1.55-.03,3.17-.03,4.99-.46-.24-.95-.37-1.25-.67-2.54-2.61-4.85-5.28-4.18-9.33,1.39-8.4,3.33-16.66,6.29-24.67,.11-.3,.22-.6,.35-.98-5.09-1.94-9.97-4.24-15.57-4.01-.14-2.99,3.27-3.06,3.89-5.47,1.39,.58,2.65,1.12,3.93,1.62,4.06,1.59,8.05,3.43,12.22,4.68,5.79,1.73,11.64,1.39,17.45-.36,2.87-.87,5.68-1.58,6.53-5.4,1.05,2.35,.38,4.38-1.58,5.61-6.33,3.94-12.97,6.67-20.71,4.67-1.03-.27-1.59,.04-1.85,1.03-.79,3.03-1.78,6.02-2.35,9.09-1.18,6.38-2.18,12.79-3.14,19.2Zm86.05-10.91c-4.11,1.5-7.67,3.84-11.02,6.59-4.3,3.54-8.56,7.16-13.15,10.31-7.42,5.09-16.04,7.53-24.82,9.6,3.47-1.55,6.94-3.1,10.41-4.65,6.86-3.06,12.82-7.5,18.92-11.72,3.08-2.13,6.18-4.21,9.32-6.26,3.38-2.21,7.75-3.89,11.73-4.51-.7,.32-1.04,.5-1.4,.63Zm2.84-3.44c-5.35,.23-10.12,2.44-14.69,4.98-9.46,5.25-18.27,11.41-26.94,17.83-5.7,4.22-12.36,6.71-19.6,7.38-.45,.04-.9,.04-1.35,.03-.15,0-.3-.08-.08-.02,3.78-1.6,7.91-2.95,11.62-5.01,7.84-4.34,15.13-9.53,21.96-15.27,7.48-6.28,15.96-10.31,25.85-10.92,3.59-.22,7.25,.48,10.87,.82,.63,.06,1.23,.44,1.73,.64-3.09-.17-6.25-.59-9.38-.45Zm24.4-32.15c-1.83,1.93-4.6,1.75-7.02,1.35-3.24-.55-6.43-1.45-9.6-2.36-2.79-.8-5.51-1.81-8.33-2.75,.26-1.5,1.25-2.01,3.01-1.61,3.06,.69,6.15,1.31,9.25,1.84,3.09,.53,6.21,.83,9.19-.54,.55-.25,.99-.76,1.67-1.3,1.04,.44,1.46-.92,2.3-1.54,.31-.23,.83-.2,1.26-.29,.04,.34,.09,.68,.14,1.08,.37,.13,.83,.28,1.55,.53-1.16,1.96-1.97,4.07-3.42,5.6Zm4.25-13.17c-.15-.38-.29-.72-.43-1.09-.37,.17-.68,.31-.99,.45-.05-.07-.1-.14-.15-.21,.33-.28,.66-.57,1.14-.98-.49-.61-.98-1.23-1.47-1.85-.12,.09-.24,.18-.36,.27-.82-3.21-8.11-6.76-11.77-5.92,.81,1.63,1.97,3.22,2.41,4.99,.91,3.66-2.14,7.83-5.9,8.53-2.19,.41-4.59-.62-5.45-2.72-.68-1.68-.88-3.54-1.33-5.5-1,1.72-2.31,3.47-3.11,5.42-2.3,5.61-4.43,11.29-6.54,16.97-1.36,3.66-2.57,7.37-3.47,11.21,.32-.63,.58-1.3,.98-1.89,1.82-2.69,3.54-5.47,5.58-7.99,.84-1.04,2.32-1.75,3.65-2.24,2.32-.85,3.68,.08,4.04,2.46,.81,5.36-2.91,11.05-8.22,12.54-.32,.09-.64,.17-1.5,.39,.7,1.22,1.13,2.35,1.89,3.22,1.11,1.28,2.6,1.35,3.9,.24,.96-.82,1.92-1.77,2.54-2.84,2-3.49,3.92-7.04,5.73-10.63,1.53-3.02,3.59-5.34,7.18-5.84,.87-.12,1.81-.03,2.67,.18,1.08,.27,2.01,.62,3.26,.53,1.07-.08,2.24,1.26,3.62,2.13-3.67,2.59-3.85,6.34-4.93,9.9-1.57-1.9-2.66-3.74-2.15-6.2,.12-.57-.13-1.71-.4-1.77-.77-.17-1.8-.17-2.44,.22-1.83,1.1-2.66,3.71-1.78,6.05,.7,1.89,1.81,3.63,2.8,5.41,.18,.33,.68,.66,1.05,.69,1.82,.12,5.21-.93,5.96-3.07,.28-.8,.78-1.53,1.18-2.3,.18-.01,.36-.03,.55-.04,.16,.92,.58,1.86,.45,2.74-.41,2.85-2.36,4.47-5.11,5.01-1.6,.31-2.28,.79-2.39,2.55-.22,3.9-2.67,5.19-6.42,3.74-3.03-1.17-5.77-2.7-7.68-5.26-.96,.86-1.82,1.7-2.77,2.45-1.28,1-2.66,1.11-4.05,.17-.23-.16-.46-.43-.7-.44-3.04-.12-4.5-2.15-5.76-4.63-1.55,1.56-2.15,3.39-2.53,5.32-.31,1.6-1.15,1.94-2.34,.82-.96-.9-1.71-2-2.56-3.01-.27,.52-.71,1.47-1.23,2.38-.74,1.29-1.5,2.58-2.33,3.82-.54,.81-4.9,1.7-5.59,1.09-.45-.4-.82-1.11-.84-1.69-.03-1.02,.14-2.09,.42-3.08,1.2-4.34,2.48-8.67,3.43-13.25-1.1,1.37-2.3,2.67-3.28,4.11-3.62,5.32-5.1,11.45-6.76,17.51-.45,1.64-.85,3.31-1.45,4.91-.61,1.63-2.27,2.65-3.95,2.47-.56-.06-1.07-.64-1.62-.99-.73,1.6-1.44,3.38-2.36,5.05-.68,1.23-1.25,2.8-3.43,1.59-.77-.43-2.16,.21-3.6,.4-.44,.94-.97,2.33-1.71,3.6-.61,1.03-1.37,2.03-2.24,2.86-1.11,1.05-2.06,.84-3-.31-.32-.39-.78-.69-1.2-1-.77-.57-1.56-1.11-2.26-1.61-.82,1.53-1.6,3.28-2.65,4.87-1.14,1.72-2.29,1.63-3.59,.02-.29-.36-.69-.71-1.12-.88-3-1.18-3.93-3.02-3.45-6.26,.72-4.84,1.27-9.7,1.88-14.55,.03-.21,0-.43,0-1.11-.68,.74-1.22,1.13-1.49,1.66-1.69,3.28-3.39,6.55-4.93,9.89-1.13,2.45-1.92,5.05-3.06,7.5-1.13,2.42-2.4,2.16-4.23,.25-3.11-3.25-3.02-7.04-2.45-10.83,1.23-8.2,2.78-16.35,4.21-24.6,1.61-.09,2.93-.16,4.43-.24-.61,4.85-1.21,9.61-1.82,14.37-.62,4.79-1.25,9.57-1.59,14.45,.45-1.16,.83-2.36,1.37-3.48,1.62-3.37,3.18-6.78,5.04-10.02,.59-1.03,1.94-1.87,3.13-2.31,3.16-1.16,5.55,.2,5.71,3.49,.16,3.22-.23,6.47-.51,9.69-.19,2.24-.66,4.46-.88,6.7-.1,1,.1,2.03,.16,3.05,.2,.09,.4,.19,.6,.28,.77-.85,1.89-1.58,2.23-2.57,.97-2.84,1.98-5.75,2.3-8.7,.53-4.8,1.08-9.55,3.59-13.78,.99-1.67,2.39-3.2,3.88-4.49,1.95-1.69,3.56-1.51,5.62,.23,1.07-2.03,1.84-4.36,4.4-5.03,.64-.17,1.44,.26,2.36,.45-2.76,3.79-3.24,7.98-3.79,12.09-.54,4.01-1.26,8.05-.91,12.11,.25,.07,.49,.13,.74,.2,.58-1.07,1.34-2.07,1.7-3.2,1.81-5.67,3.51-11.37,5.24-17.06,.56-1.84,.87-3.8,1.72-5.5,.71-1.41,1.89-2.71,3.15-3.7,.69-.54,1.99-.32,3.09-.21-2.21,3-3.21,6.26-3.98,9.58-.77,3.31-1.37,6.66-1.72,10.07,.59-2.2,1.14-4.4,1.77-6.58,1.42-4.89,3.24-9.61,6.49-13.68,1.57-1.96,3.47-3.44,5.97-4.09,2.28-.59,3.53,.44,2.9,2.66-1,3.55-2.26,7.02-3.39,10.54-.29,.89-.55,1.8-.71,2.71-.11,.62-.02,1.27-.02,1.9,.15,.07,.31,.14,.46,.22,.84-1.1,1.88-2.11,2.47-3.32,1.73-3.51,3.48-7.04,4.86-10.69,3.47-9.18,6.72-18.43,10.12-27.63,.63-1.7,1.48-3.33,2.38-4.91,.34-.6,1.13-.96,1.69-1.45,.23-.2,.61-.52,.57-.7-.39-1.51,.9-1.88,1.77-2.42,2.03-1.28,13.07-3.79,15.46-3.44,4.4,.63,7.43,3.11,9.51,6.91,1,1.82,1.7,3.53,.47,5.53Z"/>
      <path d="M117.09,82.6c-1.26,.03-1.75,.93-1.83,2.04-.09,1.2,.63,1.83,1.82,1.88,1.32,.06,1.94-.71,2.03-1.91,.09-1.3-.69-1.88-2.02-2.02Z"/>
      <path d="M33.41,100.55c.04-1.3-.9-1.76-1.99-1.95-1.22,.09-1.94,.65-2.03,1.82-.09,1.11,.91,2.04,2.15,2.02,1.25-.02,1.83-.78,1.87-1.89Z"/>
      <path d="M4.85,29.78c1.04,0,2.25-1.15,1.95-2.16-.23-.77-1.04-1.38-1.99-2.55-.85,1.18-1.65,1.81-1.75,2.53-.14,1.08,.28,2.17,1.79,2.18Z"/>
      <path d="M81.73,13.15c.01-.3-.64-.92-.91-.87-.43,.07-1.04,.53-1.1,.9-.05,.34,.51,.78,1.01,1.45,.49-.68,.98-1.07,1-1.48Z"/>
      <path d="M42.83,22.43c.31-.39,.81-.75,.88-1.18,.05-.29-.51-.67-.99-1.25-.46,.65-1,1.09-.95,1.44,.05,.37,.68,.66,1.06,.99Z"/>
      <path d="M1.46,48.13c.35,.04,.77-.52,1.45-1.05-.73-.43-1.15-.88-1.55-.86-.33,.02-.93,.65-.87,.9,.09,.41,.59,.97,.96,1.01Z"/>
      <path d="M113.67,104.05c-.01,.33,.57,.93,.94,.97,.36,.04,.78-.48,1.45-.94-.66-.48-1.07-1.02-1.42-.98-.38,.04-.95,.61-.97,.96Z"/>
      <path d="M10.7,95.76c.32,.53,.65,1.07,.97,1.6,.38-.31,.77-.63,1.15-.94-.45-.43-.89-.86-1.34-1.28l-.78,.62Z"/>
      <path d="M58.41,66.4c-.84,1.22-1.67,2.5-2.16,3.88-1.86,5.21-2.37,10.6-1.8,16.08,.12,1.11,.44,2.21,.67,3.31,.21,.02,.43,.04,.64,.07,.36-.58,.79-1.13,1.07-1.75,2.39-5.16,3.68-10.61,4.02-16.24,.1-1.66-.25-3.39-.62-5.03-.24-1.08-1.15-1.28-1.81-.31Z"/>
      <path d="M118.52,53.3c-1.18,2.33-2.33,4.61-3.72,7.37,2.82-.29,5.28-.55,7.97-.83-1.59-2.44-2.87-4.42-4.25-6.54Z"/>
      <path d="M120.02,17.62c-1.56-.22-1.75,.96-1.84,2.07-.17,1.94,1.27,3.82,2.84,3.86,1.49,.04,2.71-1.39,2.72-3.18,0-1.43-1.66-2.69-3.72-2.75Z"/>
      <path d="M110.22,44.5c-3.21,2.72-5.35,6.16-7.25,10.05,3.04-.47,7.12-6.13,7.25-10.05Z"/>
      <path d="M119.5,63.02c1.18,.14,2.36,.35,3.55,.36,.17,0,.35-.92,.61-1.62-1.62,.28-2.85,.5-4.08,.72-.02,.18-.05,.36-.07,.55Z"/>
      <path d="M50.31,63.19c2.96-1.47,3.45-4.43,4.44-7.1-2.11,1.99-4.49,3.8-4.44,7.1Z"/>
      <path d="M87.43,36.49c1.12-1.98,2.05-4.07,2.94-6.16,.16-.38-.23-.97-.37-1.47-.48,.2-1.12,.28-1.43,.63-1.92,2.16-2.69,4.82-3.5,7.46,.12,.15,.25,.31,.37,.46,.68-.3,1.7-.41,1.99-.92Z"/>
    </g>
  </g>
</svg>