<?xml version="1.0" encoding="UTF-8"?>
<svg id="_图层_2" data-name="图层 2" xmlns="http://www.w3.org/2000/svg" viewBox="0 0 139.41 159">
  <defs>
    <style>
      .cls-1 {
        fill-rule: evenodd;
      }
    </style>
  </defs>
  <g id="_图层_2-2" data-name=" 图层 2">
    <g>
      <path class="cls-1" d="M71.45,65.97l-1.97-.1-.03-1.91v-2.5l-.1-1.04,.6-.96,10.84-.09,.65-5.9-.09-1.51,.59-3.98-.09-.52,.59-3.98-.09-2.51,.59-3.98-.09-2.01,.59-3.98-.09-2.01,.59-3.98-.09-1.02,.59-3.98-.09-5.01,.59-3.98-.09-3.01,.59-3.98V0h-18.99l-.5,1V67.46s-.09,1.98-.09,1.98l-3.41,.02h-1l-1.81-.31-.19-2.19v-7s-.09-1.85-.09-1.85l-5.9-.65-3.01,.09-3.98-.59-2.01,.09-3.98-.59-4.01,.09-3.98-.59-.52,.09-3.98-.59-.52,.09-3.98-.59-3.51,.09-3.98-.59-2.51,.09-3.98-.59-1.02,.09-3.98-.59H0v19.49l36.98-.02,1.95,.15c-1.37,1.89-4.07,3.42-3.97,6.37l.1,1.47,1.91,.03h1s1.96,.08,1.96,.08l.05,1.42-.1,1.97-3.88,.11-.03,1.91v2s.08,1.97,.08,1.97l3.88,.11,.03,1.91,.09,7.51-.59,3.98v1c0,2.95-3.01,17.06-4.16,19.82-2.64,6.34-3.79,9.96-7.29,16.6l1.96,.06h2s1.96,.08,1.96,.08l.05,1.42-.1,1.97-1.91,.03h-7s-1.97,.08-1.97,.08l-.03,1.91v2l59.28,.19-2.27,3.68,1.96,.63h1l6.51,.09,6.98-1.09,2.01,.09,3.98-.59,3.5-.04,12.99,2.03h8c1.85,0,3.32-.72,4.46-1.43l-2.97-5.57v-3c0-3.18,2-8,2-11.99,0-2.82-1.88-7.56-2.7-10.29-1.21-4.02,1.99-6.61,3.7-9.19-2.42,.66-3.03,2-6.5,2h-.5c-3.7,0-8.5,2-11.99,2l-14.01,.09-3.98-.59h-6c-3.52,0-6.13-1.45-8.91-1.91,.4,2.39,1.91,4.76,1.91,7.41s-.95,3.25-1.5,5.5v6c0,2.03,.42,1.65,.02,3.59l-5.46-14.04-.06,1.96v13.99s-.08,1.97-.08,1.97l-1.91,.03-21.1-.02,.62-4.48-.09-1.01,.59-3.98-.09-3.01,.59-3.98-.05-1.01,1.05-7.99-.09-1.02,.59-3.98-.09-3.01,.59-3.98-.09-1.02,.59-3.98-.09-2.01,.59-3.98-.09-1.51,.59-3.98-.09-1.02,.59-3.98v-3h12.49c-.52,1.24,.73,1-2,1h-7.5s-1.97,.08-1.97,.08l-.03,1.91,.09,1.01-.59,3.98,.09,3.51-.59,3.98,.05,2.01-1.05,7.99,.09,4.01-.59,3.98,.05,3.01-1.05,7.99,.09,2.01-.59,3.98,.09,2.01-.59,3.98v4.5h19.49V69.96l1-.5h3.5s1.97,.08,1.97,.08l.03,1.91v7.5s.09,1.85,.09,1.85l5.9,.65,1.52-.09,3.98,.59,.52-.09,3.98,.59,3.51-.09,3.98,.59,.52-.09,3.98,.59,3.51-.09,3.98,.59,1.51-.09,3.98,.59,3.01-.09,3.98,.59,3.01-.07,7.48,1.07h1.5v-19.99H71.45ZM77.46,1.58l1.99-.1h2.5s1.91,.04,1.91,.04l.1,1.97c.02,1.66-.51,1.4-.51,3.5v4c0,1.83-.29,1.79-.59,3.41l-1.91,.1h-1.5s-2-.1-2-.1V1.58Zm-.83,25.41l.47-10.91,1.86-.1h2s1.91,.04,1.91,.04l.1,1.97c.02,1.66-.51,1.4-.51,3.5v1.5l-.59,3.98,.09,.52-.03,1.91-1.97,.1h-1.5s-1.91-.04-1.91-.04l-.1-1.97,.18-.49Zm-.5,14.99l.47-10.91,1.86-.1h1s1.91,.04,1.91,.04l.1,1.97v2s-.61,3.98-.61,3.98l.09,2.51-.19,2.19-2.3,.38-.51-.07-1.91-.03,.08-1.96Zm1.83,3.49h.5s1.97,.08,1.97,.08v1.91s-.97,10-.97,10l-3.41-.02-.09-5.48,.08-6.47,1.91-.03ZM69.47,1.58l1.99-.1h2.5s1.91,.04,1.91,.04l.1,1.97v.5s-.61,3.98-.61,3.98l.09,4.51-.03,1.91-1.97,.1h-2s-2-.1-2-.1V1.58Zm0,14.49l1.99-.1h2s1.91,.04,1.91,.04l.1,1.97v4s-.61,3.98-.61,3.98l.09,1.51-.03,1.91-1.97,.1h-1.5s-2-.1-2-.1v-13.32Zm0,14.99l1.99-.1h1.5s1.91,.04,1.91,.04l.1,1.97v4s-.61,3.98-.61,3.98l.09,1.02-.03,1.91-1.97,.1h-1s-2-.1-2-.1v-12.82Zm0,14.41h5v11.99h-4.91s-.09-2.5-.09-2.5v-9.49ZM14.49,67.46l-.03,1.91-1.97,.1H3.5s-2-.1-2-.1v-5.82s2-.1,2-.1H12.49s1.91,.04,1.91,.04l.1,1.97v2Zm-.01-7.5l-.03,1.91-1.97,.1h-2s-3.98-.61-3.98-.61l-3.01,.09-2-.09v-5.82s2-.1,2-.1h3.5s3.98,.61,3.98,.61l1.51-.09,1.91,.03,.1,1.97v2Zm14.48,7.5l-.03,1.91-1.97,.1h-8.99s-2-.1-2-.1v-5.33s2-.1,2-.1h8.99s1.91,.04,1.91,.04l.1,1.97v1.5Zm.49-7l-.03,1.91-1.97,.1h-1.5s-3.98-.61-3.98-.61l-4.01,.09-2-.09v-5.33s2-.1,2-.1h1s3.98,.61,3.98,.61l3.01-.09c1.83,0,1.79,.29,3.41,.59l.1,1.91v1Zm14.48,7l-.03,1.91-1.97,.1h-8.99s-1.99-.1-1.99-.1l.02-4.83,1.98-.1h8.99s1.91,.04,1.91,.04l.1,1.97v1Zm-.01-6.5l-.03,1.91-1.97,.1h-8.99s-2-.1-2-.1v-5.33s3.98,.5,3.98,.5l3.51-.09,5.4,.65,.11,1.85v.5Zm46.67,72.45l1.23,1.96,.27-3.46,1.79,3-.76-6.04,1.17,1.5,.09-.96,.22-2.5,1.21,1.96,.07-1.46c.12-1.84-.43-.84-.26-3.01l1.99,4.02,2.79-4.94-.9,5.44,3.39-.81-2.45,2.25,2.46-.24-3.02,2.28,.46,.43,2.09-.18-5.05,3.74,1.01-.02,3.47-1.32-3.41,3.34,1.97-.26-3,2.63c2.74-.32,3.82-1.31,5.5-3.29l-.28,2.47,2.52-3.5,.67,1.45,2.54-3.41-1,3.92,3.54-4.42-.21,2.52,2.69-3.53-.36,2.91,2.43-2.87-.97,3.84,5.9-1.71-4.98,3.52,2.91,1.69-2-.05-.96,.6,1.96,.95-3.96,.27,1.96,1.22-1.96,.06-.5-.02-2,.24,1.96,1.15c-2.12,.06-1.05-.45-2.96-.39l-2.05,.35,2.01,1.12-3.95,.26,2.42,1.34-3.93-.55h-.5c-1.83,0-3.14-.38-4.43-1.62l-.06-1.37c-.07-1.14,.26-2,.41-2.91-2.23,.44-3.48,3.6-6.41,3.44l-1.42-.12-.58-.91-.82-.64-1.38-7.41,1.64,2.52,.07-1.46c.12-1.84-.43-.84-.28-3Zm-11.21,8l.51-.07,2.28,.38,.21,1.69c.09,.53-.05,1.01-.08,1.47l-1.91,.03h-1s-1.97-.09-1.97-.09l-.02-3.33,1.99-.09Zm-22.02-72.54l-1.97,.1h-1.5s-3.98,.58-3.98,.58l-2.51-.09-1.99-.09,.02-4.33,1.98-.1h8s1.91,.04,1.91,.04l.1,1.97-.05,1.91Zm0-5.5l-1.97,.1h-3s-3.98-.61-3.98-.61l-1.02,.09-1.99-.09,.02-3.83,1.98-.1h2.5s3.98,.61,3.98,.61l1.51-.09,1.91,.03,.1,1.97-.05,1.91Zm2.01,20.07l.1-1.97,1.91-.04,1.97,.1,.03,1.91,.05,5-.69,4.9-1.86,.11-1.97-.1-.03-1.91-.09-1.51,.59-3.98v-2.5Zm-1.5,19.49l-.05-3.01,.63-4.96,1.91-.03h.5s1.97,.08,1.97,.08l.03,1.91v9.49s-.08,1.97-.08,1.97l-1.91,.03h-1.5s-2.11-.11-2.11-.11l.61-5.39Zm3.99,24.98c0,2.03-.5,1.86-.5,3.5l-.08,6.47-1.91,.03h-2.5s-2.06-.11-2.06-.11l.56-3.89-.09-3.01,.59-3.98v-.5s.08-1.97,.08-1.97l1.91-.03h2s1.97,.08,1.97,.08l.03,1.91v1.5Zm.5-14.99c0,2.03-.5,1.86-.5,3.5l-.08,6.47-1.91,.03h-1.5s-1.97-.08-1.97-.08l-.03-1.91-.04-2.5,1.13-8.46,1.91-.03h1s1.97,.08,1.97,.08l.03,1.91v1Zm6.91,24.95l-1.91,.03h-2.5s-2.11-.11-2.11-.11l.59-5.89v-5.49s.1-1.97,.1-1.97l1.91-.03h2s1.97,.08,1.97,.08l.03,1.91v9.49s-.08,1.97-.08,1.97Zm0-14.99l-1.91,.03h-1.5s-1.99-.09-1.99-.09v-12.82s1.99-.09,1.99-.09h1.5s1.97,.08,1.97,.08l.03,1.91v8.99s-.08,1.97-.08,1.97Zm0-14.49l-1.91,.03h-1s-1.99-.09-1.99-.09v-13.32s1.99-.09,1.99-.09h1s1.97,.08,1.97,.08l.03,1.91v9.49s-.08,1.97-.08,1.97Zm0-14.99l-1.91,.03h-.5s-1.99-.09-1.99-.09v-11.82s1.99-.09,1.99-.09h.5s1.97,.08,1.97,.08l.03,1.91v8s-.08,1.97-.08,1.97Zm23.98-12.99l-1.91,.03c-2.07,.05-1.87-.5-4-.5h-2c-1.86,0-2.08-.4-3.97-.58l-.02-3.33,1.99-.09h8s1.97,.08,1.97,.08l.03,1.91v.5s-.08,1.97-.08,1.97Zm.08-7.96l-.03,1.91-3.95-.5-6.01,.09-1.99-.09,.02-4.33,1.98-.1h8s1.91,.04,1.91,.04l.1,1.97v1Zm14.89,8.96l-1.91,.03-1.02,.09-3.98-.59h-4.5s-1.98-.09-1.98-.09l-.02-4.83,1.5-.09c1.6-.06,1.42,.5,3.5,.5h6.5s1.97,.08,1.97,.08l.03,1.91v1s-.08,1.97-.08,1.97Zm.08-8.46l-.03,1.91-1.97,.1h-6s-5.49-.6-5.49-.6l.02-4.83,1.98-.1h9.49s1.91,.04,1.91,.04l.1,1.97v1.5Zm14.39,9.96l-1.42,.04c-1.6,.06-1.42-.5-3.5-.5l-2.5,.02-5.47-.61-.02-4.83,2-.09h8.99s1.97,.08,1.97,.08l.03,1.91v2s-.08,1.96-.08,1.96Zm0-7.49l-1.91,.03-5.5,.02-5.48-.61v-5.33s1.98-.09,1.98-.09h8.99s1.97,.08,1.97,.08l.03,1.91v2s-.08,1.97-.08,1.97Zm14.99,8.49l-1.91,.03h-2s-9.47-1.08-9.47-1.08v-5.33s1.98-.09,1.98-.09h9.49s1.97,.08,1.97,.08l.03,1.91v2.5s-.08,1.97-.08,1.97Zm0-8l-1.91,.03h-5.5s-5.98-.59-5.98-.59v-5.82s1.98-.09,1.98-.09h9.49s1.97,.08,1.97,.08l.03,1.91v2.5s-.08,1.97-.08,1.97Z"/>
      <path class="cls-1" d="M83.45,105.43c-2.75-.18-9.47,3.25-8.15,7.45l3.15-.45c2.71,1.37,5.45,2.5,8.5,2.5l4.51-.09,3.98,.59,18.48-.04,15.37-2.58c1.97-1.81,2.88-2.25,5.54-2.46-.05-3.6-6.38-5.41-9.41-5.41h-2.5s-1.98,.09-1.98,.09l.08,1.78,2.4,.63-.72,.96-.93-.93-1.69,.11,.21-1.51c-1.88-1.47-2.89-2.07-5.37-2.13l-.15-1.57-1.31,.51-1.99-.36-.05,.92c-3.42-1.56-1.25-.02-4.51-2.48l-.66,1.96-1.41-1.46-.56,2.45-.86-.47,.41-2.41c-3.29,.66,.14,.89-1.74,2.33-1.2-1.64-.61-.17-.32-2.2l-2.04-1.24-1.16,.48-.61-1.49c-1.49,.64-.61-.83-1.16,1.47l-1.36-.37-2.03,1.44-1.46-.42-1.04,1.92-.59,.5c.89,1.63,.96,.49-.45,1.93l-.3-2.59-1.38,1.39-3.79,2.27,.46-.93-1.46-.07Z"/>
      <polygon class="cls-1" points="107.27 153.8 105.98 153.49 105.86 154.99 107.59 156.19 110.38 155.82 110.43 154.9 108.21 152.94 107.27 153.8"/>
      <path class="cls-1" d="M103.01,152.41l-2.62,1.39c.53,1.35,.73,1.65,2.55,1.62l1.91-.1c-.05-1.38-.7-2-1.84-2.9Z"/>
      <path class="cls-1" d="M94.73,155.31l-.43,1.54-1.77-.87c.06,1.87,.04,1.07,1.87,2.33l2.45-.5c-.06-1.53-.64-1.92-2.13-2.5Z"/>
      <path class="cls-1" d="M98.02,156.49c.06,1.53,.64,1.92,2.09,2.51l.82-1.59-.1-1.46-2.82,.55Z"/>
      <polygon class="cls-1" points="77.93 154.03 78.37 155.29 76.89 154.26 75.82 155.49 78.81 156.8 79.36 153.92 77.93 154.03"/>
      <path class="cls-1" d="M81.96,154.97c.17,1.58,.76,2.28,2.54,2.29l-.39-1.25,.72-1.65-2.87,.61Z"/>
      <polygon class="cls-1" points="84.88 156.27 85.1 157.45 88.01 155.94 87.79 154.85 84.88 156.27"/>
      <path class="cls-1" d="M100.94,157.4l.16,1.56,2.93-1.56c-1.74-.98-.67-.22-3.08,0Z"/>
      <polygon class="cls-1" points="79.36 156.21 81.03 156.24 80.11 154.91 79.36 156.21"/>
      <polygon class="cls-1" points="110.43 154.9 111.91 155.32 111.69 153.77 110.43 154.9"/>
    </g>
  </g>
</svg>