<?xml version="1.0" encoding="UTF-8"?>
<svg id="_图层_2" data-name="图层 2" xmlns="http://www.w3.org/2000/svg" viewBox="0 0 105.21 97.84">
  <g id="_图层_2-2" data-name=" 图层 2">
    <g>
      <path d="M74.22,64.1c-.23-.2-.46-.55-.82-.35-.28,.15-.19,.51-.21,.78-.19,2.01-.88,3.83-2.81,4.65-1.51,.64-2.79,1.45-4.08,2.45-1.9,1.47-4.26,1.68-6.61,1.53-.68-.04-1.23,.13-1.83,.43-3.35,1.69-6.78,1.8-10.16,.13-.8-.39-1.54-.57-2.41-.55-2.97,.08-5.73-.49-7.8-2.89-.22-.26-.51-.37-.83-.46-3.02-.88-4.18-2.3-4.46-5.43-.03-.31,.08-.72-.31-.84-.36-.11-.57,.23-.81,.44-2.3,2.04-4.27,4.36-5.42,7.23-2.01,4.98-2.7,10.03-.05,15.03,2.11,3.99,5.63,6.41,9.63,8.19,5.53,2.47,11.4,3.31,16.5,3.4,7.39,0,13.5-1.19,18.96-3.75,6.21-2.91,11.61-8.33,10.43-16.99-.71-5.22-2.97-9.53-6.9-13Z"/>
      <path d="M38.39,66.92c.56,.08,.99,.19,1.23,.78,.45,1.11,1.4,1.63,2.48,1.98,1.54,.5,3.11,.53,4.67,.18,.52-.12,.88-.03,1.31,.34,2.38,2.07,6.71,2.1,9.1,.06,.5-.42,.92-.52,1.53-.38,1.62,.39,3.22,.26,4.79-.27,.86-.29,1.72-.7,2.05-1.59,.3-.83,.79-1.03,1.61-1.13,2.35-.27,3.28-1.64,2.82-3.99-.16-.84-.41-1.65-.74-2.44-1.26-3.05-3.06-5.8-4.83-8.56-1.23-1.93-1.23-1.88,.65-3.11,3.79-2.47,5.97-5.86,5.88-10.5,0-4.74-1.57-8.84-5.09-12.05-6.81-6.2-18.47-6.5-25.7-.71-5.26,4.21-7.42,12.03-4.86,17.86,1.09,2.47,2.92,4.33,5.29,5.65,1.57,.88,1.57,.93,.61,2.5-.63,1.04-1.33,2.03-1.95,3.08-1.51,2.54-3.1,5.05-3.79,7.97-.61,2.6,.33,3.94,2.96,4.32Zm16.49-9.78c-2.03,.7-3.98,.67-5.74-.71-.51-.4-.67-1-.65-1.64,.08-1.98,.18-3.96,.25-5.94,.02-.65,.3-.78,.85-.51,.07,.04,.15,.06,.22,.11,1.88,1.29,3.74,1.23,5.62,0,.67-.44,1.02-.3,1.04,.57,.03,1.29,.28,2.58,.21,3.88,0,.2-.02,.41,0,.61,.15,1.59,.01,3.03-1.8,3.65Zm7.01-26.68c2.68,0,4.48,1.54,4.5,3.87,.02,2.35-1.89,4.1-4.47,4.09-2.5,0-4.16-1.64-4.16-4.06,0-2.42,1.57-3.89,4.12-3.9Zm-12.4,8.28c.18-.99,.23-2.01,.69-2.94,.51-1.02,1.24-1.69,2.45-1.67,1.14,.03,1.93,.6,2.35,1.62,.29,.7,.54,1.47,.58,2.22,.07,1.56,.85,2.51,2.16,3.21,1.04,.56,2.32,1.38,2.39,2.39,.05,.72-1.66,.97-2.58,1.42-1.2,.59-2.48,1-3.66,1.63-.93,.5-1.71,.43-2.62,0-1.82-.87-3.68-1.68-5.54-2.48-.79-.34-.88-.68-.25-1.3,.82-.79,1.61-1.62,2.64-2.12,.86-.42,1.21-1.09,1.38-1.98Zm-11.17-4.31c0-2.46,1.53-3.95,4.06-3.96,2.76-.02,4.56,1.53,4.56,3.92,0,2.35-1.83,4.04-4.37,4.04-2.51,0-4.25-1.64-4.25-3.99Z"/>
      <path d="M36.59,51c-5.54-5.96-11.06-11.94-16.57-17.93-.46-.5-.95-.65-1.61-.59-5.65,.51-10.32,5.6-10.35,11.31,0,1.1,.2,2.17,.54,3.22,.21,.65,.58,1.09,1.24,1.38,7.29,3.23,14.57,6.49,21.86,9.73,1.28,.57,1.86,.38,2.53-.9,.81-1.54,1.59-3.1,2.58-4.54,.46-.67,.32-1.12-.21-1.68Z"/>
      <path d="M73.8,58.02c6.76-3.03,13.48-6.14,20.29-9.04,1.92-.82,2.81-2,2.96-3.94,.03-.4,.07-.8,.08-.96-.02-4.96-3.48-9.71-7.92-11.16-1.96-.63-3.81-.92-5.06,1.26-.06,.1-.17,.18-.25,.26-5.02,5.44-10.03,10.89-15.08,16.31-.63,.68-.74,1.19-.22,1.99,.89,1.4,1.68,2.86,2.46,4.32,.86,1.59,1.07,1.69,2.74,.94Z"/>
      <path d="M66.44,22.73c5.73,4.2,9.3,12.87,6.98,20.23-.08,.25-.27,.52,.01,.93,.17-.14,.32-.21,.41-.33,4.08-4.72,8.13-9.47,12.24-14.16,.86-.98,.97-1.95,.68-3.13-1.62-6.53-8.83-11.39-15.48-10.4-3.92,.59-4.61,1.2-5.56,4.71-.25,.94-.12,1.52,.72,2.14Z"/>
      <path d="M18.49,26c-.38,1.47-.15,2.59,.89,3.75,3.13,3.49,6.14,7.1,9.23,10.63,1.04,1.19,1.99,2.49,3.21,3.55,.21-.28,.12-.48,.05-.66-2.57-7.32,1-16.17,6.57-20.3,1.11-.82,1.44-1.62,.89-2.84-.13-.29-.23-.62-.25-.93-.08-1.37-.91-2.03-2.1-2.52-7.18-2.95-16.57,1.79-18.49,9.32Z"/>
      <path d="M94.91,67.79c3.11-3.51,3.34-9.36,.39-13.01-1.84-2.27-2.59-2.51-5.3-1.52-5.13,1.88-10.25,3.78-15.37,5.68-1.18,.44-1.19,.52-.2,1.34,2.52,2.06,4.88,4.26,6.58,7.08,.32,.54,.76,.79,1.38,.83,3.03,.17,6.05,.35,9.08,.53,1.24,.07,2.42,.25,3.44-.91Z"/>
      <path d="M30.97,60.1c.68-.55,.61-.8-.2-1.1-5.48-2.01-10.96-3.99-16.4-6.11-1.42-.55-2.38-.2-3.37,.72-3.34,3.08-4.22,8.22-2.02,12.26,1.01,1.85,2.19,3.52,4.37,2.85,3.41-.2,6.45-.38,9.48-.56,.5-.03,.96-.14,1.24-.62,1.78-2.97,4.25-5.3,6.91-7.44Z"/>
      <path d="M40.27,11.69c3.92-5.43,13.08-6.7,19.23-4.08,2.09,.89,3.87,2.17,5.32,3.93,.2,.25,.65,.95,.82,.27,.45-1.73,1.36-3.44,.06-5.32C62.52,1.85,57.92,.28,52.64,0c-4.44,.2-8.44,1.35-11.68,4.62-1.99,2-2.61,4.16-1.6,6.81,.22,.59,.39,.97,.91,.26Z"/>
      <path d="M68.71,12.57c2.6-1.28,5.35-1.61,8.16-1,6.05,1.31,10.6,4.48,12.68,10.57,.17,.49,.25,1.02,.37,1.53,.12,.51,.28,.74,.79,.28,1.89-1.68,2.87-3.62,2.14-6.22-.37-1.33-.75-2.66-1.5-3.83-3.33-5.2-8.14-7.79-14.25-8.07-.53,0-1.06-.04-1.58,0-2.32,.19-4.41,1.02-6.22,2.49-1.11,.9-.86,2.38-1.34,3.56-.1,.25-.24,.56-.01,.8,.27,.27,.52,0,.76-.12Z"/>
      <path d="M14.2,23.64c.24,.19,.37,.64,.74,.55,.43-.11,.37-.59,.43-.92,.51-2.68,1.74-4.98,3.73-6.82,5.06-4.69,10.76-6.63,17.48-3.87,.27,.11,.83,.36,.72-.1-.37-1.45-.2-3.15-1.52-4.23-2.2-1.78-4.77-2.51-7.87-2.44-1.95-.14-4.08,.42-6.09,1.31-4.37,1.93-7.68,4.93-9.2,9.61-.84,2.61-.78,5.03,1.59,6.91Z"/>
      <path d="M42.72,20.39c6.03-2.6,12.17-2.78,18.36-.58,2.77,.99,2.77,1,3.31-1.93,.03-.16,.07-.32,.12-.51-.11-.79-.66-1.34-1.18-1.9-5.14-5.51-14.82-5.9-20.57-.91-1.62,1.41-2.43,2.88-1.63,5.07,.35,.96,.6,1.19,1.59,.76Z"/>
      <path d="M89.04,28.86c-.54,.61-.4,.85,.4,.95,4.9,.6,8.04,3.52,10.02,7.83,1.16,2.51,1.35,5.14,.6,7.82-.1,.34-.5,1.06,.36,.85,1.53-.37,2.97-.86,3.63-2.63,1.43-3.82,.76-7.35-1.31-10.66-2.26-3.62-5.43-5.95-10.59-6.31-1.05-.19-2.08,.98-3.11,2.15Z"/>
      <path d="M4.34,46.22c.27,.07,.57,.3,.8,.11,.32-.25,.08-.61-.02-.89-.63-1.82-.56-3.68-.14-5.51,1.15-5.02,5.34-9.73,10.91-10.12,.45-.03,.96-.09,.46-.67-1.05-1.21-2.01-2.64-3.5-2.38-1.9,.08-3.32,.31-4.59,.96C3.43,30.23,.58,34.23,.43,39.69c-.09,3.52,.66,5.7,3.91,6.53Z"/>
      <path d="M7.4,68.47c-1.16-1.17-2.04-2.53-2.41-4.14-1.14-4.87-.33-9.16,3.9-12.34,.59-.44,.54-.65-.13-.96-1.58-.73-2.98-.61-4.41,.46-2.57,1.92-3.92,4.51-4.25,7.61-.43,4.06,.52,7.64,4.07,10.14,.43,.3,.89,.58,1.46,.5,.48-.07,.96-.12,1.43-.23,.29-.07,.72,.05,.81-.37,.06-.32-.28-.46-.47-.65Z"/>
      <path d="M101.57,52.07c-1.43-1.25-2.94-2.05-4.96-1.09-.97,.46-.77,.61-.12,1.12,1.21,.95,2.25,2.05,2.95,3.47,2.02,4.07,1.73,9.75-1.8,13.05-.24,.23-.72,.61-.04,.77,1.23,.28,2.43,.7,3.68-.27,2.75-2.15,3.82-5.01,3.93-8.24-.08-3.49-1.02-6.5-3.64-8.79Z"/>
      <path d="M21.58,69.83c-1.24,.15-2.49,.33-3.73,.46-2.38,.24-2.75,.55-3.26,2.93-.12,.55-.17,1.12-.21,1.35,.01,3.93,2.38,7.58,5.51,8.83,1.11,.44,1.34,.31,1.16-.83-.62-4.03-.03-7.9,1.4-11.68,.37-.97-.01-1.17-.86-1.06Z"/>
      <path d="M90.81,74.9c.02-1.07-.27-2.08-.62-3.08-.32-.89-.88-1.37-1.86-1.45-1.53-.13-3.05-.37-4.58-.54-1.18-.13-1.33,.05-.92,1.16,1.38,3.75,1.96,7.6,1.29,11.57-.18,1.05,.12,1.22,1.07,.86,3.19-1.22,5.64-4.89,5.63-8.52Z"/>
      <path d="M18.61,85.41c-2.05-.53-3.66-1.72-4.84-3.44-2.07-3.01-2.84-6.23-1.37-9.74,.31-.74,.17-.88-.64-.8-1.45,.14-2.36,.86-2.97,2.14-1.16,2.46-1.08,4.95-.19,7.43,1.34,3.73,4.78,6.51,8.2,6.62,.85,.14,1.39-.52,2-1.04,.26-.22,.76-.34,.65-.78-.09-.33-.54-.31-.84-.39Z"/>
      <path d="M93.69,71.48c-.34-.02-.75-.33-1.01,.04-.21,.3,.07,.61,.21,.9,.49,1.05,.61,2.17,.71,3.16-.19,4.79-3.16,8.9-7.06,9.89-.28,.07-1.09,.1-.56,.68,.74,.82,1.55,1.62,2.89,1.45,6.09-.77,10.24-8.34,7.6-13.9-.57-1.2-1.34-2.12-2.77-2.22Z"/>
      <path d="M45.01,34.47c.05-1.15-.98-2.23-2.2-2.3-.24-.01-.5-.06-.65,.18-.11,.18,.04,.3,.14,.41,.4,.42,.63,.89,.17,1.38-.45,.48-.98,.48-1.52,.11-.53-.37-.61-.06-.61,.4,0,1.08,.95,1.92,2.2,1.94,1.36,.02,2.42-.89,2.47-2.13Z"/>
      <path d="M61.65,36.59c1.7,.02,2.67-.81,2.75-2.05,.08-1.18-.73-2.12-2-2.33-.27-.04-.6-.16-.78,.11-.19,.27,.13,.42,.27,.59,.31,.41,.33,.83,.01,1.22-.32,.39-.74,.42-1.21,.29-.31-.09-.58-.66-.91-.21-.25,.34,0,.79,.17,1.14,.42,.85,1.15,1.2,1.71,1.22Z"/>
    </g>
  </g>
</svg>