<?xml version="1.0" encoding="UTF-8"?>
<svg id="_图层_2" data-name="图层 2" xmlns="http://www.w3.org/2000/svg" viewBox="0 0 86.7 56.4">
  <g id="_图层_2-2" data-name=" 图层 2">
    <g>
      <path d="M82.07,7.67C65.62,2.45,49.07-1.76,31.5,.74,11.86,3.54-.58,17.92,.02,37.61c.26,8.73,5.91,16.21,14.49,17.85,13.79,2.63,26.65-.15,36.66-10.28,5.61-5.68,11.75-8.02,19.27-8.11,2.04-.02,4.08-.07,6.11-.02,3.87,.1,6.6-1.66,8.23-5.09,.76-1.6,1.29-3.31,1.92-4.98V10.93c-1.28-1.46-2.77-2.66-4.63-3.26Zm-1.08,15.01c-.85,2.28-2.31,3.57-4.88,3.39-3.45-.24-6.85,.41-10.27,.67-6.31,.47-11.67,2.45-16.14,7.37-8.68,9.56-19.95,13.15-32.48,11.11-10.63-1.73-15.43-12.28-10.58-21.99C11.64,13.23,20.54,8.42,30.97,5.88c3.87-.94,7.81-1.01,11.77-.97,12.34,.11,24.14,3.15,35.86,6.65,2.47,.74,3.51,2.22,3.41,4.76-.08,2.18-.25,4.31-1.01,6.37Z"/>
      <path d="M49.09,8.57c-8.81-.63-17.56-.49-25.77,3.43-6.39,3.05-11.52,7.4-14.18,14.19-.69,1.77-.82,3.45,.53,5,1.38,1.57,3.1,1.67,4.88,.99,6.23-2.37,12.68-2.39,19.18-1.91,3.56,0,7.12,.02,10.67,0,1.96-.02,3.95-.31,5.13-2.02,2.87-4.14,5.05-8.56,4.45-13.83-.34-3-1.49-5.61-4.92-5.85Z"/>
      <path d="M41.07,32.96c-4.3-.26-8.6-.53-14.03-.86-3.12-.13-7.23,.58-11.12,2.28-1.67,.73-4.17,1.07-4.16,3.35,.01,2.65,2.68,3.36,4.65,3.78,9.25,1.97,17.86,.32,25.63-5.2,.73-.52,1.48-1.15,1.19-2.18-.29-1.05-1.26-1.11-2.17-1.16Z"/>
      <path d="M56.73,15.69c-.27,1.88-.49,3.76-.69,5.64-.14,1.32,.42,2.51,1.79,2.35,4.56-.54,9.27,0,14.55-1.79-4.74-2.82-8.8-5.3-12.93-7.64-1.41-.8-2.48-.22-2.72,1.44Z"/>
      <path d="M75.16,13.83c-3.54-1.03-7.11-2-10.68-2.94-.82-.21-1.9-.49-2.35,.57-.44,1.04,.48,1.64,1.18,2.15,3.41,2.47,7.01,4.63,10.79,6.5,2.74,1.35,3.37-.22,3.52-2.07,.15-2.32-.62-3.67-2.47-4.21Z"/>
    </g>
  </g>
</svg>