<?xml version="1.0" encoding="UTF-8"?>
<svg id="_图层_2" data-name="图层 2" xmlns="http://www.w3.org/2000/svg" viewBox="0 0 122.92 66.46">
  <defs>
    <style>
      .cls-1 {
        fill-rule: evenodd;
      }
    </style>
  </defs>
  <g id="_图层_2-2" data-name=" 图层 2">
    <g>
      <path class="cls-1" d="M22.99,46.47c0,3.53,2.74,7.73,3.5,10.99H96.44c.6-2.57,3.5-8.54,3.5-9.99v-6H22.99v5Z"/>
      <path class="cls-1" d="M29.48,66.46h63.96c2.32,0,4-5.86,4.5-7.99H24.98c.18,2.15,2.2,7.99,4.5,7.99Z"/>
      <path class="cls-1" d="M22.99,10.49H99.94c1.17,0,2.5-1.33,2.5-2.5,0-2.33-1.17-3.5-3.5-3.5H24.48c-1.68,0-3.5,.88-3.5,2.5v.5c0,1.53,.46,3,2,3Z"/>
      <rect x="22.49" y="29.98" width="77.95" height="6"/>
      <path class="cls-1" d="M21.42,14.98l-8.4-1.19-13.02,.2v3.5c0,2.22,9.17,1.34,12.43,2.56,4.31,1.61,5.97,5.37,9.05,5.44l.5,1.5v2H99.44c1.15,0,1.5-.35,1.5-1.5V12.49H21.99l-.57,2.49Z"/>
      <path class="cls-1" d="M109.43,13.99c-2.61,0-7.99,.13-7.99,2.5v8.99c3.08-.07,4.74-3.9,9.42-5.57,3.08-1.1,12.07-.15,12.07-2.43v-3.5h-13.49Z"/>
      <path class="cls-1" d="M60.96,0h-1c-1.76,0-3.13,2.43-3.5,4h8.49c-.51-2.19-1.26-4-4-4Z"/>
    </g>
  </g>
</svg>