<?xml version="1.0" encoding="UTF-8"?>
<svg id="_图层_2" data-name="图层 2" xmlns="http://www.w3.org/2000/svg" viewBox="0 0 118.72 43.54">
  <g id="_图层_2-2" data-name=" 图层 2">
    <g>
      <path d="M21.1,21.19c1.08-1.48,1.41-3.19,1.52-4.97-.25-2.75-1.71-4.73-3.56-5.06,.55-.42,1.22-.9,1.85-1.43,1.68-1.4,2.53-3.14,2.01-5.35-.48-2.07-2.12-2.81-3.97-3.2C14.37,.23,9.73,.63,5.11,.74c-.59,.01-.79,.37-.89,.91C2.84,8.91,1.46,16.16,.06,23.41c-.18,.92-.04,1.3,1.05,1.34,3.62,.1,7.25,.21,10.86-.09,3.33-.28,6.67-.77,9.12-3.46Zm-9.4,.19c-.5,.24-1.12,.51-1.5,.2-.42-.34-.28-.96-.13-1.56,.43-1.71,.71-3.46,1.05-5.19,0-.57,0-1.34,.66-1.37,.66-.03,1.47,.22,1.65,1.12,1.22,2.76,.46,5.74-1.73,6.8Zm1.67-11c-1.03,.33-1.54,.1-1.29-1.1,.32-1.56,.57-3.13,.91-4.68,.11-.52,.03-1.28,.83-1.36,.81-.08,1.47,.3,1.85,1.01,.3,.56,.43,1.2,.4,1.85,0,2.08-1.06,3.77-2.69,4.28Z"/>
      <path d="M71.69,24.71c2.84,.98,5.73,.87,8.62,.43,2.48-.38,4.73-1.25,6.35-3.3,.5-.94,.74-1.96,.85-3.01-.08-.11-.16-.23-.24-.34,0,0-.02-.04-.02-.04-.07-1.21-.32-1.81-1.72-.96-2.2,1.33-4.67,1.38-7.13,.92-1.74-.32-2.56-1.38-2.69-3.26-.24-3.48,.58-6.75,2.14-9.85,.39-.76,.89-1.45,1.62-1.94,1.34-.9,2.72-.25,2.8,1.35,.06,1.17,.08,2.35-.01,3.51-.06,.83,.15,1.1,1,1.15,1.91,.12,3.56-.47,4.96-1.7,2.45-2.16,1.83-5.58-1.22-6.76-.73-.28-1.5-.44-2.25-.65,0,0,0,0,0,0-.68-.08-1.36-.16-2.04-.24-.13,0-.26,0-.39-.01-1.38,.09-2.77,.11-4.14,.29-6.01,.8-10.26,4.53-11.74,10.23-.56,2.15-.66,4.35-.43,6.5,.39,3.59,2.02,6.42,5.69,7.69Z"/>
      <path d="M54.55,21.4c1.05,4.02,6.3,5.5,9.53,2.82,.46-.38,1.12-.85,.41-1.71-1.21-1.46-1.47-3.25-1.58-5.08-.31-5.15-.67-10.31-.92-15.46-.05-1.04-.47-1.24-1.35-1.23-2.29,.02-4.58,.05-6.87-.03-1.12-.04-1.71,.36-2.19,1.38-2.41,5.04-4.92,10.02-7.34,15.05-1.17,2.42-2.6,4.73-3.6,7.58,1.07,0,1.91,0,2.76,0q2.79,.01,3.76-2.57c1.14-3.01,1.14-2.92,4.38-3.01,1.75-.05,2.54,.44,3.01,2.26Zm-2.09-5.42c-.88-.07-1.78-.01-2.87-.01,1.04-2.95,2.36-5.51,3.82-8.27,.33,2.47,.43,4.64,.51,6.82,.04,1.13-.35,1.54-1.46,1.46Z"/>
      <path d="M24.12,24.7c4.16,.01,8.32,.02,12.48,0,.63,0,1.28-.13,1.88-.31,2.01-.6,2.62-1.91,2.12-3.94-.25-1.02-.85-1.24-1.62-.94-1.5,.58-2.94-.09-4.4-.04-.55,.02-.72-.25-.61-.82,.23-1.26,.37-2.53,.58-3.79,.72-4.3,1.45-8.6,2.17-12.9,.09-.51,.35-1.1-.55-1.14-2.88-.14-5.76-.17-8.63,0-.32,.02-.58,.09-.67,.63-.72,4.5-1.53,8.98-2.31,13.47-.43,2.53-.69,5.08-1.41,7.55-.02,.28-.04,.57-.06,.86-.02,.14-.03,.28-.05,.41-.36,1.11,.46,.95,1.07,.95Z"/>
      <path d="M101.92,1.66c.2-.77-.29-.88-.9-.88-2.18,0-4.37,.06-6.54-.08-1.59-.1-2.06,.63-2.31,2.05-.85,4.79-1.81,9.56-2.73,14.34-.03,1.76-.48,3.45-.93,5.13-.05,.31-.06,.62-.15,.92-.38,1.29,.17,1.62,1.4,1.58,2.28-.08,4.56-.05,6.84,0,.83,.02,1.4-.31,1.44-1.07,.13-2.23,.88-4.35,1.14-6.56,.51-3.05,1.03-6.09,1.54-9.14,.84-2.01,.67-4.22,1.2-6.29Z"/>
      <path d="M112.66,21.26c-2.39-2.17-3.55-5.16-3.8-8.22-.15-1.86,1.99-3.11,3.13-4.62,.06-.08,.14-.16,.21-.24,2.12-2.35,4.24-4.71,6.52-7.25-2.82-.3-5.41-.16-7.99-.22-1.01-.02-1.67,.29-2.26,1.13-1.99,2.79-4.06,5.53-6.1,8.29-.09,.18-.13,.41-.26,.54-1.43,1.35-1.87,2.94-1.26,4.84,.12,.37,.01,.82,0,1.23,.57,2.15,1.04,4.35,2.42,6.19,2.34,3.12,7.55,3.42,9.6,.57,.62-.86,.7-1.41-.22-2.24Z"/>
      <path d="M68.18,32.7c-.5-2.66-2.19-4.32-4.83-4.92-3.22-.74-6.46-.35-9.69-.12-.79,.06-.93,.51-.92,1.18,.02,2.18,0,4.37,0,6.55,0,0,0,0,.01,0,0,2.24,0,4.47,0,6.71,0,.64,.08,1.13,.92,1.16,2.23,.08,4.46,.38,6.7,.24,6.53-.4,8.96-4.75,7.82-10.8Zm-6.69,2.35c0,1.93-.08,3.57-.56,5.16-.18,.6-.47,1.2-1.14,1.13-.8-.09-.64-.85-.64-1.41,0-3.03,0-6.06,0-9.09,0-.52-.11-1.17,.61-1.28,.72-.11,1.02,.48,1.21,1.04,.5,1.54,.56,3.13,.53,4.45Z"/>
      <path d="M40.68,37.75c-.29-.52-.54-.9,.18-1.44,1.76-1.33,2.09-3.2,1.64-5.28-.43-1.99-1.79-2.95-3.65-3.29-3.17-.59-6.35-.35-9.53-.03-.9,.09-1.11,.44-1.1,1.29,.04,3.99,.01,7.98,.02,11.98,0,2.28,.01,2.28,2.28,2.3q4.16,.02,4.23-4.13c-.04-2.92-.08-5.85-.11-8.77,0-.43,.06-.89,.66-.9,.48-.01,.88,.18,.93,.68,.17,1.77,1.15,3.69-.93,5.05-.5,.32-.2,.75-.1,1.15,.23,.92,.48,1.84,.71,2.76,.5,1.33,.41,3.2,1.48,3.93,1.13,.77,2.89,.19,4.37,.23,.27,0,.53-.01,.8,0,.86,.03,1.04-.25,.59-1.03-.85-1.47-1.64-2.98-2.45-4.47Z"/>
      <path d="M80.54,30.82c-.83-3.34-.82-3.34-4.27-3.35-3.77,0-3.8-.02-4.76,3.62-1.05,3.99-2.33,7.93-3.15,12q3.18,.44,4.01-2.33c.02-.05,.05-.1,.05-.15,.05-1.05,.86-.98,1.49-.88,.83,.14,1.94-.63,2.46,.73,.35,.91,.03,2.28,1.05,2.66,.94,.35,2.1,.12,3.16,.13,.53,0,1.07-.06,1.6,0,1.25,.15,1.4-.41,1.12-1.47-.95-3.65-1.86-7.31-2.77-10.97Zm-5.25,6.47c-.56,.19-1.29,.19-1.85,0-.59-.2-.23-.82-.11-1.25,.31-1.09,.22-2.3,1.15-3.62,.38,1.43,.69,2.52,.96,3.62,.11,.43,.44,1.06-.14,1.25Z"/>
      <path d="M96.04,27.59c-1.15-.16-2.36-.2-3.49,.01-.74,.14-.56,1.15-.74,1.78-.25,.9-.48,1.81-.73,2.72-.27-.06-.22-.32-.31-.49-.66-1.31-.41-3.33-1.7-3.95-1.22-.58-2.93-.08-4.41-.19-1.44-.1-1.63,.39-1.09,1.62,1.85,4.2,3.54,8.45,2.91,13.21-.11,.83,.38,.96,1.07,.95,1.39-.03,2.77-.05,4.16,.01,.92,.04,1.23-.32,1.2-1.2-.04-1.01,.08-2.03,0-3.04-.15-2.02,.28-3.88,1.19-5.69,.76-1.52,1.37-3.12,2-4.7,.13-.32,.57-.96-.04-1.05Z"/>
      <path d="M25.53,27.49c-2.4,.05-4.8,.06-7.2-.01-1.25-.04-1.73,.47-1.71,1.67,.03,2.13,0,4.27,0,6.4h0c0,2.19,0,4.37,0,6.56,0,.49-.18,1.15,.69,1.13,1.8-.03,3.91,.63,5.31-.27,1-.65,.23-2.79,.35-4.25,.02-.21,.02-.43,0-.64-.09-1.04,.43-1.42,1.41-1.43,.74-.01,1.6,.2,1.61-1.13,0-1.42-.92-1.22-1.72-1.21-.99,.02-1.25-.43-1.3-1.35-.14-2.93-.17-2.97,2.67-3.11,.86-.04,1.05-.36,1.06-1.14,.01-.9-.28-1.22-1.2-1.2Z"/>
      <path d="M49.36,27.48c-1.22,.08-2.45,.06-3.67,0-.86-.04-1.24,.2-1.23,1.14,.04,4.53,.04,9.05,0,13.58,0,.9,.35,1.08,1.14,1.05,1.38-.05,2.77-.06,4.15,0,.85,.03,1.1-.3,1.08-1.11-.04-2.24-.01-4.47-.01-6.71,0,0,0,0,0,0,0-2.18-.05-4.37,.02-6.55,.04-1.15-.4-1.47-1.48-1.4Z"/>
    </g>
  </g>
</svg>