<?xml version="1.0" encoding="UTF-8"?>
<svg id="_图层_2" data-name="图层 2" xmlns="http://www.w3.org/2000/svg" viewBox="0 0 126.47 105.77">
  <defs>
    <style>
      .cls-1 {
        fill-rule: evenodd;
      }
    </style>
  </defs>
  <g id="_图层_2-2" data-name=" 图层 2">
    <path class="cls-1" d="M124,94.92c-.36-3.09,.48-7.58,.48-11.47l.11-3.51-1.11-9.48-.5-2c-1.23,5.27-6.62,4-11.99,4h-2.5c-2.31,0-4,1.11-4,3.5v5c0,2.71,3,6.14,3,9.99v1c0,2.51-2.48,5-5,5-5.81,0,3.01-22.99-10.49-22.99h-.5c-1.34,0-1.48,.72-2,1.5l1.22,6.45c-3.57-.24-2.73-1.96-5.72-1.96s-1.48,4.5-3.5,4.5c-5.36,0-2.56-12.49-6-12.49-2.9,0-5.41,3-9.49,3-2.91,0-7.47-3.5-9.99-3.5h-1.5c-5.34,0-5.84,5.89-10.49,6-.37-1.57-.6-3.5-2.5-3.5h-2c-2.81,0-5.5,3.3-5.5,6v4.5c0,2.73,1,2.77,1,5.5v3.5c0,1.35-1.33,2-2.5,2-.14,0-.91-.34-1.5-.5-1.11-4.78,1.05-20.49-4-20.49h-.5c-.9,0-2.66,1.79-4,2.5l-.46,.31-5.08-7.61-.46,.31c-4.9,3.28-3.3,10.49-6.5,10.49s.69-4.36-4-7.5H3.05l-1.5-3c-.34-.61-.5-.53-.5-1.5v-1.51s116.43-4.98,116.43-4.98l4.5-1c-1.41-1.92-27.67-13.93-32.14-15.83-5.25-2.23-10.95-5.27-16.15-7.83-4.79-2.36-3.86-.55-6.87-5.12-1.35-2.06-3.96-5.47-5.8-6.7l-4.23-2.97-.27,.48v-1.5c0-6.47-4.76-11.49-10.99-11.49h-3.5c-2.86,0-3.57,.8-6,1C33.84,6.86,28.04,0,22.04,0c-4.58,0-11.65,4.98-13.49,7.5,.38,.56,1.17,2,2,2,1.57,0,4.29-8.49,9.99-8.49h2.5c3.81,0,11.16,7.38,11.99,10.49-5.11,.43-11.49,5.6-11.49,10.99,0,1.95,.38,3.71,1,5-8.84,0-4.24,2.65-9.99,6.5v1.5c-.17,2.05-.5,1.12-.5,3,0,1.29,.88,2.28,1.5,3-3.25,4.85-7.79,7.46-10.7,11.78-1.74,2.59-7.09,13-3.79,18.2,0,3.98,2.21,9.56,2.24,11.03l-1.74,11.96v3.5c0,8.9,17.67,6,26.48,6,7.98,0,25.53-.53,32.28,.7,8.74,1.59,23.39-1.06,31.98,.5,6.69,1.22,24.66,.3,32.68,.3,.82,0,1.5-.3,1.5-1,0-4.6-2.11-6.36-2.48-9.52ZM37.03,53.97c-2.91,0-5.71-.76-7.5-2,7.27-.16,14.64-5.07,18.86-8.62,4.1-3.46,10.38-12.72,12.62-14.36-.96,11.52-8.86,24.98-21.49,24.98h-2.5Zm16,6.01l-12.67,.29,11.53-9.95,7.09,1.34,2.03-.2c1.82,0,1.75-.59,3.5-1l-11.48,9.51Zm26.49-14.49l14.99,6.94-6.41,5.66-23.3,.13,14.72-12.73Zm-9.51-1.52v-2.5l3.4,1.68-3.86,3.37c.22-1.17,.46-1.2,.46-2.55Zm-.5-1c0,3.96-4.86,7.5-8.99,7.5h-3l-4.5-.5c.47-1.74,4.41-6.18,5.8-9.69,1.03-2.59,3.12-9.28,3.19-12.3,3.13,2.09,7.5,9.67,7.5,14.99Zm-12.24-19.34l3.25,2.35,.54,.97c-5.65,8.4-13.5,17.65-23.02,22.02-4.87,2.23-13.58,2.85-18.09-.41-.9-.65-5.84-4.87-3.75-5.9,.05-.02,8.04,.81,9.84,.81h7c4.82,0,13.31-3.67,15.99-6,3.15-2.11,7.88-8.39,8.25-13.84Zm-9.75-10.64c2.28,.61,4.5,2.65,4.5,5.5,0,2.55-2.67,5.93-5.5,6,.08-3.77,2.5-3.22,2.5-6.5v-.5c0-2.82-1.27-1.74-1.5-4.5Zm-10.49,.5l1.5,1.5c-.55-1.04-1.74-2.5,.5-2.5h.5c1.85,0,2.26,.49,3,1.5-1.02,1.53-2.99,3.5-5.5,3.5h-2.5c-1.15,0-1.5-.35-1.5-1.5,0-1.63,2.18-2.46,4-2.5Zm-14.99,14.99h1.5c3.35,0,10,5.77,11.49,8-6.1,3.23-16.49-2.92-16.49-5,0-1.91,1.48-3,3.5-3Zm-4.16,4.26l9.65,5.74c-3.29,0-11.99-1.28-11.99-3.5,0-1.41,1.44-1.79,2.34-2.24Zm-2.34,3.74c3.59,1.9,6.49,3,11.99,3,7.86,0,19.92-9.49,19.99-9.49,2.19,0,3.2,2.48,4.11,4.11l-2.61,2.38c-4.32,2.89-9.35,6-16.49,6h-10.49c-4.02,0-8.56-1.7-6.5-6ZM4.55,60.46c0-3.46,9.12-14.36,11.49-14.99,.82,3.08,4.97,5.33,8.1,5.89,4.59,.82,5.91,2.73,10.39,3.1l-7.92,6.59-22.06,.84v-1.44Z"/>
  </g>
</svg>