<?xml version="1.0" encoding="UTF-8"?>
<svg id="_图层_2" data-name="图层 2" xmlns="http://www.w3.org/2000/svg" viewBox="0 0 157.73 81.95">
  <defs>
    <style>
      .cls-1 {
        fill-rule: evenodd;
      }
    </style>
  </defs>
  <g id="_图层_2-2" data-name=" 图层 2">
    <g>
      <path class="cls-1" d="M2.07,70.24c0-3.72,1.62-12.79,2.76-15.15,2.08-8.93,9.25-22.88,13.77-29.62,8.8-13.11,6.4-14.46,28.24-14.46l-6.77,20.48c5.84,.07,6.34-7.33,12.97-10.84-.18,2.15-1.66,4.13,1.38,4.13,1.25,0,1.47-.36,2.16-.93l-.02-.03,.61-.42c-.24,.16-.42,.31-.59,.44l2.81,4.06,3.98-2.44,3.29-3.6-2.28,5.49,2.43,.18c2.28,0,5.66-4.92,7.58-6.2l-4.66,15.68,1.91,.16,3.61-10.27c5.16-.18,13.61-8.09,13.61-13.15,0-.61-.76-1.38-1.38-1.38-3.53,0-7.1,5.19-9.64,6.89l3.04-10.24c-4.58,1.06-3.05,5.56-5.64,9.02-1.35,1.8-5.29,5.56-7.04,6.73l4.2-11.68c-3.79,.38-3.06,4.94-6.96,7.55,.44-1.89,1.38-2.8,1.38-4.13,0-.97-.94-1.38-2.07-1.38-4.55,0-5.71,7.03-10.33,8.27l1.68-4.73c-6.02,.38-8.07,5.53-12.02,8.17l5.5-16.53c11.06,0,15.17-1.24,23.43-3.44V3.43h-1.38c-1.41,6.04-14.02,5.51-21.35,5.51l2.24-5.43c-4.31,.27-2.19,2.2-5,5.43l-18.58,2.24L35.16,0c-3.04,.31-6.18,6.39-7.73,8.81-2.72,4.24-6.07,3.35-11,4.84C11.74,15.07-3.15,22.17,.69,28.22c1.36-2.14,.56-3.27,2.92-6.03,1.54-1.8,3.46-2.85,5.46-4.18,2.89-1.91,9.58-4.26,14.34-4.26-4.31,8.14-10.42,15.36-15.16,24.79C4.93,45.19,0,60.39,0,70.24c0,7.37,2.03,7.9,4.82,11.71h4.13v-1.38h-2.07c-3.67,0-4.82-6.36-4.82-10.33ZM86.79,13.76c-1.33,5.71-4.6,10.37-10.33,11.71,1.28-5.48,5.83-9.33,10.33-11.71Zm-21.35,2.07l-2.27,5.1,.99,1.71-4.92,3.53c.11-5.05,3.06-8.23,6.2-10.33Z"/>
      <path class="cls-1" d="M73.7,48.89c1.99-3.76,4.36-7.83,9.64-8.27-.08,3.49-1.58,5.24-4.82,5.51v1.38c3.51-.29,6.2-2.48,6.2-6.2,0-1.95-1.58-2.66-2.8-3.57l-2.02,.82c-2.91,2.53-7.17,5.45-7.58,10.33l-10.2,4.42-.44-.55,11.07-13.16-.99-.97-9.74,8.92,6.89-16.25-.73-.33c-4.03,2.13-3.34,4.85-5.51,8.95-1.01,4.32-4.74,13.34-8.95,14.46l.85-4.1c-6.61,.11-8.62,5.16-11.87,7.54l2.87-10.1-.8-.23c-2.12,1.56-5.82,11.89-11.02,13.78l5.03-12.31c-3.93,.32-3.2,4.88-7.1,7.49l1.68-5.42c-8.51-.1-6.49,6.01-12.02,7.48l.85-4.1c-6.93,.53-7.68,5.42-11.87,8.23l8.42-24.05c-4.65,.44-5.52,10.54-7.73,13.72l-4.13,15.15c5.1-.11,6.41-8.18,13.09-11.71-.63,2.37-1.38,1.82-1.38,2.76,0,1.59,.48,2.07,2.07,2.07s1.51-.55,2.24-1.03l2.77,4.12,.76-.04,6.72-5.76-2.16,5.47h2.07c2.12,0,4.53-3.7,6.2-4.82v4.13l.52,.51,11.97-12.13,.6,.59c-.63,2.37-1.38,1.82-1.38,2.76,0,1.59,.48,2.07,2.07,2.07,1.71,0,2.59-1.72,4.16-2.75l-2.36,8.87,.79,.26,4.03-10.57,.27,2.81c2.47-.05,6.75-1.93,8.74-2.97,5.51-2.86,3.65-2.98,3.65,3.66,.79,1.17,1.5,2.76,3.44,2.76,1.61,0,2.76-1.14,2.76-2.76,0-3.4-2.76-5.51-4.82-6.89Zm-48.22,12.4c.36-4.33,3.05-7.98,6.2-9.64l-2.16,5.47,1.47,.04c-1.29,1.92-2.49,3.88-5.51,4.13Zm48.87-4.81l-.82-4.11c2.31,.54,3.04,1.97,3.61,4.1h-2.79Z"/>
      <path class="cls-1" d="M153.69,36.57c-.25-2.02-.07-2.83-2.15-2.83h-.69c-2.54,0-8.26,7.11-11.02,8.95l.84-4.79c-6.1,.47-8.01,4.97-11.86,7.55l2.84-10.12-.78-.21c-3.55,2.6-3.16,12.23-8.95,13.78l3.05-11.62c-2.25,.43-7.88,11.46-7.88,4.73,0-2.5,.82-2.42,1.38-4.82-4.9,.54-8.03,10.39-11.71,13.09l3.44-16.53v-1.38c-5.74,1.53-2.31,15.37-11.39,19.87l3.13-11.6c-2.86,.76-4.82,6.66-4.82,10.33v.69c0,2.08,.81,1.9,2.76,2.07l3.81-3.8,1.01-.33v2.07c0,1.91,.53,1.66,2.07,2.07l7.97-11.92,1.57,3.7,3.59-.55-.04,5.33,2.08,.65,3.31-2.85,.12,2.19c4.74-.39,6.91-8.89,13.09-10.33l-1.42,2.74,1.96,2.23,4.79-3.18c.79,1.96,.97,2.34,3.62,2.34,3.04,0,3.82-3.27,6.2-4.13-4.55,8.6-14.87,13.74-15.84,25.49,9.5,0,19.28-23.98,19.98-32.37l-4.05,3.52Zm-2.4,1.49l.21,1.89-5.47,2.74c.09-3.93,2.6-7.28,6.2-7.58l-.94,2.94Zm-12.15,26.67c.14-6.36,7.05-13.87,11.02-16.53-1.47,6.3-6.4,13.43-11.02,16.53Z"/>
      <path class="cls-1" d="M91.61,42.69h-.69c-3.46,0-6.89,3.43-6.89,6.89v.69c0,1.86,1.83,2.76,3.44,2.76,1.25,0,4.71-3.91,5.51-4.82-.59,7.09-14.88,13.07-15.15,25.49h2.76c5.67,0,16.53-25.02,16.28-32.57l-3.02,3.78c-.59-1.68-.34-2.21-2.25-2.21Zm-.81,6.18l-4.7,2.78c0-4.43,2.15-7.37,5.51-8.27l-.81,5.49Zm-11.59,24.13c.14-6.36,7.05-13.87,11.02-16.53-1.45,6.24-6.41,13.44-11.02,16.53Z"/>
      <path class="cls-1" d="M105.39,17.89c4.56,0,5.27-4.69,8.27-6.89-1.03,4.4-7.78,21.35-11.71,21.35-1.13,0-2.07-.41-2.07-1.38,0-7.1,5-7.23,6.2-11.71-3.43,.92-5.68,6.23-7.58,8.95v3.44c1.24,.83,1.21,1.38,2.76,1.38,3.73,0,5.76-3.42,7.58-5.51l8.95-21.35,1.38-3.44c-4,.33-9.16,11.14-13.35,13.7l1.64-6.13c-2.72,.73-4.13,2.86-4.13,6.2,0,.97,.94,1.38,2.07,1.38Z"/>
      <path class="cls-1" d="M88.85,26.85c.74-2.76,13.78-5.45,13.78-15.84-7.33,0-7.2,4.33-11.02,6.89l3.66-10.95c-4.26,1.01-10.54,22.1-10.54,28.17l4.13-8.27Zm12.4-15.15c-1.14,4.87-5.39,11.24-11.02,11.71,2.24-4.23,5.96-10.53,11.02-11.71Z"/>
      <path class="cls-1" d="M100.09,36.26c-.73,0,.17,.59,.17,1.32s.23,1.93,.63,1.32c.92-1.42,.95-.84,.92-1.32-.05-.73-.99-1.32-1.72-1.32Z"/>
      <path class="cls-1" d="M131.58,33.62c1.25,.39,1.18,.67,1.05-.12-.12-.71-1.11-2.5-1.63-2.5s.12,.58,.12,1.31-.19,1.11,.45,1.31Z"/>
    </g>
  </g>
</svg>